/* XPM */
static char * cad_tree_selected32x32_xpm[] = {
"32 32 234 2",
"  	c None",
". 	c #A7A7FA",
"+ 	c #ADADFA",
"@ 	c #B4B5FD",
"# 	c #B3B3FD",
"$ 	c #A6A6F8",
"% 	c #9E9EF9",
"& 	c #ACACFA",
"* 	c #D4D4FE",
"= 	c #D9D9FE",
"- 	c #CDCDFF",
"; 	c #C1C0FF",
"> 	c #C3C3FF",
", 	c #CDCDFE",
"' 	c #D1D1FF",
") 	c #BABAFE",
"! 	c #9797F3",
"~ 	c #BFBFFD",
"{ 	c #DBDBFE",
"] 	c #ABABFB",
"^ 	c #828CEB",
"/ 	c #5F9FEB",
"( 	c #52AEEB",
"_ 	c #56ADEE",
": 	c #6A9CEE",
"< 	c #9296F3",
"[ 	c #C8C8FF",
"} 	c #9E9FF6",
"| 	c #BCBCFC",
"1 	c #D3D3FF",
"2 	c #8E93F1",
"3 	c #4BB2EA",
"4 	c #35F4FE",
"5 	c #3EFEFF",
"6 	c #41FEFE",
"7 	c #3FFEFF",
"8 	c #3AFEFF",
"9 	c #39E7FB",
"0 	c #64A5F2",
"a 	c #A8A8FB",
"b 	c #C7C7FF",
"c 	c #9696F2",
"d 	c #AAAAFB",
"e 	c #DADAFF",
"f 	c #8E92F0",
"g 	c #3DCEF4",
"h 	c #40FFFF",
"i 	c #60FEFE",
"j 	c #7AFEFE",
"k 	c #78FFFE",
"l 	c #63FEFF",
"m 	c #4DFEFE",
"n 	c #40FEFE",
"o 	c #3AFCFE",
"p 	c #57B4F6",
"q 	c #ACACFD",
"r 	c #C0C0FE",
"s 	c #8888E9",
"t 	c #D0D0FE",
"u 	c #49B6ED",
"v 	c #6EFEFE",
"w 	c #A0FFFE",
"x 	c #B1FFFE",
"y 	c #A4FEFE",
"z 	c #86FEFF",
"A 	c #64FEFE",
"B 	c #4CFEFF",
"C 	c #3BFBFF",
"D 	c #72A6F7",
"E 	c #C3C3FE",
"F 	c #A1A1F8",
"G 	c #A2A2F9",
"H 	c #D2D2FE",
"I 	c #7F90ED",
"J 	c #36F8FE",
"K 	c #55FEFE",
"L 	c #8EFFFF",
"M 	c #B4FFFF",
"N 	c #BAFEFF",
"O 	c #AAFFFF",
"P 	c #8EFEFF",
"Q 	c #70FFFF",
"R 	c #56FEFE",
"S 	c #46FFFF",
"T 	c #3FFFFE",
"U 	c #44D9FC",
"V 	c #AAAAFD",
"W 	c #BDBDFF",
"X 	c #7F7FE2",
"Y 	c #A6A6FA",
"Z 	c #C7C7FE",
"` 	c #5DA8F0",
" .	c #3BFFFE",
"..	c #5EFEFF",
"+.	c #8BFEFE",
"@.	c #A5FEFF",
"#.	c #A9FFFF",
"$.	c #9CFEFE",
"%.	c #86FFFE",
"&.	c #70FEFE",
"*.	c #5BFFFE",
"=.	c #4CFFFE",
"-.	c #42FEFE",
";.	c #3DF8FF",
">.	c #8DA4FC",
",.	c #C6C5FE",
"'.	c #8686E8",
").	c #ADADFD",
"!.	c #BFBFFE",
"~.	c #50BAF0",
"{.	c #3DFEFE",
"].	c #57FEFF",
"^.	c #77FEFF",
"/.	c #8BFEFF",
"(.	c #8FFFFE",
"_.	c #88FEFF",
":.	c #7BFFFF",
"<.	c #6CFEFF",
"[.	c #5EFEFE",
"}.	c #52FFFF",
"|.	c #48FFFE",
"1.	c #3FFCFF",
"2.	c #7DACFC",
"3.	c #C6C6FE",
"4.	c #8A89E9",
"5.	c #A9A9FD",
"6.	c #53BAF3",
"7.	c #3CFEFE",
"8.	c #4CFEFE",
"9.	c #61FEFE",
"0.	c #70FFFE",
"a.	c #77FEFE",
"b.	c #76FEFF",
"c.	c #67FEFF",
"d.	c #5FFEFE",
"e.	c #58FEFF",
"f.	c #40FBFE",
"g.	c #7FACFD",
"h.	c #CACAFE",
"i.	c #8C8CEE",
"j.	c #9C9CF5",
"k.	c #C4C4FE",
"l.	c #66AAF5",
"m.	c #3BFFFF",
"n.	c #43FFFF",
"o.	c #50FEFE",
"p.	c #5DFEFE",
"q.	c #66FEFE",
"r.	c #68FFFE",
"s.	c #65FEFE",
"t.	c #5FFEFF",
"u.	c #5BFEFF",
"v.	c #58FEFE",
"w.	c #4FFEFF",
"x.	c #40F2FE",
"y.	c #96A9FD",
"z.	c #CDCCFE",
"A.	c #7E7EDF",
"B.	c #9291F0",
"C.	c #C5C5FF",
"D.	c #8F9CF7",
"E.	c #39F1FE",
"F.	c #3FFEFE",
"G.	c #46FFFE",
"H.	c #51FFFF",
"I.	c #5BFFFF",
"J.	c #5EFFFE",
"K.	c #5CFFFE",
"L.	c #5AFFFF",
"M.	c #4BFEFE",
"N.	c #4CD0FE",
"O.	c #C2C2FE",
"P.	c #B8B8FE",
"Q.	c #7070D0",
"R.	c #B2B2FE",
"S.	c #B9BAFE",
"T.	c #5CB4F7",
"U.	c #3CFDFE",
"V.	c #42FEFF",
"W.	c #4AFEFF",
"X.	c #59FEFE",
"Y.	c #57FFFE",
"Z.	c #53FEFE",
"`.	c #42F0FE",
" +	c #88AEFE",
".+	c #9090EE",
"++	c #8E8EEE",
"@+	c #C3C2FF",
"#+	c #A8ABFC",
"$+	c #50C3FB",
"%+	c #3EFAFE",
"&+	c #43FFFE",
"*+	c #4BFEFF",
"=+	c #54FFFE",
"-+	c #43F0FE",
";+	c #71B4FE",
">+	c #D0D0FF",
",+	c #B5B5FD",
"'+	c #6E6ECB",
")+	c #9696F3",
"!+	c #C9C9FE",
"~+	c #AFB1FD",
"{+	c #6AB2FC",
"]+	c #41E1FE",
"^+	c #40F7FE",
"/+	c #43FBFE",
"(+	c #45FAFE",
"_+	c #43F2FE",
":+	c #4CD2FE",
"<+	c #86B0FE",
"[+	c #7A7AD9",
"}+	c #9292F0",
"|+	c #C2C3FE",
"1+	c #ACB0FD",
"2+	c #87ACFD",
"3+	c #78B3FE",
"4+	c #7CB4FF",
"5+	c #93AEFE",
"6+	c #C3C4FE",
"7+	c #DDDDFF",
"8+	c #B6B6FD",
"9+	c #8182E3",
"0+	c #A0A0F8",
"a+	c #D1D1FE",
"b+	c #D3D3FE",
"c+	c #B9B9FD",
"d+	c #8F8FEE",
"e+	c #6F6FCF",
"f+	c #7878DA",
"g+	c #7D7DDC",
"h+	c #7E7FDF",
"i+	c #7D7CDC",
"j+	c #7879D9",
"k+	c #6D6DCC",
"                                                                ",
"                                                                ",
"                                                                ",
"                                                                ",
"                                                                ",
"                                                                ",
"                                                                ",
"                          . + @ # $ %                           ",
"                      & * = - ; > , ' ) !                       ",
"                    ~ { ] ^ / ( _ : < ) [ }                     ",
"                  | 1 2 3 4 5 6 7 8 9 0 a b c                   ",
"                d e f g h i j k l m n o p q r s                 ",
"                t ] u 7 v w x y z A B n C D E F                 ",
"              G H I J K L M N O P Q R S T U V W X               ",
"              Y Z `  ...+.@.#.$.%.&.*.=.-.;.>.,.'.              ",
"              ).!.~.{.].^./.(._.:.<.[.}.|.1.2.3.4.              ",
"              5.!.6.7.8.9.0.a.b.&.c.d.e.8.f.g.h.i.              ",
"              j.k.l.m.n.o.p.q.r.s.t.u.v.w.x.y.z.A.              ",
"              B.C.D.E.F.G.H.I.J.K.L.v.v.M.N.O.P.Q.              ",
"                R.S.T.U.V.W.K X.v.e.Y.Z.`. += .+                ",
"                ++@+#+$+%+&+*+=+Y.R o.-+;+>+,+'+                ",
"                  )+!+~+{+]+^+/+(+_+:+<+>+O.[+                  ",
"                    }+|+h.1+2+3+4+5+6+7+8+[+                    ",
"                      9+0+O.t a+b+H c+d+e+                      ",
"                          f+g+h+i+j+k+                          ",
"                                                                ",
"                                                                ",
"                                                                ",
"                                                                ",
"                                                                ",
"                                                                ",
"                                                                "};
