/* XPM */
static char * vector_xpm[] = {
"32 32 269 2",
"  	c None",
". 	c #000000",
"+ 	c #000104",
"@ 	c #000513",
"# 	c #00030D",
"$ 	c #000102",
"% 	c #00030C",
"& 	c #00081F",
"* 	c #000C31",
"= 	c #00134E",
"- 	c #000A28",
"; 	c #000207",
"> 	c #000923",
", 	c #001144",
"' 	c #001C75",
") 	c #002189",
"! 	c #00186B",
"~ 	c #00061D",
"{ 	c #00030A",
"] 	c #000D33",
"^ 	c #001966",
"/ 	c #00228B",
"( 	c #001F84",
"_ 	c #001250",
": 	c #000825",
"< 	c #000105",
"[ 	c #000002",
"} 	c #000001",
"| 	c #000103",
"1 	c #000208",
"2 	c #00071B",
"3 	c #001554",
"4 	c #00228A",
"5 	c #002291",
"6 	c #001768",
"7 	c #000B34",
"8 	c #00030F",
"9 	c #000617",
"0 	c #001654",
"a 	c #000519",
"b 	c #000C32",
"c 	c #00020A",
"d 	c #00103F",
"e 	c #001F7F",
"f 	c #0026A0",
"g 	c #001C7E",
"h 	c #000F47",
"i 	c #00061A",
"j 	c #001244",
"k 	c #002898",
"l 	c #0031BF",
"m 	c #002188",
"n 	c #000209",
"o 	c #000D3D",
"p 	c #001B7A",
"q 	c #0028AC",
"r 	c #0027A0",
"s 	c #002088",
"t 	c #00145A",
"u 	c #000A2C",
"v 	c #000D30",
"w 	c #00217C",
"x 	c #002CAC",
"y 	c #00269B",
"z 	c #001456",
"A 	c #000927",
"B 	c #00071E",
"C 	c #001664",
"D 	c #002299",
"E 	c #0029B9",
"F 	c #002DC7",
"G 	c #001A73",
"H 	c #000824",
"I 	c #000922",
"J 	c #001A63",
"K 	c #00289A",
"L 	c #00279E",
"M 	c #001B6F",
"N 	c #000F3E",
"O 	c #000F46",
"P 	c #00208E",
"Q 	c #0028B4",
"R 	c #002AC0",
"S 	c #002ABF",
"T 	c #0027AF",
"U 	c #001D81",
"V 	c #000D3C",
"W 	c #00020B",
"X 	c #000514",
"Y 	c #00154F",
"Z 	c #002388",
"` 	c #002799",
" .	c #001F7E",
"..	c #001352",
"+.	c #000B2F",
"@.	c #000A2E",
"#.	c #00114F",
"$.	c #001355",
"%.	c #00114C",
"&.	c #000B33",
"*.	c #00145C",
"=.	c #001B7C",
"-.	c #00186D",
";.	c #001E79",
">.	c #002591",
",.	c #002186",
"'.	c #001967",
").	c #001043",
"!.	c #000823",
"~.	c #000411",
"{.	c #000518",
"].	c #000412",
"^.	c #000619",
"/.	c #00104A",
"(.	c #00176C",
"_.	c #001E88",
":.	c #002196",
"<.	c #00218C",
"[.	c #001760",
"}.	c #000C34",
"|.	c #000827",
"1.	c #001567",
"2.	c #00051A",
"3.	c #00155F",
"4.	c #001E89",
"5.	c #00239D",
"6.	c #0025A6",
"7.	c #0027AE",
"8.	c #001F8C",
"9.	c #000A2F",
"0.	c #000310",
"a.	c #000E44",
"b.	c #001980",
"c.	c #0020A1",
"d.	c #001B88",
"e.	c #00061E",
"f.	c #000616",
"g.	c #00071C",
"h.	c #00104B",
"i.	c #00196F",
"j.	c #001C82",
"k.	c #001A76",
"l.	c #001769",
"m.	c #00145B",
"n.	c #000E42",
"o.	c #000106",
"p.	c #000723",
"q.	c #001259",
"r.	c #001B87",
"s.	c #001D93",
"t.	c #001A85",
"u.	c #001465",
"v.	c #000B38",
"w.	c #00238E",
"x.	c #001C72",
"y.	c #000924",
"z.	c #000721",
"A.	c #000E40",
"B.	c #001047",
"C.	c #000B32",
"D.	c #000517",
"E.	c #000B36",
"F.	c #001C8E",
"G.	c #001A81",
"H.	c #000828",
"I.	c #002084",
"J.	c #002491",
"K.	c #001659",
"L.	c #00020C",
"M.	c #000003",
"N.	c #000108",
"O.	c #00061C",
"P.	c #000E46",
"Q.	c #00166E",
"R.	c #001D90",
"S.	c #00197B",
"T.	c #000E47",
"U.	c #000416",
"V.	c #00030B",
"W.	c #000E3A",
"X.	c #001D75",
"Y.	c #0028A3",
"Z.	c #0028A4",
"`.	c #001A6B",
" +	c #000C45",
".+	c #00092C",
"++	c #00104F",
"@+	c #001774",
"#+	c #001D91",
"$+	c #001D94",
"%+	c #00156C",
"&+	c #000A30",
"*+	c #0027A1",
"=+	c #002CB6",
"-+	c #000B2D",
";+	c #000206",
">+	c #00051E",
",+	c #000F51",
"'+	c #001C9D",
")+	c #00187E",
"!+	c #0021A2",
"~+	c #001C8F",
"{+	c #001054",
"]+	c #00051B",
"^+	c #00165A",
"/+	c #002EBC",
"(+	c #002393",
"_+	c #000E39",
":+	c #000726",
"<+	c #001161",
"[+	c #001780",
"}+	c #002CE5",
"|+	c #001C91",
"1+	c #000B39",
"2+	c #00134F",
"3+	c #002494",
"4+	c #0030C3",
"5+	c #00124B",
"6+	c #00020D",
"7+	c #000930",
"8+	c #00146C",
"9+	c #001578",
"0+	c #001472",
"a+	c #00177E",
"b+	c #001FAC",
"c+	c #000B3E",
"d+	c #000A34",
"e+	c #00071F",
"f+	c #0031C9",
"g+	c #002CB5",
"h+	c #00165B",
"i+	c #000935",
"j+	c #001369",
"k+	c #001262",
"l+	c #000D49",
"m+	c #00082D",
"n+	c #000413",
"o+	c #001051",
"p+	c #001778",
"q+	c #00166F",
"r+	c #002293",
"s+	c #0032CF",
"t+	c #0030C4",
"u+	c #001A6C",
"v+	c #000728",
"w+	c #00020E",
"x+	c #00115A",
"y+	c #00187B",
"z+	c #001A84",
"A+	c #0025A3",
"B+	c #001D7A",
"C+	c #000821",
"D+	c #001463",
"E+	c #00187D",
"F+	c #00125E",
"G+	c #000622",
"H+	c #000516",
"I+	c #001568",
"J+	c #00187A",
"K+	c #00125D",
"L+	c #000A33",
"M+	c #00061F",
"N+	c #001361",
"O+	c #000C3D",
"P+	c #001569",
"Q+	c #000D44",
"R+	c #000722",
"S+	c #000829",
"T+	c #000311",
". . . . . . . . . . . . . . . . . . . . . . . . . . . . . . . . ",
". . . . . . . . . . . . . . . . . . . . . . . . . . . . . . . . ",
". . . . . . . . . . . . . . . . . . . . . . . . . . . . . . . . ",
". . . . . . . . . . . . . . . . . . . . . + @ # . . . . . . . . ",
". . . . . . . . . . . . . . . . . . $ % & * = - . . . . . . . . ",
". . . . . . . . . . . . . . . . ; @ > , ' ) ! ~ . . . . . . . . ",
". . . . . . . . . . . . . $ { @ ] ^ / ( _ : < . [ { + } . . . . ",
". . . . . . . . [ | } + 1 2 3 4 5 6 7 8 . } + { 9 0 & + . . . . ",
". . . . . . . [ a b c d e f g h i | . . . { j k l m 2 $ . . . . ",
". . . . . . n o p q r s t u 8 + [ . 1 v w x y z A c [ . . . . . ",
". . . . + B C D E F G H % + } } I J K L M N i c + . . . . . . . ",
". . . 8 O P Q R S T U V W X Y Z `  ...+.X 1 } . . . . . . . . . ",
". . % @.#.$.%.o &.*.=.-.;.>.,.'.).!.8 < . . . . . . . . . . . . ",
". . < ~.{.].# ^./.(._.:.<.[.}.^.n } . . . . + |.1.2.| . . . . . ",
". . . . . 1 @.3.4.5.6.7.8.9.+ . . . . } 0.a.b.c.d.e.| . f.g.{ . ",
". . . + i h.i.j.=.k.l.m.n.].. . . o.p.q.r.s.t.u.v.W ~.= w.x.y.. ",
". . . ; z.A.B.A.C.: D.c [ . . 8 E.1.r.F.G.q.H.+ c , I.r J.K.^.. ",
". . . + L.M.. . . N.} . [ O.P.Q.d.R.S.T.U.} V.W.X.Y.Z.`.y.< . . ",
". . . . . . . } U. +e..+++@+#+$+%+&+n } V.* ^ *+=+ .-+;+. . . . ",
". . . . . . < >+,+'+)+t.!+~+{+]+[ . c - ^+y /+(+_++ . . . . . . ",
". . . . } n :+<+[+'+}+|+1+2.c } 1 & 2+3+4+Z.5++ . . . . . . . . ",
". . . [ 6+7+8+9+0+a+b+c+2.T.d+e+).w.f+g+h+% . . . . . . . . . . ",
". . } L.i+j+k+l+m+n++ ~.o+p+q+r+s+t+u+D.. . . . . . . . . . . . ",
". . o.a v+w+. . . } 0.x+y+b.z+A+B+C+. . . . . . . . . . . . . . ",
". . . . . . . . . 0.D+E+b.b.b.F+G+. . . . . . . . . . . . . . . ",
". . . . . . . } H+I+E+b.b.J+K+L+8 . . . . . . . . . . . . . . . ",
". . . . . . | M+%+E+E+N+O+O.% o.[ . . . . . . . . . . . . . . . ",
". . . . . o.H.P+u.Q+R+n+c | . . . . . . . . . . . . . . . . . . ",
". . . . < 2.d+S+{.# | . . . . . . . . . . . . . . . . . . . . . ",
". . . . [ c T+< . . . . . . . . . . . . . . . . . . . . . . . . ",
". . . . . . . . . . . . . . . . . . . . . . . . . . . . . . . . ",
". . . . . . . . . . . . . . . . . . . . . . . . . . . . . . . . "};
