/* XPM */
static char * ve_icon32x32_xpm[] = {
"32 32 321 2",
"  	c None",
". 	c #515151",
"+ 	c #656464",
"@ 	c #767676",
"# 	c #59829C",
"$ 	c #377196",
"% 	c #256592",
"& 	c #4F4F4E",
"* 	c #3E3D3D",
"= 	c #424242",
"- 	c #414141",
"; 	c #636363",
"> 	c #367196",
", 	c #03558C",
"' 	c #00558C",
") 	c #004F8B",
"! 	c #246894",
"~ 	c #747474",
"{ 	c #3C3C3C",
"] 	c #464646",
"^ 	c #4A4A4A",
"/ 	c #444444",
"( 	c #545454",
"_ 	c #206492",
": 	c #00548D",
"< 	c #005A90",
"[ 	c #00578F",
"} 	c #00528E",
"| 	c #6A8BA1",
"1 	c #757576",
"2 	c #4E4E4F",
"3 	c #4B4B4B",
"4 	c #464546",
"5 	c #474747",
"6 	c #6E6E6E",
"7 	c #4E7C9B",
"8 	c #03588F",
"9 	c #00568F",
"0 	c #015B90",
"a 	c #005590",
"b 	c #216695",
"c 	c #5A839E",
"d 	c #60605F",
"e 	c #434343",
"f 	c #4A494A",
"g 	c #4C4C4C",
"h 	c #5B5B5B",
"i 	c #286995",
"j 	c #00558F",
"k 	c #005C91",
"l 	c #005891",
"m 	c #005790",
"n 	c #367199",
"o 	c #777878",
"p 	c #4A4A49",
"q 	c #484747",
"r 	c #4D4D4E",
"s 	c #4C4642",
"t 	c #44718C",
"u 	c #0A5E95",
"v 	c #005690",
"w 	c #015C93",
"x 	c #005892",
"y 	c #105E94",
"z 	c #6B8CA1",
"A 	c #615E5D",
"B 	c #514A45",
"C 	c #3D515C",
"D 	c #0F5886",
"E 	c #005894",
"F 	c #005B92",
"G 	c #005D95",
"H 	c #015D99",
"I 	c #33719C",
"J 	c #36637E",
"K 	c #005990",
"L 	c #005F98",
"M 	c #025E94",
"N 	c #005F99",
"O 	c #035A92",
"P 	c #3E6782",
"Q 	c #2D6F9B",
"R 	c #025E99",
"S 	c #015E96",
"T 	c #005D94",
"U 	c #005A96",
"V 	c #0E5B8B",
"W 	c #3E535F",
"X 	c #534D49",
"Y 	c #666462",
"Z 	c #6288A1",
"` 	c #0F6097",
" .	c #005995",
"..	c #015F96",
"+.	c #005B95",
"@.	c #08619B",
"#.	c #3D7091",
"$.	c #4B5053",
"%.	c #554C48",
"&.	c #525252",
"*.	c #818181",
"=.	c #4D88AE",
"-.	c #005B9A",
";.	c #005C95",
">.	c #005A97",
",.	c #1D699A",
"'.	c #85807F",
").	c #545456",
"!.	c #4B4B4C",
"~.	c #505050",
"{.	c #4D4E4D",
"].	c #787879",
"^.	c #0074C2",
"/.	c #0072B7",
"(.	c #0166A3",
"_.	c #035D9A",
":.	c #467B9F",
"<.	c #696969",
"[.	c #595A5A",
"}.	c #656565",
"|.	c #646465",
"1.	c #919191",
"2.	c #B3753E",
"3.	c #B45C0B",
"4.	c #B15E15",
"5.	c #AD9178",
"6.	c #E18C3E",
"7.	c #EA892E",
"8.	c #3F86B5",
"9.	c #0076C3",
"0.	c #027CC5",
"a.	c #0276BF",
"b.	c #5B8BAA",
"c.	c #7C7C7B",
"d.	c #666767",
"e.	c #5F5F5F",
"f.	c #646464",
"g.	c #B56D2B",
"h.	c #B65C0A",
"i.	c #B15907",
"j.	c #AE723B",
"k.	c #D69154",
"l.	c #FC7D09",
"m.	c #F18522",
"n.	c #D19864",
"o.	c #4383AB",
"p.	c #006BB1",
"q.	c #0077C2",
"r.	c #4B90BD",
"s.	c #7C7B7B",
"t.	c #585858",
"u.	c #474646",
"v.	c #5A5C5D",
"w.	c #B38964",
"x.	c #B76111",
"y.	c #B65C0B",
"z.	c #B35E11",
"A.	c #AF5E15",
"B.	c #D1945C",
"C.	c #F67F11",
"D.	c #F68217",
"E.	c #F98315",
"F.	c #E0924A",
"G.	c #3F88BA",
"H.	c #0065AB",
"I.	c #026BAF",
"J.	c #848484",
"K.	c #3F3E3E",
"L.	c #697075",
"M.	c #BA7536",
"N.	c #BA5E0B",
"O.	c #B56012",
"P.	c #B35E12",
"Q.	c #B15603",
"R.	c #AD8766",
"S.	c #C69B73",
"T.	c #F67D0E",
"U.	c #F48117",
"V.	c #F6821A",
"W.	c #FC8110",
"X.	c #F98D2A",
"Y.	c #81837B",
"Z.	c #0166B2",
"`.	c #0068AF",
" +	c #828282",
".+	c #403F3F",
"++	c #3C4145",
"@+	c #73604F",
"#+	c #C37024",
"$+	c #BA5D08",
"%+	c #B76114",
"&+	c #B45D0F",
"*+	c #B15A0B",
"=+	c #AD7849",
"-+	c #C9996E",
";+	c #F0811B",
">+	c #F77F12",
",+	c #F4831C",
"'+	c #FB8316",
")+	c #F98511",
"!+	c #957951",
"~+	c #0E68A9",
"{+	c #7E8082",
"]+	c #3B4249",
"^+	c #714D2C",
"/+	c #C2630E",
"(+	c #B76215",
"_+	c #B55A08",
":+	c #B1641F",
"<+	c #E68832",
"[+	c #F97F0F",
"}+	c #F6841B",
"|+	c #FC861A",
"1+	c #FF880E",
"2+	c #C17E33",
"3+	c #7B7774",
"4+	c #3D3D3D",
"5+	c #3B4147",
"6+	c #735030",
"7+	c #C0630F",
"8+	c #B65B08",
"9+	c #B17034",
"0+	c #D99151",
"a+	c #F88113",
"b+	c #FA8315",
"c+	c #F9851E",
"d+	c #FF8713",
"e+	c #F98B23",
"f+	c #BF936B",
"g+	c #7A5532",
"h+	c #3B4045",
"i+	c #3A4146",
"j+	c #754C26",
"k+	c #BE600B",
"l+	c #B0845C",
"m+	c #CB996C",
"n+	c #F7861E",
"o+	c #FF8514",
"p+	c #FA861E",
"q+	c #FF8515",
"r+	c #FF8715",
"s+	c #DB9756",
"t+	c #BE7E43",
"u+	c #CC6507",
"v+	c #774F2B",
"w+	c #3A4148",
"x+	c #3A3D40",
"y+	c #77583C",
"z+	c #93938E",
"A+	c #CB7A2A",
"B+	c #FF870F",
"C+	c #FD871B",
"D+	c #FE871B",
"E+	c #FF8611",
"F+	c #EC9137",
"G+	c #C1732C",
"H+	c #C6640A",
"I+	c #C76812",
"J+	c #734F30",
"K+	c #383F46",
"L+	c #393B3A",
"M+	c #17629A",
"N+	c #A87A43",
"O+	c #FC8411",
"P+	c #FD8617",
"Q+	c #FF881D",
"R+	c #FF8815",
"S+	c #FE911C",
"T+	c #ED8522",
"U+	c #CB6A12",
"V+	c #C4650E",
"W+	c #C16817",
"X+	c #C5640C",
"Y+	c #6F4B2C",
"Z+	c #383F45",
"`+	c #6C6C6D",
" @	c #0060A6",
".@	c #0662A8",
"+@	c #928878",
"@@	c #FC8D26",
"#@	c #FF8411",
"$@	c #FF881C",
"%@	c #FF901D",
"&@	c #EF8019",
"*@	c #C86A16",
"=@	c #C06714",
"-@	c #BF5F07",
";@	c #BF7531",
">@	c #6F6256",
",@	c #383C3F",
"'@	c #00629F",
")@	c #0060A3",
"!@	c #E48F43",
"~@	c #FF8410",
"{@	c #FF8E1B",
"]@	c #EC801C",
"^@	c #C56711",
"/@	c #BD610A",
"(@	c #B87C45",
"_@	c #686E73",
":@	c #393838",
"<@	c #3C3D3D",
"[@	c #005E9E",
"}@	c #005EA0",
"|@	c #668EA6",
"1@	c #D6975E",
"2@	c #FA8E1F",
"3@	c #EB7C15",
"4@	c #C16A1A",
"5@	c #B28E6E",
"6@	c #696A6A",
"7@	c #353535",
"8@	c #383737",
"9@	c #4C80A3",
"0@	c #035C9E",
"a@	c #5B89A6",
"b@	c #626262",
"c@	c #343434",
"d@	c #5786A5",
"e@	c #678EA7",
"f@	c #737372",
"                                                                ",
"        . + @                               # $ %               ",
"        & * = - ;                       > , ' ) !               ",
"        ~ { ] ^ / (                   _ : < [ } |               ",
"          1 2 / 3 4 5 6           7 8 9 0 a b c                 ",
"              d e f g / h       i j k l m n                     ",
"                o p q r s r t u v w x y z                       ",
"                    A B C D E F G H I                           ",
"                      J K L M N O P                             ",
"                    Q R S T U V W X Y                           ",
"                Z `  ...+.@.#.$.%.. g &.*.                      ",
"              =.-.;.L >.,.    '.).!.&.~.{.].                    ",
"              ^./.(._.:.          <.r [.}.|.1.          2.3.4.5.",
"6.7.        8.9.0.a.b.              c.d.6 e.f.        g.h.i.j.  ",
"k.l.m.n.    o.p.q.r.                  s.t.u.v.    w.x.y.z.A.    ",
"B.C.D.E.F.  G.H.I.                    J.- K.L.  M.N.O.P.Q.R.    ",
"S.T.U.V.W.X.Y.Z.`.                     +.+++@+#+$+%+&+*+=+      ",
"  -+;+>+,+'+)+!+~+                    {+K.]+^+/+(+_+:+          ",
"      <+[+}+|+1+2+                    3+4+5+6+7+8+9+            ",
"        0+a+b+c+d+e+                f+g+h+i+j+k+l+              ",
"          m+n+o+p+q+r+s+          t+u+v+w+x+y+                  ",
"            z+A+B+C+D+E+F+      G+H+I+J+K+L+c.                  ",
"              M+N+O+P+Q+R+S+T+U+V+W+X+Y+Z+4+`+                  ",
"               @.@+@@@#@$@%@&@*@=@-@;@>@,@4+                    ",
"              '@)@    !@~@{@]@^@/@(@  _@:@<@                    ",
"              [@}@|@    1@2@3@4@5@    6@7@8@                    ",
"              9@0@a@                  b@c@~                     ",
"                d@e@                  f@                        ",
"                                                                ",
"                                                                ",
"                                                                ",
"                                                                "};
