/* XPM */
static char * z_down_xpm[] = {
"35 40 44 1",
" 	g None",
".	g #FFFFFF",
"+	g #F7F7F7",
"@	g #EFEFEF",
"#	g #F0F0F0",
"$	g #F5F5F5",
"%	g #888888",
"&	g #0F0F0F",
"*	g #646464",
"=	g #7E7E7E",
"-	g #000000",
";	g #575757",
">	g #808080",
",	g #5A5A5A",
"'	g #868686",
")	g #5E5E5E",
"!	g #E3E3E3",
"~	g #ADADAD",
"{	g #B4B4B4",
"]	g #B8B8B8",
"^	g #5D5D5D",
"/	g #424242",
"(	g #B5B5B5",
"_	g #DBDBDB",
":	g #767676",
"<	g #0A0A0A",
"[	g #606060",
"}	g #E4E4E4",
"|	g #C9C9C9",
"1	g #3D3D3D",
"2	g #2D2D2D",
"3	g #8C8C8C",
"4	g #141414",
"5	g #050505",
"6	g #707070",
"7	g #E9E9E9",
"8	g #D7D7D7",
"9	g #4A4A4A",
"0	g #2F2F2F",
"a	g #FEFEFE",
"b	g #A0A0A0",
"c	g #222222",
"d	g #7A7A7A",
"e	g #F1F1F1",
"...................................",
"...................................",
"...................................",
"...................................",
"...................................",
"...................................",
"...................................",
"...................................",
".............+@######$.............",
".............%&&&&&&&*.............",
".............=-------;.............",
".............>-------,.............",
".............>-------,.............",
".............>-------,.............",
".............>-------,.............",
".............>-------,.............",
".............>-------,.............",
".............>-------,.............",
".............>-------,.............",
".............>-------,.............",
".............>-------,.............",
".............>-------,.............",
".............>-------,.............",
".............'-------).............",
".........!~{]^-------/](~_.........",
".........@:<------------[}.........",
"...........|1---------2(...........",
"............+34-----567............",
"..............89---0{..............",
"...............abcd@...............",
".................e.................",
"...................................",
"...................................",
"...................................",
"...................................",
"...................................",
"...................................",
"...................................",
"...................................",
"..................................."};
