# This file uses centimeters as units for non-parametric coordinates.

v 0.071329 0.023176 -0.005000
v 0.074077 0.011733 -0.005000
v 0.000000 -0.000000 -0.005000
v 0.066826 0.034049 -0.005000
v 0.060676 0.044084 -0.005000
v 0.053033 0.053033 -0.005000
v 0.044084 0.060676 -0.005000
v 0.034049 0.066826 -0.005000
v 0.023176 0.071329 -0.005000
v 0.011733 0.074077 -0.005000
v 0.000000 0.075000 -0.005000
v -0.011733 0.074077 -0.005000
v -0.023176 0.071329 -0.005000
v -0.034049 0.066826 -0.005000
v -0.044084 0.060676 -0.005000
v -0.053033 0.053033 -0.005000
v -0.060676 0.044084 -0.005000
v -0.066826 0.034049 -0.005000
v -0.071329 0.023176 -0.005000
v -0.074077 0.011733 -0.005000
v -0.075000 -0.000000 -0.005000
v -0.074077 -0.011733 -0.005000
v -0.071329 -0.023176 -0.005000
v -0.066826 -0.034049 -0.005000
v -0.060676 -0.044084 -0.005000
v -0.053033 -0.053033 -0.005000
v -0.044084 -0.060676 -0.005000
v -0.034049 -0.066826 -0.005000
v -0.023176 -0.071329 -0.005000
v -0.011733 -0.074077 -0.005000
v 0.000000 -0.075000 -0.005000
v 0.011733 -0.074077 -0.005000
v 0.023176 -0.071329 -0.005000
v 0.034049 -0.066825 -0.005000
v 0.044084 -0.060676 -0.005000
v 0.053033 -0.053033 -0.005000
v 0.060676 -0.044084 -0.005000
v 0.066825 -0.034049 -0.005000
v 0.071329 -0.023176 -0.005000
v 0.074077 -0.011733 -0.005000
v 0.075000 -0.000000 -0.005000
vt 0.639316 0.969270
vt 0.564033 0.987349
vt 0.486842 0.500000
vt 0.710849 0.939645
vt 0.776868 0.899184
vt 0.835743 0.848901
vt 0.886026 0.790026
vt 0.926487 0.724007
vt 0.956112 0.652474
vt 0.974191 0.577191
vt 0.980263 0.500000
vt 0.974191 0.422809
vt 0.956112 0.347526
vt 0.926487 0.275993
vt 0.886026 0.209974
vt 0.835743 0.151099
vt 0.776868 0.100816
vt 0.710849 0.060355
vt 0.639316 0.030730
vt 0.564033 0.012651
vt 0.486842 0.006579
vt 0.409651 0.012651
vt 0.334368 0.030730
vt 0.262836 0.060355
vt 0.196816 0.100816
vt 0.137941 0.151099
vt 0.087658 0.209974
vt 0.047197 0.275993
vt 0.017572 0.347526
vt -0.000507 0.422809
vt -0.006579 0.500000
vt -0.000507 0.577191
vt 0.017572 0.652474
vt 0.047204 0.724007
vt 0.087658 0.790026
vt 0.137941 0.848901
vt 0.196816 0.899184
vt 0.262835 0.939638
vt 0.334368 0.969270
vt 0.409651 0.987349
vt 0.486842 0.993421
vn 0.000000 -0.000000 -1.000000
vn 0.000000 -0.000000 -1.000000
vn 0.000000 -0.000000 -1.000000
vn 0.000000 -0.000000 -1.000000
vn 0.000000 -0.000000 -1.000000
vn 0.000000 -0.000000 -1.000000
vn 0.000000 -0.000000 -1.000000
vn 0.000000 -0.000000 -1.000000
vn 0.000000 -0.000000 -1.000000
vn 0.000000 -0.000000 -1.000000
vn 0.000000 -0.000000 -1.000000
vn 0.000000 -0.000000 -1.000000
vn 0.000000 -0.000000 -1.000000
vn 0.000000 -0.000000 -1.000000
vn 0.000000 -0.000000 -1.000000
vn 0.000000 -0.000000 -1.000000
vn 0.000000 -0.000000 -1.000000
vn 0.000000 -0.000000 -1.000000
vn 0.000000 -0.000000 -1.000000
vn 0.000000 -0.000000 -1.000000
vn 0.000000 -0.000000 -1.000000
vn 0.000000 -0.000000 -1.000000
vn 0.000000 -0.000000 -1.000000
vn 0.000000 -0.000000 -1.000000
vn 0.000000 -0.000000 -1.000000
vn 0.000000 -0.000000 -1.000000
vn 0.000000 -0.000000 -1.000000
vn 0.000000 -0.000000 -1.000000
vn 0.000000 -0.000000 -1.000000
vn 0.000000 -0.000000 -1.000000
vn 0.000000 -0.000000 -1.000000
vn 0.000000 -0.000000 -1.000000
vn 0.000000 -0.000000 -1.000000
vn 0.000000 -0.000000 -1.000000
vn 0.000000 -0.000000 -1.000000
vn 0.000000 -0.000000 -1.000000
vn 0.000000 -0.000000 -1.000000
vn 0.000000 -0.000000 -1.000000
vn 0.000000 -0.000000 -1.000000
vn 0.000000 -0.000000 -1.000000
vn 0.000000 -0.000000 -1.000000
vn 0.000000 -0.000000 -1.000000
vn 0.000000 -0.000000 -1.000000
vn 0.000000 -0.000000 -1.000000
vn 0.000000 -0.000000 -1.000000
vn 0.000000 -0.000000 -1.000000
vn 0.000000 -0.000000 -1.000000
vn 0.000000 -0.000000 -1.000000
vn 0.000000 -0.000000 -1.000000
vn 0.000000 -0.000000 -1.000000
vn 0.000000 -0.000000 -1.000000
vn 0.000000 -0.000000 -1.000000
vn 0.000000 -0.000000 -1.000000
vn 0.000000 -0.000000 -1.000000
vn 0.000000 -0.000000 -1.000000
vn 0.000000 -0.000000 -1.000000
vn 0.000000 -0.000000 -1.000000
vn 0.000000 -0.000000 -1.000000
vn 0.000000 -0.000000 -1.000000
vn 0.000000 -0.000000 -1.000000
vn 0.000000 -0.000000 -1.000000
vn 0.000000 -0.000000 -1.000000
vn 0.000000 -0.000000 -1.000000
vn 0.000000 -0.000000 -1.000000
vn 0.000000 -0.000000 -1.000000
vn 0.000000 -0.000000 -1.000000
vn 0.000000 -0.000000 -1.000000
vn 0.000000 -0.000000 -1.000000
vn 0.000000 -0.000000 -1.000000
vn 0.000000 -0.000000 -1.000000
vn 0.000000 -0.000000 -1.000000
vn 0.000000 -0.000000 -1.000000
vn 0.000000 -0.000000 -1.000000
vn 0.000000 -0.000000 -1.000000
vn 0.000000 -0.000000 -1.000000
vn 0.000000 -0.000000 -1.000000
vn 0.000000 -0.000000 -1.000000
vn 0.000000 -0.000000 -1.000000
vn 0.000000 -0.000000 -1.000000
vn 0.000000 -0.000000 -1.000000
vn 0.000000 -0.000000 -1.000000
vn 0.000000 -0.000000 -1.000000
vn 0.000000 -0.000000 -1.000000
vn 0.000000 -0.000000 -1.000000
vn 0.000000 -0.000000 -1.000000
vn 0.000000 -0.000000 -1.000000
vn 0.000000 -0.000000 -1.000000
vn 0.000000 -0.000000 -1.000000
vn 0.000000 -0.000000 -1.000000
vn 0.000000 -0.000000 -1.000000
vn 0.000000 -0.000000 -1.000000
vn 0.000000 -0.000000 -1.000000
vn 0.000000 -0.000000 -1.000000
vn 0.000000 -0.000000 -1.000000
vn 0.000000 -0.000000 -1.000000
vn 0.000000 -0.000000 -1.000000
vn 0.000000 -0.000000 -1.000000
vn 0.000000 -0.000000 -1.000000
vn 0.000000 -0.000000 -1.000000
vn 0.000000 -0.000000 -1.000000
vn 0.000000 -0.000000 -1.000000
vn 0.000000 -0.000000 -1.000000
vn 0.000000 -0.000000 -1.000000
vn 0.000000 -0.000000 -1.000000
vn 0.000000 -0.000000 -1.000000
vn 0.000000 -0.000000 -1.000000
vn 0.000000 -0.000000 -1.000000
vn 0.000000 -0.000000 -1.000000
vn 0.000000 -0.000000 -1.000000
vn 0.000000 -0.000000 -1.000000
vn 0.000000 -0.000000 -1.000000
vn 0.000000 -0.000000 -1.000000
vn 0.000000 -0.000000 -1.000000
vn 0.000000 -0.000000 -1.000000
vn 0.000000 -0.000000 -1.000000
vn 0.000000 -0.000000 -1.000000
vn 0.000000 -0.000000 -1.000000
vn 0.000000 -0.000000 -1.000000
vn 0.000000 -0.000000 -1.000000
vn 0.000000 -0.000000 -1.000000
f 1/1/1 2/2/2 3/3/3
f 4/4/4 1/1/5 3/3/6
f 5/5/7 4/4/8 3/3/9
f 6/6/10 5/5/11 3/3/12
f 7/7/13 6/6/14 3/3/15
f 8/8/16 7/7/17 3/3/18
f 9/9/19 8/8/20 3/3/21
f 10/10/22 9/9/23 3/3/24
f 11/11/25 10/10/26 3/3/27
f 12/12/28 11/11/29 3/3/30
f 13/13/31 12/12/32 3/3/33
f 14/14/34 13/13/35 3/3/36
f 15/15/37 14/14/38 3/3/39
f 16/16/40 15/15/41 3/3/42
f 17/17/43 16/16/44 3/3/45
f 18/18/46 17/17/47 3/3/48
f 19/19/49 18/18/50 3/3/51
f 20/20/52 19/19/53 3/3/54
f 21/21/55 20/20/56 3/3/57
f 22/22/58 21/21/59 3/3/60
f 23/23/61 22/22/62 3/3/63
f 24/24/64 23/23/65 3/3/66
f 25/25/67 24/24/68 3/3/69
f 26/26/70 25/25/71 3/3/72
f 27/27/73 26/26/74 3/3/75
f 28/28/76 27/27/77 3/3/78
f 29/29/79 28/28/80 3/3/81
f 30/30/82 29/29/83 3/3/84
f 31/31/85 30/30/86 3/3/87
f 32/32/88 31/31/89 3/3/90
f 33/33/91 32/32/92 3/3/93
f 34/34/94 33/33/95 3/3/96
f 35/35/97 34/34/98 3/3/99
f 36/36/100 35/35/101 3/3/102
f 37/37/103 36/36/104 3/3/105
f 38/38/106 37/37/107 3/3/108
f 39/39/109 38/38/110 3/3/111
f 40/40/112 39/39/113 3/3/114
f 41/41/115 40/40/116 3/3/117
f 2/2/118 41/41/119 3/3/120
