# This file uses centimeters as units for non-parametric coordinates.

v -0.011733 -0.074077 -0.005000
v -0.023176 -0.071329 0.005000
v -0.023176 -0.071329 -0.005000
v -0.034049 -0.066826 0.005000
v -0.034049 -0.066826 -0.005000
v -0.044084 -0.060676 0.005000
v -0.044084 -0.060676 -0.005000
v -0.053033 -0.053033 0.005000
v -0.053033 -0.053033 -0.005000
v -0.060676 -0.044084 0.005000
v -0.060676 -0.044084 -0.005000
v -0.066826 -0.034049 0.005000
v -0.066826 -0.034049 -0.005000
v -0.071329 -0.023176 0.005000
v -0.071329 -0.023176 -0.005000
v -0.074077 -0.011733 0.005000
v -0.074077 -0.011733 -0.005000
v -0.075000 0.000000 0.005000
v -0.075000 0.000000 -0.005000
v -0.074077 0.011733 0.005000
v -0.074077 0.011733 -0.005000
v -0.071329 0.023176 0.005000
v -0.071329 0.023176 -0.005000
v -0.066826 0.034049 0.005000
v -0.066826 0.034049 -0.005000
v -0.060676 0.044084 0.005000
v -0.060676 0.044084 -0.005000
v -0.053033 0.053033 0.005000
v -0.053033 0.053033 -0.005000
v -0.044084 0.060676 0.005000
v -0.044084 0.060676 -0.005000
v -0.034049 0.066826 0.005000
v -0.034049 0.066826 -0.005000
v -0.023176 0.071329 0.005000
v -0.023176 0.071329 -0.005000
v -0.011733 0.074077 0.005000
v -0.011733 0.074077 -0.005000
v 0.000000 0.075000 0.005000
v 0.000000 0.075000 -0.005000
v 0.011733 0.074077 0.005000
v 0.011733 0.074077 -0.005000
v 0.023176 0.071329 0.005000
v 0.023176 0.071329 -0.005000
v 0.034049 0.066826 0.005000
v 0.034049 0.066826 -0.005000
v 0.044084 0.060676 0.005000
v 0.044084 0.060676 -0.005000
v 0.053033 0.053033 0.005000
v 0.053033 0.053033 -0.005000
v 0.060676 0.044084 0.005000
v 0.060676 0.044084 -0.005000
v 0.066826 0.034049 0.005000
v 0.066826 0.034049 -0.005000
v 0.071329 0.023176 0.005000
v 0.071329 0.023176 -0.005000
v 0.074077 0.011733 0.005000
v 0.074077 0.011733 -0.005000
v 0.075000 0.000000 0.005000
v 0.075000 0.000000 -0.005000
v 0.074077 -0.011733 0.005000
v 0.074077 -0.011733 -0.005000
v 0.071329 -0.023176 0.005000
v 0.071329 -0.023176 -0.005000
v 0.066825 -0.034049 0.005000
v 0.066825 -0.034049 -0.005000
v 0.060676 -0.044084 0.005000
v 0.060676 -0.044084 -0.005000
v 0.053033 -0.053033 0.005000
v 0.053033 -0.053033 -0.005000
v 0.044084 -0.060676 0.005000
v 0.044084 -0.060676 -0.005000
v 0.034049 -0.066825 0.005000
v 0.034049 -0.066825 -0.005000
v 0.023176 -0.071329 0.005000
v 0.023176 -0.071329 -0.005000
v 0.011733 -0.074077 0.005000
v 0.011733 -0.074077 -0.005000
v 0.000000 -0.075000 0.005000
v 0.000000 -0.075000 -0.005000
v -0.011733 -0.074077 0.005000
vt -27.999001 1.000000
vt -26.499069 0.000000
vt -26.499069 1.000000
vt -24.999107 0.000000
vt -24.999107 1.000000
vt -23.499014 0.000000
vt -23.499014 1.000000
vt -21.999044 0.000000
vt -21.999044 1.000000
vt -20.499077 0.000000
vt -20.499077 1.000000
vt -18.998983 0.000000
vt -18.998983 1.000000
vt -17.499022 0.000000
vt -17.499022 1.000000
vt -15.999090 0.000000
vt -15.999090 1.000000
vt -14.499045 0.000000
vt -14.499045 1.000000
vt -12.999001 0.000000
vt -12.999001 1.000000
vt -11.499069 0.000000
vt -11.499069 1.000000
vt -9.999107 0.000000
vt -9.999107 1.000000
vt -8.499014 0.000000
vt -8.499014 1.000000
vt -6.999045 0.000000
vt -6.999045 1.000000
vt -5.499077 0.000000
vt -5.499077 1.000000
vt -3.998983 0.000000
vt -3.998983 1.000000
vt -2.499021 0.000000
vt -2.499021 1.000000
vt -0.999090 0.000000
vt -0.999090 1.000000
vt 0.500955 0.000000
vt 0.500955 1.000000
vt 2.001000 0.000000
vt 2.001000 1.000000
vt 3.500931 0.000000
vt 3.500931 1.000000
vt 5.000893 0.000000
vt 5.000893 1.000000
vt 6.500987 0.000000
vt 6.500987 1.000000
vt 8.000956 0.000000
vt 8.000956 1.000000
vt 9.500923 0.000000
vt 9.500923 1.000000
vt 11.001017 0.000000
vt 11.001017 1.000000
vt 12.500978 0.000000
vt 12.500978 1.000000
vt 14.000910 0.000000
vt 14.000910 1.000000
vt 15.500955 0.000000
vt 15.500955 1.000000
vt 17.000999 0.000000
vt 17.000999 1.000000
vt 18.500931 0.000000
vt 18.500931 1.000000
vt 20.000950 0.000000
vt 20.000950 1.000000
vt 21.500986 0.000000
vt 21.500986 1.000000
vt 23.000956 0.000000
vt 23.000956 1.000000
vt 24.500923 0.000000
vt 24.500923 1.000000
vt 26.000959 0.000000
vt 26.000959 1.000000
vt 27.500978 0.000000
vt 27.500978 1.000000
vt 29.000910 1.000000
vt -29.499044 0.000000
vt -29.499044 1.000000
vt -27.999001 0.000000
vt 29.000910 0.000000
vt 30.500956 0.000000
vt 30.500956 1.000000
vn -0.182314 -0.983240 0.000000
vn -0.283992 -0.958827 0.000000
vn -0.333835 -0.942631 0.000000
vn -0.283992 -0.958827 0.000000
vn -0.430444 -0.902617 0.000000
vn -0.333835 -0.942631 0.000000
vn -0.333835 -0.942631 0.000000
vn -0.430444 -0.902617 0.000000
vn -0.477207 -0.878791 0.000000
vn -0.430444 -0.902617 0.000000
vn -0.566385 -0.824141 0.000000
vn -0.477207 -0.878791 0.000000
vn -0.477207 -0.878791 0.000000
vn -0.566385 -0.824141 0.000000
vn -0.608804 -0.793321 0.000000
vn -0.566385 -0.824141 0.000000
vn -0.688317 -0.725410 0.000000
vn -0.608804 -0.793321 0.000000
vn -0.608804 -0.793321 0.000000
vn -0.688317 -0.725410 0.000000
vn -0.725410 -0.688317 0.000000
vn -0.688317 -0.725410 0.000000
vn -0.793321 -0.608804 0.000000
vn -0.725410 -0.688317 0.000000
vn -0.725410 -0.688317 0.000000
vn -0.793321 -0.608804 0.000000
vn -0.824141 -0.566385 0.000000
vn -0.793321 -0.608804 0.000000
vn -0.878791 -0.477207 0.000000
vn -0.824141 -0.566385 0.000000
vn -0.824141 -0.566385 0.000000
vn -0.878791 -0.477207 0.000000
vn -0.902617 -0.430444 0.000000
vn -0.878791 -0.477207 0.000000
vn -0.942631 -0.333835 0.000000
vn -0.902617 -0.430444 0.000000
vn -0.902617 -0.430444 0.000000
vn -0.942631 -0.333835 0.000000
vn -0.958827 -0.283992 0.000000
vn -0.942631 -0.333835 0.000000
vn -0.983240 -0.182314 0.000000
vn -0.958827 -0.283992 0.000000
vn -0.958827 -0.283992 0.000000
vn -0.983240 -0.182314 0.000000
vn -0.991451 -0.130477 0.000000
vn -0.983240 -0.182314 0.000000
vn -0.999656 -0.026213 0.000000
vn -0.991451 -0.130477 0.000000
vn -0.991451 -0.130477 0.000000
vn -0.999656 -0.026213 0.000000
vn -0.999656 0.026213 0.000000
vn -0.999656 -0.026213 0.000000
vn -0.991451 0.130477 0.000000
vn -0.999656 0.026213 0.000000
vn -0.999656 0.026213 0.000000
vn -0.991451 0.130477 0.000000
vn -0.983240 0.182314 0.000000
vn -0.991451 0.130477 0.000000
vn -0.958827 0.283992 0.000000
vn -0.983240 0.182314 0.000000
vn -0.983240 0.182314 0.000000
vn -0.958827 0.283992 0.000000
vn -0.942631 0.333835 0.000000
vn -0.958827 0.283992 0.000000
vn -0.902617 0.430444 0.000000
vn -0.942631 0.333835 0.000000
vn -0.942631 0.333835 0.000000
vn -0.902617 0.430444 0.000000
vn -0.878791 0.477207 0.000000
vn -0.902617 0.430444 0.000000
vn -0.824141 0.566385 0.000000
vn -0.878791 0.477207 0.000000
vn -0.878791 0.477207 0.000000
vn -0.824141 0.566385 0.000000
vn -0.793321 0.608804 0.000000
vn -0.824141 0.566385 0.000000
vn -0.725410 0.688317 0.000000
vn -0.793321 0.608804 0.000000
vn -0.793321 0.608804 0.000000
vn -0.725410 0.688317 0.000000
vn -0.688317 0.725410 0.000000
vn -0.725410 0.688317 0.000000
vn -0.608804 0.793321 0.000000
vn -0.688317 0.725410 0.000000
vn -0.688317 0.725410 0.000000
vn -0.608804 0.793321 0.000000
vn -0.566385 0.824141 0.000000
vn -0.608804 0.793321 0.000000
vn -0.477207 0.878791 0.000000
vn -0.566385 0.824141 0.000000
vn -0.566385 0.824141 0.000000
vn -0.477207 0.878791 0.000000
vn -0.430444 0.902617 0.000000
vn -0.477207 0.878791 0.000000
vn -0.333835 0.942631 0.000000
vn -0.430444 0.902617 0.000000
vn -0.430444 0.902617 0.000000
vn -0.333835 0.942631 0.000000
vn -0.283992 0.958827 0.000000
vn -0.333835 0.942631 0.000000
vn -0.182314 0.983240 0.000000
vn -0.283992 0.958827 0.000000
vn -0.283992 0.958827 0.000000
vn -0.182314 0.983240 0.000000
vn -0.130477 0.991451 0.000000
vn -0.182314 0.983240 0.000000
vn -0.026213 0.999656 0.000000
vn -0.130477 0.991451 0.000000
vn -0.130477 0.991451 0.000000
vn -0.026213 0.999656 0.000000
vn 0.026213 0.999656 0.000000
vn -0.026213 0.999656 0.000000
vn 0.130477 0.991451 0.000000
vn 0.026213 0.999656 0.000000
vn 0.026213 0.999656 0.000000
vn 0.130477 0.991451 0.000000
vn 0.182314 0.983240 0.000000
vn 0.130477 0.991451 0.000000
vn 0.283992 0.958827 0.000000
vn 0.182314 0.983240 0.000000
vn 0.182314 0.983240 0.000000
vn 0.283992 0.958827 0.000000
vn 0.333835 0.942631 0.000000
vn 0.283992 0.958827 0.000000
vn 0.430444 0.902617 0.000000
vn 0.333835 0.942631 0.000000
vn 0.333835 0.942631 0.000000
vn 0.430444 0.902617 0.000000
vn 0.477207 0.878791 0.000000
vn 0.430444 0.902617 0.000000
vn 0.566385 0.824141 0.000000
vn 0.477207 0.878791 0.000000
vn 0.477207 0.878791 0.000000
vn 0.566385 0.824141 0.000000
vn 0.608804 0.793321 0.000000
vn 0.566385 0.824141 0.000000
vn 0.688317 0.725410 0.000000
vn 0.608804 0.793321 0.000000
vn 0.608804 0.793321 0.000000
vn 0.688317 0.725410 0.000000
vn 0.725410 0.688317 0.000000
vn 0.688317 0.725410 0.000000
vn 0.793321 0.608804 0.000000
vn 0.725410 0.688317 0.000000
vn 0.725410 0.688317 0.000000
vn 0.793321 0.608804 0.000000
vn 0.824141 0.566385 0.000000
vn 0.793321 0.608804 0.000000
vn 0.878791 0.477207 0.000000
vn 0.824141 0.566385 0.000000
vn 0.824141 0.566385 0.000000
vn 0.878791 0.477207 0.000000
vn 0.902617 0.430444 0.000000
vn 0.878791 0.477207 0.000000
vn 0.942631 0.333835 0.000000
vn 0.902617 0.430444 0.000000
vn 0.902617 0.430444 0.000000
vn 0.942631 0.333835 0.000000
vn 0.958827 0.283992 0.000000
vn 0.942631 0.333835 0.000000
vn 0.983240 0.182314 0.000000
vn 0.958827 0.283992 0.000000
vn 0.958827 0.283992 0.000000
vn 0.983240 0.182314 0.000000
vn 0.991451 0.130477 0.000000
vn 0.983240 0.182314 0.000000
vn 0.999656 0.026213 0.000000
vn 0.991451 0.130477 0.000000
vn 0.991451 0.130477 0.000000
vn 0.999656 0.026213 0.000000
vn 0.999656 -0.026213 0.000000
vn 0.999656 0.026213 0.000000
vn 0.991451 -0.130477 0.000000
vn 0.999656 -0.026213 0.000000
vn 0.999656 -0.026213 0.000000
vn 0.991451 -0.130477 0.000000
vn 0.983240 -0.182314 0.000000
vn 0.991451 -0.130477 0.000000
vn 0.958819 -0.284017 0.000000
vn 0.983240 -0.182314 0.000000
vn 0.983240 -0.182314 0.000000
vn 0.958819 -0.284017 0.000000
vn 0.942614 -0.333885 0.000000
vn 0.958819 -0.284017 0.000000
vn 0.902605 -0.430470 0.000000
vn 0.942614 -0.333885 0.000000
vn 0.942614 -0.333885 0.000000
vn 0.902605 -0.430470 0.000000
vn 0.878802 -0.477187 0.000000
vn 0.902605 -0.430470 0.000000
vn 0.824168 -0.566346 0.000000
vn 0.878802 -0.477187 0.000000
vn 0.878802 -0.477187 0.000000
vn 0.824168 -0.566346 0.000000
vn 0.793335 -0.608785 0.000000
vn 0.824168 -0.566346 0.000000
vn 0.725410 -0.688317 0.000000
vn 0.793335 -0.608785 0.000000
vn 0.793335 -0.608785 0.000000
vn 0.725410 -0.688317 0.000000
vn 0.688317 -0.725410 0.000000
vn 0.725410 -0.688317 0.000000
vn 0.608785 -0.793335 0.000000
vn 0.688317 -0.725410 0.000000
vn 0.688317 -0.725410 0.000000
vn 0.608785 -0.793335 0.000000
vn 0.566346 -0.824168 0.000000
vn 0.608785 -0.793335 0.000000
vn 0.477187 -0.878802 0.000000
vn 0.566346 -0.824168 0.000000
vn 0.566346 -0.824168 0.000000
vn 0.477187 -0.878802 0.000000
vn 0.430470 -0.902605 0.000000
vn 0.477187 -0.878802 0.000000
vn 0.333885 -0.942614 0.000000
vn 0.430470 -0.902605 0.000000
vn 0.430470 -0.902605 0.000000
vn 0.333885 -0.942614 0.000000
vn 0.284017 -0.958819 0.000000
vn 0.333885 -0.942614 0.000000
vn 0.182314 -0.983240 0.000000
vn 0.284017 -0.958819 0.000000
vn 0.284017 -0.958819 0.000000
vn 0.182314 -0.983240 0.000000
vn 0.130477 -0.991451 0.000000
vn 0.182314 -0.983240 0.000000
vn 0.026213 -0.999656 0.000000
vn 0.130477 -0.991451 0.000000
vn 0.130477 -0.991451 0.000000
vn 0.026213 -0.999656 0.000000
vn -0.026213 -0.999656 0.000000
vn 0.026213 -0.999656 0.000000
vn -0.130477 -0.991451 0.000000
vn -0.026213 -0.999656 0.000000
vn -0.026213 -0.999656 0.000000
vn -0.130477 -0.991451 0.000000
vn -0.182314 -0.983240 0.000000
vn -0.130477 -0.991451 0.000000
vn -0.283992 -0.958827 0.000000
vn -0.182314 -0.983240 0.000000
f 1/1/1 2/2/2 3/3/3
f 2/2/4 4/4/5 3/3/6
f 3/3/7 4/4/8 5/5/9
f 4/4/10 6/6/11 5/5/12
f 5/5/13 6/6/14 7/7/15
f 6/6/16 8/8/17 7/7/18
f 7/7/19 8/8/20 9/9/21
f 8/8/22 10/10/23 9/9/24
f 9/9/25 10/10/26 11/11/27
f 10/10/28 12/12/29 11/11/30
f 11/11/31 12/12/32 13/13/33
f 12/12/34 14/14/35 13/13/36
f 13/13/37 14/14/38 15/15/39
f 14/14/40 16/16/41 15/15/42
f 15/15/43 16/16/44 17/17/45
f 16/16/46 18/18/47 17/17/48
f 17/17/49 18/18/50 19/19/51
f 18/18/52 20/20/53 19/19/54
f 19/19/55 20/20/56 21/21/57
f 20/20/58 22/22/59 21/21/60
f 21/21/61 22/22/62 23/23/63
f 22/22/64 24/24/65 23/23/66
f 23/23/67 24/24/68 25/25/69
f 24/24/70 26/26/71 25/25/72
f 25/25/73 26/26/74 27/27/75
f 26/26/76 28/28/77 27/27/78
f 27/27/79 28/28/80 29/29/81
f 28/28/82 30/30/83 29/29/84
f 29/29/85 30/30/86 31/31/87
f 30/30/88 32/32/89 31/31/90
f 31/31/91 32/32/92 33/33/93
f 32/32/94 34/34/95 33/33/96
f 33/33/97 34/34/98 35/35/99
f 34/34/100 36/36/101 35/35/102
f 35/35/103 36/36/104 37/37/105
f 36/36/106 38/38/107 37/37/108
f 37/37/109 38/38/110 39/39/111
f 38/38/112 40/40/113 39/39/114
f 39/39/115 40/40/116 41/41/117
f 40/40/118 42/42/119 41/41/120
f 41/41/121 42/42/122 43/43/123
f 42/42/124 44/44/125 43/43/126
f 43/43/127 44/44/128 45/45/129
f 44/44/130 46/46/131 45/45/132
f 45/45/133 46/46/134 47/47/135
f 46/46/136 48/48/137 47/47/138
f 47/47/139 48/48/140 49/49/141
f 48/48/142 50/50/143 49/49/144
f 49/49/145 50/50/146 51/51/147
f 50/50/148 52/52/149 51/51/150
f 51/51/151 52/52/152 53/53/153
f 52/52/154 54/54/155 53/53/156
f 53/53/157 54/54/158 55/55/159
f 54/54/160 56/56/161 55/55/162
f 55/55/163 56/56/164 57/57/165
f 56/56/166 58/58/167 57/57/168
f 57/57/169 58/58/170 59/59/171
f 58/58/172 60/60/173 59/59/174
f 59/59/175 60/60/176 61/61/177
f 60/60/178 62/62/179 61/61/180
f 61/61/181 62/62/182 63/63/183
f 62/62/184 64/64/185 63/63/186
f 63/63/187 64/64/188 65/65/189
f 64/64/190 66/66/191 65/65/192
f 65/65/193 66/66/194 67/67/195
f 66/66/196 68/68/197 67/67/198
f 67/67/199 68/68/200 69/69/201
f 68/68/202 70/70/203 69/69/204
f 69/69/205 70/70/206 71/71/207
f 70/70/208 72/72/209 71/71/210
f 71/71/211 72/72/212 73/73/213
f 72/72/214 74/74/215 73/73/216
f 73/73/217 74/74/218 75/75/219
f 74/74/220 76/80/221 75/75/222
f 75/75/223 76/80/224 77/76/225
f 76/80/226 78/81/227 77/76/228
f 77/76/229 78/81/230 79/82/231
f 78/77/232 80/79/233 79/78/234
f 79/78/235 80/79/236 1/1/237
f 80/79/238 2/2/239 1/1/240
