# This file uses centimeters as units for non-parametric coordinates.

v -4.815449 0.620446 -2.010331
v -5.102582 0.620413 -1.025114
v -5.200091 0.620446 0.000000
v -5.102582 0.620413 1.025114
v -4.815449 0.620446 2.010331
v -4.344453 0.620413 2.915844
v -3.705931 0.620446 3.705931
v -2.915844 0.620413 4.344453
v -2.010331 0.620446 4.815449
v -1.025114 0.620413 5.102582
v 0.000000 0.620446 5.200091
v 1.025114 0.620413 5.102582
v 2.010331 0.620446 4.815449
v 2.915844 0.620413 4.344453
v 3.705931 0.620446 3.705931
v 4.344453 0.620413 2.915844
v 4.820585 0.622448 1.996697
v 5.102582 0.620413 1.025114
v 5.199455 0.623162 -0.019706
v 5.102582 0.620413 -1.025114
v 4.815449 0.620446 -2.010331
v 4.344453 0.620413 -2.915844
v 3.705931 0.620446 -3.705931
v 2.915844 0.620413 -4.344453
v 2.010331 0.620446 -4.815449
v 1.025114 0.620413 -5.102582
v 0.000000 0.620446 -5.200091
v -1.025114 0.620413 -5.102582
v -2.010331 0.620446 -4.815449
v -2.915844 0.620413 -4.344453
v -3.705931 0.620446 -3.705931
v -4.344453 0.620413 -2.915844
v -3.268049 0.618896 3.268050
v 0.000000 0.618896 -3.801982
v 1.117944 0.618896 -3.738377
v 3.801982 0.618896 0.000000
v 3.738377 0.618896 1.117944
v -3.801982 0.618896 0.000000
v -3.738377 0.618896 -1.117944
v -2.214142 0.618896 -3.556717
v -1.117944 0.618896 -3.738377
v 0.000000 0.618896 -2.534855
v -1.192829 0.618896 -2.492297
v -1.246578 0.618896 -1.246578
v 0.000000 0.618896 -1.267496
v -3.556717 0.618896 -2.214142
v -3.268049 0.618896 -3.268049
v 2.214142 0.618896 3.556717
v 1.117944 0.618896 3.738377
v 0.000000 0.618896 2.534855
v 1.192829 0.618896 2.492297
v 1.246578 0.618896 1.246578
v 0.000000 0.618896 1.267496
v 3.556717 0.618896 2.214142
v 3.268049 0.618896 3.268049
v 3.556717 0.618896 -2.214142
v 3.738377 0.618896 -1.117944
v 2.534855 0.618896 0.000000
v 2.492298 0.618896 -1.192829
v 1.246578 0.618896 -1.246578
v 1.267496 0.618896 0.000000
v 2.214142 0.618896 -3.556717
v 3.268049 0.618896 -3.268049
v -2.534855 0.618896 0.000000
v -2.492298 0.618896 1.192829
v -1.246578 0.618896 1.246578
v -1.267496 0.618896 0.000000
v -1.192829 0.618896 2.492297
v -1.117944 0.618896 3.738377
v 0.000000 0.618896 3.801982
v -3.556717 0.618896 2.214142
v -3.738377 0.618896 1.117944
v -2.379680 0.618896 2.379680
v -2.214142 0.618896 3.556717
v 0.000000 0.618896 0.000000
v 2.379680 0.618896 -2.379680
v 1.192829 0.618896 -2.492297
v 2.379680 0.618896 2.379680
v 2.492298 0.618896 1.192829
v -2.379680 0.618896 -2.379680
v -2.492298 0.618896 -1.192829
vt 0.000000 0.000000
vt 0.125000 0.000000
vt 0.125000 0.125000
vt 0.000000 0.125000
vt 0.500000 1.000000
vt 0.500000 0.875000
vt 0.625000 0.875000
vt 0.625000 1.000000
vt 1.000000 0.500000
vt 0.875000 0.500000
vt 0.875000 0.375000
vt 1.000000 0.375000
vt 0.000000 0.500000
vt 0.125000 0.500000
vt 0.125000 0.625000
vt 0.000000 0.625000
vt 0.250000 1.000000
vt 0.250000 0.875000
vt 0.375000 0.875000
vt 0.375000 1.000000
vt 0.500000 0.750000
vt 0.375000 0.750000
vt 0.375000 0.625000
vt 0.500000 0.625000
vt 0.000000 0.750000
vt 0.125000 0.750000
vt 0.125000 0.875000
vt 0.000000 0.875000
vt 0.750000 0.000000
vt 0.750000 0.125000
vt 0.625000 0.125000
vt 0.625000 0.000000
vt 0.500000 0.250000
vt 0.625000 0.250000
vt 0.625000 0.375000
vt 0.500000 0.375000
vt 1.000000 0.250000
vt 0.875000 0.250000
vt 0.875000 0.125000
vt 1.000000 0.125000
vt 1.000000 0.750000
vt 0.875000 0.750000
vt 0.875000 0.625000
vt 1.000000 0.625000
vt 0.750000 0.500000
vt 0.750000 0.625000
vt 0.625000 0.625000
vt 0.625000 0.500000
vt 0.750000 1.000000
vt 0.750000 0.875000
vt 0.875000 0.875000
vt 0.875000 1.000000
vt 0.250000 0.500000
vt 0.250000 0.375000
vt 0.375000 0.375000
vt 0.375000 0.500000
vt 0.375000 0.250000
vt 0.375000 0.125000
vt 0.500000 0.125000
vt 0.000000 0.250000
vt 0.125000 0.250000
vt 0.125000 0.375000
vt 0.000000 0.375000
vt 0.250000 0.250000
vt 0.375000 0.000000
vt 0.250000 0.125000
vt 0.250000 0.000000
vt 0.500000 0.000000
vt 0.500000 0.500000
vt 1.000000 0.875000
vt 0.750000 0.750000
vt 1.000000 1.000000
vt 0.625000 0.750000
vt 0.875000 0.000000
vt 0.750000 0.250000
vt 1.000000 0.000000
vt 0.750000 0.375000
vt 0.125000 1.000000
vt 0.250000 0.750000
vt 0.000000 1.000000
vt 0.250000 0.625000
vn 0.001186 0.999999 -0.001186
vn 0.000774 0.999999 -0.001083
vn 0.000632 1.000000 -0.000632
vn 0.001083 0.999999 -0.000774
vn 0.000000 1.000000 0.000765
vn 0.000000 1.000000 0.000382
vn -0.000059 1.000000 0.000397
vn -0.000119 1.000000 0.000794
vn -0.001414 0.999999 -0.000004
vn -0.000707 1.000000 -0.000002
vn -0.000711 1.000000 -0.000056
vn -0.001423 0.999999 -0.000111
vn 0.000765 1.000000 0.000000
vn 0.000382 1.000000 0.000000
vn 0.000397 1.000000 0.000059
vn 0.000794 1.000000 0.000119
vn 0.000276 1.000000 0.000901
vn 0.000138 1.000000 0.000450
vn 0.000059 1.000000 0.000397
vn 0.000119 1.000000 0.000794
vn 0.000000 1.000000 0.000000
vn 0.000000 1.000000 0.000000
vn 0.000000 1.000000 0.000000
vn 0.000000 1.000000 0.000000
vn 0.000901 1.000000 0.000277
vn 0.000450 1.000000 0.000138
vn 0.000632 1.000000 0.000632
vn 0.001083 0.999999 0.000774
vn -0.000276 1.000000 -0.000901
vn -0.000138 1.000000 -0.000450
vn -0.000059 1.000000 -0.000397
vn -0.000119 1.000000 -0.000794
vn 0.000000 1.000000 0.000000
vn 0.000000 1.000000 0.000000
vn 0.000000 1.000000 0.000000
vn 0.000000 1.000000 0.000000
vn -0.001437 0.999999 -0.000414
vn -0.000718 1.000000 -0.000207
vn -0.000746 1.000000 -0.000506
vn -0.001312 0.999999 -0.000522
vn -0.000901 1.000000 0.000277
vn -0.000450 1.000000 0.000138
vn -0.000560 1.000000 -0.000141
vn -0.001120 0.999999 -0.000282
vn 0.000000 1.000000 0.000000
vn 0.000000 1.000000 0.000000
vn 0.000000 1.000000 0.000000
vn 0.000000 1.000000 0.000000
vn -0.000276 1.000000 0.000901
vn -0.000138 1.000000 0.000450
vn -0.000632 1.000000 0.000632
vn -0.000774 0.999999 0.001083
vn 0.000000 1.000000 0.000000
vn 0.000000 1.000000 0.000000
vn 0.000000 1.000000 0.000000
vn 0.000000 1.000000 0.000000
vn 0.000000 1.000000 0.000000
vn 0.000000 1.000000 0.000000
vn 0.000059 1.000000 -0.000397
vn 0.000000 1.000000 -0.000382
vn 0.000901 1.000000 -0.000277
vn 0.000450 1.000000 -0.000138
vn 0.000397 1.000000 -0.000059
vn 0.000794 1.000000 -0.000119
vn 0.000382 1.000000 0.000000
vn 0.000397 1.000000 -0.000059
vn 0.000000 1.000000 0.000000
vn 0.000000 1.000000 0.000000
vn 0.000000 1.000000 0.000000
vn 0.000397 1.000000 -0.000059
vn 0.000450 1.000000 -0.000138
vn 0.000000 1.000000 0.000000
vn 0.000794 1.000000 -0.000119
vn 0.000397 1.000000 -0.000059
vn 0.000382 1.000000 0.000000
vn 0.000765 1.000000 0.000000
vn 0.000119 1.000000 -0.000794
vn 0.000059 1.000000 -0.000397
vn 0.000138 1.000000 -0.000450
vn 0.000276 1.000000 -0.000901
vn 0.000138 1.000000 -0.000450
vn 0.000059 1.000000 -0.000397
vn 0.000000 1.000000 0.000000
vn 0.000000 1.000000 0.000000
vn 0.000000 1.000000 -0.000382
vn 0.000059 1.000000 -0.000397
vn 0.000119 1.000000 -0.000794
vn 0.000000 1.000000 -0.000765
vn 0.000000 1.000000 0.000000
vn 0.000000 1.000000 0.000000
vn 0.000000 1.000000 0.000000
vn 0.000000 1.000000 0.000000
vn 0.000000 1.000000 0.000000
vn 0.000000 1.000000 0.000000
vn 0.000000 1.000000 0.000000
vn 0.000000 1.000000 0.000000
vn 0.000000 1.000000 0.000000
vn 0.000000 1.000000 0.000000
vn 0.000000 1.000000 0.000000
vn 0.000000 1.000000 0.000000
vn -0.001083 0.999999 0.000774
vn -0.000632 1.000000 0.000632
vn -0.000450 1.000000 0.000138
vn -0.000901 1.000000 0.000277
vn -0.000450 1.000000 0.000138
vn -0.000632 1.000000 0.000632
vn -0.000138 1.000000 0.000450
vn 0.000000 1.000000 0.000000
vn -0.000774 0.999999 0.001083
vn -0.000632 1.000000 0.000632
vn -0.001083 0.999999 0.000774
vn -0.001186 0.999999 0.001186
vn 0.000000 1.000000 0.000000
vn 0.000000 1.000000 0.000000
vn 0.000000 1.000000 0.000000
vn 0.000000 1.000000 0.000000
vn 0.000000 1.000000 0.000000
vn 0.000000 1.000000 0.000000
vn 0.000000 1.000000 0.000000
vn 0.000000 1.000000 0.000000
vn 0.000000 1.000000 0.000000
vn 0.000000 1.000000 0.000000
vn 0.000000 1.000000 0.000000
vn 0.000000 1.000000 0.000000
vn -0.000707 1.000000 -0.000002
vn -0.000560 1.000000 -0.000141
vn 0.000000 1.000000 0.000000
vn 0.000000 1.000000 0.000000
vn 0.000000 1.000000 0.000000
vn -0.000560 1.000000 -0.000141
vn -0.000450 1.000000 0.000138
vn 0.000000 1.000000 0.000000
vn -0.001120 0.999999 -0.000282
vn -0.000560 1.000000 -0.000141
vn -0.000707 1.000000 -0.000002
vn -0.001414 0.999999 -0.000004
vn -0.000774 0.999999 -0.001083
vn -0.000746 1.000000 -0.000506
vn -0.000138 1.000000 -0.000450
vn -0.000276 1.000000 -0.000901
vn -0.000138 1.000000 -0.000450
vn -0.000746 1.000000 -0.000506
vn -0.000718 1.000000 -0.000207
vn 0.000000 1.000000 0.000000
vn -0.001312 0.999999 -0.000522
vn -0.000746 1.000000 -0.000506
vn -0.000774 0.999999 -0.001083
vn -0.001186 0.999999 -0.001186
vn 0.000000 1.000000 0.000000
vn 0.000000 1.000000 0.000000
vn 0.000000 1.000000 0.000000
vn 0.000000 1.000000 0.000000
vn 0.000000 1.000000 0.000000
vn 0.000000 1.000000 0.000000
vn 0.000000 1.000000 0.000000
vn 0.000000 1.000000 0.000000
vn 0.000000 1.000000 0.000000
vn 0.000000 1.000000 0.000000
vn 0.000000 1.000000 0.000000
vn 0.000000 1.000000 0.000000
vn 0.000000 1.000000 -0.000382
vn -0.000059 1.000000 -0.000397
vn 0.000000 1.000000 0.000000
vn 0.000000 1.000000 0.000000
vn 0.000000 1.000000 0.000000
vn -0.000059 1.000000 -0.000397
vn -0.000138 1.000000 -0.000450
vn 0.000000 1.000000 0.000000
vn -0.000119 1.000000 -0.000794
vn -0.000059 1.000000 -0.000397
vn 0.000000 1.000000 -0.000382
vn 0.000000 1.000000 -0.000765
vn 0.000774 0.999999 0.001083
vn 0.000632 1.000000 0.000632
vn 0.000138 1.000000 0.000450
vn 0.000276 1.000000 0.000901
vn 0.000138 1.000000 0.000450
vn 0.000632 1.000000 0.000632
vn 0.000450 1.000000 0.000138
vn 0.000000 1.000000 0.000000
vn 0.001083 0.999999 0.000774
vn 0.000632 1.000000 0.000632
vn 0.000774 0.999999 0.001083
vn 0.001186 0.999999 0.001186
vn 0.000000 1.000000 0.000000
vn 0.000000 1.000000 0.000000
vn 0.000000 1.000000 0.000000
vn 0.000000 1.000000 0.000000
vn 0.000000 1.000000 0.000000
vn 0.000000 1.000000 0.000000
vn 0.000000 1.000000 0.000000
vn 0.000000 1.000000 0.000000
vn 0.000000 1.000000 0.000000
vn 0.000000 1.000000 0.000000
vn 0.000000 1.000000 0.000000
vn 0.000000 1.000000 0.000000
vn 0.000000 1.000000 0.000382
vn 0.000059 1.000000 0.000397
vn 0.000000 1.000000 0.000000
vn 0.000000 1.000000 0.000000
vn 0.000000 1.000000 0.000000
vn 0.000059 1.000000 0.000397
vn 0.000138 1.000000 0.000450
vn 0.000000 1.000000 0.000000
vn 0.000119 1.000000 0.000794
vn 0.000059 1.000000 0.000397
vn 0.000000 1.000000 0.000382
vn 0.000000 1.000000 0.000765
vn 0.000450 1.000000 0.000138
vn 0.000397 1.000000 0.000059
vn 0.000000 1.000000 0.000000
vn 0.000000 1.000000 0.000000
vn 0.000000 1.000000 0.000000
vn 0.000397 1.000000 0.000059
vn 0.000382 1.000000 0.000000
vn 0.000000 1.000000 0.000000
vn 0.000794 1.000000 0.000119
vn 0.000397 1.000000 0.000059
vn 0.000450 1.000000 0.000138
vn 0.000901 1.000000 0.000277
vn -0.000718 1.000000 -0.000207
vn -0.000711 1.000000 -0.000056
vn 0.000000 1.000000 0.000000
vn 0.000000 1.000000 0.000000
vn 0.000000 1.000000 0.000000
vn -0.000711 1.000000 -0.000056
vn -0.000707 1.000000 -0.000002
vn 0.000000 1.000000 0.000000
vn -0.001423 0.999999 -0.000111
vn -0.000711 1.000000 -0.000056
vn -0.000718 1.000000 -0.000207
vn -0.001437 0.999999 -0.000414
vn -0.000138 1.000000 0.000450
vn -0.000059 1.000000 0.000397
vn 0.000000 1.000000 0.000000
vn 0.000000 1.000000 0.000000
vn 0.000000 1.000000 0.000000
vn -0.000059 1.000000 0.000397
vn 0.000000 1.000000 0.000382
vn 0.000000 1.000000 0.000000
vn -0.000119 1.000000 0.000794
vn -0.000059 1.000000 0.000397
vn -0.000138 1.000000 0.000450
vn -0.000276 1.000000 0.000901
vn 0.000450 1.000000 -0.000138
vn 0.000632 1.000000 -0.000632
vn 0.000138 1.000000 -0.000450
vn 0.000000 1.000000 0.000000
vn 0.000138 1.000000 -0.000450
vn 0.000632 1.000000 -0.000632
vn 0.000774 0.999999 -0.001083
vn 0.000276 1.000000 -0.000901
vn 0.001083 0.999999 -0.000774
vn 0.000632 1.000000 -0.000632
vn 0.000450 1.000000 -0.000138
vn 0.000901 1.000000 -0.000277
f 7/1/1 8/2/2 33/3/3 6/4/4
f 27/5/5 34/6/6 35/7/7 26/8/8
f 19/9/9 36/10/10 37/11/11 18/12/12
f 3/13/13 38/14/14 39/15/15 2/16/16
f 29/17/17 40/18/18 41/19/19 28/20/20
f 42/21/21 43/22/22 44/23/23 45/24/24
f 1/25/25 46/26/26 47/27/27 32/28/28
f 13/29/29 48/30/30 49/31/31 12/32/32
f 50/33/33 51/34/34 52/35/35 53/36/36
f 17/37/37 54/38/38 55/39/39 16/40/40
f 21/41/41 56/42/42 57/43/43 20/44/44
f 58/45/45 59/46/46 60/47/47 61/48/48
f 25/49/49 62/50/50 63/51/51 24/52/52
f 64/53/53 65/54/54 66/55/55 67/56/56
f 50/33/57 68/57/58 69/58/59 70/59/60
f 5/60/61 71/61/62 72/62/63 4/63/64
f 38/14/65 72/62/66 65/54/67 64/53/68
f 65/54/69 72/62/70 71/61/71 73/64/72
f 4/63/73 72/62/74 38/14/75 3/13/76
f 10/65/77 69/58/78 74/66/79 9/67/80
f 74/66/81 69/58/82 68/57/83 73/64/84
f 70/59/85 69/58/86 10/65/87 11/68/88
f 53/36/89 66/55/90 68/57/91 50/33/92
f 68/57/93 66/55/94 65/54/95 73/64/96
f 67/56/97 66/55/98 53/36/99 75/69/100
f 22/70/101 63/51/102 56/42/103 21/41/104
f 56/42/105 63/51/106 62/50/107 76/71/108
f 24/52/109 63/51/110 22/70/111 23/72/112
f 45/24/113 60/47/114 77/73/115 42/21/116
f 77/73/117 60/47/118 59/46/119 76/71/120
f 61/48/121 60/47/122 45/24/123 75/69/124
f 36/10/125 57/43/126 59/46/127 58/45/128
f 59/46/129 57/43/130 56/42/131 76/71/132
f 20/44/133 57/43/134 36/10/135 19/9/136
f 14/74/137 55/39/138 48/30/139 13/29/140
f 48/30/141 55/39/142 54/38/143 78/75/144
f 16/40/145 55/39/146 14/74/147 15/76/148
f 61/48/149 52/35/150 79/77/151 58/45/152
f 79/77/153 52/35/154 51/34/155 78/75/156
f 53/36/157 52/35/158 61/48/159 75/69/160
f 70/59/161 49/31/162 51/34/163 50/33/164
f 51/34/165 49/31/166 48/30/167 78/75/168
f 12/32/169 49/31/170 70/59/171 11/68/172
f 30/78/173 47/27/174 40/18/175 29/17/176
f 40/18/177 47/27/178 46/26/179 80/79/180
f 32/28/181 47/27/182 30/78/183 31/80/184
f 67/56/185 44/23/186 81/81/187 64/53/188
f 81/81/189 44/23/190 43/22/191 80/79/192
f 45/24/193 44/23/194 67/56/195 75/69/196
f 34/6/197 41/19/198 43/22/199 42/21/200
f 43/22/201 41/19/202 40/18/203 80/79/204
f 28/20/205 41/19/206 34/6/207 27/5/208
f 46/26/209 39/15/210 81/81/211 80/79/212
f 81/81/213 39/15/214 38/14/215 64/53/216
f 2/16/217 39/15/218 46/26/219 1/25/220
f 54/38/221 37/11/222 79/77/223 78/75/224
f 79/77/225 37/11/226 36/10/227 58/45/228
f 18/12/229 37/11/230 54/38/231 17/37/232
f 62/50/233 35/7/234 77/73/235 76/71/236
f 77/73/237 35/7/238 34/6/239 42/21/240
f 26/8/241 35/7/242 62/50/243 25/49/244
f 71/61/245 33/3/246 74/66/247 73/64/248
f 74/66/249 33/3/250 8/2/251 9/67/252
f 6/4/253 33/3/254 71/61/255 5/60/256
