/* XPM */
static char *Flash2_Flash2_HEATER[] = {
/* columns rows colors chars-per-pixel */
"48 49 91 1",
"  c #020100",
". c #262624",
"X c #272823",
"o c #282723",
"O c #282825",
"+ c #292928",
"@ c #3B3B36",
"# c #3C3C38",
"$ c #4A4A43",
"% c #56564E",
"& c #58584E",
"* c #575850",
"= c #585752",
"- c #595951",
"; c #64645A",
": c #6F6F64",
"> c #717165",
", c #717168",
"< c #7A7B6E",
"1 c #7C7C70",
"2 c #848576",
"3 c #858679",
"4 c #878879",
"5 c #888679",
"6 c #8B8C7D",
"7 c #868580",
"8 c #8D8E81",
"9 c #8E9081",
"0 c #929384",
"q c #96968C",
"w c #979885",
"e c #979889",
"r c #989987",
"t c #98998A",
"y c #9D9D93",
"u c #9EA08E",
"i c #9FA090",
"p c #A0A18F",
"a c #A0A192",
"s c #A1A199",
"d c #A7A996",
"f c #A8A997",
"g c #A9AA99",
"h c #AFB19C",
"j c #B1B29E",
"k c #AFB0A0",
"l c #B1B2A2",
"z c #B4B4AA",
"x c #B7B8A5",
"c c #B6B8A9",
"v c #B8B7A5",
"b c #B9B9A6",
"n c #B8B9AB",
"m c #BCBCB1",
"M c #BEC0AB",
"N c #BFC0B2",
"B c #C0BFAB",
"V c #C1C1AD",
"C c #C3C2B3",
"Z c #C5C5BC",
"A c #C7C9B3",
"S c #C7C8B9",
"D c #C8C6B3",
"F c #C8C6BA",
"G c #C9C8B4",
"H c #CCCCBA",
"J c #CED0BB",
"K c #D0CEBB",
"L c #D1D0BC",
"P c #CCCCC2",
"I c #CFD0C2",
"U c #D0CEC2",
"Y c #D6D5C2",
"T c #D5D5C8",
"R c #D6D8C3",
"E c #D8D6C2",
"W c #DCDBC6",
"Q c #DDDCC9",
"! c #E0DFCA",
"~ c #E2E1CC",
"^ c #E3E2D1",
"/ c #E7E5D8",
"( c #E8E6D2",
") c #E9E9D3",
"_ c #EEECDA",
"` c #F1EFDC",
"' c #F2F2DD",
"] c #F4F3E2",
"[ c #F7F8E8",
"{ c #F9F7E9",
"} c #FEFEFE",
/* pixels */
"}}}}}}}}}}}}}}}}}}}}OOXXXX++o}}}}}}}}}}}}}}}}}}}",
"}}}}}}}}}}}}}}}}}XXXOO@@@@@++XXX}}}}}}}}}}}}}} }",
"}}}}}}}}}}}}}}}Xo@@@@@$$$$$@@#@@XX}}}}}}}}}}}} }",
"}}}}}}}}}}}}}XX@@$$$$$-*-&-$$$$$@@XX}}}}}}}}} }}",
"}}}}}}}}}}}}+X@$$*-==-;;;;;==%=%$$@O.}}}}}}}} }}",
"}}}}}}}}}}oo@@$=*;;;;;>>>>>;;;;;==$@#oX}}}}} }}}",
"}}}}}}}}}.o@$$=*;>>>,><<1<<>>,,>;==$$#OO}}}} }}}",
"}}}}}}}}o#@$$&;;>>1<1144443<111>,;;=$$@@+}} }}}}",
"}}}}}}}X@@$==;;>1<3555989994433<1>;;%=$@#.} }}}}",
"}}}}}}++@$-=;:>1<58069ttttt68883<1>>;&-$#. }}}}}",
"}}}}}}O@$-;;:>13388tttpaapartt8842<>>;;-$# }}}}}",
"}}}}}O@$$=;>11338qtappfhgggaaytt933<<>;&$ @X}}}}",
"}}}}}X@$-;><<499tragggjjjjjgfgptt893<1,;= #o}}}}",
"}}}}X@$&&;><469tyagljjbbvvBjjjgtpe9831:; =$#X}}}",
"}}}.@@$&;><449tagljnvbBVVVVvBbjjgut8331: %$@@X}}",
"}}}X@$&;>><49tagzjvnVBGDGGDVBbbjjgyt831 ,:=$@X}}",
"}}}O#$&;>1468yyz cNNFGKKLHLGGVVvxlitt93 ,:*$@+}}",
"}}X@$=;>1449qyz c SSKPYEELLLLGGVxllae9 71,;*$@+}",
"}}O@$&;>149tyyz NS ITTQQ!WWLWLGGVxlsyt 3<::%$@X}",
"}}o@$&;>136tyl mNSP TQQ^~~!WLLLGVxnly 981:;%$@.}",
"}}X@$&;>138qsz mSPTT ^^/))W!~L~LGBnls 831:--$#X}",
"}}X@$&;:<38ts mBSHRQ^ /`))))~LLLGVnj q831:;%$#X}",
"}X@$&;>138tsz BFHRRW~) ]''`))LLLKHNn st831::=$@O",
"}X@$&;>138ty BBFJRW~)_] [''))~~~KFm zat931:;=$#X",
"}X@$&;>138qs nBKLWW~(_'{ []_(~LWKFZ lyt941>;-$@X",
"}X@$-;>178y zmBGKLW~(`]`{ ]`(~QWPF nzaq841>;=$@X",
"}X@$-;><38y knBGLLWW~~`'[' )~QWYPP zlat84<>;&$@X",
"}}o@$&;>15 qykbBGLLW~)(_``_ ^QTPZ mlyt83<>;&$@X}",
"}}o@$&;>17 qpjbVGLLW~~~()/^^ TTPP zltq87<>;-$@O}",
"}}+@$&;>2 0qpjbvVGLLLW!!~QQQT IF mzlay831>;-$@O}",
"}}O#$&;>1 0pppjBBGKLYYQWQQQEYP P nlaat831,;=$@X}",
"}}O@$&;> 5566pjjbBDDLLYEELYKHCP nlzat9441,;-$@+}",
"}}}X@$=: 178qwtlxxVVHGKLKHLAGNCcclitt64<>;&$@O}}",
"}}}X#$= ,:136wagjhxxVVFGAAAVVbcxlgit641,>;&$@O}}",
"}}}X#@$ :,1366tpgllbxcCCVBBbxxllgat944<>;&$@@X}}",
"}}}}+# =%-:1496taugljlvvbbbjljgaurt641>;&&$@X}}}",
"}}}}}+ $&;,11396trpgggljjjjggdaru6661<>;*$#o}}}}",
"}}}}} #$$=;,11349ttapaggfhguaarr6221<>;&$$#X}}}}",
"}}}}} +#$&;;>,15469tttpaapattt6624<,,;;&$@X}}}}}",
"}}}} }..@$--;>><149996rrrtt9966411>>;&&$#X+}}}}}",
"}}}} }}o@@$=-;;>114542669964454<1,;;==$@@X}}}}}}",
"}}} }}}}+@@$$&;;>>1<<<52444<<<<>>;;&$$@@X}}}}}}}",
"}}} }}}}}.X@$$*&;;>>>>2<<<1>>>>>;=-$$@XX}}}}}}}}",
"}} }}}}}}}+X@@$&&;;;;;:>>>>;;;;;&-$@@OX}}}}}}}}}",
"}} }}}}}}}}}+X@$$&&&-&;;;;;&&%&&$$@OX}}}}}}}}}}}",
"} }}}}}}}}}}}X+@#$$$$$&&&&&$$$$$@@OO}}}}}}}}}}}}",
"} }}}}}}}}}}}}}.X@@@@@$$$$$@@@@@XX}}}}}}}}}}}}}}",
" }}}}}}}}}}}}}}}}OOXXX@@@@@OXXo+}}}}}}}}}}}}}}}}",
"}}}}}}}}}}}}}}}}}}}}XXXXXXX+.}}}}}}}}}}}}}}}}}}}"
};
