/* XPM */
static char *FSplit_FSplit_HEAT[] = {
/* columns rows colors chars-per-pixel */
"94 96 42 1",
"  c black",
". c #010101",
"X c #020202",
"o c #4C4C4C",
"O c gray30",
"+ c #4E4E4E",
"@ c gray40",
"# c #676767",
"$ c #686868",
"% c DimGray",
"& c #7C7C7C",
"* c gray49",
"= c #7E7E7E",
"- c #8B8B8B",
"; c gray55",
": c #989898",
"> c gray60",
", c #9A9A9A",
"< c gray65",
"1 c #A7A7A7",
"2 c gray66",
"3 c #B1B1B1",
"4 c #B2B2B2",
"5 c #B4B4B4",
"6 c gray74",
"7 c gray81",
"8 c #D0D0D0",
"9 c #D8D8D8",
"0 c gray85",
"q c #DADADA",
"w c gray88",
"e c #E1E1E1",
"r c #E2E2E2",
"t c gray91",
"y c #E9E9E9",
"u c #EAEAEA",
"i c #EFEFEF",
"p c gray94",
"a c #F1F1F1",
"s c #FDFDFD",
"d c #FEFEFE",
"f c gray100",
/* pixels */
"fffffffffe1#  #:qfffffffffffffffffffffffffffffffffffffffffffffffffffffffffffffffffffffffffffff",
"                                                                                              ",
" ffffftO6ffffffff1otfffffffffffffffffffffffffffffffffffffffffffffffffffffffffffffffffffffffff ",
" fffffO1ffffffffff:Opffffffffffffffffffffffffffffffffffffffffffffffffffffffffffffffffffffffff ",
" ffff:Offsffffffffi -ffffffffffffffffffffffffffffffffffffffffffffffffffffffffffffffffffffffff ",
" ffft 4ffffffffffff1 tffffsffffffffffffffffffffffffffffffffffffffffffffffffffffffffffffffffff ",
" fff4 efffsffffffff7 4fffsfsfffffffffffffffffffffffffffffffffffffffffffffffffffffffffffffffff ",
" fff= pffffffffffffi -fffffffffffffffffffffffffffffffffffffffffffffffffffffffffffffffffffffff ",
" fff  fffffffffsffff  fffffffffffffffffffffffffffffffffffffffffffffffffffffffffffffffffffffff ",
" fff  ffffffffffffff  fffffffffffffffffffffffffffffffffffffffffffffffffffffffffffffffffffffff ",
" fff  ffffffffffffff  fffffffffffffffffffffffffffffffffffffffffffffffffffffffffffffffffffffff ",
" fff= tfffffffffffff %fffffffffffffffffffffffffffffffffffffffffffffffffffffffffffffffffffffff ",
" fff1 qffffffffffffe :fffffffffffffffffffffffffffffffffffffffffffffffffffffffffffffffffffffff ",
" fffq 1ffffsfffffff4 7fffffffffffffffffffffffffffffffffffffffffffffffffffffffffffffffffffffff ",
" ffff& iffsffsfffffO%ffffffffffffffffffffffffffffffffffffffffffffffffffffffffffffffffffffffff ",
" fffftO:fffffffsff1 qffffffffffffffffffffffffffffffffffffffffffffffffffffffffffffffffffffffff ",
" fffff7O1ffffffff1 1fffffffffffffffffffffffffffffffffffffffffffffffffffffffffffffffffffffffff ",
" fffffft&#7iffp7# 1ffffffffffffffffffffffffffffffffffffffffffffffffffffffffffffffffffffffffff ",
" ffffffff7=     =qfffffffffffffffffffffffffffffffffffffffffffffffffffffffffffffffffffffffffff ",
" ffffffffff7    9ffffffffffffffffffffffffffffffffffffffffffffffffffffffffffffffffffffffffffff ",
" sffffffffffqO  Otfffsfffffffffffffffffffffffffffffffffffffffffffffffffffffffffffffffffffffff ",
" fffffffffffff1  Oefffsffffffffffffffffffffffffffffffffffffffffffffffffffffffffffffffffffffff ",
" ffffffffffffffe1  1qffffffffffffffffffffffffffffffffffffffffffffffffffffffffffffffffffffffff ",
" fffffffffffffffff7:& fffffffffffffffffffffffffffffffffffffffffffffffffffffffffffffffffffffff ",
" ffffffffffffffffffffffffffffffffffffffffffffffffffffffffffffffffffffffffffffffffffffffffffff ",
" ffffffffffffffffffffffffffffffffffffffffffffffffffffffffffffffffffffffffffffffffffffffffffff ",
" ffffffffffffffffffffffffffffffffffffffffffffffffffffffffffffffffffffffffffffffffffffffffffff ",
" ffffffffffffffffffffffffffffffffffffffffffffffffffffffffffffffffffffffffffffffffffffffffffff ",
" ffffffffffffffffffffffffffffffffffffffffffffffffffffffffffffffffffffffffffffffffffffffffffff ",
" ffffffffffffffffffffffffffffffffffffffffffffffffffffffffffffffffffffffffffffffffffffffffffff ",
" ffffffffffffffffffffffffffffffffffffffffffffffffffffffffffffffffffffffffffffffffffffffffffff ",
" ffffffffffffffffffffffffffffffffffffffffffffffffffffffffffffffffffffffffffffffffffffffffffff ",
" ffffffffffffffffffffffffffffffffffffffffffffffffffffffffffffffffffffffffffffffffffffffffffff ",
" ffffffffffffffffffffffffffffffffffffffffffffffffffffffffffffffffffffffffffffffffffffffffffff ",
" ffffffffffffffffffffffffffffffffffffffffffffffffffffffffffffffffffffffffffffffffffffffffffff ",
" ffffffffffffffffffffffffffffffffffffffffffffffffffffffffffffffffffffffffffffffffffffffffffff ",
" ffffffffffffffffffffffffffffffffffffffffffffffffffffffffffffffffffffffffffffffffffffffffffff ",
" ffffffffffffffffffffffffffffffffffffffffffffffffffffffffffffffffffffffffffffffffffffffffffff ",
" ffffffffffffffffffffffffffffffffffffffffffffffffffffffffffffffffffffffffffffffffffffffffffff ",
" ffffffffffffffffffffffffffffffffffffffffffffffffffffffffffffffffffffffffffffffffffffffffffff ",
" ffffffffffffffffffffffffffffffffffffffffffffffffffffffffffffffffffffffffffffffffffffffffffff ",
" ffffffffffffffffffffffffffffffffffffffffffffffffffffffffffffffffffffffffffffffffffffffffffff ",
" ffffffffffffffffffffffffffffffffffffffffffffffffffffffffffffffffffffffffffffffffffffffffffff ",
" ffffffffffffffffffffffffffffffffffffffffffffffffffffffffffffffffffffffffffffffffffffffffffff ",
" ffffffffffffffffffffffffffffffffffffffffffffffffffffffffffffffffffffffffffffffffffffffffffff ",
" ffffffffffffffffffffffffffffffffffffffffffffffffffffffffffffffffffffffffffffffffffffffffffff ",
" ffffffffffffffffffffffffffffffffffffffffffffffffffffffffffffffffffffffffffffffffffffffffffff ",
" ffffffffffffffffffffffffffffffffffffffffffffffffffffffffffffffffffffffffffffffffffffffffffff ",
" ffffffffffffffffffffffffffffffffffffffffffffffffffffffffffffffffffffffffffffffffffffffffffff ",
" ffffffffffffffffffffffffffffffffffffffffffffffffffffffffffffffffffffffffffffffffffffffffffff ",
" ffffffffffffffffffffffffffffffffffffffffffffffffffffffffffffffffffffffffffffffffffffffffffff ",
" ffffffffffffffffffffffffffffffffffffffffffffffffffffffffffffffffffffffffffffffffffffffffffff ",
" ffffffffffffffffffffffffffffffffffffffffffffffffffffffffffffffffffffffffffffffffffffffffffff ",
" ffffffffffffffffffffffffffffffffffffffffffffffffffffffffffffffffffffffffffffffffffffffffffff ",
" ffffffffffffffffffffffffffffffffffffffffffffffffffffffffffffffffffffffffffffffffffffffffffff ",
" ffffffffffffffffffffffffffffffffffffffffffffffffffffffffffffffffffffffffffffffffffffffffffff ",
" ffffffffffffffffffffffffffffffffffffffffffffffffffffffffffffffffffffffffffffffffffffffffffff ",
" ffffffffffffffffffffffffffffffffffffffffffffffffffffffffffffffffffffffffffffffffffffffffffff ",
" ffffffffffffffffffffffffffffffffffffffffffffffffffffffffffffffffffffffffffffffffffffffffffff ",
" ffffffffffffffffffffffffffffffffffffffffffffffffffffffffffffffffffffffffffffffffffffffffffff ",
" ffffffffffffffffffffffffffffffffffffffffffffffffffffffffffffffffffffffffffffffffffffffffffff ",
" ffffffffffffffffffffffffffffffffffffffffffffffffffffffffffffffffffffffffffffffffffffffffffff ",
" ffffffffffffffffffffffffffffffffffffffffffffffffffffffffffffffffffffffffffffffffffffffffffff ",
" ffffffffffffffffffffffffffffffffffffffffffffffffffffffffffffffffffffffffffffffffffffffffffff ",
" ffffffffffffffffffffffffffffffffffffffffffffffffffffffffffffffffffffffffffffffffffffffffffff ",
" ffffffffffffffffffffffffffffffffffffffffffffffffffffffffffffffffffffffffffffffffffffffffffff ",
" ffffffffffffffffffffffffffffffffffffffffffffffffffffffffffffffffffffffffffffffffffffffffffff ",
" ffffffffffffffffffffffffffffffffffffffffffffffffffffffffffffffffffffffffffffffffffffffffffff ",
" ffffffffffffffffffffffffffffffffffffffffffffffffffffffffffffffffffffffffffffffffffffffffffff ",
" ffffffffffffffffffffffffffffffffffffffffffffffffffffffffffffffffffffffffffffffffffffffffffff ",
" ffffffffffffffffffffffffffffffffffffffffffffffffffffffffffffffffffffffffffffffffffffffffffff ",
" ffffffffffffffffffffffffffffffffffffffffffffffffffffffffffffffffffffffffffffffffffffffffffff ",
" ffffffffffffffffffffffffffffffffffffffffffffffffffffffffffffffffffffffffffffffffffffffffffff ",
" ffffffffffffffffffffffsfffffffffffffffffffffffffffffffffffffffffffffffffffffffffffffffffffff ",
" ffffffffffffffffffffffffffffffffffffffffffffffffffffffffffffffsfffffffffffffffffffffffffffff ",
" ffffffffffffffffffffsfffffffffffffffffffffffffffffffffffffffffffffffffffffffffffffffffffffff ",
" ffffffffffffffffffffffffffsfffffffffffffffffffffffffffsffffsfsffffffffffffffffffffffffffffff ",
" ffffffffffffffffffffffffffffffffffffffffffffffffffffffffffffffffffffffffffffffffffffffffffff ",
" ffffffffffffffffffffffsfffffffffffffffffffffffffffffffffffffffffffffffffffffffffffffffffffff ",
" fffffffffffffffffffsfffffsffffffffffffffffffffffffffffffffffffffffffffffffffffffffffffffffff ",
" ffffffffffffffffffffffffff      ff   f f     ff   ffff   f       fffffffffffffffffffffffffff ",
" fffffffffffffffffffffffffff fff f fff  ff fff ff ffffff ff ff ff fffffffffffffffffffffffffff ",
" fffffffffffffffffffffffsfff fffff ffff ff fff ff ffffff fffff fffffsffffffffffffffffffffffff ",
" ffffffffffffffffffffsffffff ff fff  fffff fff ff ffffff fffff ffffffffffffffffffffffffffffff ",
" fffffffffffffffffffffffffff    fffff  fff    fff ffffff fffff ffffffffffffffffffffffffffffff ",
" fffffffffffffffffffffsfffff ff fffffff ff ffffff ffffff fffff ffffffffffffffffffffffffffffff ",
" ffffffffffffffffffffffsffff fffff ffff ff ffffff ffffff fffff ffffffffffffffffffffffffffffff ",
" fffffffffffffffffffffffffff fffff  fff ff ffffff ffff f fffff ffffffffffffffffffffffffffffff ",
" ffffffffffffffffffffffffff   ffff f   ff   ffff      f   fff   fffffffffffffffffffffffffffff ",
" ffffffffffffffffffffffffffffffffffffffffffffffffffffffffffffffffffffffffffffffffffffffffffff ",
" ffffffffffffffffffffffffffffffffffffffffffffffffffffffffffffffffffffffffffffffffffffffffffff ",
" ffffffffffffffffffffffffffffffffffffffffffffffffffffffffffffffffffffffffffffffffffffffffffff ",
" ffffffffffffffffffffffffffffffffffffffffffffffffffffffffffffffffffffffffffffffffffffffffffff ",
" fffffsffffffffffffffffffffffffffffffffffffffffffffffffffffffffffffffffffffffffffffffffffffff ",
" ffffffffffffffffffffffffffffffffffffffffffffffffffffffffffffffffffffffffffffffffffffffffffff ",
"                                                                                              "
};
