/* XPM */
static char *HeatX_HeatX_J12_HS1[] = {
/* columns rows colors chars-per-pixel */
"147 60 105 2",
"   c #000100",
".  c #262724",
"X  c #272824",
"o  c #292728",
"O  c #282825",
"+  c #3B3B36",
"@  c #3B3B38",
"#  c #4A4A44",
"$  c #4B4B49",
"%  c #58594E",
"&  c #575852",
"*  c #585952",
"=  c #64655B",
"-  c #66685D",
";  c #646460",
":  c #6F7164",
">  c #6F7068",
",  c #726F66",
"<  c #707165",
"1  c #717169",
"2  c #7B7C6E",
"3  c #7B7C71",
"4  c #858676",
"5  c #858679",
"6  c #86887B",
"7  c #888679",
"8  c #8D8D7E",
"9  c #8D8E82",
"0  c #8E9081",
"q  c #909084",
"w  c #96978B",
"e  c #97988B",
"r  c #999987",
"t  c #989989",
"y  c #979890",
"u  c #9E9F94",
"i  c #9EA092",
"p  c #9FA098",
"a  c #A19F90",
"s  c #A0A18E",
"d  c #A0A191",
"f  c #A1A298",
"g  c #A7A89B",
"h  c #ABAA96",
"j  c #A8A99B",
"k  c #B1B19E",
"l  c #A9ABA0",
"z  c #AFB1A6",
"x  c #B1B1A0",
"c  c #B2B4A8",
"v  c #B7B8A6",
"b  c #B6B8AA",
"n  c #B8B7A5",
"m  c #B9B7A8",
"M  c #B8B9A6",
"N  c #B8B8AA",
"B  c #BFBFB5",
"V  c #BFC0AD",
"C  c #BFC1B4",
"Z  c #C1BFB0",
"A  c #C1C1AD",
"S  c #C0C0B2",
"D  c #C6C6BB",
"F  c #C7C8B4",
"G  c #C6C8B9",
"H  c #C8C6B4",
"J  c #C9C7B9",
"K  c #C9C8B4",
"L  c #CBCBBB",
"P  c #CFD0BE",
"I  c #D0CEBB",
"U  c #D3D2BE",
"Y  c #CECEC1",
"T  c #CFD0C0",
"R  c #D0CEC0",
"E  c #D6D5C1",
"W  c #D5D5C9",
"Q  c #D8D6C2",
"!  c #DDDCC6",
"~  c #DCDBCA",
"^  c #DFDDD0",
"/  c #E6E6D5",
"(  c #E6E6D9",
")  c #E6E8D3",
"_  c #E7E8DA",
"`  c #E8E6D2",
"'  c #E8E6D9",
"]  c #EBEBD4",
"[  c #EDEDD8",
"{  c #F0EDDA",
"}  c #F3F3DD",
"|  c #F9F9DF",
" . c #EDEDE0",
".. c #F3F3E3",
"X. c #F6F7EC",
"o. c #F7F9E3",
"O. c #F6F8E9",
"+. c #F9F6E4",
"@. c #F9F7E9",
"#. c #FAFAE3",
"$. c #FCFCE8",
"%. c #F5F6F2",
"&. c #F7F8F2",
"*. c #FCFDF6",
"=. c #FEFEFE",
/* pixels */
"=.=.=.  =.*.&.  *.=.=.=.=.=.=.=.=.=.=.=.=.=.=.=.=.=.=.=.=.=.=.=.=.=.=.=.=.=.=.=.=.=.=.=.=.=.=.=.=.=.=.=.=.=.=.=.=.=.=.=.=.=.=.=.=.=.=.=.*.=.=.=.=.=.=.=.=.=.=.=.=.=.=.*.=.=.=.*.=.=.=.=.=.=.=.=.=.=.=.=.=.=.=.=.=.=.=.=.=.=.=.=.=.=.=.=.=.=.=.=.=.=.=.=.=.=.=.=.=.=.=.=.=.=.=.=.=.=.=.=.=.*.=.=.=.=.=.",
"=.=.=.=.  *.X.  =.=.=.=.=.=.=.=.=.=.=.=.=.=.=.=.=.=.=.=.=.=.=.=.=.=.=.=.=.=.=.=.=.=.=.=.=.=.=.=.=.=.=.=.=.=.=.=.=.=.=.=.=.=.=.=.=.=.=.=.=.=.=.=.=.=.=.=.=.*.=.=.=.=.=.=.=.=.=.=.=.=.=.=.=.=.=.=.=.=.=.=.=.=.=.=.=.=.=.=.=.=.=.=.=.=.=.=.=.=.=.=.=.=.=.=.=.=.=.=.=.=.=.=.=.=.=.=.=.=.=.=.=.=.=.=.=.=.=.",
"=.=.=.=.  *.X.  =.=.=.=.=.=.=.=.=.=.=.=.=.=.=.=.=.=.=.=.=.=.=.=.=.=.=.=.=.=.=.=.=.=.=.=.=.=.=.=.=.=.=.=.=.=.=.=.=.=.=.=.=.=.=.=.=.=.=.=.=.=.=.=.=.=.=.=.=.=.=.=.=.=.=.=.=.=.=.=.=.=.=.=.=.=.=.=.=.=.=.=.=.=.=.=.=.=.=.=.=.=.=.=.=.=.=.=.=.=.=.=.=.=.=.=.=.=.=.=.=.=.=.=.=.=.=.=.=.=.=.=.=.=.=.=.=.=.=.",
"=.=.=.=.  *.&.  =.=.*.=.=.=.=.=.=.=.=.=.=.=.=.=.=.=.=.=.=.=.=.=.=.=.=.=.=.=.=.=.=.=.=.=.=.=.=.=.=.=.=.=.=.=.=.=.=.=.=.=.=.=.=.=.=.=.=.=.=.=.=.=.=.=.=.=.=.=.=.=.=.=.=.=.=.=.=.=.=.=.=.=.=.=.=.=.=.=.=.=.=.=.=.=.=.=.=.=.=.=.=.=.=.=.=.=.=.=.=.=.=.=.=.=.=.=.=.=.=.=.=.=.=.=.=.=.=.=.=.=.=.=.=.=.=.=.=.",
"=.=.=.=.  =.&.  =.=.=.=.=.=.=.=.=.=.=.=.=.=.=.=.=.=.=.=.=.=.=.=.=.=.=.=.=.=.=.=.=.=.=.=.=.=.=.=.=.=.=.=.=.=.=.=.=.=.=.=.=.=.=.=.=.=.=.=.=.=.=.=.=.=.=.=.=.=.=.=.=.=.=.=.=.=.=.=.=.=.=.=.=.=.=.=.=.=.=.=.=.=.=.=.=.=.=.=.=.=.=.=.=.=.=.=.=.=.=.=.=.=.=.=.=.=.=.=.=.=.=.=.=.=.=.=.=.=.=.=.=.=.=.=.=.=.=.",
"        *.*.*.                    =.=.=.=.=.=.=.=.=.=.=.=.=.*.=.=.=.=.=.=.=.=.=.=.=.=.=.=.=.=.=.=.=.=.=.=.=.=.=.=.=.=.=.=.=.=.=.=.=.=.=.=.=.    *.%.    =.=.=.=.=.=.=.=.=.=.=.=.=.=.=.=.=.=.=.=.=.=.=.=.=.=.=.=.=.=.=.=.=.=.=.=.=.=.=.=.=.=.=.=.=.=.=.=.=.=.=.=.=.=.                                  ",
"  @ + + + + @ @ @ @   @ @ @ + @     =.=.=.=.=.=.=.=.=.=.=.=.=.=.=.=.=.=.=.=.=.=.=.=.=.=.=.=.=.=.=.=.=.=.=.=.=.=.=.=.=.=.=.=.=.=.=.=.=.=.=.=.=.=.  %.  =.=.=.=.=.=.=.=.=.=.=.=.=.=.=.=.=.=.=.=.=.=.=.=.=.=.=.=.=.=.=.=.=.=.=.=.=.=.=.=.=.=.=.=.=.=.=.=.=.=.=.=.=.=.    @ + @ @ @   @ @ + + + + + + +   ",
"  # # # # # # # # #   $ # # $ $   .   =.=.=.=.=.=.=.=.=.=.=.=.=.=.=.=.=.=.=.=.=.=.=.=.=.=.=.=.=.=.=.=.=.=.=.=.=.=.=.=.=.=.=.=.=.=.=.=.=.=.=.=.=.  %.  =.=.=.=.=.=.=.=.=.=.=.=.=.=.=.=.=.=.=.=.=.=.=.=.=.=.=.=.=.=.=.=.=.=.=.=.=.=.=.=.=.=.=.=.=.=.=.=.=.=.=.=.=.  o   $ # # # #   # # # # # # # # #   ",
"  ; ; = = = = = = -   = ; = = ;   @   *.=.=.=.=.=.=.=.=.=.=.=.=.=.=.=.=.=.=.=.=.=.=.=.=.=.=.=.=.=.=.=.=.=.=.=.=.*.=.=.=.=.=.=.=.=.=.=.=.=.=.=.*.  &.  =.=.=.=.=.=.=.=.=.=.=.=.=.=.=.=.=.=.=.=.=.=.=.=.=.=.=.=.=.*.=.=.=.=.=.=.=.=.=.=.=.=.=.=.=.=.=.=.=.=.=.=.  . +   ; = = = ;   = = = = = = = = ;   ",
"  1 1 : < < : < : >   > > > > 1   # @   =.=.*.=.=.=.=.=.=.=.=.=.=.=.=.*.*.=.=.*.*.=.=.=.=.=.=.=.=.=.=.=.=.=.=.=.=.=.=.=.=.=.=.=.=.=.=.=.=.=.=.=.  %.  =.=.=.=.=.=.=.=.=.=.=.=.=.=.=.=.=.=.=.=.=.=.=.=.=.=.=.=.=.=.=.=.=.=.=.=.=.=.=.=.=.=.=.=.=.=.=.=.=.=.=.=.  + $   1 < 1 > 1   1 1 < < : : < > >   ",
"  3 3 3 2 3 2 3 3 3   3 3 3 3 3   * $ +   *.*.*.=.=.*.=.=.=.=.=.=.=.=.*.=.=.=.=.=.=.=.*.=.=.=.*.=.*.=.=.=.*.*.=.=.*.=.=.=.=.*.=.=.=.=.*.=.=.=.=.  &.  =.=.*.=.=.=.=.*.=.=.=.=.*.=.=.=.=.=.*.=.=.=.*.=.=.=.*.*.=.=.*.=.=.=.=.*.=.=.=.=.*.=.=.=.*.=.*.=.*.=.=.  + $ *   3 3 3 3 3   3 3 3 3 3 2 3 3 3   ",
"  6 5 5 4 4 5 5 5 9   9 5 6 6 6   * * $ + + + + + + @ + @ @ + + + + + + + + + + + + + + + + + + + + + + + + @ + + + + + + + @ + + + + + + + + @ *.*.@ @ + + + + + + @ + + + + + + + + + + @ + + + + + + + + @ + + + + + + + @ + + + + + + + + + + + + + +   @ # * *   6 6 5 5 5   9 5 5 5 5 5 5 6 6   ",
"  9 q 0 8 8 0 9 9 9   0 0 0 9 9   ; * * # # # # # # # # # $ # # # $ # # # # # $ # # # # $ # # # # # $ # # # $ # # # $ # # # # # # # # # # # # # # $ # # # # # # # # # # # # $ # # # # # # # # # # # $ # # # $ # # # $ # # # # # # # # $ # # # # # # # # # + # % * -   9 9 8 9 9   9 9 8 0 8 0 0 9 9   ",
"  y e t t t t t w y   e e e e t   > - - % = = = = = = = = = = = = = = = = = = = = = = = = - = = = = = = = = = = = = = = = = = = = = = = = - = = = = = = = = = = = = = = = = = = = = = = - - = = = = = = = = = = = = = = = = = = = = = = = = - = = = = = = # % = ; >   u t t t e   e e t r t r t e y   ",
"  p i d d i i i u u   i i s s d   3 < < - < : : : : < < < : : : < < < < < < < < < < < < : : < < < < < < : < < < < < < < < < < < < < < < : : < < < : < < < : < < < < < < , < < < < < < < : : : : < < < < : < < < < < < < < < < < : : : : : : < < : : , < , % = , > 3   a d d i d   d i i s s s s i i   ",
"  c z z n k k k z z   z c z c z   3 3 2 : 6 5 5 5 4 5 5 5 5 5 5 4 5 5 7 4 4 5 4 4 4 5 4 5 5 4 5 5 5 5 5 4 4 4 4 4 4 4 4 7 5 5 5 5 5 4 5 5 5 7 5 5 7 5 5 5 5 5 5 5 5 5 4 4 4 5 5 4 5 5 4 4 6 6 4 5 5 5 5 4 4 4 4 4 4 4 4 7 5 5 5 5 5 4 4 5 4 4 4 4 4 5 5 7 = , 3 3 3   c k k c c   z z k n k k k z z   ",
"  b M M M M M M N N   N N n N c   9 5 2 2 t t t t r t t r t t t r t t t t r t t t e t t t t t t t t t t r t t r t t t t t r r r t t t t t t t r t t t t t r t t t t t t t t t t r r r t t t t t t t t t t r r r t t t t r t t t t t t r r r s e t t t t t < 2 2 9 5   b b N b N   N N N n M M n N N   ",
"  D Z Z A A S S S S   S S S Z B   0 9 5 4 s d d s s s s s s s s i s i s i i s s s s s s s s s d s s s s s d d d s s s s d d f d d s s s s d s s d d d d s s s s s s s s s s s s s s f s s s s s s s i i i s s f s s s s d d d d i d d i s s s s d d f s s 2 6 6 0 0   C C V S S   S A A A A A A S S   ",
"  Y H H K K J K D D   D J K J D   y w 9 8 z k z x z k z x x z k n k x x k k k k k k z z z k n k x x k k x x k k z x x x k x k k k z k k x k z k k k n k z k z k z k z k x z z k k k k k k z x x k x k k x k k k z z k k k z k k k z k k k k k k z k k x z 4 0 0 e y   Y J J F D   L K K K K K K J D   ",
"  Y I I I U I I T T   Y I I Y Y   p e e r M M M M M M M M M M M n N n M M M M M M M M M n v v M v v v V M M k V V M M M M M M M n n M M M M M M M M n M M M M M M M M M M M M M M k V M M M M M v V M M M M M M M M M M M M M M M M M v M M M M M M M M M 0 t t e i   Y I I T Y   Y I I I I I U T Y   ",
"  W W E U Q Q Q W W   W Q Q E W   l i i t F F F F F F F F L F K K K K K K K K K F F K K K K K K F F F K K K K K F K K K K K K K K I K K F F F K I K K K K K K K K K K K F F K K K K K K K K K K F L F F K K K K K K K K K K K K K K K K K K I K K K K K F r r s d l   W Q U W W   W Q U Q U U Q E W   ",
"  ~ ~ ~ ! ! ! ! ~ ~   ^ ~ ~ ~ ^   j j h s E E E U E E U U U ! U Q U Q Q U Q Q U U U Q U U Q Q U E E E E U U U ! U U ! U U U Q U U U U U U ! U U U U U U U ! U U U U ! U U ! ! U U U U ! U ! U U U U U U U U ! U U U ! U Q U Q Q E E Q U Q U U U U Q Q U U s s h j j   ~ ! ! ^ ~   ~ ! ! ! ! ! ! ~ ^   ",
"  _ ' ` ) ) ) ) ) )   _ ' ` ' '   c c j h ! ! ! ! ! ! ! ! ! ! ! ! ! ! ! ! ! ! ! ! ! ! ! ! ! ! ! ! ! ! ! ! ! ! ! ! ! ! ! ! ! ! ! ! ! ! ! ! ! ! ! ! ! ! ! ! ! ! ! ! ! U ! ! ! ! ! ! ! ! ! ! ! ! ! ! ! ! ! ! ! ! ! ! ! ! ! ! ! ! ! ! ! ! ! ! U ! U ! ! ! ! ! h h j z z   _ ` ` ' '    ./ ' ] ) ] ` ( _   ",
"  [ { [ [ [ [ [ [  .   .[ [ [ [   N M k k ) ) ) ] ] ` ` ` ` ` ` ` ` ` ` ` ] ` ] ] ] ) ` ] ) ) ` ` ` ) ) ` ` ` ` ` ` ` ` ` ` ` ] ] ] ` ` ` ` ) ] ` ` ` ` ) ] ` ] ] ] ` ` ` ` ) ) ` ` ` ` ` ] ` ] ` ` ] ] ` ` ` ` ` ` ` ` ` ` ` ] ) ) ) ) ] ] ] ] ] ] ` ` ) k k n N N   [ { { [ [   [ [ [ { ] ] { [ [   ",
"  ..} } } } } } } ..  ..o.} ....  H A n n ] ] ] ] ] [ [ ] { ] { [ ] [ ] [ [ ] ] ] ] [ ] ] [ ] [ ] [ ] ] [ ] ] } [ [ [ ] [ [ [ [ ] ] ] ] [ ] [ ] [ [ [ [ [ [ ] { ] ] { ] [ ] ] [ ] [ ] } [ ] [ { ] ] ] ] [ ] ] { [ ] [ ] [ [ [ ] ] [ ] [ ] [ [ ] ] ] [ ] [ M M k V S   ....} ....  ..} } } } } } ....  ",
"  X.#.| #.| | o.o.O.  O.o.o.+.@.  S A A A #.#.#.| | | | | | | | | | #.#.| | o.#.#.#.#.#.| | #.| | | o.#.#.#.+.#.| | | #.| | | | | | #.| | | #.#.| #.#.| | | | | | | | | | | | #.| #.| | | | | | | | o.#.#.#.#.#.| | #.#.| | | | | #.| | | | | | | | #.| #.A A K S S   $.o.#.@.+.  @.o.| | o.| o.o.O.  ",
"  O.o.o.| | o.+.o.O.  X.o.o.+.@.  L K K K $.$.$.#.$.$.$.$.$.$.$.$.$.$.$.$.$.$.$.$.$.$.$.$.$.$.#.$.$.$.$.$.$.$.#.$.$.$.$.$.$.$.$.$.$.$.$.$.$.$.$.$.$.$.#.$.$.$.$.$.$.$.$.$.$.$.$.$.$.#.$.$.$.$.#.$.$.$.$.$.$.$.$.$.$.$.#.$.$.$.$.$.$.$.$.$.#.$.$.| #.$.$.$.K K K J L   O.o.#.+.O.  $.o.| | o.| o.O.O.  ",
"  ....} } } } } } ..  ....} ..+.  Z A K K | | | | #.| | | | | | | | | | | #.| | | | | #.| | | | | #.| | | | #.| | | | #.| #.| | | | | | #.| | #.| | #.| | | | | | #.| | o.| #.+.| #.| | #.| | | #.| | #.| | #.| #.| | | | #.| | | | | | #.| o.#.| | | | | K K K S S   ....} ....  ..| } } } } | } ..  ",
"  { { ] ] { ] { [ [    .[ { [  .  H Z Z A ] { ] ] ] [ { [ ] ] [ ] ] { ] [ ] { ] [ ] [ [ ] ] [ ] ] ] [ ] [ ] [ ] ] [ ] ] ] ] ] [ [ ] ] [ ] ] ] ] [ ] ] ] { [ ] ] [ [ ] ] { { [ [ ] [ { [ ] { ] { ] ] [ [ [ ] ] [ ] ] [ [ ] ] [ ] [ ] ] ] ] ] { ] ] ] { ] { A A H A S   [ [ [ [  .   .{ [ ] ] ] ] [  .  ",
"  ` ` ] ` ` ` ) ) (   _ ` ` ' '   N m N n ] ] ` ] ` ] ] ] ` ` ] ] ] ] ` ] ` ) ] ` ` ` ] ] ] ] ` ] ` ] ] ` ` ` ] ] ] ] ` ] ` ] ) ` ] ` ] ] ] ` ] ` ] ` ] ` ] ` ] ` ` ] ] ) ) ` ] ` ] ] ] ` ] ] ] ] ` ] ] ` ` ` ] ` ] ] ` ] ` ` ] ] ` ` ] ` ` ] ` ] ` ` ] ] k k n N N   _ ' ` ' '   _ ) ) ] ] ) ) ) _   ",
"  ~ ^ ! ! ! ! ! ~ ~   ^ ~ ~ ~ ~   c z k k ^ ! ! ! ! ! ! ! ! ! ! ! ! ! ! ! ! ! ! ! ! ! ! ! ! ! ! ! ! ! ! ! ! ! ! ! ! ! ! ! ! ! ! ! ! ! ! ! ! ! ! ! ! ! ! ! ! ! ! ! ! ! ! ! ! ! ! ! ! ! ! U ` ! ! ! ! ! ! ! ! ! ! ! ! ! ! ! ! ! ! ! ! ! ! ! ! ! ! ! ! ! ! ! k k k z z   ^ ^ ! ~ ~   ~ ! ! ! ! ! ! ~ ~   ",
"  W Q U ! U Q U E W   W Q U W W   j j j h U ! Q U U U U ! U U U U U ! U U U Q Q U ! U U Q U Q Q U U U ! U Q Q U U Q U ! U U Q Q U U U ! U U U ! U U ! U U U Q Q U U ! U U Q Q Q U U U U U U U U U U U U ! U Q U U ! U ! U U Q U Q U Q Q ! U Q Q Q U Q Q Q h h k j j   W Q U ~ W   W Q U ! U U Q W W   ",
"  R I I U I I U L P   T E L T Y   l j d d K K K K K K K K K K K K K K K K K K K K K K K K H K K K K K K K K J K K K K K K K K K K K K K K K K K K K K K K H K K K K K K K K K K K K K K K H K K K K K K K K K K K K K K K K K K K F F F K F F F F F F F F s s s l g   T T I I I   Y I I U L U U L P   ",
"  Y J J K K K K F G   D F G J D   d f e r N M M N n M M M M n M M M M M M M M M M M M M M M M M N n n M M M N N n n M n N n n M M n n N M M M M n M M M M M M N M n n N M M M M n M M M M M M N k Z M M M M M M n n M M M M n N N M M M M M M M k V M M M t e t i i   D J F L D   L J J F F K K G J   ",
"  Z Z Z A A A A C S   C A A S S   y w e 8 z k k k k n k x x x k k x x k k z k z k k n k x x x x k k k k n k k k k n k k k k k k n k k k k n z k k k k x x x k k n k k k k n z k k k k x x x k k k k n k z k n x k k k k n k k k k z z k k z z k k k x k z 0 0 t e e   B S V S S   Z Z S A A A S S C   ",
"  N m M n n M N M M   b M N N N   e 9 9 4 i d s i s i i d d d d d s d d d s s d d s s d d d d d s d d d s s d d d s s s d i d d i s i s s s d d d s d d d s s d i s i s s s d d d s d d d s s d s s s d d d d d d d d s s s d i s s s s s s s d s s f s s 4 5 0 9 y   B M M N N   N M M n M n n M b   ",
"  c z x x k k k k c   c k z z n   0 6 5 2 r r r t t t t t t t t r t e t t t t t t t t t r t t t t t t t t t t t t t t t t r t t r t t t t r t t r t t t t t t t t r t t t r t t r t t t t t t t t t e t t t t t t t t t t t t t t r t t t t t t t t t t t 2 2 6 6 9   c x x z c   b z x n k n k z c   ",
"  f d d d s d s i d   i d p i i   6 3 3 2 4 7 4 5 4 5 5 5 5 5 4 7 7 5 7 5 5 4 4 4 5 7 4 7 7 5 7 5 7 5 5 4 5 5 4 5 4 5 4 5 5 5 5 5 5 4 5 5 7 5 5 7 7 5 7 4 4 5 5 5 5 5 5 5 7 5 5 7 7 5 7 4 4 5 5 5 5 7 5 7 7 5 5 4 4 5 7 5 7 7 4 5 5 4 4 5 5 4 4 5 5 5 5 5 : 2 2 3 6   a a a a a   f d d d t d d d f   ",
"  y y e e t t t e e   y t e w e   3 2 : , < < < < < < < < < < < < < < < : < < < < < < < < < < < < < < < < < < < < < < < < < < < < < : < < < < < < < < < < < < < < < : < < < < < < < < < < < < < < < < < < < < < < < < < < < < < : < < < < < < < : < < < < = : 1 3 3   y y t w y   e w t t r e t t e   ",
"  9 9 9 q 8 9 q 9 9   9 9 9 9 9   < < = = = = = = = = = = = = = = = = = - = = = = = = = = = = = = = = = = = = = = = = = = = = = = = = = = = = = = = = = = = = = = = = = = = = = = = = = = = = = = = = = = = = = = = = = = = = = - = = = = = = = = - = = = % = - 1 1   9 9 9 9 9   9 9 9 q 8 q 8 q 0   ",
"  6 6 7 5 4 4 4 6 6   6 6 5 6 5   - = % % # # # # # $ # # # # # # # # # # # # # # # # # # # # # $ # # # # # # # # # # # # # # # # # # # # # # # # # # # # # $ # # # $ # # # # # # # # # # # $ # $ # # # $ # # # # # # # $ # # # # # # # # # # # # # # # # # * * = =   6 6 5 5 6   6 7 4 4 4 5 4 6 6   ",
"  3 3 3 2 2 2 2 3 3   3 3 3 3 3   * * % # + + + + + + @ + + + + + + + + + + + + + + + + + + + + + @ + + + + + + + + + + + + + + + + + + + + + + + + + + + + + + + + + @ + + + + + + + + + + + + + + + + + @ + + + + + + + @ + + + + + + + + + + + + + + @ + # * * *   3 3 3 3 3   3 3 2 2 3 2 2 3 3   ",
"  > 1 < < < < : 1 >   1 1 > 1 1   * # # + O =.=.=.*.=.=.*.=.=.=.*.=.=.=.*.=.=.=.*.=.=.=.=.=.*.=.=.*.=.=.*.=.=.=.*.=.=.=.=.*.=.=.=.=.=.=.=.=.*.=.=.*.=.=.=.*.=.=.=.=.=.*.=.=.*.=.=.*.=.=.=.*.=.=.=.=.*.=.=.*.=.=.=.*.*.=.=.*.=.=.*.=.=.=.*.*.=.=.=.=.*.=.=.  @ # # &   > > , , 1   > < < < < < < 1 1   ",
"  ; = = = = = = = ;   ; = = ; ;   $ @ @   *.=.=.=.=.  =.%.  =.=.=.=.=.=.=.=.=.=.=.=.=.=.=.=.=.=.=.=.=.=.=.=.=.=.=.=.=.=.=.=.=.=.=.=.=.=.=.=.=.=.=.=.=.=.=.=.=.=.=.=.=.=.=.=.=.=.=.=.=.=.=.=.=.=.=.=.=.=.=.=.=.=.=.=.=.=.=.=.=.=.=.=.=.  %.  =.=.=.=.=.=.=.=.  @ @ $   = = = = ;   ; = = = - = = ; ;   ",
"  $ # # # # # # # #   # # # # #   @ .   =.=.=.=.=.=.    %.  =.=.=.=.=.=.=.=.=.=.=.=.=.=.=.=.=.=.=.=.=.=.=.=.=.=.=.=.=.=.=.=.=.=.=.=.=.=.=.=.=.=.=.=.=.=.=.=.=.=.=.=.=.=.=.=.=.=.=.=.=.=.=.=.=.=.=.=.=.=.=.=.=.=.=.=.=.=.=.=.=.=.=.=.=.  %.  =.=.=.=.=.=.=.=.=.  O @   # # # # $   # # # # # # # $ $   ",
"  @ + + + + + + @ @   @ + + + +   .   =.=.=.=.=.=.=.    %.  =.=.=.=.=.=.=.=.=.=.=.=.=.=.=.=.=.=.=.=.=.=.=.=.=.=.=.=.=.=.=.=.=.=.=.=.=.=.=.=.=.=.=.=.=.=.=.=.=.=.=.=.=.=.=.=.=.=.=.=.=.=.=.=.=.=.=.=.=.=.=.=.=.=.=.=.=.=.=.=.=.=.=.=.=.      =.=.=.=.=.=.=.=.=.=.  .   @ + + + @   @ + + + + + + @ @   ",
"  . . O . O O . . o   O . O . O     =.=.=.=.=.=.=.=.    %.  =.=.=.=.=.=.=.=.=.=.=.=.=.=.=.=.=.=.=.=.=.=.=.=.=.=.=.=.=.=.=.=.=.=.=.=.=.=.=.=.=.=.=.=.=.=.=.=.=.=.=.=.=.=.=.=.=.=.=.=.=.=.=.=.=.=.=.=.=.=.=.=.=.=.=.=.=.=.=.=.=.=.=.=.=.      =.=.=.=.=.=.=.=.=.=.=.    O . O o o   o O O O O O . o o   ",
"                                  =.=.=.=.=.=.=.=.  =.  =.  =.=.=.=.=.=.=.=.=.=.=.=.=.=.=.=.=.=.=.=.=.=.=.=.=.=.=.=.=.=.=.=.=.=.=.=.=.=.=.=.=.=.=.=.=.=.=.=.=.=.=.=.=.=.=.=.=.=.=.=.=.=.=.=.=.=.=.=.=.=.=.=.=.=.=.=.=.=.=.=.=.=.=.    =.      =.=.=.=.=.=.=.=.=.=.=.                  *.=.*.          ",
"=.=.=.=.=.=.=.=.=.=.=.=.=.=.=.=.=.=.=.=.=.=.=.=.=.=.=.  =.=.=.=.=.=.=.=.=.=.=.=.=.=.=.=.=.=.=.=.=.=.=.=.=.=.=.=.=.=.=.=.=.=.=.=.=.=.=.=.=.=.=.=.=.=.=.=.=.=.=.=.=.=.=.=.=.=.=.=.=.=.=.=.=.=.=.=.=.=.=.=.=.=.=.=.=.=.=.=.=.=.=.=.=.=.=.=.  =.=.=.=.=.=.=.=.=.=.=.=.=.=.=.=.=.=.=.=.=.=.  *.&.  =.=.=.=.",
"=.=.=.=.=.=.=.=.=.=.=.=.=.=.=.=.=.=.=.=.=.=.=.=.=.=.=.  =.=.=.=.=.=.=.=.=.=.=.=.=.=.=.=.=.=.=.=.=.=.=.=.=.=.=.=.=.=.=.=.=.=.=.=.=.=.=.=.=.=.=.=.=.=.=.=.=.=.=.=.=.=.=.=.=.=.=.=.=.=.=.=.=.=.=.=.=.=.=.=.=.=.=.=.=.=.=.=.=.=.=.=.=.=.=.=.  =.=.=.=.=.=.=.=.=.=.=.=.=.=.=.=.=.=.=.=.=.=.  *.X.  =.=.=.=.",
"=.=.=.=.=.=.=.=.=.=.=.=.=.=.=.=.=.=.=.=.=.=.=.=.=.=.=.  =.=.=.=.=.=.=.=.=.=.=.=.=.=.=.=.=.=.=.=.=.=.=.=.=.=.=.=.=.=.=.=.=.=.=.=.=.=.=.=.=.=.=.=.=.=.=.=.=.=.=.=.=.=.=.=.=.=.=.=.=.=.=.=.=.=.=.=.=.=.=.=.=.=.=.=.=.=.=.=.=.=.=.=.=.=.=.=.  =.=.=.=.=.=.=.=.=.=.=.=.=.=.=.=.=.=.=.=.=.=.  *.%.  =.=.=.=.",
"=.=.=.=.=.=.=.=.=.=.=.=.=.=.=.=.=.=.=.=.=.=.=.=.=.=.=.  =.=.=.=.=.=.=.=.=.=.=.=.=.=.=.=.=.=.=.=.=.=.=.=.=.=.=.=.=.=.=.=.=.=.=.=.=.=.=.=.=.=.=.=.=.=.=.=.=.=.=.=.=.=.=.=.=.=.=.=.=.=.=.=.=.=.=.=.=.=.=.=.=.=.=.=.=.=.=.=.=.=.=.=.=.=.=.=.  =.=.=.=.=.=.=.=.=.=.=.=.=.=.=.=.=.=.=.=.=.=.  *.%.  =.=.=.=.",
"=.=.=.=.=.=.=.=.=.=.=.=.=.=.=.=.=.=.=.=.=.=.=.=.=.=.=.  =.=.=.=.=.=.=.=.=.=.=.=.=.=.=.=.=.=.=.=.=.=.=.=.=.=.=.=.=.=.=.=.=.=.=.=.=.=.=.=.=.=.=.=.=.=.=.=.=.=.=.=.=.=.=.=.=.=.=.=.=.=.=.=.=.=.=.=.=.=.=.=.=.=.=.=.=.=.=.=.=.=.=.=.=.=.=.=.  =.=.=.=.=.=.=.=.=.=.=.=.=.=.=.=.=.=.=.=.=.=.    *.  =.=.=.=.",
"=.=.=.=.=.=.=.=.=.=.=.=.=.=.=.=.=.=.=.=.=.=.=.=.=.=.=.  =.=.=.=.=.=.=.=.=.=.=.=.=.=.=.=.=.=.=.=.=.=.=.=.=.=.=.=.=.=.=.=.=.=.=.=.=.=.=.=.=.=.=.=.=.=.=.=.=.=.=.=.=.=.=.=.=.=.=.=.=.=.=.=.=.=.=.=.=.=.=.=.=.=.=.=.=.=.=.=.=.=.=.=.=.=.=.=.  =.=.=.=.=.=.=.=.=.=.=.=.=.=.=.=.=.=.=.=.=.=.=.=.=.=.=.=.=.=.",
"=.=.=.=.=.=.=.=.=.=.=.=.=.=.=.=.=.=.=.=.=.=.=.=.=.=.=.  =.=.=.=.=.=.=.=.=.=.=.=.=.=.=.=.=.=.=.=.=.=.=.=.=.=.=.=.=.=.=.=.=.=.=.=.=.=.=.=.=.=.=.=.=.=.=.=.=.=.=.=.=.=.=.=.=.=.=.=.=.=.=.=.=.=.=.=.=.=.=.=.=.=.=.=.=.=.=.=.=.=.=.=.=.=.=.=.  =.=.=.=.=.=.=.=.=.=.=.=.=.=.=.=.=.=.=.=.=.=.=.=.=.=.=.=.=.=.",
"=.=.=.=.=.=.=.=.=.=.=.=.=.=.=.=.=.=.=.=.=.=.=.=.=.=.=.  =.=.=.=.=.=.=.=.=.=.=.=.=.=.=.=.=.=.=.=.=.=.=.=.=.=.=.=.=.=.=.=.=.=.=.=.=.=.=.=.=.=.=.=.=.=.=.=.=.=.=.=.=.=.=.=.=.=.=.=.=.=.=.=.=.=.=.=.=.=.=.=.=.=.=.=.=.=.=.=.=.=.=.=.=.=.=.=.  =.=.=.=.=.=.=.=.=.=.=.=.=.=.=.=.=.=.=.=.=.=.=.=.=.=.=.=.=.=.",
"=.=.=.=.=.=.=.=.=.=.=.=.=.=.=.=.=.=.=.=.=.=.=.=.=.=.=.  =.=.=.=.=.=.=.=.=.=.=.=.=.=.=.=.=.=.=.=.=.=.=.=.=.=.=.=.=.=.=.=.=.=.=.=.=.=.=.=.=.=.=.=.=.=.=.=.=.=.=.=.=.=.=.=.=.=.=.=.=.=.=.=.=.=.=.=.=.=.=.=.=.=.=.=.=.=.=.=.=.=.=.=.=.=.=.=.  =.=.=.=.=.=.=.=.=.=.=.=.=.=.=.=.=.=.=.=.=.=.=.=.=.=.=.=.=.=.",
"=.=.=.=.=.=.=.=.=.=.=.=.=.=.=.=.=.=.=.=.=.=.=.=.=.=.=.  =.=.=.=.=.=.=.=.=.=.=.=.=.=.=.=.=.=.=.=.=.=.=.=.=.=.=.=.=.=.=.=.=.=.=.=.=.=.=.=.=.=.=.=.=.=.=.=.=.=.=.=.=.=.=.=.=.=.=.=.=.=.=.=.=.=.=.=.=.=.=.=.=.=.=.=.=.=.=.=.=.=.=.=.=.=.=.=.  =.=.=.=.=.=.=.=.=.=.=.=.=.=.=.=.=.=.=.=.=.=.=.=.=.=.=.=.=.=.",
"=.=.=.=.=.=.=.=.=.=.=.=.=.=.=.=.=.=.=.=.=.=.=.=.=.=.=.  =.=.=.=.=.=.=.=.=.=.=.=.=.=.=.=.=.=.=.=.=.=.=.=.=.=.=.=.=.=.=.=.=.=.=.=.=.=.=.=.=.=.=.=.=.=.=.=.=.=.=.=.=.=.=.=.=.=.=.=.=.=.=.=.=.=.=.=.=.=.=.=.=.=.=.=.=.=.=.=.=.=.=.=.=.=.=.=.  =.=.=.=.=.=.=.=.=.=.=.=.=.=.=.=.=.=.=.=.=.=.=.=.=.=.*.=.=.=.",
"=.=.=.=.=.=.=.=.=.=.=.=.=.=.=.=.=.=.=.=.=.=.=.=.=.=.=.                                                                                                                                                                                    =.=.=.=.=.=.=.=.=.=.=.=.=.=.=.=.=.=.=.=.=.=.=.=.=.=.=.=.=.=."
};
