/* XPM */
static char *HeatX_HeatX_J12_HT2[] = {
/* columns rows colors chars-per-pixel */
"142 60 103 2",
"   c #000000",
".  c #262623",
"X  c #272823",
"o  c #282724",
"O  c #282824",
"+  c #282828",
"@  c #3B3B36",
"#  c #3B3B39",
"$  c #4A4A44",
"%  c #4B4A48",
"&  c #56584D",
"*  c #58584E",
"=  c #575851",
"-  c #585753",
";  c #585851",
":  c #64645B",
">  c #646460",
",  c #6F6F65",
"<  c #6F7166",
"1  c #6F7069",
"2  c #707165",
"3  c #717169",
"4  c #7B7C6E",
"5  c #7C7C71",
"6  c #7D7E78",
"7  c #868777",
"8  c #858679",
"9  c #87887A",
"0  c #8D8E7E",
"q  c #868580",
"w  c #8D8E82",
"e  c #8D8E88",
"r  c #8F9081",
"t  c #96978D",
"y  c #979886",
"u  c #969889",
"i  c #989987",
"p  c #989989",
"a  c #979890",
"s  c #9A9A92",
"d  c #9EA091",
"f  c #9FA098",
"g  c #A0A18F",
"h  c #A0A091",
"j  c #A0A199",
"k  c #A9A996",
"l  c #A9AA99",
"z  c #B1B29E",
"x  c #A7A8A0",
"c  c #A8A9A1",
"v  c #AFB1A5",
"b  c #B1B2A0",
"n  c #B2B3A9",
"m  c #B7B8A5",
"M  c #B7B8AB",
"N  c #B9B7A9",
"B  c #B8B9A6",
"V  c #B9B9A9",
"C  c #B7B8B0",
"Z  c #BBBCB4",
"A  c #BEC0B3",
"S  c #C1C1AE",
"D  c #C2C1B2",
"F  c #C7C7BD",
"G  c #C6C8B4",
"H  c #C6C8BA",
"J  c #C8C6B4",
"K  c #C9C7B8",
"L  c #C8C8B4",
"P  c #CDCDBC",
"I  c #D0CEBC",
"U  c #D1D0BC",
"Y  c #CDCEC3",
"T  c #D6D5C1",
"R  c #D4D5CA",
"E  c #D6D8C3",
"W  c #D8D6C4",
"Q  c #DCDCC6",
"!  c #DCDCCA",
"~  c #DBDCD1",
"^  c #E7E7CF",
"/  c #E6E6D4",
"(  c #E5E6D9",
")  c #E6E8D2",
"_  c #E8E6D2",
"`  c #EBEBD3",
"'  c #EDECD8",
"]  c #F0EFDA",
"[  c #F4F3DC",
"{  c #F7FADF",
"}  c #F9F9DF",
"|  c #EBEDE0",
" . c #F3F3E3",
".. c #F7F7EB",
"X. c #F7F8E4",
"o. c #F6F8EB",
"O. c #F8F7E3",
"+. c #FAFAE3",
"@. c #FDFDE9",
"#. c #F5F6F2",
"$. c #F7F8F2",
"%. c #FBFDF5",
"&. c #FEFEFE",
/* pixels */
"&.&.&.  #.&...  &.%.&.&.&.&.&.&.&.&.&.&.&.&.&.&.&.&.&.&.&.&.&.&.&.&.&.&.&.&.&.&.&.&.&.&.&.&.&.&.&.&.&.&.&.&.&.&.&.&.&.&.&.&.&.&.&.&.&.&.&.&.&.&.&.&.&.&.&.&.&.&.&.&.&.&.&.&.&.&.&.&.&.&.&.&.&.&.&.&.&.&.&.&.&.&.&.&.&.&.&.&.&.&.&.&.&.&.&.&.&.&.&.&.&.&.&.&.&.&.&.&.&.&.&.&.&.&.&.&.&.&.&.&.",
"&.&.&.&.  &.#.  &.&.&.&.&.&.&.&.&.&.&.&.&.&.&.&.&.&.&.&.&.&.&.&.&.&.&.&.&.&.&.&.&.&.&.&.&.&.&.&.&.&.&.&.&.&.&.&.&.&.&.&.&.&.&.&.&.&.&.&.&.&.&.&.&.&.&.&.&.&.&.&.&.&.&.&.&.&.&.&.&.&.&.&.&.&.&.&.&.&.&.&.&.&.&.&.&.&.&.&.&.&.&.&.&.&.&.&.&.&.&.&.&.&.&.&.&.&.&.&.&.&.&.&.&.&.&.&.&.&.&.&.&.&.",
"&.&.&.&.  %.#.  &.&.&.&.&.&.&.&.&.&.&.&.&.&.&.&.&.&.&.&.&.&.&.&.&.&.&.&.&.&.&.&.&.&.&.&.&.&.&.&.&.&.&.&.&.&.&.&.&.&.&.&.&.&.&.&.&.&.&.&.&.&.&.&.&.&.&.&.&.&.&.&.&.&.&.&.&.&.&.&.&.&.&.&.&.&.&.&.&.&.&.&.&.&.&.&.&.&.&.&.&.&.&.&.&.&.&.&.&.&.&.&.&.&.&.&.&.&.&.&.&.&.&.&.&.&.&.&.&.&.&.&.&.&.",
"&.&.&.&.  &.#.  &.&.&.&.&.&.&.&.&.&.&.&.&.&.&.&.&.&.&.&.&.&.&.&.&.&.&.&.&.&.&.&.&.&.&.&.&.&.&.&.&.&.&.&.&.&.&.&.&.&.&.&.&.&.&.&.&.&.&.&.&.&.&.&.&.&.&.&.&.&.&.&.&.&.&.&.&.&.&.&.&.&.&.&.&.&.&.&.&.&.&.&.&.&.&.&.&.&.&.&.&.&.&.&.&.&.&.&.&.&.&.&.&.&.&.&.&.&.&.&.&.&.&.&.&.&.&.&.&.&.&.&.&.&.",
"&.&.&.&.  &.o.  &.&.&.&.&.&.&.&.&.&.&.&.&.&.&.&.&.&.&.&.&.&.&.&.&.&.&.&.&.&.&.&.&.&.&.&.&.&.&.&.&.&.&.&.&.&.&.&.&.&.&.&.&.&.&.&.&.&.&.&.&.&.&.&.&.&.&.&.&.&.&.%.&.&.&.&.&.&.&.&.&.&.&.&.&.&.&.&.&.&.&.&.&.&.&.&.&.&.&.&.&.&.&.&.&.&.&.&.&.&.&.&.&.&.&.&.&.&.&.&.&.&.&.&.&.&.&.&.&.&.&.&.&.&.",
"        &.%.&.                    &.&.&.&.&.&.&.&.&.&.&.&.&.&.&.&.&.&.&.&.&.&.&.&.&.&.&.&.&.&.&.&.&.&.&.&.&.&.&.&.&.&.&.&.&.&.&.&.&.&.&.&.&.&.  #.#.    &.&.&.&.&.&.&.&.&.&.&.&.&.&.&.&.&.&.&.&.&.&.&.&.&.&.&.&.&.&.&.&.&.&.&.&.&.&.&.&.&.&.&.&.&.&.&.&.&.&.&.&.&.&.&.&.&.&.&.&.&.&.&.&.&.&.",
"  # @ @ @ @ @ @ @ @   @ @ @ @ @     &.&.&.&.&.&.&.&.&.&.&.&.&.&.&.&.&.&.&.&.&.&.&.&.&.&.&.&.&.&.&.&.&.&.&.&.&.&.&.&.&.&.&.&.&.&.&.&.&.&.&.&.&.%.  #.  &.&.&.&.&.&.&.&.&.&.&.&.&.&.&.&.&.&.&.&.&.&.&.&.&.&.&.&.&.&.&.&.&.&.&.&.&.&.&.&.&.&.&.&.&.&.&.&.&.&.&.&.&.&.&.&.&.&.&.&.&.&.&.&.&.&.&.",
"  % $ $ $ $ $ $ $ $   % % $ $ $   +   &.&.&.&.&.&.&.&.&.&.&.&.&.&.&.&.&.&.&.&.&.&.&.&.&.&.&.&.&.&.&.&.&.&.&.&.&.&.&.&.&.&.&.&.&.&.&.&.&.&.&.&.&.  #.  &.&.&.&.&.&.&.&.&.&.&.&.&.&.&.&.&.&.&.&.&.&.&.&.&.&.&.&.&.&.&.&.&.&.&.&.&.&.&.&.&.&.&.&.&.&.&.&.&.&.&.&.&.&.&.&.&.&.&.&.&.&.&.&.&.&.&.",
"  : : : : : : : : :   > > : > >   #   &.&.&.&.&.&.&.&.&.&.&.&.&.&.&.&.&.&.&.&.&.&.&.&.&.&.&.&.&.&.&.&.&.&.&.&.&.&.&.&.&.&.&.&.&.&.&.&.&.&.&.&.%.  #.  &.&.&.&.&.&.&.&.&.&.&.&.&.&.&.&.&.&.&.&.&.&.&.&.&.&.&.&.&.&.&.&.&.&.&.&.&.&.&.&.&.&.&.&.&.&.&.&.&.&.  &.&.&.&.&.&.&.&.&.&.&.&.&.&.&.&.",
"  3 3 1 2 2 2 2 2 <   3 3 1 , 3   % #   &.&.&.&.&.&.&.&.&.&.&.&.&.&.&.&.&.&.&.&.&.&.&.&.&.&.&.&.&.&.&.&.&.&.&.&.&.&.&.&.&.&.&.&.&.&.&.&.&.&.&.&.  #.  &.&.&.&.&.&.&.&.&.&.&.&.&.&.&.&.&.&.&.&.&.&.&.&.&.&.&.&.&.&.&.&.&.&.&.&.&.&.&.&.&.&.&.&.&.%.&.&.&.&.  &.&.&.&.&.&.&.&.&.&.&.&.&.&.&.&.",
"  6 5 5 5 4 4 4 5 6   6 5 4 4 6   - % @   &.%.&.&.&.&.&.&.&.&.&.&.&.&.&.&.&.&.&.&.%.&.&.&.&.&.&.&.&.&.&.&.&.&.&.&.%.&.&.&.&.&.&.&.&.&.&.&.&.&.&.  o.  &.&.&.&.&.&.&.&.&.&.&.&.&.&.%.&.&.&.&.&.&.&.&.&.&.&.&.&.&.&.%.&.&.&.&.&.&.&.&.&.&.&.&.&.&.&.&.&.&.&.  &.&.&.&.&.&.&.&.&.&.&.&.&.&.&.&.",
"  q 8 8 8 8 8 8 8 9   q 9 8 8 9   - * $ @ X @ @ @ @ @ @ @ @ @ @ @ @ @ @ @ @ @ @ @ @ @ @ @ @ @ @ @ @ @ @ @ @ @ @ @ @ @ @ @ @ @ @ @ @ @ @ @ @ @ @ &.%.@ # @ @ @ @ @ @ @ @ @ @ @ @ @ @ @ @ @ @ @ @ @ @ @ @ @ @ @ @ @ @ @ @ @ @ @ @ @ @ @ @ @ @ # # @ @ @ @ #   @ @ &.&.&.&.&.&.&.&.&.&.&.&.&.&.",
"  e e 0 r 0 w w 0 0   w r r 0 0   > - ; $ @ $ $ $ $ $ % $ $ $ $ $ $ $ $ $ $ $ $ $ $ $ $ $ $ $ % $ $ $ % $ $ $ % $ $ $ % $ $ $ $ $ $ $ $ $ $ % $ $ $ $ $ $ $ $ % $ $ $ $ $ $ % $ $ $ $ % $ % $ $ $ $ $ % $ $ $ % $ $ $ % $ $ $ $ $ $ $ $ $ $ $ $ $ $ $ $ %   % $ @ @ @ @ &.&.&.&.&.&.&.&.&.&.",
"  a p p i p p p p a   s a p p t   1 : : & $ : : : : : : : : : : : : : : : : : : : : : : : : : : : : : : : : : : : : : : : : : : : : : : : : : : : : : : : : : : : : : : : : : : : : : : : : : : : : : : : : : : : : : : : : : : : : : : : : : : : : : : >   : : $ $ $ $ @ X &.&.&.&.&.&.&.&.",
"  f d h h h d d h h   f h g g h   6 1 1 : & 2 , 2 2 2 2 2 2 , 2 2 2 2 2 2 2 2 2 2 2 2 2 2 2 2 2 2 2 2 2 2 2 2 2 2 2 2 2 2 2 2 2 2 2 2 2 2 2 2 2 2 2 2 2 2 2 2 2 2 2 2 2 2 2 2 2 2 2 2 2 2 2 2 2 2 2 2 2 2 2 2 2 2 2 2 2 2 2 2 2 2 < < 2 2 2 3 2 , , 3 3 3   , 1 : : : & $ $ @ &.&.&.&.&.&.&.",
"  n b b b b b b b v   n N b b v   6 5 5 2 : 8 8 8 7 7 8 8 7 7 7 8 8 8 7 8 9 8 8 8 8 7 8 8 8 7 8 7 7 8 8 7 7 8 8 7 8 7 8 7 8 7 8 7 7 7 7 8 8 8 7 7 7 7 8 8 7 7 7 8 7 8 8 7 7 8 8 8 7 7 7 8 8 7 8 7 7 8 8 7 7 8 8 7 8 7 8 7 8 7 8 7 8 8 7 8 8 8 8 8 8 9 9 q   8 8 2 2 2 : : $ $ @ X &.&.&.&.&.",
"  M N N B B B B N N   C B V V M   9 8 5 5 , u p p p p p p u u p p u p p p i p p p u p p u p i p i p p p i u p u p p p u p p p p p p p p p p p i p u p p p i u p p p p u p p p i p u p p i p p p p p i p i p p p i p p p p p i p p t p p p i p p p p u t s   p s 8 8 8 3 < : * $ @ o &.&.&.&.",
"  D S S S S S S D J   D D S D S   e e 8 8 4 h h h g h d h h d d d g g h h h h d g h h g h d h h h d h h h h h g h h g d g h g g d g d h h h h h h h h h h h h h h h h h h h h h h d h h h h h d g h d d h h h d g g h d g h h g h h g g h h h h f h h f s   h h p p 0 8 4 2 3 * $ @ &.&.&.&.",
"  Y L L L L U L L K   F K L K K   a t r r 8 b b b b b b z v z b z z m z b b b b b b z b b b b b b z b b b b m z b b b b z b m z z b b b b b z b b b z m z b z b z z b b v b z b b b z m z b b b b z b b z b b b b z b b b b m z b b z b z z z z b b b n n   n b g h p p 0 8 2 2 * $ X &.&.&.",
"  Y I U I U U U I I   Y I I U P   j t u u r m V m B m B B B B B m m N B B m V m V m V m B B B B V m m B m V m m B m V m B m m m B m B m m m B m m B B m m V m m m V m m m m B m B m B m m B m B V m V m B m m B V m m B m V m B B B B N B m N N B m M m M   M V n b h h a r 5 2 : $ % o &.&.",
"  R R T U Q U U T W   R W T T W   c f h p i G G L L L L G L L L L L L L L U L L L L L L L L L L L L L L L L L L L L L L L L L L L L L L L L L L L L L L L L L L L L L L L L L L L L L L L L L L L L L L L L L L L L L L L L L L J J L L L L L L K K K K F   F L B B b k g p r 4 2 * $ @ X %.",
"  ! ! Q Q Q Q Q Q !   ! ! Q ! !   c l l h g T T T T T T E E U E T T T T U U Q U T T T T T T T T E T T T T T T T T T T T T T T T T T T T W W T T T T T T T T T T T T T T T T T T T T T T T T T T T T T T T T T T T T T T T T T T T T T T T U T T T T W W R   R L L S B b l p r 9 4 2 & $ O &.",
"  ( / _ ^ ^ ^ ^ _ (   ( / _ / /   n b l k k Q Q Q Q Q Q Q Q Q Q Q Q Q Q Q Q Q Q Q Q Q Q Q Q Q Q Q Q Q Q Q Q Q Q Q Q ! Q Q Q Q Q Q Q Q Q Q Q ! Q Q Q Q Q Q Q Q Q Q Q Q Q Q Q ! Q Q Q Q Q Q Q Q Q Q Q Q Q Q Q Q Q Q Q Q Q Q Q Q Q Q Q Q Q Q Q Q Q Q Q ! ! ~   ! W T L S B b l p r 4 2 & $ O %.",
"  | ' ' ] ` ] ' ] ]   | ' ] ' '   Z V b m z _ _ _ _ _ _ _ _ _ ` _ ^ ^ ` ^ ` ^ ` _ ) _ ^ _ _ _ _ _ _ _ ^ _ ^ _ ^ _ _ ^ _ _ _ _ ^ _ _ ^ _ _ ^ ^ _ _ _ ^ ^ _ _ ` ^ _ _ ^ ^ ` ^ ^ _ _ _ ^ ^ _ ` _ _ _ ^ ^ _ _ _ _ _ _ _ _ _ ^ ^ ^ ` _ _ _ _ ^ ` ` ^ _ ` ` / (   ( ! ! T L D b k p 0 4 2 & $ X &.",
"  .. .[ [ [ [ [  . .  O. .[ [  .  A S B B B ' ' ' ' ' ' ` ` ' ` ' ` ' ' ` ] ' ` ` ' ' ` ` ' ' ` ` ' ' ' ` ' ` ` ' ' ` ' ` ` ' ' ` ` ] ' ' ` ` ` ] ' ] ` ' ` ' ' ' ' ` ' ' ' ` ` ` ] ` ] ' ' ` ` ` ' ' ` ` ' ` ] ' ' ` ' ' ] ` ` ' ' ' ' ` ' ' ` ' ` ' ' |   ] / Q U L S S z k p 0 7 2 * $ O ",
"  o.O.O.} +.} } O.O.  ....O.} O.  A A D S S +.} } } } +.} +.+.} } } } } } } } } } } } } +.} } } +.{ } } } +.} } } } } +.+.} } } +.} +.{ } } } } } } } } } } } } +.{ } } } } } } +.} } } } } } +.} } } } } +.} } } } } } } } } } { } } } } } } } } } X.o.o.  ' ' ` Q T L J z k y 0 4 2 * $ O ",
"  o.X.O.} } O.+.O.O.  ..+.O.O.O.  F K K L L @.@.@.@.@.+.+.+.+.@.@.@.@.@.@.@.+.+.@.@.@.@.@.+.@.@.@.@.@.@.@.@.+.@.@.@.@.@.@.@.@.@.@.@.@.@.@.@.@.+.@.@.@.+.@.@.+.@.@.@.@.@.@.@.@.+.@.@.@.+.@.@.@.@.@.@.@.@.@.@.@.+.@.@.@.@.+.@.@.@.@.@.@.@.@.@.@.@.@.@.@.@.%.  X.] ^ Q U G S z k p 0 4 2 * $ X ",
"   . .[ [ [ [ [ [  .  .. .[ [  .  A S L L L } } } } } } } } { { } } } } } } +.{ } { +.} +.} } } } } } } } } } } } } } } } } } } } } } } +.} } } } } +.} } +.} } } } } } } } } } } } +.} } } } } } } } } } } +.} } } } } } +.} } } } +.} } { } } } } O.O.X.  | ] ^ ^ U G S z k p w 4 2 * $ X ",
"  ' ] ' ] ' ' ` ' '   ' ] ' ' ]   A D D S S ] ] ] ` ] ` ' ` ` ] ' ' ` ] ' ` ] ` ' ' ' ` ' ' ` ] ' ` ` ` ' ' ` ' ] ' ` ` ] ] ` ` ' ' ' ' ' ` ` ` ' ' ' ` ' ' ] ' ' ' ' ` ' ` ' ` ' ' ' ' ' ' ` ` ' ' ` ' ' ' ' ' ` ' ` ` ' ' ' ` ' ' ' ' ' ` ' ` ` ` ' ' |   | / Q U G A A b l i r 4 2 ; $ O ",
"  ( / _ ) _ ^ ^ _ /   ( ) ) ) (   Z V B B B ^ ^ ^ ` ^ ^ ` ^ ^ ^ ^ ` ^ ^ ^ ^ ` ^ _ _ ^ ` _ ` ^ ^ ^ ^ ` ` ^ _ ^ ` ^ ` ^ ` ^ ^ ` ^ _ ^ ^ ^ ^ ` ` ^ _ ^ ` ^ ` ^ ^ ^ _ _ ^ ^ ^ ` ` ^ _ ^ ^ ^ ^ ` ` ^ ^ ` ^ ^ ^ _ _ ^ ^ ` ` ^ ^ ^ ` ` ^ ^ ^ ^ _ ^ ` ^ ) ) ) / (   / ^ ^ U G G z l u r 4 2 * $ O %.",
"  ~ ! ! Q Q Q Q ! !   ! ! ! ! !   n v z z z Q Q Q Q ^ Q Q ^ Q Q Q Q Q ^ Q Q ^ Q Q Q Q Q Q Q Q ^ Q Q ^ Q Q Q Q Q Q Q Q ^ Q Q ^ Q Q ^ Q Q Q Q Q Q Q ^ Q Q Q ^ Q ^ Q ^ Q ^ Q Q Q ^ Q ^ Q Q Q Q Q ^ Q Q ^ Q Q ^ Q Q Q Q Q ^ Q Q Q Q Q ^ Q Q Q Q Q Q ! Q Q ! ~   ! T U G D m b l t r 4 2 * % O &.",
"  R T T T Q U T W W   R W T E E   c l k k k T T E E U E U U E U Q U U U Q U U Q U U Q U Q U U U Q U U Q U Q U U Q U U U W U U U U U T T U Q U Q T U U T U U U U U U T U T T U U U U T T U Q U U U U U T T U U T Q U U U T T Q U U U Q U Q U T T T E E E R   R G G A m b l i r 8 4 2 * $ X &.",
"  Y P U U I U I I I   Y I I I P   c l d g g G G G G G G L L L L L L L L L L L L L L L L L L L L L L L L L L L L L L L L L L L L L L L L I L L L L L L L L L J J L L L L L L L L L L L L L L L J U L L L L L I L G G G G G G G G G G G G G G G G G G A G H   G G B B z k g i 0 4 2 * $ @ X %.",
"  P H H L L L L J J   Y K K K K   j f p p p m m B B B B N N N B B B B z B N B B B B B B B B N B B B B B B B B B B B B B N N B B B B B B z B B B z B B B z B B N B B B B B B B N B B B B B B B B B B B N B N B z B m B A m z z A A z m m m A m m m m A M M   A A b b g g p 0 4 2 : $ $ X &.&.",
"  A D A S J S S S S   A S S A A   t p p r r b b b z z m b b z z b z z z b b b z z b b b z z z z b z b b b b b b b z z z b b z b z z n b z z z b z z m b z z z b z z b b b b z b z z z b z z z b z z z z m z z z b b z b z z z z z z z z b b z b z b b m n   l z h h p y r 9 2 1 & $ O &.&.&.",
"  M V m B V B B N N   V V B B B   p e r 9 9 d d h h g g h h h g h g g k h h h h h g h h h g h h h g h h h h h g g g h h h h h g g g h h h h h g h h h h h h g g g g h h h h h g g g h h h h g g g g k g g g h g g g g g g g g g g g g g g g g g g g g d d   d d p t 0 9 4 2 2 ; $ @ &.&.&.&.",
"  v v b b b n b b b   v b b b b   r 8 8 4 4 p p p p a p p p p p p p i i p p p p p p p p p a p p p p i p p p i i p p p p p p p p p i p p p p p i p p p p p p p p p p p i p p p p p p p p p p p p p p p p p y p p p p p i p i i 0 i i i i i i i i p t u s d   p p 7 9 8 2 2 : & $ @ X &.&.&.&.",
"  f d d h h h h h h   f h h h j   8 6 5 4 < 8 8 8 9 8 9 9 9 8 9 9 7 7 7 9 7 7 7 7 9 8 9 9 9 9 9 8 7 8 8 8 7 7 7 9 7 9 7 9 9 8 9 9 9 9 7 7 7 9 7 9 9 9 9 9 7 9 8 9 9 9 9 7 7 7 7 9 7 9 9 8 8 8 8 8 8 8 8 9 9 8 9 9 7 9 9 9 7 7 7 9 7 7 7 9 9 9 7 8 8 8 9 q   9 9 2 2 2 : : $ $ @ O &.&.&.&.&.",
"  a t p p p p p p s   s p p p p   6 4 2 2 : 2 2 2 < 2 2 2 2 < < 2 2 2 2 < 2 2 2 2 2 2 2 2 2 2 2 2 2 2 2 2 2 2 2 2 2 2 2 2 2 2 2 2 2 2 2 2 2 2 2 2 2 2 2 < 2 2 2 2 2 2 2 2 2 2 2 2 2 < < 2 2 2 2 2 2 3 2 2 2 < < 2 2 2 2 2 2 , , < < < 2 < 2 2 2 2 2 < < 1   < < : : : ; $ $ @ &.&.&.&.&.&.&.",
"  r e r w r w w r w   e r 0 w e   3 1 : : ; : : : : : : : : : : : : : : : : : : : : : : : : : : : : : : : : : : : : : : : : : : : : : : : : : : : : : : : : : : : : : : : : : : : : : : : : : : : : : : : : : : : : : : : : : : : : : : : : : : : : : : >   : : $ $ $ $ @ o &.&.&.&.&.&.%.&.",
"  q 8 7 9 9 9 9 8 8   q 8 8 8 8   : > ; ; $ $ $ $ $ $ $ $ $ $ $ $ $ $ $ $ $ $ $ $ $ $ $ $ $ $ $ $ $ $ $ $ $ $ $ $ $ $ $ $ $ $ $ $ $ $ $ $ $ $ $ $ $ $ $ $ $ $ $ $ $ $ $ $ $ $ $ $ $ $ $ $ $ $ $ $ $ $ $ $ $ $ $ $ $ $ $ $ $ $ $ $ $ $ $ $ $ $ $ $ $ % % $   % $ @ @ @ @ &.&.%.&.&.&.&.&.&.&.",
"  5 4 5 5 5 4 4 4 6   6 5 4 4 5   = - ; $ # @ @ @ @ @ @ @ @ @ @ @ @ @ @ @ @ @ @ @ @ @ @ @ @ @ @ @ @ @ @ @ @ @ @ @ @ @ @ @ @ @ @ @ @ @ @ @ @ @ @ @ @ @ @ @ @ @ @ @ @ @ @ @ @ @ @ @ @ @ @ @ @ @ @ # @ @ @ @ @ @ @ @ @ @ @ @ @ @ @ @ @ @ @ @ @ @ @ @ @ @ # @   # @ &.&.%.&.&.&.&.&.&.&.&.&.&.&.",
"  3 < 2 < 2 2 2 < 1   3 2 < , 1   = $ % @ . &.&.%.%.&.&.%.&.&.&.&.&.%.&.&.&.&.&.&.&.&.&.&.&.&.&.&.&.&.&.&.&.%.&.%.&.&.&.&.&.&.&.&.&.&.&.&.&.%.&.&.&.&.&.&.&.%.&.&.&.&.%.%.&.&.&.&.&.&.&.&.&.%.&.&.&.&.&.&.&.&.&.&.&.&.&.&.&.&.&.%.&.&.&.&.%.&.&.&.&.&.&.&.  &.&.&.&.&.&.&.&.&.&.&.&.&.&.&.&.",
"  > : : : : : : : :   > : : : :   $ @ @   &.&.&.&.&.  &.&.  &.&.&.&.&.&.&.&.&.&.&.&.&.&.&.&.&.&.&.&.&.&.&.&.&.&.&.&.&.&.&.&.&.&.&.&.&.&.&.&.&.&.&.&.&.&.&.&.&.&.&.&.&.&.&.&.&.&.&.&.&.&.&.&.&.&.&.&.&.&.&.&.&.&.&.&.&.&.&.&.&.&.&.&.&.  &.#.  &.&.&.&.&.&.  &.&.&.&.&.&.&.&.&.&.&.&.&.&.&.&.",
"  % $ $ $ $ $ $ $ %   % % $ $ $   @ X   &.&.&.&.&.&.    #.  &.&.&.&.&.&.&.&.&.&.&.&.&.&.&.&.&.&.&.&.&.&.&.&.&.&.&.&.&.&.&.&.&.&.&.&.&.&.&.&.&.&.&.&.&.&.&.&.&.&.&.&.&.&.&.&.&.&.&.&.&.&.&.&.&.&.&.&.&.&.&.&.&.&.&.&.&.&.&.&.&.&.&.&.&.  &.#.  &.&.&.&.&.&.  &.&.&.&.&.&.&.&.&.&.&.&.&.&.&.&.",
"  # @ @ @ @ @ @ @ @   # @ @ @ @   +   &.&.&.&.&.&.&.    #.  &.&.&.&.&.&.&.&.&.&.&.&.&.&.&.&.&.&.&.&.&.&.&.&.&.&.&.&.&.&.&.&.&.&.&.&.&.&.&.&.&.&.&.&.&.&.&.&.&.&.&.&.&.&.&.&.&.&.&.&.&.&.&.&.&.&.&.&.&.&.&.&.&.&.&.&.&.&.&.&.&.&.&.&.&.    #.  &.&.&.&.&.&.&.&.&.&.&.&.&.&.&.&.&.&.&.&.&.&.&.",
"  + X X O O o O o o   + o o + .     &.&.&.&.&.&.&.&.    &.  &.&.&.&.&.&.&.&.&.&.&.&.&.&.&.&.&.&.&.&.&.&.&.&.&.&.&.&.&.&.&.&.&.&.&.&.&.&.&.&.&.&.&.&.&.&.&.&.&.&.&.&.&.&.&.&.&.&.&.&.&.&.&.&.&.&.&.&.&.&.&.&.&.&.&.&.&.&.&.&.&.&.&.&.&.    #.  &.&.&.&.&.&.&.&.&.&.&.&.&.&.&.&.&.&.&.&.&.&.&.",
"        %.&.&.                    &.&.&.&.&.&.&.&.  &.  &.  &.&.&.&.&.&.&.&.&.&.&.&.&.&.&.&.&.&.&.&.&.&.&.&.&.&.&.&.&.&.&.&.&.&.&.&.&.&.&.&.&.&.&.&.&.&.&.&.&.&.&.&.&.&.&.&.&.&.&.&.&.&.&.&.&.&.&.&.&.&.&.&.&.&.&.&.&.&.&.&.&.&.&.&.  &.  &.  &.&.&.&.&.&.&.&.&.&.&.&.&.&.&.&.&.&.&.&.&.&.&.",
"&.&.&.&.  %.#.  &.&.&.&.&.&.&.&.&.&.&.&.&.&.&.&.&.&.&.  &.&.&.&.&.&.&.&.&.&.&.&.&.&.&.&.&.&.&.&.&.&.&.&.&.&.&.&.&.&.&.&.&.&.&.&.&.&.&.&.&.&.&.&.&.&.&.&.&.&.&.&.&.&.&.&.&.&.&.&.&.&.&.&.&.&.&.&.&.&.&.&.&.&.&.&.&.&.&.&.&.&.&.&.&.&.&.&.  &.&.&.&.&.&.&.&.&.&.&.&.&.&.&.&.&.&.&.&.&.&.&.&.&.",
"&.&.&.&.  %.#.  &.&.&.&.&.&.&.&.&.&.&.&.&.&.&.&.&.&.&.  &.&.&.&.&.&.&.&.&.&.&.&.&.&.&.&.&.&.&.&.&.&.&.&.&.&.&.&.&.&.&.&.&.&.&.&.&.&.&.&.&.&.&.&.&.&.&.&.&.&.&.&.&.&.&.&.&.&.&.&.&.&.&.&.&.&.&.&.&.&.&.&.&.&.&.&.&.&.&.&.&.&.&.&.&.&.&.&.  &.&.&.&.&.&.&.&.&.&.&.&.&.&.&.&.&.&.&.&.&.&.&.&.&.",
"&.&.&.&.  %.#.  &.&.&.&.&.&.&.&.&.&.&.&.&.&.&.&.&.&.&.  &.&.&.&.&.&.&.&.&.&.&.&.&.&.&.&.&.&.&.&.&.&.&.&.&.&.&.&.&.&.&.&.&.&.&.&.&.&.&.&.&.&.&.&.&.&.&.&.&.&.&.&.&.&.&.&.&.&.&.&.&.&.&.&.&.&.&.&.&.&.&.&.&.&.&.&.&.&.&.&.&.&.&.&.&.&.&.&.  &.&.&.&.&.&.&.&.&.&.&.&.&.&.&.&.&.&.&.&.&.&.&.&.&.",
"&.&.&.&.  &.#.  &.&.&.&.&.&.&.&.&.&.&.&.&.&.&.&.&.&.&.  &.&.&.&.&.&.&.&.&.&.&.&.&.&.&.&.&.&.&.&.&.&.&.&.&.&.&.&.&.&.&.&.&.&.&.&.&.&.&.&.&.&.&.&.&.&.&.&.&.&.&.&.&.&.&.&.&.&.&.&.&.&.&.&.&.&.&.&.&.&.&.&.&.&.&.&.&.&.&.&.&.&.&.&.&.&.&.&.  &.&.&.&.&.&.&.&.&.&.&.&.&.&.&.&.&.&.&.&.&.&.&.&.&.",
"&.&.&.&.  &.&.  &.&.&.&.&.&.&.&.&.&.&.&.&.&.&.&.&.&.&.  &.&.&.&.&.&.&.&.&.&.&.&.&.&.&.&.&.&.&.&.&.&.&.&.&.&.&.&.&.&.&.&.&.&.&.&.&.&.&.&.&.&.&.&.&.&.&.&.&.&.&.&.&.&.&.&.&.&.&.&.&.&.&.&.&.&.&.&.&.&.&.&.&.&.&.&.&.&.&.&.&.&.&.&.&.&.&.&.  &.&.&.&.&.&.&.&.&.&.&.&.&.&.&.&.&.&.&.&.&.&.&.&.&.",
"&.&.&.&.&.&.&.&.&.&.&.&.&.&.&.&.&.&.&.&.&.&.&.&.&.&.&.  &.&.&.&.&.&.&.&.&.&.&.&.&.&.&.&.&.&.&.&.&.&.&.&.&.&.&.&.&.&.&.&.&.&.&.&.&.&.&.&.&.&.&.&.&.&.&.&.&.&.&.&.&.&.&.&.&.&.&.&.&.&.&.&.&.&.&.&.&.&.&.&.&.&.&.&.&.&.&.&.&.&.&.&.&.&.&.&.  &.&.&.&.&.&.&.&.&.&.&.&.&.&.&.&.&.&.&.&.&.&.&.&.&.",
"&.&.&.&.&.&.&.&.&.&.&.&.&.&.&.&.&.&.&.&.&.&.&.&.&.&.&.  &.&.&.&.&.&.&.&.&.&.&.&.&.&.&.&.&.&.&.&.&.&.&.&.&.&.&.&.&.&.&.&.&.&.&.&.&.&.&.&.&.&.&.&.&.&.&.&.&.&.&.&.&.&.&.&.&.&.&.&.&.&.&.&.&.&.&.&.&.&.&.&.&.&.&.&.&.&.&.&.&.&.&.&.&.&.&.&.  &.&.&.&.&.&.&.&.&.&.&.&.&.&.&.&.&.&.&.&.&.&.&.&.&.",
"&.&.&.&.&.&.&.&.&.&.&.&.&.&.&.&.&.&.&.&.&.&.&.&.&.&.&.  &.&.&.&.&.&.&.&.&.&.&.&.&.&.&.&.&.&.&.&.&.&.&.&.&.&.&.&.&.&.&.&.&.&.&.&.&.&.&.&.&.&.&.&.&.&.&.&.&.&.&.&.&.&.&.&.&.&.&.&.&.&.&.&.&.&.&.&.&.&.&.&.&.&.&.&.&.&.&.&.&.&.&.&.&.&.&.&.  &.&.&.&.&.&.&.&.&.&.&.&.&.&.&.&.&.&.&.&.&.&.&.&.&.",
"&.&.&.&.&.&.&.&.&.&.&.&.&.&.&.&.&.&.&.&.&.&.&.&.&.&.&.  &.&.&.&.&.&.&.&.&.&.&.&.&.&.&.&.&.&.&.&.&.&.&.&.&.&.&.&.&.&.&.&.&.&.&.&.&.&.&.&.&.&.&.&.&.&.&.&.&.&.&.&.&.&.&.&.&.&.&.&.&.&.&.&.&.&.&.&.&.&.&.&.&.&.&.&.&.&.&.&.&.&.&.&.&.&.&.&.  &.&.&.&.&.&.&.&.&.&.&.&.&.&.&.&.&.&.&.&.&.&.&.&.&.",
"&.&.&.&.&.&.&.&.&.&.&.&.&.&.&.&.&.&.&.&.&.&.&.&.&.&.&.  &.&.&.&.&.&.&.&.&.&.&.&.&.&.&.&.&.&.&.&.&.&.&.&.&.&.&.&.&.&.&.&.&.&.&.&.&.&.&.&.&.&.&.&.&.&.&.&.&.&.&.&.&.&.&.&.&.&.&.&.&.&.&.&.&.&.&.&.&.&.&.&.&.&.&.&.&.&.&.&.&.&.&.&.&.&.&.&.  &.&.&.&.&.&.&.&.&.&.&.&.&.&.&.&.&.&.&.&.&.&.&.&.&.",
"&.&.&.&.&.&.&.&.&.&.&.&.&.&.&.&.&.&.&.&.&.&.&.&.&.&.&.  &.&.&.&.&.&.&.&.&.&.&.&.&.&.&.&.&.&.&.&.&.&.&.&.&.&.&.&.&.&.&.&.&.&.&.&.&.&.&.&.&.&.&.&.&.&.&.&.&.&.&.&.&.&.&.&.&.&.&.&.&.&.&.&.&.&.&.&.&.&.&.&.&.&.&.&.&.&.&.&.&.&.&.&.&.&.&.&.  &.&.&.&.&.&.&.&.&.&.&.&.&.&.&.&.&.&.&.&.&.&.&.&.&.",
"&.&.&.&.&.&.&.&.&.&.&.&.&.&.&.&.&.&.&.&.&.&.&.&.&.&.&.                                                                                                                                                                                    &.&.&.&.&.&.&.&.&.&.&.&.&.&.&.&.&.&.&.&.&.&.&.&.&."
};
