/* XPM */
static char *HeatX_HeatX_J21_HS1[] = {
/* columns rows colors chars-per-pixel */
"148 60 95 2",
"   c #000100",
".  c #272725",
"X  c #272822",
"o  c #282723",
"O  c #282823",
"+  c gray16",
"@  c #3B3B36",
"#  c #3B3B39",
"$  c #4A4A43",
"%  c #4A4A48",
"&  c #58584E",
"*  c #565752",
"=  c #575850",
"-  c #595951",
";  c #64655C",
":  c #66685D",
">  c #656560",
",  c #707165",
"<  c #707169",
"1  c #7B7C6E",
"2  c #7C7C70",
"3  c #85867A",
"4  c #858877",
"5  c #87887A",
"6  c #888679",
"7  c #8D8E7E",
"8  c #8D8E81",
"9  c #8F9081",
"0  c #909084",
"q  c #97978C",
"w  c #979886",
"e  c #969889",
"r  c #989989",
"t  c #979890",
"y  c #9F9F94",
"u  c #9EA08E",
"i  c #9EA092",
"p  c #A19F91",
"a  c #A0A18F",
"s  c #A0A193",
"d  c #A7AA99",
"f  c #A8A996",
"g  c #A9AA98",
"h  c #B1B29E",
"j  c #AFB1A2",
"k  c #B1B1A0",
"l  c #B7B8A6",
"z  c #B6B8AA",
"x  c #B8B9A6",
"c  c #B8B9AB",
"v  c #BFC1B4",
"b  c #C0BEAD",
"n  c #C1C1AD",
"m  c #C0C0B3",
"M  c #C6C6BA",
"N  c #C7C8B4",
"B  c #C7C8B9",
"V  c #C8C6B4",
"C  c #C9C7B9",
"Z  c #C9C8B4",
"A  c #CCCCBC",
"S  c #CED0BB",
"D  c #D0CEBB",
"F  c #D1D0BC",
"G  c #CDCEC1",
"H  c #CFD0C2",
"J  c #D0CEC0",
"K  c #D6D5C1",
"L  c #D5D5C8",
"P  c #D8D6C2",
"I  c #DCDBC6",
"U  c #DCDBCA",
"Y  c #DCDCD0",
"T  c #E6E6D3",
"R  c #E6E6D9",
"E  c #E7E8D5",
"W  c #E7E8D8",
"Q  c #E8E6D2",
"!  c #E8E6D9",
"~  c #EBEBD3",
"^  c #EDECD8",
"/  c #F4F3DD",
"(  c #F8F8DE",
")  c #ECECE0",
"_  c #F2F2E2",
"`  c #F6F6EC",
"'  c #F6F8E3",
"]  c #F6F8E9",
"[  c #F8F7E3",
"{  c #F9F7E8",
"}  c #F9F8E1",
"|  c #F5F6F3",
" . c #F7F8F0",
".. c #FCFDF4",
"X. c #FEFEFE",
/* pixels */
"X.X.X.X.X.X.X.X.X.X.X.X.X.X.X.X.X.X.X.X.X.X.X.X.X.X.X.X.X.                                                                                                                                                                                    X.X.X.X.X.X.X.X.X.X.X.X.X.X.X.X.X.X.X.X.X.X.X.X.X.X.X.X.X.",
"X.X.X.X.X.X.X.X.X.X.X.X.X.X.X.X.X.X.X.X.X.X.X.X.X.X.X.X.X.  X.X.X.X.X.X.X.X.X.X.X.X.X.X.X.X.X.X.X.X.X.X.X.X.X.X.X.X.X.X.X.X.X.X.X.X.X.X.X.X.X.X.X.X.X.X.X.X.X.X.X.X.X.X.X.X.X.X.X.X.X.X.X.X.X.X.X.X.X.X.X.X.X.X.X.X.X.X.X.X.X.X.X.X.X.X.X.X.  X.X.X.X.X.X.X.X.X.X.X.X.X.X.X.X.X.X.X.X.X.X.X.X.X.X.X.X.X.",
"X.X.X.X.X.X.X.X.X...X.X.X.X.X.X.X.X.X.X.X.X.X.X.X.X.X.X.X.  X.X.X.X.X.X.X.X.X.X.X.X.X.X.X.X.X.X.X.X.X.X.X.X.X.X.X.X.X.X.X.X.X.X.X.X.X.X.X.X.X.X.X.X.X.X.X.X.X.X.X.X.X.X.X.X.X.X.X.X.X.X.X.X.X.X.X.X.X.X.X.X.X.X.X.X.X.X.X.X.X.X.X.X.X.X.X.X.  X.X.X.X.X.X.X.X.X.X.X.X.X.X.X.X.X.X.X.X.X.X.X.X.X.X.X.X.X.",
"X.X.X.X.X.X.X.X.X.X.X.X.X.X.X.X.X.X.X.X.X.X.X.X.X.X.X.X.X.  X.X.X.X.X.X.X.X.X.X.X.X.X.X.X.X.X.X.X.X.X.X.X.X.X.X.X.X.X.X.X.X.X.X.X.X.X.X.X.X.X.X.X.X.X.X.X.X.X.X.X.X.X.X.X.X.X.X.X.X.X.X.X.X.X.X.X.X.X.X.X.X.X.X.X.X.X.X.X.X.X.X.X.X.X.X.X.X.  X.X.X.X.X.X.X.X.X.X.X.X.X.X.X.X.X.X.X.X.X.X.X.X.X.X.X.X.X.",
"X.X.X.X.X.X.X.X.X.X.X.X.X.X.X.X.X.X.X.X.X.X.X.X.X.X.X.X.X.  X.X.X.X.X.X.X.X.X.X.X.X.X.X.X.X.X.X.X.X.X.X.X.X.X.X.X.X.X.X.X.X.X.X.X.X.X.X.X.X.X.X.X.X.X.X.X.X.X.X.X.X.X.X.X.X.X.X.X.X.X.X.X.X.X.X.X.X.X.X.X.X.X.X.X.X.X.X.X.X.X.X.X.X.X.X.X.X.  X.X.X.X.X.X.X.X.X.X.X.X.X.X.X.X.X.X.X.X.X.X.X.X.X.X.X.X.X.",
"X.X.X.X.X.X.X.X.X.X.X.X.X.X.X.X.X.X.X.X.X.X.X.X.X.X.X.X.X.  X.X.X.X.X.X.X.X.X.X.X.X.X.X.X.X.X.X.X.X.X.X.X.X.X.X.X.X.X.X.X.X.X.X.X.X.X.X.X.X.X.X.X.X.X.X.X.X.X.X.X.X.X.X.X.X.X.X.X.X.X.X.X.X.X.X.X.X.X.X.X.X.X.X.X.X.X.X.X.X.X.X.X.X.X.X.X.X.  X.X.X.X.X.X.X.X.X.X.X.X.X.X.X.X.X.X.X.X.X.X.X.X.X.X.X.X.X.",
"X.X.X.X.X.X...X.X.X.X.X.X.X.X.X.X.X.X.X.X.X.X.X.X.X.X.X.X.  X.X.X.X.X.X.X.X.X.X.X.X.X.X.X.X.X.X.X.X.X.X.X.X.X.X.X.X.X.X.X.X.X.X.X.X.X.X.X.X.X.X.X.X.X.X.X.X.X.X.X.X.X.X.X.X.X.X.X.X.X.X.X.X.X.X.X.X.X.X.X.X.X.X.X.X.X.X.X.X.X.X.X.X.X.X.X.X.  X.X.X.X.X.X.X.X.X.X.X.X.X.X.X.X.X.X.X.X.X.X.X.X.X.X.X.X.X.",
"X.X.X.  ` ..`   X.X.X.X.X.X.X.X.X.X.X.X.X.X.X.X.X.  X.X.X.  X.X.X.X.X.X.X.X.X.X.X.X.X.X.X.X.X.X.X.X.X.X.X.X.X.X.X.X.X.X.X.X.X.X.X.X.X.X.X.X.X.X.X.X.X.X.X.X.X.X.X.X.X.X.X.X.X.X.X.X.X.X.X.X.X.X.X.X.X.X.X.X.X.X.X.X.X.X.X.X.X.X.X.X.  X.X.X.  X.X.X.X.X.X.X.X.X.X.X.X.X.X.X.X.X.X.X.X.X.X.X.X.X.X.X.X.X.",
"X.X.X.X.  ..`   X.X.X.X.X.X.X.X.X.X.X.X.X.X.X.X.X.X.  X.X.  X.X.  X.X.X.X.X.X.X.X.X.X.X.X.X.X.X.X.X.X.X.X.X.X.X.X.X.X.X.X.X.X.X.X.X.X.X.X.X.X.X.X.X.X.X.X.X.X.X.X.X.X.X.X.X.X.X.X.X.X.X.X.X.X.X.X.X.X.X.X.X.X.X.X.X.X.X.X.X.X.X.X.X.X.  X.X.  X.X.  X.X.X.X.X.X.X.X.X.X.X.X.X.X.X.X.X.X.X.X.X.X.X.X.X.X.",
"X.X.X.X.  ..`   X.X.X.X.X.X.X.X.X.X.X.X.X.X.X.X.X.X.  X.X.  X.X.  X.X.X.X.X.X.X.X.X.X.X.X.X.X.X.X.X.X.X.X.X.X.X.X.X.X.X.X.X.X.X.X.X.X.X.X.X.X.X.X.X.X.X.X.X.X.X.X.X.X.X.X.X.X.X.X.X.X.X.X.X.X.X.X.X.X.X.X.X.X.X.X.X.X.X.X.X.X.X.X.X.X.  X.X.  X.X.  X.X.X.X.X.X.X.X.X.X.X.X.X.X.X.X.X.X.X.X.X.X.X.X.X.X.",
"X.X.X.X.  .. .  X.X.X.X.X.X.X.X.X.X.X.X.X.X.X.X.X.X.X.  X.  X.  X.X.X.X.X.X.X.X.X.X.X.X.X.X.X.X.X.X.X.X.X.X.X.X.X.X.X.X.X.X.X.X.X.X.X.X.X.X.X.X.X.X.X.X.X.X.X.X.X.X.X.X.X.X.X.X.X.X.X.X.X.X.X.X.X.X.X.X.X.X.X.X.X.X.X.X.X.X.X.X.X.X.X.X.  X.  X.  X.X.X.X.X.X.X.X.X.X.X.X.X.X.X.X.X.X.X.X.X.X.X.X.X.X.X.",
"X.X.X.X.  ..`   X.X.X.X.X.X.X.X.X.X.X.X.X.X.X.X.X.X.X.  X.  X.  X.X.X.X.X.X.X.X.X.X.X.X.X.X.X.X.X.X.X.X.X.X.X.X.X.X.X.X.X.X.X.X.X.X.X.X.X.X.X.X.X.X.X.X.X.X.X.X.X.X.X.X.X.X.X.X.X.X.X.X.X.X.X.X.X.X.X.X.X.X.X.X.X.X.X.X.X.X.X.X.X.X.X.X.  X.  X.  X.X.X.X.X.X.X.X.X.X.X.X.X.X.X.X.X.X.X.X.X.X.X.X.X.X.X.",
"        X.....                    X.X.X.X.X.X.X.X.X.            X.X.X.X.X.X.X.X.X.X.X.X.X.X.X.X.X.X.X.X.X.X.X.X.X.X.X.X.X.X.X.X.X.X.X.X.X.X.X.X.X.X.X.X.X.X.X.X.X.X.X.X.X.X.X.X.X.X.X.X.X.X.X.X.X.X.X.X.X.X.X.X.X.X.X.X.X.X.X.X.X.X.X.            X.X.X.X.X.X.X.X.X.X.                                  ",
"  # @ @ @ @ @ @ @ @ #   # @ @ @     X.X.X.X.X.X.X.X.X.X.      X.X.X.X.X.X.X.X.X.X.X.X.X.X.X.X.X.X.X.X.X.X.X.X.X.X.X.X.X.X.X.X.X.X.X.X.X.X.X.X.X.X.X.X.X.X.X.X.X.X.X.X.X.X.X.X.X.X.X.X.X.X.X.X.X.X.X.X.X.X.X.X.X.X.X.X.X.X.X.X.X.X.X.X.X.X.      X.X.X.X.X.X.X.X.X.X.    # @ # @   # # @ @ @ @ @ @ @ @   ",
"  % % % $ $ $ $ $ $ %   % $ % %   #   X.X.X.X.X.X.X.X.X.      X.X.X.X.X.X.X.X.X.X.X.X.X.X.X.X.X.X.X.X.X.X.X.X.X.X.X.X.X.X.X.X.X.X.X.X.X.X.X.X.X.X.X.X.X.X.X.X.X.X.X.X.X.X.X.X.X.X.X.X.X.X.X.X.X.X.X.X.X.X.X.X.X.X.X.X.X.X.X.X.X.X.X.X.X.X.      X.X.X.X.X.X.X.X.X.  #   % % $ $   $ $ % $ % $ $ $ % %   ",
"  ; ; ; ; ; ; ; ; ; ;   ; ; ; ;   # #   X.X.X.X.X.X.X.X.  |   X.X.X.X.X.X.X.X.X.X.X.X.X.X.X.X.X.X.X.X.X.X.X.X.X.X.X.X.X.X.X.X.X.X.X.X.X.X.X.X.X.X.X.X.X.X.X.X.X.X.X.X.X.X.X.X.X.X.X.X.X.X.X.X.X.X.X.X.X.X.X.X.X.X.X.X.X.X.X.X.X.X.X.X.X.X.  |   X.X.X.X.X.X.X.X.  # #   ; ; ; ;   ; ; ; ; ; ; ; ; ; ;   ",
"  < < < , , , , < < <   < < < <   % # #   X.X.X.X.X.X.X.  `   X.X.X.X.X.X.X...X.X.X.X...X.X.X.X.X...X.X.X.X.X.X.X.X.X.X...X.X.X.X.X.X.X.X.X.X...X.X.X.X.X.X...X.X.X.X...X.X.X.X.X.X.X.X.X.X...X...X.X.X.X.X.X.X.X...X.X.X.X.X.X.X.X.X...X.  |   X.X.X.X.X.X.X.  # # %   < < < <   < < , , , < , < < <   ",
"  2 2 2 1 1 1 1 2 2 2   2 2 2 2   * $ $ @ O o o o o O O X.X.  X O o o o o o o o o o o o O O o o o o o o o o o o o o o o o o o o o o o o o o o o o o o o o o o o o o o o o o o o o o o o o o o o o o o o o o o o o o o o o o o O X X X X o X.X.o o o X o o o   @ $ % &   2 1 2 2   2 2 2 1 1 2 2 2 2 2   ",
"  8 3 3 3 3 5 5 3 3 3   3 8 3 3   ; - - $ $ % $ $ $ $ $ $ $ % $ $ $ $ $ $ $ $ $ $ $ $ $ $ $ $ $ $ $ $ $ $ $ $ $ $ $ $ $ $ $ $ $ $ $ $ $ $ $ $ $ $ $ $ $ $ $ $ $ $ $ $ $ $ $ $ $ $ $ $ $ $ $ $ $ $ $ $ $ $ $ $ $ $ $ $ $ $ $ $ $ $ $ $ $ $ $ $ $ $ $ $ $ $ $ @ % * * ;   3 8 3 3   3 3 3 5 4 5 5 3 3 8   ",
"  0 7 0 7 7 7 0 8 8 0   8 8 0 0   < ; ; & & - & & & - & & & & & & & & & & & & & & & & & & & & & & & & & & & & & & & & & & & & & & & & & & & & & & & & & & & & & & & & & & & & & & & & - & & & & & & & & & & & - & & & & & & & & & & - & - & & - & & & & - - $ - ; ; <   0 8 8 8   8 7 7 7 0 7 0 8 8 0   ",
"  t t r r r r w q r q   q q q y   < , , ; , , , , , , , , , , , , , , , , , , , , , , , , , , , , , , , , , , , , , , , , , , , , , , , , , , , , , , , , , , , , , , , , , , , , , , , , , , , , , , , , , , , , , , , , , , , , , < , , , , , , , , , , < & ; , < <   q r t t   t r r r r r r q r q   ",
"  y y y a i i i y y s   i i i s   2 1 < , 1 2 2 1 1 1 1 1 1 1 1 2 1 1 1 1 1 1 1 1 1 1 1 1 1 1 1 1 1 1 1 1 1 1 1 1 1 1 1 1 1 1 4 1 1 1 1 1 1 1 1 1 1 1 1 1 1 1 1 1 1 1 1 1 1 1 1 1 1 1 1 4 1 1 1 1 1 1 1 1 1 1 1 1 1 1 1 2 1 1 1 1 1 1 1 2 1 1 1 1 1 2 2 2 1 ; , , 2 2   i y p i   i i i u i u i i y i   ",
"  j k k k k k k k k z   k k j k   5 5 2 1 9 7 9 0 7 0 7 7 7 0 8 9 9 9 9 0 9 0 0 0 7 0 0 7 7 0 7 7 0 7 0 0 7 0 7 7 0 7 7 7 7 7 0 7 8 0 0 7 0 0 7 0 7 7 0 0 7 0 7 7 8 0 0 7 0 7 7 9 7 0 7 7 7 7 7 8 0 0 7 9 7 7 0 0 7 7 0 7 7 7 7 0 7 7 7 0 7 0 9 8 8 0 7 8 8 , 1 2 3 8   z k k k   z j h h h h h k z j   ",
"  c c x x x x x x c c   c c c c   q 9 5 4 e e e r r r r r r r w r r r r w r r r w r w r r r w r r r r w r r w r r r w w r r r r r r r w r r r w r r w r r w r r r r r r w r r w r r w r r w r r w r r w r r w r w r r w r r r w w w r r r r w r r r r r r r 1 6 3 8 t   c c c z   c z z l c c x x c c   ",
"  M m n n n n n n b m   m m m m   i r r 7 g g f g g f g g g f g f f g g f g g g g g f g f f f f f f g g g g g g f f f f g g f g f g g g f f g g g g g g f f f f f g g g f g g g g f h f g g f g g g g g g g g g f f f f f f g g f g f f g f f f f g g g g g 3 7 r r s   M v v m   v m m n n n n b n v   ",
"  M C Z Z Z N N Z Z B   B Z B M   i i u r h h h k k k k h h k k h h h h h h h h h h h h h h h h k k h h h h k k h h h h h h h h k h k k h h h h h h h h h h h h k h k k h h h h h h h h h h h h h k h k h h k k h h h h h h h h h h h h h h h h k h h h k k r e s y i   B C B M   B Z Z Z Z N Z Z C A   ",
"  G H A S S S S A S H   H S H H   g d u a n n n n n n n n n b b n n n n n n n n n n n n n n n n b n n n n n n n n n n n n n n n n n n n n n n n n n V b n n n n n n n n n n n n n n b n n n n n n n n n n n n n n n n n V n n n b b V b b b n n b n n n n b s a i g g   A S H G   H S F F S D D A F J   ",
"  L P P P P P P P P L   L L P L   z h h g Z Z D Z Z Z Z Z Z Z Z Z Z Z D Z Z Z Z Z Z Z Z Z Z Z D Z Z Z Z Z Z Z Z Z Z Z D Z Z Z Z Z Z Z Z Z Z Z D Z Z Z Z Z Z Z Z Z Z Z Z Z Z Z D Z Z Z Z Z Z Z D Z Z Z Z Z Z Z Z Z Z Z Z Z Z Z Z Z Z Z Z Z Z Z D Z Z Z Z Z Z g g g k l   L L P L   L P P I F I F F I P   ",
"  Y I I I I I I I I Y   U I U Y   c c h h F I F F I F F P P P P F F F F F P P F P P P F F F I F F F F F P P P K F F I F F I F F P P P P P F F F P P F I F I F I P P P P P F F F P F F F I F F F F F F F P P P K F P P P P P P F I F I F F P P F F I F F P P h h h x c   Y U U Y   Y I I F I I I I I Y   ",
"  ! Q Q Q Q Q Q Q Q R   R W ! !   v v x h I I I I I I I I I I I I I Q I I I I I I I I I I I I I I I Q I I I I I I I I I I I I I I I I I I I I I I I I I I I I I I I I I I I I I I I I I I I I I I I Q I I I I I I I I I I I I I I I I I I I I I I I I I I I x b l v m   E Q Q W   W Q ~ Q Q ~ ~ ! T R   ",
"  _ ^ ~ ^ ~ ~ ~ ^ ^ )   ^ ^ ^ ^   v b n n ~ Q ~ ~ ~ ~ ~ Q Q Q Q Q Q Q Q ~ ~ ~ Q Q ~ ~ ~ ~ ~ Q ~ ~ ~ ~ Q Q Q Q Q ~ ~ Q ~ ~ ~ Q Q Q ~ Q Q ~ ~ Q ~ Q Q Q ~ Q ~ Q ~ Q ~ Q Q ~ ~ Q Q ~ ~ Q Q ~ ~ ~ Q ~ ~ ~ Q Q Q Q Q ~ ~ Q Q ~ Q Q Q ~ ~ ~ ~ ~ ~ Q ~ ~ ~ Q ~ Q ~ b b n v v   W ^ ^ ^   ^ ^ ^ ~ / ^ ~ ^ ^ ^   ",
"  _ ( / / / / ( / _ _   _ _ _ _   A N N Z ^ ~ / ~ ~ ~ ^ ~ ^ ^ ^ / ~ ^ ~ / ~ ~ ^ ~ ^ ^ ^ ~ ~ ^ ~ / ~ ^ ~ ~ ^ ^ ^ ~ ~ ^ ~ / ~ ^ / ~ ~ ~ ^ ^ ~ ~ ^ ~ ^ ^ ~ ~ ~ ^ ~ ~ ~ ~ ^ ^ ~ ^ ^ ^ ~ ^ ^ / ~ ~ ^ / ~ ^ ^ ~ ~ ^ ^ ~ ~ ~ / ~ ~ ^ ^ ~ ~ ^ ~ ~ ^ ~ ^ ~ ^ ^ ^ ^ ^ Z Z Z N B   _ ' _ '   _ / / / ( / / / / `   ",
"  ` { ( ( ( ( ( ( ( `   ] ' { {   H F S S } } } } } } } } ( } } } } } } ( } } } } } ( } } } } } } } } ( } } } } } } } } ( ( ( } } } ( ( } } ( ( } } ( ( { ( ( ( } } ( ( { ( ( ( { ( ( ( } ( ( ( ( ( } ( } } } } ( } } } } } } } } ( ' ( } } } } } ( ( } } } F S D D G   { { [ ]   { [ ( ( ( } } } } `   ",
"  { { ( ( ( ( ( ( ( `   ' ' ' {   L P P P { } } } } } } ( ( } } } } } } ( ( } } } } ( ( } } } } } } } } } } } ( ( } } } ( ( } } } } { ( } ( ( ( } } { ( ( ( ( ( } } ( ( } ( ( ( ( ( ( ( } ( ( ( ( ( } ( } } } } } ( } } } } ( ( ( ( } } } ( } } } ( ( ( } } I F P P L   { ] ] ]   { ( ( ( ( } } } }  .  ",
"  ` ( / / / / / [ [ _   _ _ [ _   H A S S ^ ^ ~ ^ ~ ^ ^ ~ ~ ~ ~ ~ ~ ^ ^ ~ ~ ~ / / ~ ~ ~ ^ ~ ^ ^ ~ ~ ^ / ^ ~ ^ ~ ^ ~ ^ ^ ~ ~ / ~ / ~ ~ ~ / ~ ~ / / ~ ~ ~ / ~ ~ ~ / ~ ~ ~ / ~ ~ ^ ^ ^ ^ ^ ^ ^ ^ ^ ^ ~ ^ ~ ^ ~ ^ ^ ~ ^ ~ ~ ^ ~ ^ ~ ^ ^ ^ ^ ~ ~ ^ ~ / ~ / ~ ~ ~ D D A S L   _ _ _ _   _ _ / / / / ( ( / _   ",
"  ^ ^ ~ / ~ ~ ~ ~ ^ ^   ^ ^ ^ ^   B N N Z Q ~ Q ~ Q Q ~ Q ~ ~ ~ ~ Q ~ ~ Q ~ ~ ~ Q Q ~ ~ ~ Q Q ~ Q Q ~ ~ ~ Q ~ Q ~ Q Q ~ Q Q Q ~ Q ~ Q Q Q ~ ~ ~ Q ~ Q Q Q ~ Q Q Q ~ Q Q Q ~ ~ ~ Q ~ Q Q Q ~ ~ ~ ~ Q ~ Q ~ ~ Q Q Q Q ~ ~ ~ Q ~ Q ~ ~ Q Q Q Q ~ Q Q Q Q Q ~ ~ Z Z V Z C   ^ ^ ^ ^   / ^ ~ / ~ ~ ~ ^ ^ ^   ",
"  R ! Q Q Q ~ Q Q Q R   R E R R   m m v b I I I I I I I I I Q I I I I I I I I I I I I I I Q I I I I I I I I I I I I Q I I I I I I I I I I I I I I I I I I I I I I I I I I I I I I I I I I I I I I I I I I I I I Q I I Q I I I I I I I I I I I I I I I I I I n n b b m   ! ! ! !   W Q ~ Q Q ~ ~ Q W !   ",
"  Y I I I I I Q I I Y   Y U Y U   v N l x P P P P P F F F I F F F F I F F F F F F I F F F F F F P P F F P F P P F F F F F F I F F F F I F F I F F F F I P P P P F F F I P F P P F F F I P P F P F I F F F F F I F F F F F F P P F F I F I F I F I F I F P P x x x b m   U U U Y   U I I I I I I I I Y   ",
"  L P P K F F F L P L   P L P L   c x h h N N Z Z Z Z Z D Z Z Z D Z Z Z D D Z Z D Z Z Z Z Z D Z Z Z Z Z Z Z Z Z D Z Z Z D Z Z Z Z Z D Z Z Z Z Z Z Z D Z Z Z Z Z Z Z D Z Z Z Z Z Z Z D Z Z Z Z Z D Z Z Z Z Z D Z Z Z Z Z D Z Z Z S Z Z Z N Z Z Z Z Z Z Z Z Z h k j c c   L L L L   U P L F F I F P P L   ",
"  J J D A S F F D S G   G H J G   k k f g n n b b n n n n n n n n n n n n n n n n n n n n n n n n n n n n n n n n n n n n n n n n n n n n n n n n n n n b b b b n n n n n n n n n n n n n n b b n n n n n n n n n n n n n n n n n n n n n n n n n n n n b b g g g z j   G G J J   H S S F S F F D D G   ",
"  C V V Z Z Z Z Z Z M   C N A B   j d u u k h h k h h k h k h k h h h k h h h k h h h h l h h k k k h k h h k k h h h k h h k h h h h h h h h h k h k h k k k k h h k k h h k h h h h h h h h l h h h h h h k k h h h k h h h h l h h h h h h h h h l h h k p p i g j   M M G M   M C Z Z Z N Z N N A   ",
"  b b b n n n b b m m   m m m v   i i i w d f g g g g g g g g g g g g g g g g g f f g g f f g g g g g g g g g g f g g f g f g f f f f f g g g g g g g g g f f f g g g g g g g g g g g g f f f g f g f h f f g g g g g g g g g g f g g g f g g g f f f f g g r w i p y   b m b b   m m b b V n n b m v   ",
"  c c b x x x x x c c   c c c c   y e e 7 r e r r r w r r r r r r r r w r r r r u w r r r r r r r r r r r r r r r r r r r r w r r r r r r r r r r r r r r r r r u r r r r r r r r r r r r r r r r r r r r r r w r r r r r r r r r r r r w r u w w u u w r r 6 8 e e i   c c c c   c z l x x x x x c c   ",
"  z l h h h k h k k k   z j j j   q 7 4 5 7 9 7 8 8 8 8 8 8 8 8 8 7 8 8 8 8 8 8 7 7 7 7 9 7 7 9 8 8 8 8 8 8 8 8 9 9 7 7 0 7 0 7 7 7 7 0 7 7 0 0 7 7 7 7 9 9 7 9 8 8 8 8 9 9 9 9 8 8 8 8 7 7 0 7 9 9 7 9 8 8 8 8 7 9 7 9 8 7 8 7 9 7 7 7 7 7 7 7 7 7 6 7 8 8 2 6 7 0 t   j j z j   k k k h k k h k j j   ",
"  i i s p p p p y y s   p p p p   8 3 1 1 1 1 1 1 1 1 2 1 1 1 1 1 1 1 1 1 2 2 1 1 1 1 1 1 1 1 1 1 1 1 1 1 2 1 2 1 1 1 1 1 1 1 1 1 1 1 1 1 1 1 1 1 1 1 1 1 1 1 1 1 2 2 2 2 2 2 2 1 1 1 1 1 1 1 1 1 2 1 1 1 1 1 1 1 1 1 1 2 1 1 1 2 1 2 1 1 1 1 1 1 1 2 2 2 2 , 1 1 3 3   i i y y   s s s i i i i i y y   ",
"  t q r r r r r q y t   t q q t   2 2 < , , , , , , , , , , < , , , , , , , , , , , , , , , , , , , , , , , , , , , , , , , , , , , , , , , < < , , , , , , , , , , , , , , , , , , , , , , , , , , , , , , , , , , , , , , , , , , , , , , , , , , , , , , ; , , 2 2   y q q t   r r r e e r r r r q   ",
"  8 0 0 7 7 8 7 7 8 0   8 8 0 8   < < , ; & & & & & & & & & & & & & - - & & & & - & & & & & & & & & & & & & & & & & & & & & & & & & & & & & - & & & & & & & & & & & & & & & & & & & & & & & & & & & & & & & & & & & & - & & & - & & & & & & & & & & - & & & - ; < , <   0 8 0 0   8 9 9 9 8 7 7 0 7 8   ",
"  8 5 5 6 3 3 3 3 3 3   3 3 3 8   < ; ; & $ $ $ $ $ $ $ $ $ $ $ $ $ $ $ $ $ $ $ $ $ $ $ $ $ $ % $ $ $ $ $ $ $ $ $ $ $ % $ $ $ $ $ $ $ $ $ $ $ $ $ $ $ $ $ $ $ $ $ $ $ $ $ $ $ $ $ $ $ $ $ $ % $ $ $ $ $ $ $ $ % $ $ $ $ $ $ $ $ $ $ $ $ $ $ $ $ $ $ $ $ $ $ $ & ; ; <   2 8 5 5   3 5 5 5 4 5 4 5 6 8   ",
"  2 2 2 2 2 2 1 2 2 2   2 2 2 2   ; - - % O O O o o o o o o o o O O o o o o o o o o o o o o o o o o o o o o o o o o o o o o o o o o O O o o o o o X X o X X o o o o o o o O X o o o o o o o o o o o o o o o o o o o o o o o O X o o o o o o o o o O X X X o @ $ - - ;   2 2 2 2   2 1 2 1 1 1 2 2 2 2   ",
"  < < < < < , , , , <   < < < <   - % % # + X.X.X.X.X.X.X.X.X.X.X.X.X.X.X.X.X.X.X.X.X.X.X.X.X.X.X.X.X.X.X.X.X.X.X.X.X.X.X.X.X.X.X.X.X.X.X.X.X.X.X...X.X.X.X.X.X.X.X.X.X.X.X.X.X.X.X.X.X.X.X.X.X.X.X.X.X.X.X.X.X.X.X.X.X.X.X.X.X.X.X.X.X.X.X.X.X.X.X.X.X.X.X.  @ $ % -   < < < ,   < < < , , , , < < <   ",
"  > > ; ; ; ; ; ; ; ;   > ; ; ;   % # #   X.X.X.X.X.X.X.X.X.X.X.X.X.X.X.X.X.X.X.X.X.X.X.X.X.X.X.X.X.X.X.X.X.X.X.X.X.X.X.X.X.X.X.X.X.X.X.X.X.X.X.X.  X. .  X.X.X.X.X.X.X.X.X.X.X.X.X.X.X.X.X.X.X.X.X.X.X.X.X.X.X.X.X.X.X.X.X.X.X.X.X.X.X.X.X.X.X.X.X.X.X.X.X.X.  # @ %   ; ; ; ;   ; ; ; ; ; : : ; ; ;   ",
"  % % % $ $ $ $ $ $ %   % $ % $   # #   X.X.X.X.X.X.X.X.X.X.X.X.X.X.X.X.X.X.X.X.X.X.X.X.X.X.X.X.X.X.X.X.X.X.X.X.X.X.X.X.X.X.X.X.X.X.X.X.X.X.X.X.X.  X. .  X.X.X.X.X.X.X.X.X.X.X.X.X.X.X.X.X.X.X.X.X.X.X.X.X.X.X.X.X.X.X.X.X.X.X.X.X.X.X.X.X.X.X.X.X.X.X.X.X.X.X.  # #   % $ $ $   $ $ $ $ $ $ $ $ $ $   ",
"  @ @ @ @ @ @ @ @ @ #   @ # # #   #   X.X.X.X.X.X.X.X.X.X.X.X.X.X.X.X.X.X.X.X.X.X.X.X.X.X.X.X.X.X.X.X.X.X.X.X.X.X.X.X.X.X.X.X.X.X.X.X.X.X.X.X.X.X.  X.|   X.X.X.X.X.X.X.X.X.X.X.X.X.X.X.X.X.X.X.X.X.X.X.X.X.X.X.X.X.X.X.X.X.X.X.X.X.X.X.X.X.X.X.X.X.X.X.X.X.X.X.X.  #   @ # @ #   # @ @ @ @ @ @ @ # #   ",
"  O . . X X O o X X +   O . . +     X.X.X.X.X.X.X.X.X.X.X.X.X.X.X.X.X.X.X.X.X.X.X.X.X.X.X.X.X.X.X.X.X.X.X.X.X.X.X.X.X.X.X.X.X.X.X.X.X.X.X.X.X.X.X.  X. .  X.X.X.X.X.X.X.X.X.X.X.X.X.X.X.X.X.X.X.X.X.X.X.X.X.X.X.X.X.X.X.X.X.X.X.X.X.X.X.X.X.X.X.X.X.X.X.X.X.X.X.X.X.    + O . O   + . X o X . O o o O   ",
"                                  X.X.X.X.X.X.X.X.X.X.X.X.X.X.X.X.X.X.X.X.X.X.X.X.X.X.X.X.X.X.X.X.X.X.X.X.X.X.X.X.X.X.X.X.X.X.X.X.X.X.X.X.X.X.X.  X.X.X.  X.X.X.X.X.X.X.X.X.X.X.X.X.X.X.X.X.X.X.X.X.X.X.X.X.X.X.X.X.X.X.X.X.X.X.X.X.X.X.X.X.X.X.X.X.X.X.X.X.X.X.X.X.X.                  X.X...          ",
"X.X.X.X.X.X.X.X.X.X.X.X.X.X.X.X.X.X.X.X.X.X.X.X.X.X.X.X.X.X.X.X.X.X.X.X.X.X.X.X.X.X.X.X.X.X.X.X.X.X.X.X.X.X.X.X.X.X.X.X.X.X.X.X.X.X.X.X.X.X.X.X.X.X.X.X.X.X.X.X.X.X.X.X.X.X.X.X.X.X.X.X.X.X.X.X.X.X.X.X.X.X.X.X.X.X.X.X.X.X.X.X.X.X.X.X.X.X.X.X.X.X.X.X.X.X.X.X.X.X.X.X.X.X.X.X.X.X.X.X.  .. .  X.X.X.X.",
"X.X.X.X.X.X.X.X.X.X.X.X.X.X.X.X.X.X.X.X.X.X.X.X.X.X.X.X.X.X.X.X.X.X.X.X.X.X.X.X.X.X.X.X.X.X.X.X.X.X.X.X.X.X.X.X.X.X.X.X.X.X.X.X.X.X.X.X.X.X.X.X.X.X.X.X.X.X.X.X.X.X.X.X.X.X.X.X.X.X.X.X.X.X.X.X.X.X.X.X.X.X.X.X.X.X.X.X.X.X.X.X.X.X.X.X.X.X.X.X.X.X.X.X.X.X.X.X.X.X.X.X.X.X.X.X.X.X.X...  ..`   X.X.X.X.",
"X.X.X.X.X.X.X.X.X.X.X.X.X.X.X.X.X.X.X.X.X.X.X.X.X.X.X.X.X.X.X.X.X.X.X.X.X.X.X.X.X.X.X.X.X.X.X.X.X.X.X.X.X.X.X.X.X.X.X.X.X.X.X.X.X.X.X.X.X.X.X.X.X.X.X.X.X.X.X.X.X.X.X.X.X.X.X.X.X.X.X.X.X.X.X.X.X.X.X.X.X.X.X.X.X.X.X.X.X.X.X.X.X.X.X.X.X.X.X.X.X.X.X.X.X.X.X.X.X.X.X.X.X.X.X.X.X.X.X.X.  .. .  X.X.X.X.",
"X.X.X.X.X.X.X.X.X.X.X.X.X.X.X.X.X.X.X.X.X.X.X.X.X.X.X.X.X.X.X.X.X.X.X.X.X.X.X.X.X.X.X.X.X.X.X.X.X.X.X.X.X.X.X.X.X.X.X.X.X.X.X.X.X.X.X.X.X.X.X.X.X.X.X.X.X.X.X.X.X.X.X.X.X.X.X.X.X.X.X.X.X.X.X.X.X.X.X.X.X.X.X.X.X.X.X.X.X.X.X.X.X.X.X.X.X.X.X.X.X.X.X.X.X.X.X.X.X.X.X.X.X.X.X.X.X.X.X.X.  ..`   X.X.X.X.",
"X.X.X.X.X.X.X.X.X.X.X.X.X.X.X.X.X.X.X.X.X.X.X.X.X.X.X.X.X.X.X.X.X.X.X.X.X.X.X.X.X.X.X.X.X.X.X.X.X.X.X.X.X.X.X.X.X.X.X.X.X.X.X.X.X.X.X.X.X.X.X.X.X.X.X.X.X.X.X.X.X.X.X.X.X.X.X.X.X.X.X.X.X.X.X.X.X.X.X.X.X.X.X.X.X.X.X.X.X.X.X.X.X.X.X.X.X.X.X.X.X.X.X.X.X.X.X.X.X.X.X.X.X.X.X.X.X.X.X.X.  X.X.  X.X.X.X."
};
