/* XPM */
static char *Measurement_Measurement_LCONTLR[] = {
/* columns rows colors chars-per-pixel */
"21 35 15 1",
"  c black",
". c #010101",
"X c #B2B2B2",
"o c gray74",
"O c gray78",
"+ c gray81",
"@ c gray85",
"# c gray88",
"$ c #E1E1E1",
"% c gray91",
"& c #F1F1F1",
"* c gray99",
"= c #FDFDFD",
"- c #FEFEFE",
"; c gray100",
/* pixels */
";;;;;;;;     ;;;;;;;;",
";;;;;   ;;;;;  ;;;;;;",
";;;; ;;;;;;;;;;  ;;;;",
";;; ;;;;;;;;;;;;; ;;;",
";; ;;;;;;;;;;;;;;; ;;",
";; ;;;;;;;;;;;;;;; ;;",
"; ;;;;;;;;;;;;;;;;; ;",
"; ;;;;%;;;;;#@;;;;; ;",
" ;;;;;o;;;;O;%;;;;;; ",
" ;;;;;o;;;;o;;;;;;;; ",
" ;;;;;X#+;;@@#;;;;;; ",
" ;;;;;;;;;;;;;;;;;;; ",
" ;;;;;;;;;;;;;;;;;;; ",
"; ;;;;;;;;;;;;;;;;; ;",
"; ;;;;;;*;;;;;;;;;; ;",
";                  ;;",
";; ;;;;;;;;;;;;;;; ;;",
";;; ;;;;;;;;;;;;; ;;;",
";;;; ;;;;;;;;;;  ;;;;",
";;;;;   ;;;;;  ;;;;;;",
";;;;;;;;     ;;;;;;;;",
";;;;;;;;;; ;;;;;;;;;;",
";;;;;;;;;; ;;;;;;;;;;",
";;;;;;;;;; ;;;;;;;;;;",
";;;;;;;;;; ;;;;;;;;;;",
";;;;;;;;;; ;;;;;;;;;;",
";;;;;;;;;; ;;;;;;;;;;",
";;;;;;;;;; ;;;;;;;;;;",
";;;;;;;;;; ;;;;;;;;;;",
";;;;;;;;;; ;;;;;;;;;;",
";;;;;;;;;; ;;;;;;;;;;",
";;;;;;;;;; ;;;;;;;;;;",
";;;;;;;;;; ;;;;;;;;;;",
";;;;;;;;;; ;;;;;;;;;;",
";;;;;;;;;; ;;;;;;;;;;"
};
