/* XPM */
static char *MHeatX_MHeatX_COUNTER[] = {
/* columns rows colors chars-per-pixel */
"94 95 93 2",
"   c #010200",
".  c #272725",
"X  c #272823",
"o  c #282824",
"O  c #3A3B36",
"+  c #3B3B38",
"@  c #4A4A43",
"#  c #58584E",
"$  c #595851",
"%  c #64645A",
"&  c #707165",
"*  c #707169",
"=  c #7B7C6E",
"-  c #7B7C70",
";  c #868777",
":  c #858679",
">  c #878878",
",  c #888679",
"<  c #8D8E7E",
"1  c #8D8E81",
"2  c #8E9081",
"3  c #96978C",
"4  c #979889",
"5  c #989987",
"6  c #989889",
"7  c #979890",
"8  c #9A9A91",
"9  c #9FA08E",
"0  c #9EA092",
"q  c #9FA098",
"w  c #A0A18F",
"e  c #A0A091",
"r  c #A1A199",
"t  c #A7AA99",
"y  c #A8A996",
"u  c #A9AA99",
"i  c #B0B29E",
"p  c #A7A8A0",
"a  c #A8A9A1",
"s  c #AFB1A6",
"d  c #AFB0AA",
"f  c #B1B2A1",
"g  c #B0B1A9",
"h  c #B6B8A6",
"j  c #B6B8AC",
"k  c #B8B9A6",
"l  c #B8B9AA",
"z  c #B6B7B1",
"x  c #B7B8B0",
"c  c #BABBB2",
"v  c #BFC0AE",
"b  c #BFC0B2",
"n  c #C0BEAD",
"m  c #C1BFB1",
"M  c #C1C1AD",
"N  c #C2C0B1",
"B  c #C6C6BB",
"V  c #C7C8B4",
"C  c #C7C8B9",
"Z  c #C8C6B3",
"A  c #C8C6B9",
"S  c #C9C8B4",
"D  c #CCCCBB",
"F  c #CED0BB",
"G  c #D0CEBB",
"H  c #D2D2BC",
"J  c #CECDC1",
"K  c #CFD0C1",
"L  c #D0CEC1",
"P  c #D6D5C1",
"I  c #D6D4C8",
"U  c #D6D8C3",
"Y  c #D8D6C3",
"T  c #D8D6C9",
"R  c #DCDCC6",
"E  c #DDDCC9",
"W  c #DFDFD3",
"Q  c #E2E1CB",
"!  c #E3E3D2",
"~  c #E6E6D9",
"^  c #E6E8D4",
"/  c #E8E6D2",
"(  c #E9E7D8",
")  c #EDEDD5",
"_  c #EDEDD8",
"`  c #F3F3DC",
"'  c #F9F9DF",
"]  c #ECECE0",
"[  c #F3F3E2",
"{  c #F7F9E4",
"}  c #F7F8EA",
"|  c #F9F8E1",
" . c #FEFEFB",
/* pixels */
". . + + @ @ $ $ % % * * - - 1 : 1 1 3 3 q r u u f f   z m N A A L L Y I E E W ! ( ( _ _ [ [ } } [ [ _ _ ( ( Q ! E E I I G L m L M m c c   a u a 0 e 6 6 1 1 1 : - - * * % % $ $ @ @ + + . . ",
". . + + @ @ $ $ % % * * - - : : 1 1 3 6 e e u u g g   z N N A A G L I Y E E Q W / / _ _ ` [ | | ` [ _ _ / ( Q ! E E Y Y G G m m m M l j   z a a r 0 6 3 1 1 - 1 - - * * % % $ $ @ @ + + . . ",
"o . O O @ @ # # % % * * - - : : 1 1 6 6 e e u y f f   z N M S S G G Y P R R Q W / / _ _ ` [ | | ` ` _ _ / / Q Q E E P P G G G A M M l l   j a u e e 6 6 1 1 : : - - * * % % $ $ @ @ O O . o ",
"o . O O @ @ # # % % * * - - : : < < 6 6 e e u u f f   l N M S S G G P P R R Q Q / / ` _ ` ` | | ` ` _ _ / / Q Q E E P P G H A A M M l j   a u u e e 6 6 1 1 : : - - * * % % $ $ @ @ O O . . ",
"o o O O @ @ # # % % & & - - : : 1 2 6 6 e e u y f f   j m N S Z G G H Y R R Q Q / / ) ) ` ` ' ' ` ` ) ) / / Q Q R R P P G G Z Z M M h l   s u u e e 6 5 2 2 : : = = & & % % $ $ @ @ O O o o ",
"o o O O @ @ # # % % & & - - : : 1 2 5 6 e e y u f f   j N M S Z G G Y P R R Q Q / / ) ) ` ` ' ' ` ` ) _ / / Q Q R R P P G G Z Z M M l l   g u u 0 e 6 5 1 < : : = * & & % % # $ @ @ O O o o ",
"o o O O @ @ # # % % * * - - : : 2 2 5 5 w e u y f f   j m M Z S G G P P R R Q Q / / ) _ ` ` | | ` ` _ ) / / Q Q R R P P G G Z S M M h j   d a u e e 6 6 2 < , : = = * * % % # # @ @ O O o o ",
"o o O O @ @ # # % % * * - - : : 2 2 5 5 e e u u f f   j N M Z S G G P Y R R Q Q / / ) _ ` ` | ' ` ` _ ) / / Q Q R R P Y G H S S M b h v   d u u e e 6 6 1 1 : : - = * * % % # # @ @ O O o o ",
". . O O @ @ # # % % & & = = ; ; 2 1 4 6 9 e u u f f   j M M S S G G Y H R R Q Q / / ) ) ` ` ' ' ` ` ) ) / / Q Q R R P P G G Z Z M M l l   s u u e w 4 5 1 1 : : = - & & % % $ # @ @ O O o o ",
". . O O @ @ # # % % & & = = , ; 1 < 5 6 e e y y f f   j N M S Z G G H Y R R Q Q / / ) ) ` ` ' ' ` ` ) ) / / Q Q R R P P G G S Z M M l l   g a u e 0 4 4 1 1 : : - - & & % % # # @ @ O O o o ",
"X X O O @ @ # # % % & & - - , , 1 1 6 5 e e y y i f   c N M S S G G R H R R Q Q / / ) ) ` ` | | ` ` ) ) / / Q Q R R P P G G S S M M h l   d u u w e 4 4 < 1 : : - = & & % % # # @ @ O O o o ",
"X X O O @ @ # # % % & & - - ; : 2 < 6 6 9 e y y f f   l M M S S G H Y Y R R Q Q / ) ) ) ` ` | | ` ` ) ) / / Q Q R R P P G G S S M M l l   s u u e e 5 4 2 1 : : - = & & % % # # @ @ O O o o ",
"X o O O @ @ # # % % & & - - : : 1 1 6 4 e 9 y u i f   j N M S S G G Y H Q R Q Q / / ) ) ' ` | | ` ` ) ) / / Q Q R R P P G G Z Z M M k l   g u u w w 5 5 1 1 : : - - * & % % # # @ @ O O . o ",
"X o O O @ @ # # % % & & - - ; : < 2 5 6 e e u y f f   j N M S Z G G H R R R Q Q / / ) ) ` ` | | ` ` ) ) / / Q Q R R P P G G Z Z M M k l   g a u e e 6 5 1 < : : = - & & % % # # @ @ O O o o ",
"o o O O @ @ # # % % & & - = : : < 2 6 6 e e y u f f   j N M Z S G G H H R R Q Q / / ) ) ` ` | | ` ` ) _ / / Q Q R R P P H H Z Z M M l j   g a y e 0 4 5 1 2 : : - - & & % % $ # @ @ O O o o ",
"o o O O @ @ # # % % & & - = : : 2 2 5 6 e 9 u y f s   j M M S S G G H R R R Q Q / / ) ) ` ` | | ` ` _ ) / / Q Q R R P P G H S Z M M l j   g u y e 0 5 6 < 2 : : - - & & % % # # @ @ O O o o ",
"o o O O @ @ # # % % & & = = , : 1 1 5 5 9 9 u u f f   j m M S Z H H Y H R R Q Q / / ) ) ` ` | | ` ` ) _ / / Q Q R R P P G H Z Z M M k l   g u u e e 6 6 1 1 : , = = & & % % # # @ @ O O o o ",
"o o O O @ @ # # % % & & = = , , 1 < 5 5 9 9 y y i f   j m M Z Z G H H Y R R Q Q / ) ) ) ` ` | | ` ` ) _ / / Q Q R R P P G G Z Z M M k l   g u u e e 6 6 1 1 : : = = & & % % # # @ @ O O o o ",
"o o O O @ @ # # % % & & = = ; , 1 < 4 5 e e y y f f   c N M Z S G G H Y R R Q Q / / _ ) ` ` | | ` ` _ _ / / Q Q R R P P G G Z Z M n k l   g u u e e 6 6 < 1 : : = = & & % % # # @ @ O O o o ",
"o o O O @ @ # # % % & & = = ; , < < 4 4 9 e y y f f   l m M Z S G G Y Y R R Q Q / / ) _ ` ` ' | ` ` ) _ / / Q Q R R P P G G S S M n k k   f a u e e 6 6 1 1 : : = = & & % % # # @ @ O O o o ",
"o o O O @ @ # # % % & & - - : : < < 6 6 w w y u f f   c M M S S G G H Y R R Q Q / / ) ) ` ` ' ' ` ` ) ) ) / Q Q R R P P G G S S M M k l   f u u e e 6 5 2 2 ; : = = & & % % # # @ @ O O o o ",
"o o O O @ @ # # % % & & = - : : < < 6 6 w w y y f f c l M M S S G G H Y R R Q Q / / ) ) ` ` ' ' ` ` ) ) / / Q Q R R P P G G S S M M l l f k u u e e 6 5 2 < : : = = & & % % # # @ @ O O o o ",
"o o O O @ @ # # % % & & - - : : 2 2 6 6 e w y u f   l k M M S S H H R H R R Q Q / / ) ) ` ` | | ` ` _ ) / / Q Q R R P P G G S S M m l   g f u y e e 5 6 1 1 , , - - & & % % # # @ @ O O o o ",
"o o O O @ @ # # % % & & - - : : < 2 6 6 e e u u   f k h M M S S H H H Y R R Q Q / ( ) ) ` ` | | ` ` ) ) / / Q Q R R P P G G S S m m   l f f y u 9 e 5 6 2 1 , , = = & & % % # # @ @ O O o o ",
"o o O O @ @ # # % % & & - - : : 2 < 6 6 9 e y u   f j k M M S S G G H Y Q R Q Q / / ) ` ` ` | | ` ` ) ) / / Q Q R R P H H G Z S m   c l f f u u e w 5 5 1 1 : : - - & & % % # # @ @ O O o o ",
"o o O O @ @ # # % % & & - - : : 1 2 6 6 r e u   g f k k M M S S G G R H R R Q Q / / ) ) ` ` | | ` ' ) ) / / Q Q R R P P H H S S m   l l i f u u e e 5 4 1 1 : : - - & & % % # # @ @ O O o o ",
"o o O O @ @ # # % % & & - - : : 2 < 6 6 r e   a f f k k M M S S G G H Y R R Q Q / / ) ) ` ` | | ` ` ) ) / / Q Q R R P P G H A A   N l k i i y u w e 4 3 1 1 , : - - & & % % # # @ @ O O o o ",
"o o O O @ @ # # % % & & - - : : 2 2 5 6 q   u u f f k k M M Z Z G G Y H R R Q Q / / ) ) ` ` ' | ` ` ) ) / / Q Q R R R P G H A   N m k k i i u y e e 4 3 1 1 , , - = & & % % # # @ @ O O o o ",
"o o O O @ @ # # % % & * = = : > 1 2 6 6 r   u u f i k l M M Z Z G G P P R R Q Q / / ) ) ` ` | ' ` ` ) ) / / Q Q R E P P L H   A m V j k i i y u w e 5 6 1 < , : - - & & % % # # @ @ O O o o ",
"o o O O @ @ # # % % & * - - : : 2 < 3 3   r u y i i k k M M Z Z G H P P R R Q Q / / ) ) ` ` | ' ` ` ) ) / / Q Q R E Y Y L   A D M N k k i f u y e e 6 6 2 1 : : - - & & % % # # @ @ O O o o ",
"o o O O @ @ # # % % & & - - > > 1 1 7   0 0 y y i f l k M M S Z G G P P R R Q Q / / ) ) ` ` ' ' ` ` ) ) / / Q Q R R P T   L A A M M k k i f y y e e 6 6 1 1 > , - - & & % % # # @ @ O O o o ",
"o o O O @ @ # # % % & & - - > > 1 1   7 r 9 y y f i k k M M S S G G P P R R Q Q / / ) ) ` ` ' ' ` ' ) ) / / Q Q R R Y T   L A A M M k k i f y y e 0 6 6 < 2 , , - - & & % % # # @ @ O O o o ",
"o o O O @ @ # # % % & & - - : : 1 1   8 r w y u i i k k Z n S S G G P P R R Q Q / / ) ) ` ` ' ' ` ` ) ) / / Q Q R E T   L L S S M M l k f i y u w e 5 6 < < : : = = & & % % # # @ @ O O X X ",
"o o O O @ @ # # % % & & - - : : 2   8 3 w w u y i i k k n m S S G G P P R R Q Q / / ) ) ` ` ' ' ` ` ) ) / / Q Q E E   T L G Z S M M k k i h y u w e 6 6 < < : : = = & & % % # # @ @ O O o X ",
"o o O O @ @ # # % % & & - - : :   1 8 8 w r y y i i k k n Z S S G G H P R R Q Q / / _ _ ` ` | | ` ` ) ) / / Q Q E   T T L G S S M M k k i f y y e e 6 8 < < ; : = = & & % % # # @ @ O O o o ",
"o o O O @ @ # # % % * * - - : : 2     6 r w y u i i k k n n S S G G P P R R Q Q / ) _ _ ` ` | ' ` ' ) ) / / Q Q Q E     L L A Z M n k k i i u y e e 6 6 < < : : = = & & % % # # @ @ O O o o ",
"o o O O @ @ # # % % % & - - , : 1 1 7   r e u a i i n k M M S S G G P P R R Q Q / / ) ) ` ` | ' ` ` ) ) / / Q Q R R T T   L A A N Z k k i f y u e e 6 6 1 1 : : = = & & % % # # @ @ O O o o ",
"o o O O @ @ # # % % & & - - : : 1 1 7 7   r u u k i k k N M S S G G P P R R Q Q / / ) ) ` ` | | ` ` ) ) / / Q Q R R Y Y L     A m m k k f f y y e w 6 6 1 1 , , = = & & % % # # @ @ O O o o ",
"o o O O @ @ # # % % & & = = : : 1 1 7 3 r     a f f k k M N S S G G P P R R Q Q / / ) ) ` ` | | ` ` _ _ / / Q Q R R P P G L D   m m k k f i y u e e 6 6 1 1 , , = = & & % % # # @ @ O O o o ",
"o o O O @ @ # # % % & & = = : : < 1 6 3 e e a   d f k k M N S S G G P P R R Q Q / / ) ) ` ` | | ` ` _ ) / / Q Q R R Y P G G A A     l n f f u y e e 6 6 2 1 , , = = & & % % # # @ @ O O o o ",
"o o O O @ @ # # % % & & = = : : 1 1 6 6 e e u u     x l N n S S G G P P R R Q Q / / ) ) ` ` | | ` ` ) ) / / Q Q R R H R G H Z S N m   l f f u u e e 6 4 1 1 : : = = & & % % # # @ @ O O o o ",
"o o O O @ @ # # % % & & = = : : 1 1 6 5 e 9 u u f g   l N N S S H G P P R R Q Q / / ) ) ` ` | | ` ' ) ) / / Q Q R R R H G G Z Z M m x   g f a u r e 6 4 1 1 : : = = & & % % # # @ @ O O o o ",
"o o O O @ @ # # % % & & - - , : 1 1 6 6 e 9 u u f f l   N N A S G G P P R R Q Q / / ) ) ` ` | | ` ` ) ) / / Q Q R R H H G G Z Z N M k x     a u 8 e 3 4 1 1 : : - - & & % % # # @ @ O O o o ",
"o o O O @ @ $ # % % & & - - , : 1 1 6 6 9 e u u f f l l     A A G G P H R R Q Q / / ) ) ` ` ' | ` ` ) ) / / Q Q R R H R G H Z S n n k k f g   a e r 4 3 1 1 : : - - & & % % # # @ @ O O o o ",
"o o O O @ @ # # % % & & = = : : 2 < 5 6 9 w u u i i l l m m   A G G U U R U Q Q / / ) ) ' ` | | ` ` ) ) / / Q Q R R R R G G Z Z M Z k k f f a     e 6 3 1 1 : : - - & & % % # # @ @ O O X X ",
"o o O O @ @ # # % % & & = = : , 2 2 6 6 w w y y f i k k N m A   G G U R E E Q Q / / _ ) ` ` | | ` ` ) ) / / Q Q R Q H H G G Z Z M N k k i f u u r   7 3 1 1 : ; - - & & % % # # @ @ O O X X ",
"o o O O @ @ # # % % & & = = ; ; < 2 5 5 e e u u f i k k N N B V     I H R R Q Q ^ / _ ) ` ` | | ` ` ) ) / / Q Q R R H R G G Z Z N M k k i f u u e r     1 1 ; : = = & & % % # # @ @ O O X X ",
"o o O + @ @ # # % % & & = = , ; 1 < 6 6 9 e u u i f k k M M C D L L I H E R Q Q / / _ _ ` ` | | ` ' ) ) / / Q Q R R H H G G S Z n M k k f i u u e e 3 8 1 1 : : = = & & % % # # @ @ O O X X ",
"o o O O @ @ # # % % & & = = > > < < 6 6 e e y u f f k k v M C C     H R R R Q Q / / _ ) ` ` | | ` ` ) ) / / Q Q R R R H H H Z Z M M k k i f u a r r     1 1 : : = = & & % % # # @ @ O O o o ",
"o o O O @ @ # # % % & & = = > > < < 6 6 e 9 u y f f k k N b C   L H Q H R R Q Q / / ) ) ` ` | | ` ` ) ) / / Q Q R R R H H H Z Z M Z k k i f u u e   8 6 1 1 : : - = & & % % # # @ @ O O o o ",
"o o O O @ @ # # % % & & - - > : 2 2 6 6 e 9 u u f f k k m N   A L G H R R R Q Q / / _ ) ` ` | | ` ` ) ) / / Q Q R R H R G H Z S M M i l h f a     e 6 3 1 1 : : - - & & % % # # @ @ O O o o ",
"o o O O @ @ # # % % & & - - : : 2 2 6 5 9 9 y y f h l l     A A L G H R H Q Q Q / / ) _ ` ` | ' ` ' ) ) / / Q Q R R H H G H S S M M l j f f   a e r 3 6 1 1 : ; - - & & % % # # @ @ O O o o ",
"o o O O @ @ # # % % & & - - > , < < 6 6 9 9 u u f g x   m m D S G H P P R R Q Q / / ) ) ` ` | | ` ` ) ) / / Q Q R R H Y G G Z Z b M j l     a u e e 6 6 1 1 : : - - & & % % # # @ @ O O o o ",
"o o O O @ @ # # % % & & - - : : < < 5 6 e e u u f     x m n S S G G P P R E Q Q / / ) ) ` ` | | ` ` ) ) / / Q Q R Q Y H G G Z Z N N j   s g u u e e 6 3 1 1 : : - - & & % % # # @ @ O O o o ",
"o o O O @ @ # # % % & & - - : : 2 2 6 6 e e a u   g l l N M S S G H P P R R Q Q / / _ ) ` ` | | ` ` ) ) / / Q Q R R Y Y D H S S m m   l s f u u e e 6 6 < < , , - = & & % % # # @ @ O O o o ",
"o o O O @ @ # # % % & & - - : : 2 2 6 6 r e u   g f l k M M S S G H P H R R Q Q / / ) ` ` ` | | ` ` ) ) / / Q Q R R Y H H H S S     l l f f y y w e 6 6 < < ; , - = & & % % # # @ @ O O o o ",
"X X O O @ @ # # % % & & = = ; ; 1 1 3 6 r     a h i h h M M S S G G H R R R Q Q / / ) ) ` ` ' | ` ` ) ) / / Q Q R R P P L K B   N N j h f f y y 9 e 4 4 1 1 : : - - & & % % # # @ @ O O o o ",
"X X O O @ @ # # % % & & = = ; ; 1 1 3 3   q a a i i h h M M S S G G R H R R Q Q / / ) ` ` ` | | ` ` ) ) / / Q Q R R Y Y J     C m M l k f i y y w w 5 4 1 1 : : = - & & % % # # @ @ O O o o ",
"X X O O @ @ # # % % & & = = ; ; 1 2 8   q e u u f f h h M M S S G G H R R R Q Q / / ) ) ` ` ' ' ` ` ) ) / / Q Q R E T T   J C B M M k k i i y y e e 4 5 1 1 , , - - & & % % # # @ @ O O o o ",
"X X O O @ @ # # % % & & = = ; , 1     3 r 9 u u f i h v M M S S G G H H R R Q Q / / ) ) ` ` ' ' ` ` ) ) / / Q Q R E     D J V S M M k k i f y i e w 4 4 1 1 , , - - & & % % # # @ @ O O o o ",
"X o O O @ @ # # % % & & = = : ,   1 7 3 w w u y i f k k v v S S H H H H R R Q Q / / ) ) ` ` | | ` ` ) ) / / Q Q E   I I H H V Z M n k k i f t t e e 5 5 < < : : - - & & % % # # @ @ O O . . ",
"X X O O @ @ # # % % & & = = : : 3   7 7 t w y y f i i v v v S S G H R R R R Q Q / / ) ) ` ` | | ` ` ) ) / / Q Q E E   T K H S Z M M k k f i u i e w 5 5 < 1 : : - - & & % % # # @ @ O O o . ",
"o o O O @ @ # # % % & & = = : : 2 2   6 0 0 u y i i v i M v Z Z G G R H R R Q Q / / ) ` ` ` ' | ` ` ) _ / / Q Q R E I   L L S S Z M k h f i y y e e 6 6 1 1 : , = - & & % % # # @ @ O O o o ",
"o o O O @ @ # # % % & & = = : : 2 2   6 0 0 u y f i i v M v Z Z G G H H R R Q Q / / ) _ ` ` ' ' ` ` _ _ / / Q Q E E Y T   L Z S M M i k i f y y e 0 6 5 2 1 : > - - & & % % # # @ @ O O o o ",
"o o O O @ @ # # % % & & - - : : 1 1 6   0 0 u u i f h k v M V V G G H R R R Q Q / / ) ) ` ` | | ` ` _ ) / / Q Q R R Y Y   L A S N M k k i f y u e e 5 5 2 2 : : = = & & % % # # @ @ O O . . ",
"o o O O @ @ # # % % & & - - : : 1 1 6 3   0 t u i i h h v v S S G G Y H R R Q Q / / ) ) ` ` | | ` ` ) ) / / Q Q E R H R I   A A n N k k i f y u e e 5 6 2 2 ; : = = & & % % # # @ @ O O . X ",
"o o O O @ @ # # % % & & - = , : 1 1 6 6 r   u u f i v h M M V S G G H Y R R Q Q / / ) ) ` ` | | ` ` _ ) / / Q Q R R Y Y G L   A N N k l f i u u e 0 5 6 2 2 : : - - & & % % # # @ @ O O o o ",
"o o O O @ @ # # % % & & - - , : 2 1 6 6 0   a u s i i v M M S S G H R H R R Q Q / ) ) ) ` ` | | ` ` ) ) / / Q Q R R Y H G G A   m m l k i f y u 0 0 6 6 2 2 : : - - & & % % # # @ @ O O o X ",
"o o O O @ @ # # % % & & - = : : 1 1 6 6 e r   u i i h v M M S S G G H R E R Q Q / / ) ) ` ` | ' ` ` ` ) / / Q Q R R P Y G G S A   m k l f i u u w e 5 5 < 2 ; : - - & & % % # # @ @ O O o o ",
"o o O O @ @ # # % % & & - = : : < 1 6 6 9 e u   s i v i M M S Z G G Y H R R Q Q / / ) ) ` ` | | ` ` ) ) / / Q Q E E Y P G G A A A   l k i f u u e 0 5 5 1 2 : : - - & & % % # # @ @ O O o o ",
"o o O O @ @ # # % % & & - - > : 1 < 5 6 e e u a   s i v M M S S G G H Y R R Q Q / / ) ) ` ` ' | ` ` ) ) / / Q Q R R P P H G S S m   l l i f u u 0 9 4 4 1 1 : : - - & & % % # # @ @ O O o o ",
"o o O O @ @ # # % % & & - = : : 1 2 6 6 e e u u   s v k M M S S G H Y Y R R Q Q / / ) ) ` ' | | ` ` ) ) / / Q Q R R Y P G G S S m m   l f i u u 0 9 4 4 < 2 : : - = & & % % # # @ @ O O o o ",
"o o O O @ @ # # % % & & = - : : < < 6 6 e e u u s   j h M M V V G G Y H R R Q Q / / ) ) ` ` | | ` ` ) ) / / Q Q E R Y P G G Z Z N N l   f f y u 0 e 5 5 1 2 : ; = = & & % % # # @ @ O O o o ",
"o o O O @ @ # # % % & & - - : : < < 6 6 e y u u f s j h M M V V G G H R R R Q Q / / ) ` ` ` | | ` ` ) ) / / Q Q R R H P G G Z Z N n l l s s y u e e 5 6 < 1 : : - = & & % % # # @ @ O O o o ",
"o o O O @ @ # # % % & & - - : : 2 2 6 6 e e u u f h   j M M S S G G H R R R Q Q / / ) _ ` ` | | ` ` ) ) / / Q Q R Q Y Y G G S Z M N k l   g u u w e 6 6 < 2 : : - - & & % % # # @ @ O O o o ",
"o o O O @ @ # # % % & & = = : : 2 < 6 6 e e y u f f   j M M Z S H H H H R R Q Q / / ) _ ` ` | | ` ' ) ) / / Q Q R R Y H G H S S M M l l   h u u w e 6 5 2 2 : ; - - & & % % # # @ @ O O o o ",
"o o O O @ @ # # % % & & = = ; : 1 1 6 6 e e y y f f   j N M S S G G H R R R Q Q / / ) ) ` ` | | ` ` ) ) / / Q Q R R R H H H S Z M M k l   f a u e e 6 6 2 2 : : = - & & % % # # @ @ O O o o ",
"o o O O @ @ # # % % & & = = : > 2 < 6 4 w e y y f g   c N M S S G G Y H R R Q Q / / ) ) ` ` | ' ` ` ) ) / / Q Q R R H Y H H S Z n M k l   g u u e e 6 5 2 2 : : - - & & % % # # @ @ O O o o ",
"o o O O @ @ # # % % & & = = > > 1 1 6 6 e e y u f s   j M M S S G G H Y R R Q Q / / ) ) ` ` ' ' ` ` ) ) / / Q Q R R H H G G Z S M M k l   a a u w e 5 5 2 1 ; : - = & & % % # # @ @ O O o o ",
"o o O O @ @ # # % % & & = = > > 2 2 6 8 e e y y f s   l N M Z S G G R Y R R Q Q / / ) ) ` ` ' ' ` ` ) _ / / Q Q R R Y Y G G S S M M k l   h u u e e 5 5 2 2 , : - = & & % % # # @ @ O O o o ",
"X . O O @ @ # # % % & & - = : : 1 1 4 6 e e y u f f   j N M S S G G H P R R Q Q / / ) ) ` ` ' ' ` ` ) ) / / Q Q R R Y Y H D S Z M N l j   g u u e e 6 5 2 < : : - = & & % % # $ @ @ O O . o ",
"X . O O @ @ # # % % & & = = : : 1 1 6 5 e e u y f f   j N M S S G G P Y R R Q Q / / ) ) ` ` ' ' ` ` ) ) / ( Q Q R Q H Y G H S S M N k l   g a u e w 6 6 2 2 : : - - & & % % # $ @ @ O O o o ",
"X X O O @ @ # # % % & & = = : : 1 2 6 5 e e y u f f   c N M S S G G R H R R Q Q / / ) ) ` ` | | ` ` _ ) / / Q Q R R H Y G G Z Z M M k l   a u u w e 4 6 < 1 ; : = = & & % % # # @ @ + O . X ",
"X X O O @ @ # # % % & & = = : : 2 < 6 6 e 0 u y f f   l N M S S H H H P R R Q Q / / _ ) ` ` { | ` ` ) _ / / Q Q R R Y H G G S S M M j j   j a u 9 e 5 4 1 1 : : = = & & % % # # @ @ O O X . ",
". o O O @ @ # # % % & & - - : : < 1 6 3 e e u u f s   j M M Z S G G H P Q Q Q Q / / ) ) ` ` ' ' ' ` _ _ / / Q Q R E P P G G S S M M k k   g u u e e 5 6 1 2 , : = - & & % % # # @ @ O O . o ",
"o o O O @ @ # # % % & & - - : : 1 1 6 6 e e u y i s   j N M S Z H H Y P R H Q Q / / ) ) ` ` ' ' ` ` _ _ / / Q Q R R P P G G S S M M k k   g u u e e 6 6 1 1 : : = - & & % % # # @ @ O O o o ",
"o o O O @ @ # # % % & & - - : : 1 2 4 6 9 e y y i f   j M M Z S H H H Y R R Q Q / / ) ) ` ` ' ' ` ` _ _ / / Q Q R R P P G G S S M M k l   g u y 9 e 5 6 < < , , - - * & % % $ # @ @ O O o o ",
"o o O O @ @ # # % % & & - - : : 1 < 4 5 e e y y i f   j M M Z S H H H H R R Q Q / / ` ) ` ` ' ' ` ` ) ) / / Q Q R R P P G H S S M N k l   g u u e e 5 6 1 2 , > - - & * % % # # @ @ O O o o ",
"o o O O @ @ # # $ % * * = = : : 1 2 6 4 e e u y f f   j N M V V H H P P E R Q Q / / ) ) ` ` | | ` ` ) ) / / Q Q R R P P H D S S M M k l   g u u w w 9 4 < < : > = = & & % % $ # @ @ O O o o ",
"X X O O @ @ # # % % * & = = : : 1 2 5 5 e e u u f f   c m M S S S H P P E Y Q Q / / ) ) ` ` | | ` ` ) _ / / Q Q R R P P G H S S n M k l   g a u 9 9 5 4 < < : : - = & & % % $ $ @ @ O O o o ",
"o o O O @ @ # # % % * * - - : : 1 < 6 5 e e y y i s   j N M D S D F U U R R Q Q / / ) ) ` ` | | ` ` _ ) / / Q Q R R U U G H Z S M M h k   g u u 9 9 4 4 2 2 : : - - & & % % $ $ @ @ O O o o ",
"o X O O @ @ # # % % * * - - : : 1 1 6 5 e e t u f f   l N M B S F F U K E R Q Q / / ) ) ` ` { { ` ` _ _ / / Q Q E T P U G S S S M M k k   g u u 0 0 4 3 < 2 : : = - & & % % $ $ @ @ O O o o ",
"o . O + @ @ $ $ % % * * - - : : 1 1 7 3 r 0 u u f a   j N m C J C F U I E E Q Q / ^ _ _ [ ` [ { [ [ ( _ / / ! Q T E U U D D V C M N j c   j a u q q 3 3 1 1 : : = - * * % % $ $ @ @ O O o o ",
"o . + + @ @ $ $ % % * * - - : 1 1 1 7 7 q q a p g d   z m N J B J J I I W E W W ^ ^ ] ] [ [ } } [ [ ] _ ~ ~ W W W E I I J J B B b m z j   a a a 8 7 7 7 1 1 : 1 - - * * % % $ $ @ @ O O o o ",
" . . . . . . . . . . . . . . . . . . . . . . . . . .   . . . . . . . . . . . . . . . . . . . . . . . . . . . . . . . . . . . . . . . . .   . . . . . . . . . . . . . . . . . . . . . . . . ."
};
