/* XPM */
static char *Mixer_Mixer_3WAY[] = {
/* columns rows colors chars-per-pixel */
"31 31 4 1",
"  c black",
". c #010101",
"X c #FEFEFE",
"o c gray100",
/* pixels */
"oooooooooooooooo oooooooooooooo",
"oooooooooooooooo oooooooooooooo",
"oooooooooooooooo oooooooooooooo",
"oooooooooooooooo oooooooooooooo",
"oooooooooooooooo oooooooooooooo",
"oooooooooooooooo oooooooooooooo",
"oooooooooooooooo oooooooooooooo",
"oooooooooooooooo oooooooooooooo",
"oooooooooooooooo oooooooooooooo",
"oooooooooooooooo oooooooooooooo",
"oooooooooooooooo oooooooooooooo",
"oooooooooooooooo oooooooooooooo",
"oooooooooooooooo oooooooooooooo",
"oooooooooooooooo oooooooooooooo",
"oooooooooooooooo oooooooooooooo",
"                               ",
"oooooooooooooooo oooooooooooooo",
"oooooooooooooooo oooooooooooooo",
"oooooooooooooooo oooooooooooooo",
"oooooooooooooooo oooooooooooooo",
"oooooooooooooooo oooooooooooooo",
"oooooooooooooooo oooooooooooooo",
"oooooooooooooooo oooooooooooooo",
"oooooooooooooooo oooooooooooooo",
"oooooooooooooooo oooooooooooooo",
"oooooooooooooooo oooooooooooooo",
"oooooooooooooooo oooooooooooooo",
"oooooooooooooooo oooooooooooooo",
"oooooooooooooooo oooooooooooooo",
"oooooooooooooooo oooooooooooooo",
"oooooooooooooooo oooooooooooooo"
};
