/* XPM */
static char *Mixer_Mixer_TANK[] = {
/* columns rows colors chars-per-pixel */
"64 86 79 1",
"  c #000000",
". c #27271B",
"X c #28281D",
"o c #262624",
"O c #272822",
"+ c #282825",
"@ c #292928",
"# c #3B3C2E",
"$ c #3B3B35",
"% c #3B3C38",
"& c #4A4A43",
"* c #57574F",
"= c #58584E",
"- c #575851",
"; c #585752",
": c #595951",
"> c #636357",
", c #64655B",
"< c #656660",
"1 c #6F6F63",
"2 c #6F7166",
"3 c #707165",
"4 c #727268",
"5 c #7B7C6E",
"6 c #7C7C70",
"7 c #858676",
"8 c #858679",
"9 c #878879",
"0 c #8D8E7E",
"q c #8D8E81",
"w c #8F9081",
"e c #909183",
"r c #969789",
"t c #979888",
"y c #999788",
"u c #98998A",
"i c #9FA08E",
"p c #9FA090",
"a c #A19F90",
"s c #A0A18F",
"d c #A0A191",
"f c #A7A898",
"g c #A8AA96",
"h c #A9AA98",
"j c #B0B19E",
"k c #B1B2A0",
"l c #B7B8A4",
"z c #B7B8A8",
"x c #B8B9A6",
"c c #B9B9A8",
"v c #BFC1AB",
"b c #BFC0B0",
"n c #C1C1AD",
"m c #C2C2B1",
"M c #C7C8B5",
"N c #C7C8B8",
"B c #C8C7B3",
"V c #C9C8B4",
"C c #CECEBA",
"Z c #CED0BB",
"A c #D0CEBA",
"S c #D1D0BB",
"D c #D6D5C1",
"F c #D8D7C2",
"G c #DCDBC6",
"H c #DDDCC8",
"J c #E2E1CB",
"K c #E4E4D2",
"L c #E8E7D2",
"P c #EDEDD5",
"I c #EDEDD8",
"U c #F0EFD9",
"Y c #F4F3DB",
"T c #F9F7DE",
"R c #F9F8DE",
"E c #F2F2E0",
"W c #FAFAE3",
"Q c #FCFCEA",
"! c #FEFEFE",
/* pixels */
"!!!!!!!!!!!!!!!!!!!!!!!!!$$$%%%$$$$$$$$$!!!!!!!!!!!!!!!!!!!!!!!!",
"!!!!!!!!!!!!!!!!!o$$$$%%$<,>,,,,,,,,>,,,%%$$$$%+!!!!!!!!!!!!!!!!",
"!!!!!!!!!!!!!$%$$$;<>,,,,666666655555556,,,<,,;$$$$$!!!!!!!!!!!!",
"!!!!!!!!!O$$$&-,,,,466666quuuuuurruruuue666563,,,,*&$$$o!!!!!!!!",
"!!!!!!!O$%$&,,>35656quuuuphhhhhhhghhghhduuuue56654,<<&$$$o!!!!!!",
"!!!!!O$$$&,,,2669euuuahghhjxccczxlcxxxkhhghduuuq9564,,,&$$$o!!!!",
"!!!!O$$&:,,36580uuahhhkcccxNCACCCAZSZNcxcxkhghduuq9561,,*&$$O!!!",
"!!!o$$&*,,35900uahhhkccmNZAACHHHGGHHZZZZNvcxkhhhauqq861,,;&$$.!!",
"!!@$$&=>,35900ushhzzbmVASSGGGJPPPPPJGGJSSZMnvxkhhdu00863,,=&$%+!",
"!+%$&:,>335900udhhkznvAAGGGJJPPYRYIULJGGSSZnnxjhhduw08631,,=&$%+",
" o$$&:,,36900udhhkcnnBAFGGJJIPYRTTYIULJGJSSVvvckhhpu0w863,,=&$%@",
" +$$&:,,3459e0udhhkxnnAASGJJLUPYWYIILJGGGSZnmckhhdu0w9631,,-&%%+",
" $o$$&:,,468e0udhhkcnnNSSSJGHJIPPPUJGGGFZANvnckhhsu00962,,*&$$o ",
"!$$O$$&:,<467qqusgghjxxvVSZSZJHGGGGGAZAAVnccjghhdu00953,,*&#$o+!",
"!%%&O$$&;<,4558quusgggkzcxxMZZZZAAZAZBlllxchhhduu09653,,*&$$O$o!",
"!%%&;o$$$&,,,45590uuushhghkxxxxjxxxxxxjggghpuuuq9663>>,&$$$O$$+!",
" $%&;,<O$$$&>,,466660uuuuuhhhhgggggghhhduuuu065563>,>&$#$o-&%$+ ",
" %%&:<,35.#$#&:,,,,3666660uuuuiuuuuuuuu0556563,,,,:&$$$o<>-&%%@ ",
" $$&:,,458qqu#$$#$=,,,,,>666665566556656,,>,,,:$$$$#qq61>,-&$$+ ",
"!$%&:,,359q0udhhkX#######>,>,>,,,,,,,,>,###$#$$Ohdueq864,,-&$$+!",
"!%$&:,,35900udhhkcmmVSFHH$#$###$#####$##FSNbbckhhfuqq864,,:&$$+!",
"!$$&:,,35700udhhkzbmVSDHHKKIIYQQWYUELJHHFSMbvxkhhdueq861,,:&$$+!",
" $$&:,,359e0ushhkxvvNCDHHJKIIYWQWEUULJGGFCNvnxkghduqe864,,:&$$+ ",
" $$&:,,3590eushhjxvvNCDHHJKIPYWQWUIULJGGFAVnnxkghduqq864,,-&$$+ ",
" $%&:,,468qqudhhkxmvVAFGGJLUPYRQEYPILJGGGSVnnvlggpuw0853,,:&$%+ ",
"!$%&:,,468qqudhhkznvVASJGJLPUYRWWYIILJGGSSVnnjjhgpuw0853,,:&$$+!",
"!%$&:,,358qquuhhjcnnVASGGJLIPYWWWYPPLJGGSSBnnxjhhsuw0953,,=&$%@!",
"!$%&:,,368qqudhgjcnnVSFGGJLIIYWQWUPPLJGGSSBnnxjhhsu0w953,,=&$%@!",
" $$&;,,358qqudhhjcvnMSFGGJLIUYRWWYUPLJGGGABnnxjggsu0q853,,:&%$o ",
" %$&;,,368qqudhgjxnnNSFGGJLPPYWQTYIPLJGGSSBnnxjggsu0q853,,:&$$o ",
" %%&;,,368qqudghjxvnVASGGJLPPYRWWYPPLJGGGZVnnvkhgduwq863,,=&$$o ",
"!%$&:,,368qqushhjcnnVAFGGJLIPYRWTYPPLJGGSSVnvjkhgdu0q863,,:&$$+!",
"!%$&:,,458qqudhgjcnnVAFGHJLPUYWWRYPPLJHHGSVnnvjhhsi0w963,,:&$%+!",
"!$%&:,,358qqudhhjcnnVAFGGJLIPYWQRYPPLJGGSSVnnjjhhsu00862,,:&$$+!",
" $%&:,,158qqushhjcnnVAFGGJLIPYRWWYIPLJGGSSBnnxjhhsu00863,,:&$%+ ",
" $$&:,,458q0udghjcnnVAFGGJLPPYWQRYIPLJGGSSVnnxjhhsu00863,,:&$%+ ",
" $%&:,,358qqushhjxnnVASGGJLIPYRWRYPPLJGGSSCnnxjhgsu0w963,,:&$$@ ",
"!$$&:,,359qqydghjcnnVCFGGJLIPYRQRYUPLJGGSAVnnxjhhsu00863,,:&$$o!",
"!$$&:,,158qqudghjcnnVCFGGJLIPYWWRTPPLJGGGSVnnxjhhsuww862,,:&$%o!",
"!%$&:,,458qqudhhjcnnVCFGGJLIUYWQWYPPLJGGSZVvvvjhhsuww862,,:&$%+!",
" $$&;,,358qqyahhjcnnBASGGJLIPYRWRYIPLJGGDCVnnxjghsuqq853,,:&$$+ ",
" %$&;,,368qquahhjcnnVAFGGJLIPYWQWYPPLJGGDZVnnxjghduqq863,,:&$$@ ",
" $$&:,,368qqudhhjxnnVAFGGJLIUYRWRYPPLJGGSAVnnxjhhsuqq863,,*&$$+ ",
"!$%&:,,358qqudhhjcnnVAFGGJLIPYRQWYPPLJGGFAVnnxjhhsuqq853,,:&%%o!",
"!%$&:,,358qqyahhkcnnVASJGJLIUYWWWYPPKJGGFAVnnxjhhsuqq853,,:&$$+!",
"!%$&:,,359qqyaghkcnnVASGGJLIPYWQWYPPLJGGSAVnnxjhgsuqq863,,:&$$+!",
" $$&:,,369qqyaggkcnnVSGGGJLIPYWWTYIPLJJGFAVnnxjghduqq853,,-&$%+ ",
" $$&:,,369qeuaggkcnnVSSGGJLPPYWWWUPPLJGGFSVnnxjggduqq853,,:&$%@ ",
" $%&:,,369qqudghklnnBADGGJLUUYRQRTPPLJGGSSVnnxjghsuqq853,,:&$%+ ",
"!$$&:,,359qquaghkcnnBADGGJLIPYRWRTPPLJGGGSVnnxjghsuqq863,,:&$$+!",
"!$$&:,,359qqudhhkcnnVADGGJLIPYWWRYPPLJGGSSVnvxlggduqq863,,*&$%+!",
"!%%&:,,359qqudghkcnnVADGGJLIPYWQRYPPLJGGSSMnnxjhhduqq863,,:&$%+!",
" $$&;,,358qqudghjxnnVSSGGJLIIUWWRYIPLJGGGSVnnxjghsuqq863,,:&%$o ",
" $$&;,,358qqushgjxnnVSFGGJLIPTWQRYPPLJGGSSVnnxjghsuqq863,,:&$$o ",
" %$&:,,359qqudhhkcnnVAGGGJLIPUTWWYPPLJGJSSVnnjjhgsuqq863,,:&$%+ ",
"!$$&:,,358qquahgkcnnVSSGGJLIPTWWRYPILJGJSSVnnvjhhsuqq863,,:&$$o!",
"!$$&:,,359qqudhhjcnnBAFGGJLIUYWWRYPPLJHHFSVnnxjhhpuqq863,,:&$$+!",
"!%$&:,,358qquahhjcnnVAFGGJLPPYWQRYPPLJHHSAVnnxjhhpuqq863,,:&$$o!",
" $%&:,,358qquahhjcnnVASGHJLIPYWWWYIPLJHHGAVnnxjhhsuqq863,,:&$%+ ",
" $$&=,,359qqudhhjcnnVAFGGJLPPYWWRYIPLJGHSSVnnxjhhsuqq863,,:&$%+ ",
" $%&:,,358qqudhgjxnnBCDGGJLIPYWQRYPPLJGGSSVnvxkhhsu0w963,,:&$$@ ",
"!$$&:,,368qquihhjcnnVCFGGJLIPYRWWYPPLJGGFSVnvxkhhiu00863,,:&$$o!",
"!$$&:,,358qqudhgjcnnVCFGHJLIPYWQRYPPLJGGSSMnnxkhhduw0853,,:&$%o!",
"!%$&:,,368q0udhhjcnnVCFGGJLPPYWWRYPPLJGGFAVnvxkhhpuw0863,,:&$%+!",
" $$&*,,368qqudhhjcvvVAFGGJLIPYRQWUUPLJGHFAVnnxjggsuqq864,,:&$%+ ",
" %$&;,,358qqudhgkxnnVAFGGJLIPYWWWEIILJHGFAVnnxjggsuqe864,,=&$%@ ",
" $$&:,,368qqudghkcvnVAFGGJLPUYWWWUPPLJGGDAVmnxjhhsuqq861>,=&$$+ ",
"!$$&:,,358qqudhhkcnvVAFGGJLIPYWQWYPPLJGGDAVnnxlhhsuqq864,,:&$%+!",
"!%$&:,,368qqudhhkxvvNASGGJLIPYRWWUIPLJGGDAVnnxjhfauqq851,>:&$$+!",
"!$$&=,,368qqudhhkxvmVAFGGJLPPYWQWYPULJGGSAVnnxjghauqq854,,=&$%+!",
" $%&:,,358qqtdhhkcvvVSFGGJLPUYRWWYPPLJGGFAVnnxjghauqq854,,-&$%+ ",
" %%&:,,358qqushhkxvvVAFGGJLPPYWQTYPULJGGFAVnnxjghiuqq864,,:&$$O ",
" $$&=,,3580quphhjcnnVCFGGJLPPYTRWUPPLJGGSAVnvckhhsu0q863,,:&$$+ ",
"!%%&;,,468qqudhhjcnnVCFGGJLPPYRRTYPPLJGGGSVnvxkhhiuww863,,:&$$+!",
"! %%&;,,368qqudhgkcnnVAFGGJLPPTRTWTIPLJGJSZnvvzkhhduq0863,,:&$$ ",
"! %%&:<<3358qquahhjcnnCSSJGJLPPTTYIULJGGSSSnnckhhpuwq8533>,:&$% ",
"!! %%&:<,368qqudhhkcnnVSAFHHJJUPUIIJJGJSSSVnvckhhduqq864,,:&$% !",
"!! %$&::,3168qquahhkknnnNASSAGJJJJJGSAAAVnnnkjhhpuqq8614,=;&$% !",
"!!! %$&:*,3658qqudahgkjnnnvMAAASAAAASVnnnnckhhaduqq8664,::&%% !!",
"!!!!  %$&:,,4558qquadsgkkjjnnnnnmnnnnmkkklhdpduqq8662,,;&$%  !!!",
"!!!!!!  %$&-,,465qeequddddhkkkkkkkkkkkhppppue0qq563,,-&$%  !!!!!",
"!!!!!!!!  %$:::,46659eqqqqdadpddpppppppww0ww86553,;:-$%  !!!!!!!",
"!!!!!!!!!!    $;;:;,666655eqqqqqwwwwwww666665,=::;$    !!!!!!!!!",
"!!!!!!!!!!!!!!    %;:::::,6666666666666<::::;:$    !!!!!!!!!!!!!",
"!!!!!!!!!!!!!!!!!!        ::;;;:::::::-        !!!!!!!!!!!!!!!!!",
"!!!!!!!!!!!!!!!!!!!!!!!!!!             !!!!!!!!!!!!!!!!!!!!!!!!!"
};
