/* XPM */
static char *SSplit_SSplit_3WAY[] = {
/* columns rows colors chars-per-pixel */
"32 32 4 1",
"  c black",
". c #010101",
"X c #FEFEFE",
"o c gray100",
/* pixels */
"oooooooooooooooo ooooooooooooooo",
"oooooooooooooooo ooooooooooooooo",
"oooooooooooooooo ooooooooooooooo",
"oooooooooooooooo ooooooooooooooo",
"oooooooooooooooo ooooooooooooooo",
"oooooooooooooooo ooooooooooooooo",
"oooooooooooooooo ooooooooooooooo",
"oooooooooooooooo ooooooooooooooo",
"oooooooooooooooo ooooooooooooooo",
"oooooooooooooooo ooooooooooooooo",
"oooooooooooooooo ooooooooooooooo",
"oooooooooooooooo ooooooooooooooo",
"oooooooooooooooo ooooooooooooooo",
"oooooooooooooooo ooooooooooooooo",
"oooooooooooooooo ooooooooooooooo",
"                                ",
"oooooooooooooooo ooooooooooooooo",
"oooooooooooooooo ooooooooooooooo",
"oooooooooooooooo ooooooooooooooo",
"oooooooooooooooo ooooooooooooooo",
"oooooooooooooooo ooooooooooooooo",
"oooooooooooooooo ooooooooooooooo",
"oooooooooooooooo ooooooooooooooo",
"oooooooooooooooo ooooooooooooooo",
"oooooooooooooooo ooooooooooooooo",
"oooooooooooooooo ooooooooooooooo",
"oooooooooooooooo ooooooooooooooo",
"oooooooooooooooo ooooooooooooooo",
"oooooooooooooooo ooooooooooooooo",
"oooooooooooooooo ooooooooooooooo",
"oooooooooooooooo ooooooooooooooo",
"oooooooooooooooo ooooooooooooooo"
};
