/* XPM */
static char *SSplit_SSplit_TEE[] = {
/* columns rows colors chars-per-pixel */
"32 16 4 1",
"  c black",
". c #010101",
"X c #FEFEFE",
"o c gray100",
/* pixels */
"oooooooooooooooo ooooooooooooooo",
"oooooooooooooooo ooooooooooooooo",
"oooooooooooooooo ooooooooooooooo",
"oooooooooooooooo ooooooooooooooo",
"oooooooooooooooo ooooooooooooooo",
"oooooooooooooooo ooooooooooooooo",
"oooooooooooooooo ooooooooooooooo",
"oooooooooooooooo ooooooooooooooo",
"oooooooooooooooo ooooooooooooooo",
"oooooooooooooooo ooooooooooooooo",
"oooooooooooooooo ooooooooooooooo",
"oooooooooooooooo ooooooooooooooo",
"oooooooooooooooo ooooooooooooooo",
"oooooooooooooooo ooooooooooooooo",
"oooooooooooooooo ooooooooooooooo",
"                                "
};
