/* XPM */
static char * delete_icon_xpm[] = {
"26 32 23 1",
" 	c None",
".	c #FFFFFF",
"+	c #F7BABA",
"@	c #EA4747",
"#	c #FAD1D1",
"$	c #F5A9A9",
"%	c #E51919",
"&	c #F5A3A3",
"*	c #FAD7D7",
"=	c #E83636",
"-	c #E62424",
";	c #EF7575",
">	c #F28C8C",
",	c #EC5252",
"'	c #FCE2E2",
")	c #F39898",
"!	c #EE6A6A",
"~	c #F39292",
"{	c #FEF9F9",
"]	c #E61F1F",
"^	c #F6AEAE",
"/	c #F18080",
"(	c #F8C6C6",
"..........................",
"..........................",
"..........................",
".+@#..................#@+.",
".$%&*................*&%$.",
".$%%=................=%%$.",
".$%%-;+............+;-%%$.",
".$%%%%>............>%%%%$.",
"...,%%%%'........'%%%%,...",
"...)!%%%~+......+~%%%!)...",
"....'%%%%,......,%%%%'....",
"....{#;%%-@+..+@-%%;#{....",
"......&@]%%>##>%%]@&......",
"........=%%%%%%%%=........",
"........^/%%%%%%/^........",
".........(%%%%%%(.........",
".........(%%%%%%(.........",
"........^/%%%%%%/^........",
"........=%%%%%%%%=........",
"......&@]%%>##>%%]@&......",
"....{#;%%-@+..+@-%%;#{....",
"....'%%%%,......,%%%%'....",
"...)!%%%~+......+~%%%!)...",
"...,%%%%'........'%%%%,...",
".$%%%%>............>%%%%$.",
".$%%-;+............+;-%%$.",
".$%%=................=%%$.",
".$%&*................*&%$.",
".+@#..................#@+.",
"..........................",
"..........................",
".........................."};
