/* XPM */
static char * VESConnection_xpm[] = {
"32 32 327 2",
"  	c #FFFFFF",
". 	c #F8F8F8",
"+ 	c #E2E2E2",
"@ 	c #D5D5D5",
"# 	c #CBCBCB",
"$ 	c #C7C7C7",
"% 	c #C1C1C1",
"& 	c #D2D2D2",
"* 	c #DCDCDC",
"= 	c #E6E6E6",
"- 	c #FAFAFA",
"; 	c #EEEEEE",
"> 	c #D4D4D4",
", 	c #C6C6C6",
"' 	c #D6D6D6",
") 	c #DDDDDD",
"! 	c #ECECEC",
"~ 	c #F3F3F3",
"{ 	c #EBEBEB",
"] 	c #E7E7E7",
"^ 	c #E0E0E0",
"/ 	c #D8D8D8",
"( 	c #CACACA",
"_ 	c #D0D0D0",
": 	c #E8E8E8",
"< 	c #F6F6F6",
"[ 	c #E3E3E3",
"} 	c #E8EAEA",
"| 	c #E7E8E8",
"1 	c #EFEFEF",
"2 	c #EDEEEE",
"3 	c #E7EAEA",
"4 	c #DFE3E4",
"5 	c #D7DEE0",
"6 	c #D3DCDD",
"7 	c #E5E7E8",
"8 	c #BEBEBE",
"9 	c #F2F2F2",
"0 	c #FBFBFB",
"a 	c #DADADA",
"b 	c #DCDFE0",
"c 	c #D1D6D7",
"d 	c #D3D7D8",
"e 	c #D9DBDC",
"f 	c #E2E3E3",
"g 	c #E8E9E9",
"h 	c #EDEDED",
"i 	c #EBECED",
"j 	c #E6E8E9",
"k 	c #DCE1E2",
"l 	c #CBD4D6",
"m 	c #B9C7CA",
"n 	c #ACBDC1",
"o 	c #B7C4C7",
"p 	c #D7DDDE",
"q 	c #C0C0C0",
"r 	c #B3B3B3",
"s 	c #DFDFDF",
"t 	c #D1D1D1",
"u 	c #CBD2D3",
"v 	c #BCC6C8",
"w 	c #C4CBCC",
"x 	c #CDD1D2",
"y 	c #D3D6D6",
"z 	c #DCDDDD",
"A 	c #E4E5E5",
"B 	c #EBECEC",
"C 	c #E7E9E9",
"D 	c #DFE2E3",
"E 	c #CFD6D8",
"F 	c #C1CBCD",
"G 	c #B3C0C3",
"H 	c #B0BEC1",
"I 	c #ACBBBE",
"J 	c #D4D9DA",
"K 	c #9E9E9E",
"L 	c #C2C2C2",
"M 	c #B6C0C3",
"N 	c #C1C8C9",
"O 	c #C9CECF",
"P 	c #D1D3D4",
"Q 	c #D6D8D8",
"R 	c #EAEBEB",
"S 	c #EDEEEF",
"T 	c #ECEDED",
"U 	c #E8EBEB",
"V 	c #E4E8E9",
"W 	c #DBE2E4",
"X 	c #D4DDDF",
"Y 	c #CED9DB",
"Z 	c #CAD5D8",
"` 	c #CED7D9",
" .	c #808080",
"..	c #D3D3D3",
"+.	c #AEBCBF",
"@.	c #B3BEC1",
"#.	c #BEC5C7",
"$.	c #C7CCCD",
"%.	c #D2D5D6",
"&.	c #DDDFDF",
"*.	c #E6E7E8",
"=.	c #EAECED",
"-.	c #EAECEC",
";.	c #E7EAEB",
">.	c #E3E7E8",
",.	c #DCE2E3",
"'.	c #D7DFE0",
").	c #D2DBDD",
"!.	c #A5A5A5",
"~.	c #838383",
"{.	c #BCBCBC",
"].	c #BAC1C2",
"^.	c #ADB9BC",
"/.	c #BCC3C5",
"(.	c #CDD2D4",
"_.	c #DBDFE0",
":.	c #E0E3E4",
"<.	c #E3E6E7",
"[.	c #E9EBEB",
"}.	c #E9EBEC",
"|.	c #E1E5E6",
"1.	c #D8DDDE",
"2.	c #CAD0D1",
"3.	c #B8BBBC",
"4.	c #898989",
"5.	c #9F9F9F",
"6.	c #BFBFBF",
"7.	c #B1B1B1",
"8.	c #B4B8B8",
"9.	c #B2B8BA",
"0.	c #C3C9CA",
"a.	c #D2D6D7",
"b.	c #D7DCDD",
"c.	c #D9DEDF",
"d.	c #DFE4E5",
"e.	c #E3E7E7",
"f.	c #E4E5E6",
"g.	c #DADCDC",
"h.	c #C9CBCB",
"i.	c #B9BABB",
"j.	c #A3A3A3",
"k.	c #CECECE",
"l.	c #C8C8C8",
"m.	c #A4A4A4",
"n.	c #A2A2A2",
"o.	c #B2B4B4",
"p.	c #B6B9BA",
"q.	c #B2B7B8",
"r.	c #B4BABB",
"s.	c #B3B9BB",
"t.	c #B9BFC1",
"u.	c #C7CBCC",
"v.	c #D2D4D4",
"w.	c #D8D9D9",
"x.	c #D7D7D8",
"y.	c #CCCDCD",
"z.	c #BDBDBD",
"A.	c #BBBBBB",
"B.	c #B6B6B6",
"C.	c #C9C9C9",
"D.	c #9B9B9B",
"E.	c #8C8C8C",
"F.	c #929292",
"G.	c #979797",
"H.	c #A1A1A1",
"I.	c #ABABAB",
"J.	c #B5B5B5",
"K.	c #C4C4C4",
"L.	c #CDCDCD",
"M.	c #C3C3C3",
"N.	c #B4B4B4",
"O.	c #B8B8B8",
"P.	c #9C9C9C",
"Q.	c #8A8A8A",
"R.	c #868686",
"S.	c #828282",
"T.	c #8E8E8E",
"U.	c #A9A9A9",
"V.	c #D9D9D9",
"W.	c #E1E1E1",
"X.	c #DBDBDB",
"Y.	c #D7D7D7",
"Z.	c #DEDEDE",
"`.	c #CCCCCC",
" +	c #AEAEAE",
".+	c #CFCFCF",
"++	c #E9E9E9",
"@+	c #F0F0F0",
"#+	c #8B8B8B",
"$+	c #EAEAEA",
"%+	c #B2B2B2",
"&+	c #767676",
"*+	c #717171",
"=+	c #6C6C6C",
"-+	c #7C7C7C",
";+	c #9D9D9D",
">+	c #A8A8A8",
",+	c #C5C5C5",
"'+	c #E4E4E4",
")+	c #E5EAEE",
"!+	c #B5C7D3",
"~+	c #BECAD3",
"{+	c #FEFEFE",
"]+	c #5D5D5D",
"^+	c #3E3E3F",
"/+	c #75838C",
"(+	c #1E6595",
"_+	c #00518C",
":+	c #C2CFD7",
"<+	c #818181",
"[+	c #403F40",
"}+	c #616060",
"|+	c #C3C0BE",
"1+	c #B4B6B7",
"2+	c #6A8DA4",
"3+	c #00538E",
"4+	c #1E6698",
"5+	c #B4C7D4",
"6+	c #FBFBFC",
"7+	c #FDFDFD",
"8+	c #F7F7F7",
"9+	c #B3B2B2",
"0+	c #5C5753",
"a+	c #384F5E",
"b+	c #246996",
"c+	c #005997",
"d+	c #557F9D",
"e+	c #E6EBEE",
"f+	c #B9B9B9",
"g+	c #D5D6D7",
"h+	c #5E869F",
"i+	c #005793",
"j+	c #00568F",
"k+	c #365A6F",
"l+	c #8B8A8A",
"m+	c #F9F9F9",
"n+	c #D4D8DB",
"o+	c #3B7BA7",
"p+	c #005697",
"q+	c #548CB0",
"r+	c #899299",
"s+	c #554D49",
"t+	c #4C4B4B",
"u+	c #EFEAE4",
"v+	c #F5F5F5",
"w+	c #DEBFA1",
"x+	c #E4DEDA",
"y+	c #5298C7",
"z+	c #006DB7",
"A+	c #8CAABC",
"B+	c #BEC0C1",
"C+	c #6B6B6B",
"D+	c #616161",
"E+	c #D9D9DA",
"F+	c #E1D0C2",
"G+	c #B5671F",
"H+	c #E28735",
"I+	c #EA8F3C",
"J+	c #D1C7BF",
"K+	c #3788C0",
"L+	c #5295C0",
"M+	c #7B7B7B",
"N+	c #C6C5C5",
"O+	c #46484A",
"P+	c #CAC5C1",
"Q+	c #D8B99C",
"R+	c #B65803",
"S+	c #B87436",
"T+	c #E5E5E5",
"U+	c #D6BAA0",
"V+	c #F97E0E",
"W+	c #FE8617",
"X+	c #807B67",
"Y+	c #76A4C4",
"Z+	c #ADADAD",
"`+	c #3E4248",
" @	c #9A6536",
".@	c #BF5B01",
"+@	c #BD814D",
"@@	c #EAE6E3",
"#@	c #D8C6B4",
"$@	c #EF8C33",
"%@	c #FF8407",
"&@	c #CA8E51",
"*@	c #989491",
"=@	c #9A9A9A",
"-@	c #F2F2F1",
";@	c #C3B5A7",
">@	c #393E42",
",@	c #95551A",
"'@	c #D2AD8C",
")@	c #F7F5F4",
"!@	c #F1F1F1",
"~@	c #707070",
"{@	c #696969",
"]@	c #747474",
"^@	c #AFA9A5",
"/@	c #CF8C4C",
"(@	c #FF8406",
"_@	c #EF9036",
":@	c #D1BFAC",
"<@	c #EAE2DA",
"[@	c #D6A478",
"}@	c #9B571A",
"|@	c #373D43",
"1@	c #C7B8AB",
"2@	c #6998B9",
"3@	c #8D7B63",
"4@	c #FE8917",
"5@	c #FF8C16",
"6@	c #DB791C",
"7@	c #C76205",
"8@	c #9B6B3F",
"9@	c #3A4045",
"0@	c #D8D8D9",
"a@	c #6096BA",
"b@	c #5192C0",
"c@	c #EFE3D9",
"d@	c #F69B43",
"e@	c #D97415",
"f@	c #D8BFA8",
"g@	c #38393A",
"h@	c #DBE2E7",
"i@	c #8BAEC6",
"j@	c #FAF4EE",
"k@	c #F1E5DA",
"l@	c #CECFD0",
"                                                                ",
"                                                                ",
"                      . + @ # $ % # & * = -                     ",
"                  ; > , ' ) = ! ~ { ] ^ / ( _ :                 ",
"              < [ & ^ } | } ; 1 2 3 4 5 6 7 ) 8 , 9             ",
"            0 ) a b c d e f g h i j k l m n o p q r             ",
"            s t u v w x y z A B B C D E F G H I J K L           ",
"            % * G M N O P Q f R S T U V W X Y Z ` 8  .          ",
"            % ..+.@.#.$.%.&.*.T 2 =.-.;.>.,.'.).E !.~.          ",
"            ( {.].^./.(._.:.<.3 3 [.-.}.3 |.1.2.3.4.5.          ",
"            6.q 7.8.9.0.a.b.c.d.|.e.7 } f.g.h.i.j.5. .          ",
"            6.k.l.m.n.o.p.q.r.s.t.u.v.w.x.y.z.( A.B.~.          ",
"            C.z.a $ D.E.F.G.H.I.J.z.K.L.t a [ M.{.N.5.          ",
"            6.{.L @ / O.P.Q.R.S.T.U.$ V.W.X.$ Y.Z.5. .          ",
"            6.`.M. +Y.Z.& .+.+t X.+ = : ++! @+= A.B.~.          ",
"            C.z.a % E.#+I.l...{ ~ h ] $++++++ M.{.N.5.          ",
"            6.{.L @ / %+T.&+*+=+-+;+L Y.^ X.$ Y.Z.5. .          ",
"            6.`.M. +Y.Z.& .+.+t X.+ = : ++! @+= A.B.~.          ",
"            C.z.a % E.#+I.l...{ ~ h & >+,+'++ M.{.N.5.)+!+~+{+  ",
"            6.{.L @ / %+T.&+*+=+-+;+6.]+^+S.6.Y.Z.5./+(+_+:+    ",
"          0 z.`.M. +Y.Z.& .+.+t X.+ = & <+[+}+|+1+2+3+4+5+6+    ",
"      7+8+h q z.a % E.#+I.l...{ ~ h ] $+= 9+0+a+b+c+d+e+        ",
"    7+8+{ s f+{.L @ / %+T.&+*+=+-+;+L Y.^ g+h+i+j+k+l+          ",
"  7+m+h W.V.O.`.M. +Y.Z.& .+.+t X.+ = : n+o+p+q+r+s+t+7.0     u+",
"  0 v+++s V.L z.a % E.#+I.l...{ ~ w+x+$+y+z+A+B+{.G.C+D+E+  F+G+",
"  0 v+++W.X...{.L @ / %+T.&+*+=+-+H+I+J+K+L+$ Y.L M+N+O+P+Q+R+S+",
"  7+m+1 T+) Y.t M. +Y.Z.& .+.+t X.U+V+W+X+Y+[ Z+R.I.x.`+ @.@+@@@",
"    7+8+h [ V.& a % E.#+I.l...{ ~ h #@$@%@&@*@=@B.-@;@>@,@'@)@  ",
"      7+m+!@] ) ..t @ %+T.&+~@{@]@#+m.^@/@(@_@:@<@[@}@|@1@      ",
"          7+m+~ ++s @ # K.,+l..+X.^ s W.2@3@4@5@6@7@8@9@0@      ",
"              7+0 m+v+~ !@1 1 !@!@~ v+m+a@b@c@d@e@f@# g@a       ",
"                                        h@i@  j@k@  l@Z+0       "};
