# This file uses inches as units for non-parametric coordinates.

mtllib 113.mtl
g default
v 0.310552 -2.185429 0.467957
v 0.310552 -2.162497 0.481197
v 0.310552 -2.149054 0.481197
v 0.310552 -2.126122 0.418193
v 0.310552 -2.149054 0.404954
v 0.310552 -2.136421 0.409552
v 0.310552 -2.175130 0.409552
v 0.310552 -2.192151 0.429836
v 0.310552 -2.185429 0.418193
v 0.307972 -2.256346 0.501140
v 0.310552 -2.192151 0.456315
v 0.310552 -2.175130 0.476599
v 0.307972 -2.213840 0.543646
v 0.310552 -2.136421 0.476599
v 0.307972 -2.097711 0.543646
v 0.310552 -2.126122 0.467957
v 0.310552 -2.119400 0.456315
v 0.307972 -2.073660 0.525191
v 0.310552 -2.117066 0.443075
v 0.310552 -2.119400 0.429836
v 0.307972 -2.055205 0.385011
v 0.307972 -2.073660 0.360960
v 0.310552 -2.162497 0.404954
v 0.307972 -2.185832 0.330903
v 0.307972 -2.155775 0.326946
v 0.310552 -2.194485 0.443075
v 0.307972 -2.237891 0.525191
v -0.079124 -2.357530 0.603983
v 0.307972 -2.185832 0.555247
v -0.079124 -2.267735 0.675587
v -0.079124 -2.043816 0.675587
v -0.079124 -2.316683 0.644830
v -0.079124 -1.954021 0.603983
v -0.079124 -1.994868 0.644830
v 0.307972 -2.055205 0.501140
v 0.307972 -2.043604 0.473132
v -0.079124 -1.923264 0.555035
v 0.307972 -2.039647 0.443075
v -0.079124 -1.897711 0.443075
v 0.307972 -2.043604 0.413019
v -0.079124 -1.923264 0.331116
v 0.307972 -2.097711 0.342505
v -0.079124 -1.994868 0.241321
v -0.079124 -1.954021 0.282167
v -0.079124 -2.098347 0.191485
v 0.307972 -2.125719 0.330903
v -0.079124 -2.043816 0.210563
v -0.079124 -2.155775 0.185011
v -0.079124 -2.213204 0.191485
v -0.079124 -2.267735 0.210563
v 0.307972 -2.213840 0.342505
v -0.079124 -2.316683 0.241321
v 0.307972 -2.237891 0.360960
v -0.079124 -2.357530 0.282167
v 0.307972 -2.256346 0.385011
v 0.307972 -2.267947 0.413019
v -0.079124 -2.388287 0.331116
v 0.307972 -2.271904 0.443075
v -0.079124 -2.407366 0.385647
v 0.307972 -2.267947 0.473132
v -0.079124 -1.904185 0.385647
v -0.079124 -2.413839 0.443075
v -0.079124 -2.117865 0.624302
v -0.079124 -2.094414 0.552189
v -0.079124 -2.091259 0.572107
v -0.079124 -1.904185 0.500503
v -0.079124 -2.103581 0.534197
v -0.079124 -2.117865 0.519912
v -0.079124 -2.135857 0.510746
v -0.079124 -2.094414 0.592025
v -0.079124 -2.103581 0.610017
v -0.079124 -2.135857 0.633469
v -0.079124 -2.388287 0.555035
v -0.079124 -2.193686 0.519912
v -0.079124 -2.175693 0.510746
v -0.079124 -2.220291 0.572107
v -0.079124 -2.217137 0.552189
v -0.079124 -2.217137 0.592025
v -0.079124 -2.207970 0.610017
v -0.079124 -2.175693 0.633469
v -0.079124 -2.155775 0.636623
v -0.079124 -2.193686 0.624302
v -0.079124 -2.207970 0.534197
v -0.079124 -2.407366 0.500503
v -0.079124 -2.155775 0.507591
v 0.188078 -2.131562 0.601323
v 0.180142 -2.136240 0.604900
v 0.171551 -2.151516 0.609170
v 0.174457 -2.143223 0.607682
v -0.079124 -2.155775 0.701139
v 0.171572 -2.160158 0.609159
v 0.174447 -2.168313 0.607686
v 0.180083 -2.175260 0.604928
v -0.079124 -2.213204 0.694666
v 0.197004 -2.181582 0.597754
v 0.188036 -2.179974 0.601341
v 0.207115 -2.179518 0.594335
v 0.215492 -2.173782 0.592028
v 0.307972 -2.155775 0.559204
v 0.222810 -2.155841 0.590427
v 0.220916 -2.165478 0.590802
v 0.220929 -2.146104 0.590801
v 0.215474 -2.137752 0.592032
v 0.307972 -2.125719 0.555247
v -0.079124 -2.098347 0.694666
v 0.197004 -2.129969 0.597754
v 0.207094 -2.132024 0.594341
vn 0.999445 -0.031306 0.011394
vn 0.999445 -0.025521 0.021414
vn 0.999445 -0.028851 0.016657
vn 0.999445 -0.031306 0.011394
vn 0.999445 -0.028851 0.016657
vn 0.999445 -0.032180 0.008623
vn 0.999445 -0.025521 0.021414
vn 0.999445 -0.016657 0.028851
vn 0.999445 -0.023557 0.023557
vn 0.999445 -0.025521 0.021414
vn 0.999445 -0.023557 0.023557
vn 0.999445 -0.028851 0.016657
vn 0.999445 -0.016657 0.028851
vn 0.999445 -0.005785 0.032809
vn 0.999445 -0.016657 0.028851
vn 0.999445 -0.016657 0.028851
vn 0.999445 -0.016657 0.028851
vn 0.999445 -0.023557 0.023557
vn 0.999445 -0.005785 0.032809
vn 0.999445 -0.008623 0.032180
vn 0.999445 -0.016657 0.028851
vn 0.999445 -0.005785 0.032809
vn 0.999445 0.005785 0.032809
vn 0.999445 -0.000000 0.033315
vn 0.999445 -0.005785 0.032809
vn 0.999445 -0.000000 0.033315
vn 0.999445 -0.008623 0.032180
vn 0.999445 0.005785 0.032809
vn 0.999445 0.016657 0.028851
vn 0.999445 0.008623 0.032180
vn 0.999445 0.005785 0.032809
vn 0.999445 0.008623 0.032180
vn 0.999445 -0.000000 0.033315
vn 0.999445 0.016657 0.028851
vn 0.999445 0.025521 0.021414
vn 0.999445 0.016657 0.028851
vn 0.999445 0.016657 0.028851
vn 0.999445 0.016657 0.028851
vn 0.999445 0.008623 0.032180
vn 0.999445 0.025521 0.021414
vn 0.999445 0.023557 0.023557
vn 0.999445 0.016657 0.028851
vn 0.999445 0.025521 0.021414
vn 0.999445 0.031306 0.011394
vn 0.999445 0.028851 0.016657
vn 0.999445 0.025521 0.021414
vn 0.999445 0.028851 0.016657
vn 0.999445 0.023557 0.023557
vn 0.999445 0.031306 0.011394
vn 0.999445 0.033315 0.000000
vn 0.999445 0.032180 0.008623
vn 0.999445 0.031306 0.011394
vn 0.999445 0.032180 0.008623
vn 0.999445 0.028851 0.016657
vn 0.999445 0.033315 0.000000
vn 0.999445 0.031306 -0.011394
vn 0.999445 0.033315 0.000000
vn 0.999445 0.033315 0.000000
vn 0.999445 0.033315 0.000000
vn 0.999445 0.032180 0.008623
vn 0.999445 0.031306 -0.011394
vn 0.999445 0.032180 -0.008623
vn 0.999445 0.033315 0.000000
vn 0.999445 0.031306 -0.011394
vn 0.999445 0.025521 -0.021414
vn 0.999445 0.028851 -0.016657
vn 0.999445 0.031306 -0.011394
vn 0.999445 0.028851 -0.016657
vn 0.999445 0.032180 -0.008623
vn 0.999445 0.025521 -0.021414
vn 0.999445 0.016657 -0.028851
vn 0.999445 0.023557 -0.023557
vn 0.999445 0.025521 -0.021414
vn 0.999445 0.023557 -0.023557
vn 0.999445 0.028851 -0.016657
vn 0.999445 0.016657 -0.028851
vn 0.999445 0.005785 -0.032809
vn 0.999445 0.016657 -0.028851
vn 0.999445 0.016657 -0.028851
vn 0.999445 0.016657 -0.028851
vn 0.999445 0.023557 -0.023557
vn 0.999445 0.005785 -0.032809
vn 0.999445 0.008623 -0.032180
vn 0.999445 0.016657 -0.028851
vn 0.999445 0.005785 -0.032809
vn 0.999445 -0.005785 -0.032809
vn 0.999445 -0.000000 -0.033315
vn 0.999445 0.005785 -0.032809
vn 0.999445 -0.000000 -0.033315
vn 0.999445 0.008623 -0.032180
vn 0.999445 -0.005785 -0.032809
vn 0.999445 -0.016657 -0.028851
vn 0.999445 -0.008623 -0.032180
vn 0.999445 -0.005785 -0.032809
vn 0.999445 -0.008623 -0.032180
vn 0.999445 -0.000000 -0.033315
vn 0.999445 -0.016657 -0.028851
vn 0.999445 -0.025521 -0.021414
vn 0.999445 -0.016657 -0.028851
vn 0.999445 -0.016657 -0.028851
vn 0.999445 -0.016657 -0.028851
vn 0.999445 -0.008623 -0.032180
vn 0.999445 -0.025521 -0.021414
vn 0.999445 -0.023557 -0.023557
vn 0.999445 -0.016657 -0.028851
vn 0.999445 -0.025521 -0.021414
vn 0.999445 -0.031306 -0.011394
vn 0.999445 -0.028851 -0.016657
vn 0.999445 -0.025521 -0.021414
vn 0.999445 -0.028851 -0.016657
vn 0.999445 -0.023557 -0.023557
vn 0.999445 -0.031306 -0.011394
vn 0.999445 -0.033315 0.000000
vn 0.999445 -0.032180 -0.008623
vn 0.999445 -0.031306 -0.011394
vn 0.999445 -0.032180 -0.008623
vn 0.999445 -0.028851 -0.016657
vn 0.999445 -0.031306 0.011394
vn 0.999445 -0.033315 0.000000
vn 0.999445 -0.033315 0.000000
vn 0.999445 -0.031306 0.011394
vn 0.999445 -0.032180 0.008623
vn 0.999445 -0.033315 0.000000
vn 0.999445 -0.033315 0.000000
vn 0.999445 -0.033315 0.000000
vn 0.999445 -0.032180 -0.008623
vn 0.344255 -0.906885 0.242999
vn 0.344255 -0.813091 0.469438
vn 0.344255 -0.845898 0.407363
vn 0.344255 -0.906885 0.242999
vn 0.344255 -0.845898 0.407363
vn 0.344255 -0.915337 0.208920
vn 0.344255 -0.813091 0.469438
vn 0.344255 -0.663886 0.663886
vn 0.344255 -0.734043 0.585380
vn 0.344255 -0.813091 0.469438
vn 0.344255 -0.734043 0.585380
vn 0.344255 -0.845898 0.407363
vn 0.344255 -0.663886 0.663886
vn 0.344255 -0.469438 0.813091
vn 0.344255 -0.585380 0.734043
vn 0.344255 -0.663886 0.663886
vn 0.344255 -0.585380 0.734043
vn 0.344255 -0.734043 0.585380
vn 0.344255 -0.469438 0.813091
vn 0.344255 -0.242999 0.906885
vn 0.344255 -0.407363 0.845898
vn 0.344255 -0.469438 0.813091
vn 0.344255 -0.407363 0.845898
vn 0.344255 -0.585380 0.734043
vn 0.344255 -0.242999 0.906885
vn 0.344255 -0.208920 0.915337
vn 0.344255 -0.407363 0.845898
vn -1.000000 0.000000 -0.000000
vn -1.000000 0.000000 -0.000000
vn -1.000000 0.000000 -0.000000
vn 0.344255 0.242999 0.906885
vn 0.344255 0.469438 0.813091
vn 0.344255 0.407363 0.845898
vn -1.000000 0.000000 -0.000000
vn -1.000000 0.000000 -0.000000
vn -1.000000 0.000000 -0.000000
vn 0.344255 0.242999 0.906885
vn 0.344255 0.407363 0.845898
vn 0.344255 0.208920 0.915337
vn -1.000000 0.000000 -0.000000
vn -1.000000 0.000000 -0.000000
vn -1.000000 0.000000 -0.000000
vn 0.344255 0.469438 0.813091
vn 0.344255 0.663886 0.663886
vn 0.344255 0.585380 0.734043
vn -1.000000 0.000000 -0.000000
vn -1.000000 0.000000 -0.000000
vn -1.000000 0.000000 -0.000000
vn 0.344255 0.469438 0.813091
vn 0.344255 0.585380 0.734043
vn 0.344255 0.407363 0.845898
vn -1.000000 0.000000 -0.000000
vn -1.000000 0.000000 -0.000000
vn -1.000000 0.000000 -0.000000
vn 0.344255 0.663886 0.663886
vn 0.344255 0.813091 0.469438
vn 0.344255 0.734043 0.585380
vn 0.344255 0.663886 0.663886
vn 0.344255 0.734043 0.585380
vn 0.344255 0.585380 0.734043
vn 0.344255 0.813091 0.469438
vn 0.344255 0.906885 0.242999
vn 0.344255 0.845898 0.407363
vn 0.344255 0.813091 0.469438
vn 0.344255 0.845898 0.407363
vn 0.344255 0.734043 0.585380
vn 0.344255 0.906885 0.242999
vn 0.344255 0.938876 0.000000
vn 0.344255 0.915337 0.208920
vn 0.344255 0.906885 0.242999
vn 0.344255 0.915337 0.208920
vn 0.344255 0.845898 0.407363
vn 0.344255 0.938876 -0.000000
vn 0.344255 0.906885 -0.242999
vn 0.344255 0.938876 -0.000000
vn 0.344255 0.938876 0.000000
vn 0.344255 0.938876 0.000000
vn 0.344255 0.915337 0.208920
vn -1.000000 0.000000 -0.000000
vn -1.000000 0.000000 -0.000000
vn -1.000000 0.000000 -0.000000
vn 0.344255 0.906885 -0.242999
vn 0.344255 0.915337 -0.208920
vn 0.344255 0.938876 -0.000000
vn 0.344255 0.906885 -0.242999
vn 0.344255 0.813091 -0.469438
vn 0.344255 0.845898 -0.407363
vn 0.344255 0.906885 -0.242999
vn 0.344255 0.845898 -0.407363
vn 0.344255 0.915337 -0.208920
vn 0.344255 0.813091 -0.469438
vn 0.344255 0.663886 -0.663886
vn 0.344255 0.734043 -0.585380
vn 0.344255 0.813091 -0.469438
vn 0.344255 0.734043 -0.585380
vn 0.344255 0.845898 -0.407363
vn 0.344255 0.663886 -0.663886
vn 0.344255 0.469438 -0.813091
vn 0.344255 0.585380 -0.734043
vn 0.344255 0.663886 -0.663886
vn 0.344255 0.585380 -0.734043
vn 0.344255 0.734043 -0.585380
vn 0.344255 0.469438 -0.813091
vn 0.344255 0.242999 -0.906885
vn 0.344255 0.407363 -0.845898
vn 0.344255 0.469438 -0.813091
vn 0.344255 0.407363 -0.845898
vn 0.344255 0.585380 -0.734043
vn 0.344255 0.242999 -0.906885
vn 0.344255 -0.000000 -0.938876
vn 0.344255 0.208920 -0.915337
vn 0.344255 0.242999 -0.906885
vn 0.344255 0.208920 -0.915337
vn 0.344255 0.407363 -0.845898
vn 0.344255 -0.000000 -0.938876
vn 0.344255 -0.242999 -0.906885
vn 0.344255 -0.000000 -0.938876
vn 0.344255 -0.000000 -0.938876
vn 0.344255 -0.000000 -0.938876
vn 0.344255 0.208920 -0.915337
vn 0.344255 -0.242999 -0.906885
vn 0.344255 -0.208920 -0.915337
vn 0.344255 -0.000000 -0.938876
vn -1.000000 0.000000 -0.000000
vn -1.000000 0.000000 -0.000000
vn -1.000000 0.000000 -0.000000
vn 0.344255 -0.242999 -0.906885
vn 0.344255 -0.469438 -0.813091
vn 0.344255 -0.407363 -0.845898
vn -1.000000 0.000000 -0.000000
vn -1.000000 0.000000 -0.000000
vn -1.000000 0.000000 -0.000000
vn 0.344255 -0.242999 -0.906885
vn 0.344255 -0.407363 -0.845898
vn 0.344255 -0.208920 -0.915337
vn -1.000000 0.000000 -0.000000
vn -1.000000 0.000000 -0.000000
vn -1.000000 0.000000 -0.000000
vn 0.344255 -0.469438 -0.813091
vn 0.344255 -0.663886 -0.663886
vn 0.344255 -0.585380 -0.734043
vn -1.000000 0.000000 -0.000000
vn -1.000000 0.000000 -0.000000
vn -1.000000 0.000000 -0.000000
vn 0.344255 -0.469438 -0.813091
vn 0.344255 -0.585380 -0.734043
vn 0.344255 -0.407363 -0.845898
vn -1.000000 0.000000 -0.000000
vn -1.000000 0.000000 -0.000000
vn -1.000000 0.000000 -0.000000
vn 0.344255 -0.663886 -0.663886
vn 0.344255 -0.813091 -0.469438
vn 0.344255 -0.734043 -0.585380
vn -1.000000 0.000000 -0.000000
vn -1.000000 0.000000 -0.000000
vn -1.000000 0.000000 -0.000000
vn 0.344255 -0.663886 -0.663886
vn 0.344255 -0.734043 -0.585380
vn 0.344255 -0.585380 -0.734043
vn -1.000000 0.000000 -0.000000
vn -1.000000 0.000000 -0.000000
vn -1.000000 0.000000 -0.000000
vn 0.344255 -0.813091 -0.469438
vn 0.344255 -0.906885 -0.242999
vn 0.344255 -0.845898 -0.407363
vn -1.000000 0.000000 -0.000000
vn -1.000000 0.000000 -0.000000
vn -1.000000 0.000000 -0.000000
vn 0.344255 -0.813091 -0.469438
vn 0.344255 -0.845898 -0.407363
vn 0.344255 -0.734043 -0.585380
vn -1.000000 0.000000 -0.000000
vn -1.000000 0.000000 -0.000000
vn -1.000000 0.000000 -0.000000
vn 0.344255 -0.906885 -0.242999
vn 0.344255 -0.938876 0.000000
vn 0.344255 -0.915337 -0.208920
vn -1.000000 0.000000 -0.000000
vn -1.000000 0.000000 -0.000000
vn -1.000000 0.000000 -0.000000
vn 0.344255 -0.906885 -0.242999
vn 0.344255 -0.915337 -0.208920
vn 0.344255 -0.845898 -0.407363
vn -1.000000 0.000000 -0.000000
vn -1.000000 0.000000 -0.000000
vn -1.000000 0.000000 -0.000000
vn 0.344255 -0.906885 0.242999
vn 0.344255 -0.938876 0.000000
vn 0.344255 -0.938876 0.000000
vn 0.344255 -0.906885 0.242999
vn 0.344255 -0.915337 0.208920
vn 0.344255 -0.938876 0.000000
vn -1.000000 0.000000 -0.000000
vn -1.000000 0.000000 -0.000000
vn -1.000000 0.000000 -0.000000
vn -1.000000 0.000000 -0.000000
vn -1.000000 0.000000 -0.000000
vn -1.000000 0.000000 -0.000000
vn 0.344255 -0.938876 0.000000
vn 0.344255 -0.938876 0.000000
vn 0.344255 -0.915337 -0.208920
vn -1.000000 0.000000 -0.000000
vn -1.000000 0.000000 -0.000000
vn -1.000000 0.000000 -0.000000
vn -1.000000 0.000000 -0.000000
vn -1.000000 0.000000 -0.000000
vn -1.000000 0.000000 -0.000000
vn -1.000000 0.000000 -0.000000
vn -1.000000 0.000000 -0.000000
vn -1.000000 0.000000 -0.000000
vn -1.000000 0.000000 -0.000000
vn -1.000000 0.000000 -0.000000
vn -1.000000 0.000000 -0.000000
vn -1.000000 0.000000 -0.000000
vn -1.000000 0.000000 -0.000000
vn -1.000000 0.000000 -0.000000
vn -1.000000 0.000000 -0.000000
vn -1.000000 0.000000 -0.000000
vn -1.000000 0.000000 -0.000000
vn -1.000000 0.000000 -0.000000
vn -1.000000 0.000000 -0.000000
vn -1.000000 0.000000 -0.000000
vn -1.000000 0.000000 -0.000000
vn -1.000000 0.000000 -0.000000
vn -1.000000 0.000000 -0.000000
vn -1.000000 0.000000 -0.000000
vn -1.000000 0.000000 -0.000000
vn -1.000000 0.000000 -0.000000
vn -1.000000 0.000000 -0.000000
vn -1.000000 0.000000 -0.000000
vn -1.000000 0.000000 -0.000000
vn -1.000000 0.000000 -0.000000
vn -1.000000 0.000000 -0.000000
vn -1.000000 0.000000 -0.000000
vn -1.000000 0.000000 -0.000000
vn -1.000000 0.000000 -0.000000
vn -1.000000 0.000000 -0.000000
vn -1.000000 0.000000 -0.000000
vn -1.000000 0.000000 -0.000000
vn -1.000000 0.000000 -0.000000
vn -1.000000 0.000000 -0.000000
vn -1.000000 0.000000 -0.000000
vn -1.000000 0.000000 -0.000000
vn -1.000000 0.000000 -0.000000
vn -1.000000 0.000000 -0.000000
vn -1.000000 0.000000 -0.000000
vn -1.000000 0.000000 -0.000000
vn -1.000000 0.000000 -0.000000
vn -1.000000 0.000000 -0.000000
vn -1.000000 0.000000 -0.000000
vn -1.000000 0.000000 -0.000000
vn -1.000000 0.000000 -0.000000
vn -1.000000 0.000000 -0.000000
vn -1.000000 0.000000 -0.000000
vn -1.000000 0.000000 -0.000000
vn -1.000000 0.000000 -0.000000
vn -1.000000 0.000000 -0.000000
vn -1.000000 0.000000 -0.000000
vn -1.000000 0.000000 -0.000000
vn -1.000000 0.000000 -0.000000
vn -1.000000 0.000000 -0.000000
vn -1.000000 0.000000 -0.000000
vn -1.000000 0.000000 -0.000000
vn -1.000000 0.000000 -0.000000
vn -1.000000 0.000000 -0.000000
vn -1.000000 0.000000 -0.000000
vn -1.000000 0.000000 -0.000000
vn -1.000000 0.000000 -0.000000
vn -1.000000 0.000000 -0.000000
vn -1.000000 0.000000 -0.000000
vn -1.000000 0.000000 -0.000000
vn -1.000000 0.000000 -0.000000
vn -1.000000 0.000000 -0.000000
vn -1.000000 0.000000 -0.000000
vn -1.000000 0.000000 -0.000000
vn -1.000000 0.000000 -0.000000
vn -1.000000 0.000000 -0.000000
vn -1.000000 0.000000 -0.000000
vn -1.000000 0.000000 -0.000000
vn -1.000000 0.000000 -0.000000
vn -1.000000 0.000000 -0.000000
vn -1.000000 0.000000 -0.000000
vn -1.000000 0.000000 -0.000000
vn -1.000000 0.000000 -0.000000
vn -1.000000 0.000000 -0.000000
vn -1.000000 0.000000 -0.000000
vn -1.000000 0.000000 -0.000000
vn -1.000000 0.000000 -0.000000
vn 0.344255 0.000000 0.938876
vn 0.344255 0.112522 0.932109
vn 0.344255 0.142007 0.928075
vn 0.344255 0.000000 0.938876
vn 0.344255 0.071390 0.936158
vn 0.344255 0.112522 0.932109
vn 0.344255 0.000000 0.938876
vn 0.344255 0.024072 0.938568
vn 0.344255 0.071390 0.936158
vn 0.344255 -0.208920 0.915337
vn 0.344255 -0.024765 0.938550
vn 0.344255 0.000000 0.938876
vn 0.344255 0.000000 0.938876
vn 0.344255 -0.024765 0.938550
vn 0.344255 0.024072 0.938568
vn 0.344255 -0.208920 0.915337
vn 0.344255 -0.071301 0.936165
vn 0.344255 -0.024765 0.938550
vn 0.344255 -0.208920 0.915337
vn 0.344255 -0.112216 0.932146
vn 0.344255 -0.071301 0.936165
vn 0.344255 -0.208920 0.915337
vn 0.344255 -0.141901 0.928091
vn 0.344255 -0.112216 0.932146
vn 0.344255 -0.242999 0.906885
vn 0.344255 -0.154505 0.926076
vn 0.344255 -0.208920 0.915337
vn 0.344255 -0.208920 0.915337
vn 0.344255 -0.154505 0.926076
vn 0.344255 -0.141901 0.928091
vn 0.344255 -0.242999 0.906885
vn 0.344255 0.000000 0.938876
vn 0.344255 -0.145610 0.927516
vn 0.344255 -0.242999 0.906885
vn 0.344255 -0.145610 0.927516
vn 0.344255 -0.154505 0.926076
vn 0.344255 0.000000 0.938876
vn 0.344255 -0.112739 0.932083
vn 0.344255 -0.145610 0.927516
vn 0.344255 0.000000 0.938876
vn 0.344255 -0.061589 0.936854
vn 0.344255 -0.112739 0.932083
vn 0.344255 0.000000 0.938876
vn 0.344255 -0.000410 0.938876
vn 0.344255 -0.061589 0.936854
vn 0.344255 0.000000 0.938876
vn 0.344255 0.242999 0.906885
vn 0.344255 0.061380 0.936868
vn 0.344255 0.000000 0.938876
vn 0.344255 0.061380 0.936868
vn 0.344255 -0.000410 0.938876
vn 0.344255 0.242999 0.906885
vn 0.344255 0.112847 0.932070
vn 0.344255 0.061380 0.936868
vn 0.344255 0.242999 0.906885
vn 0.344255 0.145657 0.927509
vn 0.344255 0.112847 0.932070
vn 0.344255 0.242999 0.906885
vn 0.344255 0.208920 0.915337
vn 0.344255 0.154505 0.926076
vn 0.344255 0.000000 0.938876
vn 0.344255 0.154505 0.926076
vn 0.344255 0.208920 0.915337
vn 0.344255 0.000000 0.938876
vn 0.344255 0.142007 0.928075
vn 0.344255 0.154505 0.926076
vn 0.344255 0.242999 0.906885
vn 0.344255 0.154505 0.926076
vn 0.344255 0.145657 0.927509
s off
g pasted__pasted__pasted__pasted__o1 comp113
usemtl pasted__pasted__pasted__pasted__OFMaterial22SG5
f 11//1 1//2 10//3
f 11//4 10//5 60//6
f 1//7 12//8 27//9
f 1//10 27//11 10//12
f 12//13 2//14 13//15
f 12//16 13//17 27//18
f 2//19 29//20 13//21
f 2//22 3//23 99//24
f 2//25 99//26 29//27
f 3//28 14//29 104//30
f 3//31 104//32 99//33
f 14//34 16//35 15//36
f 14//37 15//38 104//39
f 16//40 18//41 15//42
f 16//43 17//44 35//45
f 16//46 35//47 18//48
f 17//49 19//50 36//51
f 17//52 36//53 35//54
f 19//55 20//56 38//57
f 19//58 38//59 36//60
f 20//61 40//62 38//63
f 20//64 4//65 21//66
f 20//67 21//68 40//69
f 4//70 6//71 22//72
f 4//73 22//74 21//75
f 6//76 5//77 42//78
f 6//79 42//80 22//81
f 5//82 46//83 42//84
f 5//85 23//86 25//87
f 5//88 25//89 46//90
f 23//91 7//92 24//93
f 23//94 24//95 25//96
f 7//97 9//98 51//99
f 7//100 51//101 24//102
f 9//103 53//104 51//105
f 9//106 8//107 55//108
f 9//109 55//110 53//111
f 8//112 26//113 56//114
f 8//115 56//116 55//117
f 11//118 58//119 26//120
f 11//121 60//122 58//123
f 26//124 58//125 56//126
f 60//127 10//128 73//129
f 60//130 73//131 84//132
f 10//133 27//134 28//135
f 10//136 28//137 73//138
f 27//139 13//140 32//141
f 27//142 32//143 28//144
f 13//145 29//146 30//147
f 13//148 30//149 32//150
f 29//151 94//152 30//153
f 94//154 90//155 105//156
f 104//157 15//158 31//159
f 30//160 94//161 31//162
f 104//163 31//164 105//165
f 94//166 105//167 31//168
f 15//169 18//170 34//171
f 32//172 30//173 34//174
f 15//175 34//176 31//177
f 30//178 31//179 34//180
f 18//181 35//182 33//183
f 18//184 33//185 34//186
f 35//187 36//188 37//189
f 35//190 37//191 33//192
f 36//193 38//194 66//195
f 36//196 66//197 37//198
f 38//199 40//200 39//201
f 38//202 39//203 66//204
f 84//205 66//206 39//207
f 40//208 61//209 39//210
f 40//211 21//212 41//213
f 40//214 41//215 61//216
f 21//217 22//218 44//219
f 21//220 44//221 41//222
f 22//223 42//224 43//225
f 22//226 43//227 44//228
f 42//229 46//230 47//231
f 42//232 47//233 43//234
f 46//235 25//236 45//237
f 46//238 45//239 47//240
f 25//241 24//242 48//243
f 25//244 48//245 45//246
f 24//247 49//248 48//249
f 45//250 48//251 49//252
f 24//253 51//254 50//255
f 47//256 45//257 50//258
f 24//259 50//260 49//261
f 45//262 49//263 50//264
f 51//265 53//266 52//267
f 43//268 47//269 52//270
f 51//271 52//272 50//273
f 47//274 50//275 52//276
f 53//277 55//278 54//279
f 44//280 43//281 54//282
f 53//283 54//284 52//285
f 43//286 52//287 54//288
f 55//289 56//290 57//291
f 41//292 44//293 57//294
f 55//295 57//296 54//297
f 44//298 54//299 57//300
f 56//301 58//302 59//303
f 61//304 41//305 59//306
f 56//307 59//308 57//309
f 41//310 57//311 59//312
f 60//313 62//314 58//315
f 60//316 84//317 62//318
f 84//319 39//320 62//321
f 39//322 61//323 62//324
f 58//325 62//326 59//327
f 61//328 59//329 62//330
f 34//331 33//332 72//333
f 33//334 63//335 72//336
f 33//337 71//338 63//339
f 33//340 37//341 70//342
f 33//343 70//344 71//345
f 37//346 65//347 70//348
f 37//349 66//350 64//351
f 37//352 64//353 65//354
f 66//355 67//356 64//357
f 66//358 68//359 67//360
f 66//361 69//362 68//363
f 84//364 73//365 75//366
f 73//367 74//368 75//369
f 73//370 83//371 74//372
f 73//373 77//374 83//375
f 73//376 28//377 76//378
f 73//379 76//380 77//381
f 28//382 78//383 76//384
f 28//385 32//386 79//387
f 28//388 79//389 78//390
f 32//391 82//392 79//393
f 32//394 80//395 82//396
f 32//397 34//398 81//399
f 34//400 72//401 81//402
f 32//403 81//404 80//405
f 84//406 85//407 66//408
f 66//409 85//410 69//411
f 84//412 75//413 85//414
f 90//415 87//416 86//417
f 90//418 89//419 87//420
f 90//421 88//422 89//423
f 94//424 91//425 90//426
f 90//427 91//428 88//429
f 94//430 92//431 91//432
f 94//433 93//434 92//435
f 94//436 96//437 93//438
f 29//439 95//440 94//441
f 94//442 95//443 96//444
f 29//445 99//446 97//447
f 29//448 97//449 95//450
f 99//451 98//452 97//453
f 99//454 101//455 98//456
f 99//457 100//458 101//459
f 99//460 104//461 102//462
f 99//463 102//464 100//465
f 104//466 103//467 102//468
f 104//469 107//470 103//471
f 104//472 105//473 106//474
f 90//475 106//476 105//477
f 90//478 86//479 106//480
f 104//481 106//482 107//483
