/* XPM */
static char * APECS[] = {
"61 61 37 1",
" 	c #030303",
".	c #000000",
"+	c #020202",
"@	c #090909",
"#	c #040404",
"$	c #060606",
"%	c #010101",
"&	c #FDFDFD",
"*	c #FFFFFF",
"=	c #F3F3F3",
"-	c #F9F9F9",
";	c #FEFEFE",
">	c #FAFAFA",
",	c #FBFBFB",
"'	c #050505",
")	c #F1F1F1",
"!	c #FCFCFC",
"~	c #151515",
"{	c #F7F7F7",
"]	c #0C0C0C",
"^	c #F5F5F5",
"/	c #F8F8F8",
"(	c #F6F6F6",
"_	c #F4F4F4",
":	c #EFEFEF",
"<	c #070707",
"[	c #ECECEC",
"}	c #0F0F0F",
"|	c #080808",
"1	c #F2F2F2",
"2	c #181818",
"3	c #EEEEEE",
"4	c #F0F0F0",
"5	c #121212",
"6	c #111111",
"7	c #0A0A0A",
"8	c #0E0E0E",
" ..+@.#$.................................................%++.",
" &*=*-;>************************************************;**,'",
".*)!*!*&************************************************;>>*.",
"~!{*{**!&&&&&&&&&&&&&&&&&&&&&&&&&&&&&&&&&&&&&&&&&&&&&&&&,*&=~",
".{*-&*=*************************************************{*&*.",
"]*^^*/(**************************************************;(*.",
".**!,&*_;;;;;;;;;;;;;;;;;;;;;;;;;;;;;;;;;;;;;;;;;;;;;;;;,**{]",
"+&*&-;(*************************************************!*;&+",
"%*****&*****************************************************%",
"%*****&*****************************************************%",
"%*****&*****************************************************%",
"%*****&*****************************************************%",
"%*****&*****************************************************%",
"%*****&*****************************************************%",
"%*****&*****************************************************%",
"%*****&*****************************************************%",
"%*****&*****************************************************%",
"%*****&*****************************************************%",
"%*****&*****************************************************%",
"%*****&*****************************************************%",
"%*****&*****************************************************%",
"%*****&*****************************************************%",
"%*****&*****************************************************%",
"%*****&*****************************************************%",
"%*****&*****************************************************%",
"%*****&*****************************************************%",
"%*****&*****************************************************%",
"%*****&*****************************************************%",
"%*****&*****************************************************%",
"%*****&*****************************************************%",
"%*****&*****************************************************%",
"%*****&*****************************************************%",
"%*****&*****************************************************%",
"%*****&*****************************************************%",
"%*****&*****************************************************%",
"%*****&*****************************************************%",
"%*****&*****************************************************%",
"%*****&*****************************************************%",
"%*****&*****************************************************%",
"%*****&*****************************************************%",
"%*****&*****************************************************%",
"%*****&*****************************************************%",
"%*****&*****************************************************%",
"%*****&*****************************************************%",
"%*****&*****************************************************%",
"%*****&*****************************************************%",
"%*****&*****************************************************%",
"%*****&*****************************************************%",
"%*****&*********;*:*,****>**//*&;*^,*,*&**{*__;!************%",
"%*****&*********{-*(*;-,!*!{***,**;;!****(*/**)*************%",
"%*****&***********.,*^$.+.*-....%+,*..%>&<..*{*;************%",
"%*****&*********[*+*>,;.*^%;>%**;#!.;*}*.** ,//;************%",
"%*****&**********.*@!{-<_*+*{+/.*=*|>*=&$1*{*-**************%",
"%*****&*********!.*.**-@*&.**.+}!*-.*1***%'*(*=;************%",
"%*****&*********;}.](,*...*,-.{.*>)2:***,*>.!**;************%",
"%*****&*********./!*./* *:**/$*-*.*.**.* &>#*-*&************%",
"+,*!*!{*-&&&&**...*>+#. .*;-.+.%%.*>..;,#%.&*;1**********,**.",
".*>*,**>**;**3!>**,*4*****=**&*,/&*3*&***;**/**(;;;;;;;;**&;%",
" !{*/!*!&&,{(*:*4&{**,*^*&**)*1***;&-!>(*3*_=!/*********&*;!#",
".!*^>*(&**,*_**:***1**-*=*{*!**=>*&*;****;^***!;!!!!!!!!;;>*.",
"'..5 .6..}. ..|7.]..6.. +}'+#.8%. $%....%<..<.'%%%%%%%%%+.'.6"};
