/* XPM */
static char * aplusproduct_aplusproduct_arrow[] = {
"85 41 3 1",
" 	c None",
".	c #000000",
"+	c #FFFFFF",
"                                        ..                                           ",
"                                        .+..                                         ",
"                                        .+++..                                       ",
"                                        .+++++..                                     ",
"                                        .+++++++..                                   ",
"                                        .+++++++++...                                ",
"                                        .++++++++++++..                              ",
"                                        .++++++++++++++..                            ",
"                                        .++++++++++++++++..                          ",
"                                        .++++++++++++++++++..                        ",
".........................................++++++++++++++++++++...                     ",
".+++++++++++++++++++++++++++++++++++++++++++++++++++++++++++++++..                   ",
".+++++++++++++++++++++++++++++++++++++++++++++++++++++++++++++++++..                 ",
".+++++++++++++++++++++++++++++++++++++++++++++++++++++++++++++++++++..               ",
".+++++++++++++++++++++++++++++++++++++++++++++++++++++++++++++++++++++..             ",
".+++++++++++++++++++++++++++++++++++++++++++++++++++++++++++++++++++++++...          ",
".++++++++++++++++++++++++++++++++++++++++++++++++++++++++++++++++++++++++++..        ",
".++++++++++++++++++++++++++++++++++++++++++++++++++++++++++++++++++++++++++++..      ",
".++++++++++++++++++++++++++++++++++++++++++++++++++++++++++++++++++++++++++++++..    ",
".++++++++++++++++++++++++++++++++++++++++++++++++++++++++++++++++++++++++++++++++..  ",
".++++++++++++++++++++++++++++++++++++++++++++++++++++++++++++++++++++++++++++++++++..",
".++++++++++++++++++++++++++++++++++++++++++++++++++++++++++++++++++++++++++++++++..  ",
".++++++++++++++++++++++++++++++++++++++++++++++++++++++++++++++++++++++++++++++..    ",
".++++++++++++++++++++++++++++++++++++++++++++++++++++++++++++++++++++++++++++..      ",
".++++++++++++++++++++++++++++++++++++++++++++++++++++++++++++++++++++++++++..        ",
".+++++++++++++++++++++++++++++++++++++++++++++++++++++++++++++++++++++++...          ",
".+++++++++++++++++++++++++++++++++++++++++++++++++++++++++++++++++++++..             ",
".+++++++++++++++++++++++++++++++++++++++++++++++++++++++++++++++++++..               ",
".+++++++++++++++++++++++++++++++++++++++++++++++++++++++++++++++++..                 ",
".+++++++++++++++++++++++++++++++++++++++++++++++++++++++++++++++..                   ",
".........................................++++++++++++++++++++...                     ",
"                                        .++++++++++++++++++..                        ",
"                                        .++++++++++++++++..                          ",
"                                        .++++++++++++++..                            ",
"                                        .++++++++++++..                              ",
"                                        .+++++++++...                                ",
"                                        .+++++++..                                   ",
"                                        .+++++..                                     ",
"                                        .+++..                                       ",
"                                        .+..                                         ",
"                                        ..                                           "};
