/* XPM */
static char *ccd_ccd_block[] = {
/* columns rows colors chars-per-pixel */
"61 61 5 1",
"  c black",
". c #010101",
"X c #FDFDFD",
"o c #FEFEFE",
"O c gray100",
/* pixels */
".............................................................",
".ooooooooooooooooooooooooooooooooooooooooooooooooooooooooooo.",
".ooooooooooooooooooooooooooooooooooooooooooooooooooooooooooo.",
".ooooooooooooooooooooooooooooooooooooooooooooooooooooooooooo.",
".ooooooooooooooooooooooooooooooooooooooooooooooooooooooooooo.",
".ooooooooooooooooooooooooooooooooooooooooooooooooooooooooooo.",
".ooooooooooooooooooooooooooooooooooooooooooooooooooooooooooo.",
".ooooooooooooooooooooooooooooooooooooooooooooooooooooooooooo.",
".ooooooooooooooooooooooooooooooooooooooooooooooooooooooooooo.",
".ooooooooooooooooooooooooooooooooooooooooooooooooooooooooooo.",
".ooooooooooooooooooooooooooooooooooooooooooooooooooooooooooo.",
".ooooooooooooooooooooooooooooooooooooooooooooooooooooooooooo.",
".ooooooooooooooooooooooooooooooooooooooooooooooooooooooooooo.",
".ooooooooooooooooooooooooooooooooooooooooooooooooooooooooooo.",
".ooooooooooooooooooooooooooooooooooooooooooooooooooooooooooo.",
".ooooooooooooooooooooooooooooooooooooooooooooooooooooooooooo.",
".ooooooooooooooooooooooooooooooooooooooooooooooooooooooooooo.",
".ooooooooooooooooooooooooooooooooooooooooooooooooooooooooooo.",
".ooooooooooooooooooooooooooooooooooooooooooooooooooooooooooo.",
".ooooooooooooooooooooooooooooooooooooooooooooooooooooooooooo.",
".ooooooooooooooooooooooooooooooooooooooooooooooooooooooooooo.",
".ooooooooooooooooooooooooooooooooooooooooooooooooooooooooooo.",
".ooooooooooooooooooooooooooooooooooooooooooooooooooooooooooo.",
".ooooooooooooooooooooooooooooooooooooooooooooooooooooooooooo.",
".ooooooooooooooooooooooooooooooooooooooooooooooooooooooooooo.",
".ooooooooooooooooooooooooooooooooooooooooooooooooooooooooooo.",
".ooooooooooooooooooooooooooooooooooooooooooooooooooooooooooo.",
".ooooooooooooooooooooooooooooooooooooooooooooooooooooooooooo.",
".ooooooooooooooooooooooooooooooooooooooooooooooooooooooooooo.",
".ooooooooooooooooooooooooooooooooooooooooooooooooooooooooooo.",
".ooooooooooooooooooooooooooooooooooooooooooooooooooooooooooo.",
".ooooooooooooooooooooooooooooooooooooooooooooooooooooooooooo.",
".ooooooooooooooooooooooooooooooooooooooooooooooooooooooooooo.",
".ooooooooooooooooooooooooooooooooooooooooooooooooooooooooooo.",
".ooooooooooooooooooooooooooooooooooooooooooooooooooooooooooo.",
".ooooooooooooooooooooooooooooooooooooooooooooooooooooooooooo.",
".ooooooooooooooooooooooooooooooooooooooooooooooooooooooooooo.",
".ooooooooooooooooooooooooooooooooooooooooooooooooooooooooooo.",
".ooooooooooooooooooooooooooooooooooooooooooooooooooooooooooo.",
".ooooooooooooooooooooooooooooooooooooooooooooooooooooooooooo.",
".ooooooooooooooooooooooooooooooooooooooooooooooooooooooooooo.",
".ooooooooooooooooooooooooooooooooooooooooooooooooooooooooooo.",
".ooooooooooooooooooooooooooooooooooooooooooooooooooooooooooo.",
".ooooooooooooooooooooooooooooooooooooooooooooooooooooooooooo.",
".ooooooooooooooooooooooooooooooooooooooooooooooooooooooooooo.",
".ooooooooooooooooooooooooooooooooooooooooooooooooooooooooooo.",
".ooooooooooooooooooooooooooooooooooooooooooooooooooooooooooo.",
".ooooooooooooooooooooooooooooooooooooooooooooooooooooooooooo.",
".ooooooooooooooooooooooooooooooooooooooooooooooooooooooooooo.",
".ooooooooooooooooooooooooooooooooooooooooooooooooooooooooooo.",
".ooooooooooooooooooooo...ooo...o....oooooooooooooooooooooooo.",
".oooooooooooooooooooo.oo.oo.oo.oo.oo.ooooooooooooooooooooooo.",
".oooooooooooooooooooo.ooooo.ooooo.ooo.oooooooooooooooooooooo.",
".oooooooooooooooooooo.ooooo.ooooo.ooo.oooooooooooooooooooooo.",
".oooooooooooooooooooo.ooooo.ooooo.ooo.oooooooooooooooooooooo.",
".oooooooooooooooooooo.oo.oo.oo.oo.oo.ooooooooooooooooooooooo.",
".ooooooooooooooooooooo..oooo..oo....oooooooooooooooooooooooo.",
".ooooooooooooooooooooooooooooooooooooooooooooooooooooooooooo.",
".ooooooooooooooooooooooooooooooooooooooooooooooooooooooooooo.",
".ooooooooooooooooooooooooooooooooooooooooooooooooooooooooooo.",
"............................................................."
};
