/* XPM */
static char *clchng_clchng_icon1[] = {
/* columns rows colors chars-per-pixel */
"53 33 71 1",
"  c #010100",
". c #272725",
"X c #272822",
"o c #282723",
"O c #282824",
"+ c #4A4A44",
"@ c #4B4A48",
"# c #57574F",
"$ c #58584E",
"% c #585752",
"& c #595951",
"* c #6F706A",
"= c #707065",
"- c #717169",
"; c #7B7C6E",
": c #7C7C70",
"> c #8D8E7E",
", c #8D8E81",
"< c #8E8D88",
"1 c #8F9081",
"2 c #908E81",
"3 c #909183",
"4 c #96978A",
"5 c #979886",
"6 c #979889",
"7 c #989987",
"8 c #989989",
"9 c #979890",
"0 c #989890",
"q c #A8AA97",
"w c #A9A999",
"e c #AFB09E",
"r c #B1B19E",
"t c #A8AAA0",
"y c #B1B1A0",
"u c #B1B1A8",
"i c #BFC0AC",
"p c #BFC0B0",
"a c #C1C1AD",
"s c #C1C1B2",
"d c #C6C7BB",
"f c #C7C8B8",
"g c #C8C6B4",
"h c #C8C6BA",
"j c #C9C8B3",
"k c #C9C8B9",
"l c #D6D5BF",
"z c #D6D5C1",
"x c #D6D4C9",
"c c #D8D6C2",
"v c #D8D6C9",
"b c #DCDBC6",
"n c #DCDBCA",
"m c #DCDCD0",
"M c #E6E5D3",
"N c #E6E5DA",
"B c #E7E8D9",
"V c #E8E6D3",
"C c #E8E6D9",
"Z c #E9E8D4",
"A c #EDECDC",
"S c #ECECE1",
"D c #F6F6EC",
"F c #F7F8E9",
"G c #F8F7E3",
"H c #F9F6EA",
"J c #F9F8E4",
"K c #F9F8EB",
"L c #F7F6F1",
"P c #FFFFF7",
"I c #FEFEFC",
/* pixels */
"   III   III   III   III   III   III   III   III   II",
"I@@@@+@++@+++@@@+++@@++++@@@++@++@++@@@@++@@@@@++@@@I",
"I%%%&&#&$$$$##&&&##&%&&&#%%&&&#%$$&%#$$&&&#$$$$$$%&% ",
"I**-===-==========-=-=--==-========-==========-===-* ",
" ::::::;:;;;;;::;;:::::::;:;::;;;;::;;;:;::::;;::::: ",
" <<2,,,,>22,>222>,11,,,,22>,,,,>>>,,,222,,32,,,,,,<<I",
" 997777897777787888846448866668878897748888888884649I",
"ItwwwwwwwwwwwwwewwwwwwwwwqwwwwwwwwwwwwwwqwwwwwwwwwwtI",
"Iuuurrryyryrrrrrrryryyyyrryyrrreyyyyeyyyyyyyyryrrruu ",
"Iuagaaaaaaaaaaaaaaaaaaaaaasaaaaaaaaaaaapaaaaaaaaaafu ",
" hkjggjjjjjjgjggjjjjjjggjjkjjjjjjhjhjgggjjjjjjjjjfkk ",
" vccccclllccllclllclclccccczzlbzlcvvcllcccclccllzccvI",
" mnnnbbbbbbbbbbbbbbbbnbmn bbbbbbbnm nnnbbbbbbbbbbbnmI",
"ISMMVMVVZZVZVZVZZZZVZZZC ZZZZVZZCC CCMCMVVVVVZZVVBBNI",
"ISSAAAAAAAZAAAAAAAAASAA GAAZAAAAS SSASAAAAAAAAAAAASS ",
"ILDDFFHHFFHHFFFJHHHHHK HGGJJJJHJ LKDDFHHFHJJHHHHFFKD ",
"                      KJJJJJJJK                      ",
" SSSSAGASASSSASSSSHS SAAAAAAAA SAASSSSSASASAAAASSSSSI",
" CZCZZAZZZZZZZCCCCN BBZZVVZZC ABMZZMZVZVZZZZVVZZZABNI",
"Immbbbbbbbbbbbnbnm mmbbbbbbb mnbbnnbbbbbbbbbbbbbbnvmI",
"Ivczllllllllcccvv vcczclccv vvczcccclzzzblzzlzlccccx ",
"Ihhgjjjjjjjjjjgg kjjjjjkjk dkjjgjjjjjjjjjgjjjjjjjghd ",
" dugaaaaaaaaasasssugaisaasiaiiaaaaaaaaaaaaaaaaagasud ",
" uyyrrrrrrrrryrrrruryyyyryrerrrryyryryyyryyrrrrryyuuI",
" wwqqqqwwwwwwqqqwwwwwwqewwwwwwqwwwwwwwwqqwwqqqwwwwwtI",
"I866468688667766889787888888888888487866886688888880I",
"I<<>1111,,,,1>,,,22,22>>11,21,1,111>111111111111,,,3 ",
"I:::;;:::;::;;;:;;;:;;;;::::::::;::;:;;;;;;;;;;::;:: ",
" *-===-===-=====================--=-==========-==--* ",
" &$$&#$&$$&&$$$$$$&&$$$$$$&&&$$#$$$$$$$$$$$$$$$$&&&%I",
" +++++++++++++++++@+++++++++++++++++++++++++++++++@@I",
"IOOOXOOXOOOOXOXXXOXOOOOOOOOOOOOOOOOOXOXXXOXXOOOXXOOOI",
"II   III   III   III   III   III   III   III   III   "
};
