/* XPM */
static char * clchng_clchng_icon1[] = {
"50 30 163 2",
"  	c None",
". 	c #000000",
"+ 	c #4A4B46",
"@ 	c #4B4A46",
"# 	c #4A4944",
"$ 	c #4B4A45",
"% 	c #4B4B43",
"& 	c #494A45",
"* 	c #64655F",
"= 	c #65645F",
"- 	c #65655D",
"; 	c #65655B",
"> 	c #7B7C76",
", 	c #7C7C72",
"' 	c #7C7C70",
") 	c #7E7C70",
"! 	c #7B7D70",
"~ 	c #7C7C74",
"{ 	c #000100",
"] 	c #8D8E86",
"^ 	c #8E8E82",
"/ 	c #8E8F81",
"( 	c #908E81",
"_ 	c #8D8F81",
": 	c #8E8E84",
"< 	c #97998E",
"[ 	c #999A8C",
"} 	c #989989",
"| 	c #99998D",
"1 	c #98988E",
"2 	c #010000",
"3 	c #A8AA9F",
"4 	c #A9AA9C",
"5 	c #A9AA98",
"6 	c #A9AA9A",
"7 	c #A8A99B",
"8 	c #A9A99F",
"9 	c #B8B8AC",
"0 	c #BAB8A9",
"a 	c #BAB9A7",
"b 	c #BAB9A5",
"c 	c #B8B9A7",
"d 	c #B8BAA5",
"e 	c #010100",
"f 	c #C0C0B4",
"g 	c #C2C0B1",
"h 	c #C2C1AD",
"i 	c #C2C1AF",
"j 	c #C0C2AD",
"k 	c #C0C1AF",
"l 	c #C3C0AF",
"m 	c #CECEC2",
"n 	c #D0CFBD",
"o 	c #D0CFBB",
"p 	c #D0CFBA",
"q 	c #CFCEBA",
"r 	c #DBDCCE",
"s 	c #DDDCCA",
"t 	c #DDDCC7",
"u 	c #DDDCC8",
"v 	c #DEDDC9",
"w 	c #DBDBCF",
"x 	c #E6E7D9",
"y 	c #E8E7D3",
"z 	c #E8E8D0",
"A 	c #E8E7D2",
"B 	c #E9E8D3",
"C 	c #E8E7D5",
"D 	c #010200",
"E 	c #E6E8D3",
"F 	c #E6E8D2",
"G 	c #E6E8D0",
"H 	c #E6E7D7",
"I 	c #ECEDDD",
"J 	c #EEEDD9",
"K 	c #EEEED6",
"L 	c #EEEDD8",
"M 	c #EEEDDB",
"N 	c #030200",
"O 	c #ECEED9",
"P 	c #EDEFD7",
"Q 	c #ECEED6",
"R 	c #EBEDD5",
"S 	c #ECEDDF",
"T 	c #F7F8E8",
"U 	c #F9F8E4",
"V 	c #F9F9E1",
"W 	c #F9F9DF",
"X 	c #FAFAE0",
"Y 	c #F9F8E3",
"Z 	c #030100",
"` 	c #F8F7E2",
" .	c #F8F9E9",
"..	c #F7F8EA",
"+.	c #FFFEEC",
"@.	c #FFFEE9",
"#.	c #FFFFEA",
"$.	c #FFFFEB",
"%.	c #FFFFE7",
"&.	c #FFFFE5",
"*.	c #FFFEEA",
"=.	c #FEFDE9",
"-.	c #FDFEEC",
";.	c #000200",
">.	c #020300",
",.	c #F7F8E6",
"'.	c #EBEDE2",
").	c #ECECE0",
"!.	c #EDEEE0",
"~.	c #EDEDE1",
"{.	c #ECECE2",
"].	c #EFEED9",
"^.	c #EDECD7",
"/.	c #EDECD8",
"(.	c #E6E6DA",
"_.	c #E8E6D7",
":.	c #E6E7D5",
"<.	c #E5E7DA",
"[.	c #DBDDC7",
"}.	c #DBDDC8",
"|.	c #DBDCCC",
"1.	c #DEDCC7",
"2.	c #D0CEBF",
"3.	c #D1D0BC",
"4.	c #D1D0BE",
"5.	c #CFCEBC",
"6.	c #CECFBD",
"7.	c #CED0BB",
"8.	c #CED0BA",
"9.	c #C3C2B0",
"0.	c #C2C1AC",
"a.	c #C1C2B0",
"b.	c #C0C2AC",
"c.	c #C1C0AC",
"d.	c #B7B9AB",
"e.	c #B8B9A9",
"f.	c #B7B7AB",
"g.	c #A8AA9D",
"h.	c #AAAB99",
"i.	c #A8A997",
"j.	c #A7A99C",
"k.	c #98998B",
"l.	c #989987",
"m.	c #979888",
"n.	c #999A8A",
"o.	c #8D8E80",
"p.	c #8F9082",
"q.	c #8E8F7F",
"r.	c #7B7C74",
"s.	c #7B7B6F",
"t.	c #66665E",
"u.	c #4A4B45",
"v.	c #4A4B43",
"w.	c #4C4C44",
"x.	c #4C4B46",
"y.	c #3B3C37",
"z.	c #3B3A35",
"A.	c #3C3D37",
"B.	c #3B3C36",
"C.	c #3C3B37",
"D.	c #3C3B36",
"E.	c #3D3C38",
"F.	c #3A3B35",
". . .       . . .       . . .       . . .       . . .       . . .       . . .       . . .       . . ",
"  + @ # $ % $ $ % % $ $ % % $ $ % % $ $ % % $ $ % % $ $ % % $ $ % % $ $ % $ $ $ $ % $ $ % $ $ @ & . ",
"  * = - ; ; ; ; ; ; ; ; ; ; ; ; ; ; ; ; ; ; ; ; ; ; ; ; ; ; ; ; ; ; ; ; ; ; - - ; ; ; ; ; ; - = *   ",
"  > , ' ' ' ' ' ' ' ' ' ' ' ' ' ' ' ' ' ' ' ' ' ' ' ' ' ' ' ) ) ' ' ' ' ' ' ' ' ! ! ' ' ' ' , ~ >   ",
"{ ] ^ / / / / / / / / / / / / / / / / / / / / / / / / / / / ( ( / / / / / / / / _ _ / / / / ^ : ]   ",
"{ < [ } } } } } } } } } } } } } } } } } } } } } } } } } } } } } } } } } } } } } } } } } } } } | 1 2 ",
"{ 3 4 5 5 5 6 5 5 5 6 5 5 5 6 5 5 5 6 5 5 5 6 6 5 5 6 5 5 5 6 5 5 5 6 5 5 5 6 5 5 5 6 5 5 5 6 7 8 2 ",
"  9 0 a a b a a c d a a c d a a c d a a c d a a c c a a c d a a a b a a c d a a c d a a c d a 0 9 e ",
"  f g h h h i h j j i h j j i h j j h h j j i i k k i h j j i h h h l h h j i h j j i h j j i g f   ",
"  m n o o p o o o p o o o p o o o p p p p p o o o o o o q p o o o p o o o p o o o p o o o p o n m   ",
"e r s t t t u u t t u t t t u t t t t t t t u v u u u t t t u u u u u t t t u u t t u t t t u s w   ",
"e x y z z z A A A A A A A z A B A z z z z A C C D E y A F G A y H D E F A z A A A A A A F G A y x e ",
"e I J K K K L L L L L K K K K K K K K L L J M N O O L K P Q J M D I O K K K L L L L L K Q R L J S e ",
"  T U V W W V V V V V V V X W V V V Y U T T Z U Y V V V V `  .D U Y V V V W V V V V V V V W V U ..e ",
"    +.@.@.@.@.@.@.@.@.@.#.@.@.@.@.$.+.+.D D +.@.%.&.%.%.@.*.D   =.@.@.@.@.@.@.@.@.@.*.@.@.@.@.-.    ",
"{ ;.D D D D D D D D D D D D D D D e e >.U Y Y V V V V Y ,.D e e D D D D D D D D D D D D D D D D e   ",
"{ '.).S S S S S S S S S S !.I S ~.{.e S ].K K K K ^.L /.D S S S S S S S I I S S S S S S S S S ).'.  ",
"e (.C y y y y y E E y y E E y C x D _.y A B A A A y H D C y y y y y y y y y y E E E y y y y y :.<.{ ",
"e r s t t t t t [.[.t t [.}.u s D |.u t t t t t u s D r u t t t t t t t t t t t [.t t 1.t t t u r { ",
"  m 2.o o o o o o o o o 3.4.2.Z 5.o o p 3.o o o 6.D n n 7.7.o o 8.8.o o o o o o o o o o o o o n m e ",
"  f g 9.h h h h h h h h i i g g i h h 0.h h h i a.k i h j j h h j b.h h h h h h h h h h c.h h k f   ",
"  d.c d c c c c c c c c c c c c c d d d c c c c c c c c c c c d d d c c c c c c c c c c c c c e.f.  ",
"{ g.6 5 5 5 5 5 5 5 5 5 5 5 5 5 5 5 5 h.5 5 5 5 5 h.h.5 5 5 5 5 5 5 5 5 5 5 5 5 5 5 5 5 5 5 i.6 j.  ",
"{ < k.} } } } } } } } } } } } } l.l.} } } } } } m.} } n.} } } } } } } } } } } } } } } } } } } [ < { ",
"{ ] ^ / / / / / / / / / / o./ p.q.q./ / / / / / / p./ / / / / / / / / / / / / / / / / / / / / ^ ] { ",
"  r., ' ' ' ' ' ' ' ' s.' ' ' ' ' ' ' ' ' ' ' ' ' s.' ' ' ' ' ' ' ' ' s.' ' ' ' ' ' ' ' ' ' ' , r.{ ",
"  * - ; ; ; ; ; ; ; ; ; ; ; ; ; ; ; ; ; ; ; ; ; ; ; ; ; ; ; ; ; ; ; ; ; ; ; ; ; ; ; ; ; ; ; ; t.*   ",
"  u.% % v.v.% w.v.v.% % v.v.% % v.v.% % v.v.% % v.v.% % v.v.% w.v.v.v.v.v.v.% % v.v.% % v.v.% x.u.  ",
". y.z.z.A.B.C.C.B.B.C.D.B.B.C.C.B.B.E.C.B.F.C.C.B.B.C.C.A.B.C.C.B.B.y.y.B.B.C.D.B.B.E.D.B.B.C.C.y.  ",
". .       . . .       . . {       . . .       . . .       . . .       . . .       { . .       . . . "};
