/* XPM */
static char * dynamics_xpm[] = {
"64 64 193 2",
"  	c None",
". 	c #FFFFFF",
"+ 	c #FFF5D3",
"@ 	c #FFEA9E",
"# 	c #FFF1BE",
"$ 	c #FFFEFB",
"% 	c #FFFBF0",
"& 	c #FFFCF5",
"* 	c #FFFDFA",
"= 	c #FFFEFC",
"- 	c #FFFEFE",
"; 	c #FFFCF2",
"> 	c #FFFAE8",
", 	c #FFF8DE",
"' 	c #FFF5D4",
") 	c #FFF4CE",
"! 	c #FFF5D2",
"~ 	c #FFF8E1",
"{ 	c #FFF9E5",
"] 	c #FFCB0C",
"^ 	c #FFC900",
"/ 	c #FFDC5A",
"( 	c #FFF0BC",
"_ 	c #FFCB0E",
": 	c #FFD641",
"< 	c #FFE176",
"[ 	c #FFF3CB",
"} 	c #FFD22E",
"| 	c #FFF8E0",
"1 	c #FFE68D",
"2 	c #FFD025",
"3 	c #FFCA08",
"4 	c #FFD94F",
"5 	c #FFDC5C",
"6 	c #FFDF69",
"7 	c #FFE06E",
"8 	c #FFE070",
"9 	c #FFDD61",
"0 	c #FFD950",
"a 	c #FFCF21",
"b 	c #FFD331",
"c 	c #FFEDAE",
"d 	c #FFF2C3",
"e 	c #FFCA07",
"f 	c #FFE893",
"g 	c #FFD63E",
"h 	c #FFF9E6",
"i 	c #FFE482",
"j 	c #FFCD16",
"k 	c #FFDB55",
"l 	c #FFFBEE",
"m 	c #FFFEFD",
"n 	c #FFD330",
"o 	c #FFF6D6",
"p 	c #FFE071",
"q 	c #FFFAEB",
"r 	c #FFD746",
"s 	c #FFD436",
"t 	c #FFE896",
"u 	c #FFECA9",
"v 	c #FFD745",
"w 	c #FFFDF9",
"x 	c #FFD539",
"y 	c #FFD847",
"z 	c #FFFAEC",
"A 	c #FFCC12",
"B 	c #FFC904",
"C 	c #FFD848",
"D 	c #FFE37D",
"E 	c #FFF4CF",
"F 	c #FFCA05",
"G 	c #FFEDAD",
"H 	c #FFDF68",
"I 	c #FFDF6C",
"J 	c #FFE999",
"K 	c #FFDA51",
"L 	c #FFDD60",
"M 	c #FFD22C",
"N 	c #FFC902",
"O 	c #FFCC10",
"P 	c #FFEFB4",
"Q 	c #FFEEB1",
"R 	c #FFD53C",
"S 	c #FFFBED",
"T 	c #FFFDF7",
"U 	c #FFE483",
"V 	c #FFE998",
"W 	c #FFEBA4",
"X 	c #FFD024",
"Y 	c #FFCD17",
"Z 	c #FFF4CD",
"` 	c #FFDA52",
" .	c #FFE790",
"..	c #FFE279",
"+.	c #FFFCF3",
"@.	c #FFCE1A",
"#.	c #FFEEAF",
"$.	c #FFEBA1",
"%.	c #FFF1C1",
"&.	c #FFCF1D",
"*.	c #FFDD62",
"=.	c #FFD640",
"-.	c #FFDF6B",
";.	c #FFE175",
">.	c #FFFBEF",
",.	c #FFC901",
"'.	c #FFCF1F",
").	c #FFDB58",
"!.	c #FFF7DA",
"~.	c #FFCA06",
"{.	c #FFE895",
"].	c #FFF1BF",
"^.	c #FFD022",
"/.	c #FFCB0D",
"(.	c #FFD849",
"_.	c #FFCE1C",
":.	c #FFE78E",
"<.	c #FFE173",
"[.	c #FFEEB2",
"}.	c #FFDC5D",
"|.	c #FFF9E7",
"1.	c #FFE792",
"2.	c #FFFDF8",
"3.	c #FFD023",
"4.	c #FFE484",
"5.	c #FFF2C4",
"6.	c #FFD22B",
"7.	c #FFEEB3",
"8.	c #FFF0BB",
"9.	c #FFE585",
"0.	c #FFCE18",
"a.	c #FFD438",
"b.	c #FFFDF6",
"c.	c #FFC903",
"d.	c #FFF9E3",
"e.	c #FFE37B",
"f.	c #FFFCF1",
"g.	c #FFCB0B",
"h.	c #FFF3C9",
"i.	c #FFCD14",
"j.	c #FFDB57",
"k.	c #FFD744",
"l.	c #FFF1C0",
"m.	c #FFF3C8",
"n.	c #FFDE67",
"o.	c #FFE37F",
"p.	c #FFCA09",
"q.	c #FFDC5B",
"r.	c #FFEBA5",
"s.	c #FFCE19",
"t.	c #FFF8E2",
"u.	c #FFCC0F",
"v.	c #FFF6D5",
"w.	c #FFCC11",
"x.	c #FFE37E",
"y.	c #FFE78F",
"z.	c #FFDE65",
"A.	c #FFFCF4",
"B.	c #FFDD63",
"C.	c #FFEBA2",
"D.	c #FFD434",
"E.	c #FFF4CC",
"F.	c #FFEAA0",
"G.	c #FFD437",
"H.	c #FFDA53",
"I.	c #FFD22F",
"J.	c #FFE897",
"K.	c #FFD84A",
"L.	c #FFE99B",
"M.	c #FFEFB5",
"N.	c #FFF6D8",
"O.	c #FFEFB8",
"P.	c #FFF2C2",
"Q.	c #FFCF20",
"R.	c #FFF6D7",
"S.	c #FFF5D0",
"T.	c #FFECA6",
"U.	c #FFEFB7",
"V.	c #FFDD5F",
"W.	c #FFEBA3",
"X.	c #FFDE64",
"Y.	c #FFE172",
"Z.	c #FFDF6A",
"`.	c #FEFFFE",
" +	c #FFECA7",
".+	c #FFE06F",
"++	c #FFEDAC",
"@+	c #FFFEFF",
"#+	c #FEFEFE",
"$+	c #FEFFFF",
"%+	c #FCFFFF",
"&+	c #FFFFFE",
"*+	c #FEFFFB",
". . . . . . . . . . . . . . . . . . . . . . . . . . . . . . . . . . . . . . . . . . . . . . . . . . . . . . . . . . . . . . . . ",
". . . . . . . . . . . . . . . . . . . . . . . . . . . . . . . . . . . . . . . . . . . . . . . . . . . . . . . . . . . . . . . . ",
". . . . . . . . . . . . . . . . . . . . . . . . . . . . . . . . . . . . . . . . . . . . . . . . . . . . . . . . . . . . . . . . ",
". . . . . . . . . . . . . . . . . . . . . . . . . . . . . . . . . . . . . . . . . . . . . . . . . . . . . . . . . . . . . . . . ",
". . . . . . . . . . . . . . . . . . . . . . . . . . . . . . . . . . . . . . . . . . . . . . . . . . . . . . . . . . . . . . . . ",
". . . . . . . . . . . . . . . . . . . . . . . . . . . . . . . . . . . . . . . . . . . . . . . . . . . . . . . . . . . . . . . . ",
". . . . . . . . . . . . . . . . . . . . . . . . . . . . . . . . . . . . . . . . . . . . . . . . . . . . . . . . . . . . . . . . ",
". . . . . . . . . . . . . . . . . . . . . . . . . . . . . . . . . . . . . . . . . . . . . . . . . . . . . . . . . . . . . . . . ",
". . . . . . . . . . . . . . . . . . . . . . . . . . . . . . . . . . . . . . . . . . . . . . . . . . . . . . . . . . . . . . . . ",
". . . . . . . . . . . . . . . . . . . . . . . . . . . . . . . . . . . . . . . . . . . . . . . . . . . . . . . . . . . . . . . . ",
". . . . . . . . . . . . . . . . . . . . . . . . . . . . . . . . . . . . . . . . . . . . . . . . . . . . . . . . . . . . . . . . ",
". . . . . . . . . . . . . . . . . . . . . . . . . . . . . . . . . . . . . . . . . . . . . . . . . . . . . . . . . . . . . . . . ",
". . . . . . . . . . . . . . . . . . . + @ # . . . . . . . . . . . . . . $ % & * = - - * ; > , ' ) ! ~ % - . . . . . . . . . . . ",
". . . . . . . . . . . . . . . . . . { ] ^ / . . . . . . . . . . . . . . ( ^ ^ ^ ^ ^ ^ ^ ^ ^ ^ ^ ^ ^ ^ ^ _ : < [ . . . . . . . . ",
". . . . . . . . . . . . . . . . . . / ^ ^ } . . . . . . . . . . . . . . . | 1 2 ^ ^ ^ 3 4 5 6 7 8 9 0 a ^ ^ ^ ^ b c . . . . . . ",
". . . . . . . . . . . . . . . . . d ^ ^ ^ e $ . . . . . . . . . . . . . . . . f ^ ^ ^ g . . . . . . . . h i j ^ ^ ^ k l . . . . ",
". . . . . . . . . . . . . . . . m n ^ ^ ^ ^ o . . . . . . . . . . . . . . . . p ^ ^ ^ 7 . . . . . . . . . . q r ^ ^ ^ s ; . . . ",
". . . . . . . . . . . . . . . . t ^ ^ ^ ^ ^ u . . . . . . . . . . . . . . . . v ^ ^ ^ @ . . . . . . . . . . . w x ^ ^ ^ y . . . ",
". . . . . . . . . . . . . . . z A B C ^ ^ ^ D . . . . . . . . . . . . . . . . j ^ ^ ^ E . . . . . . . . . . . . ~ F ^ ^ ^ G . . ",
". . . . . . . . . . . . . . . H ^ I J ^ ^ ^ K . . . . . . . . . . . . . . . h ^ ^ ^ F w . . . . . . . . . . . . . L ^ ^ ^ M . . ",
". . . . . . . . . . . . . . E N O z d ^ ^ ^ 2 . . . . . . . . . . . . . . . P ^ ^ ^ n . . . . . . . . . . . . . . Q ^ ^ ^ ^ , . ",
". . . . . . . . . . . . . . R ^ 1 . S ^ ^ ^ N T . . . . . . . . . . . . . . U ^ ^ ^ L . . . . . . . . . . . . . . z ^ ^ ^ ^ V . ",
". . . . . . . . . . . . . W ^ X w . . Y ^ ^ ^ Z . . . . . . . . . . . . . . ` ^ ^ ^  .. . . . . . . . . . . . . . . ] ^ ^ ^ ... ",
". . . . . . . . . . . . +.@.^ #.. . . : ^ ^ ^ $.. . . . . . . . . . . . . . a ^ ^ ^ %.. . . . . . . . . . . . . . . &.^ ^ ^ *.. ",
". . . . . . . . . . . . < ^ =.. . . . -.^ ^ ^ ;.. . . . . . . . . . . . . >.^ ^ ^ ,.% . . . . . . . . . . . . . . . '.^ ^ ^ ).. ",
". . . . . . . . . . . !.~.N ) . . . . {.^ ^ ^ C . . . . . . . . . . . . . ].^ ^ ^ ^.. . . . . . . . . . . . . . . . /.^ ^ ^ *.. ",
". . . . . . . . . . . (.^ *.. . . . . ].^ ^ ^ _.. . . . . . . . . . . . . :.^ ^ ^ ` . . . . . . . . . . . . . . . $ ^ ^ ^ ^ <.. ",
". . . . . . . . . . [.^ ] h . . . . . > ^ ^ ^ ^ % . . . . . . . . . . . . }.^ ^ ^ U . . . . . . . . . . . . . . . |.^ ^ ^ ^ 1.. ",
". . . . . . . . . 2.3.^ 4.. . . . . . . A ^ ^ ^ 5.. . . . . . . . . . . . 6.^ ^ ^ 7.. . . . . . . . . . . . . . . P ^ ^ ^ ^ 8.. ",
". . . . . . . . . 9.^ 0.h >.>.>.>.>.>.>.a.^ ^ ^ V . . . . . . . . . . . b.c.^ ^ ^ d.. . . . . . . . . . . . . . . e.^ ^ ^ N f.. ",
". . . . . . . . d.g.^ ^ ^ ^ ^ ^ ^ ^ ^ ^ ^ ^ ^ ^ I . . . . . . . . . . . h.^ ^ ^ i.. . . . . . . . . . . . . . . . : ^ ^ ^ x . . ",
". . . . . . . . j.^ i.6.6.6.6.6.6.6.6.6._.^ ^ ^ =.. . . . . . . . . . . V ^ ^ ^ k.. . . . . . . . . . . . . . . { B ^ ^ ^ 1 . . ",
". . . . . . . l.^ ,.m.. . . . . . . . . 8.^ ^ ^ i.. . . . . . . . . . . n.^ ^ ^ ;.. . . . . . . . . . . . . . . o.^ ^ ^ p.z . . ",
". . . . . . = } ^ q.. . . . . . . . . . { ^ ^ ^ ^ |.. . . . . . . . . . s ^ ^ ^ r.. . . . . . . . . . . . . . * s.^ ^ ^ 7 . . . ",
". . . . . . f ^ p.t.. . . . . . . . . . . u.^ ^ ^ 8.. . . . . . . . . = p.^ ^ ^ v.. . . . . . . . . . . . . . i ^ ^ ^ A S . . . ",
". . . . . q w.^ x.. . . . . . . . . . . . a.^ ^ ^ y.. . . . . . . . . + ^ ^ ^ p.= . . . . . . . . . . . . . ' ~.^ ^ ^ r.. . . . ",
". . . . . z.^ @.A.. . . . . . . . . . . . *.^ ^ ^ B.. . . . . . . . . C.^ ^ ^ s . . . . . . . . . . . . . T D.^ ^ ^ H . . . . . ",
". . . . E.N ^ F.. . . . . . . . . . . . . 1 ^ ^ ^ G.. . . . . . . . . 8 ^ ^ ^ n.. . . . . . . . . . . . $ H.^ ^ ^ 0 = . . . . . ",
". . . - x ^ I.m . . . . . . . . . . . . . P ^ ^ ^ ] - . . . . . . . . R ^ ^ ^ J.. . . . . . . . . . . f.K.^ ^ ^ }.* . . . . . . ",
". . . L.^ ^ M.. . . . . . . . . . . . . . o ^ ^ ^ ^ N.. . . . . . . m g.^ ^ ^ m.. . . . . . . . . . O.a ^ ^ ~.1 - . . . . . . . ",
". . P.g.^ Q.. . . . . . . . . . . . . . . R.^ ^ ^ ^ 4.. . . . . . . S.^ ^ ^ N & . . . . . . . f.T.g ^ ^ ^ r ' . . . . . . . . . ",
"U.V.c.^ ^ e x.S.. . . . . . . . . . . S W.D.^ ^ ^ ^ B 8 m.- . . E U 3.^ ^ ^ c.G.K X.-.Y.Z.j.n B ^ ^ e k d . . `.. . . . . . . . ",
"^ ^ ^ ^ ^ ^ ^ ^  +. . . . . . . . . E c.^ ^ ^ ^ ^ ^ ^ ^ ^ 6 . *.^ ^ ^ ^ ^ ^ ^ ^ ^ ^ ^ ^ ^ ,.0.R .++++.. . . . @+. . . . . . . . ",
"T = m . m $ T ; $ . . . . . . . . . $ ; b.$ = - . m = 2.+.T . & A.w = m . = 2.; q { ~ d.z w . . . . . . . . . #+. . . . . . . . ",
". . . . . . . . . . . . . . . . . . . . . . . . . . . . . . . . . . . . . . . . . . . . . . . . . . . . . . $+. . . . . . . . . ",
". . . . . . . . . . . . . . . . . . . . . . . . . . . . . . . . . . . . . . . . . . . . . . . . . . . . . @+%+&+. . . . . . . . ",
". . . . . . . . . . . . . . . . . . . . . . . . . . . . . . . . . . . . . . . . . . . . . . . . . . . . . @+@+. . . . . . . . . ",
". . . . . . . . . . . . . . . . . . . . . . . . . . . . . . . . . . . . . . . . . . . . . . . . . . . . . *+@+. . . . . . . . . ",
". . . . . . . . . . . . . . . . . . . . . . . . . . . . . . . . . . . . . . . . . . . . . . . . . . . . . . . . . . . . . . . . ",
". . . . . . . . . . . . . . . . . . . . . . . . . . . . . . . . . . . . . . . . . . . . . . . . . . . . . . . . . . . . . . . . ",
". . . . . . . . . . . . . . . . . . . . . . . . . . . . . . . . . . . . . . . . . . . . . . . . . . . . . . . . . . . . . . . . ",
". . . . . . . . . . . . . . . . . . . . . . . . . . . . . . . . . . . . . . . . . . . . . . . . . . . . . . . . . . . . . . . . ",
". . . . . . . . . . . . . . . . . . . . . . . . . . . . . . . . . . . . . . . . . . . . . . . . . . . . . . . . . . . . . . . . ",
". . . . . . . . . . . . . . . . . . . . . . . . . . . . . . . . . . . . . . . . . . . . . . . . . . . . . . . . . . . . . . . . ",
". . . . . . . . . . . . . . . . . . . . . . . . . . . . . . . . . . . . . . . . . . . . . . . . . . . . . . . . . . . . . . . . ",
". . . . . . . . . . . . . . . . . . . . . . . . . . . . . . . . . . . . . . . . . . . . . . . . . . . . . . . . . . . . . . . . ",
". . . . . . . . . . . . . . . . . . . . . . . . . . . . . . . . . . . . . . . . . . . . . . . . . . . . . . . . . . . . . . . . ",
". . . . . . . . . . . . . . . . . . . . . . . . . . . . . . . . . . . . . . . . . . . . . . . . . . . . . . . . . . . . . . . . ",
". . . . . . . . . . . . . . . . . . . . . . . . . . . . . . . . . . . . . . . . . . . . . . . . . . . . . . . . . . . . . . . . ",
". . . . . . . . . . . . . . . . . . . . . . . . . . . . . . . . . . . . . . . . . . . . . . . . . . . . . . . . . . . . . . . . ",
". . . . . . . . . . . . . . . . . . . . . . . . . . . . . . . . . . . . . . . . . . . . . . . . . . . . . . . . . . . . . . . . ",
". . . . . . . . . . . . . . . . . . . . . . . . . . . . . . . . . . . . . . . . . . . . . . . . . . . . . . . . . . . . . . . . ",
". . . . . . . . . . . . . . . . . . . . . . . . . . . . . . . . . . . . . . . . . . . . . . . . . . . . . . . . . . . . . . . . ",
". . . . . . . . . . . . . . . . . . . . . . . . . . . . . . . . . . . . . . . . . . . . . . . . . . . . . . . . . . . . . . . . "};
