/* XPM */
static char * filter_filter_rotary[] = {
"75 66 197 2",
"  	c None",
". 	c #282826",
"+ 	c #282924",
"@ 	c #3C3D38",
"# 	c #3B3C36",
"$ 	c #3C3B36",
"% 	c #3C3C34",
"& 	c #4B4B43",
"* 	c #4C4C44",
"= 	c #2A2925",
"- 	c #292824",
"; 	c #4A4B43",
"> 	c #59594F",
", 	c #58584E",
"' 	c #595951",
") 	c #3C3B37",
"! 	c #292826",
"~ 	c #282923",
"{ 	c #65655D",
"] 	c #65655B",
"^ 	c #4A4A42",
"/ 	c #4B4A45",
"( 	c #292A25",
"_ 	c #3B3C34",
": 	c #4B4B41",
"< 	c #7D7D73",
"[ 	c #7C7C72",
"} 	c #7C7C70",
"| 	c #7D7D71",
"1 	c #66665C",
"2 	c #656559",
"3 	c #7C7D6F",
"4 	c #868779",
"5 	c #86867A",
"6 	c #646458",
"7 	c #7B7C6E",
"8 	c #7D7E70",
"9 	c #87887A",
"0 	c #8E8F7F",
"a 	c #8E8F81",
"b 	c #3A3B35",
"c 	c #7B7B6F",
"d 	c #989989",
"e 	c #979888",
"f 	c #8D8E7E",
"g 	c #59594D",
"h 	c #858678",
"i 	c #A0A191",
"j 	c #98998B",
"k 	c #8D8E80",
"l 	c #9FA08E",
"m 	c #A0A18F",
"n 	c #A9AA98",
"o 	c #A9AA9A",
"p 	c #B1B2A0",
"q 	c #7B7B71",
"r 	c #A8A999",
"s 	c #B8B9A7",
"t 	c #B7B9A4",
"u 	c #B0B19F",
"v 	c #999A8A",
"w 	c #272725",
"x 	c #8E8E82",
"y 	c #C0C1AF",
"z 	c #BFC1AC",
"A 	c #C0C2AD",
"B 	c #AAAB99",
"C 	c #BAB9A7",
"D 	c #C3C2AE",
"E 	c #C2C1AD",
"F 	c #C9C8B4",
"G 	c #CAC9B5",
"H 	c #BAB9A5",
"I 	c #000000",
"J 	c #3B3C37",
"K 	c #494A44",
"L 	c #A9AB96",
"M 	c #C2C1AF",
"N 	c #D0CFBB",
"O 	c #000002",
"P 	c #B8BAA5",
"Q 	c #DDDCC7",
"R 	c #DEDDC8",
"S 	c #D0CFBA",
"T 	c #DDDCC8",
"U 	c #E2E1CC",
"V 	c #B7B8A6",
"W 	c #C8C7B3",
"X 	c #E8E7D2",
"Y 	c #E8E8D0",
"Z 	c #DEDCC7",
"` 	c #D1CFBA",
" .	c #9FA090",
"..	c #3C3D37",
"+.	c #A1A290",
"@.	c #EEEDD8",
"#.	c #EEEED6",
"$.	c #E3E1CC",
"%.	c #A8A997",
"&.	c #F4F4DC",
"*.	c #E1E0CB",
"=.	c #999A8C",
"-.	c #66635A",
";.	c #5B584F",
">.	c #BBBAA8",
",.	c #F9F8E3",
"'.	c #F3F2DD",
").	c #67645B",
"!.	c #010200",
"~.	c #F7F8E6",
"{.	c #F4F3DE",
"].	c #EFEFD7",
"^.	c #E9E7D2",
"/.	c #DEDBC8",
"(.	c #D1CEBB",
"_.	c #B0B3A0",
":.	c #8F9082",
"<.	c #C3C2B0",
"[.	c #D1D0BC",
"}.	c #F2F3E5",
"|.	c #F4F3DF",
"1.	c #E2E0CB",
"2.	c #EEEDD9",
"3.	c #CFCEBA",
"4.	c #C1C0AC",
"5.	c #DEDDC9",
"6.	c #ECEDDF",
"7.	c #E9E8D4",
"8.	c #E7E6D1",
"9.	c #BBBAA6",
"0.	c #3C3D35",
"a.	c #3A3B33",
"b.	c #4A4C41",
"c.	c #E3E2CD",
"d.	c #E8E7D3",
"e.	c #E6E7D9",
"f.	c #E2E1CD",
"g.	c #D2CFBC",
"h.	c #E0E1D3",
"i.	c #DDDCCA",
"j.	c #CAC7B4",
"k.	c #010100",
"l.	c #DBDCCE",
"m.	c #DEDDCB",
"n.	c #CED0BB",
"o.	c #C7C9B4",
"p.	c #5A5A52",
"q.	c #B3B2A0",
"r.	c #D0CFBD",
"s.	c #CFCFC3",
"t.	c #C9C8B6",
"u.	c #C7C7BB",
"v.	c #B2B3A1",
"w.	c #87877B",
"x.	c #C0C0B4",
"y.	c #989987",
"z.	c #B1B39E",
"A.	c #B8B9A9",
"B.	c #020200",
"C.	c #B7B9AC",
"D.	c #585951",
"E.	c #4A4B45",
"F.	c #A1A292",
"G.	c #B1B2A2",
"H.	c #000200",
"I.	c #B0B2A5",
"J.	c #A8AB9A",
"K.	c #A8AA9C",
"L.	c #A8AA9F",
"M.	c #A9AA9C",
"N.	c #9FA291",
"O.	c #9FA193",
"P.	c #9FA196",
"Q.	c #A0A193",
"R.	c #97998C",
"S.	c #97998E",
"T.	c #98988C",
"U.	c #908E81",
"V.	c #888679",
"W.	c #89877B",
"X.	c #7E7C70",
"Y.	c #585A4F",
"Z.	c #272823",
"`.	c #000100",
" +	c #8C8E83",
".+	c #676559",
"++	c #494B40",
"@+	c #494A42",
"#+	c #4B4C44",
"$+	c #85867E",
"%+	c #86867C",
"&+	c #7B7C74",
"*+	c #5A5A50",
"=+	c #64655D",
"-+	c #3B3A35",
";+	c #585953",
">+	c #010101",
"                                                                      . + + + +                                                                       ",
"                                                            + + + + + @ # # # # + + + + +                                                             ",
"                                                        + + # # # $ % & * & & & $ $ $ $ $ = -                                                         ",
"                                                    + + # # ; ; ; & & > > > , ' & & & & & $ ) - !                                                     ",
"                                                  + ~ $ & & > > > > > { ] ] ] { ' , > > ' ^ / # + (                                                   ",
"                                              . + # _ & : > ] ] ] ] ] < [ } | [ ] ] ] 1 ] ' & ; # # + .                                               ",
"                                            ( + # / & ' > 2 2 } } } 3 4 4 4 4 5 } } } } 6 ] > > & & $ ~ +                                             ",
"                                          + # # ; & > ] 2 7 8 9 4 4 4 0 0 a a a 4 4 4 5 } } ] ] > ^ & b # (                                           ",
"                                        . + # : > > ] ] c 4 4 a 0 0 0 d e d d e 0 0 f a 4 4 } ] ] ' ' & $ + .                                         ",
"                                        + # ; > g 2 | } h 4 a f d d d i i i i i d d d j k 4 4 } [ ] ' ' & # +                                         ",
"                                      ! ) / & > 2 } 4 4 a a d d i l m n n n n n m m m d d 0 a 4 5 } ] > & ; # .                                       ",
"                                    + - $ & ' ] < 5 4 a a e i i o n n p p p p p n n n i i d d a 4 5 } ] > ; _ + .                                     ",
"                                    + $ & ' ] ] q 5 a j d i r n p p p s s t t s p u p n n i e v 0 4 7 2 2 > & # +                                     ",
"                                  w b & : > ] [ 5 x a d i o o p p s s y z A A A s s p p n o i d d a 4 } 2 > : ; # +                                   ",
"                                  . # & > ] } 5 4 a d m B p p C C D E F F G F F E E H s p p n i d a 4 5 } ] > & $ +                                   ",
"I                               . J K ' ] 2 } 4 a d i n L p s M M F F N N N N N F G E y s p n o i j a 5 } ] ] ' & b + I O           I I I I I I I I   ",
"I                               . # ; , ] } 4 a a d i n p P A E F N N Q R Q R R S N F E E s p n m d d a 4 } ] ' & # +     I I                         ",
"I                               . b ; > 2 } 4 a j i n p p P A F N N T Q U U U Q Q N N F E s u p n i d a h } 2 ' ^ # +         I I                     ",
"I                               . # ; > 2 } 4 a d m n p V E W N N Q U U X Y Y U U Z ` N F A P p n  .d a 4 } 2 ' & # +             I I                 ",
"I                               . ..& > 2 c 4 a d +.L p s E W N T U X X @.#.#.X X $.Z N F A t p %.i d a 4 } 2 > * # ~                 I I             ",
"I                             . J & > ] } 5 a e i n p C M F S S Q U X #.&.&.&.#.Y *.Q N N F E s p n i =.a 4 } -.' ; # .                   I I         ",
"I                             . # ^ ;.] | 5 a d i B p >.M F S Q U X @.&.&.,.'.&.#.X U T N F E s p n m j a 4 } ).' & # +                       I I     ",
"I                             . # ^ > ] } 5 a d i n p C M F N Q U Y #.&.,.!.~.{.].^.$./.(.F E s _.n m j :.4 } ).> & # +                           I   ",
"I                             . # & > ] } 5 a d i n p C <.F [.Q U X #.&.{.!.}.|.#.^.1./.(.F E s _.n i j a 4 } ).> ; # .                             I ",
"I                             . # & ' ] } 5 a d i n p s y F N N Q U X ].{.!.}.2.X U Q N 3.W E s p o  .j x 5 | ] > ; # w                             I ",
"I                               + % & > 2 } 4 0 d m %.p s 4.F N 5.U X Y 2.!.6.7.8.U Q N F E 9.p n i d a 5 | 2 > & 0.+                               I ",
"I                               + a.b.> 2 } h a d m n p s E F N N Q U c.d.!.e.f.U T N g.F M s p n i e a 9 } 2 > & _ ~                               I ",
"I                               + _ b.> ] } 4 a j i n p p H E F N S Q R f.!.h.i.Q N N j.E s p p n i d :.4 } ] ' & _ ~                               I ",
"I                               + # ; > ] } 5 k a e i n p C M E F N N T i.k.l.m.N n.o.E E s p o i d d a 4 } ] p.& # +                               I ",
"I                               + # ; ' ] ] } 4 a v i n n q.C E D W F N r.k.s.r.F o.A E H p n o i d 0 4 c ] ] ' / # +                               I ",
"I                                 + _ & > ] } 4 9 a d m n p p >.C A A F t.k.u.t.E y s s v.p n m d f 4 w.} ] > & $ +                                 I ",
"I                                 + # / & > ] } 4 a a d m n n q.q.P P E y k.x.M H s p p n n m y.d :.4 } ] > & / ) .                                 I ",
"I                                   + # ; > ] ] } 9 a j d i o n p z.z.s A.B.C.A.p p p o o i d d a 4 7 2 ] D.E.$ -                                   I ",
"I                                   . + # ^ > ] [ 5 4 a a d F.i n n n p G.H.I.G.n n n i i d 0 a 4 4 } ] ' E.# - !                                   I ",
"I                                     + b ^ & > ] } 5 4 a a d d i i i J.K.H.L.M.i i i j j a a 9 4 } ] , * E.J .                                     I ",
"I                                       + $ & ' > ] } } 4 4 :.f d d d N.O.H.P.Q.d d d a a 4 4 3 } ] > ' / # +                                       I ",
"I                                       w ~ _ & > , ] ] } h 4 a a 0 0 j R.H.S.T.a a a U.V.W.X.2 2 Y.Y.; # Z..                                       I ",
"I                                         + # $ & * > ] ] } 3 5 h 4 4 a x `. +x 4 9 4 V.X.X..+2 > ++@+# J .                                         I ",
"I                                           + + J ; #+' > ] 2 [ } } } 5 5 `.$+%+} } } } ] ] > > : ; ..~ +                                           I ",
"I                                             . . # _ ^ & ' ] ] ] 2 2 } [ `.&+[ 2 2 6 ] ] > : & % # + +                                             I ",
"I                                                 + ~ ..; & ' , > > *+2 ] `.=+] > > > p.' * & # + +                                                 I ",
"I                                                   + Z.# -+& & & & : > > `.;+' : & & & / $ $ + .                                                   I ",
"I                                                       . + # # # $ % & / `.E.E._ # # # J + .                                                       I ",
"I                                                           + . + - - ) ) `.J J + + + + .                                                           I ",
"I                                                                     . . I . w                                                                     I ",
"I                                                                         I                                                                         I ",
"I                                                                         I                                                                         I ",
"I                                                                         I                                                                         I ",
"I                                                                         I                                                                         I ",
"I                                                                         I                                                                         I ",
"I                                                                         O                                                                         I ",
"I                                                                         O                                                                         I ",
"I                                                                         I                                                                         I ",
"I                                                                         I                                                                         I ",
"I                                                                         I                                                                         I ",
"I                                                                         I                                                                         I ",
"I                                                                         I                                                                         I ",
"I                                                                         I                                                                         I ",
"I                                                                         I                                                                         I ",
"I I I I I I I I I I I I I I I I I I I I I I I I I I I I I I I I I I I I I I I I I I I I I I I I I I I I I I I I I I I I I I I I I I I I I I I I I I I ",
"                                                                          I                                                                           ",
"                                                                          I                                                                           ",
"                                                                          >+                                                                          ",
"                                                                          I                                                                           ",
"                                                                          I                                                                           ",
"                                                                          I                                                                           "};
