/* XPM */
static char *flash2_flash2_h_drum[] = {
/* columns rows colors chars-per-pixel */
"85 53 76 1",
"  c #000000",
". c #262623",
"X c #272822",
"o c #282723",
"O c #282824",
"+ c #292928",
"@ c #3B3B36",
"# c #3C3C38",
"$ c #4A4A44",
"% c #4C4D48",
"& c #57574D",
"* c #5A574E",
"= c #58584E",
"- c #595951",
"; c #636357",
": c #65655A",
"> c #68685E",
", c #6F6F63",
"< c #707065",
"1 c #717168",
"2 c #7B7C6E",
"3 c #7C7C70",
"4 c #848576",
"5 c #858679",
"6 c #878879",
"7 c #8D8E7E",
"8 c #8D8E81",
"9 c #8E9081",
"0 c #939485",
"q c #969789",
"w c #979886",
"e c #979888",
"r c #989987",
"t c #989989",
"y c #9EA08E",
"u c #9EA090",
"i c #A0A18F",
"p c #A0A191",
"a c #A7A896",
"s c #A7A898",
"d c #A8A996",
"f c #A9AA98",
"g c #AFB09E",
"h c #B0B19E",
"j c #B1B2A0",
"k c #B7B8A6",
"l c #B8B7A4",
"z c #B9B9A5",
"x c #BABAA9",
"c c #BEC0AD",
"v c #C0BFAB",
"b c #C1C1AD",
"n c #C3C3B0",
"m c #C7C8B4",
"M c #C8C7B3",
"N c #C9C8B4",
"B c #CECDB9",
"V c #CED0BB",
"C c #D0CFBA",
"Z c #D4D4BD",
"A c #D8D6BF",
"S c #D6D5C1",
"D c #D6D8C3",
"F c #D8D6C2",
"G c #DCDBC6",
"H c #DDDCC8",
"J c #E2E1CB",
"K c #E7E6D1",
"L c #E8E7D2",
"P c #EBEBD3",
"I c #EEEDD8",
"U c #F0EFDA",
"Y c #F3F3DB",
"T c #F9F9DF",
"R c #F9F9E1",
"E c #FEFEFE",
/* pixels */
"EEEEEEEEEEEEEEXOO                                                   o+ooEEEEEEEEEEEEE",
"EEEEEEEEEEE.XX#@##@#@#@#@#@@##@@@#@#@#@@###@@@@@@#@@###@#@######@@##@@@#o+EEEEEEEEEEE",
"EEEEEEEEEEXO###$$$$$$$$$$$$$$$$$$$$$$$$$$$$$$$$$$$$$$$$$$$$$$$$$$$$$$$$$#X.EEEEEEEEEE",
"EEEEEEEEEX@@$$$--=-*-----=---*-=---=-=---=-=-----------------=--=&====$$$$@+EEEEEEEEE",
"EEEEEEEE.#%$-*-::::::::::::::::::::::::::::::::::::::::::::::::::::;::&--$$@XEEEEEEEE",
"EEEEEEEo#$--:::<<<<<<<<<<<<<<<<<<<<<<<<<<<<<<<<<<<<<1111,11<,<<<<<<<<<:::==$@XEEEEEEE",
"EEEEEEX@$--:<<<<<<<<<<<<<<<<<<<<<<<<<<<<<<<<<<<<<<<<<<<,11<<<<<<11<<<<1,<:&=$@XEEEEEE",
"EEEEEXX$$-:<<<,3322232323333323322333333333322223333333333333333222222,1<,;=$$XXEEEEE",
"EEEEOo$$-:<<3226555546555555555455554555555555565564666755555555655665333,1:-$$.EEEEE",
"EEEEO$$-:1<3644987878888888888908888078888887079888977778888888877778856531,,-$$XEEEE",
"EEEEX$-:1<35777ttrrrtttttttttrttttttttrrtttrttrrttttttrrqtttttttyettqt88853,,;-$oEEEE",
"EEEX@$-,<257ettpiiiipippppppppiipppppppipppppppippppppiippupppppyyiuuuttt853,,-$@oEEE",
"EEEX$-11250teyyfffffffdfffffffffffffffdfffddfffffffffffffffdffffgfdfffuutq952,,-$oEEE",
"EEX@$-,3387tiffhjjhjhhhhhhhhhhhhhhhhhhhhhhhhhhhhhjhhhhhhhhhhjjhhjhhjjjffutt8521-$ooEE",
"EEX$-:1389tpfjhxxzxzzzzzzzzzzzzzzzzzzzzzzzzzzzzzzzzzhvvhzzzzzzzzzzzzkkjjfit7821:*$OEE",
"EEX$-1369ttfjzkbbnbbbbbbbbbbbbbbbbbbbbbbbbbbbbbbbbbbbbbbbbbbbbbbbbbbcbzzjfpt853,-$oEE",
"EX$$-129tufjxccmmmMMMMBMMMMMMNMMNNNNNNMMNMMMNNMMNNNNMMMMMBNNNNNNmNmNNNnnzlstt831-$$OE",
"EX$=1<38tfjjcmmVBBBCCCCBCBCCCCCBCCCCCCCCCCCCCCCBBBCCCBCCBBCCBCCCVVBBBZMMbzlft8311-$OE",
"EX$*1388tfhccmVDDFFSSFFSSSSSFFDSSSSSSSSSFFSSDDSSSFAFSSSSFAFFAAAZAAAADFCbvvjfq983<-%OE",
"EX$*129tfjzbmVDDDZSFFSSSSSSSFFFSSSSSSSSSSFSSSSDDSAFASSSSAZZFAAFFAAAAZDFCNvxjft831-$OE",
"EX$-138tfjbNVAAAGJHGGHGGHHHGGGHHHGHGGGGGGGGGHHHHGGGGGGGGGGGGGGGGGGGGFHSDSNvlft93<-$oE",
"EO$=128tfhbNDAGGJJJJJJJJJJJJJJJJJJJJJJJJJJJJJJHJJJJJJJJJJJJJJJJJJJJJJHHSSNvjfq93<-$oE",
"X$-116tthzbNAGJJLJLJLLLLLLLLKKPKLLLLLLLLLLLLLLLLLLLLLLLLJPKPPPJPLLJPKJJGSMNvjpt3<1$@o",
"X$-<39tfhbbNAGPPUIIIIIIIIIIIIIPIIIIIIIIIIIIIIIIIIIIIIIIIIPIPPPIPUIUPPLLGSMNvjft93<-$.",
"X$&<39efjcmBAJLPYYYYYYYYYYYYYYYYURYYYYYYYYYYYYYYYYYYYYYYYYYYYYYYYYYYYILGACMbjft73<-$+",
"X$=<39tfhcMDGKIYTTTTRRRRRRRRRRRRRRRRRRRRRRRRRRRRRRRRRRRRTTRTTTRTRRRRTYILGANbjat931-$o",
"X$&<39tfhcMFGKIRRTTTRRRRRRRRRRRRRRRRRRRRRRRRRRRRRRRRRRTRTTTTTTRRRRYTTRILGANbjft93<-$+",
"X$=<29tfhnMFGKIYRYYYYYYYYYYYYYYYURUYYYYYYYYYYYYYYYYYYYYYYYYYYYYYYYTYRYILGDMbjft73<-$O",
"X$=<47tfhcMCFJLIYYPPYIIIIIPPUPIIIIIIIIIIIIIIIIIIIPIIIIIPPPPPIPIIPPIIYYKJAVMbhfr72<*$O",
"X$=<27tfjcbMFGLLIJKKLLPJKKKPKPJPLLLLLLLLLLLLLLLLPLLLJPPKPKPKPKKPLLPLIKKGFNNblft72<*$O",
"X$&<<6rihxcmFGJJPJJJJJJJJJJJJJJJJJJJJJJJJJJJJJJJJJJJJJJJJJJJJJJJJJJJLJJGAMNzhpt2<<$@O",
"EX$&,27rfhbMFFFHJGGGGGGGGGGGGGGGGHGGGGGGGGGGGGGGGHGHGGGGGGGGGGGGGHHFJHGFAMbhft72<=$OE",
"EO$*<38qfhvBBFAFGFDFSSSSFZFZFFDFSSSSSSSSFFFFSSFFFSSSFFFSSSFFFSSSAAASHHFFCmvkft93<-$oE",
"EO$*<38tfjxvNBFFDFFFSSSFFFFASZFDSSSFSSSSFFSSSSFFSSSSFFFSSSFFFSSSAAFSSSFCMvxjfr83<*$OE",
"EO$-1388efhbbNCFFCCCBCBBBCCCBCCCCCCCCCCCCCCCBSBCCSBBCCCCBSBSCCBBCCBCSFCNxxjsq7831-$oE",
"EX$-1<38tfhhvBNBCMMMMMMBNNNNNNMMMMMMNNNNNNNNvNMNNNNvNNNBvNNvNNBvNMNNCCMMmxjsq83<1-$oE",
"EX$$*<38tpfhxvbNNvvnbbbbbbbbccncvvvvvvvvvvvvvvvvvvvvvvvvvvvvvvvvvvMvBNvvxjfpt83,*$$oE",
"EEX$-<359epfhxzbvzxxzzxzzzzzxxzxxxxxxxxxzvvxvzvzxxzxvxxzxzvxxxxvhvzvvbzzjspq8531-$oEE",
"EEX$->,297epfjjzxhhhhhhhhhhhjjjjjjjjjjjjjjjjjjhhjjjjjjjjjjjjjjjjjjhhllhlsuq8831:-$OEE",
"EEo#$*<229ttpffjhfffffffffffffffffffffffsssfffffsfffsfsffssgssssffgfhhffpqt8531-$OOEE",
"EEEX$&,,2570eppffpppppppuuuuuuuupppppppupuppppppppppiippuuppppppppppsfpprw762<<=$OEEE",
"EEE.#$=<<257teeppeeeteeteetteytttttttqttttttttttttttttttttttttttttttppttw762<,-$#OEEE",
"EEEEX$=:1<35988et997888899997777999988888888797779797777777799798788tt88762<,>&$XEEEE",
"EEEEX$$*:<<365599666565546666565555555555555666655555555555555555555985662<,:=%$OEEEE",
"EEEEOX$$-:113235523333333332222233333333333333333333333333333333333355322<<>&$$.EEEEE",
"EEEEEOX$$-:1<<<23<<,<<<<<<<<<<<<11<<<<<<<<<<<<<<<<<<<<<<<<<<1<<<<<1,33<<<1:=$$.oEEEEE",
"EEEEEEX@$*-:<<<<<<<,<1<<<1<<11<<1<<1<<<<<<<<<<<<<<<<<<<<<<<<<<<<,1111111<:=-$@.EEEEEE",
"EEEEEEEX#$-*:::<<::::;:::::::>:>::;:;;:::;::;;:::::::::::;:;::::::::,<:::--$@OEEEEEEE",
"EEEEEEEE.@$$*==:>===============================*****=-=========**==::===$$#.EEEEEEEE",
"EEEEEEEEEX@#$$$&=$$$$$%%%$$%$%$$$$$$$$$%$$$$$$$$$$$$$$$$$$$$$$$$$$$$==$$%$@XEEEEEEEEE",
"EEEEEEEEEEO.##@$%@##@@#@@@@@@@@@@@@@@@##@@@@@@#@@##@@@@@@@@@@@@@@@@@$$$@@XOEEEEEEEEEE",
"EEEEEEEEEEEoOO###OOOXOOOOXXXXOX+OXOOOOOOOOOOOX+OoOOXOXXOOOOOXOOXXXOO#@@XXXEEEEEEEEEEE",
"EEEEEEEEEEEEEEO.O                                                   OO+OEEEEEEEEEEEEE"
};
