/* XPM */
static char * flash2_flash2_heater[] = {
"45 45 208 2",
"  	c None",
". 	c #282924",
"+ 	c #292824",
"@ 	c #282826",
"# 	c #3B3C36",
"$ 	c #3C3B36",
"% 	c #3B3C37",
"& 	c #000000",
"* 	c #4B4B43",
"= 	c #4B4A45",
"- 	c #4A4B43",
"; 	c #59594F",
"> 	c #595951",
", 	c #282923",
"' 	c #65655B",
") 	c #656559",
"! 	c #292A25",
"~ 	c #7C7C70",
"{ 	c #86867A",
"] 	c #868779",
"^ 	c #7C7C72",
"/ 	c #7B7B6F",
"( 	c #292823",
"_ 	c #3A3B36",
": 	c #585850",
"< 	c #8E8F81",
"[ 	c #8E8F7F",
"} 	c #66665C",
"| 	c #8D8E80",
"1 	c #98998B",
"2 	c #979888",
"3 	c #989989",
"4 	c #585A4F",
"5 	c #A0A191",
"6 	c #63655A",
"7 	c #5A5A52",
"8 	c #000100",
"9 	c #272823",
"0 	c #64645A",
"a 	c #999A8A",
"b 	c #A9AA9A",
"c 	c #A9AA98",
"d 	c #A0A18F",
"e 	c #A1A292",
"f 	c #8D8F81",
"g 	c #8D8F82",
"h 	c #4A4B45",
"i 	c #3B3C34",
"j 	c #AAAB9B",
"k 	c #B1B2A0",
"l 	c #B2B3A1",
"m 	c #97998B",
"n 	c #BAB9A7",
"o 	c #BAB9A5",
"p 	c #B8B9A7",
"q 	c #65655D",
"r 	c #010000",
"s 	c #4B4B41",
"t 	c #C2C1AD",
"u 	c #C2C1AF",
"v 	c #C0C1AF",
"w 	c #010100",
"x 	c #67645B",
"y 	c #7E7C70",
"z 	c #B1B2A4",
"A 	c #B2B3A3",
"B 	c #B7B9A4",
"C 	c #C1C0AC",
"D 	c #C9C8B4",
"E 	c #85867E",
"F 	c #676559",
"G 	c #7D7B6F",
"H 	c #87887A",
"I 	c #B2B3A5",
"J 	c #010200",
"K 	c #C0C1B1",
"L 	c #D1D0BC",
"M 	c #D0CFBB",
"N 	c #CFCEBA",
"O 	c #8E8E82",
"P 	c #7B7C74",
"Q 	c #585951",
"R 	c #494A42",
"S 	c #3C3B37",
"T 	c #8F9082",
"U 	c #C0C0B4",
"V 	c #C7C8BA",
"W 	c #D0CFBD",
"X 	c #DDDCC7",
"Y 	c #DEDCC7",
"Z 	c #D1CFBA",
"` 	c #97998C",
" .	c #86867C",
"..	c #B1B2A2",
"+.	c #C7C7BB",
"@.	c #D0CEBF",
"#.	c #DDDCCA",
"$.	c #DDDCC8",
"%.	c #E3E2CD",
"&.	c #E2E1CC",
"*.	c #9FA194",
"=.	c #000200",
"-.	c #8E8E84",
";.	c #87877D",
">.	c #A2A091",
",.	c #B1B1A5",
"'.	c #C9C8B6",
").	c #E0E1D3",
"!.	c #E2E1CD",
"~.	c #E9E8D3",
"{.	c #E8E7D2",
"].	c #D0CFBA",
"^.	c #A0A094",
"/.	c #8F9080",
"(.	c #A9AA9C",
"_.	c #E8E7D5",
":.	c #EEEDD9",
"<.	c #EEEDD8",
"[.	c #B9B8A6",
"}.	c #98988E",
"|.	c #7C7D6F",
"1.	c #B0B1A1",
"2.	c #E1E0CC",
"3.	c #F2F3E3",
"4.	c #F5F4DF",
"5.	c #F4F4DC",
"6.	c #EEEED6",
"7.	c #E8E8D0",
"8.	c #B8B9A9",
"9.	c #87877B",
"0.	c #C0C1B3",
"a.	c #F9F8E4",
"b.	c #F4F3DE",
"c.	c #F5F5DD",
"d.	c #DEDDC9",
"e.	c #B8B9AB",
"f.	c #A9A99D",
"g.	c #A0A193",
"h.	c #ABA99D",
"i.	c #030100",
"j.	c #E8E7D3",
"k.	c #F4F3DF",
"l.	c #F7F8E6",
"m.	c #C1C0AE",
"n.	c #AAAB9D",
"o.	c #4A4A42",
"p.	c #ABA89F",
"q.	c #030000",
"r.	c #C0C2AD",
"s.	c #C2C0B1",
"t.	c #B0B2A5",
"u.	c #8D8E7E",
"v.	c #B1B1A7",
"w.	c #E6E7D7",
"x.	c #E3E2CE",
"y.	c #DCDBC6",
"z.	c #CAC8B9",
"A.	c #C2C0B3",
"B.	c #E6E7D5",
"C.	c #E2E1CF",
"D.	c #A8A999",
"E.	c #4C4C44",
"F.	c #5A5A50",
"G.	c #8D8F84",
"H.	c #B0B3A2",
"I.	c #CECFC1",
"J.	c #8E8F87",
"K.	c #B0B3A0",
"L.	c #B8BAA5",
"M.	c #C9C7B8",
"N.	c #020200",
"O.	c #7D7D73",
"P.	c #B0B19F",
"Q.	c #908E81",
"R.	c #89877A",
"S.	c #7C7C74",
"T.	c #020300",
"U.	c #888679",
"V.	c #7E7C6F",
"W.	c #65645F",
"X.	c #C7C9B4",
"Y.	c #C1C2B0",
"Z.	c #4A4A40",
"`.	c #3B3B33",
" +	c #292826",
".+	c #595854",
"++	c #BAB8A9",
"@+	c #BFC1AC",
"#+	c #B1B39E",
"$+	c #A9AB96",
"%+	c #3C3D37",
"&+	c #656660",
"*+	c #B9BAA8",
"=+	c #585953",
"-+	c #AAAB99",
";+	c #58584E",
">+	c #646458",
",+	c #4A4C41",
"'+	c #7D7D71",
")+	c #999A8C",
"!+	c #272924",
"~+	c #272926",
"{+	c #858678",
"]+	c #282A27",
"^+	c #3A3B35",
"/+	c #3B3A35",
"(+	c #272725",
"_+	c #4C4B46",
"                                        . . + + @                                         ",
"                              @ @ . . . # # $ $ % . . . . @                           &   ",
"                          . . # # # $ $ * * * * = $ $ $ # # . .                       &   ",
"                      @ . # # - - - * * ; ; > > > * * * - - # % . .                 &     ",
"                    . , $ * * ; ; ; ; ; ' ) ' ' ' ; ; ; ; > * = # ! .               &     ",
"                @ . # # * * ; ' ' ' ' ) ~ ~ ~ ~ ~ ' ' ' ' ' > * - # # . !         &       ",
"              @ . # = = > ; ' ' ~ ~ ~ ~ { ] ] ] ] ~ ^ ^ / ) ' ; ; * * $ ( +       &       ",
"            @ _ # - * : ' ' ^ ~ ] ] { ] < < [ [ < ] { { { ~ ~ ' ' ; * * $ $ @   &         ",
"          @ . # * ; ; } ) / { ] < < | < 1 2 3 3 3 < < < < ] ] ~ ) ) 4 4 * $ . @ &         ",
"          . # - ; ; ) ~ ~ ] ] < < 1 1 3 5 5 5 5 5 3 1 1 1 < ] ] ~ ~ 6 4 7 * # 8           ",
"        9 # = * ; 0 ~ ] ] < < a 3 5 5 5 b c c c c d 5 e 3 3 f g ] ] ~ ) ; * h 8 .         ",
"      . , i * ; ' ~ ] ] < [ 3 e 5 j b c k l k k k c b b d 5 m m | ] { ~ ' > 8 % . .       ",
"      . $ * > ' ' ~ ] < 3 3 5 c c k k k n o n n p k k k c c 5 3 3 [ ] ~ } q r = # .       ",
"    . # * s ; ) / ] < [ 3 5 b c l k p p t t u u v p p k k c b 5 3 3 < { ^ w > = h # 9     ",
"    . # * ; x y { ] < 3 5 b z A p B t C D D D D D t t o p k l c d 3 < { E 8 q > - # .     ",
"  . % - > ' F G H < a 5 c b I J K v D D L M N M L D D t v p k c c e 1 O 8 P ' ' Q R % @   ",
"  . S * > ' ~ { T < 3 5 c A w U w V W M X X X X Y Z M D t t p k c 5 m ` w  .^ ' ; * % @   ",
"  . S * > ' ~ { < 1 5 b ....J U +.J @.#.$.%.&.&.Y Y M M D t p k k b *.=.-.;.^ ' ; * # .   ",
"  9 S * > ' ~ { < 3 >.b ,.J K '.W @.J ).!.~.{.{.&.&.X ].M D u n k b ^.w O { ^ ' ; * # .   ",
"  . $ * ; ) ~ ] /.3 >.(.,.w u D M #.).J _.:.<.<.~.{.&.X M D u [.k b w }.< ] / ' ; * # .   ",
". # = > ) |.] [ 3 5 c 1.w U '.M N $.2._.J 3.4.5.6.7.&.X M M D u 8.z w ^.1 < 9./ ' > = S @ ",
". # * ; ) |.] [ 3 5 b z J 0.'.M $.!.{.:.3.J a.b.c.6.{.&.d.M D u e.J f.g.2 [ ] ~ ' ; = $ @ ",
". # * ; ) |.] < 3 g.h.i.8.v D M X &.j.:.k.a.J l.b.6.{.&.X ].D m.e.=.n.5 3 [ ] ~ ' ; = $ @ ",
". # o.> ' ~ ] < 3 g.p.q.8.r.D M X &.j.<.5.b.l.J k.<.{.&.X M D s.w t.(.5 3 u.] ~ ' ; = $ @ ",
". # * : ' ~ ] < 3 g.w v.8.v D M ].X &.{.6.5.b.k.J w.x.y.M M z.A.J z b 5 3 < { ~ ' ; h # @ ",
"  9 $ * ; ' ~ ] < 1 w f...p t D ].X &.{.7.6.6.<.B.J C.$.M '.A.i.z D.e 3 < ] ~ ) ; E.# .   ",
"  @ $ * F.' ~ { G.=.^.b H.p t D M M X &.&.{.{.{.!.C.J I.W '.U w ..b 5 3 < ] ~ ) ; * # .   ",
"  @ S * > ' ~  .J.=.g.b K.k L.t D L ].X X &.&.&.X #.I.J M.s.N.,...c 5 3 < ] ~ ) ; * # .   ",
"  @ S * > ' O. .8 G.1 5 c P.p v t D M M X X $.$.$.W W M.J U w z D.d 3 3 Q.R.~ ' ; * # .   ",
"  @ S = > ' q S.=.g 1 5 b c k p t C D D M ].M M W '.D u 0.T.z b b d 3 [ U.V.' ' ; * # @   ",
"    + $ * 7 W.w  .] < 1 g.b k k p p u u D D X.X.D t Y.p p k k b 5 a < ] ] |.' ; Z.`..     ",
"     +S = = .+r ~ ] < < 1 5 b c k k ++n u t @+r.t o p k #+$+c d 3 3 < ] |.) ; s * $ .     ",
"      . %+h 8 &+' ~ ] | 3 a 5 b c k k k *+p p p p k #+#+$+$+d 3 1 < { ~ ) ' ; * # .       ",
"      9 . # 8 =+' ~ { ] < [ 3 5 5 c c c l l k k k c -+$+d d 3 [ | H { ~ ' ; o.$ . .       ",
"        @ 8 h - ;+>+~ ] ] < < 3 3 5 5 5 c c b b b 5 5 d 3 3 [ < ] ] ~ ' 4 ,+- # .         ",
"          8 # - > ; ' '+~ ] { < < 3 3 3 5 d 5 5 5 3 3 3 [ [ ] ] |./ ' ; 4 - # .           ",
"        & 9 , i * ; ; ' ' ~  .{ < < < [ 3 a 1 )+1 < < < < ] { ~ ) ' F.> - # !+~+          ",
"        &   . # $ * * ; ' ' ^ ^ { {+{ ] < [ < < < ] ] { 9.~ ~ ) ' ; * * # % ]+            ",
"      &       @ 9 ^+= * ; ;+} ' ~ ~ ^ ^ ] ] { { { ~ ~ O.O.0 ' ; > * h # . .               ",
"      &         @ . S /+* s ; ' 0 ' q ' ~ ~ ~ ~ ~ ) ' ' q q > * * $ # . .                 ",
"    &               (+9 # - * ; ; ; > > ' ' ' ' ' ; > > ; > o._+# . @                     ",
"    &                 @ . # $ * * * * * > ; ; F.> E.* E.* * /+S . @                       ",
"  &                       . . # i i # # - - * * h # % % # # . @                           ",
"  &                           . , , . . # # $ $ % . @ @ . .                               ",
"&                                       @ . ! . @                                         "};
