/* XPM */
static char * flash3_flash3_heater[] = {
"45 45 210 2",
"  	c None",
". 	c #282924",
"+ 	c #282826",
"@ 	c #3B3C36",
"# 	c #3A3B35",
"$ 	c #3B3C37",
"% 	c #292927",
"& 	c #000000",
"* 	c #282723",
"= 	c #3C3B37",
"- 	c #3C3B36",
"; 	c #4B4B43",
"> 	c #4B4A45",
", 	c #3C3D37",
"' 	c #59594F",
") 	c #5A5A50",
"! 	c #5A5A52",
"~ 	c #595951",
"{ 	c #585850",
"] 	c #4A4B43",
"^ 	c #272725",
"/ 	c #65655B",
"( 	c #656559",
"_ 	c #4B4C44",
": 	c #4A4B45",
"< 	c #7C7C70",
"[ 	c #7C7C72",
"} 	c #585951",
"| 	c #010101",
"1 	c #272823",
"2 	c #86867A",
"3 	c #868779",
"4 	c #7B7B6F",
"5 	c #4A4A42",
"6 	c #3D3C37",
"7 	c #4B4B41",
"8 	c #8E8F81",
"9 	c #7D7D71",
"0 	c #98998B",
"a 	c #989989",
"b 	c #8D8E7E",
"c 	c #3B3A35",
"d 	c #858678",
"e 	c #999A8C",
"f 	c #A0A191",
"g 	c #58584E",
"h 	c #000100",
"i 	c #7B7D70",
"j 	c #858779",
"k 	c #A0A193",
"l 	c #A0A18F",
"m 	c #A9AA98",
"n 	c #A1A290",
"o 	c #7C7D6F",
"p 	c #282923",
"q 	c #3B3C34",
"r 	c #8E8F7F",
"s 	c #A9AA9A",
"t 	c #AAAB99",
"u 	c #B1B39E",
"v 	c #B1B2A0",
"w 	c #B2B3A1",
"x 	c #B0B19F",
"y 	c #BAB9A5",
"z 	c #BAB9A7",
"A 	c #B8B9A9",
"B 	c #B1B2A2",
"C 	c #979888",
"D 	c #64645C",
"E 	c #B8B9A7",
"F 	c #C2C1AD",
"G 	c #C2C1AF",
"H 	c #C0C1AF",
"I 	c #010100",
"J 	c #292824",
"K 	c #B0B3A2",
"L 	c #B8BAA5",
"M 	c #C9C8B4",
"N 	c #86867E",
"O 	c #65655D",
"P 	c #64645A",
"Q 	c #999A8A",
"R 	c #A8A999",
"S 	c #AFB1A3",
"T 	c #000200",
"U 	c #C0C1B1",
"V 	c #D0CFBB",
"W 	c #CFCEBA",
"X 	c #CAC9B5",
"Y 	c #C1C2B0",
"Z 	c #A1A292",
"` 	c #8F8F83",
" .	c #7C7C74",
"..	c #C1C1B5",
"+.	c #C7C8BA",
"@.	c #D0CFBD",
"#.	c #DDDCC7",
"$.	c #D0CFBA",
"%.	c #B9BAA8",
"&.	c #98988C",
"*.	c #85877C",
"=.	c #010200",
"-.	c #C0C0B4",
";.	c #C7C7BB",
">.	c #030100",
",.	c #D0CEBF",
"'.	c #DDDCCA",
").	c #DDDCC8",
"!.	c #E2E1CC",
"~.	c #E1E0CB",
"{.	c #A0A094",
"].	c #8E9083",
"^.	c #85877A",
"/.	c #9FA090",
"(.	c #B1B1A5",
"_.	c #C1BFB0",
":.	c #C9C8B6",
"<.	c #E0E1D3",
"[.	c #E2E1CD",
"}.	c #E8E7D2",
"|.	c #D1D0BC",
"1.	c #4C4C44",
"2.	c #A9AA9C",
"3.	c #B2B2A6",
"4.	c #D1CEBB",
"5.	c #E1DFD2",
"6.	c #E8E7D5",
"7.	c #EEEDD9",
"8.	c #EEEDD8",
"9.	c #E9E8D3",
"0.	c #DEDDC9",
"a.	c #98988E",
"b.	c #CAC9B7",
"c.	c #F2F3E3",
"d.	c #F2F4DE",
"e.	c #F2F4DC",
"f.	c #EEEED6",
"g.	c #E8E8D0",
"h.	c #B2B3A5",
"i.	c #8F9082",
"j.	c #B1B2A4",
"k.	c #C0C1B3",
"l.	c #F4F2E3",
"m.	c #F7F9E4",
"n.	c #F4F4DC",
"o.	c #B8B9AB",
"p.	c #A9A99D",
"q.	c #494A44",
"r.	c #5C5952",
"s.	c #ABA99D",
"t.	c #040200",
"u.	c #F4F3DE",
"v.	c #F9F8E4",
"w.	c #F7F8E6",
"x.	c #CFCEB9",
"y.	c #CAC7B4",
"z.	c #B8B8AC",
"A.	c #4D4A43",
"B.	c #5B5851",
"C.	c #ABA89F",
"D.	c #030000",
"E.	c #C1C3AE",
"F.	c #F5F3DC",
"G.	c #F7F8E8",
"H.	c #F4F3DF",
"I.	c #C2C0B1",
"J.	c #B0B2A5",
"K.	c #4C4B46",
"L.	c #4C4942",
"M.	c #B1B1A7",
"N.	c #F5F4DF",
"O.	c #F2F4DF",
"P.	c #F2F3E1",
"Q.	c #E6E7D7",
"R.	c #C8C6B7",
"S.	c #C2C0B3",
"T.	c #ECEED8",
"U.	c #EDEFDA",
"V.	c #E2E1CF",
"W.	c #8D8F84",
"X.	c #CECFC1",
"Y.	c #020200",
"Z.	c #B4B2A5",
"`.	c #ABA99A",
" +	c #86867C",
".+	c #8D8E86",
"++	c #DEDDC8",
"@+	c #CECFBF",
"#+	c #C9C7B8",
"$+	c #B3B1A4",
"%+	c #C8C7B3",
"&+	c #8F9080",
"*+	c #595853",
"=+	c #65645F",
"-+	c #C0C2AD",
";+	c #292826",
">+	c #595854",
",+	c #010000",
"'+	c #87887A",
")+	c #4A4944",
"!+	c #8D8E80",
"~+	c #B3B2A0",
"{+	c #ABAA98",
"]+	c #87877B",
"^+	c #A8A997",
"/+	c #868777",
"(+	c #292A25",
"_+	c #646458",
":+	c #3A3B36",
"<+	c #66665C",
"                                        . . . . +                                         ",
"                              + + . + . @ @ @ # $ . + + + %                           &   ",
"                          . * = = - = - ; ; ; ; > - - - @ @ . +                       &   ",
"                      . . , - ; > ; > ; ' ) ! ~ { ; ; ; ] ] @ $ . ^                 &     ",
"                    + . - ; ; ' ~ ' ~ ' / ( / / / ' ' ' ' ! _ : @ . ^               &     ",
"                + . $ @ ; ; ' / / / / ( < < < < [ / / / / / } ] ] @ $ . +         |       ",
"              . 1 @ ; ; ' ' / / < < < < 2 3 3 3 2 4 < < < ( / ' ' 5 ; 6 1 .       &       ",
"            . @ @ _ 7 ' / / [ < 3 3 2 3 8 8 8 8 8 3 2 2 2 < 9 / / ' ; 5 @ @ +   &         ",
"          + 1 @ ; ' ' / ( < 2 3 8 8 8 8 0 a a a a b 8 8 8 3 3 < ( ( ' ' ; c . + &         ",
"          . , ] ' ' / 9 < d 3 8 8 0 e a f f f f f a 0 0 0 8 3 3 < < ( g ' ; @ h           ",
"        . @ > ; ' / i j 3 8 8 a 0 k f l m m m m m n f f a a 8 8 3 3 o ( ' 5 : h .         ",
"      . p q ; ' / 4 j j 8 r a f f s m t u u v v w m s s f f 0 0 8 3 3 < / ~ h @ p .       ",
"      . - ; ~ / / < 3 8 a a l m m v v x y y z z A B v v m m f a C r d < / D h : @ p       ",
"    1 @ ; ; ' / < 3 8 r a l m t v v E E F F G G H E E v v m s f a a 8 2 [ I } ] ] @ +     ",
"    J - ; g / [ 2 3 8 a f t K K E L F F M M M M M F F y E v v m f a 8 2 N I O ~ ; - .     ",
"  . = 5 ~ / P < 3 8 Q f m R S T U H M M V V W V V X X F Y E v m s Z e ` I  ./ / ~ ; @ .   ",
"  . = ; ~ P < 2 8 r a f m B I ..I +.@.V #.#.#.#.#.$.V M F F %.v m f 0 &.T *.[ / ' ; @ .   ",
"  . = ; ~ / < 3 8 a f s B B =.-.;.>.,.'.).!.~.!.#.#.V V M F E v v s {.I ].^.[ / ' ; @ .   ",
"  . = ; ~ / < 3 8 a /.s (.=._.:.@.,.>.<.[.}.}.}.!.!.).|.W M G z v s {.I 8 3 < / ' 1.@ .   ",
"  . c ; ' ( < 3 r a f 2.3.I G M 4.'.5.=.6.7.8.8.9.}.[.0.V M G z v s I a.8 3 9 / ' ; @ .   ",
". @ > ~ / 9 2 8 a f m B I -.b.V $.).[.6.=.c.d.e.f.g.!.#.V V M G A h.I {.0 i.2 9 / ~ : $ . ",
". @ ; ~ / < 3 8 C f s j.I k.:.V #.!.}.7.l.=.m.d.n.f.}.!.#.V M G o.I p.k a r 2 < / ' q.@ . ",
". @ ; r./ < 3 8 a k s.t.A H M |.#.!.}.8.u.v.=.w.u.f.}.!.#.x.y.G z.T 2.f a r 2 < / ' > - 1 ",
". @ A.B./ [ 2 8 a k C.D.A E.M V #.!.}.8.F.u.G.=.H.8.}.!.#.$.y.I.I J.2.f a 8 2 < / ' K.- + ",
". @ L.B.O [ 2 8 a k I M.A H M 4.$.#.!.}.f.N.O.P.=.Q.[.#.$.|.R.S.=.h.s f 0 8 2 [ / ' > - + ",
"  . - A.~ / < d 8 0 I p.B E F y.$.#.!.}.g.f.T.U.Q.=.V.).|.:.S.>.j.2.f a 8 2 [ P ' ; - J   ",
"  . - ; ' / < 2 W.T {.s v L F M V V #.!.!.}.}.}.[.V.=.X.@.:.k.Y.Z.`.f a 8 2 [ O ' 1.@ .   ",
"  . - ; ' / <  +.+T k s v u y F M V $.#.++!.!.~.#.).@+=.#+I.I (.$+`.f a 8 2 [ O ' ; @ .   ",
"  + = ; ' / [  +h W.0 f m v E H F %+V V #.#.).).).V V :.=.-.I j.s l a a 8 2 [ / ' 5 @ .   ",
"  + = > ~ O O  .T ].0 Z s m v E F F M X V $.|.V V M M G k.I j.2.s l a &+3 < / / ' ; $ +   ",
"    J - > *+=+I ^.j 8 a f s v x E E G F M M M X %+F -+E A B B s f a 8 3 2 4 / ' ] q .     ",
"    ;+= > > >+,+i j 8 8 a f m m v v z z F F F F F y E v v m m l a a i.'+< ( ' ; ] @ ^     ",
"      . - )+,+=+/ o '+!+a a f s m v v v E E z z z ~+v w m m f a 0 8 2 < / / ~ 1.@ .       ",
"      + J - ,+*+/ < 2 3 r b a f f m m m w v ~+~+~+{+m m l l a r 8 3 2 < / ' ; - . +       ",
"        + h > ; ' / [ ]+3 r 8 a a f f f ^+m s s s f /.f a a r r 3 3 < / ' 7 ] @ .         ",
"          h - ; ~ ' / 4 o 3 3 8 r Q a a f l f f f Q a a r &+/+3 o < / ) ' ; @ (+          ",
"        & + . , ; ~ ' / ( < 2 '+r r 8 r a a 0 0 0 !+8 8 8 '+3 < _+/ ' ~ ; - . +           ",
"        &   + $ - ; ; ' / / < < 3 3 3 3 8 r 8 8 8 3 2 3 2 < < ( / ' ; > - = +             ",
"      &       ^ (+@ : ] ' ' / ( 9 < < < 3 3 2 2 2 < [ < [ / / ' ~ ; > - ^ +               ",
"      &         + . :+@ ; 7 ' / / ( P / < < < [ [ / / / / <+' ; ; - - J +                 ",
"    &               + . @ ] ; ' ' g ' ' / / / / / ' ~ ~ ' ' ] : @ . ^                     ",
"    &                 + 1 @ - ; ; ; ; 5 ' ' ~ ~ ~ ; ; ; 5 ; , $ . +                       ",
"  |                       . . @ @ @ @ @ ] ] : : : @ @ @ @ @ + +                           ",
"  &                           . + . + . @ @ @ @ $ . . . . .                               ",
"&                                       + . . . +                                         "};
