/* XPM */
static char * flash2_flash2_v_drum1[] = {
"50 78 165 2",
"  	c None",
". 	c #272725",
"+ 	c #3B3C37",
"@ 	c #3B3C36",
"# 	c #282924",
"$ 	c #3A3B35",
"% 	c #3C3B36",
"& 	c #4B4A45",
"* 	c #4B4B43",
"= 	c #4C4C44",
"- 	c #3B3A35",
"; 	c #4A4B43",
"> 	c #494A42",
", 	c #595951",
"' 	c #65655B",
") 	c #65655D",
"! 	c #585951",
"~ 	c #3C3B37",
"{ 	c #3D3C37",
"] 	c #59594F",
"^ 	c #64645A",
"/ 	c #717165",
"( 	c #717167",
"_ 	c #707064",
": 	c #64665B",
"< 	c #282826",
"[ 	c #3B3B39",
"} 	c #656559",
"| 	c #86867A",
"1 	c #868779",
"2 	c #87877B",
"3 	c #858678",
"4 	c #707265",
"5 	c #4B4C44",
"6 	c #4A4B45",
"7 	c #8E8F81",
"8 	c #989989",
"9 	c #98998B",
"0 	c #585A4F",
"a 	c #7C7C70",
"b 	c #A0A191",
"c 	c #9FA090",
"d 	c #7D7D71",
"e 	c #57594E",
"f 	c #4B4B41",
"g 	c #58584E",
"h 	c #A0A18F",
"i 	c #A9AA98",
"j 	c #B1B2A0",
"k 	c #B2B3A1",
"l 	c #717264",
"m 	c #3C3C34",
"n 	c #7B7B6F",
"o 	c #B8B9A7",
"p 	c #B9BAA8",
"q 	c #B1B2A2",
"r 	c #A9AA9A",
"s 	c #999A8C",
"t 	c #85877A",
"u 	c #8D8F81",
"v 	c #B8BAA5",
"w 	c #BAB9A5",
"x 	c #C2C1AD",
"y 	c #C9C8B4",
"z 	c #B9B8A4",
"A 	c #8E8F7F",
"B 	c #7C7D6F",
"C 	c #87887A",
"D 	c #8C8E80",
"E 	c #97998B",
"F 	c #979888",
"G 	c #B0B19F",
"H 	c #C0C2AD",
"I 	c #C7C9B4",
"J 	c #D7D6C2",
"K 	c #D7D6C1",
"L 	c #C1C2B0",
"M 	c #A8A999",
"N 	c #3B3C34",
"O 	c #B2B19F",
"P 	c #BAB9A7",
"Q 	c #D0CFBB",
"R 	c #DDDCC7",
"S 	c #DCDBC6",
"T 	c #D0CFBA",
"U 	c #C2C1AF",
"V 	c #E3E2CD",
"W 	c #E8E7D2",
"X 	c #D6D5C0",
"Y 	c #B9B8A6",
"Z 	c #D1D0BC",
"` 	c #E2E1CC",
" .	c #E9E8D3",
"..	c #E8E8D0",
"+.	c #EEEED6",
"@.	c #5A5A4E",
"#.	c #EDEDD5",
"$.	c #F4F4DC",
"%.	c #FAFAE2",
"&.	c #EEEDD8",
"*.	c #D7D7BF",
"=.	c #C0C1AF",
"-.	c #B1B39E",
";.	c #A1A292",
">.	c #66665A",
",.	c #000000",
"'.	c #3C3D37",
").	c #C8C7B3",
"!.	c #F9F9E1",
"~.	c #DEDDC8",
"{.	c #646458",
"].	c #999A8A",
"^.	c #FFFFE7",
"/.	c #AAAB99",
"(.	c #59594D",
"_.	c #010100",
":.	c #D8D7C3",
"<.	c #272823",
"[.	c #F5F5DD",
"}.	c #EDECD7",
"|.	c #C3C2AE",
"1.	c #5A5A50",
"2.	c #D9D7C2",
"3.	c #DEDCC7",
"4.	c #5B584F",
"5.	c #292824",
"6.	c #D8D6C1",
"7.	c #4D4A43",
"8.	c #C0C2AC",
"9.	c #D7D5C0",
"0.	c #EFEED9",
"a.	c #E2E2CA",
"b.	c #868777",
"c.	c #F3F3DB",
"d.	c #C1C0AC",
"e.	c #B7B8A6",
"f.	c #F9F9DF",
"g.	c #5A5A52",
"h.	c #E7E6D1",
"i.	c #F4F4DA",
"j.	c #B7B9A4",
"k.	c #282923",
"l.	c #EEEED4",
"m.	c #E7E7CF",
"n.	c #E1E1C9",
"o.	c #C9C8B6",
"p.	c #97988A",
"q.	c #4A4A42",
"r.	c #8F9082",
"s.	c #AAAB9B",
"t.	c #999A88",
"u.	c #A8A997",
"v.	c #B3B2A0",
"w.	c #8E8E82",
"x.	c #66665E",
"y.	c #8D8E80",
"z.	c #7C7C72",
"A.	c #7B7D70",
"B.	c #4A4944",
"C.	c #66665C",
"D.	c #64655D",
"E.	c #3B3A36",
"F.	c #4C4B46",
"G.	c #3C3D38",
"H.	c #3A3B36",
"                                          . + + + + @ + + #                                         ",
"                              # + @ @ + $ % & & * * = & & @ @ - % @ @ #                             ",
"                          + @ @ ; ; ; > ; , ' ) ' ' ' ' ' ! ; * * ; ; @ + +                         ",
"                      ~ { % * = ] ' ' ' ^ ' / ( _ / _ _ / ^ ' : : ' , * & @ @ +                     ",
"                < [ + & * * ' ' } / / / / | 1 2 3 1 1 | | | / 4 4 ( ' ' ' 5 ; 6 @ + <               ",
"              # @ % * , ' ' _ / / | 1 1 1 7 8 9 8 8 8 9 9 7 1 1 1 | / / / ' ^ 0 ; @ @ #             ",
"            # @ > * ] ' / / a 2 1 1 9 9 8 8 b b b b b b c 8 8 9 9 1 1 2 d / / : e ; ; @ #           ",
"          # @ * f g ' ( / | 1 7 8 8 b b h i j j j j j j k i h b b 8 8 7 1 1 l / } ] f * m #         ",
"        < @ ; f ] ' / n 1 1 8 8 b b i j j j o o p o o o o k j q r b b s 9 1 1 a / ' ] f * @ #       ",
"      < + & * ' ' / a t u 9 8 b i j j o v w w x y y y x z v v p j j i c 8 8 A 1 B / } ' f ; @ <     ",
"      # @ * , ^ / a C D E F b i G o o H I y y y J K K y y I I L o o j M b 8 8 7 1 a / ' ] ; N #     ",
"    < ~ & , ) ( a | 7 9 F b r O P w y y Q K K K R S R K K K T y y P P G i b 8 9 7 1 a ( ' ] * + <   ",
"    # % * , ' / a 1 7 8 b r j P U y y Q J R R V W W W V R R X T y y U o j i b 8 7 1 B / ' ] f @ #   ",
"    # % * , ' / a C 7 8 b i G Y x y Z K R `  ...+.+.+.W W ` R K T y x o j i h 8 A 1 B / } @.f @ #   ",
"  # @ * ] ' / a 1 7 8 b r j o x y Q J K R ` W #.$.%.$.&.W ` R *.K Z y =.o -.i ;.8 7 1 a / >.] ; @ < ",
",.# '.* ] ' / n 1 7 8 b i j o x ).T K R ` ..+.$.!.!.!.$.+.W ` ~.K Z y =.o j i b 8 7 1 a / {.] ; @ < ",
",.+ ; ] ' / a 3 7 ].b i j o =.y Q X R ` W +.$.!.^.!.$.+...` ~.K T y x o j /.h 8 A 1 B / } (.f @ # ,.",
"_.@ ; ] ' / a 1 7 8 b i j o L y Q K R ` W +.$.!.^.!.$.&.W ` R :.Q y x o j i h 8 7 1 B _ ' ] f @ <.,.",
",.@ ; ] ' / a 1 7 8 b i j o =.y Q K R ` W +.[.!.^.!.$.}.W ` R J Q y |.o j i h 9 7 1 B ( ' 1.* @ # ,.",
",.@ ; ] ' / a 1 7 8 b i j v H y Q K R ` W +.$.!.^.!.$.&.W ` R J Q y x o j i h 9 7 1 B ( ' ] * @ # ,.",
",.@ ; ] ' / a 1 7 8 b i j v H y Q K R ` W +.$.!.^.!.$.&.W ` R J Q y x o j i h 9 7 1 B ( ' ] * @ # ,.",
",.@ ; ] ' / a 1 7 8 b i j v H y Q K R ` W +.$.!.^.!.$.&.W ` R J Q y x o j i h 9 7 1 B ( ' ] * @ # ,.",
",.@ ; ] ' / a 1 7 8 b i j v H y Q K R ` W +.$.!.^.!.$.&.W ` R J Q y x o j i h 9 7 1 B ( ' ] * @ # ,.",
",.@ ; ] ' / a 1 7 8 b i j v H y Q K R ` W +.$.!.^.!.$.&.W ` R J Q y x o j i h 9 7 1 B ( ' ] * @ # ,.",
",.@ ; ] ' / a 1 7 8 b i j v H y Q K R ` W +.$.!.^.!.$.&.W ` R J Q y x o j i h 9 7 1 B ( ' ] * @ < ,.",
",.@ ; ] ' / a 1 7 8 h i j v H y Q K R ` W +.$.!.^.!.$.&.W ` R J Q y x o j i h 9 7 1 B ( ' ] * + < ,.",
",.@ ; ] ' / a 1 7 8 h i j v H y Q K R ` W +.$.!.^.!.$.&.W ` R J Q y x o j i h 9 7 1 B ( ' ] * + < ,.",
",.@ ; ] ' / a 1 7 8 b i j v H y Q K R ` W +.$.!.^.!.$.&.W ` R J Q y x o j i h 9 7 1 B ( ' ] * @ < ,.",
",.@ ; ] ' / a 1 7 8 b i j v H y Q K R ` W +.$.!.^.!.$.&.W ` R J Q y x o j i h 9 7 1 B ( ' ] * @ # ,.",
",.@ ; ] ' / a 1 7 8 b i j v H y Q K R ` W +.$.!.^.!.$.&.W ` R J Q y x o j i h 9 7 1 B ( ' ] * @ # ,.",
",.@ ; ] ' / a 1 7 8 b i j v H y Q K R ` W +.$.!.^.!.$.&.W ` R J Q y x o j i h 9 7 1 B ( ' ] * @ # ,.",
",.@ ; ] ' / a 1 7 8 b i j v H y Q K R ` W +.$.!.^.!.$.&.W ` R J Q y x o j i h 9 7 1 B ( ' ] * @ # ,.",
",.@ ; ] ' / a 1 7 8 b i j v H y Q K R ` W +.$.!.^.!.$.&.W ` R J Q y x o j i h 9 7 1 B ( ' ] * @ # ,.",
",.@ ; ] ' / a 1 7 8 b i j v H y Q K R ` W +.$.!.^.!.$.&.W ` R J Q y x o j i h 9 7 1 B ( ' ] * @ # ,.",
",.@ ; ] ' / a 1 7 8 b i j v H y Q K R ` W +.$.!.^.!.$.&.W ` R J Q y x o j i h 9 7 1 B ( ' ] * @ # ,.",
",.@ ; ] ' / a 1 7 8 b i j v H y Q K R ` W +.$.!.^.!.$.&.W ` R J Q y x o j i h 9 7 1 B ( ' ] * @ # ,.",
",.@ ; ] ' / a 1 7 8 b i j v H y Q K R ` W +.$.!.^.!.$.&.W ` R J Q y x o j i h 9 7 1 B ( ' ] * @ # ,.",
",.@ ; ] ' / a 1 7 8 b i j v H y Q K R ` W +.$.!.^.!.$.&.W ` R J Q y x o j i h 9 7 1 B ( ' ] * @ # ,.",
",.@ ; ] ' / a 1 7 8 b i j v H y Q K R ` W +.$.!.^.!.$.&.W ` R J Q y x o j i h 9 7 1 B ( ' ] * @ # ,.",
",.@ ; ] ' / a 1 7 8 b i j v H y Q K R ` W +.$.!.^.!.$.&.W ` R J Q y x o j i h 9 7 1 B ( ' ] * @ # ,.",
",.@ ; ] ' / a 1 7 8 b i j v H y Q K R ` W +.$.!.^.!.$.&.W ` R J Q y x o j i h 9 7 1 B ( ' ] * @ # ,.",
",.@ ; ] ' / a 1 7 8 b i j v H y Q K R ` W +.$.!.^.!.$.&.W ` R J Q y x o j i h 9 7 1 B ( ' ] * @ # ,.",
",.@ ; ] ' / a 1 7 8 b i j v H y Q K R ` W +.$.!.^.!.$.&.W ` R J Q y x o j i h 9 7 1 B ( ' ] * @ # ,.",
",.@ ; ] ' / a 1 7 8 b i j v H y Q K R ` W +.$.!.^.!.$.&.W ` R J Q y x o j i h 9 7 1 B ( ' ] * @ # ,.",
",.@ ; ] ' / a 1 7 8 b i j v H y Q K R ` W +.$.!.^.!.$.&.W ` R J Q y x o j i h 9 7 1 B ( ' ] * @ # ,.",
",.@ ; ] ' / a 1 7 8 b i j v H y Q K R ` W +.$.!.^.!.$.&.W ` R J Q y x o j i h 9 7 1 B ( ' ] * @ # ,.",
",.@ ; ] ' / a 1 7 8 b i j v H y Q K R ` W +.$.!.^.!.$.&.W ` R J Q y x o j i h 9 7 1 B ( ' ] * @ # ,.",
",.@ ; ] ' / a 1 7 8 b i j v H y Q K R ` W +.$.!.^.!.$.&.W ` R J Q y x o j i h 9 7 1 B ( ' ] * @ # ,.",
",.@ ; ] ' / a 1 7 8 b i j v H y Q K R ` W +.$.!.^.!.$.&.W ` R J Q y x o j i h 9 7 1 B ( ' ] * @ # ,.",
",.@ ; ] ' / a 1 7 8 b i j v H y Q K R ` W +.$.!.^.!.$.&.W ` R J Q y x o j i h 9 7 1 B ( ' ] * @ # ,.",
",.@ ; ] ' / a 1 7 8 b i j v H y Q K R ` W +.$.!.^.!.$.&.W ` R J Q y x o j i h 9 7 1 B ( ' ] * @ # ,.",
",.@ ; ] ' / a 1 7 8 b i j v H y Q K R ` W +.$.!.^.!.$.&.W ` R J Q y x o j i h 9 7 1 B ( ' ] * @ # ,.",
",.@ ; ] ' / a 1 7 8 b i j v H y Q K R ` W +.$.!.^.!.$.&.W ` R J Q y x o j i h 9 7 1 B ( ' ] * @ # ,.",
",.@ ; ] ' / a 1 7 8 b i j v H y Q K R ` W +.$.!.^.!.$.&.W ` R J Q y x o j i h 9 7 1 B ( ' ] * @ # ,.",
",.@ ; ] ' / a 1 7 8 b i j v H y Q K R ` W +.$.!.^.!.$.&.W ` R J Q y x o j i h 9 7 1 B ( ' ] * @ # ,.",
",.@ ; ] ' / a 1 7 8 b i j v H y Q K R ` W +.$.!.^.!.$.&.W ` R J Q y x o j i h 9 7 1 B ( ' ] * @ # ,.",
",.@ ; ] ' / a 1 7 8 b i j v H y Q K R ` W +.$.!.^.!.$.&.W ` R J Q y x o j i h 9 7 1 B ( ' ] * @ # ,.",
",.@ ; ] ' / a 1 7 8 b i j v H y Q K R ` W +.$.!.^.!.$.&.W ` R J Q y x o j i h 9 7 1 B ( ' ] * @ # ,.",
",.@ ; ] ' / a 1 7 8 b i j v H y Q K R ` W +.$.!.^.!.$.&.W ` R J Q y x o j i h 9 7 1 B ( ' ] * % # ,.",
",.@ ; ] ' / a 1 7 8 b i j v H y Q 2.3.` W +.$.!.^.!.$.+...` R J Q y x o j i h 9 7 1 B ( ^ 4.= % 5.,.",
",.@ 5 ] ' / a 1 7 8 b i j v H y Q 6.3.` W +.$.!.^.!.$.+...` R J Q y |.o j i h 9 7 1 B / ' 4.7.% 5.,.",
",.@ ; g ' / B 1 7 8 b /.j v 8.y Q 9.3.` W +.$.!.^.%.$.0.W a.R J Q y x o j i h 9 7 b.B / ' ] * % 5.,.",
",.$ ; , ' / B 1 7 9 b r j v H y Q 6.3.`  .+.$.!.^.!.c.&.W a.R K Q y d.e.j i h 8 7 b.B / ' ] = % 5.,.",
"  # N * ] } / a 1 7 8 b i j v x y T X R ` W &.$.!.f.f.$.+.W ` R K Q y H v j i ;.8 7 1 a / ^ g.6 + < ",
"  # @ & , ' / a | 7 9 b r j o |.y Q K K R ` h.+.$.f.i.+...` R K :.Q y H j.j i b 8 7 1 a / ' , 6 + < ",
"  <.k.% * ] ' / a 1 7 8 b i j P x y Q K R ` W W +.l.l.m...` R :.Q y x o j i h 8 7 1 B / ^ ] * @ # < ",
"    # % * , ' / a 1 7 8 b r j P U x y Q K S R V W ....n.R R J Q o.x x o j i b p.7 1 a ( ' ] q.@ #   ",
"    # $ ; , ' / B 1 7 7 8 b r j o o H y Q Q Q J R R R K Q Q Q y x o o j i b 8 r.7 | a ( ' , * @ <.  ",
"      # @ * ] } l B B 7 7 p.b s.i o o x d.x x y Q Q T y d.x x x w p i i h 8 A 7 B a / ' , * % #     ",
"      . + '.; (.} / a a 1 7 8 b s.i j o o P U =.H H H U U o o o j i i h t.A 1 a a ( ' , * @ + .     ",
"          + @ f ] } } a a | 7 9 8 8 u.r u.v.P o o o j.P P j i i i 8 8 ].A 1 B a } ' , * % +         ",
"            # @ ; ] ' ' a a a w.7 7 8 9 8 i u.r i i i r r r F 8 8 7 7 7 B a a ' ' , * @ #           ",
"              # @ * * x.' ' / a a | 7 7 7 8 8 8 8 8 8 ].8 9 7 7 7 | a a / ' ' ' * * % #             ",
"                < + ~ & 7.] ' ' } a a d a 1 7 7 y.u u 7 7 2 a a a z.' ' ^ , * > @ + .               ",
"                    < ~ % * * * ' ' ' ' ^ / a n a A.A.n a z.' ' ' ' ) * & & % + <.                  ",
"                          @ @ @ 6 ; ; B.& ) ' ' ' ' C.' ' D.; ; ; > 6 '.+ +                         ",
"                              # + @ @ ~ E.F.& & * * * & & 6 @ $ @ + G.#                             ",
"                                          < + + + + @ H.+ #                                         "};
