/* XPM */
static char * flash3_flash3_h_drum[] = {
"78 51 165 2",
"  	c None",
". 	c #282826",
"+ 	c #282924",
"@ 	c #000000",
"# 	c #292826",
"$ 	c #292824",
"% 	c #3B3C36",
"& 	c #3A3B35",
"* 	c #3D3C38",
"= 	c #3C3B36",
"- 	c #3C3B37",
"; 	c #3A3B36",
"> 	c #3C3D38",
", 	c #4A4B43",
"' 	c #4B4B43",
") 	c #4B4C44",
"! 	c #3B3C34",
"~ 	c #3B3C37",
"{ 	c #4A4A42",
"] 	c #4B4A45",
"^ 	c #595951",
"/ 	c #59594F",
"( 	c #58584E",
"_ 	c #4B4B41",
": 	c #3B3A36",
"< 	c #65655B",
"[ 	c #64645A",
"} 	c #717167",
"| 	c #717165",
"1 	c #737165",
"2 	c #707064",
"3 	c #656559",
"4 	c #5A5A50",
"5 	c #7C7C70",
"6 	c #7B7B6F",
"7 	c #7E7C70",
"8 	c #7C7D6F",
"9 	c #727266",
"0 	c #3C3C34",
"a 	c #86867A",
"b 	c #868779",
"c 	c #87887A",
"d 	c #585A4F",
"e 	c #8E8F81",
"f 	c #8F9082",
"g 	c #64665B",
"h 	c #3B3B39",
"i 	c #4C4C44",
"j 	c #646659",
"k 	c #7B7D70",
"l 	c #7B7C6E",
"m 	c #8D8E80",
"n 	c #98998B",
"o 	c #989989",
"p 	c #979A89",
"q 	c #8E8F7F",
"r 	c #8D8E7E",
"s 	c #707265",
"t 	c #7B7D6F",
"u 	c #A0A191",
"v 	c #9FA291",
"w 	c #9FA090",
"x 	c #979888",
"y 	c #717264",
"z 	c #858779",
"A 	c #A9AA9A",
"B 	c #A9AA98",
"C 	c #AAAB99",
"D 	c #A0A18F",
"E 	c #868777",
"F 	c #272823",
"G 	c #8D8F81",
"H 	c #B1B2A0",
"I 	c #B2B3A1",
"J 	c #A8A997",
"K 	c #989987",
"L 	c #4A4C41",
"M 	c #3A3B33",
"N 	c #65655D",
"O 	c #727268",
"P 	c #B0B19F",
"Q 	c #B1B39E",
"R 	c #BAB9A7",
"S 	c #B8BAA5",
"T 	c #B8B9A7",
"U 	c #B3B2A0",
"V 	c #AAA997",
"W 	c #B0B1A1",
"X 	c #C3C2B0",
"Y 	c #C2C1AD",
"Z 	c #C0C2AD",
"` 	c #C2C1AF",
" .	c #C0C1AF",
"..	c #C1C3AE",
"+.	c #B2B49F",
"@.	c #B9BAA8",
"#.	c #C1C0AC",
"$.	c #C9C8B4",
"%.	c #C9C8B3",
"&.	c #C8C7B3",
"*.	c #BAB9A5",
"=.	c #C1C2B0",
"-.	c #D0CFBB",
";.	c #D0CFBA",
">.	c #D1CEBB",
",.	c #D1D0BC",
"'.	c #CFCEBA",
").	c #A1A292",
"!.	c #C7C9B4",
"~.	c #CFCEB9",
"{.	c #D7D6C1",
"].	c #999A8A",
"^.	c #CED0BB",
"/.	c #D8D7C2",
"(.	c #DDDCC7",
"_.	c #D7D6C2",
":.	c #D6D5C0",
"<.	c #E2E1CC",
"[.	c #E1E0CB",
"}.	c #E8E7D2",
"|.	c #DEDDC8",
"1.	c #7C7C72",
"2.	c #8E8E82",
"3.	c #EEEED6",
"4.	c #E8E8D0",
"5.	c #272725",
"6.	c #EEEDD8",
"7.	c #F4F4DC",
"8.	c #F9F9E1",
"9.	c #F9F9DF",
"0.	c #F8F8E0",
"a.	c #F3F3DB",
"b.	c #FFFFE7",
"c.	c #FFFFE5",
"d.	c #FFFFE8",
"e.	c #FAFAE0",
"f.	c #FAFAE2",
"g.	c #D6D5C1",
"h.	c #EDECD7",
"i.	c #E3E2CD",
"j.	c #E7E6D1",
"k.	c #E9E9D1",
"l.	c #999A8C",
"m.	c #C3C2AE",
"n.	c #66665C",
"o.	c #CAC9B5",
"p.	c #9FA08E",
"q.	c #BBBAA8",
"r.	c #858678",
"s.	c #ABAA98",
"t.	c #B1B2A2",
"u.	c #87877B",
"v.	c #AAAB9B",
"w.	c #64645C",
"x.	c #5A5A52",
"y.	c #717169",
"z.	c #4A4B45",
"A.	c #7D7D71",
"B.	c #585951",
"C.	c #494A42",
"D.	c #282923",
"E.	c #494B40",
"F.	c #272822",
"G.	c #3B3A35",
"H.	c #3C3D37",
"                        . . + @ @ @ @ @ @ @ @ @ @ @ @ @ @ @ @ @ @ @ @ @ @ @ @ @ @ @ @ @ @ @ @ @ @ @ @ @ @ @ @ @ @ @ @ @ @ @ + + + .                         ",
"                    + # $ % & * = % % - - % % % % % % - - % % - - % % - - % % - - % % - - % % - - % % - - % % - - % % ; % % % % % > +                       ",
"                . + % - = , , ' ' , , ' ' , , , , , , ' ' , , ' ' , , ' ' , , ' ' , , ' ' , , ' ' , , ' ' , , ' ' , , , , , , ) ! % % ~ .                   ",
"                ~ = { ] ' ^ / / / / / / / / / / / / / / / / / / / / / / / / / / / / / / / / / / / / / / / / / / / / ( / / / / / _ ' ' = : +                 ",
"              + % ' ' ^ / < < < < < < < < < < < < < < < < < < < < < < < < < < < < < < < < < < < < < < < < < < < < < < < < < [ < / / / ' ] % +               ",
"            $ = ' ^ < < < } | | | | | | | | | | | | | | | | | | | 1 1 | | | | | | | | | | | | | | 1 1 | | | | | | | | | 2 | | | 3 3 < 4 ' ' = .             ",
"          $ = ' / < < } | 5 5 5 6 5 5 5 5 5 5 5 5 5 5 5 5 5 5 5 5 7 7 5 5 5 5 5 5 5 5 5 5 5 5 5 5 7 7 5 5 5 5 5 5 5 5 8 8 5 5 5 9 9 | < / ' 0 ;             ",
"        . = ' ( 3 | 5 5 5 a b b b b b b b b b b b b b b b b b b b b b b b b b b b b b b b b b b b b b b b b b b b b b b c b b b 8 8 8 | 3 d , % ~           ",
"        ~ ' _ 3 3 5 5 a b e e e e e e e e e e e e e e e e e e e e e e e e e e e e e e e e e e e e e e e e e e e e e e e e f e e b b b 5 | g d , % h         ",
"      + % i / j k l m e e n o p p o o o o n n o o o o o o o o o o o o o o o o o o o o o o o o o o o o o o o o o o o o o o o o o q q r b 8 | < ^ ] ~         ",
"      ~ , / 3 s t e e n o u u v v u u u u u u u u u u u u u u u u u u u u u u u u u u u u u u u u u u u u u u u u w u u u u u u o o x q b y | < ' % +       ",
"      ~ , < | k z e o u u A B B B B B B B B B B B B B B B B B B B B B B B B B B B B B B B B B B B B B B B B B B B B B B B B B C D u o o E b | } < , %       ",
"    F % , < 5 z G o u A A B B H I H H H H H H H H H H H H H H H H H H H H H H H H H H H H H H H H H H H H H H H H H H H H H B J B B D K o b a | < L M       ",
"    ~ ] N O 5 e n u B A A P Q R R S S R R T T R R S S R R S S R R S S R R S S R R S S R R S S R R S S R R S S R R S S R R R U U V B B D o e a | 3 d , ~     ",
"    % ' [ 5 e n o B B W H S S X Y Z Z ` `  . .` ` Z Z ` ` Y Y ` ` Y Y ` ` Z Z ` ` Z Z ` ` Y Y ` ` Y Y ` ` Z Z ` ` ..Z ` ` ` R R U +.B B u n a a | g , ;     ",
"  % , ' < 5 e n A J H @.T #.Y $.$.$.%.$.$.$.$.$.$.$.$.$.$.$.$.$.$.$.$.$.$.$.$.$.$.$.$.$.$.$.$.$.$.$.$.$.$.$.$.$.$.$.$.$.&.$.Y Y *.T H C A u n a | < ' % ~   ",
"  % , < 5 8 q o B B T =.Z $.$.-.-.;.;.-.-.-.-.-.-.-.-.-.-.>.>.-.-.>.>.-.-.-.-.-.-.-.-.-.-.>.>.-.-.>.>.-.-.-.-.-.-.-.-.,.-.'.$.$.Y ..T H B ).o b 5 } < , >   ",
"  % , < 5 e o u J T S Z !.-.~.{.{.{.{.{.{.{.{.{.{.{.{.{.{.{.{.{.{.{.{.{.{.{.{.{.{.{.{.{.{.{.{.{.{.{.{.{.{.{.{.{.{.{.{.{.{.{.;.-.$.$.*.T H u ].e b | < ' -   ",
"  % , < 5 e o B H S Z !.^./.{.(.(.(.(.(.(.(.(.(.(.(.(.(.(.(.(.(.(.(.(.(.(.(.(.(.(.(.(.(.(.(.(.(.(.(.(.(.(.(.(.(.(.(.(.(.(.(.{._.-.$.$.S H A u n c | < ' -   ",
"  % , < 6 e o B T Y $.;.{.:.(.<.<.<.<.<.<.<.<.<.<.<.<.<.<.<.<.<.<.<.<.<.<.<.<.<.<.<.<.<.<.<.<.<.<.<.<.<.<.<.<.<.<.<.<.[.<.<.(.(._.-.$.Y *.H u n b | < ' -   ",
"  % L < 5 e o B T Y -.{.(.(.<.}.}.}.}.}.}.}.}.}.}.}.}.}.}.}.}.}.}.}.}.}.}.}.}.}.}.}.}.}.}.}.}.}.}.}.}.}.}.}.}.}.}.}.}.}.}.}.<.(.|._.-.$.*.H D o b | < ' =   ",
"~ i < 1.2.n A H T Y -.(.<.<.}.3.3.3.3.3.3.3.3.3.3.3.3.3.3.3.3.3.3.3.3.3.3.3.3.3.3.3.3.3.3.3.3.3.3.3.3.3.3.3.3.3.3.3.3.3.3.3.4.<.<.|._.$.Y H B u n 5 } N = 5.",
"~ { < 5 e o A T T Y -.(.}.}.6.7.7.7.7.7.7.7.7.7.7.7.7.7.7.7.7.7.7.7.7.7.7.7.7.7.7.7.7.7.7.7.7.7.7.7.7.7.7.7.7.7.7.7.7.7.7.7.3.}.}.(.{.$.Y T H u o b 9 < ] > ",
"~ ' < 5 e o B R ` &.{.<.}.3.7.8.8.9.9.8.8.9.9.8.8.9.9.8.8.9.9.8.8.9.9.8.8.9.9.8.8.9.9.8.8.9.9.8.8.9.9.8.8.9.9.8.8.9.9.0.8.8.a.3.4.(.{.$.Y T H ).o b | < ] ~ ",
"~ ' < 5 e o B R Y -.(.}.6.7.8.b.b.c.c.b.b.c.c.b.b.c.c.b.b.c.c.b.b.c.c.b.b.c.c.b.b.c.c.b.b.c.c.b.b.c.c.b.b.c.c.b.b.c.c.b.d.b.8.7.3.}.(._.$.T I u o b | < ' ~ ",
"~ ' < 5 e o B R Y -.(.}.6.8.0.8.8.8.8.8.8.8.8.9.9.8.8.8.8.8.8.8.8.8.8.8.8.8.8.8.8.8.8.8.8.8.8.8.8.8.8.8.8.8.8.8.8.8.8.8.0.e.9.f.3.}.(.g.$.S H v p b | [ ' - ",
"~ ' < 5 e o C R Y -.(.}.h.7.8.7.7.7.7.7.7.7.7.7.7.7.7.7.7.7.7.7.7.7.7.7.7.7.7.7.7.7.7.7.7.7.7.7.7.7.7.7.7.7.7.7.7.7.7.7.7.7.9.7.3.}.(._.$.S H v p b | < ' - ",
"~ ' < 5 e o B T Z $.{.i.}.3.7.6.6.3.3.6.6.3.3.3.3.3.3.6.6.3.3.6.6.3.3.6.6.3.3.6.6.3.3.6.6.3.3.6.6.3.3.6.6.3.3.6.6.3.3.6.3.3.7.6.j.<.{.$.` T P u n b | < ' ~ ",
"~ ' < 5 e o B T T Y ;.(.}.k.3.}.}.4.4.}.}.4.4.}.}.4.4.}.}.4.4.}.}.4.4.}.}.4.4.}.}.4.4.}.}.4.4.}.}.4.4.}.}.4.4.}.}.4.4.}.}.4.3.}.}.(.{.$.` T H ).l.c | < ] ~ ",
"~ ] < 5 e ].A H T Y -.(.<.<.}.<.<.<.<.<.<.<.<.<.<.<.<.<.<.<.<.<.<.<.<.<.<.<.<.<.<.<.<.<.<.<.<.<.<.<.<.<.<.<.<.<.<.<.i.<.<.<.}.<.<.(.{.$.m.H B u n 8 | < = + ",
"  = ' < 5 e o B T Y -.{.(.(.<.(.|.(.(.(.(.(.(.(.(.(.(.(.(.(.(.(.(.(.(.(.(.(.(.(.(.(.(.(.(.(.(.(.(.(.(.(.(.(.(.(.(.(.(.(.(.(.<.(.(.{.;.$.*.H D o b 2 n.' =   ",
"  = ' < 5 e o B T Y o.-._.{.(._._.{.{._._.{.{._._.{.{._._.{.{._._.{.{._._.{.{._._.{.{._._.{.{._._.{.{._._.{.{._._.{.{._._.{.(.(.{.-.$. .T H p.].b | < { =   ",
"  = ' < 5 e o A H R #.$.-.{.{.-.-.;.;.-.-.;.;.-.-.;.;.-.-.;.;.-.-.;.;.-.-.;.;.-.-.;.;.-.-.;.;.-.-.;.;.-.-.;.;.-.-.;.;.,.-.;.{.{.;.$.$.T H B u n b | < ' -   ",
"  % , < 5 e ].u B q.R Y $.-.-.$.$.$.$.$.$.$.$.$.$.$.$.$.$.$.$.$.$.$.$.$.$.$.$.$.$.$.$.$.$.$.$.$.$.$.$.$.$.$.$.$.$.$.$.$.$.$.,.-.&.!.S T H u o e r.| < ' -   ",
"  % , N 1.5 e o A s.R ` Y $.$.Y Y Y Y Y Y Y Y Y Y Y Y Y Y Y Y Y Y Y Y Y Y Y Y Y Y Y Y Y Y Y Y Y Y Y Y Y Y Y Y Y Y Y Y Y Y Y $.$.Y Z S P B u ].r.8 | < ] -   ",
"  ~ , ' < 5 e o A B H T T Z Z T @.T T T T T T T T T T T T T T T T T T T T T T T T T T T T T T T T T T T T T T T T T T T T @. . .T T H B B u o b | n._ & ~   ",
"    % ' < 5 e n o A J t.t.T S H H H H H H H H H H H H t.t.H H H H H H H H H H H H H H t.t.H H H H H H H H H H H H H H H H H @.T H H B B D o b u.} < ' ~     ",
"    ~ ] < | 8 f o u A A A H H A A B B A A B B A A B B A A B B A A B B A A B B A A B B A A B B A A B B A A B B A A B B A v.B H H B B B u o f b } w.x.{ ~     ",
"    + = i < 5 a e n u A A B B u u u D u u u D u u u D u u u D u u u D u u u D u u u D u u u D u u u D u u u D u u u D u u u B B B B D o n b a } N ' =       ",
"      - ' < } 1.a m n u u B C o o o o n o o o n o o o n o o o n o o o n o o o n o o o n o o o n o o o n o o o n o o o n o ].A A u u o n b a } y.N z.%       ",
"      - ] ^ < } 5 2.e o x u u e e e q e e e q e e e q e e e q e e e q e e e q e e e q e e e q e e e q e e e q e e e q f e q u u o o o e a } } N ' % +       ",
"      + % ' ^ < A.5 f e q o o b b b b a b b b a b b b a b b b a b b b a b b b a b b b a b b b a b b b a b b b a b b b a b E x l.e e e a 5 } < ^ ] ~         ",
"        ~ ] ' < < A.8 b b e e 5 5 5 8 5 5 5 8 5 5 5 8 5 5 5 8 5 5 5 8 5 5 5 8 5 5 5 8 5 5 5 8 5 5 5 8 5 5 5 8 5 5 5 8 5 5 8 q e b b b 5 | < x.' = h         ",
"        . = ' 4 < | 5 5 8 b b | | | | } | | | } | | | } | | | } | | | } | | | } | | | } | | | } | | | } | | | } | | | } | y b a 5 5 5 } < B., % ~           ",
"          $ = ' / < 3 9 | 5 5 < < < 3 < < < 3 < < < 3 < < < 3 < < < 3 < < < 3 < < < 3 < < < 3 < < < 3 < < < 3 < < < 3 < < 3 5 5 | | 2 < / , % ~             ",
"            + ! L 4 < < < 2 | / ( / / ^ / / / ^ / / / ^ / / / ^ / / / ^ / / / ^ / / / ^ / / / ^ / / / ^ / / / ^ / / / ^ / / } } < < < B.C.z.% .             ",
"              D.M ' ' ^ ^ < < ' ' ' ' ' ' ' ' ' ' ' ' ' ' ' ' ' ' ' ' ' ' ' ' ' ' ' ' ' ' ' ' ' ' ' ' ' ' ' ' ' ' ' ' ' ' ' < n./ / / C.z.% +               ",
"                ~ % z.z., d d % ~ % % % % % % % % % % % % % % % % % % % % % % % % % % % % % % % % % % % % % % % % % % % % ! B.^ i , ) % % +                 ",
"                  + % ~ % E., F . + + + + + + + + + + + + + + + + + + + + + + + + + + + + + + + + + + + + + + + + + + + + F.z.] G.% % ~ +                   ",
"                    + . + H.% @ @ @ @ @ @ @ @ @ @ @ @ @ @ @ @ @ @ @ @ @ @ @ @ @ @ @ @ @ @ @ @ @ @ @ @ @ @ @ @ @ @ @ @ @ @ @ ~ ~ ~ + +                       ",
"                        . + +                                                                                               . . .                           "};
