/* XPM */
static char *flash3_flash3_h_drum[] = {
/* columns rows colors chars-per-pixel */
"85 53 73 1",
"  c #000000",
". c #262623",
"X c #272822",
"o c #282723",
"O c #282824",
"+ c #3B3B36",
"@ c #3C3C38",
"# c #4A4A44",
"$ c #57574F",
"% c #57594D",
"& c #58594E",
"* c #575850",
"= c #595951",
"- c #636357",
"; c #64655A",
": c #6E6E63",
"> c #6F7166",
", c #717165",
"< c #727268",
"1 c #7B7C6E",
"2 c #7C7C70",
"3 c #868777",
"4 c #858679",
"5 c #878879",
"6 c #8D8E7E",
"7 c #8E907E",
"8 c #8D8E80",
"9 c #8F9081",
"0 c #918F82",
"q c #929283",
"w c #969789",
"e c #979886",
"r c #979888",
"t c #989987",
"y c #989989",
"u c #9FA08E",
"i c #9FA090",
"p c #A19F92",
"a c #A0A18F",
"s c #A0A191",
"d c #A8A997",
"f c #A9A998",
"g c #AEB09C",
"h c #B1B19E",
"j c #AFB0A0",
"k c #B1B2A0",
"l c #B7B8A5",
"z c #B9B9A5",
"x c #BABAA8",
"c c #BEC0AB",
"v c #C1C1AD",
"b c #C3C3B0",
"n c #C6C8B3",
"m c #C8C6B3",
"M c #C9C8B4",
"N c #CECDB9",
"B c #CED0BB",
"V c #D0CFBA",
"C c #D1D1BC",
"Z c #D6D5C1",
"A c #D8D6C2",
"S c #DCDBC6",
"D c #DDDCC8",
"F c #E2E1CC",
"G c #E6E5D0",
"H c #E8E7D2",
"J c #EBEAD3",
"K c #EEEDD8",
"L c #F0EFDA",
"P c #F3F3DC",
"I c #F8F7E2",
"U c #F9F8E1",
"Y c #FEFEFE",
/* pixels */
"YYYYYYYYYYYYYYXOO                                                   OOXXYYYYYYYYYYYYY",
"YYYYYYYYYYYXOX+++@++++++@++@++++@@@++@++++@@@@++@@++++@++@+@@++@@@@@@@++XXYYYYYYYYYYY",
"YYYYYYYYYYXX+++#########################################################@.XYYYYYYYYYY",
"YYYYYYYYYX++###=&&&&==**================&&&&==========*===%%====&===&%####+XYYYYYYYYY",
"YYYYYYYYo+##=&=;;;;-;;;;;;;;;;;;;;;;;;;;;--;;;;;;;;;;;;;;;;-;;;;;;;;;;&&%##@.YYYYYYYY",
"YYYYYYY.+#=&;;;,,,>,,,,,>>>><<,,,,,,>,>,,,,,,,,,,,,<,,,,,,,,,,<<,,,,,,;;;%%#@XYYYYYYY",
"YYYYYYX+#&&;,,,,,,,,,,,,>,,,,,,,,,,,,,<,,,,,,,,,,,,,,,,,,,,,,,,,,,,>,,>,>;==#@XYYYYYY",
"YYYYYXX##&-,,,,2112122212222222222222222222222222222222212222222222111>>,>;&##XXYYYYY",
"YYYYoO##&;,,2223555553445344444444444444434444444444333333444444555445112<:;=##.YYYYY",
"YYYYO##=;,,233306660880666868880888000886688008888888000668888867979975442<:;=##XYYYY",
"YYYYO#=;,,25088yytyyyyyyytyyytyyyywyyyyyyyyyyyyyyyyyyyyyeyytyyyyytyywt99042<<;=#XYYYY",
"YYYO@#=:,236yyyppppppppsaassaapppsssppppssssppppsssppppppsssssssiiiiiittw842<<*#+XYYY",
"YYY.#=<:288iwssfffffffffffffffffffffffffffffffffffffffffffffffffffffffppww852>>*#XYYY",
"YYo+#=<2188ypffkkkkkkkkhgkhhjjkkjjkjkkkkjgkkkkkkjjkkkkkkkkkhgjhkjjjjjkffpwy842<*#OXYY",
"YYo#=;>288wifjkxzzzzxzxzxxxxxxxxxxxxxzzxzzzxxxxxzzxxzzzzzzxzxzxxxxxxxxkjfpy002>;%#OYY",
"YYo#=>148wifkxxcvvvvvvvvvvvvvbbxbvvvvvvvvvvvvvvvvvvvvvbvvvvvvvvvccccccxxkfpy042>=#.YY",
"Y.##&,20yafhzvbMMMMMMMMMMMMMMMbmMMMMMMMMMMMMMMMMMMMMMMMMMMmMmMMMMMMMMMvvzhfsp82>=##OY",
"Yo#&,,16tflhvmMVVNVVVVVVVVVVVVNZVVVVVVVNVVVVVVVVVVVVVVVVVVNNVVVVVBVVVVMMvzkgw82:<=#OY",
"YX#$,280tfhvvMNAZZZZZZZZZAZZAAAZZZZZZZZZZZZAZZZZCACACZAAAAAZZZAACSSCCCCMvbkfw802<$#OY",
"Y.#$:20wfhzvMVAZZZZZZZZZAZZAAAAZZZZZZZZZZZZZZZZZAAAAAAAAAAAAZAAASACACSSVmvxkjy82<=#OY",
"YO#&,28yfhvnNZZZDSDDDSSDSSSSDDDDDDDDDSDDDDDDSSSSDDSSSSDDDDDDSSSSSSSSSDAZVmvhfy82:=#OY",
"YO#&,20wfgvnZZSDFFFFFFFFFFFFFFFFFFFFFFFFFFFFFFFFFFFFFFFFFFFFFFFFFFFFFSSCAmvkfw02<=#oY",
"X#=,,5yshzvMZSFFGHJGGJHHHGHHHHHHHHHHHHHHHHHHHHHJHHHHHHHHGHHHHHGGJGJFJFFSAmNzkpy2,<#+O",
"X#&,18yfjvvMZDJHKJKKJKKKKKKKKKKKKKKKKKKKKKKKKKKKLLKKKKKKKKKKKKKKJKKLJGHSAMmvkfy02<=#.",
"X#%:27yfhcMCZFJKPPPPPPUPPPPPPPPPPPPPPPPPUPPPPPPPPPPPPUPPILPPPPPPPPPPPPHSZBMvhfy02,=#O",
"X#&,28yfhcMASHKPPPPPUUUUUUUUUUUUUUUUUUUUUUPPUUUUUUUUUUUPIIUUUUUUUUUPPPKHDZMvhft62<=#O",
"X#&,28yfjcMASHKUPUUUPPUUUUUUUUUUUUUIUUUUPPUPUPUUUUUUUUPPIUIUUUUUPUPPPUPHSZMbgfy82,=#o",
"O#&,2qyfgcMADJKPUPPUPPPPPLIIPPPPPPPPPPPPPPUPPPUUPPPPPUPPPPPPPPPPPPPPUPLJDZMbhft62<=#O",
"X#&,17yfhcNBZFGLUKKKKKJLKKKKKKKKKKKKKKKKJKKJKKKKKKKKJJLKKJKKLKKKKKKKPKGFCCMvhft62<=#X",
"X#&,27yfhvcMZSGJKJHHGGJGGGJGJGFJHHHGJFJJJGJGGHGJJHHHJJJGJJHHGHHHHHJGKGJDZMmbhfy72,=#X",
"X#%,,5yyhxcMCSFFHFFFFFFFFFFFFFFFFFFFFFFFFFFFFFFFFFFFFFFFFFFFFFFFFFFFHFFDZMMxhpt1,,#+X",
"YX#&,16yfhcMAADDFSSSDDDSSSSSSSSSSSSSSSSSSSSSSSSSSSSSSSSSFCSSSSSSSSSSFSSZZmbkgy72,&#XY",
"YO#&,28yfkvMNZZZFSSCCCSCZZAZCZZZZZSCSCCSCSCCCSCSCSCSAAASAAAAAAAAZAZASSSCCMvhfw01,&#oY",
"YO#&,28yfkxvnNZZCCCCSSCCZZZAAZAZACCCCSSCCCSSSCCCSCSCACCCAAACACAAZZAAACCBMbxhfw01,&#OY",
"YX#&,188wfkcvmZZSVVVCVVVVVVVCVNVBBBVVVCCNVVVCCCVVCCCVVVVVVVVVVVVBBBBACBMvbhge002,=#oY",
"YX#%,,18wfkkvMnBVMMmMNMNMMMMMMMMMMMMMMMMMMMMMMMMMMMMMMMMMMMMMMMMnnnNCBNMvzkfw62,,=#OY",
"YX##=,28wsfkxcvNNmvbvvvbvvvvvvvvvvvvvvvvvvvvvvvvvvvvvvvvvvvvvvvvccccnNcvzkfpt71,$##oY",
"YYX#=,157wifjxxvvhchzzhzzzzzzzzzhzzzhcchzzzzzzzzchzzzzchzzzzzzzzlcxxccxxkfpt751<&#.YY",
"YYX#*;,1q8ysfhhxzhhhhlhhhhhhhhhkhhhhhhhhhhhhhhgjhhhhhhhhhhhhhhhhjjjjxlkkdat702,;&#OYY",
"YYX+#&<22qwysffjhddgfffffdfdffffggffdddgffffffffddgddddgdgdfffffffffljffaty752,=#o.YY",
"YYYX#%::137utuifgassssssppppppppaaaassssssssasssssssasssaassssssssssffisyy751,,&#oYYY",
"YYYX+#&:,157tttiaeywyyyyyyyytyywttytwwytwyyyyyyytyyyyyyytttyyytyywyysswwy651<,=#+XYYY",
"YYYYX#&;,,13977wy006880666660060667608068860888866888860777887000788yyq8731<<-&#XYYYY",
"YYYYX##&;,:143497555435444434433555535555445444343444453335544434444885551<,;=##XYYYY",
"YYYYOO##=;,:2215512121112222222222222222212222221112111211222222111133111,,;%##XYYYYY",
"YYYYYOX##=;,,,,13,,,,,,,,,<<,,<<,,,,,,,,,,,,,,,,,,,,,,,,<,,<,,,,,,,,13<:,,-&##XXYYYYY",
"YYYYYY.@#&&;,,,,;,,,,,,,<,<<,,<<,,<,,,,,,,,,,,,,,,,,,,,,,,>>,,,,,,,,>,:<:;&&#+XYYYYYY",
"YYYYYYY.@#==;;;,,;-;-;;;;;;;;;;;;;;;;;;;;;;;;;;;;;;;;;;;;;;;;;;;-;;;,,;;;&&#+XYYYYYYY",
"YYYYYYYYO@##%%%;;&&&&&&&&&&&&&==================================%%%%;;=%=##@XYYYYYYYY",
"YYYYYYYYYX@@###=&###################################################=%####@OYYYYYYYYY",
"YYYYYYYYYY.O++@##+@@++++++++@@@@@+@+++@@++@+++@@++++@+++++++@+++@@@@###@+OXYYYYYYYYYY",
"YYYYYYYYYYY.XX+++OOOOOOOooooOOOOOoOOOOOOOoOoOOOOOOOOOOOOOoOooOooO.O.@@@OOXYYYYYYYYYYY",
"YYYYYYYYYYYYYY..O                                                   OO..YYYYYYYYYYYYY"
};
