/* XPM */
static char * fsplit_fsplit_work_tee[] = {
"33 20 23 1",
" 	c None",
".	c #000000",
"+	c #8B8B8B",
"@	c #8C8C8C",
"#	c #E1E1E1",
"$	c #C7C7C7",
"%	c #686868",
"&	c #9A9A9A",
"*	c #4D4D4D",
"=	c #E2E2E2",
"-	c #D8D8D8",
";	c #B2B2B2",
">	c #A7A7A7",
",	c #7C7C7C",
"'	c #D9D9D9",
")	c #D0D0D0",
"!	c #9B9B9B",
"~	c #010101",
"{	c #EAEAEA",
"]	c #BDBDBD",
"^	c #B3B3B3",
"/	c #E9E9E9",
"(	c #999999",
"....+ @....#  ....               ",
" $.@   #%.     &+                ",
"  %*    =.-    .=                ",
"  $.;   $.>   $%                 ",
"   .*   ,%*   ,$                 ",
"   &.'  *#.)  .    .             ",
"   '.> $; *! $&    .             ",
"    %~ ,{ >. ,)    .             ",
"    ].],  '.]*     .             ",
"     .*$   ..^     ~             ",
"     @.    &./     .             ",
"     )(    ),      .             ",
"                   .             ",
"                   .             ",
"                   .             ",
"                   .             ",
"                   .             ",
"                   .             ",
"                   .             ",
"    ............................."};
