/* XPM */
static char * fsplit_fsplit_heat_tee[] = {
"31 20 18 1",
" 	c None",
".	c #D0D0D0",
"+	c #7C7C7C",
"@	c #000000",
"#	c #C7C7C7",
"$	c #D9D9D9",
"%	c #686868",
"&	c #8C8C8C",
"*	c #4D4D4D",
"=	c #B2B2B2",
"-	c #CFCFCF",
";	c #9A9A9A",
">	c #E9E9E9",
",	c #E1E1E1",
"'	c #BDBDBD",
")	c #4E4E4E",
"!	c #E8E8E8",
"~	c #8D8D8D",
"   .+@@+#                      ",
"  ++$  $%+                     ",
" &*      *&                    ",
".@#      =@-                   ",
";@>      ,@;                   ",
"@@        @*    @              ",
"@@        @@    @              ",
"@@        @@    @              ",
"+@,      >@;    @              ",
"'@=      #@.    @              ",
" **      *;     @              ",
" >)%$  $+&      @              ",
"  !~@@@%.       @              ",
"    '@@.        @              ",
"     .*@.       @              ",
"       &@;$     @              ",
"         =+@    @              ",
"                @              ",
"                @              ",
" @@@@@@@@@@@@@@@@@@@@@@@@@@@@@@"};
