/* XPM */
static char * heatx_heatx_j21_hs2[] = {
"133 56 262 2",
"  	c None",
". 	c #000000",
"+ 	c #000100",
"@ 	c #010100",
"# 	c #010000",
"$ 	c #000002",
"% 	c #010101",
"& 	c #4A4B46",
"* 	c #4B4A46",
"= 	c #4B4A45",
"- 	c #494A45",
"; 	c #4A4B45",
"> 	c #585951",
", 	c #595951",
"' 	c #595854",
") 	c #3B3C37",
"! 	c #FDFDF3",
"~ 	c #65665E",
"{ 	c #65655B",
"] 	c #66665C",
"^ 	c #64635E",
"/ 	c #65645F",
"( 	c #3B3C36",
"_ 	c #F6F6EE",
": 	c #F7F8F3",
"< 	c #707169",
"[ 	c #717167",
"} 	c #717165",
"| 	c #727266",
"1 	c #717169",
"2 	c #585A4F",
"3 	c #4A4C41",
"4 	c #FDFDF5",
"5 	c #F7F6F1",
"6 	c #85867E",
"7 	c #87877D",
"8 	c #868779",
"9 	c #86867A",
"0 	c #86867E",
"a 	c #292A25",
"b 	c #3A3B36",
"c 	c #FFFFFA",
"d 	c #3B3B39",
"e 	c #8D8F84",
"f 	c #8E8E82",
"g 	c #8E8F81",
"h 	c #8D8E80",
"i 	c #8E8F7F",
"j 	c #8F8F85",
"k 	c #8F9082",
"l 	c #8E8E84",
"m 	c #656559",
"n 	c #5A5A50",
"o 	c #59594F",
"p 	c #3C3C34",
"q 	c #4C4B46",
"r 	c #4B4B43",
"s 	c #4A4A42",
"t 	c #4C4C44",
"u 	c #4A4B43",
"v 	c #3C3B36",
"w 	c #3C3B37",
"x 	c #97998E",
"y 	c #98988C",
"z 	c #989989",
"A 	c #979888",
"B 	c #98998B",
"C 	c #989987",
"D 	c #98988E",
"E 	c #65655D",
"F 	c #64665B",
"G 	c #64655F",
"H 	c #64645C",
"I 	c #9FA194",
"J 	c #A0A193",
"K 	c #A0A191",
"L 	c #A0A18F",
"M 	c #9FA090",
"N 	c #A0A096",
"O 	c #A0A094",
"P 	c #7C7C70",
"Q 	c #7C7D6F",
"R 	c #7C7C72",
"S 	c #7B7B6F",
"T 	c #7C7B76",
"U 	c #727268",
"V 	c #B1B3A6",
"W 	c #B1B2A4",
"X 	c #B1B2A0",
"Y 	c #B1B2A2",
"Z 	c #B1B1A7",
"` 	c #B1B1A5",
" .	c #8E8E86",
"..	c #63655A",
"+.	c #4B4C46",
"@.	c #B8B9AB",
"#.	c #BAB8A9",
"$.	c #BAB9A7",
"%.	c #BAB9A5",
"&.	c #BBBAA8",
"*.	c #B8B8AC",
"=.	c #B8B9A9",
"-.	c #858678",
";.	c #000200",
">.	c #999A8C",
",.	c #C0C1B3",
"'.	c #C2C0B1",
").	c #C2C1AD",
"!.	c #C2C1AF",
"~.	c #C0C0B4",
"{.	c #C0C1B1",
"].	c #858676",
"^.	c #A9AA9A",
"/.	c #A9AA98",
"(.	c #A9AA9C",
"_.	c #A8AA9F",
":.	c #C7C7BB",
"<.	c #C9C8B6",
"[.	c #C9C8B4",
"}.	c #C9C8B3",
"|.	c #B8B9A7",
"1.	c #B8BAA5",
"2.	c #D6D7C9",
"3.	c #D7D6C4",
"4.	c #D7D6C2",
"5.	c #D7D6C1",
"6.	c #010200",
"7.	c #D5D6C8",
"8.	c #D5D5C9",
"9.	c #C0C1AF",
"0.	c #C0C2AD",
"a.	c #C1C3AE",
"b.	c #C1C0AE",
"c.	c #DCDDCF",
"d.	c #DDDCCA",
"e.	c #DDDCC7",
"f.	c #DDDCC8",
"g.	c #DBDCCE",
"h.	c #DBDBCF",
"i.	c #CED0BB",
"j.	c #D0CFBB",
"k.	c #CFD1BC",
"l.	c #CED0BA",
"m.	c #D0CFBA",
"n.	c #D0CFBD",
"o.	c #CECEC2",
"p.	c #3B3A36",
"q.	c #E0E1D3",
"r.	c #E1E0CC",
"s.	c #E2E1CC",
"t.	c #E2E1CD",
"u.	c #E3E2CE",
"v.	c #B0B29D",
"w.	c #B1B39E",
"x.	c #DCDEC9",
"y.	c #DBDDC7",
"z.	c #C8CAB5",
"A.	c #E5E6D6",
"B.	c #E8E7D3",
"C.	c #E8E7D2",
"D.	c #E8E8D0",
"E.	c #E9E8D3",
"F.	c #E7E6D1",
"G.	c #E6E7D9",
"H.	c #C3C2AD",
"I.	c #F2F3E3",
"J.	c #F4F3DF",
"K.	c #F4F4DC",
"L.	c #F4F3DE",
"M.	c #C9C9B1",
"N.	c #EEEED6",
"O.	c #EEEDD8",
"P.	c #EEEDD9",
"Q.	c #ECEDDF",
"R.	c #C7C9B4",
"S.	c #F7F8E8",
"T.	c #F9F8E4",
"U.	c #F8F8E0",
"V.	c #F9F9E1",
"W.	c #F9F9DF",
"X.	c #F9F8E3",
"Y.	c #F8F9E9",
"Z.	c #F6F7E7",
"`.	c #D1D0BC",
" +	c #D0D0B8",
".+	c #FDFEEE",
"++	c #FFFEEA",
"@+	c #FFFFE7",
"#+	c #FFFFE5",
"$+	c #FFFEE9",
"%+	c #FAF9E5",
"&+	c #D8D7C3",
"*+	c #FAFAE2",
"=+	c #DCDBC6",
"-+	c #B7B8A6",
";+	c #F2F3E5",
">+	c #F5F4E0",
",+	c #EFEFD7",
"'+	c #4A4944",
")+	c #E7E8DA",
"!+	c #E7E6D2",
"~+	c #E9E7D2",
"{+	c #E6E8D2",
"]+	c #67645B",
"^+	c #DFE0D0",
"/+	c #E2E2CA",
"(+	c #E1E0CE",
"_+	c #E0E0D4",
":+	c #DEDCC7",
"<+	c #999A8A",
"[+	c #4D4A43",
"}+	c #DBDCCC",
"|+	c #DDDDC5",
"1+	c #020200",
"2+	c #D6D5C1",
"3+	c #D4D4C8",
"4+	c #C7C8BA",
"5+	c #CAC7B4",
"6+	c #C9C7B8",
"7+	c #A2A091",
"8+	c #9A9889",
"9+	c #A1A290",
"0+	c #A8AB98",
"a+	c #ABAA98",
"b+	c #A8AA9D",
"c+	c #B0B19F",
"d+	c #888679",
"e+	c #B7B9AC",
"f+	c #B8B8AE",
"g+	c #87887A",
"h+	c #908E81",
"i+	c #8D8E86",
"j+	c #9FA092",
"k+	c #717264",
"l+	c #9FA196",
"m+	c #A1A294",
"n+	c #A1A292",
"o+	c #A1A197",
"p+	c #7B7D70",
"q+	c #7C7D77",
"r+	c #494A44",
"s+	c #64645A",
"t+	c #4A4A40",
"u+	c #8F8F87",
"v+	c #4B4C47",
"w+	c #87877F",
"x+	c #3B3C34",
"y+	c #70716B",
"z+	c #707064",
"A+	c #737165",
"B+	c #737067",
"C+	c #282924",
"D+	c #F7F7EB",
"E+	c #585953",
"F+	c #585850",
"G+	c #020100",
"H+	c #595853",
"I+	c #4C4B47",
"J+	c #282826",
"K+	c #292826",
"L+	c #282725",
"M+	c #282828",
"                                                    . . . . . . . . . . . . . . . . . . . . . . . . . . . . . . . . . . . . . . . . . . . . . . . . . . . . . . . . . . . . . . . . . . . . . . . . . . . . . . . . . . . .                                               ",
"                                                    .                                                                                                                                                                     .                                               ",
"                                                    .                                                                                                                                                                     .                                               ",
"                                                    .                                                                                                                                                                     .                                               ",
"                                                    .                                                                                                                                                                     .                                               ",
"                                                    .                                                                                                                                                                     .                                               ",
"    . +     .                               .       .                                                                                                                                                             .       .                                               ",
"        @   .                                 .     .     .                                                                                                                                                         .     .     .                                         ",
"        @   .                                 .     .   .                                                                                                                                                           .     .   .                                           ",
"        @   .                                   .   .   .                                                                                                                                                             .   .   .                                           ",
"        @   +                                   .   . .                                                                                                                                                               .   . .                                             ",
"+ . . #     # # . . . . . . . .               $ . . . .                                                                                                                                                             . . . . %                                             ",
"+ & * = & - = = ; & + & & & & . .               . + . .                                                                                                                                                                 . . .                                             ",
"+ > , , , , , , , , # ' , , ' # ) +             @ ! # #                                                                                                                                                                 + + .             .                               ",
"+ ~ { { { { { { ] { # ^ { { / # ; ( .           @ ! _ #                                                                                                                                                                 + : .             .                               ",
"+ < [ } } | } } } } @ 1 } | 1 # 2 3 ( +         # 4 5 #                                                                                                                                                                 + : @             .                               ",
"+ 6 7 8 8 8 9 8 8 9 @ 0 9 9 0 @ 2 2 > ( a ) b ) c c c # ( ( ) ) ) ( ) ) ) ( ) ) ) ( ) ) ) ( ) ) ) ( ) ) ) ( ) ) ) ( ) ) ) ( ) ) ) ( ) ) ) ( ) ) ) ( ) ) ) ( ) ) ) ( ) ) ) ( ) ) ) ( ) ) ) ( ) ) ) ( ) ) ) ( ) ) ) ( ) ) c c b ) ) ( ) ) d . ) )                           ",
"+ e f g h i g g i g @ j g k l @ { m n o p q = r s r r r r r = r r r = r r r = r r r = r r r = r r r = r r r = r r r = r r r = r r r = r r r = r r r = r r r = r r r = r r r = r r r = r r r = r r r = r r r = r r r = r t r r r u u r = & + = = v v w w                   ",
"+ x y z z A B z C z @ D B B D @ } } m m o { E { { { { { { { { { { { { { { { { { { { { { { { { { { { { { { { { { { { { { { { { { { { { { { { { { { { { { { { { { { { { { { { { { { { { { { { { { { { { { { { { { { { { { { { { { F F { { G + H { r r r = )                 ",
"+ I J K K L K M L M @ N K K O @ P Q } } m P R P P S P P P P P P P P P P P P P P P P P P P P P P P P P P P P P P P P P P P P P P P P P P P P P P P P P P P P P P P P P P P P P P P P P P P P P P P P P P P P P P P P P P P P P P P P P R T # U } { { { r u ( )             ",
"+ V W X X X Y X X Y @ Z Y Y ` @ 8 8 P P } g g g g g g g g g g g g g g g g g g g g g g g g g g g g g g g g g g g g g g g g g g g g g g g g g g g g g g g g g g g g g g g g g g g g g g g g g g g g g g g g g g g g g g g g g g g g g g f  .@ 9 9 } } } { ..u +.)           ",
"@ @.#.$.$.%.$.$.&.$.@ *.=.=.*.@ B i 8 -.Q z A z z z z z z z z z z z z z z z z z z z z z z z z z z z z z z z z z z z z z z z z z z z z z z z z z z z z z z z z z z z z z z z z z z z z z z z z z z z z z z z z z z z z z z z z z z z z B x ;.B >.8 8 8 } } { r = (         ",
"@ ,.'.).).).!.).).!.@ ~.{.{.~.@ J z B i ].^././././.^./././.^./././.^./././.^./././.^./././.^./././.^./././.^./././.^./././.^./././.^./././.^./././.^./././.^./././.^./././.^./././.^./././.^./././.^./././.^./././.^./././.^.^.^.^.^.(._.;.J K z B 8 8 } } { r u (       ",
"@ :.<.[.[.}.[.[.[.<.@ :.<.<.:.@ ^.L K z z |.|.|.1.1.$.$.|.1.$.$.|.1.$.$.|.1.$.$.|.1.$.$.|.1.$.$.|.1.$.$.|.1.$.$.|.1.$.$.|.1.$.$.|.1.$.$.|.1.$.$.|.1.$.$.|.1.$.$.|.1.$.$.|.1.$.$.|.1.$.$.|.1.$.$.|.1.$.$.|.1.$.$.|.1.$.$.|.1.$.$.|.|.|.=.*.@ Y X L K z z 8 9 } { u (       ",
"@ 2.3.4.5.5.4.4.5.4.6.7.4.4.8.@ Y /.^.L L 9.9.0.0.a.b.).0.0.!.).0.0.!.).0.0.!.).0.0.!.).0.0.!.).0.0.!.).0.0.!.).0.0.!.).0.0.!.).0.0.!.).0.0.!.).0.0.!.).0.0.!.).0.0.!.).0.0.!.).0.0.!.).0.0.!.).0.0.!.).0.0.!.).0.0.!.).0.0.!.).0.0.9.{.~.@ =.|.X X K K B 8 } } F u w     ",
"@ c.d.e.e.e.e.e.e.f.6.g.f.f.h.@ Y X X /./.i.j.j.k.l.j.j.j.m.j.j.j.m.j.j.j.m.j.j.j.m.j.j.j.m.j.j.j.m.j.j.j.m.j.j.j.m.j.j.j.m.j.j.j.m.j.j.j.m.j.j.j.m.j.j.j.m.j.j.j.m.j.j.j.m.j.j.j.m.j.j.j.m.j.j.j.m.j.j.j.m.j.j.j.m.j.j.j.m.j.j.j.m.j.n.o.@ <.[.|.|.X L K z 8 } { r = p.  ",
"@ q.r.s.s.s.s.s.s.t.6.q.u.t.q.@ =.|.X v.w.x.f.e.y.y.f.e.e.e.f.e.e.e.f.e.e.e.f.e.e.e.f.e.e.e.f.e.e.e.f.e.e.e.f.e.e.e.f.e.e.e.f.e.e.e.f.e.e.e.f.e.e.e.f.e.e.e.f.e.e.e.f.e.e.e.f.e.e.e.f.e.e.e.f.e.e.e.f.e.e.e.f.e.e.e.f.e.e.e.f.e.e.e.f.d.h.6.3.[.z.|.|.X K z 8 8 } { t w   ",
"@ A.B.C.D.D.E.F.D.B.6.G.B.B.G.6.!.).).).H.C.F.E.C.D.C.C.C.D.C.C.C.D.C.C.C.D.C.C.C.D.C.C.C.D.C.C.C.D.C.C.C.D.C.C.C.D.C.C.C.D.C.C.C.D.C.C.C.D.C.C.C.D.C.C.C.D.C.C.C.D.C.C.C.D.C.C.C.D.C.C.C.D.C.C.C.D.C.C.C.D.C.C.C.D.C.C.C.D.C.C.C.D.C.B.G.6.d.5.5.[.|.|.X K B 8 } { r w   ",
"@ I.J.K.K.K.L.K.K.L.6.I.L.L.I.6.<.[.[.}.M.N.O.N.N.N.O.N.N.N.O.N.N.N.O.N.N.N.O.N.N.N.O.N.N.N.O.N.N.N.O.N.N.N.O.N.N.N.O.N.N.N.O.N.N.N.O.N.N.N.O.N.N.N.O.N.N.N.O.N.N.N.O.N.N.N.O.N.N.N.O.N.N.N.O.N.N.N.O.N.N.N.O.N.N.N.O.N.N.N.O.N.N.N.O.P.Q.6.B.e.e.5.R.|.X K z 8 | m r w   ",
"@ S.T.U.V.W.V.V.V.X.6.Y.X.X.Z.6.`.m.m.m. +V.V.V.V.W.V.V.V.W.V.V.V.W.V.V.V.W.V.V.V.W.V.V.V.W.V.V.V.W.V.V.V.W.V.V.V.W.V.V.V.W.V.V.V.W.V.V.V.W.V.V.V.W.V.V.V.W.V.V.V.W.V.V.V.W.V.V.V.W.V.V.V.W.V.V.V.W.V.V.V.W.V.V.V.W.V.V.V.W.V.V.V.W.V.X.S.6.P.D.e.5.[.$.|.Y K z 8 } E = ) ",
"@ .+++@+#+#+@+@+#+$+6..+$+$+.+6.4.5.5.5.5.@+@+@+#+#+@+@+#+#+@+@+#+#+@+@+#+#+@+@+#+#+@+@+#+#+@+@+#+#+@+@+#+#+@+@+#+#+@+@+#+#+@+@+#+#+@+@+#+#+@+@+#+#+@+@+#+#+@+@+#+#+@+@+#+#+@+@+#+#+@+@+#+#+@+@+#+#+@+@+#+#+@+@+#+#+@+@+#+#+@+@+#+#+@+$+.+6.O.N.C.e.4.[.|.Y K z 8 } { r ) ",
"@ Z.%+V.V.V.V.U.V.X.6.S.X.X.S.6.4.5.&+5.5.X.*+V.U.V.U.V.W.W.V.V.V.V.V.V.V.V.V.V.V.V.V.V.W.W.V.V.V.V.V.V.V.V.V.V.V.V.V.V.W.W.V.V.V.V.V.V.V.V.V.V.V.V.V.V.W.W.V.V.V.V.V.V.V.V.V.V.V.V.V.V.W.W.V.V.V.V.V.V.V.V.V.V.V.V.V.V.W.W.V.V.V.V.V.X.Z.6.X.N.C.=+4.[.-+X K z 8 } { r ) ",
"@ I.J.K.K.K.K.K.K.J.6.;+J.>+;+6.n.m.j.j.m.O.N.,+N.N.N.N.N.N.N.N.N.N.N.N.N.N.N.N.N.N.N.N.N.N.N.N.N.N.N.N.N.N.N.N.N.N.N.N.N.N.N.N.N.N.N.N.N.N.N.N.N.N.N.N.N.N.N.N.N.N.N.N.N.N.N.N.N.N.N.N.N.N.N.N.N.N.N.N.N.N.N.N.N.N.N.N.N.N.N.N.N.N.N.P.Q.6.P.N.C.e.&+[.|.X K z 8 } { '+) ",
"@ A.B.D.C.C.C.C.C.B.6.)+!+B.G.6.<.[.[.[.}.C.C.C.C.C.C.C.C.C.C.C.C.C.C.C.C.C.C.C.C.C.C.C.C.C.C.C.C.C.C.C.C.C.C.C.C.C.C.C.C.C.C.C.C.C.C.C.C.C.C.C.C.C.C.C.C.C.C.C.C.C.C.C.C.C.C.C.C.C.C.C.C.C.C.C.C.C.C.C.C.C.C.C.C.C.C.C.C.C.~+C.C.{+C.B.G.6.P.E.=+5.[.%.|.X K z 8 } ]+= ) ",
"@ ^+t./+s.s.s.s.s.t.@ q.(+t._+@ !.).).).).e.e.e.e.e.e.e.e.e.e.e.e.e.e.e.e.e.e.e.e.e.e.e.e.e.e.e.e.e.e.e.e.e.e.e.e.e.e.e.e.e.e.e.e.e.e.e.e.e.e.e.e.e.e.e.e.e.e.e.e.e.e.e.e.e.e.e.e.e.e.e.e.e.e.e.e.e.e.e.e.e.e.e.e.e.e.e.e.e.:+e.e.y.e.f.g.6.B.e.e.5.[.%.X L <+8 } { [+v   ",
"@ }+f.|+e.e.e.e.e.f.1+g.d.f.h.@ =.-+X w.v.i.j.j.j.j.j.j.j.j.j.j.j.j.j.j.j.j.j.j.j.j.j.j.j.j.j.j.j.j.j.j.j.j.j.j.j.j.j.j.j.j.j.j.j.j.j.j.j.j.j.j.j.j.j.j.j.j.j.j.j.j.j.j.j.j.j.j.j.j.j.j.j.j.j.j.j.j.j.j.j.j.j.j.j.j.j.j.j.j.j.j.j.j.j.n.o.6.f.5.4.[.-+|.Y K >.-.} { [+v   ",
"@ 7.2+5.5.5.5.5.5.3.@ 3+3.3.8.@ Y X X /./.0.).).).).).).).).).).).).).).).).).).).).).).).).).).).).).).).).).).).).).).).).).).).).).).).).).).).).).).).).).).).).).).).).).).).).).).).).).).).).).).).).).).).).).).).).).).).).).9.~.@ 3.[.[.%.|.X K z 8 8 } { = w   ",
"@ 4+<.[.5+5+[.[.[.<.@ :.<.<.:.@ Y /.^.L L |.|.|.-+|.|.|.|.|.|.|.|.|.|.|.|.|.|.|.|.|.|.|.|.|.|.|.|.|.|.|.|.|.|.|.|.|.|.|.|.|.|.|.|.|.$.$.|.|.|.|.|.|.|.|.|.|.|.|.|.|.|.|.|.|.|.|.|.|.|.|.|.|.|.|.|.|.|.|.|.|.|.|.|.|.|.|.|.|.|.|.|.|.|.=.*.@ 6+<.|.|.Y K 7+8+-.| { r * d   ",
"@ ~.!.).).).).).).!.@ ~.'.!.~.@ ^.9+K z z /.^./././././././././././././././././././././././././././././././././././././././././.0+/./.a+/./././.0+0+/././././././././././././././././././././././././././././././././././././././././.^.b+;.=.$.X c+K K 8+d+} } { r )     ",
"+ e+=.|.|.|.|.|.|.=.@ *.=.=.f+@ J z B g 8 z B <+z z z z z z z z z z z z 8+8+z z z z z z z z z z z z z z 8+8+z z z z z z z z z z z z z z z z z z z z z z z z z z z z z z 8+8+z z z z z z z z z z z z z z 8+8+z z z z z z z z 8+8+z z z B x ;.W Y K K B B 8 g+} { u (       ",
"+ V Y X X X X X X Y @ Z Y Y Z @ B i 8 8 Q g g g g g g k g g g g g g g g h+h+g g g g g g g g g g g g g g h+h+g g g g g g g g g g g g g g g g g g g g g g g g g g g g g g h+h+g g g g g g g g g g g g g g h+h+g g g g g g g g h+h+g g g f i+;.j+K z z 8 8 k+} { r u )       ",
"+ l+m+K n+K K K L K @ o+m+J N @ 9 8 P P } P S P P P P P P P P P P P P P P P P P P P P P P P P P P P P P P P P P P P P P P P P P P P p+p+Q Q P P P P P P P P P P P P P P P P P P P P P P P P P P P P P P P P P P P P P P P P P P P P P R q++ B z 8 8 9 } } m u r+)         ",
"+ x B z z z z z z B @ D B B D @ P Q } } m { { { { { s+{ { { { { { { { { { { { { { { { { { { { { { { { { { { { { { { { { { { { { { { F F m m { { { { { { { { { { { { { { { { { { { { { { { { { { { { { { { { { { { { { { { { { { { { { E G + 9 8 k+} } { { t+( )           ",
"+ e f g g g g g g f @  .f f u+@ U } { { 2 u r r 3 3 u u u u r r u u r r u u r r u u r r u u r r u u r r u u r r u u r r u u r r u u r r u u r r u u r r u u r r u u r r u u r r u u r r u u r r u u r r u u r r u u r r u u r r 3 3 r = v++ [ } m { { r u ( )             ",
"+ 6 9 9 9 9 9 8 8 9 @ 0 9 9 w+@ { { o , x+( w v ( ( ( ) ( ( w w ( ( w w ( ( w w ( ( w w ( ( w w ( ( w w ( ( w w ( ( w w ( ( w w ( ( w v p p v w ( ( w w ( ( w w ( ( w w ( ( w w ( ( w w ( ( w w ( ( w w ( ( w w ( ( w w ( ( w v ( ( v w ) + E E r r = v )                 ",
"+ y+[ } } z+A+A+} [ @ 1 B+B+1 @ o o > ( C+                                                                                                                                                                                                . = = ( ( w w                   ",
". G E { { m ]+]+{ { # E ]+]+/ # , r ( +                                                                                               #   D+#                                                                                             . w w                           ",
". E+> 2 o o F+o o o G+H+, o H+# ; ) .                                                                                                 #   S.#                                                                                             .                               ",
". & ; ; r r = '+r = # * = = I+# d .                                                                                                   #   S.+                                                                                                                             ",
". J+C+C+K+L+C+C+C+C+. J+C+J+M+. .                                                                                                     +   D++                                                                                                                             ",
". . . .     . . . . . . . . . .                                                                                                     .       .                                                                                                                             ",
"        @   .                                                                                                                                                                                                                                                             ",
"        @   +                                                                                                                                                                                                                                                             ",
"        ;.  +                                                                                                                                                                                                                                                             ",
"        6.  .                                                                                                                                                                                                                                                             ",
"      . .   .                                                                                                                                                                                                                                                             "};
