/* XPM */
static char *heatx_heatx_g_hs_2[] = {
/* columns rows colors chars-per-pixel */
"142 53 109 2",
"   c #010100",
".  c #262624",
"X  c #262823",
"o  c #282723",
"O  c #282824",
"+  c #282828",
"@  c #3B3B36",
"#  c #3B3B38",
"$  c #4A4A44",
"%  c #4B4B48",
"&  c #58584E",
"*  c #575852",
"=  c #585752",
"-  c #595951",
";  c #64645C",
":  c #656560",
">  c #6F6F67",
",  c #6E6F6A",
"<  c #6F7062",
"1  c #6F7069",
"2  c #706F6A",
"3  c #707165",
"4  c #707169",
"5  c #7B7C6E",
"6  c #7C7C70",
"7  c #86867A",
"8  c #858877",
"9  c #87887A",
"0  c #88867A",
"q  c #8D8E7E",
"w  c #858580",
"e  c #8D8E81",
"r  c #8D8E88",
"t  c #8F9080",
"y  c #908E81",
"u  c #939485",
"i  c #96968C",
"p  c #979888",
"a  c #989987",
"s  c #989889",
"d  c #969891",
"f  c #9E9E94",
"g  c #9E9F99",
"h  c #9FA090",
"j  c #9FA098",
"k  c #A0A18F",
"l  c #A0A192",
"z  c #A0A199",
"x  c #A8AA96",
"c  c #A9AA98",
"v  c #B2B29E",
"b  c #A7A8A0",
"n  c #A8A9A1",
"m  c #AFB1A6",
"M  c #AFB0A8",
"N  c #B2B2A0",
"B  c #B0B2A9",
"V  c #B7B8A5",
"C  c #B6B8AB",
"Z  c #B9B9A6",
"A  c #B8B9AA",
"S  c #B8B8B0",
"D  c #BFC0AC",
"F  c #BFC0B4",
"G  c #C1BFB0",
"H  c #C1C1AD",
"J  c #C1C1B1",
"K  c #C3C4BB",
"L  c #C7C8B5",
"P  c #C6C8BA",
"I  c #C8C6B3",
"U  c #C9C7B8",
"Y  c #C9C8B3",
"T  c #CCCCBC",
"R  c #CED0BB",
"E  c #D0CEBC",
"W  c #D5D5BE",
"Q  c #CDCEC3",
"!  c #CFD0C3",
"~  c #D6D5C1",
"^  c #D4D5CA",
"/  c #D6D8CD",
"(  c #D8D6C2",
")  c #D8D5CE",
"_  c #DCDCC6",
"`  c #DDDCC9",
"'  c #DCDBD2",
"]  c #E6E6D1",
"[  c #E5E6DB",
"{  c #E6E8D2",
"}  c #E8E7D2",
"|  c #EAEAD3",
" . c #ECEDDB",
".. c #F1EFDA",
"X. c #F3F3DC",
"o. c #F9F9DF",
"O. c #EBECE0",
"+. c #F4F5E4",
"@. c #F7F6EA",
"#. c #F6F8E5",
"$. c #F6F8E8",
"%. c #F8F7E2",
"&. c #F9F7E8",
"*. c #F9F8E2",
"=. c #FAF9EA",
"-. c #F5F6F2",
";. c #F7F8F3",
":. c #FFFFF0",
">. c #FEFEFE",
/* pixels */
">.>.>.  -.>.@.  >.>.>.>.>.;.>.>.>.>.>.>.>.>.>.>.>.>.>.>.>.>.>.>.>.>.>.>.>.>.>.>.>.>.>.>.>.>.>.>.>.>.>.>.>.>.>.>.>.>.>.>.>.>.>.>.>.>.>.>.>.>.>.>.>.>.>.>.>.>.>.>.>.>.>.>.>.>.>.>.>.>.>.>.>.>.>.>.>.>.>.>.>.>.>.>.>.>.>.>.>.>.>.>.>.>.>.>.>.>.>.>.>.>.>.>.>.>.>.>.>.>.>.>.>.>.>.>.>.>.>.>.>.>.",
">.>.>.>.  >.-.  >.>.>.>.>.>.>.>.>.>.>.>.>.>.>.>.>.>.>.>.>.>.>.>.>.>.>.>.>.>.>.>.>.>.>.>.>.>.>.>.>.>.>.>.>.>.>.>.>.>.>.>.>.>.>.>.>.>.>.>.>.>.>.>.>.>.>.>.>.>.>.>.>.>.>.>.>.>.>.>.>.>.>.>.>.>.>.>.>.>.>.>.>.>.>.>.>.>.>.>.>.>.>.>.>.>.>.>.>.>.>.>.>.>.>.>.>.>.>.>.>.>.>.>.>.>.>.>.>.>.>.>.>.>.",
">.>.>.>.  >.-.  >.>.>.>.>.>.>.>.>.>.>.>.>.>.>.>.>.>.>.>.>.>.>.>.>.>.>.>.>.>.>.>.>.>.>.>.>.>.>.>.>.>.>.>.>.>.>.>.>.>.>.>.>.>.>.>.>.>.>.>.>.>.>.>.>.:.>.>.>.>.>.>.>.>.>.>.>.>.>.>.>.>.>.>.>.>.>.>.>.>.>.>.>.>.>.>.>.>.>.>.>.>.>.>.>.>.>.>.>.>.>.>.>.>.>.>.>.>.>.>.>.>.>.>.>.>.>.>.>.>.>.>.>.>.",
">.>.>.>.  ;.-.  >.>.>.>.>.>.>.>.>.>.>.>.>.>.>.>.>.>.>.>.>.>.>.>.>.>.>.>.>.>.>.>.>.>.>.>.>.>.>.>.>.>.>.>.>.>.>.>.>.>.>.>.>.>.>.>.>.>.>.>.>.>.>.>.>.>.>.>.>.>.>.>.>.>.>.>.>.>.>.>.>.>.>.>.>.>.>.>.>.>.>.>.>.>.>.>.>.>.>.>.>.>.>.>.>.>.>.>.>.>.>.>.>.>.>.>.>.>.>.>.>.>.>.>.>.>.>.>.>.>.>.>.>.>.",
">.>.>.>.  :.-.  >.>.>.>.>.>.>.>.>.>.>.>.>.>.>.>.>.>.>.>.>.>.>.>.>.>.>.>.>.>.>.>.>.>.>.>.>.>.>.>.>.>.>.>.>.>.>.>.>.>.>.>.>.>.>.>.>.>.>.>.>.>.>.>.>.>.>.>.>.>.>.>.>.>.>.>.>.>.>.>.>.>.>.>.>.>.>.>.>.>.>.>.>.>.>.>.>.>.>.>.>.>.>.>.>.>.>.>.>.>.>.>.>.>.>.>.>.>.>.>.>.>.>.>.>.>.>.>.>.>.>.>.>.>.",
"        >.>.>.                    ;.>.>.>.>.>.>.>.>.>.>.>.>.>.>.>.>.>.>.>.>.>.>.>.>.>.>.>.>.>.>.>.>.>.>.>.>.>.>.>.>.>.>.>.>.>.>.:.>.>.>.>.>.>.  -.-.    >.>.>.>.>.>.>.>.>.>.>.>.>.>.>.>.>.>.>.>.>.>.>.>.>.>.>.>.>.>.>.>.>.>.>.>.>.>.>.>.>.>.>.>.>.>.>.>.>.>.>.>.>.>.>.>.>.>.>.>.>.>.>.>.>.>.",
"  # @ @ @ @ @ @ @ # #   @ @ @ @     >.>.>.>.>.>.>.>.>.>.>.>.>.>.>.>.>.>.>.>.>.>.>.>.>.>.>.>.>.>.>.>.>.>.>.>.>.>.>.>.>.>.>.>.>.>.>.>.>.>.>.>.>.>.  -.  >.>.>.>.>.>.>.>.>.>.>.>.>.>.>.>.>.>.>.>.>.>.>.>.>.>.>.>.>.>.>.>.>.>.>.>.>.>.>.>.>.>.>.>.>.>.>.>.>.>.>.>.>.>.>.>.>.>.>.>.>.>.>.>.>.>.>.",
"  % $ $ $ $ $ $ % $ %   $ % $ %   #   >.>.>.>.>.>.>.>.>.>.>.>.>.>.>.>.>.>.>.>.>.>.>.>.>.>.>.>.>.>.>.>.>.>.>.>.>.>.>.>.>.>.>.>.>.>.>.>.>.>.>.>.>.  -.  >.>.>.>.>.>.>.>.>.>.>.>.>.>.>.>.>.>.>.>.>.>.>.>.>.>.>.>.>.>.>.>.>.>.>.>.>.>.>.>.>.>.>.>.>.>.>.>.>.>.>.>.>.>.>.>.>.>.>.>.>.>.>.>.>.>.>.",
"  ; ; ; ; ; ; ; ; ; ;   ; ; ; ;   # #   >.>.>.>.>.>.>.>.>.>.>.>.>.>.>.>.>.>.>.>.>.>.>.>.>.>.>.>.>.>.>.>.>.>.>.>.>.>.>.>.>.>.>.>.>.>.>.>.>.>.>.>.  -.  >.>.>.>.>.>.>.>.>.>.>.>.>.>.>.>.>.>.>.>.>.>.>.>.>.>.>.>.>.>.>.>.>.>.>.>.>.>.>.>.>.>.>.>.>.>.>.>.>.>.>.>.>.>.>.>.>.>.>.>.>.>.>.>.>.>.>.",
"  , , 4 3 3 3 3 3 4 ,   4 4 3 4   % # #   :.>.>.>.>.>.>.>.>.>.:.>.>.>.>.>.>.>.>.>.>.>.>.>.>.>.>.>.>.>.>.>.>.>.>.>.>.>.>.>.>.>.>.>.>.>.>.:.>.>.>.  -.  >.>.>.>.>.>.>.>.>.>.>.>.>.>.>.>.>.>.>.>.>.>.>.>.>.>.>.>.>.>.>.>.>.>.>.>.>.>.>.>.>.>.>.>.>.>.>.>.>.>.  >.>.>.>.>.>.>.>.>.>.>.>.>.>.>.>.",
"  6 6 5 5 5 5 5 5 6 6   6 5 5 5   * $ $ @ X O O X X X X O X O X O O X O X X X O X X X O X X X X X X O O O O O O O X X X O O O O O X X X + X X X >.:.. . . . . X X O X X X X X O X X X X O O O O X X O O X X O + O X X X O O O O O X X . + X O X X X + . +   . X >.>.:.>.>.>.>.>.>.>.>.>.>.>.",
"  w 7 0 8 0 0 9 7 w w   7 7 0 w   ; * & $ % $ $ % $ $ $ $ $ $ $ $ $ $ $ $ $ $ $ $ $ $ $ $ $ $ % $ $ $ $ $ $ $ $ $ $ $ $ $ $ $ $ $ $ $ $ $ $ $ $ $ $ $ $ $ $ $ % $ $ $ % $ $ $ $ $ $ $ $ $ $ $ $ $ $ $ $ $ $ $ $ $ $ $ $ $ $ $ $ $ $ $ $ $ $ $ % $ $ $ $ %   $ % O + X O >.>.>.>.>.>.>.>.>.>.",
"  r t t e t q q e e r   e e e e   4 ; ; & & & & & & & & & & & & = & - - & & = & & & & & & & = & & & - & & & - & & & - & & & & & & & & & - & & & & & - - - & - & & & - - & & - - & & & & & & & & & & - & & & - & & & & & & & & & & & & & & & - & & & - - *   = - $ $ $ $ X o >.>.>.>.>.>.>.>.",
"  d s s s i s s d d d   s s s s   , 1 1 ; 3 < 3 3 3 3 3 3 3 3 3 3 3 3 3 3 3 3 3 3 3 3 3 3 3 3 3 3 3 3 3 3 3 3 3 3 3 3 3 3 3 3 3 3 3 3 3 3 < 3 3 3 3 3 1 3 3 3 3 3 3 3 3 3 3 3 3 < 3 3 3 3 3 3 3 3 3 3 3 3 3 3 3 3 3 3 3 3 3 3 3 3 3 3 3 3 4 3 4 3 3 4 2 4   4 4 & & & & $ o X >.>.>.>.>.>.>.",
"  j j h l h h l k l z   l h h h   6 6 4 3 5 6 6 6 6 6 6 6 6 6 6 5 5 5 5 5 5 5 5 5 5 5 5 6 6 6 6 5 5 6 5 6 5 6 5 5 6 6 6 6 5 5 6 5 5 5 5 5 5 6 6 6 6 5 5 5 5 5 6 6 5 6 6 6 5 6 6 5 5 6 6 6 6 6 6 5 5 5 6 6 5 5 6 5 6 6 6 6 5 5 6 5 5 5 5 6 6 6 6 6 5 5 6 6   6 6 < < 3 & & $ $ X X >.>.>.>.>.",
"  M B v N N B N N N B   B N B N   w 7 5 5 q u q q q q q q q y y e e e e e y e e e y y q e e u q q y y e e e e e q q q q y y y e t e t q e e q e e e e t t t t t e e u q q q q q y y q q e e e e q q y y t e e e q q q q y y y t e e e t e e e e y y y r r   r y 5 5 5 3 3 & & $ X X >.>.>.>.",
"  S Z Z Z Z Z Z Z S A   A Z Z C   d t 9 8 p p p i s s s s a s s s s s s s s s s s a s s a a s s s a s a a s s s s s s s s s s s a a s s s s s s s s s s a a a s s s s s s s s s s s s s s s s s s a s a a a a s s s s s a i a i p s s s a s s s s s s s d   d s q q y 5 6 3 & & % O >.>.>.>.",
"  G J H H H H H J K G   J J H J   j i i q c c c c c c x x c x x c c x c c c c x x x c c x x c c c c c c c c c c c c c c c c c x x x c x x x c x c c c x x x c c x c c x x x c x c c c c c c c c x c c c c c c c c c c x x x x x c c x x x x c c c c c c n   c c a a y y 6 6 4 & & $ O >.>.>.",
"  Q Y Y Y Y I Y I U P   U Y Y U   j z z s v N N N N N V v v v v v v v v V N V v v v N v v v v v N V v v v N v v N v v v N N v N v v v V N v v v v v v v v v V v v v v V v v N v v N v v N v N N v v V v v v v v N N v v v v V v v v v v v v v v N N N B m   B v c c a d y q 6 3 & $ O O >.>.",
"  Q E E E E E E E E Q   ! E T Q   n c k k J J D F D D D H H H H H A H G H H H H H H G J H H H H H H J H H J H G H H J H D D H H D D D D H H H J H H J G D D H H H H H H D H I A H H H G H D H H H H H H D H J H J H H H D D H H D D D D H H I H D D F D F   H H v v n c a y 6 6 3 - $ O >.>.",
"  ^ ( ~ ( ( ( ( ( ( )   ( ~ ( ~   B B c x Y Y Y Y Y Y Y Y Y Y Y Y Y I I Y Y Y Y Y Y Y Y Y Y Y Y I Y Y Y Y Y Y I Y I Y Y Y Y Y Y Y Y Y Y Y Y Y Y I Y Y I Y I Y Y Y I I I Y Y Y Y Y Y Y I Y Y Y Y Y Y Y Y Y Y Y I Y I Y Y Y Y Y Y Y Y Y Y Y Y Y Y I L L U P   Y Y H I v c c s e 6 3 & - $ O >.",
"  ) ` ` _ _ _ _ _ ` )   ` ` ` `   C A v N ~ ( ~ ( ( ( W ( ( ( ( W ( ( W W W ( ( W ~ ( ( W W ( ( ~ W ~ ~ ( W ( ( ~ ~ ~ ~ ( ( ( ~ W ( ( W ~ ~ ( ~ ( W W ( ~ ~ ( ( W W ( ( W W ( ( W ( ( ( ( ~ ( ( W W W W ( W ( ( ~ ~ ~ ~ ~ ~ ( ( ~ ~ W W W W W W W W ~ ~ /   ( I Y H J v c a q e 5 3 & $ X >.",
"  [ { { | | } } } }  .  } } ] [   F F Z V ` ` _ _ _ _ _ _ W _ _ _ _ ` _ _ _ ` ` _ W ` _ _ W ` _ _ _ _ _ _ _ _ _ _ _ _ _ _ _ ` ` ` _ ` ` ` ` ` ` _ ` _ _ _ ` _ _ _ _ _ _ W _ _ _ ` _ ` _ _ _ ` _ _ W _ ` _ _ _ _ _ _ _ _ ` _ ` ` _ _ _ _ _ _ _ _ _ _ ` ` '   ` ~ W Y A H N c s e 5 3 & $ X >.",
"  O. . .| | |  . . .O.   .| |  .  F J J D { { { } } } | | } } } } } } { } | } } | { | | | | | | } } { } | } } } { { { ] ] } } } | } } { { } } } } } | { { } ] } } | | } | } | { | } } { } { } } | | { | { } } } } } { ] { | | { { { } { | | | } { { } { [   [ ` ` W Y H v c s e 5 3 & $ O >.",
"  $.X.X.X.X.X.X.X.X.+.  +.X.X.+.  Q U Y L  .| ..| ..| ..| ..| ..| | X.| .... . . . . . . . . . . .|  . . . .|  . ... . . . . . .|  . . . . . . . . . . . .|  . .| .. . . . . . . . . . ... . . . . . . . . . . . . ... . . . .| | ..| ..| ..| ..| | .. . .   .{ _ W Y I A v c s t 5 3 - $ X ",
"  $.$.%.*.*.*.o.o.*.=.  &.%.*.$.  ! T T R *.*.*.o.o.*.o.o.o.o.o.o.&.*.&.&.%.&.&.&.&.%.&.$.$.$.&.&.*.&.&.$.&.=.%.&.%.&.&.$.$.@.@.*.&.&.%.&.@.&.&.$.$.&.&.$.&.=.#.*.*.&.*.$.&.*.&.$.$.&.%.$.$.$.*.*.*.&.&.$.$.@.#.@.$.$.*.#.%.o.o.o.*.o.*.o.o.o.o.o.o.*.#.@.   . .} ` W Y J v c s t 6 4 - $ O ",
"  $.$.%.o.o.*.o.%.&.=.  &.o.o.&.  / ~ ~ ~ #.*.*.o.o.o.o.o.o.o.o.%.*.&.      :.:.:.      =.=.:.      :.:.:.      :.=.:.      :.:.:.      :.:.:.      :.:.:.      :.:.:.      :.:.:.      :.:.:.      :.:.:.      :.:.:.      #.#.o.*.o.o.o.o.o.o.o.o.o.#.@.  *. .} _ W Y H N c s t 5 3 - $ X ",
"  +.+.X.X.X.X.X...+.+.  X.X.X.X.  Q T W R  .| ..| ..........| ....| .... . .O... . .+.O. ... ... .O. . . ...O.O. . . ... . . . . . .+.O. . .O. .O. .O.O.O. .O. . . . ...O. .O. .O. .O... . . .O.O. . . . ...O.O. . . ... . . . .| ..| ..| ....| ......| O.   ...| _ W I H v c s e 5 < & $ X ",
"  O. ...| | ..| .... .   . .|  .  P P Y Y | { { } | { { { { { { } { { | } } } } ] } } } | } } } } } } } } { { { } } } } } } } | } } } } } } ] { } } { { } } } } } } } } } } { } } } } { } } } } { { { { } { { { { } { | { { { { | { { | | } } } { { { { [    .} ` W Y G J v c d e 5 , - $ X ",
"  [ } } } { } | } } [   } } } [   F J J D _ _ _ W _ _ _ _ _ _ _ _ _ _ _ _ _ _ ` ` _ _ ` _ ` _ ` W _ _ _ _ _ _ ` _ _ ` ` _ ` ` ` ` _ _ ` _ _ _ _ _ _ _ _ _ _ _ ` _ _ ( ` ` ` _ _ ` _ _ _ _ _ _ _ _ _ _ _ _ _ _ ` _ _ W _ _ _ _ _ _ _ _ _ _ _ _ _ W _ ` ` '   } ` ` W Y G N c s e 6 , - % X >.",
"  ' ` ` _ ` _ ` ` ' '   ` ` ` `   K J Z Z ( W _ W W W ( ( W ( ( W ( ( ( W W ( ( ( ( ( ( W W W ( W W ( ( ( ( ( W W W _ W W W W W ( ( ( W ( ( ( ( ( ( ( ( ( ( ( W ~ ~ ~ ~ ( ( ~ ( ( ( ( ~ ( W ( W ~ ~ ~ ( ( W ~ ~ ( W ( W ( ( _ ( W W W W W ( ( W _ ( ~ ^ ^   ` ( ( Y H J N x s e 5 3 & $ + >.",
"  ^ ( ( ( W ( ( ( ( )   ^ ( ~ ~   S A N v Y Y Y Y Y Y Y Y Y Y Y Y Y Y Y Y Y Y I I I I I Y Y Y Y Y E Y I I Y Y Y I Y Y Y Y Y Y Y I I I I I I I I Y Y Y Y Y Y I Y I Y Y Y Y Y Y Y Y Y I I Y Y Y Y Y Y Y Y Y Y Y Y I I Y Y Y Y Y Y Y Y Y Y Y Y Y Y Y Y U U P   ^ L Y H H v x i e e 5 3 & % . :.",
"  ! ! E W E W E E ! Q   ! E E Q   m B c c D G H H H H H D D D H H H H H H H G J H H G G G H G H G H H G H H G G I G G G I G G G G H H H H H H H G G G I H G H G G G I G G G I G H G H G H H J H H H J H H G H H H H H H H H G G G H H H G G G G G H G G K   U Y H H N c c s t 5 3 & * $ + >.",
"  P U Y Y Y I Y I L T   U I L Y   n c h h N v V v N v N v v v v v v V v v v v v v v v v v v v v v v v v v v v v v v v v v v v v v v v v v v v N v v v v v v v v v v v v v v v v v v v v v v v v v v v v v v v v v v v v v v v v V v v v N N v v v v N N M   J J v B c c s t 5 5 > & $ + >.>.",
"  F G J D D H H H A J   J H J J   j f h p c c c x c c c c c c c c c c x c x c c c c c c x x x x c x c c c c c c c c x x c c c c c c c c c c c c c x c c c c c x x x c c x x c c x c c c c c c c c x c x c c c c x x c x c c c c c c c c c c c c v x x c n   N v c c s s t e 6 1 & $ O X >.>.",
"  A C Z Z V Z C C C S   C C V C   z s i t p s s s s i i s s d s a a a a s s s s s s a s a k a a s s s s a a a s a a a a a a a a a a s s s s s s a a a a a a s s a a s a a a s a a a s a s s s s s s s s s s s s s s s s a a a a s a s s s s s s q a a k d   c n s s e e 5 6 4 - - % . >.>.>.",
"  B B N N N B N N B B   B N N B   d e 7 7 q e q q q t t t t t t q u e e e e e e q q y q q q y y e e e e e e y y q q q q u q q y q q q y q y y y q q y y q q q y q q y y q q q u q q q q q q y y e e t e y y y y q q q q t y y y q q q q q q q q u q y r r   d s q q y 6 6 > & & $ O >.>.>.>.",
"  g l h h k h h h z g   h h l h   w 7 6 6 5 5 5 5 5 6 5 5 5 5 5 6 6 6 6 5 5 5 5 6 6 6 6 6 6 6 6 5 5 5 5 5 5 5 5 5 5 5 5 6 6 6 6 6 6 6 6 6 6 5 5 6 6 6 5 5 5 5 5 6 6 5 5 5 5 5 6 6 6 6 6 5 5 5 5 6 5 6 6 6 6 6 5 5 5 5 5 6 5 6 6 6 6 6 6 5 0 6 6 5 6 6 6 6   r r 5 5 5 3 > & $ $ X + >.>.>.>.",
"  i s i p s s p s s d   s i s s   6 6 3 > 3 3 3 3 3 3 3 < < 1 < 3 3 3 3 3 3 3 3 3 3 3 3 3 3 3 3 3 3 3 3 3 3 3 3 3 3 3 3 3 3 3 3 3 3 3 3 3 3 3 3 3 3 3 3 3 3 3 3 3 3 3 3 3 3 3 3 3 3 3 3 3 3 3 3 3 3 3 3 3 3 3 3 3 3 3 3 3 3 3 3 3 3 3 3 3 3 3 3 3 3 4 2 4   6 6 3 3 3 & & % $ X X >.>.>.>.>.",
"  r e t t q e t e e r   e e e u   4 4 3 ; * & & & & - & * & & & & & - & & & - & & & & & & & - & & & - & & & & & & & & & & & & - & & & & & & - & & & - - & & = = & & - & & & & & & & & & & & & & & & - & & & - & & & & & & & & & & & & & & & & & & & - & -   2 3 & & & $ $ X X >.>.>.>.>.>.>.",
"  w 7 8 0 0 0 0 7 7 w   w 0 0 w   , : ; * $ $ $ $ $ $ $ $ $ $ $ $ $ $ $ $ $ $ $ $ $ $ $ $ $ $ $ $ $ $ $ $ $ $ $ $ $ $ $ $ $ $ $ $ $ $ $ $ $ $ $ $ $ $ $ $ $ $ $ $ $ $ $ $ $ $ $ $ $ $ $ $ $ $ $ % $ $ $ $ $ $ $ $ $ $ $ $ $ $ $ $ $ $ $ $ $ $ $ $ $ $ $ $   * = $ $ $ $ O O >.>.>.>.>.>.>.>.",
"  6 6 5 5 6 6 6 6 6 6   6 6 5 6   ; = * $ + X X O X X X X O X X O X X X O X X X O O O O X X O O O O X X O O X X O X X X O X X O O O X X X O X O X X X X O O O X O O X X X O O O O O O O X X X X X X O X O O X X O O O O X X X O o X X X X X X X O O O X .   $ % X X . . >.>.>.>.>.>.>.>.>.>.",
"  2 3 3 3 3 3 3 4 4 4   2 3 2 4   * $ % @ . >.>.>.>.>.>.>.>.>.>.>.>.>.>.>.>.>.>.:.>.>.>.>.>.>.>.>.>.>.>.>.>.>.>.>.>.>.>.>.>.>.>.>.>.>.>.>.>.>.>.>.>.>.>.>.>.>.>.>.>.>.>.>.>.>.>.>.>.>.>.>.>.>.>.>.>.>.>.>.>.>.>.>.>.>.:.>.>.>.>.>.>.>.>.>.>.>.>.>.>.>.>.>.  O . >.>.>.>.>.>.>.>.>.>.>.>.>.>.",
"  : ; ; ; ; ; ; ; ; ;   ; ; ; ;   % @ @   >.>.>.>.>.>.>.>.>.>.>.>.>.>.>.>.>.>.>.>.>.>.>.>.>.>.>.>.>.>.>.>.>.>.>.>.>.>.>.>.>.>.>.>.>.>.>.>.>.>.>.  -.  >.>.>.>.>.>.>.>.>.>.>.>.>.>.>.>.>.>.>.>.>.>.>.>.>.>.>.>.>.>.>.>.>.>.>.>.>.>.>.>.>.>.>.>.>.>.>.>.>.>.  >.>.>.>.>.>.>.>.>.>.>.>.>.>.>.>.",
"  % % % $ $ $ $ $ $ %   $ $ $ $   # #   >.>.>.>.:.>.>.>.>.>.>.>.>.>.>.>.>.>.>.>.>.>.>.>.>.>.>.>.>.>.>.>.>.>.>.>.>.>.>.>.>.>.>.>.>.>.>.>.>.>.>.>.  -.  >.>.>.>.>.>.>.>.>.>.>.>.>.>.>.>.>.>.>.>.>.>.>.>.>.>.>.>.>.>.>.>.>.>.>.>.>.>.>.>.>.>.>.>.>.>.>.>.>.>.  >.>.>.>.>.>.>.>.>.>.>.>.>.>.>.>.",
"  # @ # # @ # @ @ # #   # @ @ @   #   >.:.>.>.>.>.>.>.>.>.>.>.>.>.>.>.>.>.>.>.>.>.>.>.>.>.>.>.>.>.>.>.>.>.>.>.>.>.>.>.>.>.>.>.>.>.>.>.>.:.>.>.>.  -.  >.>.>.>.>.>.>.>.>.>.>.>.>.>.>.>.>.>.>.>.>.>.>.>.>.>.>.>.>.>.>.>.>.>.>.>.>.>.>.>.>.>.>.>.>.>.>.>.>.>.>.>.>.>.>.>.>.>.>.>.>.>.>.>.>.>.>.",
"  . . . O + O O O O +   O O O O     >.>.>.>.>.>.>.>.>.>.>.>.>.>.>.>.>.>.>.>.>.>.>.>.>.>.>.>.>.>.>.>.>.>.>.>.>.>.>.>.>.>.>.>.>.>.>.>.>.>.>.>.>.>.  >.  >.>.>.>.>.>.>.>.>.>.>.>.>.>.>.>.>.>.>.>.>.>.>.>.>.>.>.>.>.>.>.>.>.>.>.>.>.>.>.>.>.>.>.>.>.>.>.>.>.>.>.>.>.>.>.>.>.>.>.>.>.>.>.>.>.>.>.",
"        >.>.>.                    >.>.>.>.>.>.>.>.>.>.>.>.>.>.>.>.>.>.>.>.>.>.>.>.>.>.>.>.>.>.>.>.>.>.>.>.>.>.>.>.>.>.>.>.>.>.>.>.>.>.>.>.>.>.  >.>.    >.>.>.>.>.>.>.>.>.>.>.>.>.>.>.>.>.>.>.>.>.>.>.>.>.>.>.>.>.>.>.>.>.>.>.>.>.>.>.>.>.>.>.>.>.>.>.>.>.>.>.>.>.>.>.>.>.>.>.>.>.>.>.>.>.>.",
">.>.>.>.  >.-.  >.>.>.>.>.>.>.>.>.>.>.>.>.>.>.>.>.>.>.>.>.>.>.>.>.>.>.>.>.>.>.>.>.>.>.>.>.>.>.>.>.>.>.>.>.>.>.>.>.>.>.>.>.>.>.>.>.>.>.>.>.>.>.>.>.>.>.>.>.>.>.>.>.>.>.>.>.>.>.>.>.>.>.>.>.>.>.>.>.>.>.>.>.>.>.>.>.>.>.>.>.>.>.>.>.>.>.>.>.>.>.>.>.>.>.>.>.>.>.>.>.>.>.>.>.>.>.>.>.>.>.>.>.>.",
">.>.>.>.  >.-.  >.>.>.>.>.>.>.>.>.>.>.>.>.>.>.>.>.>.>.>.>.>.>.>.>.>.>.>.>.>.>.>.>.>.>.>.>.>.>.>.>.>.>.>.>.>.>.>.>.>.>.>.>.>.>.>.>.>.>.>.>.>.>.>.>.>.>.>.>.>.>.>.>.>.>.>.>.>.>.>.>.>.>.>.>.>.>.>.>.>.>.>.>.>.>.>.>.>.>.>.>.>.>.>.>.>.>.>.>.>.>.>.>.>.>.>.>.>.>.>.>.>.>.>.>.>.>.>.>.>.>.>.>.>.",
">.>.>.>.  >.-.  >.>.>.>.>.>.>.>.>.>.>.>.>.>.>.>.>.>.>.>.>.>.>.>.>.>.>.>.>.>.>.>.>.>.>.>.>.>.>.>.>.>.>.>.>.>.>.>.>.>.>.>.>.>.>.>.>.>.>.>.>.>.>.>.>.>.>.>.>.>.>.>.>.>.>.>.>.>.>.>.>.>.>.>.>.>.>.>.>.>.>.>.>.>.>.>.>.>.>.>.>.>.>.>.>.>.>.>.>.>.>.>.>.>.>.>.>.>.>.>.>.>.>.>.>.>.>.>.>.>.>.>.>.>.",
">.>.>.>.  >.-.  >.>.>.>.>.>.>.>.>.>.>.>.>.>.>.>.>.>.>.>.>.>.>.>.>.>.>.>.>.>.>.>.>.>.>.>.>.>.>.>.>.>.>.>.>.>.>.>.>.>.>.>.>.>.>.>.>.>.>.>.>.>.>.>.>.>.>.>.>.>.>.>.>.>.>.>.>.>.>.>.>.>.>.>.>.>.>.>.>.>.>.>.>.>.>.>.>.>.>.>.>.>.>.>.>.>.>.>.>.>.>.>.>.>.>.>.>.>.>.>.>.>.>.>.>.>.>.>.>.>.>.>.>.>.",
">.>.>.>.  >.>.  >.>.>.>.>.>.>.>.>.>.>.>.>.>.>.>.>.>.>.>.>.>.>.>.>.>.>.>.>.>.>.>.>.>.>.>.>.>.>.>.>.>.>.>.>.>.>.>.>.>.>.>.>.>.>.>.>.>.>.>.>.>.>.>.>.>.>.>.>.>.>.>.>.>.>.>.>.>.>.>.>.>.>.>.>.>.>.>.>.>.>.>.>.>.>.>.>.>.>.>.>.>.>.>.>.>.>.>.>.>.>.>.>.>.>.>.>.>.>.>.>.>.>.>.>.>.>.>.>.>.>.>.>.>."
};
