/* XPM */
static char * heatx_heatx_x_ht_2[] = {
"134 50 262 2",
"  	c None",
". 	c #000100",
"+ 	c #000000",
"@ 	c #010000",
"# 	c #4A4B46",
"$ 	c #494A44",
"% 	c #4B4B43",
"& 	c #4B4A45",
"* 	c #4B4A46",
"= 	c #4C4B46",
"- 	c #4A4B43",
"; 	c #4A4B45",
"> 	c #010100",
", 	c #585953",
"' 	c #585A4F",
") 	c #59594F",
"! 	c #595951",
"~ 	c #595853",
"{ 	c #585951",
"] 	c #010200",
"^ 	c #3C3C3A",
"/ 	c #65655D",
"( 	c #65655B",
"_ 	c #66665A",
": 	c #65645F",
"< 	c #656559",
"[ 	c #3B3C37",
"} 	c #717169",
"| 	c #727266",
"1 	c #717165",
"2 	c #707064",
"3 	c #717167",
"4 	c #585954",
"5 	c #4B4C46",
"6 	c #86867C",
"7 	c #858678",
"8 	c #868779",
"9 	c #858779",
"0 	c #86867A",
"a 	c #86867E",
"b 	c #3B3C36",
"c 	c #3D3C38",
"d 	c #3C3B37",
"e 	c #3C3B36",
"f 	c #3C3C34",
"g 	c #3B3A36",
"h 	c #3C3D38",
"i 	c #8E8E84",
"j 	c #8E8F81",
"k 	c #8D8F81",
"l 	c #8E8E82",
"m 	c #8E8E86",
"n 	c #64655D",
"o 	c #3B3B39",
"p 	c #98988C",
"q 	c #989989",
"r 	c #979A89",
"s 	c #98998B",
"t 	c #98988E",
"u 	c #000200",
"v 	c #707169",
"w 	c #64665B",
"x 	c #A0A094",
"y 	c #A0A191",
"z 	c #9FA291",
"A 	c #A0A392",
"B 	c #A1A294",
"C 	c #A0A096",
"D 	c #A0A193",
"E 	c #A1A290",
"F 	c #7C7E73",
"G 	c #7B7B6F",
"H 	c #737164",
"I 	c #7C7C70",
"J 	c #7C7C72",
"K 	c #7B7D70",
"L 	c #7C7C74",
"M 	c #66665C",
"N 	c #B1B2A4",
"O 	c #B4B3A1",
"P 	c #B1B2A0",
"Q 	c #B0B19F",
"R 	c #B1B2A2",
"S 	c #B0B2A7",
"T 	c #85877C",
"U 	c #7C7D6F",
"V 	c #908E81",
"W 	c #8D8E80",
"X 	c #888679",
"Y 	c #BAB8AB",
"Z 	c #BAB9A7",
"` 	c #B8B9A7",
" .	c #B7B8A6",
"..	c #B8B9A9",
"+.	c #B8B8AE",
"@.	c #97998E",
"#.	c #97988A",
"$.	c #9A9889",
"%.	c #9A988B",
"&.	c #4B4B41",
"*.	c #C2C0B3",
"=.	c #C2C1AD",
"-.	c #C1C0AC",
";.	c #C0C1AF",
">.	c #C0C0B4",
",.	c #C2C0B1",
"'.	c #C0C1B1",
").	c #9FA196",
"!.	c #8E8F7F",
"~.	c #A9AA9A",
"{.	c #A9AA98",
"].	c #A8AA9F",
"^.	c #717264",
"/.	c #4A4A42",
"(.	c #C9C7B8",
"_.	c #C9C8B4",
":.	c #C9C8B6",
"<.	c #C7C7BB",
"[.	c #C7C8B6",
"}.	c #999A8A",
"|.	c #D7D5C6",
"1.	c #D7D6C1",
"2.	c #D7D6C4",
"3.	c #D5D5C9",
"4.	c #D6D5C0",
"5.	c #D5D6C4",
"6.	c #B0B2A5",
"7.	c #A0A18F",
"8.	c #C0C2AD",
"9.	c #C0C0B6",
"0.	c #B8BAA5",
"a.	c #DDDBCC",
"b.	c #DDDCC7",
"c.	c #DDDCC8",
"d.	c #DBDBCF",
"e.	c #020300",
"f.	c #020200",
"g.	c #AFB1A4",
"h.	c #CED0BB",
"i.	c #CED0BA",
"j.	c #CFD1BB",
"k.	c #D0CFBB",
"l.	c #D1D0BC",
"m.	c #D1D0BE",
"n.	c #CECEC2",
"o.	c #C7C9B4",
"p.	c #87887A",
"q.	c #E2E0D1",
"r.	c #E2E1CC",
"s.	c #E1E0CB",
"t.	c #E2E1CD",
"u.	c #E0E0D4",
"v.	c #E2E2CA",
"w.	c #B8B8AC",
"x.	c #BAB8A9",
"y.	c #B2B19F",
"z.	c #B2B19D",
"A.	c #DCDBC6",
"B.	c #DDDCCA",
"C.	c #DCDCD0",
"D.	c #C9C8B3",
"E.	c #BBBAA8",
"F.	c #A1A292",
"G.	c #E8E6D7",
"H.	c #E8E7D2",
"I.	c #E8E7D3",
"J.	c #E6E7D9",
"K.	c #E8E8D0",
"L.	c #E9E8D3",
"M.	c #D7D6C2",
"N.	c #C8C7B3",
"O.	c #3A3B35",
"P.	c #F5F4E2",
"Q.	c #F4F4DC",
"R.	c #F4F3DF",
"S.	c #F2F3E5",
"T.	c #EEEDD8",
"U.	c #EFEED9",
"V.	c #EEEED6",
"W.	c #EEEDD9",
"X.	c #ECEDDF",
"Y.	c #F8F7E5",
"Z.	c #F9F9E1",
"`.	c #F9F8E3",
" +	c #F7F8E8",
".+	c #F8F8E0",
"++	c #F9F8E4",
"@+	c #CECFC1",
"#+	c #D0CFBD",
"$+	c #D0CFBA",
"%+	c #FAFAE2",
"&+	c #C7C9B3",
"*+	c #FFFEEA",
"=+	c #FFFFE5",
"-+	c #FFFFE7",
";+	c #FFFEE9",
">+	c #FDFEEE",
",+	c #D5D6C8",
"'+	c #EFEFD7",
")+	c #88867A",
"!+	c #737165",
"~+	c #F9F8E6",
"{+	c #F9F9DF",
"]+	c #F4F3E1",
"^+	c #F4F3DE",
"/+	c #D2D0BB",
"(+	c #EFEDD8",
"_+	c #ECEED6",
":+	c #ECEED8",
"<+	c #EDEEDE",
"[+	c #E7E5D6",
"}+	c #E9E9D1",
"|+	c #CAC7B4",
"1+	c #E9E7D2",
"2+	c #E6E8D2",
"3+	c #E6E8D3",
"4+	c #BAB9A5",
"5+	c #E0E1D3",
"6+	c #C3C2B0",
"7+	c #C2C1AF",
"8+	c #DEDDC8",
"9+	c #DBDDC8",
"0+	c #DBDDC7",
"a+	c #DBDCCE",
"b+	c #E8E7D5",
"c+	c #9FA090",
"d+	c #B3B2A0",
"e+	c #D6D5C1",
"f+	c #B0B2A4",
"g+	c #B0B3A0",
"h+	c #4A4C41",
"i+	c #3B3C34",
"j+	c #C9C7BA",
"k+	c #B9BAA8",
"l+	c #9FA28F",
"m+	c #C1C3AE",
"n+	c #A9A99F",
"o+	c #B0B3A2",
"p+	c #B8B9AB",
"q+	c #9FA098",
"r+	c #B1B1A5",
"s+	c #B1B1A7",
"t+	c #727365",
"u+	c #3A3B36",
"v+	c #9F9F93",
"w+	c #7D7D71",
"x+	c #7C7B76",
"y+	c #7B7C74",
"z+	c #7B7B71",
"A+	c #4C4C44",
"B+	c #87877B",
"C+	c #282924",
"D+	c #666560",
"E+	c #64645A",
"F+	c #595854",
"G+	c #3A3C37",
"H+	c #494A45",
"I+	c #4B4C47",
"J+	c #292824",
"K+	c #292823",
"L+	c #282923",
"M+	c #282826",
"      .       +                                                                                                                                                                                                                                                             ",
"        .     +                                                                                                                                                                                                                                                             ",
"        .     +                                                                                                                                                                                                                                                             ",
"        +     +                                                                                                                                                                                                                                                             ",
"        @     +                                                                                                                                                                                                                                                             ",
"+ + + @     @ . + + + + + + + +                                                                                                       .     @                                                                                                                               ",
"+ # $ % % % % % & * @ = % - ; > +                                                                                                       .   >                                                                                                                               ",
"+ , ' ) ) ! ) ) ) ~ @ ! ) ' { ] ^ +                                                                                                     .   >                                                                                                                               ",
"+ / ( ( _ ( ( ( ( : > ( < ( / . # [ +                                                                                                   .   >                                                                                               +                               ",
"+ } | 1 1 1 1 2 3 } > 3 1 | 3 . 4 5 [ +                                                                                                 .   >                                                                                               +                               ",
". 6 7 8 8 9 9 8 0 a > 0 8 8 0 . , ! ! b b c d b b d d b b d d b b d d b b d d b b d d b b d d b b d d b b d d b b e e b b d [ b b d d [     f b b d d b b d d b b d d b b d d b b d d b b d d b b d d b b d d b b d d b b d d b b d g b b h . b [                           ",
". i j j j k k j l m > l j j l . n ( ) ) - % % - - % % - - % % - - % % - - % % - - % % - - % % - - % % - - % % - - % % - - % % - - % & - - % % - - % % - - % % - - % % - - % % - - % % - - % % - - % % - - % % - - % % - - % % - - % % - - ; ] - - [ o [ [                   ",
". p q q q r r q s t > s q q s u v 1 < < ( ( ( ( ( ( ( ( ( ( ( ( ( ( ( ( ( ( ( ( ( ( ( ( ( ( ( ( ( ( ( ( ( ( ( ( ( ( ( ( ( ( ( ( ( / / ( ( ( ( ( ( ( ( ( ( ( ( ( ( ( ( ( ( ( ( ( ( ( ( ( ( ( ( ( ( ( ( ( ( ( ( w w ( ( ( ( ( ( ( ( ( ( ( ( : @ ( ( % & ; ; b                 ",
". x y y y z A y B C > D y E y u F G H 1 I I I I I I I I I I I I I I I I I I I I I I I I I I I I I I I I I I I I I I I I I I I I I J J I I I I I I I I I I I I I I I I I I I I I I I I I I I I I I I I I I I I K K I I I I I I I I I I I I L > 1 1 M ( n - - b [             ",
". N O P P P Q P R S u R P P R u T 0 U U j j j j j j j j j j j j j j j j j j j j j j j j j j j j j j j j j j j j j j j j j j j j j j j j j j j j j j j j j j j j j j j j j j j j j j j j j j j j j j j j j j j j j j j V V j j V V j W j j i > X X 1 1 3 ( ( % % e           ",
". Y Z ` ` `  .` ..+.u ..` ` ..u @.l 8 8 #.s q q q q q q q q q q q q q q q q q q q q q q q q q q q q q q q q q q q q q q q q q q q q q q q q q q q q q q q q q q q q q q q q q q q q q q q q q q q q q q q q q q q q q $.$.q q $.$.q q q s t > %.$.8 8 0 1 1 ( &.% [         ",
". *.=.-.=.=.=.=.;.>.> ,.=.=.'.u ).s q !.~.~.{.{.{.{.{.{.{.{.{.{.{.{.{.{.{.{.{.{.{.{.{.{.{.{.{.{.{.{.{.{.{.{.{.{.{.{.{.{.{.{.{.{.{.{.{.{.{.{.{.{.{.{.{.{.{.{.{.{.{.{.{.{.{.{.{.{.{.{.{.{.{.{.{.{.{.{.{.{.{.{.{.{.{.{.{.{.{.{.{.{.{.{.{.{.~.].u y y q q 8 8 ^.1 ( /.& d       ",
". (._._._._._._.:.<.> :._._.[.> ].D y q ` ` ` ` ` ` ` ` ` ` ` ` ` ` ` ` ` ` ` ` ` ` ` ` ` ` ` ` ` ` ` ` ` ` ` ` ` ` ` ` ` ` ` ` ` ` ` ` ` ` ` ` ` ` ` ` ` ` ` ` ` ` ` ` ` ` ` ` ` ` ` ` ` ` ` ` ` ` ` ` ` ` ` ` ` ` ` ` ` ` ` ` ` ` ` ` ..+.u R P y y }.q 8 8 1 ( % d       ",
". |.1.1.1.1.1.1.2.3.> 2.1.4.5.> 6.~.{.7.;.8.8.=.=.=.=.=.=.=.=.=.=.=.=.=.=.=.=.=.=.=.=.=.=.=.=.=.=.=.=.=.=.=.=.=.=.=.=.=.=.=.=.=.=.=.=.=.=.=.=.=.=.=.=.=.=.=.=.=.=.=.=.=.=.=.=.=.=.=.=.=.=.=.=.=.=.=.=.=.=.=.=.=.=.=.=.=.=.=.=.=.=.=.=.=.'.9.> ..0.P R y D q 8 1 3 / & [     ",
". a.b.b.b.b.b.b.c.d.e.c.b.b.c.f.g.R P {.h.i.j.k.k.k.k.k.k.k.k.k.k.k.k.k.k.k.k.k.k.k.k.k.k.k.k.k.k.k.k.k.k.k.k.k.k.k.k.k.k.k.k.k.k.k.k.k.k.k.k.k.k.k.k.k.k.k.k.k.k.k.k.k.k.k.k.k.k.k.k.k.k.k.k.k.k.k.k.k.k.k.k.k.k.k.k.k.k.k.k.k.k.l.k.k.m.n.> [.o. .` R y y q p.1 / & ; [   ",
". q.r.r.r.s.r.r.t.u.] t.v.r.t.> w.x.y.z.c.b.b.b.b.b.b.b.b.b.b.b.b.b.b.b.b.b.b.b.b.b.b.b.b.b.b.b.b.b.b.b.b.b.b.b.b.b.b.b.b.b.b.b.b.b.b.b.b.b.b.b.b.b.b.b.b.b.b.b.b.b.b.b.b.b.b.b.b.b.b.b.b.b.b.b.b.b.b.b.b.b.b.b.b.b.b.b.b.b.b.A.b.b.b.b.B.C.> 2.D._.E.` R F.q 8 0 3 / - b   ",
". G.H.H.H.H.H.H.I.J.] I.K.L.I.] >.,.=.=.H.H.H.H.H.H.H.H.H.H.H.H.H.H.H.H.H.H.H.H.H.H.H.H.H.H.H.H.H.H.H.H.H.H.H.H.H.H.H.H.H.H.H.H.H.H.H.H.H.H.H.H.H.H.H.H.H.H.H.H.H.H.H.H.H.H.H.H.H.H.H.H.H.H.H.H.H.H.H.H.H.H.H.H.H.H.H.H.H.H.H.H.H.H.H.H.I.J.] c.1.M.N.` ` R y s 8 1 ( - O.  ",
". P.Q.Q.Q.Q.Q.Q.R.S.] R.Q.Q.R.] <.:._._.T.U.V.V.V.V.V.V.V.V.V.V.V.V.V.V.V.V.V.V.V.V.V.V.V.V.V.V.V.V.V.V.V.V.V.V.V.V.V.V.V.V.V.V.V.V.V.V.V.V.V.V.V.V.V.V.V.V.V.V.V.V.V.V.V.V.V.V.V.V.V.V.V.V.V.V.V.V.V.V.V.V.V.V.V.V.V.V.V.V.V.V.V.V.V.V.W.X.] I.b.b.4.o.0.P 7.q 8 1 < &.f   ",
". Y.Z.Z.Z.Z.Z.Z.`. +] `..+Z.++] @+#+$+$+`.Z..+Z.Z.Z.Z.Z.Z.Z.Z.Z.Z.Z.Z.Z.Z.Z.Z.Z.Z.Z.Z.Z.Z.Z.Z.Z.Z.Z.Z.Z.Z.Z.Z.Z.Z.Z.Z.Z.Z.Z.Z.Z.Z.Z.Z.Z.Z.Z.Z.Z.Z.Z.Z.Z.Z.Z.Z.Z.Z.Z.Z.Z.Z.Z.Z.Z.Z.Z.Z.Z.Z.Z.Z.Z.Z.Z.Z.Z.Z.Z.Z.Z.Z.Z.Z.Z.Z.Z.Z.Z.Z.Z.Z.%+`. +] W.H.b.1.&+0.` P y q 0 1 ( % [ ",
". *+=+=+=+-+-+=+;+>+] -+=+-+*+] ,+2.1.1.-+-+-+=+=+-+-+=+=+-+-+=+=+-+-+=+=+-+-+=+=+-+-+=+=+-+-+=+=+-+-+=+=+-+-+=+=+-+-+=+=+-+-+=+-+-+-+-+=+-+-+=+=+-+-+=+=+-+-+=+=+-+-+=+=+-+-+=+=+-+-+=+=+-+-+=+=+-+-+=+=+-+-+=+=+-+-+=+-+-+-+-+=+-+-+=+;+>+] W.'+H.b.1.D.0.P y q )+!+( % [ ",
"] ~+{+{+{+Z.Z.Z.`. +] Z.{+%+++e.,+2.1.1.Z.Z.Z.Z.{+Z.Z.Z.{+Z.Z.Z.{+Z.Z.Z.{+Z.Z.Z.{+Z.Z.Z.{+Z.Z.Z.{+Z.Z.Z.{+Z.Z.Z.{+Z.Z.Z.{+Z.Z.Z.Z.`.`.Z.{+Z.Z.Z.{+Z.Z.Z.{+Z.Z.Z.{+Z.Z.Z.{+Z.Z.Z.{+Z.Z.Z.{+Z.Z.Z.{+Z.Z.Z.{+Z.Z.Z.{+Z.Z.Z.Z.`.`.Z.{+Z.Z.Z.`. +] ++V.H.b.4.D.0.P y q )+!+( % [ ",
". ]+Q.Q.Q.^+Q.Q.^+S.] ^+Q.Q.R.] @+#+$+/+(+T.V.V.V.T.V.V.V.T.V.V.V.T.V.V.V.T.V.V.V.T.V.V.V.T.V.V.V.T.V.V.V.T.V.V.V.T.V.V.V.T.V.V.V.T.T.V.V.T.V.V.V.T.V.V.V.T.V.V.V.T.V.V.V.T.V.V.V.T.V.V.V.T.V.V.V.T.V.V.V.T.V.V.V.T.V.V.V.T.T.V.V.T.V._+:+<+] W.V.H.b.1._.` Q F.q 0 1 ( % [ ",
"] [+H.K.}+H.H.K.I.J.] I.K.H.I.> <.:._.|+1+H.H.K.K.H.H.H.K.H.H.H.K.H.H.H.K.H.H.H.K.H.H.H.K.H.H.H.K.H.H.H.K.H.H.H.K.H.H.H.K.H.H.H.K.H.H.H.K.H.H.H.K.H.H.H.K.H.H.H.K.H.H.H.K.H.H.H.K.H.H.H.K.H.H.H.K.H.H.H.K.H.H.H.K.H.H.H.K.H.H.H.K.L.H.2+3+J.] W.H.b.1._.4+` P y s 0 1 ( % [ ",
". q.r.s.s.r.r.r.t.5+] t.r.r.t.> >.,.6+7+c.8+b.b.b.c.b.b.b.c.b.b.b.c.b.b.b.c.b.b.b.c.b.b.b.c.b.b.b.c.b.b.b.c.b.b.b.c.b.b.b.c.b.b.b.c.b.b.b.c.b.b.b.c.b.b.b.c.b.b.b.c.b.b.b.c.b.b.b.c.b.b.b.c.b.b.b.c.b.b.b.c.b.b.b.c.b.b.b.c.b.b.b.9+0+b.c.a+] b+b.b.1.o.` R c+q 8 2 ( - b   ",
". a.b.b.b.b.b.b.c.d.] B.b.b.B.] w.x.d+d+#+k.$+$+$+k.k.k.$+k.k.k.$+k.k.k.$+k.k.k.$+k.k.k.$+k.k.k.$+k.k.k.$+k.k.k.$+k.k.k.$+k.k.k.$+k.k.k.$+k.k.k.$+k.k.k.$+k.k.k.$+k.k.k.$+k.k.k.$+k.k.k.$+k.k.k.$+k.k.k.$+k.k.k.$+k.k.k.$+k.k.k.$+h.h.k.#+n.> B.M.M.o.` ` R y q 8 1 ( - b   ",
". |.M.1.1.M.M.1.e+3.] 2.1.M.2.] f+R P {.;.7+=.=.=.7+=.8.=.7+=.=.8.7+=.8.8.7+=.=.=.7+=.8.=.7+=.=.8.7+=.8.8.7+=.8.8.7+=.8.8.7+=.8.8.7+=.8.8.7+=.=.=.7+=.8.=.7+=.=.8.7+=.8.8.7+=.=.=.7+=.8.=.7+=.=.8.7+=.8.8.7+=.8.8.7+=.8.8.7+=.8.8.7+-.8.;.>.> 2._.o.` ` g+y q 8 p.2 ( h+i+  ",
". j+_._.D._._._.:.<.> :.D._.[.> 6.~.{.7.` Z Z Z 4+Z Z ` 0.Z Z ` 0.Z Z ` 0.Z Z Z 4+Z Z ` 0.Z Z ` 0.Z Z ` 0.Z Z ` 0.Z Z ` 0.Z Z ` 0.Z Z ` ` Z Z Z 4+Z Z ` 0.Z Z ` 0.Z Z ` 0.Z Z Z 4+Z Z ` 0.Z Z ` 0.Z Z ` 0.Z Z ` 0.Z Z ` 0.Z Z ` 0.E.Z k+` w.> (.o.` ` g+l+y q 8 1 ( &.- b   ",
". *.=.8.8.7+=.8.;.>.> ;.m+7+'.> ].D y q ~.~.{.{.{.~.{.{.{.~.{.{.{.~.{.{.{.~.{.{.{.~.{.{.{.~.{.{.{.~.{.{.{.~.{.{.{.~.{.{.{.~.{.{.{.~.{.{.{.~.~.{.{.~.{.{.{.~.{.{.{.~.{.{.{.~.{.{.{.~.{.{.{.~.{.{.{.~.{.{.{.~.{.{.{.~.{.{.{.~.{.{.{.~.{.{.~.n+> ..k+R o+y y s 8 !+!+M % b     ",
"] p+Z ` 0.Z Z ` ` w.> ..0.E.p+u q+s q !.q q q q q q q q q q q q q q q q q q q q q q q q q q q q q q q q q q q q q q q q q q q q q q q q q s s q q q q q q q q q q q q q q q q q q q q q q q q q q q q q q q q q q q q q q q q }.q q q q s t > N P z z q q p.8 !+( % e       ",
". r+P P P R P P R s+> o+g+R N u @.l 8 8 j k k j j j j j j j j j j j j j j j j j j j j j j j j j j j j j j j j j j j j j j j j j j l l j j j j j j j j j j j j j j j j j j j j j j j j j j j j j j j j j j j j j j j j j j j j j j j j j l m > D y s s 7 8 t+1 ( % & u+      ",
". v+y y 7.y y c+y C > z l+y D u T 0 U U I K K I I I I I I I I I I I I I I I I I I I I I I I I I I I I I I I I I I I I I I I I I I J J I I w+I I I I I I I I I I I I I I I I I I I I I I I I I I I I I I I I I I I I I I I I I I I I I I J x+@ p s 7 8 0 1 1 < % & [         ",
". t q q q s q q s t > #.q q s . y+z+1 1 ( ( ( ( ( ( ( ( ( ( ( < < ( ( ( ( ( ( ( ( ( ( ( ( ( ( < < ( ( ( ( ( ( ( ( ( ( ( ( ( ( ( ( ( ( < < ( ( ( ( ( ( ( ( ( ( < < ( ( ( ( ( ( ( ( ( ( ( ( ( ( < < ( ( ( ( ( ( ( ( ( ( ( ( ( ( < < ( ( ( ( : @ 0 8 1 1 3 ( ( % b [           ",
". i j j j W j j W i > j !.!.l . v 3 ( ( % A+/.% % & % % % & % &.&.% % % % & % % % & % % % & % &.&.% % % % & % % % & & % % & % % A+% % &.&.% /.% % & % % % & % &.&.% % % % & % % % & % % % & % &.&.% % % % & % % % % % % % & % &.&.% % % % * @ 3 1 ( ( ( % % e [             ",
". 6 0 B+0 0 8 8 0 a > 0 8 8 0 . n M ) { b [ [ [ b [ [ [ b [ [ b b [ [ [ b [ [ [ b [ [ [ b [ [ b b [ [ [ b [ [ [ [ o o [ b [ [ [ O.b b b b [ [ [ b [ [ [ b [ [ b b [ [ [ b [ [ [ b [ [ [ b [ [ b b [ [ [ b [ [ [ b b b b b [ [ b O.[ u+[ [ u+. / ( &.% - b [                 ",
"+ } 1 1 1 1 1 1 1 } > | 1 1 3 . { { { b C+                                                                                                                                                                                                  . & % e e u+[                   ",
"+ / ( ( ( ( ( ( ( D+@ ( ( E+( . , ; [ +                                                                                                 .   .                                                                                               + [ [                           ",
"> ~ ) ! ) ! ) ) ! F+@ ! ! ! ! . # G+.                                                                                                   .   u                                                                                               +                               ",
"+ & % & % & % - - H+. I+; ; ; . o +                                                                                                     .   u                                                                                               +                               ",
"+ J+J+J+K+K+K+L+C+M++ M+C+C+C++ +                                                                                                       +   .                                                                                                                               ",
"+ @ @ @     @ . + + + + + + + +                                                                                                       +     +                                                                                                                               ",
"        @   @                                                                                                                                                                                                                                                               ",
"        +   >                                                                                                                                                                                                                                                               ",
"        +   >                                                                                                                                                                                                                                                               ",
"        +   @                                                                                                                                                                                                                                                               ",
"        +   @ +                                                                                                                                                                                                                                                             "};
