/* XPM */
static char *HeatX_HeatX_E_HT_1CO[] = {
/* columns rows colors chars-per-pixel */
"147 53 105 2",
"   c #010100",
".  c #272725",
"X  c #272823",
"o  c #282722",
"O  c #282824",
"+  c #282828",
"@  c #3B3B36",
"#  c #3B3B39",
"$  c #4A4A43",
"%  c #4B4B49",
"&  c #57574D",
"*  c #57594E",
"=  c #58584E",
"-  c #595951",
";  c #64645C",
":  c #646460",
">  c #6F706A",
",  c #707165",
"<  c #717069",
"1  c #7C7C6E",
"2  c #7C7C70",
"3  c #868777",
"4  c #85867A",
"5  c #878878",
"6  c #88867A",
"7  c #8D8E7E",
"8  c #908E7F",
"9  c #858580",
"0  c #8D8E81",
"q  c #8D8E88",
"w  c #8F9081",
"e  c #908E81",
"r  c #97978D",
"t  c #979889",
"y  c #989987",
"u  c #989889",
"i  c #969791",
"p  c #969890",
"a  c #989792",
"s  c #9A9A90",
"d  c #9FA18E",
"f  c #9EA091",
"g  c #9EA099",
"h  c #A19F90",
"j  c #A0A18F",
"k  c #A0A192",
"l  c #A0A098",
"z  c #A9AA96",
"x  c #A9AA98",
"c  c #B2B29E",
"v  c #A7AAA1",
"b  c #B2B1A0",
"n  c #B0B1A8",
"m  c #B7B8A6",
"M  c #B6B8AB",
"N  c #B9B7A8",
"B  c #B9B9A6",
"V  c #B8B8AA",
"C  c #B7B8B0",
"Z  c #B9B9B0",
"A  c #BFC0AE",
"S  c #BEC0B4",
"D  c #C1BFB2",
"F  c #C1C1AD",
"G  c #C0C1B2",
"H  c #C4C4BB",
"J  c #C6C8B4",
"K  c #C6C8B9",
"L  c #C8C6B4",
"P  c #C9C7B8",
"I  c #C9C8B3",
"U  c #CDCDBD",
"Y  c #CED0BB",
"T  c #D0CEBB",
"R  c #D1D0BC",
"E  c #CDCEC3",
"W  c #CFD0C2",
"Q  c #D6D6C1",
"!  c #D4D5CA",
"~  c #D6D8C3",
"^  c #D8D6C2",
"/  c #DCDCC6",
"(  c #DCDBC9",
")  c #DBDBD1",
"_  c #E6E6D5",
"`  c #E5E6DA",
"'  c #E6E8D1",
"]  c #E8E6D2",
"[  c #E9E7DB",
"{  c #EDEDD5",
"}  c #EDEDD9",
"|  c #F3F3DC",
" . c #F9F9DF",
".. c #ECECE0",
"X. c #F3F3E2",
"o. c #F5F6EC",
"O. c #F7F8E2",
"+. c #F6F8EB",
"@. c #F8F7E2",
"#. c #F9F8E1",
"$. c #F8F8EC",
"%. c #F5F6F2",
"&. c #F7F8F1",
"*. c #FBFDF3",
"=. c #FEFEFE",
/* pixels */
"=.=.=.  o.*.o.  =.=.=.=.=.=.=.=.=.=.=.=.=.=.=.=.=.=.=.=.=.%.=.=.=.=.=.=.=.=.=.=.=.=.=.=.=.=.=.=.=.=.=.=.=.=.=.=.=.=.=.=.=.=.=.=.=.=.=.=.=.=.=.=.=.=.=.=.=.=.=.=.=.=.=.=.=.=.=.=.=.=.=.=.=.=.=.=.=.=.=.=.=.=.=.=.=.=.=.=.=.=.=.=.=.=.=.=.=.=.=.=.=.=.=.=.=.=.=.=.=.=.=.=.=.=.=.=.=.=.=.=.=.=.=.=.=.=.=.",
"=.=.=.=.  *.$.  =.=.=.=.=.=.=.=.=.=.=.=.=.=.=.=.=.=.=.=.=.=.=.=.=.=.=.=.=.=.=.=.=.=.=.=.=.=.=.=.=.=.=.=.=.=.=.=.=.=.=.=.=.=.=.=.=.=.=.=.=.=.=.=.=.=.=.=.=.=.=.=.=.=.=.=.=.=.=.=.=.=.=.=.=.=.=.=.=.=.=.=.=.=.=.=.=.=.=.=.=.=.=.=.=.=.=.=.=.=.=.=.=.=.=.=.=.=.=.=.=.=.=.=.=.=.=.=.=.=.=.=.=.=.=.=.=.=.=.",
"=.=.=.=.  *.$.  =.=.=.=.=.=.=.=.=.=.*.=.=.=.=.=.=.=.=.=.=.=.=.=.=.=.=.=.=.=.=.=.=.=.=.=.=.=.=.=.=.=.=.=.=.=.=.=.=.=.=.=.=.=.=.=.=.=.=.=.=.=.=.=.=.=.=.=.=.=.=.=.=.=.=.=.=.=.=.=.=.=.=.=.=.=.=.=.=.=.=.=.=.=.=.=.=.=.=.=.=.=.=.=.=.=.=.=.=.=.=.=.=.=.=.=.=.=.=.=.=.=.=.=.=.=.=.=.=.=.=.=.=.=.=.=.=.=.=.",
"=.=.=.=.  =.%.  =.=.=.=.=.=.=.=.=.=.=.=.=.=.=.=.=.=.=.=.=.=.=.=.=.=.=.=.=.=.=.=.=.=.=.=.=.=.=.=.=.=.=.=.=.=.=.=.=.=.=.=.=.=.=.=.=.=.=.=.=.=.=.=.=.=.=.=.=.=.=.=.=.=.=.=.=.=.=.=.=.=.=.=.=.=.=.=.=.=.=.=.=.=.=.=.=.=.=.=.=.=.=.=.=.=.=.=.=.=.=.=.=.=.=.=.=.=.=.=.=.=.=.=.=.=.=.=.=.=.=.=.=.=.=.=.=.=.=.",
"=.=.=.=.  *.$.  =.=.=.=.=.=.=.=.=.=.=.=.=.=.=.=.=.=.=.=.=.=.=.=.=.=.=.=.=.=.=.=.=.=.=.=.=.=.=.=.=.=.=.=.=.=.=.=.=.=.=.=.=.=.=.=.=.=.=.=.=.=.=.=.=.=.=.=.=.=.=.=.=.=.=.=.=.=.=.=.=.=.=.=.=.=.=.=.=.=.=.=.=.=.=.=.=.=.=.=.=.=.=.=.=.=.=.=.=.=.=.=.=.=.=.=.=.=.=.=.=.=.=.=.=.=.=.=.=.=.=.=.=.=.=.=.=.=.=.",
"        =.=.=.                    =.=.=.=.=.=.=.=.  $.=.o.  =.=.=.=.=.=.=.=.=.=.=.=.=.=.=.=.=.=.=.=.=.=.=.=.=.=.=.=.=.=.=.=.=.=.=.=.=.=.=.=.=.=.=.=.=.=.=.=.=.=.=.=.=.=.=.=.=.=.=.=.=.=.=.=.=.=.=.=.=.=.=.=.=.=.=.=.=.=.=.=.=.=.=.=.=.=.=.=.=.=.=.=.=.=.=.=.=.=.=.=.                                  ",
"  # @ @ @ @ @ @ @ @ @   @ @ @ @     =.=.=.=.=.=.=.=.  =.o.  =.=.=.=.=.=.=.=.=.=.=.=.=.=.=.=.=.=.=.=.=.=.=.=.=.=.=.=.=.=.=.=.=.=.=.=.=.=.=.=.=.=.=.=.=.=.=.=.=.=.=.=.=.=.=.=.=.=.=.=.=.=.=.=.=.=.=.=.=.=.=.=.=.=.=.=.=.=.=.=.=.=.=.=.=.=.=.=.=.=.=.=.=.=.=.=.=.=.=.    # @ @ #   @ # @ @ @ @ @ # @ #   ",
"  % $ $ $ $ $ $ $ $ $   $ $ $ %   #   =.=.=.=.=.=.=.  *.o.  =.=.=.=.=.=.=.=.=.=.=.=.=.=.=.=.=.=.=.=.=.=.=.=.=.=.=.=.=.=.=.=.=.=.=.=.=.=.=.=.=.=.=.=.=.=.=.=.=.=.=.=.=.=.=.=.=.=.=.=.=.=.=.=.=.=.=.=.=.=.=.=.=.=.=.=.=.=.=.=.=.=.=.=.=.=.=.=.=.=.=.=.=.=.=.=.=.=.  #   % $ $ %   $ $ $ $ $ $ $ $ $ $   ",
"  : ; ; ; ; ; ; ; ; ;   ; ; ; ;   # #   =.=.=.=.=.=.  *.$.  =.=.=.=.=.=.=.=.=.=.=.=.=.=.=.=.=.=.=.=.=.=.=.=.=.=.=.=.=.=.=.=.=.=.=.=.=.=.=.=.=.=.=.=.=.=.=.=.=.=.=.=.=.=.=.=.=.=.=.=.=.=.=.=.=.=.=.=.=.=.=.=.=.=.=.=.=.=.=.=.=.=.=.=.=.=.=.=.=.=.=.=.=.=.=.=.=.  @ @   ; : : :   ; ; ; ; ; ; ; ; : :   ",
"  > < , , , , , , , >   < < , <   % # #   =.=.=.=.*.  *.%.  =.=.=.=.=.=.=.=.*.=.*.=.=.=.=.=.=.=.=.=.=.=.=.=.=.=.=.=.=.=.=.=.=.=.=.=.=.=.=.=.=.=.=.=.=.=.=.=.*.=.=.=.=.=.=.=.=.=.*.=.=.=.=.=.=.=.=.=.=.=.=.=.=.=.=.=.=.=.=.=.=.=.=.=.=.=.=.=.=.=.=.=.=.=.=.=.  @ @ $   < < < <   , , , , , , , , < <   ",
"  2 2 2 2 1 1 2 2 2 2   2 2 2 2   - $ $ @ X O O . . =.=.=.X O O O O O O o o o o O O o O o O O O o O O O o O O o o o o o o O O O o o O O o o O O O O O o O O O O O O O o o o o o O O o O O O O O o O O O o O O o o o o o o O O O X X X X X O X X o O O O o   @ $ % =   2 2 2 2   1 1 1 1 1 1 2 2 2 2   ",
"  4 4 4 4 4 5 5 4 4 9   4 6 6 4   : - - $ $ $ $ $ $ $ $ $ $ $ $ $ $ $ $ $ $ $ $ $ $ $ $ $ $ $ $ $ $ $ $ $ $ $ $ $ $ $ $ $ $ $ $ $ $ $ $ $ $ $ $ $ $ $ $ $ $ $ $ $ $ $ $ $ $ $ $ $ $ $ $ $ $ $ $ $ $ $ $ $ $ $ $ $ $ $ $ $ $ $ $ $ $ $ $ $ $ $ $ $ $ $ $ $ @ $ - - ;   9 6 6 9   4 4 4 4 5 4 4 4 4 4   ",
"  q w w w 7 w 7 0 q q   0 e 0 0   > : ; = = - = * * = - * - & & = = = = = = = = = = = = = = = = = = = = = = - = = = = = = = = = = = = = = = = = = = = = = = = = = = = = = = = - = = = = = = = = = = = = = = - = = = = = = = = = = = = = * = = = = = = = = $ = ; ; ,   q 0 q q   0 7 0 0 8 8 w w q e   ",
"  a r u u u u u u r s   u u u u   > < < ; < , , , , , , , , , , , , , , , , , , , , , , , , , , , , , , , , , , , , , , , , , , , , , , , , , , , , , < , , , , , , , , , , , , , , , , , , , , , , , , , , , , , , , , , , , , , , , , , , , , , , , , , & ; , < <   r r u s   u u u u u s u u u u   ",
"  g g k f f f f f k l   k l f g   2 2 < , 1 1 1 1 1 1 1 2 2 1 1 1 1 2 2 1 1 2 2 1 1 1 2 2 1 2 2 1 1 1 1 1 1 2 2 1 1 1 2 1 1 1 1 1 1 1 1 1 1 2 2 1 1 2 2 1 1 1 1 1 1 2 2 1 1 2 2 1 1 1 2 1 1 2 2 1 1 1 1 1 1 2 2 1 1 1 2 1 1 1 1 1 1 1 1 1 1 1 2 2 1 2 1 1 ; , , 2 2   s h h g   f f k k h h j j h h   ",
"  n n b b b b b b b n   b b b n   9 4 2 2 e 0 0 7 7 7 7 7 7 e 8 0 0 0 0 7 7 0 0 0 7 0 e e e e e 7 7 0 0 7 7 0 0 8 8 7 7 w w 0 0 0 7 7 7 7 7 0 0 7 7 0 0 e 0 0 8 0 0 0 0 7 7 0 0 7 7 0 e e e e e 7 7 0 0 7 7 0 0 8 8 7 7 w w 0 0 0 0 7 7 w w w w e e 7 8 8 , 1 1 6 9   n b n n   b b b b b c c c b n   ",
"  Z V B B B B V V V Z   V N V V   p w 5 5 u u u y y u u u u u y y u u u u u h u u u u u y y u u u u u u u r u s u u u u u u y y u u u u u r u u u u u u u u y u u u u u u u u s u u u s u u u u u s u u u u u s u r u u u u u u u t u u u u u u u u u u t 1 5 4 e r   Z V V Z   V B V V B B B B V M   ",
"  Z F G G F F G F G D   F G G Z   g r r 7 x z z z z z z z z z z z z x z z z x x z z z z z z x z z x x z z z z x z x x z z z z z x z z z z z x x z z x z z z x z x z x z z z z z z z z z z z z z z z z z z z z x z z z z z z z z z z x x z x x x x z x z x 5 w u s h   G G G D   G F F F F F F F F F   ",
"  U P I I I I I I P P   P I P P   g k f y b b b b b b b c c b b c c c c c c c c c c b b c c c c c c c c c b c c b c c c c c c c b c c c c c b b c c c c c c c c c c c c c c c c c c b b b c c c b c c c b b b c c c c c b b b c b c b b b c b c b c c b b u t f h l   P P K P   P I K K L I Y R L H   ",
"  W T T T T T T T T E   W T T E   v x k k F F F F F F F A F F F D D F G D D D F D F F G F F D D F D F D D G F F F D F D D G D D F F F G D F G G F D G F D D D F D F L F F F F D F F F F F F G D F D F D F G F G D F D G F F F F F A A A F F F G F A A A A d f f x v   E E E W   T T Y Y T T R R U W   ",
"  ! ! ~ R ^ Q Q Q ^ !   ^ Q Q ~   n b x x J I I I I I I J J J J I I I I I I I I I I I I I I I I I I I I I I I I I I I I I I I I I I I I I I I I I I I I I I I I I I I I P I P I I I I I I I I I I I I I I I I I I I I I J I I I J J I I I I I I I I I I J z z z c c   ! ^ ! !   ~ Q Q Q R / R R ~ !   ",
"  ) ( / / / ( / ( ( )   ( / ( (   M V b c ~ Q Q R / R R ~ ~ R ~ Q R Q Q ^ Q ^ Q / R / R ^ ^ ^ ^ R / / R / R ^ ^ R / / R Q Q Q Q Q Q Q ^ ^ ^ ^ ^ ^ R ^ Q ^ ^ ^ R ^ ^ ^ ^ ^ ^ ^ ^ Q R Q ^ Q Q Q R R / / R Q ^ ^ Q ^ ^ ^ ^ Q Q Q Q Q Q ^ R ^ ^ ^ R / R / R ~ b b b c D   ( ( ( )   ( / / / / / / / ( (   ",
"  ` [ ' ] { ' ' _ [ [   _ ] ] _   S J B B / / ( / / / / / / / / / / / / ( / / / / / / / / / / / / / / / / / / / / / / / / / / / / / / / / / ( ( / / / / ( / / / / / / / / / ( ( / / / / / / / / / / / / / / / / / / / / / / / / / / / / / / / / / / / / ( B B B F L   [ [ [ ..  _ ] ] ' ] ' ' ' _ `   ",
"  } } } { { } { } } }   } } } }   S S F F ' ' ' ' { ] ] ] ] ' { ] ] ] ] { ' ] { ] ] ] ] ] ] ] ] ] ] ] ] ] ] ] ] ] ] ] { ] ] ] { ] ] ] ] ] ] ] ] ] ] ] ] ] { ] { ] ] ] ] ] ] ] ] ] ] ] ] ] { { { ] ] ] ] ] ] ] ] ] ] ] ] ] ] ] { { ] ] ] { ] ] ] ] ] ] ] { F F F D D   ..} } ..  } } { { { { { { { }   ",
"  o.| | | | | | | X.X.  X.| | X.  K P P I } { { { { { { { { { { { { { { { { { { { { { | { { { { { { { { { { { { { { { { { { { { { { { { { { { { { { { { { { { { { { { { { { { { { { { { { { { { { { { { { { { { { { { { { { { { { { { { { { { { { { { { } I I I J J   X.X.X.X.  X.| | | | | | | | X.  ",
"  +.$.#.#.#. .#.#.#.o.  @.#.@.$.  E U T T #.#.#. . .#.#. . .#.#. . . .#.#.#.#.#. . . .#. . . . . . .#.#.#.#.#.#. . .#.#.#.#.#.#. . .#.#.#. .#.#. . .#.#.#.#.#.#. . .#.#. .#.#.#. . .#.#.#.#.#.#. . .#.#.#.#.#.#. . .#.#.#.#. . .#.#.#.#.#.#.#.#.#.#.#.#.#.T R T T Y   $.#.#.$.  O.O. . .#.#.#. .O.+.  ",
"  o.+.#. . .#.#.#.$.$.  @.@.@.@.  ! ^ ~ ^ #. .#. .#.#.#.#.#.#. . . . . .#.#.#.#. .#.#.#.#. . . . .#.#.#.#.#.#.#.#. . . .#.#.#.#.#.#.#.#.#.#. . .#.#.#.#. . . . .#.#. .#. .#. . .#.#.#.#.#.#. .#. .#. .#.#.#.#.#. . . . .#.#.#. .#.#.#.#.#.#.#.#.#.#.#.#.#.R R / Q ~   o.$.#.$.  O.O. . .#.#. . .O.+.  ",
"  X.O.| | | | | X.X.X.  @.@.X.X.  W T T T } { { { { { { { { { { { { { { { { { { { { { { { { { { { { { { { { { { { { { { { { { { { { { { { { { | { { { { { { { { { { { { { { { | { { { { { { { { { { { { { { { { { { { { { { | { { { { { { { { { { { { { | I R R Y U   o.X.X.X.  X.X.| | |  .| | | X.  ",
"  ..} } { { } { } } }   } } } }   K K J I { ] ] ] ] ] { ' ' ' { ' ' ' ] ] ] ] ] { ] ] ] ' ' ] ] ] ] ] ] { ] ] ] { { ] ] ] ] ] ] { ] { { ] ] ] ] { { { ] ] ] { { { ] { { ] ] ] ] { { { ] ] ] { ] ] ] ] { { ] ] ] ] ] ] ] ] ] ] ] { ' { ] ] ] ] ] ' ] ] ' { I I I P K   } } } ..  } } { { { { { { } }   ",
"  ` _ ] ' ' ] { ' [ [   _ ' _ `   H S F F / / / / / / / / / / / / / / / / / / / / / / / / / / / / / / / / / / / / / / / / / / / / / / / / / / / / / / / / / / / / / / / / / / / / / / / / / / / / / / ] / / / / / / / / / / / / / / / / / / / / / / ( / / D F F F F   [ [ ` [   _ ' ] ' ] ] ] ' ' _   ",
"  ( ( ( / / / / ( ( )   ( ( / (   S S B B R / R R Q / Q R Q Q Q R / / R R / R / R R R / R / / R R / R / R R R / R R / R R / Q Q R / R R R R / R R R / R R R R R R / R R R ^ R R R R / R R / R R R R R R R R R / R / R R R / R / Q Q R Q Q Q Q Q Q Q ~ Q Q B B B G G   ) ( ( )   ( ( / / / / / / ( (   ",
"  ! ^ / Q ^ ^ R ^ ^ !   / ~ ~ !   M m c c I I I I I I I I I J J I I I I I I I I Y I I I I I I I I I I I T I I I I I I I I I I L I I I I I I I I I I I I Y I T I I I I I I I Y I I I I I I I I I I T I Y I I I I I I R I I I I I I I I I I J I I I I J J J c b b B N   ! ^ ! !   ^ Q Q Q ~ ~ ~ R ~ !   ",
"  W E U R T T T T I E   E T T U   M b x x S A A A A A A F F F F F F F F F F F F F F F F F F D F F F F F F F F F F F F D F F F F F F F F F F F F F F F F F F F F F F F F F F F F F F F F F F F F F F D D F F F F D D F D F F F F F F F F A A F A A A A A A g x x n b   E E U E   E U U T Y Y Y T T Y   ",
"  K J I I I I I I I E   P L I K   v x f d c c c c c b b b c b b c c b c c c c b c c b b c c c c b c c b c c b b b c c c c c c b c c b b b c c b c c b b c c b c c c b b b c c b c c b b c c b c c c c c c c c c b c c c c c c b c c b c c c c c c c b b b f f d x x   E P P E   L L J J J J J J P P   ",
"  S G S D D G G F L D   S F S F   g f f d g x z z z x x x x z z z z z z x x x z z z z z x z x x x z x z z z z z z z x x x x x z z z z x z z x z z z x x z z x x z z z x z z x z z z x x z z x x z z z z z z c z z x x x z z z z z z x x z x x z z z x z x t d f k k   D Z D D   F F F F F F F F S G   ",
"  Z m B D B B B B B Z   V V m M   g t u 7 t d t t t t d u t t t u u u u u u u u r u u u u u u u u u u u r y u u u u u u u u u u u u u u u u u u u u u u u u u u u u u u u u u u u u u u u u u u y y u u u u y y u u u u y y u u y y u t y u u u d t d t t 3 w t u k   Z V D Z   V B B B B B V V B V   ",
"  n b b b b b b b n n   b b b n   p q 4 4 0 w e 7 7 w w w w w w e w 0 w 0 0 0 0 w 0 0 e e e e e e 0 0 0 0 7 7 7 e e e e e w 0 0 e e e 0 0 0 0 0 e e e 0 8 w 7 0 e e e 0 0 0 0 0 e e e 0 8 w 7 0 0 0 e e e e e e 0 0 0 0 0 0 7 7 7 7 w w 7 7 8 7 7 w w w w 1 4 4 e r   n n n N   b b b b b b b b b b   ",
"  g k f d g f f f k g   f k g f   9 4 2 2 1 1 1 1 1 1 1 1 1 2 2 2 2 1 2 1 1 2 1 1 1 2 1 1 1 1 2 1 1 1 2 1 1 1 1 2 1 1 2 1 1 1 1 2 2 2 2 1 1 1 2 2 1 2 2 1 1 1 2 2 2 2 2 1 1 1 2 2 1 2 2 1 1 1 2 1 1 2 2 2 1 1 2 1 1 1 1 1 1 1 1 1 1 2 1 1 1 1 1 1 2 2 2 2 > 2 2 4 6   l l h h   k f f d d d f f f l   ",
"  p u r y y u t u u p   t t u u   2 2 , , , , , , , , , , , , , , , , , , , , , , , , , , , , , , , , , , , , , , , , , , , , , , , , , , , , , , , , , , , , , , , , , , , , , , , , , , , , , , , , , , , , , , , , , , , , , , , , , , , , , , , < , , ; > > 2 2   r s s a   u u u u t u u t u s   ",
"  q w w 7 7 w w w w q   0 0 w q   > < , ; = = = * * * * * * * - - - = = = = = = = = = = = = = = = = = = = = = = = = = = = = = = = = = = = = = = = = = = = = = = = = = = = = = = = = = = = = = = = = = = = = - & = = = = = = = = = = = = * = * * * * * - - = ; < < ,   q e 7 q   q w w 7 7 7 w 0 0 0   ",
"  9 4 4 3 4 4 4 4 4 9   9 6 6 4   > : : - % $ $ $ $ $ $ $ $ $ $ $ $ $ $ $ $ $ $ $ $ $ $ $ $ $ $ $ $ $ $ $ $ $ $ $ $ $ $ $ $ $ $ $ $ $ $ $ $ $ $ $ $ $ $ $ $ $ $ $ $ $ $ $ $ $ $ $ $ $ $ $ $ $ $ $ $ $ $ $ $ $ $ $ $ $ $ $ $ $ $ $ $ $ $ $ $ $ $ $ $ $ $ $ $ = ; ; <   9 6 9 9   4 4 3 3 3 3 3 3 4 4   ",
"  2 2 2 1 1 1 2 2 2 2   2 2 2 2   : - - % O o O o o o O o O O O o O o o o O O O O o o o o O O o O O O o O O o o o o o o o O O O O o O O o O O O o O O O O o O O O o O O o O O O o O O O O o O O o O O O O O O o o o O O O O O o X O X X o o X O X X O O X @ $ = - ;   2 2 2 2   2 1 1 1 1 1 1 1 2 2   ",
"  > > , , , , , < < >   < < < <   - % $ @ X =.=.=.=.=.=.=.=.=.=.=.=.=.=.=.=.=.=.=.=.=.=.*.=.=.=.=.=.=.=.=.=.=.=.=.=.=.=.=.=.=.=.=.=.=.=.*.=.=.=.=.=.=.=.=.=.=.*.=.=.=.=.*.=.=.=.=.=.=.=.=.=.=.*.=.=.=.=.=.=.=.=.*.=.=.=.=.=.=.=.=.=.=.=.=.=.=.=.=.=.=.*.=.  # $ $ -   > > < >   , , , , , , , , > >   ",
"  : ; ; ; ; ; ; ; ; :   ; ; ; ;   $ @ #   =.=.=.=.=.=.=.=.=.=.=.=.=.=.=.=.=.=.=.=.=.=.=.=.=.=.=.=.=.=.=.=.=.=.=.=.=.=.=.=.=.=.=.=.=.=.=.=.=.=.=.=.=.=.=.=.=.=.=.=.=.=.=.=.=.=.=.=.=.=.=.=.=.=.=.=.=.=.=.=.=.=.=.=.=.=.=.=.=.=.=.=.=.=.=.  =.%.  =.=.=.=.=.=.  # @ %   : ; ; :   ; ; ; ; ; ; ; ; ; :   ",
"  % % % $ $ $ $ $ $ %   $ $ $ $   # #   =.=.=.=.=.=.=.=.=.=.=.=.=.=.=.=.=.=.=.=.=.=.=.=.=.=.=.=.=.=.=.=.=.=.=.=.=.=.=.=.=.=.=.=.=.=.=.=.=.=.=.=.=.=.=.=.=.=.=.=.=.=.=.=.=.=.=.=.=.=.=.=.=.=.=.=.=.=.=.=.=.=.=.=.=.=.=.=.=.=.=.=.=.=.=.=.  =.o.  =.=.=.=.=.=.=.  # @   $ $ $ $   $ $ $ $ $ $ $ $ $ $   ",
"  # # # @ @ @ @ @ @ #   @ @ @ @   #   =.=.=.=.=.=.=.=.=.=.=.=.=.=.=.=.=.=.=.=.=.=.=.=.=.=.=.=.=.=.=.=.=.=.=.=.=.=.=.=.=.=.=.=.=.=.=.=.=.=.=.=.=.=.=.=.=.=.=.=.=.=.=.=.=.=.=.=.=.=.=.=.=.=.=.=.=.=.=.=.=.=.=.=.=.=.=.=.=.=.=.=.=.=.=.=.=.  =.%.  =.=.=.=.=.=.=.=.  #   # @ @ #   @ @ @ @ @ @ @ @ @ #   ",
"  + O O + O O O O O +   O O O O     =.=.=.=.=.=.=.=.=.=.=.=.=.=.=.=.=.=.=.=.=.=.=.=.=.=.=.=.=.=.=.=.=.=.=.=.=.=.=.=.=.=.=.=.=.=.=.=.=.=.=.=.=.=.=.=.=.=.=.=.=.=.=.=.=.=.=.=.=.=.=.=.=.=.=.=.=.=.=.=.=.=.=.=.=.=.=.=.=.=.=.=.=.=.=.=.=.=.  =.%.  =.=.=.=.=.=.=.=.=.    + + + +   + O o o X X O o . +   ",
"                                  =.=.=.=.=.=.=.=.=.=.=.=.=.=.=.=.=.=.=.=.=.=.=.=.=.=.=.=.=.=.=.=.=.=.=.=.=.=.=.=.=.=.=.=.=.=.=.=.=.=.=.=.=.=.=.=.=.=.=.=.=.=.=.=.=.=.=.=.=.=.=.=.=.=.=.=.=.=.=.=.=.=.=.=.=.=.=.=.=.=.=.=.=.=.=.=.=.=.  =.=.=.  =.=.=.=.=.=.=.=.=.=.                  =.=.=.          ",
"=.=.=.=.=.=.=.=.=.=.=.=.=.=.=.=.=.=.=.=.=.=.=.=.=.=.=.=.=.=.=.=.=.=.=.=.=.=.=.=.=.=.=.=.=.=.=.=.=.=.=.=.=.=.=.=.=.=.=.=.=.=.=.=.=.=.=.=.=.=.=.=.=.=.=.=.=.=.=.=.=.=.=.=.=.=.=.=.=.=.=.=.=.=.=.=.=.=.=.=.=.=.=.=.=.=.=.=.=.=.=.=.=.=.=.=.=.=.=.=.=.=.=.=.=.=.=.=.=.=.=.=.=.=.=.=.=.=.=.  *.+.  =.=.=.=.",
"=.=.=.=.=.=.=.=.=.=.=.=.=.=.=.=.=.=.=.=.=.=.=.=.=.=.=.=.=.=.=.=.=.=.=.=.=.=.=.=.=.=.=.=.=.=.=.=.=.=.=.=.=.=.=.=.=.=.=.=.=.=.=.=.=.=.=.=.=.=.=.=.=.=.=.=.=.=.=.=.=.=.=.=.=.=.=.=.=.=.=.=.=.=.=.=.=.=.=.=.=.=.=.=.=.=.=.=.=.=.=.=.=.=.=.=.=.=.=.=.=.=.=.=.=.=.=.=.=.=.=.=.=.=.=.=.=.=.=.  *.+.  =.=.=.=.",
"=.=.=.=.=.=.=.=.=.=.=.=.=.=.=.=.=.=.=.=.=.=.=.=.=.=.=.=.=.=.=.=.=.=.=.=.=.=.=.=.=.=.=.=.=.=.=.=.=.=.=.=.=.=.=.=.=.=.=.=.=.=.=.=.=.=.=.=.=.=.=.=.=.=.=.=.=.=.=.=.=.=.=.=.=.=.=.=.=.=.=.=.=.=.=.=.=.=.=.=.=.=.=.=.=.=.=.=.=.=.=.=.=.=.=.=.=.=.=.=.=.=.=.=.=.=.=.=.=.=.=.=.=.=.=.=.=.=.=.  *.$.  =.=.=.=.",
"=.=.=.=.=.=.=.=.=.=.=.=.=.=.=.=.=.=.=.=.=.=.=.=.=.=.=.=.=.=.=.=.=.=.=.=.=.=.=.=.=.=.=.=.=.=.=.=.=.=.=.=.=.=.=.=.=.=.=.=.=.=.=.=.=.=.=.=.=.=.=.=.=.=.=.=.=.=.=.=.=.=.=.=.=.=.=.=.=.=.=.=.=.=.=.=.=.=.=.=.=.=.=.=.=.=.=.=.=.=.=.=.=.=.=.=.=.=.=.=.=.=.=.=.=.=.=.=.=.=.=.=.=.=.=.=.=.=.=.  *.o.  =.=.=.=.",
"=.=.=.=.=.=.=.=.=.=.=.=.=.=.=.=.=.=.=.=.=.=.=.=.=.=.=.=.=.=.=.=.=.=.=.=.=.=.=.=.=.=.=.=.=.=.=.=.=.=.=.=.=.=.=.=.=.=.=.=.=.=.=.=.=.=.=.=.=.=.=.=.=.=.=.=.=.=.=.=.=.=.=.=.=.=.=.=.=.=.=.=.=.=.=.=.=.=.=.=.=.=.=.=.=.=.=.=.=.=.=.=.=.=.=.=.=.=.=.=.=.=.=.=.=.=.=.=.=.=.=.=.=.=.=.=.=.=.=.  =.=.  =.=.=.=."
};
