/* XPM */
static char * heatx_heatx_ecn_ht_1[] = {
"141 53 202 2",
"  	c None",
". 	c #000000",
"+ 	c #000002",
"@ 	c #000100",
"# 	c #010000",
"$ 	c #F7F7ED",
"% 	c #FDFEEE",
"& 	c #F7F8E8",
"* 	c #A8AA9F",
"= 	c #010100",
"- 	c #FFFEEA",
"; 	c #F7F9E4",
"> 	c #A9AA9C",
", 	c #C7C7BB",
"' 	c #F9F8E6",
") 	c #C7C8BA",
"! 	c #86867E",
"~ 	c #C9C7B8",
"{ 	c #F9F8E3",
"] 	c #F9F9E1",
"^ 	c #C9C8B4",
"/ 	c #86867C",
"( 	c #FFFEE9",
"_ 	c #F7F9E3",
": 	c #FAF8E3",
"< 	c #C9C8B6",
"[ 	c #85857B",
"} 	c #000200",
"| 	c #C9C7BA",
"1 	c #F9F8E4",
"2 	c #F7F8EA",
"3 	c #FDFFEA",
"4 	c #C7C7BD",
"5 	c #868580",
"6 	c #F6F8ED",
"7 	c #FCFEF0",
"8 	c #A9A9A1",
"9 	c #010200",
"0 	c #4B4A45",
"a 	c #4B4B43",
"b 	c #4B4A46",
"c 	c #4C4C44",
"d 	c #4A4A42",
"e 	c #4B4B41",
"f 	c #4D4A41",
"g 	c #4A4B45",
"h 	c #4A4B46",
"i 	c #4C4C42",
"j 	c #4C4B47",
"k 	c #65655D",
"l 	c #65655B",
"m 	c #65645F",
"n 	c #66635A",
"o 	c #67645B",
"p 	c #64655F",
"q 	c #717167",
"r 	c #717165",
"s 	c #737165",
"t 	c #71706B",
"u 	c #727266",
"v 	c #707064",
"w 	c #70716B",
"x 	c #717169",
"y 	c #868779",
"z 	c #888679",
"A 	c #86867A",
"B 	c #87877B",
"C 	c #858678",
"D 	c #87887A",
"E 	c #85867E",
"F 	c #85857D",
"G 	c #98988C",
"H 	c #989989",
"I 	c #999A8A",
"J 	c #98998B",
"K 	c #98988E",
"L 	c #97998E",
"M 	c #97988A",
"N 	c #A0A094",
"O 	c #A0A191",
"P 	c #A0A193",
"Q 	c #A0A096",
"R 	c #A0A18F",
"S 	c #A1A292",
"T 	c #9FA196",
"U 	c #B1B2A4",
"V 	c #B1B2A0",
"W 	c #B3B2A0",
"X 	c #B1B2A2",
"Y 	c #B1B1A7",
"Z 	c #020200",
"` 	c #010300",
" .	c #B0B2A5",
"..	c #B2B0A1",
"+.	c #B8B9AB",
"@.	c #B8B9A7",
"#.	c #BAB9A7",
"$.	c #B8B9A9",
"%.	c #B8B8AC",
"&.	c #B9BAA8",
"*.	c #B7B9AC",
"=.	c #BAB8A9",
"-.	c #B8B8AE",
";.	c #C7C8B8",
">.	c #CAC9B5",
",.	c #C7C8B6",
"'.	c #D7D5C6",
").	c #D7D6C1",
"!.	c #D7D6C2",
"~.	c #D5D6C8",
"{.	c #D7D6C4",
"].	c #D5D5C9",
"^.	c #D8D7C2",
"/.	c #D6D5C1",
"(.	c #D8D7C3",
"_.	c #D8D7C5",
":.	c #DDDBCC",
"<.	c #DDDCC7",
"[.	c #DCDBC7",
"}.	c #DBDCCE",
"|.	c #DDDCC8",
"1.	c #DDDCCA",
"2.	c #DBDBCF",
"3.	c #E8E6D7",
"4.	c #E8E7D2",
"5.	c #E9E8D3",
"6.	c #E8E7D3",
"7.	c #E6E7D9",
"8.	c #E7E8DA",
"9.	c #EEEDDB",
"0.	c #EEEED6",
"a.	c #EEEDD9",
"b.	c #ECEDDF",
"c.	c #EDECD8",
"d.	c #EBECDE",
"e.	c #F8F9E9",
"f.	c #FAFAE2",
"g.	c #FFFFE7",
"h.	c #FFFFE5",
"i.	c #FEFFEF",
"j.	c #F9F9DF",
"k.	c #EEEDD8",
"l.	c #ECEDDD",
"m.	c #EDEEDE",
"n.	c #E8E7D5",
"o.	c #E8E8D0",
"p.	c #DDDBCE",
"q.	c #030100",
"r.	c #DCDBC6",
"s.	c #DEDCC7",
"t.	c #DADBCB",
"u.	c #DEDDC9",
"v.	c #DADBCD",
"w.	c #D5D6C6",
"x.	c #D7D5C8",
"y.	c #D8D6C1",
"z.	c #C7C9B4",
"A.	c #C8CAB5",
"B.	c #C9C7BB",
"C.	c #C6C8B3",
"D.	c #C6C7B9",
"E.	c #C8C7B3",
"F.	c #B8BAA5",
"G.	c #BAB8AC",
"H.	c #BAB9A5",
"I.	c #B7B7AB",
"J.	c #B1B39E",
"K.	c #B0B2A7",
"L.	c #B0B19F",
"M.	c #A1A197",
"N.	c #9FA291",
"O.	c #9FA28F",
"P.	c #9FA090",
"Q.	c #9A9889",
"R.	c #999A8C",
"S.	c #717264",
"T.	c #707169",
"U.	c #707066",
"V.	c #66665C",
"W.	c #656559",
"X.	c #4A4B43",
"Y.	c #4A4C41",
"Z.	c #3B3C37",
"`.	c #3B3C36",
" +	c #3B3C34",
".+	c #3C3C34",
"++	c #3C3B36",
"@+	c #3B3A36",
"#+	c #3B3A35",
"$+	c #3C3B37",
"%+	c #3A3B35",
"&+	c #3A3B36",
"*+	c #F7F7EB",
"=+	c #FDFEF0",
"-+	c #A8A89E",
";+	c #A8A99B",
">+	c #FEFEE6",
",+	c #AAAB9D",
"'+	c #A9AA9A",
")+	c #FDFFE9",
"!+	c #FAF9E5",
"~+	c #F6F8EB",
"                                                                                                                                                                                                                                                                      . . + + . . . . . . ",
"                                                                                                                                                                                                                                                                    @ . . . . @ @ @ . . . ",
"                                                                                                                                                                                                                                                                          # $ % & * @     ",
"                                                                                                                                                                                                                                                                          = & - ; > @     ",
"                                                                                                                                                                                                                                                                          = & - ; > @     ",
"                                                                                                                                                                                                                                                                          = & - ; > @     ",
"                                                                                                                                    # , & ' ) ! #                                                                                                                         = & - ; > @     ",
"                                                                                                                                    # ~ { ] ^ / #                                                                                                                         = & ( _ > @     ",
"                                                                                                                                    # ~ { : < [ #                                                                                                                         = & ( _ > }     ",
"                                                                                                                                    # | 1 1 ~ ! #                                                                                                                         = 2 3 ; > @     ",
"                                                                                                                                    @ 4 2 2 , 5 @                                                                                                                         @ 6 7 2 8 #     ",
". . . . . . . . . = . . . . . . . . . @ @ . . . . . . . . . . . . . . . . . . . . . . . . . . . . . . . . . . . . . . . . . . . . . @ = = = = # @ @ . . . . . . . . . . . . . . . . . . . . . . . . . . . . . . . . . . . . . . . . . . . . . . . . . . . . . . . . @ . @ 9 @ } } # # . . ",
". 0 a 0 0 a a 0 0 a 0 b # 0 c 0 0 a a 0 0 a a 0 0 a a 0 0 a a 0 0 a a 0 0 a a 0 0 a a 0 0 a a 0 0 a a 0 0 a a 0 0 a a 0 0 a a 0 0 a a d e f e a a a a 0 0 a a 0 0 a a 0 0 a a 0 0 a a 0 0 a a 0 0 a a 0 0 a a 0 0 a a 0 0 a a 0 0 a a 0 0 a a 0 0 a a 0 0 a a 0 g @ h 0 0 a i a a a a j # ",
". k l l l l l l l l l m # l l l l l l l l l l l l l l l l l l l l l l l l l l l l l l l l l l l l l l l l l l l l l l l l l l l l l l l l n o l l l l l l l l l l l l l l l l l l l l l l l l l l l l l l l l l l l l l l l l l l l l l l l l l l l l l l l l l k @ p k l l l l l l l m # ",
"@ q r s s s s r r r q t # q r r r r r r r r r r r r r r r r r r r r r r r r r r r r r r r r r r r r r r r r r r r r r r r r r r r r r r r u r r v r r r r r r r r r r r r r r r r r r r r r r r r r r r r r r r r r r r r r r r r r r r r r r r r r r r r r r r q @ w q v r r r r r r x # ",
"@ / y z z z z y y y A ! = B y y y y y y y y y y y y y y y y y y y y y y y y y y y y y y y y y y y y y y y y y y y y y y y y y y y y C D y y D y y y y y y y y y y y y y y y y y y y y y y y y y y y y y y y y y y y y y y y y y y y y y y y y y y y y y y y y y A @ E A y y y y y y A F # ",
"@ G H H H H H H H I J K = J H H H H H H H H H H H H H H H H H H H H H H H H H H H H H H H H H H H H H H H H H H H H H H H H H H H H H H H H H H H H H H H H H H H H H H H H H H H H H H H H H H H H H H H H H H H H H H H H H H H H H H H H H H H H H H H H H H J } L J H H H H H H M K # ",
"@ N O O O O O O O O P Q = P O O O O O O O O O O O O O O O O O O O O O O O O O O O O O O O O O O O O O O O O O O O O O O O O O O O R R S O S O O O O O O O O O O O O O O O O O O O O O O O O O O O O O O O O O O O O O O O O O O O O O O O O O O O O O O O O O O P } T P O O O O O O P Q # ",
"@ U V W W V V V V V X Y Z X V V V V V V V V V V V V V V V V V V V V V V V V V V V V V V V V V V V V V V V V V V V V V V V V V V V V V V V V V V V V V V V V V V V V V V V V V V V V V V V V V V V V V V V V V V V V V V V V V V V V V V V V V V V V V V V V V V X `  .X V V V V V W ..Y # ",
"@ +.@.#.#.@.@.@.@.@.$.%.= $.@.&.@.@.@.@.@.@.@.@.@.@.@.@.@.@.@.@.@.@.@.@.@.@.@.@.@.@.@.@.@.@.@.@.@.@.@.@.@.@.@.@.@.@.@.@.@.@.@.@.@.@.@.@.@.@.@.@.@.@.@.@.@.@.@.@.@.@.@.@.@.@.@.@.@.@.@.@.@.@.@.@.@.@.@.@.@.@.@.@.@.@.@.@.@.@.@.@.@.@.@.@.@.@.@.@.@.@.@.@.@.@.@.@.$.= *.$.@.@.@.@.@.#.=.-.# ",
"@ ;.^ ^ ^ ^ ^ ^ ^ ^ < ) 9 < ^ >.^ ^ ^ ^ ^ ^ ^ ^ ^ ^ ^ ^ ^ ^ ^ ^ ^ ^ ^ ^ ^ ^ ^ ^ ^ ^ ^ ^ ^ ^ ^ ^ ^ ^ ^ ^ ^ ^ ^ ^ ^ ^ ^ ^ ^ ^ ^ ^ ^ ^ ^ ^ ^ ^ ^ ^ ^ ^ ^ ^ ^ ^ ^ ^ ^ ^ ^ ^ ^ ^ ^ ^ ^ ^ ^ ^ ^ ^ ^ ^ ^ ^ ^ ^ ^ ^ ^ ^ ^ ^ ^ ^ ^ ^ ^ ^ ^ ^ ^ ^ ^ ^ ^ ^ ^ ^ ^ ^ ^ ^ ^ ^ ,.= , < ^ ^ ^ ^ ^ ^ < , = ",
"@ '.).!.!.).).!.!.).!.~.9 !.).!.!.).).!.!.).).!.!.).).!.!.).).!.!.).).!.!.).).!.!.).).!.!.).).!.!.).).!.!.).).!.!.).).!.!.).).!.!.).).!.!.).).!.!.).).!.!.).).!.!.).).!.!.).).!.!.).).!.!.).).!.!.).).!.!.).).!.!.).).!.!.).).!.!.).).!.!.).).!.!.).).!.!.).).!.{.= ].{.!.).^./.!.(._.].= ",
"@ :.<.<.<.<.<.<.<.<.[.}.9 |.<.<.<.<.<.<.<.<.<.<.<.<.<.<.<.<.<.<.<.<.<.<.<.<.<.<.<.<.<.<.<.<.<.<.<.<.<.<.<.<.<.<.<.<.<.<.<.<.<.<.<.<.<.<.<.<.<.<.<.<.<.<.<.<.<.<.<.<.<.<.<.<.<.<.<.<.<.<.<.<.<.<.<.<.<.<.<.<.<.<.<.<.<.<.<.<.<.<.<.<.<.<.<.<.<.<.<.<.<.<.<.<.<.<.1.= 2.1.<.<.<.<.<.<.1.2.= ",
"@ 3.4.4.4.4.4.4.4.5.6.7.9 6.4.4.4.4.4.4.4.4.4.4.4.4.4.4.4.4.4.4.4.4.4.4.4.4.4.4.4.4.4.4.4.4.4.4.4.4.4.4.4.4.4.4.4.4.4.4.4.4.4.4.4.4.4.4.4.4.4.4.4.4.4.4.4.4.4.4.4.4.4.4.4.4.4.4.4.4.4.4.4.4.4.4.4.4.4.4.4.4.4.4.4.4.4.4.4.4.4.4.4.4.4.4.4.4.4.4.4.4.4.4.4.4.4.4.6.9 8.6.4.5.4.4.4.4.6.7.= ",
"@ 9.0.0.0.0.0.0.0.0.a.b.9 a.0.0.0.0.0.0.0.0.0.0.0.0.0.0.0.0.0.0.0.0.0.0.0.0.0.0.0.0.0.0.0.0.0.0.0.0.0.0.0.0.0.0.0.0.0.0.0.0.0.0.0.0.0.0.0.0.0.0.0.0.0.0.0.0.0.0.0.0.0.0.0.0.0.0.0.0.0.0.0.0.0.0.0.0.0.0.0.0.0.0.0.0.0.0.0.0.0.0.0.0.0.0.0.0.0.0.0.0.0.0.0.0.0.0.a.9 b.c.0.0.0.0.0.0.a.d.= ",
"@ ' ] ] ] ] ] ] ] ] { e.9 { f.] ] ] ] ] ] ] ] ] ] ] ] ] ] ] ] ] ] ] ] ] ] ] ] ] ] ] ] ] ] ] ] ] ] ] ] ] ] ] ] ] ] ] ] ] ] ] ] ] ] ] ] ] ] ] ] ] ] ] ] ] ] ] ] ] ] ] ] ] ] ] ] ] ] ] ] ] ] ] ] ] ] ] ] ] ] ] ] ] ] ] ] ] ] ] ] ] ] ] ] ] ] ] ] ] ] ] ] ] ] ] ] ] { 9 & 1 ] ] ] ] ] ] { & = ",
"@ - g.g.g.g.h.g.g.h.( % 9 ( h.g.g.h.h.g.g.h.h.g.g.h.g.g.g.g.h.g.g.h.h.g.g.h.h.g.g.h.g.g.g.g.h.g.g.h.h.g.g.h.h.g.g.h.g.g.g.g.h.g.g.h.h.g.g.h.h.g.g.h.g.g.g.g.h.g.g.h.h.g.g.h.h.g.g.h.g.g.g.g.h.g.g.h.h.g.g.h.h.g.g.h.g.g.g.g.h.g.g.h.h.g.g.h.h.g.g.h.h.h.h.h.h.g.( 9 i.- g.h.h.g.g.h.( i.= ",
"@ 1 ] { { ] j.] ] ] { & 9 { j.] ] ] j.] ] ] j.] ] ] ] { { ] j.] ] ] j.] ] ] j.] ] ] ] { { ] j.] ] ] j.] ] ] j.] ] ] ] { { ] j.] ] ] j.] ] ] j.] ] ] ] { { ] j.] ] ] j.] ] ] j.] ] ] ] { { ] j.] ] ] j.] ] ] j.] ] ] ] { { ] j.] ] ] j.] ] ] j.] ] ] j.j.j.j.j.] 1 9 2 1 ] ] j.] ] ] { & = ",
"@ 9.0.k.k.0.0.k.0.0.k.l.9 k.0.k.0.0.0.k.0.0.0.k.0.0.0.k.k.0.0.k.0.0.0.k.0.0.0.k.0.0.0.k.k.0.0.k.0.0.0.k.0.0.0.k.0.0.0.k.k.0.0.k.0.0.0.k.0.0.0.k.0.0.0.k.k.0.0.k.0.0.0.k.0.0.0.k.0.0.0.k.k.0.0.k.0.0.0.k.0.0.0.k.0.0.0.k.k.0.0.k.0.0.0.k.0.0.0.k.0.0.0.0.0.0.0.k.a.9 b.a.0.0.0.k.0.0.k.m.= ",
"@ n.o.4.4.o.o.4.4.o.6.7.9 6.o.4.4.o.o.4.4.o.o.4.4.o.o.4.4.o.o.4.4.o.o.4.4.o.o.4.4.o.o.4.4.o.o.4.4.o.o.4.4.o.o.4.4.o.o.4.4.o.o.4.4.o.o.4.4.o.o.4.4.o.o.4.4.o.o.4.4.o.o.4.4.o.o.4.4.o.o.4.4.o.o.4.4.o.o.4.4.o.o.4.4.o.o.4.4.o.o.4.4.o.o.4.4.o.o.4.4.o.o.4.4.o.o.4.6.9 8.6.4.o.o.4.4.o.6.8.= ",
"@ :.<.<.<.<.<.<.<.<.|.p.q.|.r.<.<.<.<.<.<.<.<.<.<.<.<.<.<.<.<.s.s.<.<.<.<.<.<.<.<.<.<.<.<.<.<.s.s.<.<.<.<.<.<.<.<.<.<.<.<.<.<.s.s.<.<.<.<.<.<.<.<.<.<.<.<.<.<.s.s.<.<.<.<.<.<.<.<.<.<.<.<.<.<.s.s.<.<.<.<.<.<.<.<.<.<.<.<.<.<.s.s.<.<.<.<.<.<.<.<.<.<.<.<.<.<.<.|.9 t.|.<.<.<.r.<.<.u.v.= ",
"@ w.).).).).).).).).!.x.q.{.).).).).).).).).).).).).).).).).).y.).).).).).).).).).).).).).).).y.).).).).).).).).).).).).).).).y.).).).).).).).).).).).).).).).y.).).).).).).).).).).).).).).).y.).).).).).).).).).).).).).).).y.).).).).).).).).).).).).).).).).!.9 w.{.).).).).).^.{.].= ",
"@ ;.z.^ ^ z.z.z.z.A.,.B.q.,.C.^ ^ z.z.^ ^ z.z.^ ^ z.z.^ ^ z.z.^ ^ ^ z.^ ^ z.z.^ ^ z.z.^ ^ z.z.^ ^ ^ z.^ ^ z.z.^ ^ z.z.^ ^ z.z.^ ^ ^ z.^ ^ z.z.^ ^ z.z.^ ^ z.z.^ ^ ^ z.^ ^ z.z.^ ^ z.z.^ ^ z.z.^ ^ ^ z.^ ^ z.z.^ ^ z.z.^ ^ z.z.^ ^ ^ z.^ ^ z.z.^ ^ ^ ^ ^ ^ ^ ^ ^ < = D.~ ^ >.^ ^ E.^ < , = ",
"@ +.F.#.#.F.F.@.@.@.@.G.q.$.F.#.#.@.F.#.#.@.F.#.#.@.F.#.#.@.F.#.#.@.F.#.#.@.F.#.#.@.F.#.#.@.F.#.#.@.F.#.#.@.F.#.#.@.F.#.#.F.F.#.#.@.F.#.#.@.F.#.#.@.F.#.#.@.F.#.#.@.F.#.#.@.F.#.#.@.F.#.#.@.F.#.#.@.F.#.#.@.F.#.#.@.F.#.#.@.F.#.#.@.F.#.#.@.F.#.#.#.H.#.#.#.H.#.$.= %.=.#.#.H.#.#.#.#.I.= ",
"@ U V V V V V X V V X Y = X V X V V V X V V V X V V V X V V V X V V V X V V V X V V V X V V V X V V V X V V V X V V V X V J.J.V V V V X V V V X V V V X V V V X V V V X V V V X V V V X V V V X V V V X V V V X V V V X V V V X V V V X V V V X V V V X V V V X U = K.U V V V X V L.X Y # ",
"@ P R R R R R O O O S M.= O R O O O R O O O R O O O R O O O R O O O R O O O R O O O R O O O R O O O R O O O R O O O R O O R R O O R R O O O R O O O R O O O R O O O R O O O R O O O R O O O R O O O R O O O R O O O R O O O R O O O R O O O R O O O R O O N.O.O P } T P P.O R O O O O Q # ",
"@ G H H H H H J H H J K = J H J H H H J H H H J H H H J H H H J H Q.Q.J H H H J H H H J H H H J H Q.Q.J H H H J H H H J J H H H H H H J H H H J H H H J H H H J H Q.Q.J H H H J H H H J H H H J H Q.Q.J H H H J H H H J H H H J H Q.Q.J H H H J H H H J H H H J G } L G H H H J H H R.K # ",
"@ A y y y y y y y y y / = C y y y y y y y y y y y y y y y y y y y z z y y y y y y y y y y y y y y z z y y y y y y y y y y y y y y y y y y y y y y y y y y y y y y z z y y y y y y y y y y y y y y z z y y y y y y y y y y y y y y z z y y y y y y y y y y y y y A @ E A y C y y C y y / # ",
"@ q r r r r r r r u v x = r S.r r S.S.r r r r r r r r r r r r r r r r r r r r r r r r r r r r r r r r r r r r r r r r r r r r r r r r r r r r s s r r r r r r r r r r r r r r r r r r r r r r r r r r r r r r r r r r r r r r r r r r r r r r r r r r r r r r r q @ T.U.r r r r r r r x # ",
". k l l l l l l l l V.m = W.W.l l W.W.l l l l l l l l l l l l l l l l l l l l l l l l l l l l l l l l l l l l l l l l l l l l l l l l l l l l o l l l l l l l l l l l l l l l l l l l l l l l l l l l l l l l l l l l l l l l l l l l l l l l l l l l l l l l l k @ p k l l l l l V.l m # ",
". g X.X.X.X.X.a a X.X.0 # Y.Y.a a Y.Y.a a X.X.X.X.X.X.a a X.X.a a X.X.a a X.X.a a X.X.a a X.X.a a X.X.a a X.X.a a X.X.a a X.X.a a X.X.a a X.X.a a a X.a a X.X.a a X.X.a a X.X.a a X.X.a a X.X.a a X.X.a a X.X.a a X.X.a a X.X.a a X.X.a a X.X.a a a a a a X.X.a 0 @ g 0 a X.X.a a a a g @ ",
". Z.`.Z.`. + +.+++`.`.@+# `.`.#+++`.`.++$+`.`.Z.Z.`.`.$+$+`.`.$+$+`.`.$+$+`.`.$+$+`.`.$+$+`.`.$+$+`.`.$+$+`.`.$+$+`.`.$+$+`.`.$+$+`.`.++.+ + +++++`.`.$+$+`.`.$+$+`.`.$+$+`.`.$+$+`.`.$+$+`.`.$+$+`.`.$+$+`.`.$+$+`.`.$+$+`.`.$+$+`.`.$+$+`.`.$+$+++++$+$+`.`.$+$+@ Z.$+$+`.%+@+$+++++&+. ",
"  . . . @ = = = = @ . . . . . . . . . . . . . . . . . . . . . . . . . . . . . . . . . . . . . . . . . . . . . . . . . . . . . . . . @ = = = = @ @ . . . . . . . . . . . . . . . . . . . . . . . . . . . . . . . . . . . . . . . . . . . . . . . . . . . . . . . . . . . . . . . . . . . . ",
"        @ *+=+2 -+@                                                                                                                 @ 4 2 2 , 5 @                                                                                                                                         ",
"        @ & ( ' > @                                                                                                                 @ ) 1 1 ;.! #                                                                                                                                         ",
"        @ 1 g.{ ;+#                                                                                                                 @ ) 1 1 ;.! #                                                                                                                                         ",
"        @ 1 >+1 ;+#                                                                                                                 @ 4 2 2 , 5 .                                                                                                                                         ",
"        @ 1 g.1 ,+#                                                                                                                                                                                                                                                                       ",
"        @ 1 g.{ '+#                                                                                                                                                                                                                                                                       ",
"        @ & )+!+> @                                                                                                                                                                                                                                                                       ",
"        @ ~+7 2 * @                                                                                                                                                                                                                                                                       ",
"    @ . . @ @ @ @ . . .                                                                                                                                                                                                                                                                   ",
"  . . . . . . . . . . .                                                                                                                                                                                                                                                                   "};
