/* XPM */
static char * heatx_heatx_g_hs_2[] = {
"133 50 277 2",
"  	c None",
". 	c #000000",
"+ 	c #000100",
"@ 	c #010000",
"# 	c #010100",
"$ 	c #F7F7EB",
"% 	c #4B4A46",
"& 	c #4B4A45",
"* 	c #4A4B45",
"= 	c #4A4B46",
"- 	c #4B4C46",
"; 	c #010200",
"> 	c #FDFEEC",
", 	c #F7F8EA",
"' 	c #595853",
") 	c #595951",
"! 	c #595854",
"~ 	c #59594F",
"{ 	c #3B3B39",
"] 	c #020200",
"^ 	c #F6F6EA",
"/ 	c #65655D",
"( 	c #656559",
"_ 	c #65655B",
": 	c #66665C",
"< 	c #64645A",
"[ 	c #65645F",
"} 	c #3C3B37",
"| 	c #717167",
"1 	c #717264",
"2 	c #727266",
"3 	c #717165",
"4 	c #717169",
"5 	c #585953",
"6 	c #3C3B36",
"7 	c #86867C",
"8 	c #868779",
"9 	c #86867A",
"0 	c #86867E",
"a 	c #87887A",
"b 	c #585850",
"c 	c #3B3C36",
"d 	c #3B3C37",
"e 	c #3C3D38",
"f 	c #3B3C34",
"g 	c #3A3B35",
"h 	c #8E8E82",
"i 	c #8E8F7F",
"j 	c #8F9082",
"k 	c #8E8F81",
"l 	c #8D8E80",
"m 	c #8E8E84",
"n 	c #64655F",
"o 	c #4B4B43",
"p 	c #4B4B41",
"q 	c #4C4C42",
"r 	c #98988C",
"s 	c #989989",
"t 	c #979886",
"u 	c #989987",
"v 	c #98998B",
"w 	c #98988E",
"x 	c #999A8C",
"y 	c #707169",
"z 	c #646458",
"A 	c #A0A094",
"B 	c #A2A091",
"C 	c #A0A18F",
"D 	c #A0A191",
"E 	c #9FA090",
"F 	c #9F9F95",
"G 	c #A0A193",
"H 	c #7B7C74",
"I 	c #7B7B71",
"J 	c #7C7C70",
"K 	c #7D7D71",
"L 	c #7B7C6E",
"M 	c #7C7D6F",
"N 	c #71706B",
"O 	c #4C4C44",
"P 	c #B3B1A5",
"Q 	c #B3B1A2",
"R 	c #B1B2A0",
"S 	c #B1B2A2",
"T 	c #B1B1A7",
"U 	c #B1B2A4",
"V 	c #85867E",
"W 	c #8F9080",
"X 	c #B9B7AB",
"Y 	c #BAB9A7",
"Z 	c #B8B9A7",
"` 	c #BBBAA8",
" .	c #B8B8AC",
"..	c #B8B9A9",
"+.	c #B8BAA5",
"@.	c #000200",
"#.	c #97998E",
"$.	c #858678",
"%.	c #97998B",
"&.	c #858579",
"*.	c #C3C1B4",
"=.	c #C2C1AF",
"-.	c #C0C1AF",
";.	c #C2C1AD",
">.	c #C0C2AD",
",.	c #C1C1B5",
"'.	c #C0C1B1",
").	c #9FA196",
"!.	c #A9AA9A",
"~.	c #A9AA98",
"{.	c #AAAB9B",
"].	c #A0A096",
"^.	c #9FA092",
"/.	c #737165",
"(.	c #67645B",
"_.	c #3C3C3A",
":.	c #C9C7BA",
"<.	c #C9C8B6",
"[.	c #C9C8B4",
"}.	c #C7C7BB",
"|.	c #C9C8B3",
"1.	c #C7C8B6",
"2.	c #A8AA9D",
"3.	c #A1A294",
"4.	c #979888",
"5.	c #BAB8A9",
"6.	c #D7D5C8",
"7.	c #D7D6C2",
"8.	c #D7D6C1",
"9.	c #D6D5C3",
"0.	c #D5D5C9",
"a.	c #D7D6C4",
"b.	c #D5D6C4",
"c.	c #B0B2A5",
"d.	c #C1C0AC",
"e.	c #DDDBCC",
"f.	c #DDDCC7",
"g.	c #DDDCCA",
"h.	c #DBDBCF",
"i.	c #DBDCCA",
"j.	c #B1B39E",
"k.	c #A9AB96",
"l.	c #CED0BB",
"m.	c #D0CFBB",
"n.	c #D0CFBA",
"o.	c #D0CFBD",
"p.	c #C9C7B8",
"q.	c #747266",
"r.	c #E2E0D1",
"s.	c #E2E1CC",
"t.	c #E2E1CD",
"u.	c #E0E1D3",
"v.	c #B7B9AC",
"w.	c #B0B29D",
"x.	c #DBDDC8",
"y.	c #DDDCC8",
"z.	c #B2B3A3",
"A.	c #868777",
"B.	c #888679",
"C.	c #E8E7D5",
"D.	c #E8E8D0",
"E.	c #E8E7D2",
"F.	c #E8E7D3",
"G.	c #E6E7D9",
"H.	c #C0C0B4",
"I.	c #C2C1AC",
"J.	c #D8D7C5",
"K.	c #CAC9B5",
"L.	c #BAB9A5",
"M.	c #888677",
"N.	c #737164",
"O.	c #F4F3E1",
"P.	c #F4F4DC",
"Q.	c #F4F3DE",
"R.	c #F2F3E3",
"S.	c #F4F3DF",
"T.	c #EEEDD8",
"U.	c #EEEED6",
"V.	c #EEEED4",
"W.	c #D6D5C1",
"X.	c #F8F7E5",
"Y.	c #F8F8E0",
"Z.	c #F9F9DF",
"`.	c #FAFAE2",
" +	c #F9F9E1",
".+	c #F9F8E3",
"++	c #F7F8E8",
"@+	c #F9F8E4",
"#+	c #CECEC2",
"$+	c #D0CEBF",
"%+	c #FAF8E1",
"&+	c #F8F8DE",
"*+	c #ECEDDF",
"=+	c #B9BAA8",
"-+	c #A1A292",
";+	c #4B4C44",
">+	c #FFFFED",
",+	c #FFFFE7",
"'+	c #FFFFE5",
")+	c #FFFEE9",
"!+	c #FDFEEE",
"~+	c #FFFFE6",
"{+	c #FFFEEA",
"]+	c #D7D5C6",
"^+	c #FFFEE7",
"/+	c #FEFDE8",
"(+	c #FFFFEA",
"_+	c #EEEDD9",
":+	c #E9E8D3",
"<+	c #C7C9B4",
"[+	c #4A4B43",
"}+	c #F9F8E6",
"|+	c #F6F7E7",
"1+	c #D6D6CA",
"2+	c #FFFFF1",
"3+	c #FFFFF0",
"4+	c #030100",
"5+	c #F5F4E2",
"6+	c #F2F3E5",
"7+	c #EFEFD7",
"8+	c #ECEDDB",
"9+	c #EEECDF",
"0+	c #EEECDD",
"a+	c #EDEDD5",
"b+	c #E9E8D4",
"c+	c #707064",
"d+	c #E2E1CF",
"e+	c #E2E2CA",
"f+	c #E0E0D4",
"g+	c #C2C0B1",
"h+	c #DEDDC8",
"i+	c #DCDBC6",
"j+	c #D8D7C3",
"k+	c #020300",
"l+	c #CFCEBA",
"m+	c #D1D0BB",
"n+	c #D1D0BC",
"o+	c #DBDCCE",
"p+	c #C6C8B3",
"q+	c #D6D5C0",
"r+	c #B0B2A7",
"s+	c #B0B1A1",
"t+	c #CAC7B4",
"u+	c #C8C7B5",
"v+	c #A9AA9C",
"w+	c #B7B8A6",
"x+	c #C7C8B8",
"y+	c #C2C0B3",
"z+	c #A8AA9F",
"A+	c #B8B8AE",
"B+	c #4A4A42",
"C+	c #BAB8AB",
"D+	c #9FA098",
"E+	c #999A8A",
"F+	c #9A9889",
"G+	c #B2B2A8",
"H+	c #64665B",
"I+	c #3A3B36",
"J+	c #B3B2A0",
"K+	c #979890",
"L+	c #908E81",
"M+	c #A3A194",
"N+	c #7B7B6F",
"O+	c #9A988B",
"P+	c #7C7C72",
"Q+	c #8E8E86",
"R+	c #63655A",
"S+	c #4A4C41",
"T+	c #66665E",
"U+	c #595A52",
"V+	c #727268",
"W+	c #5A5A52",
"X+	c #282924",
"Y+	c #3D3C37",
"Z+	c #5B584F",
"`+	c #5A5A50",
" @	c #282826",
"    . +     @                                                                                                                                                                                                                                                             ",
"        +   #                                                                                                                                                                                                                                                             ",
"        +   #                                                                                                                                                                                                                                                             ",
"        +   #                                                                                                                                                                                                                                                             ",
"        +   #                                                                                                                                                                                                                                                             ",
". @ @ +     @ + . . . . + . . .                                                                                                     + $     @                                                                                                                             ",
". % & * * & & * = = + * - * = . .                                                                                                     ; > , #                                                                                                                             ",
". ' ) ) ) ) ) ) ) ! @ ) ~ ) ) + { @                                                                                                   ]   ^ #                                                                                                                             ",
". / ( _ : < _ _ _ [ @ _ ( < _ + = } @                                                                                                 #   $ #                                                                                             .                               ",
"+ | 1 2 3 3 3 3 3 4 # 3 1 3 | + 5 & 6 .                                                                                               @     +                                                                                             .                               ",
"+ 7 8 8 8 8 8 8 9 0 # 9 a 9 7 + 5 ) b c d d d e c d d d c d d d c d d d c d d d c d d d c d d d c d d d c d d d c d d d c d d d c d d       f c c d d d d d d d d { { d c d d d c d d d c d d d c d d d c d d d c d d d c d d d c d d g c + { {                           ",
"+ h i i i j k k l m # k i k h + n / ~ ) o & o o o & o o o & o o o & o o o & o o o & o o o & o o o & o o o & o o o & o o o & o o o & o p p o o o o & o o o & & o o & & o o & o o o & o o o & o o o & o o o & o o o & o o o & o o o & o q o @ % % } } } d                   ",
"+ r s t u s s s v w # x s v r + y | _ _ _ _ _ _ _ _ _ _ _ _ _ _ _ _ _ _ _ _ _ _ _ _ _ _ _ _ _ _ _ _ _ _ _ _ _ _ _ _ _ _ _ _ _ _ _ _ _ ( z _ _ _ _ _ _ _ _ / / _ _ _ _ _ _ _ _ _ _ _ _ _ _ _ _ _ _ _ _ _ _ _ _ _ _ _ _ _ _ _ _ _ _ _ _ ( _ @ [ [ o o o * c                 ",
". A B C C D E D D F # D C D G + H I 3 3 J K J J J J K J J J J J J J J J J J J J J J J J J J J J J J J J J J J J J J J J J J J J J J J J J J J L M J J J J J J J J J J J J J J J J J J J J J J J J J J J J J J J J J J J J J J J J J J J J # N | _ _ _ O o c d             ",
"+ P Q R R S R R S T # S R S U + V 7 J J k h k k k k k k k k k k k h k k k k k k k k k k k k k k k k k k k k k k k k k k k k k k k k k k k k k W i k k k k k k k k k k k k k k k k k k k k k k k k k k k k k k k k k k k k k k k k k k k h # 0 9 3 3 | _ _ o * d           ",
"+ X Y Z Z ` Y Z Z  .# ..+.Y ..@.#.h a $.s v s s s s s s s s s s s %.%.s s s s s s s s s s s s s s s s s s s s s s s s s s s s s s s s s s s s s s s s s s s s s s s s s s s s s s s s s s s s s s s s s s s s s s s s s s s s s s s s s v # w v $.8 &.3 | _ o o }         ",
"+ *.=.-.-.=.;.>.-.,.# -.>.=.'.# ).r s i !.!.!.!.!.!.~.~.~.!.~.~.~.!.!.~.~.!.~.~.~.!.~.~.~.!.~.~.~.!.~.~.~.!.~.~.~.!.~.~.~.!.~.~.~.!.~.~.~.!.~.~.~.!.~.~.~.!.~.~.~.!.~.~.~.!.~.~.~.!.~.~.~.!.~.~.~.!.~.~.~.!.~.~.~.!.!.~.~.!.~.~.~.!.~.~.{.# ].^.s v 8 8 3 /.(.o & _.      ",
"+ :.<.[.[.[.[.[.<.}.# <.|.[.1.# 2.3.D 4.Z Y Y Z Z Y Z Z +.Z Y Z Z Z Z Z +.Y Y Z +.Y Y Z +.Y Y Z +.Y Y Z +.Y Y Z +.Y Y Z +.Y Y Z +.Y Y Z +.Y Y Z +.Y Y Z +.Y Y Z +.Y Y Z +.Y Y Z +.Y Y Z +.Y Y Z +.Y Y Z +.Y Y Z Z 5.5.Z +.Y Y Z +.Y Y Y 5.# T S D G v v 8 9 3 _ o d       ",
"+ 6.7.8.8.7.7.8.9.0.# a.8.7.b.# c.!.~.C -.=.;.>.>.=.;.>.>.=.;.>.>.=.;.>.>.=.;.>.>.=.;.>.>.=.;.>.>.=.;.>.>.=.;.>.>.=.;.>.>.=.;.>.>.=.;.>.>.=.;.>.>.=.;.>.>.=.;.>.>.=.;.>.>.=.;.>.>.=.;.>.>.=.;.>.>.=.;.>.>.=.;.>.>.=.=.>.>.=.;.>.>.=.;.d.=.#  ...R S D D s 8 3 3 _ & d     ",
"+ e.f.f.f.f.f.f.g.h.# g.f.f.i.# c.S j.k.l.m.m.m.n.m.m.m.n.m.m.m.n.m.m.m.n.m.m.m.n.m.m.m.n.m.m.m.n.m.m.m.n.m.m.m.n.m.m.m.n.m.m.m.n.m.m.m.n.m.m.m.n.m.m.m.n.m.m.m.n.m.m.m.n.m.m.m.n.m.m.m.n.m.m.m.n.m.m.m.n.m.m.m.m.m.m.m.n.m.m.m.n.m.m.m.o.# }.p.Y Z S D D s 8 q.: o & d   ",
"+ r.s.s.s.s.s.s.t.u.; t.s.s.t.# v.Z j.w.x.y.f.f.f.y.f.f.f.y.f.f.f.y.f.f.f.y.f.f.f.y.f.f.f.y.f.f.f.y.f.f.f.y.f.f.f.y.f.f.f.y.f.f.f.y.f.f.f.y.f.f.f.y.f.f.f.y.f.f.f.y.f.f.f.y.f.f.f.y.f.f.f.y.f.f.f.y.f.f.f.y.f.f.f.y.f.f.f.f.f.f.f.y.f.f.y.; 0.<.[.Z Z z.D s A.B./._ o d   ",
"; C.D.D.D.E.E.D.F.G.; F.D.E.F.# H.=.;.I.E.E.E.E.D.E.E.E.D.E.E.E.D.E.E.E.D.E.E.E.D.E.E.E.D.E.E.E.D.E.E.E.D.E.E.E.D.E.E.E.D.E.E.E.D.E.E.E.D.E.E.E.D.E.E.E.D.E.E.E.D.E.E.E.D.E.E.E.D.E.E.E.D.E.E.E.D.E.E.E.D.E.E.E.D.E.E.D.D.E.E.E.D.E.E.E.F.; h.J.8.K.L.Z R D s M.N._ o d   ",
"+ O.P.P.P.Q.P.P.Q.R.; Q.P.Q.S.; }.<.[.|.T.T.U.U.U.T.U.U.U.T.U.U.U.T.U.U.U.T.U.U.U.T.U.U.U.T.U.U.U.T.U.U.U.T.U.U.U.T.U.U.U.T.U.U.U.T.U.U.U.T.U.U.U.T.U.U.U.T.U.U.U.T.U.U.U.T.U.U.U.T.U.U.U.T.U.U.U.T.U.U.U.T.U.U.U.T.U.V.V.U.U.U.U.U.U.U.T.; G.y.f.W.[.Z R D s M.N._ o c   ",
"+ X.Y.Z.Z.`. + +.+++; .+Z. +@+; #+$+m.n..+ + + +Z.%+%+ +Z.%+%+ +Z. + + +Z. + + +Z. + + +Z. + + +Z. + + +Z. + + +Z. + + +Z. + + +Z. + + +Z. + + +Z. + + +Z. + + +Z. + + +Z. + + +Z. + + +Z. + + +Z. + + +Z. + + +&+ + +Z.Z. + +Z.Z. + + +.+; *+F.f.8.[.Z =+z.-+s 8 2 / ;+c ",
"+ >+,+'+'+,+,+'+)+!+; )+~+,+{+; 0.]+7.8.)+,+,+'+'+^+^+'+'+^+^+'+,+)+)+)+)+)+)+)+)+)+)+)+)+/+)+)+)+)+)+)+)+)+)+)+(+)+)+)+)+)+)+)+)+)+)+)+)+/+)+)+)+)+)+)+)+)+)+)+(+)+)+)+)+)+)+)+)+)+)+)+)+/+)+)+)+)+)+)+)+{+)+,+'+,+,+'+'+,+,+'+'+,+,+'+)+; *+_+:+f.8.<+Z S D s 8 3 _ [+g ",
"+ }+ + + + + + +.+|+; .+ +`.@+; 1+a.7.8..+`. +Y. +Y. + + + + +Z.`.; ; ; 2+2+2+; ; ; 2+3+2+; ; ; 2+2+2+; ; ; 2+2+2+; ; ; 2+2+2+; ; ; 2+3+2+; ; ; 2+2+2+; ; ; 2+2+2+; ; ; 2+2+2+; ; ; 2+3+2+; ; ; 2+2+2+4+4+4+2+.+ + + + + + + + + + + +Y..+; , _+D.f.8.<+Z S D s a 3 _ [+c ",
"+ 5+P.P.P.P.P.P.S.6+; S.P.P.S.; #+o.m.n.T.U.7+U.U.U.U.U.U.7+U.U.T.8+*+*+*+*+*+*+*+*+*+*+*+*+*+*+*+*+*+*+*+*+*+*+*+*+*+*+*+*+*+*+*+*+*+*+*+*+*+*+*+*+*+*+*+*+*+*+*+*+*+*+*+*+*+*+*+*+*+*+*+*+*+*+*+*+*+9+9+9+0+_+U.U.a+U.U.U.U.U.U.U.U.U._+; *+_+D.f.8.<+Z S D s 8 2 _ [+c ",
"+ C.D.E.E.:+E.E.F.G.; b+E.:+F.; }.<.[.|.E.E.E.E.E.E.E.E.E.D.D.D.E.F.F.F.F.F.F.F.F.F.F.F.F.F.F.F.F.F.F.F.F.F.F.F.F.F.F.F.F.F.F.F.F.F.F.F.F.F.F.F.F.F.F.F.F.F.F.F.F.F.F.F.F.F.F.F.F.F.F.F.F.F.F.F.F.F.F.F.F.F.F.E.:+E.E.E.E.E.E.E.E.E.E.E.F.; *+F.f.7.[.Z Z S D v 8 c+_ [+d ",
"+ d+e+s.s.s.s.s.t.f+; d+s.s.d+# H.g+;.;.f.f.f.f.f.f.f.f.f.f.f.f.f.f.f.f.f.f.f.f.f.f.h+f.f.f.i+f.f.i+f.f.f.f.f.h+f.f.f.f.f.f.f.f.f.f.h+f.f.f.i+f.f.i+f.f.f.f.f.h+f.f.f.f.f.f.f.f.f.f.h+f.f.f.i+f.f.i+f.f.f.f.f.f.f.y.y.f.f.f.f.f.f.f.f.i+y.; G.y.f.j+[.Z R D s $.3 _ o c   ",
"+ e.f.f.f.f.f.f.y.h.k+g.f.f.g.# v...j.w.l.m.m.m.m.m.m.m.m.m.m.m.m.m.m.m.m.n.n.m.m.m.m.m.m.n.n.l+m.m.m.m.m.n.m+m.m.m.m.m.m.n.n.m.m.m.m.m.m.n.n.l+m.m.m.m.m.n.m+m.m.m.m.m.m.n.n.m.m.m.m.m.m.n.n.l+m.m.m.m.m.m.m.n+m.m.m.m.m.m.m.m.m.m.m.m.o.# o+7.8.p+Z =+R D s 8 3 _ o c   ",
"+ ]+8.8.8.q+8.8.a.0.# a.8.8.b.# r+s+R ~.>.;.;.=.=.;.;.;.;.;.;.;.;.;.;.;.;.;.;.;.;.;.;.;.;.;.;.;.;.;.;.;.;.;.;.;.;.;.;.;.;.;.;.;.;.;.;.;.;.;.;.;.;.;.;.;.;.;.;.;.;.;.;.;.;.;.;.;.;.;.;.;.;.;.;.;.;.;.;.;.;.;.;.d.;.;.;.;.;.;.;.;.;.;.;.;.=.# 0.<.[.Z Z R C s A.8 3 : & d   ",
"+ :.[.[.[.t+t+[.<.}.# u+[.[.1.# c.v+~.C Z Z =+Z Z Z w+Z Z Z Z Z Z Z Z Z Z Z Z Z Z Z Z Z Z Z Z Z Z Z Z Z Z Z Z Z Z Z Z Z Z Z Z Z Z Z Z Z Z Z +.+.+.Z Z Z Z Z Z Z Z Z Z Z Z Z Z Z Z Z Z Z Z Z Z Z Z Z Z Z Z Z Z Z Z Z Z Z Z Z Z Z Z Z Z Z ..# }.x+Z Z R D D v 8 3 ( p & d   ",
"+ y+=.;.;.;.;.;.=.H.# =.;.;.'.@.z+G D s ~.!.~.~.~.~.~.~.~.~.~.~.~.~.~.~.~.~.~.~.~.~.~.~.~.~.~.~.~.~.~.~.~.~.~.~.~.~.~.~.~.~.~.~.~.~.~.~.~.~.~.~.~.~.~.~.~.~.~.~.~.~.~.~.~.~.~.~.~.~.~.~.~.~.~.~.~.~.~.~.~.~.~.~.~.~.~.~.~.~.~.~.~.~.~.~.!.# A+..R R C D s 8 3 3 _ B+6     ",
"+ C+Y Z Z Z Z Z ..A+# Z +.Z ..@.D+r v k s v s E+s s s s s s s s s s s s s s s s s s s F+F+s s s s s s s s s s s s s s F+F+s s s s s s s s s s s s s s s s s s s s s s s s s s s s s s F+F+s s s s s s s s s s s s s s F+F+s s s s s s t s # G+U -+D s v 8 9 3 H+[+I+      ",
"+ U J+R R R R R S T # S R R U + K+h 8 $.k k k k k k k k k k k k k k k k k k k k k k k L+L+k k k k k k k k k k k k k k L+L+k k k k k k k k k k k k k k k k k k k k k k k k k k k k k k L+L+k k k k k k k k k k k k k k L+L+k k k k k i i k # ].G s s 8 8 3 3 _ [+* d       ",
"+ G C D D -+D B M+].# G D D G + V 7 J J J J J N+J J J J J J J J J J J J J J J J J J J J J J J J J J J J J J J J J J J J J J J J J J J J J J J J J J J J J J J M M J J J J J J J J J J J J J J J J J J J J J J J J J J J J J J J J J J J N+# w r 8 8 9 3 3 _ o [+c         ",
"+ v u s s s s F+O+w # v s s v + H P+3 3 _ _ _ < _ _ _ _ _ _ _ _ _ _ _ _ _ _ _ _ _ _ _ _ _ _ _ _ _ _ _ _ _ _ _ _ _ _ _ _ _ _ _ _ _ _ _ _ _ _ _ _ _ _ _ _ _ _ _ ( ( _ _ _ _ _ _ _ _ _ _ _ _ _ _ _ _ _ _ _ _ _ _ _ _ _ _ _ _ _ _ _ _ _ _ _ _ # 0 9 3 c+3 ( _ o 6 d           ",
"+ h i k k k k k h Q+# h k i k + y | _ R+[+o o [+[+o o [+[+o o [+[+o o [+[+o o [+[+o o [+[+o o [+[+o o [+[+o o [+[+o o [+[+o o [+[+o o [+[+o o [+[+o o [+[+o o [+[+o o [+[+o o [+[+o o [+[+o o [+[+o o [+[+o o [+[+o o [+[+o o [+[+o o [+[+# 4 | _ _ _ S+[+c d             ",
"+ 9 8 8 8 8 8 8 9 0 # 9 8 8 9 + n T+) U+c } } c c } } c c } } c c } } c c } } c c } } c c } } c c } } c c } } c c } } c c } } c c } 6 c f 6 6 c c } } c c } } c c } } c c } } c c } } c c } } c c } } c c } } c c } } c c } } c c } } c g @ [ / o o & f g                 ",
"+ | 3 3 3 3 c+3 | 4 # | 3 3 V++ 5 W+b d X+                                                                                                                                                                                                + * * c d d d                   ",
". / ( ( ( _ _ _ _ [ # _ ( _ / + 5 & Y+.                                                                                               @     @                                                                                             . d d                           ",
". 5 ~ ~ Z+) `+~ ~ ' @ ) ~ ) ) + = d .                                                                                                 #     #                                                                                             .                               ",
". = * o o & & o & % @ & o & & + { .                                                                                                   #     #                                                                                             .                               ",
".  @X+X+X+X+X+X+X+ @.  @ @X+ @. .                                                                                                     +     @                                                                                                                             ",
". . . .     + . . . . . . . . .                                                                                                     .       @                                                                                                                             ",
"        .   #                                                                                                                                                                                                                                                             ",
"        .   #                                                                                                                                                                                                                                                             ",
"        .   @.                                                                                                                                                                                                                                                            ",
"        .   +                                                                                                                                                                                                                                                             ",
"      . .   .                                                                                                                                                                                                                                                             "};
