/* XPM */
static char *HeatX_HeatX_X_HT_1[] = {
/* columns rows colors chars-per-pixel */
"147 53 106 2",
"   c #010100",
".  c #262723",
"X  c #272823",
"o  c #282723",
"O  c #282824",
"+  c #282828",
"@  c #3B3B36",
"#  c #3B3B38",
"$  c #4A4A43",
"%  c #4A4A48",
"&  c #59584E",
"*  c #575852",
"=  c #585752",
"-  c #595951",
";  c #64645C",
":  c #656560",
">  c #6F6F65",
",  c #6E6F69",
"<  c #6F7163",
"1  c #6F7068",
"2  c #706F6A",
"3  c #707165",
"4  c #717169",
"5  c #7B7C6E",
"6  c #7C7C70",
"7  c #868777",
"8  c #85867A",
"9  c #87887A",
"0  c #8D8E7F",
"q  c #858680",
"w  c #8D8E81",
"e  c #8E9082",
"r  c #908E81",
"t  c #929083",
"y  c #97978B",
"u  c #96988A",
"i  c #989987",
"p  c #989889",
"a  c #979890",
"s  c #9E9E93",
"d  c #9FA08E",
"f  c #9EA092",
"g  c #9FA098",
"h  c #A0A18F",
"j  c #A0A192",
"k  c #A1A298",
"l  c #A7A99D",
"z  c #A9AA96",
"x  c #A9AA98",
"c  c #B1B29E",
"v  c #AEB0A3",
"b  c #B1B2A1",
"n  c #B2B3A9",
"m  c #B7B8A6",
"M  c #B7B8AA",
"N  c #B9B7A8",
"B  c #B9B8A5",
"V  c #B8B9AB",
"C  c #BFBFB3",
"Z  c #BFC0AC",
"A  c #BFC0B2",
"S  c #C1BFB0",
"D  c #C0C1AD",
"F  c #C1C1B2",
"G  c #C6C6BA",
"H  c #C6C8B5",
"J  c #C7C8B9",
"K  c #C8C6B5",
"L  c #C8C6B9",
"P  c #C9C8B3",
"I  c #CCCDBC",
"U  c #CED0BB",
"Y  c #D0CFBB",
"T  c #D1D0BD",
"R  c #CDCEC1",
"E  c #CFD0C2",
"W  c #D0CEC2",
"Q  c #D6D5C1",
"!  c #D5D5C8",
"~  c #D8D6C2",
"^  c #DCDBC6",
"/  c #DCDCCA",
"(  c #DCDCD0",
")  c #E7E7CF",
"_  c #E6E6D3",
"`  c #E5E6D9",
"'  c #E6E8D3",
"]  c #E7E8D8",
"[  c #E8E6D2",
"{  c #E9E7DA",
"}  c #EDEDD5",
"|  c #EDECDA",
" . c #F3F3DC",
".. c #F9F9DF",
"X. c #EDEDE1",
"o. c #F2F3E3",
"O. c #F6F7EB",
"+. c #F7F8E4",
"@. c #F7F8E9",
"#. c #F9F7E8",
"$. c #F9F8E1",
"%. c #F8F8EB",
"&. c #F5F5F2",
"*. c #F7F8F3",
"=. c #FCFDF4",
"-. c #FEFEFE",
/* pixels */
"-.-.-.  -.-.O.  =.-.-.-.-.-.-.-.-.-.-.-.-.-.-.-.-.-.-.-.-.-.-.-.-.-.-.-.-.-.-.-.-.-.-.-.-.-.-.-.-.-.-.-.-.-.-.-.-.-.-.-.-.-.-.-.-.-.-.-.-.-.-.-.-.-.-.-.-.-.-.-.-.-.-.-.-.-.-.-.-.-.-.-.-.-.-.-.-.-.-.-.-.-.-.-.-.-.-.-.-.-.-.-.-.-.-.-.-.-.-.-.-.-.-.-.-.-.-.-.-.-.-.-.-.-.-.-.-.-.-.-.-.-.-.-.-.-.-.",
"-.-.-.-.  =.&.  -.-.-.-.-.-.-.-.-.-.-.-.-.-.-.-.-.-.-.-.-.-.-.-.-.-.-.-.-.-.-.-.-.-.-.-.-.-.-.-.-.-.-.-.-.-.-.-.-.-.-.-.-.-.-.-.-.-.-.-.-.-.-.-.-.-.-.-.-.-.-.-.-.-.-.-.-.-.-.-.-.-.-.-.-.-.-.-.-.-.-.-.-.-.-.-.-.-.-.-.-.-.-.-.-.-.-.-.-.-.-.-.-.-.-.-.-.-.-.-.-.-.-.-.-.-.-.-.-.-.-.-.-.-.-.-.-.-.-.",
"-.-.-.-.  =.O.  -.-.-.-.-.-.-.-.-.-.-.-.-.-.-.-.-.-.-.-.-.-.-.-.-.-.-.-.-.-.-.-.-.-.-.-.-.-.-.-.-.-.-.-.-.-.-.-.-.-.-.-.-.-.-.-.-.-.-.-.-.-.-.-.-.-.-.-.-.-.-.-.-.-.-.-.-.-.-.-.-.-.-.-.-.-.-.-.-.-.-.-.-.-.-.-.-.-.-.-.-.-.-.-.-.-.-.-.-.-.-.-.-.-.-.-.-.-.-.-.-.-.-.-.-.-.-.-.-.-.-.-.-.-.-.-.-.-.-.",
"-.-.-.-.  =.%.  -.-.-.-.-.-.-.-.-.-.-.-.-.-.-.-.=.-.-.-.-.-.-.-.-.-.-.-.-.-.-.-.-.-.-.-.-.-.-.-.-.-.-.-.-.-.-.-.-.-.-.-.-.-.-.-.-.-.-.-.-.-.-.-.-.-.-.-.-.-.-.-.-.-.-.-.-.-.-.-.-.-.-.-.-.-.-.-.-.-.-.-.-.-.-.-.-.-.-.-.-.-.-.-.-.-.-.-.-.-.-.-.-.-.-.-.-.-.-.-.-.-.-.-.-.-.-.-.-.-.-.-.-.-.-.-.-.-.-.",
"-.-.-.-.  =.O.  -.-.-.-.-.-.-.-.-.-.-.-.-.-.-.-.-.-.-.-.-.-.-.-.-.-.-.-.-.-.-.-.-.-.-.-.-.-.-.-.-.-.-.-.-.-.-.-.-.-.-.-.-.-.-.-.-.-.-.-.-.-.-.-.-.-.-.-.-.-.-.-.-.-.-.-.-.-.-.-.-.-.-.-.-.-.-.-.-.-.-.-.-.-.-.-.-.-.-.-.-.-.-.-.-.-.-.-.-.-.-.-.-.-.-.-.-.-.-.-.-.-.-.-.-.-.-.-.-.-.-.-.-.-.-.-.-.-.-.",
"        -.=.-.                    -.-.-.-.-.-.-.-.-.-.-.-.-.-.-.-.-.-.-.-.-.-.-.-.-.-.-.-.-.-.-.-.-.-.-.-.-.-.-.-.-.-.-.-.-.-.-.-.-.-.-.-.-.    -.&.    -.-.-.-.-.-.-.-.-.-.-.-.-.-.-.-.-.-.-.-.-.-.-.-.-.-.-.-.-.-.-.-.-.-.-.-.-.-.-.-.-.-.-.-.-.-.-.-.-.-.-.-.-.-.                                  ",
"  @ @ @ @ @ @ @ # @ #   # @ # @     -.-.-.-.-.-.-.-.-.-.-.-.-.-.-.-.-.-.-.-.-.-.-.-.-.-.-.-.-.-.-.-.-.-.-.-.-.-.-.-.-.-.-.-.-.-.-.-.-.-.-.-.-.-.  &.  -.-.-.-.-.-.-.-.-.-.-.-.-.-.-.-.-.-.-.-.-.-.-.-.-.-.-.-.-.-.-.-.-.-.-.-.-.-.-.-.-.-.-.-.-.-.-.-.-.-.-.-.-.-.    # @ @ #   @ @ # @ @ @ # # @ @   ",
"  $ $ $ $ $ $ $ $ % $   $ $ % $   #   -.-.-.-.-.-.-.-.-.-.-.-.-.-.-.-.-.-.-.-.-.-.-.-.-.-.-.-.-.-.-.-.-.-.-.-.-.-.-.-.-.-.-.-.-.-.-.-.-.-.-.-.-.  &.  -.-.-.-.-.-.-.-.-.-.-.-.-.-.-.-.-.-.-.-.-.-.-.-.-.-.-.-.-.-.-.-.-.-.-.-.-.-.-.-.-.-.-.-.-.-.-.-.-.-.-.-.-.  #   % $ $ %   $ $ $ $ $ $ $ $ $ $   ",
"  ; ; ; ; ; ; ; ; ; ;   : : ; :   # #   -.-.-.-.-.-.-.-.-.-.-.-.-.-.-.-.-.-.-.-.-.-.-.-.-.-.-.-.-.-.-.-.-.-.-.-.-.-.-.-.-.-.-.-.-.-.-.-.-.-.-.-.  &.  -.-.-.-.-.-.-.-.-.-.-.-.-.-.-.-.-.-.-.-.-.-.-.-.-.-.-.-.-.-.-.-.-.-.-.-.-.-.-.-.-.-.-.-.-.-.-.-.-.-.-.-.  @ @   : ; ; :   ; ; ; ; ; ; ; ; : :   ",
"  1 1 > 3 3 < < 3 3 4   2 2 2 4   % @ @   -.-.-.-.-.-.-.-.-.-.-.-.-.-.-.=.-.-.-.=.-.-.-.-.-.-.-.-.-.-.-.-.-.-.-.-.-.=.-.-.-.-.-.-.=.-.-.-.-.-.-.  &.  -.-.-.-.-.-.-.-.-.=.-.-.-.-.-.-.-.-.-.-.-.-.-.-.-.-.-.-.-.-.-.=.-.-.-.-.-.-.-.-.-.-.-.-.-.-.-.-.-.-.-.  @ @ %   1 1 < 1   3 1 1 4 1 3 3 < , ,   ",
"  6 6 6 5 5 5 5 6 6 6   6 6 6 6   = $ $ @ o O O . . X X X o o o O O O O X X O O X X o o o o X + O X X X O O O O O O X X O O O O X X o o o o X O -.=.X X X O o O O O O O X X O O o o X O X X X X O X X X O O O O O O X X O O O O o o X X X X X X X X X X O   @ $ % -   6 6 6 6   6 6 6 6 5 5 6 5 6 6   ",
"  8 8 8 9 9 9 9 9 9 9   q q q q   : & & $ $ $ $ $ $ $ $ $ $ $ $ $ $ $ $ $ $ $ $ $ $ $ $ $ $ $ $ $ $ $ $ $ $ $ $ $ $ $ $ $ $ $ $ $ $ $ $ $ $ $ $ $ $ $ $ $ $ $ $ $ $ $ $ $ $ $ $ $ $ $ $ $ $ $ $ $ $ $ $ $ $ $ $ $ $ $ $ $ $ $ $ $ $ $ $ $ $ $ $ $ $ $ $ $ @ $ * - ;   q 9 9 q   9 9 8 7 8 9 9 9 q 8   ",
"  e e e e e r t r r r   r e r t   4 : ; & & & - & & & & & & & & & & & & & & & - & & & & & & & & & & & & & & & & & & & & & & & & & & & & & & & & & & & & & & & & - & & & & & & & & & & & & & & & & & & & & & & & & & & & & & & & & & & & - & & & & & & & * $ & ; ; 4   e t r t   t r w w t 0 0 t w e   ",
"  a p p i i p i y y u   a a y y   4 1 1 ; 3 3 3 3 3 3 3 3 3 3 3 3 1 3 3 3 3 3 3 3 3 3 3 < < 3 3 3 3 3 3 3 3 3 3 3 3 3 3 3 3 3 3 3 3 3 3 3 1 1 3 3 3 3 1 3 3 3 3 3 3 3 3 3 3 3 3 < 3 3 3 3 < 3 3 3 3 3 3 3 3 3 3 3 3 3 3 3 3 3 3 3 3 3 < 3 3 3 3 1 3 3 1 1 & ; 1 < 1   d u p y   a u u y p p p p y a   ",
"  g g d f h j j h j s   g f f s   6 5 1 3 6 5 5 5 5 5 5 5 5 5 5 6 6 5 5 5 5 5 5 5 5 5 5 5 5 5 5 5 5 5 5 5 6 5 6 5 5 5 5 5 5 5 5 5 5 5 5 5 5 5 5 5 5 6 6 5 5 5 5 6 6 5 6 5 5 5 5 5 5 5 5 5 5 5 5 5 5 5 5 5 6 5 6 5 5 5 5 5 5 5 5 5 5 5 5 6 6 5 5 5 5 5 6 5 ; 3 3 6 6   j s k s   j j s j h h h h g g   ",
"  n v v v v b c c c n   n n v n   8 9 5 6 r r 0 0 0 0 0 0 0 0 0 0 t 0 0 0 0 0 0 0 0 0 0 e 0 0 e 0 0 r 0 0 0 0 0 0 0 0 0 0 0 0 0 e w r r 0 0 e 0 0 0 t r r 0 0 0 0 0 0 0 0 0 0 0 0 0 0 0 0 0 e e 0 0 r 0 0 0 0 0 0 0 0 0 0 0 0 0 0 0 0 0 0 0 0 0 r 0 r 0 0 3 5 5 9 9   v b n n   v n c n b b c c v n   ",
"  M M B B B B B B B C   V V V V   a e 9 9 i i i i i p i p i y i p p p p p p p p p i p i p i p p p p p p p p p p p i p i p i i y i y p p p p p p p p p p p p p p p p p p p p p p i i i i i i p p p p p p p p p p p i p i p i p i p p p p p p i p p p p p p 5 9 9 e p   M B V V   V M V V c B S c V V   ",
"  A F D D D Z Z D V C   C S S S   g u i 0 x x x x x x x x z z x x x x x z z x x z x z x z z z x x x x x z x x x z x x z z x z z z z x x z x x z x x x x x z x x x x x x x x x x x z x x x x x x x x x x z x x x x x z z x z x x z x x x x c x x x x x x l 7 e p p k   A D F F   F F A D D S D D A A   ",
"  G P P P P P P H H G   G G L L   k g f p b c c b c c c c c c c b b c c b c b b c c c c c c c c c c c c b c b c c c c c c c c c c c b c c c c c c c c c b c b c c c c c c c c c c c c c c b c c c c c c b c b c c c c c c c c c c c b b b c b c v b c b c i i f g k   G L L G   G L P P P P P P I G   ",
"  E U T Y Y U U U Y R   R R W W   l l d d D D D Z Z D D S D S P D D V D D D Z Z Z Z Z Z D D D D Z A Z Z Z Z D D Z Z D D D D D D D D Z Z Z Z Z Z D D D D D Z Z Z Z Z A Z Z Z A A D D D D Z Z Z Z Z A Z Z Z D D D Z Z D D D D D D Z D Z D Z D Z D Z Z Z A D d j f x l   E T Y R   R Y Y Y Y Y T T U E   ",
"  ! ~ ~ ~ T ~ ~ ~ ~ !   ! ! ! !   n v x x P P P P P P P P P P P P P P P P P P P U P P P P P P P U H P P P P P P H P P P P P P P P P P P P P P P P P P P P P P P P P P P U P P P P P P P P P P P U P P H P P P H H P P P P P P P P P P P P P P P P P P P H z z x v v   ! ~ ~ !   ! ~ T T ^ T T ^ ! !   ",
"  ( / / ^ ^ / ^ / / (   ( / / /   V M c c ~ ~ ~ ^ T ^ T T ~ T ~ ~ ~ ~ ~ T ~ ~ T ~ T ^ T ^ T ~ ~ T ~ ~ ~ ~ T ~ ~ ~ ~ ~ ~ ~ T ~ ~ T ~ ~ T ~ ~ ~ ~ ~ T ~ ~ ~ T ~ ~ ~ ~ ~ ~ T ~ ~ ~ ~ T ~ ~ ~ T ~ ~ T ~ ~ ~ T ~ ~ ~ ~ ~ T ~ T T ~ ~ ~ T ~ ~ ~ T T ~ ~ ~ ~ ~ T b b b V M   ( / / (   ( ^ ^ ^ ^ / ^ ^ / (   ",
"  ] [ [ } [ [ [ [ ' ]   { ` { {   F F B B ^ ^ ^ ^ ^ ^ ^ ^ ^ ) ^ ^ ^ ^ ^ ^ ^ ^ ^ ^ ^ ^ ^ ^ ^ ^ ^ ^ ^ ^ ^ ^ ^ ^ ^ ^ ^ ^ ^ ^ ^ ^ ^ ) ^ ^ ^ ^ ^ ^ ^ ^ ^ ^ ^ ^ ^ ^ ^ ^ ^ ^ ^ ^ ^ ^ ^ ^ ^ ^ ^ ^ ^ ^ ^ ^ ^ ^ ^ ^ ^ ^ ^ ^ ^ ^ ^ ^ ^ ^ ^ / ^ ^ ^ ^ ^ ^ ^ ^ ^ ^ ^ ^ B B B F A   { [ [ ]   ] ] ' ) ' } ) [ ' ]   ",
"  X.| } } } } } } } X.  | | | |   F A D D [ [ [ ) ) [ [ [ ) ) ) [ [ [ [ [ } } ) ' ' ' ' ) ) [ [ [ [ ' ' [ [ [ [ [ [ ' ' [ [ [ } ) ) [ [ ' ) ' ' [ [ [ [ [ [ [ } [ [ ) ' ' ' ) ' [ [ [ [ ) } [ } [ [ ' ' [ [ [ [ [ [ } ' [ ) } } ' ' } ) [ [ [ [ ) ) ) [ } D D D Z F   | | | X.  | | } } } } } } } X.  ",
"  +. . . . . . . . .o.  o.o.o.o.  G L P P } } } } } } } } } } } } } } } } } }  . .} } } } } } } } } } } } } } } } } } } } } } } } } } } } } } | } } } } } } } } } } } } } } } } } } } } } } } } } } } } } } } } } } } } } } } } } } | | } } } } } }  .| | P P K A I   o. .o.o.  o.o. . . ... . . .o.  ",
"  O.$.$.$.$.....$.#.%.  %.$.%.#.  E T Y Y $.$...$.$.$.$.$.$.$.$.$.$.$.$.....$.$.....$.$.....$.$.$.$.$.$.....$.$.....$.$...$.$.$.........$.$.$.$.$.$.$.$.$.$.$.$.....$.$.....$.$.$...$.$.....$.$.$...$.$.....$.$.....$.$...$.$.$.$.$.$.$.$.$.$.$.....$.$.$.Y Y Y U R   O.$.$.%.  +.+.$.$.$.......+.O.  ",
"  O.$.$.....$.$.$.$.%.  +.+.$.#.  ! ~ ~ T $.$...$.$.$.$.$.$.$.$.$.$.$.$.$.$.$.$.....$.$.$.$.$.$.$.$.$.$.....$.$.$.$.$...$.$.$.$.$.$.$.$.$.$.$.$.$.$.$.$.$.$.$...$.$.$.$.$.$.$.$.$.$.$.$.$.$.$...$.$.$.$.....$.$.$.$.$...$.$.$.$.$.$.$.$.$.$.$.$.$.$.$.$...Q Q ~ ! !   O.$.$.%.  O.+.$.$.$.$.....+.O.  ",
"  o.o. . . . . . . .o.  o.o.o.o.  T Y Y Y  .} } } } } } } } } } } } } } } } } } } } } } } } } } } } } } } } }  .} } } } } } } } } } } } } } } } } }  .} } } } } } } } } } } } }  .} } } } } } } } } } } } } }  .} } } } } } } } } } }  .} } } } } } | } } Y Y Y U R   @.o.o.o.  o. . . . . . ... .o.  ",
"  X.} } } } | } | | |   | X.X.X.  G L P P ) ) } [ [ ) } } [ [ [ } [ [ [ [ [ [ } } ) [ [ } ) [ [ [ [ [ [ [ ' } ) } ) ) [ [ ) } } } [ ' [ [ [ [ [ [ [ } [ [ [ } [ } [ ' [ [ [ [ [ ) [ ) ) } ) } [ [ [ [ [ [ ' } ) } ) ) [ [ [ ) ) [ ) [ [ ) ) [ [ [ [ [ [ [ P P P G G   X.} | |   | | } } } } } } } X.  ",
"  { [ ) ) ) [ [ [ } {   { [ [ {   J D F S ^ ^ ^ ^ ^ ^ ^ ^ ^ ^ ^ ^ ^ ^ ^ ^ ^ ^ ^ ^ ^ ^ ^ ^ ^ ^ ^ ^ ^ ^ ^ ^ ^ ^ ^ ^ ^ ^ ^ ^ ^ ^ ^ ^ / ^ ^ ^ ^ ^ / ^ ^ ^ ^ ^ ^ ^ ^ ^ ^ ^ ^ ^ ^ ^ ^ ^ ^ ^ ) ^ ^ ^ ^ ^ ^ ^ / ^ ^ ^ ^ ^ ^ ^ ^ ^ ^ ^ ) ^ ^ ^ ^ ^ ^ ^ ^ ^ ^ ^ ^ / S S D Z Z   ` [ ] `   ] ' ' ' ) } ' ' ] X.  ",
"  ( / ^ ^ ^ ^ ^ ^ ^ /   / / ( (   S A B S T ~ ~ T ~ T ~ ~ ~ ~ T ~ T ~ ~ T ~ ~ ~ T ~ ~ T T ~ ~ T ~ ~ ~ ~ ~ T ~ ~ T ~ ^ T T T T T ~ ~ ~ ~ ~ ~ ~ ~ ~ T ~ ~ T ~ ~ T ~ ~ ~ ~ ~ T ~ ~ T ^ T T ~ T ~ T ~ T ~ ~ ~ T ~ ~ T ~ T T T ^ T T ^ T T ^ T ^ ^ T T ^ ^ T T B B B F F   ( / / (   / ^ ^ ^ ^ ^ ^ / / (   ",
"  ! ~ ~ T ~ ~ ~ T ! !   ! ! ~ !   C B c c P P P P P P P P P P P P P P P P P P P P P P P P P P P P P P P P P P P P P P P P Y P P P P P P P P D P P P P P P P P P P P P P P P P P P P P P P P P P P P P P P P P P P P Y P P P P P P P P P P P P P P P P P P c c b M V   ! ~ ~ !   ! ! ~ ~ T ~ ~ T ! !   ",
"  W Y Y Y Y Y T Y T E   T R R R   v c z z D D D D D S S F D P S S S S D D D P S D S P S S S S D D D D S D D S P S S S S D D D S S S S P D D D D S S D S S P D D S S S S S P D F S S S S D D D D D D D P S S S S D D D D S D S P S S S S F D F D D Z A Z F z l x v v   T Y U E   T R U U U U T T U R   ",
"  L L L P P P P P P G   G J G J   l c f h c c c m c c c b b c c c c c c c c c c c c b b c c c c c c m c c c b b c c c c c c m c c c c b b b b b c b c b c c c c c c c b c c b b c c c b c c m c c c b m c c c c c c m c c c c b c c c c c c b b b b c b c d f j l l   I P L G   G L J P H H P P J G   ",
"  F F D D D D F D D F   A F F F   k s j y x x x x x z z x x x x x x z z z x x z z x x x x z z z x x x x z x x z z z z z z x x z z z x x z x x x z z z z z z z z z z x x z z x x z z x z z z z x z z x z x z z z z x x z z z x z z z z z x x x x x z x x x p p j g f   F A D F   A A D Z D D D F F A   ",
"  V V B B B B B B B M   V V V V   k y u 0 y y y i i i i i p i i i i i i p p y y i i i i p i i i p p y y i i p p p i i i p i y y i i i p i i i y i i i i i i i i i i i p p i i i i i p p p p y y i i p p p p p i i y y y i p p p y i i i p p i y p p p p p 9 e p u g   V V V V   V M V V B B B B M M   ",
"  n v b c c c b c n n   n b v v   y r 9 9 r 0 0 r r r r r 0 0 0 r r r r r r r 0 0 0 r r r r r r r 0 0 0 w r 0 0 r r r r r r r 0 0 0 0 r r r e w r r r t 0 0 0 0 0 r r r r r 0 0 t r r 0 r 0 0 0 w w r r r r r r r r w w w w r r e 0 0 0 0 0 0 0 0 0 0 0 e 6 8 9 e a   n n b N   n v b c c v b b m n   ",
"  g j j d d j j j j g   g k s k   9 9 5 5 5 5 5 5 5 5 5 6 6 5 5 5 5 5 6 6 5 5 5 6 5 6 6 5 6 5 6 5 6 6 6 5 5 5 5 5 5 6 6 6 6 6 6 5 5 5 5 5 5 5 5 5 5 6 6 5 5 5 5 5 5 5 5 5 5 6 6 5 5 5 5 5 5 6 6 5 5 6 5 5 5 6 5 5 5 5 6 5 5 6 5 5 5 5 5 6 6 5 6 6 5 6 5 6 < 6 5 8 9   g f f g   s j k j h h h d f g   ",
"  a a y p p p p y y a   u a p a   6 5 3 2 3 3 3 4 4 3 3 1 3 3 3 4 3 3 3 1 3 3 3 1 3 3 3 2 3 3 3 3 3 1 3 1 3 3 3 3 3 3 3 3 3 3 3 2 3 3 3 3 3 3 3 3 3 4 3 3 < 3 < 4 3 3 3 3 3 3 3 3 3 4 3 1 3 1 3 1 1 3 3 3 3 1 3 3 3 3 3 1 1 3 3 1 3 1 3 3 3 3 3 1 3 1 1 > ; < 4 6 6   a p p y   u a u y y i p i u u   ",
"  e w e 0 0 0 t 0 0 w   w w e t   4 3 3 ; & & & - - - & & & & & - & - - & & & & & & & & - & - - & & & & & & & & & & & & - & - - - & - & & & & & & & & & & & & & - & - & & & & & & & & - & & & & & & & & & & & & & & - & & & - & & & & & & & & & & & & & & & ; 1 1 2   w w r r   r r 0 t 0 0 0 e e e   ",
"  q 9 9 9 9 7 9 9 9 q   9 q q 8   , ; ; - $ $ $ $ $ $ $ $ $ $ $ $ $ $ $ $ $ $ $ $ $ $ $ $ $ $ $ $ $ $ $ $ $ $ $ $ $ $ $ $ $ $ $ $ $ $ $ $ $ $ $ $ $ $ $ $ $ $ $ $ $ $ $ $ $ $ $ $ $ $ $ $ $ $ $ $ $ $ $ $ $ $ $ $ $ $ $ $ $ $ $ $ $ $ $ $ $ $ $ $ $ $ $ $ $ - ; : 4   q 9 8 q   8 8 7 7 7 7 9 7 q q   ",
"  6 6 5 5 5 5 5 5 6 6   6 6 6 6   : - - $ X o o + O X X o o o o O X X o O X X X O O X o X O O O X X O O O O o o o o O O O O O X O + O O O O O o . . O O O X o o O + o o X X O O X X X O O O o o + O O O o O o X O O o o X X O O X X X X X X X . X X X X X @ $ - = :   6 6 5 6   6 5 5 5 5 5 5 5 6 6   ",
"  2 3 3 3 > 3 1 3 2 4   4 4 2 2   * $ $ @ . -.-.-.-.-.=.-.-.-.-.-.-.-.-.-.-.-.-.-.-.-.-.-.-.-.-.-.-.-.-.-.-.-.-.-.-.-.-.-.-.-.-.-.-.-.=.-.-.=.-.-.-.-.-.-.-.-.-.-.-.-.-.=.-.-.-.-.-.-.-.-.-.-.-.-.-.-.-.-.-.-.-.=.-.-.-.-.-.-.-.-.-.-.-.-.-.-.-.-.-.-.-.-.  # % $ =   2 3 2 2   4 4 3 3 3 1 3 1 4 1   ",
"  ; ; ; ; ; ; ; ; ; ;   : : : :   % # #   -.-.-.-.-.-.-.-.-.-.-.-.-.-.-.-.-.-.-.-.-.-.-.-.-.-.-.-.-.-.-.-.-.-.-.-.-.-.-.-.-.-.-.-.-.-.-.-.-.-.-.  -.  -.-.-.-.-.-.-.-.-.-.-.-.-.-.-.-.-.-.-.-.-.-.-.-.-.-.-.-.-.-.-.-.-.-.-.-.-.-.-.-.-.-.-.-.-.-.-.-.-.-.-.  # # $   : ; ; ;   : ; ; ; ; ; ; ; ; :   ",
"  $ $ $ $ $ $ $ $ $ $   $ $ $ $   # #   -.-.-.-.-.-.-.-.-.-.-.-.-.-.-.-.-.-.-.-.-.-.-.-.-.-.-.-.-.-.-.-.-.-.-.-.-.-.-.-.-.-.-.-.-.-.-.-.-.-.=.-.  &.  -.-.-.-.-.-.-.-.-.-.-.-.-.-.-.-.-.-.-.-.-.-.-.-.-.-.-.-.-.-.-.-.-.-.-.-.-.-.-.-.-.-.-.-.-.-.-.-.-.-.-.-.  @ @   % $ $ %   $ $ $ $ $ $ $ $ % %   ",
"  # @ # @ @ @ @ # # @   # # # #   #   -.-.-.-.-.-.-.-.-.-.-.-.-.-.-.-.-.-.-.-.-.-.-.-.-.-.-.-.-.-.-.-.-.-.-.-.-.-.-.-.-.-.-.-.-.-.-.-.-.-.-.-.-.  &.  -.-.-.-.-.-.-.-.-.-.-.-.-.-.-.-.-.-.-.-.-.-.-.-.-.-.-.-.-.-.-.-.-.-.-.-.-.-.-.-.-.-.-.-.-.-.-.-.-.-.-.-.-.  #   # # @ #   @ @ @ @ @ @ @ @ @ #   ",
"  + X O . X + X + O +   + + O O     -.-.-.-.-.-.-.-.-.-.-.-.-.-.-.-.-.-.-.-.-.-.-.-.-.-.-.-.-.-.-.-.-.-.-.-.-.-.-.-.-.-.-.-.-.-.-.-.-.-.-.-.-.-.  -.  -.-.-.-.-.-.-.-.-.-.-.-.-.-.-.-.-.-.-.-.-.-.-.-.-.-.-.-.-.-.-.-.-.-.-.-.-.-.-.-.-.-.-.-.-.-.-.-.-.-.-.-.-.-.    + X O +   O X + X X X X X + O   ",
"                                  -.-.-.-.-.-.-.-.-.-.-.-.-.-.-.-.-.-.-.-.-.-.-.-.-.-.-.-.-.-.-.-.-.-.-.-.-.-.-.-.-.-.-.-.-.-.-.-.-.-.-.-.-.    -.-.    -.-.-.-.-.-.-.-.-.-.-.-.-.-.-.-.-.-.-.-.-.-.-.-.-.-.-.-.-.-.-.-.-.-.-.-.-.-.-.-.-.-.-.-.-.-.-.-.-.-.-.-.-.-.                  -.-.-.          ",
"-.-.-.-.-.-.-.-.-.-.-.-.-.-.-.-.-.-.-.-.-.-.-.-.-.-.-.-.-.-.-.-.-.-.-.-.-.-.-.-.-.-.-.-.-.-.-.-.-.-.-.-.-.-.-.-.-.-.-.-.-.-.-.-.-.-.-.-.-.-.-.-.-.-.-.-.-.-.-.-.-.-.-.-.-.-.-.-.-.-.-.-.-.-.-.-.-.-.-.-.-.-.-.-.-.-.-.-.-.-.-.-.-.-.-.-.-.-.-.-.-.-.-.-.-.-.-.-.-.-.-.-.-.-.-.-.-.-.-.  -.&.  -.-.-.-.",
"-.-.-.-.-.-.-.-.-.-.-.-.-.-.-.-.-.-.-.-.-.-.-.-.-.-.-.-.-.-.-.-.-.-.-.-.-.-.-.-.-.-.-.-.-.-.-.-.-.-.-.-.-.-.-.-.-.-.-.-.-.-.-.-.-.-.-.-.-.-.-.-.-.-.-.-.-.-.-.-.-.-.-.-.-.-.-.-.-.-.-.-.-.-.-.-.-.-.-.-.-.-.-.-.-.-.-.-.-.-.-.-.-.-.-.-.-.-.-.-.-.-.-.-.-.-.-.-.-.-.-.-.-.-.-.-.-.-.-.  -.&.  -.-.-.-.",
"-.-.-.-.-.-.-.-.-.-.-.-.-.-.-.-.-.-.-.-.-.-.-.-.-.-.-.-.-.-.-.-.-.-.-.-.-.-.-.-.-.-.-.-.-.-.-.-.-.-.-.-.-.-.-.-.-.-.-.-.-.-.-.-.-.-.-.-.-.-.-.-.-.-.-.-.-.-.-.-.-.-.-.-.-.-.-.-.-.-.-.-.-.-.-.-.-.-.-.-.-.-.-.-.-.-.-.-.-.-.-.-.-.-.-.-.-.-.-.-.-.-.-.-.-.-.-.-.-.-.-.-.-.-.-.-.-.-.-.  -.O.  -.-.-.-.",
"-.-.-.-.-.-.-.-.-.-.-.-.-.-.-.-.-.-.-.-.-.-.-.-.-.-.-.-.-.-.-.-.-.-.-.-.-.-.-.-.-.-.-.-.-.-.-.-.-.-.-.-.-.-.-.-.-.-.-.-.-.-.-.-.-.-.-.-.-.-.-.-.-.-.-.-.-.-.-.-.-.-.-.-.-.-.-.-.-.-.-.-.-.-.-.-.-.-.-.-.-.-.-.-.-.-.-.-.-.-.-.-.-.-.-.-.-.-.-.-.-.-.-.-.-.-.-.-.-.-.-.-.-.-.-.-.-.-.-.  -.-.  -.-.-.-.",
"-.-.-.-.-.-.-.-.-.-.-.-.-.-.-.-.-.-.-.-.-.-.-.-.-.-.-.-.-.-.-.-.-.-.-.-.-.-.-.-.-.-.-.-.-.-.-.-.-.-.-.-.-.-.-.-.-.-.-.-.-.-.-.-.-.-.-.-.-.-.-.-.-.-.-.-.-.-.-.-.-.-.-.-.-.-.-.-.-.-.-.-.-.-.-.-.-.-.-.-.-.-.-.-.-.-.-.-.-.-.-.-.-.-.-.-.-.-.-.-.-.-.-.-.-.-.-.-.-.-.-.-.-.-.-.-.-.-.-.  -.-.  -.-.-.-."
};
