/* XPM */
static char *heatx_heatx_x_hs_2[] = {
/* columns rows colors chars-per-pixel */
"142 53 108 2",
"   c #010100",
".  c #262624",
"X  c #272822",
"o  c #282722",
"O  c #282824",
"+  c #282828",
"@  c #3B3B36",
"#  c #3B3B39",
"$  c #4A4A44",
"%  c #4A4A48",
"&  c #57574D",
"*  c #57594E",
"=  c #58584E",
"-  c #575851",
";  c #585753",
":  c #585851",
">  c #64645C",
",  c #656560",
"<  c #6F6F64",
"1  c #6F7166",
"2  c #6F716A",
"3  c #706F6A",
"4  c #707165",
"5  c #717169",
"6  c #7B7C6E",
"7  c #7C7C70",
"8  c #85867A",
"9  c #86887D",
"0  c #8D8E7E",
"q  c #858580",
"w  c #8D8E81",
"e  c #8E8E88",
"r  c #8F9081",
"t  c #8D9089",
"y  c #908E81",
"u  c #96978B",
"i  c #979889",
"p  c #999788",
"a  c #989987",
"s  c #989989",
"d  c #969890",
"f  c #9C9C94",
"g  c #9FA091",
"h  c #9FA098",
"j  c #A19F90",
"k  c #A0A18F",
"l  c #A0A192",
"z  c #A0A098",
"x  c #A7A99E",
"c  c #A8A996",
"v  c #A9AA98",
"b  c #B1B29E",
"n  c #A7A8A0",
"m  c #AEB1A6",
"M  c #B1B1A0",
"N  c #B1B2A9",
"B  c #B7B9A4",
"V  c #B7B8AA",
"C  c #B9B8A6",
"Z  c #B8B9AA",
"A  c #B7B8B0",
"S  c #BABAB2",
"D  c #BFC0AC",
"F  c #BEC0B4",
"G  c #C0BFAB",
"H  c #C0C1AD",
"J  c #C1C1B2",
"K  c #C6C6BC",
"L  c #C6C8B4",
"P  c #C6C8BA",
"I  c #C8C6B3",
"U  c #C9C7B8",
"Y  c #C9C8B3",
"T  c #CDCDBD",
"R  c #D0CEBB",
"E  c #D6D6BE",
"W  c #CDCEC3",
"Q  c #D0CEC0",
"!  c #D6D5C1",
"~  c #D4D5CB",
"^  c #D6D8C3",
"/  c #D8D6C3",
"(  c #DCDCC6",
")  c #DCDCC9",
"_  c #DBDBD1",
"`  c #E7E7CF",
"'  c #E6E6D2",
"]  c #E5E6DA",
"[  c #E6E8D2",
"{  c #E6E8DB",
"}  c #E8E6D2",
"|  c #E9E7D8",
" . c #EBEBD3",
".. c #EDEDD8",
"X. c #F3F3DC",
"o. c #F9F9DF",
"O. c #EBECE0",
"+. c #F3F3E3",
"@. c #F6F6EA",
"#. c #F6F8E4",
"$. c #F6F8EA",
"%. c #F8F7E2",
"&. c #F9F8E1",
"*. c #F5F6F2",
"=. c #F7F8F3",
"-. c #F8F7F2",
";. c #FBFCF6",
":. c #FEFEFE",
/* pixels */
":.:.:.  *.:.@.  :.:.:.:.:.:.:.:.:.:.:.:.:.:.:.:.:.:.:.:.:.:.:.:.:.:.:.:.:.:.:.:.:.:.:.:.:.:.:.:.:.:.:.:.:.:.:.:.:.:.:.:.:.:.:.:.:.:.:.:.:.:.:.:.:.:.:.:.:.:.:.:.:.:.:.:.:.:.:.:.:.:.:.:.:.:.:.:.:.:.:.:.:.:.:.:.:.:.:.:.:.:.:.:.:.:.:.:.:.:.:.:.:.:.:.:.:.:.:.:.:.:.:.:.:.:.:.:.:.:.:.:.:.:.",
":.:.:.:.  :.-.  :.:.:.:.:.:.:.:.:.:.:.:.:.:.:.:.:.:.:.:.:.:.:.:.:.:.:.:.:.:.:.:.:.:.:.:.:.:.:.:.:.:.:.:.:.:.:.:.:.:.:.:.:.:.:.:.:.:.:.:.:.:.:.:.:.:.:.:.:.;.:.:.:.:.:.:.:.:.:.:.:.:.:.:.:.:.:.:.:.:.:.:.:.:.:.:.:.:.:.:.:.:.:.:.:.:.:.:.:.:.:.:.:.:.:.:.:.:.:.:.:.:.:.:.:.:.:.:.:.:.:.:.:.:.",
":.:.:.:.  ;.-.  :.:.:.:.:.:.:.:.:.:.:.:.:.:.:.:.:.:.:.:.:.:.:.:.:.:.:.:.:.:.:.:.:.:.:.:.:.:.:.:.:.:.:.:.:.:.:.:.:.:.:.:.:.:.:.:.:.:.:.:.:.:.:.:.:.:.:.:.:.:.:.:.:.:.:.:.:.:.:.:.:.:.:.:.:.:.:.:.:.:.:.:.:.:.:.:.:.:.:.:.:.:.:.:.:.:.:.:.:.:.:.:.:.:.:.:.:.:.:.:.:.:.:.:.:.:.:.:.:.:.:.:.:.:.",
":.:.:.:.  ;.*.  :.:.:.:.:.:.:.:.:.;.:.:.:.:.:.:.:.:.:.:.:.:.:.:.:.:.:.:.:.:.:.:.:.:.:.:.:.:.:.:.:.:.:.:.:.:.:.:.:.:.:.:.:.:.:.:.:.:.:.:.:.:.:.:.:.:.:.:.:.:.:.:.:.:.:.:.:.:.:.:.:.:.:.:.:.:.:.:.:.:.:.:.:.:.:.:.:.:.:.:.:.:.:.:.:.:.:.:.:.:.:.:.:.:.:.:.:.:.:.:.:.:.:.:.:.:.:.:.:.:.:.:.:.:.",
":.:.:.:.  ;.=.  :.:.:.:.:.:.:.:.:.:.:.:.:.:.:.:.:.:.:.:.:.:.:.:.:.:.:.:.:.:.:.:.:.:.:.:.:.:.:.:.:.:.:.:.:.:.:.:.:.:.:.:.:.:.:.:.:.:.:.:.:.:.:.:.:.:.:.:.:.:.:.:.:.:.:.:.:.:.:.:.:.:.:.:.:.:.:.:.:.:.:.:.:.:.:.:.:.:.:.:.:.:.:.:.:.:.:.:.:.:.:.:.:.:.:.:.:.:.:.:.:.:.:.:.:.:.:.:.:.:.:.:.:.:.",
"        :.;.:.                    :.:.:.:.:.:.:.:.:.:.:.:.:.:.:.:.:.:.:.:.:.:.:.:.:.:.:.:.:.:.:.:.:.:.:.:.:.:.:.:.:.:.:.:.:.:.:.:.:.:.:.:.:.:.  @.*.    :.:.:.:.:.:.:.:.:.:.:.:.:.:.:.:.:.:.:.:.:.:.:.:.:.:.:.:.:.:.:.:.:.:.:.:.:.:.:.:.:.:.:.:.:.:.:.:.:.:.:.:.:.:.:.:.:.:.:.:.:.:.:.:.:.:.",
"  # # @ @ @ @ @ @ # #   @ @ @ #     :.:.:.:.:.:.:.:.:.:.:.:.:.:.:.:.:.:.:.:.:.:.:.:.:.:.:.:.:.:.:.:.:.:.:.:.:.:.:.:.:.:.:.:.:.:.:.:.:.:.:.:.:.;.  *.  :.:.:.:.:.:.:.:.:.:.:.:.:.:.:.:.:.:.:.:.:.:.:.:.:.:.:.:.:.:.:.:.:.:.:.:.:.:.:.:.:.:.:.:.:.:.:.:.:.:.:.:.:.:.:.:.:.:.:.:.:.:.:.:.:.:.:.",
"  % $ $ $ $ $ $ % $ $   $ $ $ $   #   :.:.:.:.:.:.:.:.:.:.:.:.:.:.:.:.:.:.:.:.:.:.:.:.:.:.:.:.:.:.:.:.:.:.:.:.:.:.:.:.:.:.:.:.:.:.:.:.:.:.:.:.:.  *.  :.:.:.:.:.:.:.:.:.:.:.:.:.:.:.:.:.:.:.:.:.:.:.:.:.:.:.:.:.:.:.:.:.:.:.:.:.:.:.:.:.:.:.:.:.:.:.:.:.:.:.:.:.:.:.:.:.:.:.:.:.:.:.:.:.:.:.",
"  , , > > > > > > > >   > > > >   # #   :.:.:.:.:.:.:.:.:.:.:.:.:.:.:.:.:.:.:.:.:.:.:.:.:.:.:.:.:.:.:.:.:.:.:.:.:.:.:.:.:.:.:.:.:.:.:.:.:.:.:.:.  *.  :.:.:.:.:.:.:.:.:.:.:.:.:.:.:.:.:.:.:.:.:.:.:.:.:.:.:.:.:.:.:.:.:.:.:.:.:.:.:.:.:.:.:.:.:.:.:.:.:.:.:.:.:.:.:.:.:.:.:.:.:.:.:.:.:.:.:.",
"  2 3 < 5 4 5 5 5 5 2   4 4 3 3   % # #   :.:.:.:.:.:.:.:.:.:.:.:.:.:.:.:.:.:.:.:.:.:.:.:.:.:.:.:.:.:.:.:.:.:.:.:.:.:.:.:.:.:.:.:.:.:.:.:.:.:.:.  *.  :.:.:.:.:.:.:.:.:.:.:.:.:.:.:.:.:.:.:.:.:.:.:.:.:.:.:.:.:.:.:.:.:.:.:.:.:.:.:.:.:.:.:.:.:.:.:.:.:.:.  :.:.:.:.:.:.:.:.:.:.:.:.:.:.:.:.",
"  7 7 7 7 6 7 7 7 7 7   7 7 7 7   ; $ % @ X O X X X X o o o o o O O O o o o o o o o o o o o O O o o o o O O O O o o o o O O O O X X X O o o o o :.:.X o X X X X o O O o X X o O X X o o X o o o o o o o O O O O o o o o O O O O X o X X o o O o X X X o O   . o :.;.:.:.:.:.:.:.:.:.:.:.:.:.",
"  8 9 9 8 8 8 8 9 9 q   8 9 9 9   , - * $ $ $ $ $ $ $ $ $ $ $ $ $ $ $ $ $ $ $ $ $ $ $ $ $ $ $ $ $ $ $ $ $ $ $ $ $ $ $ $ $ $ $ $ $ $ $ $ $ $ $ $ $ $ $ $ $ $ $ $ $ $ $ $ $ $ $ $ $ $ $ $ $ $ $ $ $ $ $ $ $ $ $ $ $ $ $ $ $ $ $ $ $ $ $ $ $ $ $ $ $ $ $ $ %   $ $ X X X o :.:.:.:.;.:.:.:.:.:.",
"  e t r r w w w w w t   w w w e   2 , > = = = = = = = = = = = = = = : = = = : = = = = = = = : = = = : = = = : = = = = = = = : = = = = = = = = = = = : = = = = = = = : = = = : = = = = = = = = = = = : = = = : = = = = = = = : = = = = = = = : = : : ; ; ;   ; ; $ $ $ $ o O :.:.:.:.:.:.:.:.",
"  d u s s s s s s u f   s i s s   5 1 1 > 4 4 4 4 4 4 4 4 4 4 4 4 4 4 4 4 4 4 4 4 < 4 < 4 4 4 4 4 4 4 4 4 4 4 4 4 4 4 4 4 4 4 4 4 4 4 4 4 4 4 4 4 4 4 4 1 4 4 4 4 4 4 4 4 4 4 4 4 4 4 4 4 4 4 4 4 4 4 4 4 4 4 4 4 4 4 4 4 4 4 4 4 4 4 4 4 4 4 4 4 4 5 5 2   5 3 = = & = $ o X :.:.:.:.:.:.:.",
"  f f l l l l l g f f   f l l g   7 7 1 4 6 7 7 6 6 6 6 6 6 6 6 6 6 6 6 6 6 6 6 6 6 6 6 6 6 7 7 6 6 6 6 7 6 6 7 6 6 6 6 6 6 6 6 6 6 6 6 6 6 7 7 7 7 6 6 6 6 6 6 6 6 7 7 6 6 6 7 6 6 6 6 6 6 7 7 6 6 6 6 6 6 7 6 6 6 6 6 6 6 6 6 6 6 6 6 7 6 6 6 7 6 7 7 7   7 7 4 < 4 = & $ $ o o :.:.:.:.:.",
"  N N M b M M b b N N   N b M M   9 9 7 6 y t r r r 0 0 0 0 0 0 r r r r r r 0 0 0 0 0 0 w w w w r r y w w w w w 0 0 0 0 0 0 r r 0 0 0 0 w w w w w w w w 0 0 0 0 w w w w w w w w w y y 0 w w w w 0 r r r y w w w 0 0 0 0 0 0 r r 0 0 w w w y y r r r y y e   t r 6 6 6 4 4 = & $ X o :.:.:.:.",
"  S C C C C C C C C Z   Z Z C Z   d r 9 8 a s s s s s s a a s s s s s s s s s s s a s s s i s s s s s s s s s s i s s s s s s s s s s s s s s s s s s s s s s s s s s s s s s s s s s s s s s s s s s s s s s s s a s s s s s s s s s s p s s s s s s s d   s s y 0 y 6 6 4 = : $ O :.:.:.:.",
"  G H J G J H G H Z K   H G H H   h u s w v v v c v x v c v v c v v v v v c v v v c v v v v v v v v v v v v v v v v v v c v v v v c v v v v v v v v v c c v v x v v v c v v v c v c c v v c v v v v v v c v v v v v v v v v v x c v v v v v v v v v v x n   x x p p y y 6 6 4 = = $ O :.:.:.",
"  W U Y Y Y Y Y Y U K   K I I U   z l g s b b b b b b M M M M M M M M M M b M B M M M b b b b b b b M M b b M M b b b b b b M M b b M M b b M M b b b b b b b b b b b M b b M M b b M M b b b M M b M M b b b b b b b b b b b b M M M M b b b b C b b N N   M B v c p k y r 6 4 = $ o O :.:.",
"  W R T R R R R R R W   R R T T   x x l l S H D H H H D D D D D D H D G D D D D D D D D H H H H H D D H D D G H D H H H H H J G D D D D D H D H H H H H H H H D H H S D H H D D H H H G H H H D D D D D D H H H D H H H H H H H D D D D G G H G H H H F K   G G b b c c s 0 6 7 4 : $ o :.:.",
"  ~ ~ ! E / / E ^ / ~   / / / ~   M N v v Y I Y Y Y Y Y Y Y Y Y Y Y Y Y Y Y Y Y Y Y Y Y Y Y Y Y Y Y Y Y Y Y Y Y Y Y Y Y Y Y Y Y Y Y Y Y Y Y Y Y Y Y Y Y I I I I Y Y Y Y Y Y Y Y Y Y Y Y Y Y I I Y Y Y Y Y Y Y Y Y Y Y Y Y Y Y U Y Y Y Y Y Y Y Y Y Y U K W   U I H H b c v s r 6 4 = : $ O :.",
"  _ ) ) ( ( ( ( ( ) _   ) ) ( )   S Z b b ! ! ! E E E ^ ^ ^ E ^ E E E E E E / E E E E E ^ E E ^ ^ ^ ^ E E E ^ E E E E ^ E E E / E E E ^ ^ ^ ^ ^ E E E E E / E E / E E E ^ ^ ^ ^ E E E E E E E E ^ ^ E E ^ E E ^ ! E ! ! E E E E ^ ^ ^ ^ ^ E / E ! ! / / ~   ~ I Y H H b v a w r 7 4 : $ O :.",
"  { ' } } ` } } ' ' {   ' ' [ |   F F C B ( ( ( ) ( ( ( ( ( ( ( ( ( ( ( ) ( ) ( ( ( ( ( ) ( ( ( ( ( ( ( ( ( ( ( ( ( ( ) ( ( ( ( ( ( ( ( ( ( ( ( ( ( ( ( ) ( ( ( ) ( ( ( ( ( ( ( ( ( ( ( ) ( ( ( ( ( ( ( ( ( ( ( ( ( ( ( ( ( ( ( ( ( ( ( ( ( ( ( ( ( ) ) _   ) E E Y H H b c s r 7 3 : $ . :.",
"  O...............X.O.  ........  F L H H [ } [ `  .} } ` } } } } ` }  .` } } }  .`  .` } ` } } ` ` }  .} ` } } ` ` } } ` `  . .`  . .` ` ` } }  .` } } } } } ..` } } }  .` } } `  .} } } } } ..` ` }  .` } } ` ` } } } } ` } ..` ` } }  .` ` } } ` ' ' ]   ' ) ( / Y D b c s r 7 4 : $ O :.",
"  $.+.X.X.X.X.X.X.+.+.  X.X.X.+.  K U U Y ..............................................................................................................................................................................................................O.  .. .) E Y G H M v s w 7 5 : $ X ",
"  $.&.o.%.o.&.o.&.&.-.  @.&.&.&.  W Q Q R &.%.&.o.o.&.&.o.&.&.&.o.o.o.o.o.o.&.&.o.&.&.&.o.o.&.&.o.o.&.o.o.o.&.&.o.o.o.&.o.o.&.&.o.%.o.o.o.o.o.&.o.o.&.o.o.o.o.o.o.o.&.o.o.o.&.&.o.o.&.&.o.o.o.o.o.o.&.o.o.&.&.o.o.o.o.&.o.o.&.o.o.o.&.&.o.o.o.&.&.o.&.#.$.  ....} ) E U H M v s w 6 5 : $ X ",
"  $.$.&.o.o.o.&.&.@.-.  &.%.%.&.  ~ / / E &.%.%.o.o.o.o.o.o.o.&.o.o.o.o.o.&.o.&.o.&.o.&.o.o.o.o.o.o.o.o.&.o.&.&.o.o.&.%.o.&.&.o.o.o.o.o.o.o.%.%.o.&.&.&.o.o.o.o.o.o.o.o.o.o.o.%.o.o.o.&.o.o.o.o.o.o.o.o.o.&.&.&.o.o.&.o.o.o.o.&.o.&.&.&.o.o.%.%.o.o.&.#.@.  $.X.} ( / Y H b v s w 7 4 : $ X ",
"  +.+.X.X.X.X.X.X.+.+.  +.%.X.X.  Q Q R R .................................................. ...........................................................................................................................................................O.  ....} ) / Y H b v s w 7 4 = $ o ",
"  O.................O.  ........  W K I Y [ } } ` } }  . .` } } ` } } ` `  .} '  .`  .}  .` } } ` ` } }  .` `  .} ` } } } `  .} `  .} } } `  .}  .} } } } ` } } } `  .} ` ` } }  . . .} ` ` } }  .` }  . .` ` } ` } } } ` ` `  .`  .` ` } } } } } ` [ ] ]   ..} ( E Y G D b v s w 6 5 : $ X ",
"  | | | ` `  .` } } ]   | ' ' |   J G G H ) ) ( ( ( ( ) ( ( ( ( ( ( ( ( ( ( ) ) ( ( ( ( ) ) ( ( ( ( ( ) ( ( ( ( ( ) ( ( ( ( ( ( ( ( ( ) ( ( ( ( ( ( ( ) ( ( ) ) ( ( ( ( ( ( ) ) ( E ( ( ( ( ) ) ( ( ( ( ( ( ( ( ) ) ( ( ( ( ( ( ( ( ( ( ( ) ( ( ( ( ( ) _   } ( ( E Y G b v s 0 6 4 : % X :.",
"  _ ) ) ( ( ( ( ) ) _   ) ) ) )   G G A C ^ / E E E E / E E E E / / / E E E / E / E E E E E / / E E E / E E E ^ E E / E / E / / E E E E E ^ / E E E E / E E E / ^ E / ^ E E / E E / / E E E E / E E / E E ^ ^ E / E / E E E ^ ^ E ^ ^ E ! ! ! ! ! ! ! ^ ~   ) E E I H I M v s 0 6 4 : % X :.",
"  ~ E ^ ^ E ^ E / / ~   ~ / / ~   A Z N b I Y Y Y Y Y U Y Y Y Y Y Y Y Y Y Y Y Y I Y Y I Y Y Y Y Y Y Y Y Y Y Y Y Y Y Y Y Y Y Y Y Y Y Y Y Y Y Y Y Y Y Y Y Y Y Y Y Y Y Y Y Y Y Y Y Y Y Y Y Y Y Y Y Y I Y Y Y Y Y Y Y Y Y Y Y Y Y Y Y Y Y Y Y Y Y Y Y I Y L W   ^ Y I H H b v s r r 6 4 : $ X :.",
"  W T R R R R R R R Q   Q R R W   V M v v H I H H G J G D D H H J I G G G G I G J G G J G H I G G J G I G G G J G H I G G G J H H H H H H D H D H H G H H G J G J I H H J G G J H G J G H G J G G J G H H I H I G G J I G G H H H H H H D D D I D H H F P   U Y H D b v v s r 7 4 = : % o :.",
"  K P L Y Y Y Y Y I K   U I Y L   n n g l M M M M b M M b b M M b b M M b M M M M M M C M M M M M M b b M M M C M M M M M b b b b b b b M b M M M M b b M b M M b b b M M M M M M M M C b b M M M M M M b b M M b M M M M M M M b b b M M b M M M b M m m   F H b M v v s t 7 6 4 = $ O :.:.",
"  F H H H H I H H F F   F H H H   h f g s v v v v v v v c c v v v v v v c v v v v v v v v v v v v c v v v v v v v x v v v c c v v v c v v v v v v v v v v v v v v v v v v v v v v v v v v v c v v v v v v v v v v v v v v v v v v v v v v v v c v v v v m   M M v v s s r 0 7 4 * $ O O :.:.",
"  S Z C C C C C C C S   Z Z C Z   h i u r s s s a s s s a a s s s p p p s s s s p p p s p p p p s s s s p p s s p p p p s s s s s a s s s s s s s s s s s s s s p p s p p p s s p p s s p p s s p p p s p p p p s s s s p p p p s s s s s s s s s s s u u   v v s s r w 6 6 3 = * $ O :.:.:.",
"  N N M M M M M M M N   N b b N   d e 8 8 w w 0 r r y w w w w w r r r r r 0 r r y w w w r r y r w w w w w w w y r y r y w w w y r r r 0 w w w w r w w w w w w w r y y y y r y w y r r r r w w w w w w w y w w w w w w w w y r r y r r r r r w w r r r r t   f i 0 w 0 7 6 4 * = $ X :.:.:.:.",
"  h g f k k g l l l z   l l l j   q 9 7 6 7 7 6 6 6 7 7 7 7 7 7 7 7 7 6 7 6 7 6 7 6 6 7 6 7 6 6 7 7 7 6 7 6 6 6 7 7 7 7 6 7 6 7 6 6 7 6 6 6 6 7 6 6 7 6 7 6 6 7 6 7 7 6 6 6 6 6 7 6 7 6 7 7 6 7 7 6 7 7 7 7 7 7 6 6 6 7 7 6 6 7 6 6 6 7 6 6 7 6 7 7 7 7 7   w w 6 6 7 4 4 = $ $ O X :.:.:.:.",
"  d s s s s s s s s d   s u s u   7 7 4 4 5 4 4 4 4 4 4 4 4 4 4 4 3 4 4 4 4 4 4 4 4 4 5 4 4 4 5 4 4 4 4 4 4 4 4 4 4 4 4 4 5 4 4 4 4 4 4 4 4 4 4 4 4 4 4 4 4 4 4 4 4 4 4 4 4 4 4 4 4 4 4 4 4 4 4 4 4 4 4 4 4 4 4 4 4 4 4 4 4 4 4 4 4 3 4 4 4 5 4 5 5 4 5 2   7 7 < 4 5 : : $ $ X O :.:.:.:.:.",
"  t w w w w w w y y e   w w w w   5 5 < > = = = = = : : : = : : : : : = = = : = = = : : : = : = : : : = = = : = = = : : : = : = = = : = = = : = = = : = = = : : : : : = = = : = = : : : : = = = : : : = = = : = : = : : : : : = : : : : : = : = = : : : ;   5 5 = : : $ $ O X :.:.:.:.:.:.:.",
"  9 8 8 8 8 8 8 9 9 q   9 8 8 q   2 > > : $ $ $ $ $ $ $ $ $ $ $ $ $ $ $ $ $ $ $ $ $ $ $ $ $ $ $ $ $ $ $ $ $ $ $ $ $ $ $ $ $ $ $ $ $ $ $ $ $ $ $ $ $ $ $ $ $ $ $ $ $ $ $ $ $ $ $ $ $ $ $ $ $ $ $ $ $ $ $ $ $ $ $ $ $ $ $ $ $ $ $ $ $ $ $ $ $ $ $ $ $ $ $ $   - - $ $ $ $ X X :.:.:.:.:.:.:.:.",
"  6 8 6 6 6 6 6 7 7 7   7 7 7 7   , ; ; $ o o o o o o o o o o X O o o o o O o o o o o o o o O O o o o o O O o o o o o o o O o o O O o o O o o o o o o o O O o o O O o o O O O o o o o o O O o o O O O O o o o o O O O O o o o o O o o o o o o o o o o o O   $ $ X X X o :.:.:.:.:.:.:.:.:.:.",
"  3 4 4 < < < < 4 3 3   3 4 3 3   ; % $ @ o :.:.:.:.:.:.:.:.:.:.:.:.:.:.:.:.:.:.:.:.:.:.:.:.:.:.:.:.:.:.:.:.:.:.:.:.:.:.:.:.:.:.:.:.:.:.:.:.:.:.:.:.:.:.:.:.:.:.:.:.:.:.:.:.:.:.:.:.:.:.:.:.:.:.:.:.:.:.:.:.:.:.:.:.:.:.:.:.:.:.:.:.:.:.:.:.:.:.:.:.:.:.:.  . O :.:.:.:.:.:.:.:.:.:.:.:.:.:.",
"  , > > > > > > > > >   > > > >   % # #   :.:.:.:.:.:.:.:.:.:.:.:.:.:.:.:.:.:.:.:.:.:.:.:.:.:.:.:.:.:.:.:.:.:.:.:.:.:.:.:.:.:.:.:.:.:.:.:.:.:.:.  *.  :.:.:.:.:.:.:.:.:.:.:.:.:.:.:.:.:.:.:.:.:.:.:.:.:.:.:.:.:.:.:.:.:.:.:.:.:.:.:.:.:.:.:.:.:.:.:.:.:.:.  :.:.:.:.:.:.:.:.:.:.:.:.:.:.:.:.",
"  $ $ $ $ $ $ $ $ $ $   $ $ $ $   # #   :.:.:.:.:.:.:.:.:.:.:.:.:.:.:.:.:.:.:.:.:.:.:.:.:.:.:.:.:.:.:.:.:.:.:.:.:.:.:.:.:.:.:.:.:.:.:.:.:.;.:.:.  *.  :.:.:.:.:.:.:.:.:.:.:.:.:.:.:.:.:.:.:.:.:.:.:.:.:.:.:.:.:.:.:.:.:.:.:.:.:.:.:.:.:.:.:.:.:.:.:.:.:.:.  :.:.:.:.:.:.:.:.:.:.:.:.:.:.:.:.",
"  # # @ @ @ @ @ @ @ #   @ @ @ @   #   :.;.:.:.:.:.:.:.:.:.:.:.:.:.:.:.:.:.:.:.:.:.:.:.:.:.:.:.:.:.:.:.:.:.:.:.:.:.:.:.:.:.:.:.:.:.:.:.:.:.:.:.:.  *.  :.:.:.:.:.:.:.:.:.:.:.:.:.:.:.:.:.:.:.:.:.:.:.:.:.:.:.:.:.:.:.:.:.:.:.:.:.:.:.:.:.:.:.:.:.:.:.:.:.:.:.:.:.:.:.:.:.:.:.:.:.:.:.:.:.:.:.",
"  + O O X X O X o o O   O O O O     :.:.:.:.:.:.:.:.:.:.:.:.:.:.:.:.:.:.:.:.:.:.:.:.:.:.:.:.:.:.:.:.:.:.:.:.:.:.:.:.:.:.:.:.:.:.:.:.:.:.:.:.:.:.  *.  :.:.:.:.:.:.:.:.:.:.:.:.:.:.:.:.:.:.:.:.:.:.:.:.:.:.:.:.:.:.:.:.:.:.:.:.:.:.:.:.:.:.:.:.:.:.:.;.:.:.:.:.:.:.:.:.:.:.:.:.:.:.:.:.:.:.:.",
"        :.:.:.                    :.:.:.:.:.:.:.:.:.:.:.:.:.:.:.:.:.:.:.:.:.:.:.:.:.:.:.:.:.:.:.:.:.:.:.:.:.:.:.:.:.:.:.:.:.:.:.:.:.:.:.:.:.:.  :.:.    :.:.:.:.:.:.:.:.:.:.:.:.:.:.:.:.:.:.:.:.:.:.:.:.:.:.:.:.:.:.:.:.:.:.:.:.:.:.:.:.:.:.:.:.:.:.:.:.:.:.:.:.:.:.:.:.:.:.:.:.:.:.:.:.:.:.",
":.:.:.:.  :.@.  :.:.:.:.:.:.:.:.:.:.:.:.:.:.:.:.:.:.:.:.:.:.:.:.:.:.:.:.:.:.:.:.:.:.:.:.:.:.:.:.:.:.:.:.:.:.:.:.:.:.:.:.:.:.:.:.:.:.:.:.:.:.:.:.:.:.:.:.:.:.:.:.:.:.:.:.:.:.:.:.:.:.:.:.:.:.:.:.:.:.:.:.:.:.:.:.:.:.:.:.:.:.:.:.:.:.:.:.:.:.:.:.:.:.:.:.:.:.:.:.:.:.:.:.:.:.:.:.:.:.:.:.:.:.",
":.:.:.:.  :.*.  :.:.:.:.:.:.:.:.:.:.:.:.:.:.:.:.:.:.:.:.:.:.:.:.:.:.:.:.:.:.:.:.:.:.:.:.:.:.:.:.:.:.:.:.:.:.:.:.:.:.:.:.:.:.:.:.:.:.:.:.:.:.:.:.:.:.:.:.:.:.:.:.:.:.:.:.:.:.:.:.:.:.:.:.:.:.:.:.:.:.:.:.:.:.:.:.:.:.:.:.:.:.:.:.:.:.:.:.:.:.:.:.:.:.:.:.:.:.:.:.:.:.:.:.:.:.:.:.:.:.:.:.:.:.",
":.:.:.:.  :.*.  :.:.:.:.:.:.:.:.:.:.:.:.:.:.:.:.:.:.:.:.:.:.:.:.:.:.:.:.:.:.:.:.:.:.:.:.:.:.:.:.:.:.:.:.:.:.:.:.:.:.:.:.:.:.:.:.:.:.:.:.:.:.:.:.:.:.:.:.:.:.:.:.:.:.:.:.:.:.:.:.:.:.:.:.:.:.:.:.:.:.:.:.:.:.:.:.:.:.:.:.:.:.:.:.:.:.:.:.:.:.:.:.:.:.:.:.:.:.:.:.:.:.:.:.:.:.:.:.:.:.:.:.:.:.",
":.:.:.:.  :.*.  :.:.:.:.:.:.:.:.:.:.:.:.:.:.:.:.:.:.:.:.:.:.:.:.:.:.:.:.:.:.:.:.:.:.:.:.:.:.:.:.:.:.:.:.:.:.:.:.:.:.:.:.:.:.:.:.:.:.:.:.:.:.:.:.:.:.:.:.:.:.:.:.:.:.:.:.:.:.:.:.:.:.:.:.:.:.:.:.:.:.:.:.:.:.:.:.:.:.:.:.:.:.:.:.:.:.:.:.:.:.:.:.:.:.:.:.:.:.:.:.:.:.:.:.:.:.:.:.:.:.:.:.:.:.",
":.:.:.:.  :.:.  :.:.:.:.:.:.:.:.:.:.:.:.:.:.:.:.:.:.:.:.:.:.:.:.:.:.:.:.:.:.:.:.:.:.:.:.:.:.:.:.:.:.:.:.:.:.:.:.:.:.:.:.:.:.:.:.:.:.:.:.:.:.:.:.:.:.:.:.:.:.:.:.:.:.:.:.:.:.:.:.:.:.:.:.:.:.:.:.:.:.:.:.:.:.:.:.:.:.:.:.:.:.:.:.:.:.:.:.:.:.:.:.:.:.:.:.:.:.:.:.:.:.:.:.:.:.:.:.:.:.:.:.:.:."
};
