/* XPM */
static char *heatx_heatx_e_hs_1co[] = {
/* columns rows colors chars-per-pixel */
"147 53 102 2",
"   c #010100",
".  c #272823",
"X  c #282723",
"o  c #282824",
"O  c #282828",
"+  c #3B3B36",
"@  c #3B3B38",
"#  c #4A4A43",
"$  c #4B4B48",
"%  c #57574D",
"&  c #58584E",
"*  c #575851",
"=  c #585752",
"-  c #595851",
";  c #64645C",
":  c #656460",
">  c #6F6F63",
",  c #707065",
"<  c #717169",
"1  c #7B7C6E",
"2  c #7C7C70",
"3  c #848677",
"4  c #85867A",
"5  c #86887A",
"6  c #88867B",
"7  c #8D8E7E",
"8  c #908E7F",
"9  c #868580",
"0  c #8D8E81",
"q  c #8F9081",
"w  c #908E81",
"e  c #96968D",
"r  c #96988B",
"t  c #989987",
"y  c #989989",
"u  c #979890",
"i  c #9C9C92",
"p  c #9EA18F",
"a  c #9EA092",
"s  c #A19F91",
"d  c #A0A18E",
"f  c #A0A193",
"g  c #A1A199",
"h  c #AAAA96",
"j  c #A9AA99",
"k  c #AFB19C",
"l  c #B1B29E",
"z  c #B2B2A0",
"x  c #B3B3A9",
"c  c #B7B8A5",
"v  c #B6B8AA",
"b  c #B9B7A8",
"n  c #B9B8A6",
"m  c #B8B8AB",
"M  c #BFBFB3",
"N  c #BFC0AD",
"B  c #BFC0B0",
"V  c #C1BFB0",
"C  c #C1C1AD",
"Z  c #C1C1B3",
"A  c #C6C6BA",
"S  c #C7C8B4",
"D  c #C7C8B9",
"F  c #C8C7B3",
"G  c #C8C6BA",
"H  c #C9C8B3",
"J  c #CCCCBB",
"K  c #CED0BB",
"L  c #D0CEBB",
"P  c #CECEC1",
"I  c #CFD0C1",
"U  c #D0CEC1",
"Y  c #D6D5C1",
"T  c #D5D5C8",
"R  c #D6D8C3",
"E  c #D8D6C2",
"W  c #DCDBC6",
"Q  c #DCDCCA",
"!  c #DCDCD0",
"~  c #E7E7CF",
"^  c #E6E6D4",
"/  c #E5E6D8",
"(  c #E6E8D4",
")  c #E7E8DA",
"_  c #E8E6D2",
"`  c #E8E6D9",
"'  c #EDEDD5",
"]  c #EDEDDA",
"[  c #F3F3DC",
"{  c #F8F8DE",
"}  c #EDEDE1",
"|  c #F2F3E3",
" . c #F6F6EC",
".. c #F7F9E4",
"X. c #F7F8EA",
"o. c #F8F7E3",
"O. c #F9F7E8",
"+. c #F9F8E1",
"@. c #F8F9EA",
"#. c #F5F6F1",
"$. c #FCFDF3",
"%. c #FEFEFE",
/* pixels */
"%.%.%.   .$. .  %.%.%.%.%.%.%.%.%.%.%.%.%.%.%.%.%.%.%.%.%.%.%.%.%.%.%.%.%.%.%.%.%.%.%.%.%.%.%.%.%.%.%.%.%.%.%.%.%.%.%.%.%.%.%.%.%.%.%.%.%.%.%.%.%.%.%.%.%.%.%.%.%.%.%.%.%.%.%.%.%.%.%.%.%.%.%.%.%.%.%.%.%.%.%.%.%.%.%.%.%.%.%.%.%.%.%.%.%.%.%.%.%.%.%.%.%.%.%.%.%.%.%.%.%.%.%.%.%.%.%.%.%.%.%.%.%.%.%.",
"%.%.%.%.  $. .  %.%.%.%.%.%.%.%.%.%.%.%.%.%.%.%.%.%.%.%.%.%.%.%.%.%.%.%.%.%.%.%.%.%.%.%.%.%.%.%.%.%.%.%.%.%.%.%.%.%.%.%.%.%.%.%.%.%.%.%.%.%.%.%.%.%.%.%.%.%.%.%.%.%.%.%.%.%.%.%.%.%.%.%.%.%.%.%.%.%.%.%.%.%.%.%.%.%.%.%.%.%.%.%.%.%.%.%.%.%.%.%.%.%.%.%.%.%.%.%.%.%.%.%.%.%.%.%.%.%.%.%.%.%.%.%.%.%.%.",
"%.%.%.%.  $. .  %.%.%.%.%.%.%.%.%.%.%.%.%.%.%.%.%.%.%.%.%.%.%.%.%.%.%.%.%.%.%.%.%.%.%.%.%.%.%.%.%.%.%.%.%.%.%.%.%.%.%.%.%.%.%.%.%.%.%.%.%.%.%.%.%.%.%.%.%.%.%.%.%.%.%.%.%.%.%.%.%.%.%.%.%.%.%.%.%.%.%.%.%.%.%.%.%.%.%.%.%.%.%.%.%.%.%.%.%.%.%.%.%.%.%.%.%.%.%.%.%.%.%.%.%.%.%.%.%.%.%.%.%.%.%.%.%.%.%.",
"%.%.%.$.  $.#.  %.%.%.%.%.%.%.%.%.%.%.%.%.%.%.%.%.%.%.%.%.%.%.%.%.%.%.%.%.%.%.%.%.%.%.%.%.%.%.%.%.%.%.%.%.%.%.%.%.%.%.%.%.%.%.%.%.%.%.%.%.%.%.%.%.%.%.%.%.%.%.%.%.%.%.%.%.%.%.%.%.%.%.%.%.%.%.%.%.%.%.%.%.%.%.%.%.%.%.%.%.%.%.%.%.%.%.%.%.%.%.%.%.%.%.%.%.%.%.%.%.%.%.%.%.%.%.%.%.%.%.%.%.%.%.%.%.%.%.",
"%.%.%.%.  $. .  %.%.%.%.%.%.%.%.%.%.%.%.%.%.%.%.%.%.%.%.%.%.%.%.%.%.%.%.%.%.%.%.%.%.%.%.%.%.%.%.%.%.%.%.%.%.%.%.%.%.%.%.%.%.%.%.%.%.%.%.%.%.%.%.%.%.%.%.%.%.%.%.%.%.%.%.%.%.%.%.%.%.%.%.%.%.%.%.%.%.%.%.%.%.%.%.%.%.%.%.%.%.%.%.%.%.%.%.%.%.%.%.%.%.%.%.%.%.%.%.%.%.%.%.%.%.%.%.%.%.%.%.%.%.%.%.%.%.%.",
"        %.%.%.                    %.%.%.%.%.%.%.%.   .%.#.  %.%.%.%.%.%.%.%.%.%.%.%.%.%.%.%.%.%.%.%.%.%.%.%.%.%.%.%.%.%.%.%.%.%.%.%.%.%.%.%.%.%.%.%.%.%.%.%.%.%.%.%.%.%.%.%.%.%.%.%.%.%.%.%.%.%.%.%.%.%.%.%.%.%.%.%.%.%.%.%.%.%.%.%.%.%.%.%.%.%.%.%.%.%.%.%.%.%.%.%.                                  ",
"  @ + + + + + + + + @   @ + + @     %.%.%.%.%.%.%.$.  $. .  %.%.%.%.%.%.%.%.%.%.%.%.%.%.%.%.%.%.%.%.%.%.%.%.%.%.%.%.%.%.%.%.%.%.%.%.%.%.%.%.%.%.%.%.%.%.%.%.%.%.%.%.%.%.%.%.%.%.%.%.%.%.%.%.%.%.%.%.%.%.%.%.%.%.%.%.%.%.%.%.%.%.%.%.%.%.%.%.%.%.%.%.%.%.%.%.%.%.%.    @ + + @   @ @ @ + + @ @ @ + +   ",
"  # # # # # # # # # #   # # # #   @   %.%.%.%.%.%.%.  $.X.  $.%.%.%.%.%.%.%.%.%.%.%.%.%.%.%.%.%.%.%.%.%.%.%.%.%.%.%.%.%.%.%.%.%.%.%.%.%.%.%.%.%.%.%.%.%.%.%.%.%.%.%.%.%.%.%.%.%.%.%.%.%.%.%.%.%.%.%.%.%.%.%.%.%.%.%.%.%.%.%.%.%.%.%.%.%.%.%.%.%.%.%.%.%.%.%.%.%.  @   # # # $   # # # # # # # # # #   ",
"  : : ; ; ; ; ; ; ; ;   : : : :   @ @   %.%.%.%.%.%.  $.@.  %.%.%.%.%.%.%.%.%.%.%.%.%.%.%.%.%.%.%.%.%.%.%.%.%.%.%.%.%.%.%.%.%.%.%.%.%.%.%.%.%.%.%.%.%.%.%.%.%.%.%.%.%.%.%.%.%.%.%.%.%.%.%.%.%.%.%.%.%.%.%.%.%.%.%.%.%.%.%.%.%.%.%.%.%.%.%.%.%.%.%.%.%.%.%.%.%.  @ @   : ; ; :   ; ; ; ; ; ; ; ; : :   ",
"  < < > < > , , , , <   < < > <   # + +   %.%.%.%.$.  @. .  %.%.%.%.%.%.$.%.%.%.%.$.%.%.%.%.%.%.%.%.%.%.%.%.%.%.$.%.%.%.%.%.%.%.%.%.$.%.%.%.%.%.%.%.%.%.%.%.%.%.%.%.%.%.$.%.%.%.%.%.%.$.%.%.%.%.%.%.%.%.%.%.%.%.$.%.%.%.%.%.%.%.%.%.%.%.%.%.%.%.%.%.%.%.%.%.  + @ $   < < < <   < < , , , , < , < <   ",
"  2 2 2 2 1 1 1 2 2 2   2 2 2 2   = # # + X o o o o %.%.$.. . . o o o X X X o . X X . . X X X X X X X X o o o X X . X X o o o X X X . o . . X o X X X X o . . . o o X X X X o o . X . o . . o o X X X X o o o X X . X X o o o X . . . X X X X o X X X X o   + # $ =   2 2 2 2   2 2 2 2 2 1 1 1 2 2   ",
"  9 6 6 4 4 4 3 5 6 9   9 4 9 4   : & & # # # # # # # # # # # # # # # # # # # # # # # # # # # # # # # # # # # # # # # # # # # # # # # # # # # # # # # # # # # # # # # # # # # # # # # # # # # # # # # # # # # # # # # # # # # # # # # # # # # # # # # # # + # = = :   9 3 4 9   4 6 5 3 4 4 4 4 9 4   ",
"  w w w w w q q q q q   0 q 0 0   < : ; & & & & & & & & & & & & & & & & & & & & & & & & % % & & & & & & & & & & & & & & & & & & & & & & & & & & & & & & % & & & & & & & & & & & & & & & & & & & & & & & & & & & & & & & & & & & & & & & & & & & - - & & - # & ; : <   q 0 0 e   0 0 0 0 q q q q 0 q   ",
"  u e e y y y y y r r   u u r e   < < < ; > , > , , , , , , > > , , > , > , , > > , , , , , , , , , , , , , , , , , > > > > , > > > , , , , > , , , > > > , , > , , > , , , , , > , , , , , , , , , , , , , , , , , > > > > , > > > , , > , , , < , < , < = ; , < <   r r e u   e r r r t t r r u u   ",
"  s s s y s s s s s a   a a a a   2 1 , > 1 1 1 2 1 1 1 1 1 3 1 1 1 1 1 1 1 1 1 1 1 1 1 1 1 1 1 1 1 1 1 1 1 1 1 1 1 1 3 1 1 1 1 1 1 3 1 1 1 1 1 1 1 1 1 1 1 3 1 1 1 1 1 1 1 1 1 1 1 1 1 1 1 2 2 1 1 1 1 1 1 1 1 1 1 1 3 1 1 1 1 1 3 1 1 1 1 2 1 1 2 1 2 1 ; > > 2 2   a a a a   a a a a s p s s s i   ",
"  x x x c l z z z z x   x x x z   5 4 1 1 8 w w w w 8 8 8 7 7 7 7 7 q q q q q q q 7 q 7 0 7 q q 7 7 7 q 7 7 q 7 7 7 7 7 q q q q 7 7 7 7 7 q q q q 7 8 8 7 7 7 7 8 q q q 7 7 q q 7 7 7 7 w q q w 7 7 7 q 7 7 q 7 7 7 7 7 q q q q 7 7 7 8 0 0 0 0 8 q q 7 8 , 1 2 4 5   z x l x   x z z z l l x l x z   ",
"  M n n n n n n n b M   m m m m   i q 4 5 t y y y y y y t y y t t t t t t t y y y y y y y y y y y y t t y y t y y t y y y y y y t y y y y y y y y y y y y y y y y y y y y y y t y y t y y y y y y y y y y t y y y y y y y t y y t t t y y y y y y y t y t 1 4 5 0 u   M m v M   x m m n n n n n m m   ",
"  Z V N N C C V N V M   V B V B   a r r 7 j j j j h j h h j j h j h j j j j j j j h j j j j j j j j j k j j j j j j j k j j j j j j j j j j j j j j j j j j h k j j h k j j j j j k j j j j h h j j h h j j j j j j h h j j j j h h j j j j j j h j h k j 4 q t r a   Z V V Z   V B V N C N C C Z B   ",
"  A H H H H H H F H A   P A G G   a a p t z z z l l z l l l l l l l l l z z z l z l k l l z z l l z l l l z l l l z l l l l l l l l l z l z l z z l l l l l l l l l l l l l z l l l z z l z l l z z l z l z l l z z l z l l l l l l l z l l l l l l l l l t y a a a   A D D A   J D H H H H H H D D   ",
"  P L L K K L L L L P   P J U U   j j p p Z N N N N N N C N N N C N N C Z N N Z N N N N N Z N Z V V V V V V V V V V V V V V C V N V V V F V C C C C V V V V V V V V V V F V V V V V C V V C V V V V V V C C V V V V V V C V C V C N Z N C C Z C C C N N N d a d j j   P L L U   P L L L L L L L K I   ",
"  T Y Y E E E E E E T   T T Y T   x z j h H F H H H H H H H H H H H H H H F H H S S H H H H H H H H H H H H H H H H H H H H H F F F F F H H H H H H F F H H H H H H H H H H H H V H H H H F H H H H H H F F H F H H H H H H H F H H F H H H H H H H H H H h h j x x   T R R Q   Y T R R Y Y E E Y T   ",
"  ! Q W W W W W W W Q   Q Q ! !   v m z l E Y Y E E E E K W W K L E E E E E E E R R E E E E E E E E E E E E E E E E E E E E E E E E E E E E E E E E E E E E E E E W L E L W L E E E E E E E E E E E E E E E E E E E E E E E E E E E E E E E E L E L E E R l l l n v   Q W Q Q   Q W W W W W W W Q Q   ",
"  ` ^ ~ ` _ ( ( ~ ~ `   ` ` ` `   B Z n n W W W W W W W W W ~ L W W W W W W W W W W W W W W W W W W W W W W W W W W W W W W W W W W W W W W W W W W W W W W W W W W W W W W W W W W W W W W W W W W W W W W W W W W W W W W W W W W W W W W W W W W W W W n n n Z B   ` ( ( `   / ( ( _ ~ ~ ~ ( / /   ",
"  } ] ' ' ' ' ' ] ] }   ] ] ] ]   B Z C C ' _ _ ~ ~ _ _ _ _ ~ ' _ _ _ _ _ _ _ ' _ _ _ _ ~ ~ ( ( _ _ _ _ _ _ _ _ _ _ _ _ _ _ _ ' _ _ _ _ _ _ _ _ _ _ _ _ _ ` _ _ _ ` _ _ _ _ _ ' _ _ _ _ _ _ ~ ' _ _ _ ' _ _ _ _ _ _ _ ' _ _ _ _ _ _ _ _ _ _ _ _ ~ ' _ _ ' C C V Z Z   } ] ] }   ] ] ' ] ' ' ' ] ] }   ",
"  | [ [ [ [ [ [ [ [ |   | | [ |   D G H H ' ' ' ] ' ' ' ' ' ' ' ' ' ' ' ' ' ' ' ' ' ' ' ' ' ' ' ' ' ' ' ' ' ' ' ' ' ' ' ' ' ' ' ' ' ' ' ' ' ' ' ' ' ' ' ' ' ' ' ' ' ' ' ' ' ' ' ' ' ' ' ' ' ' ' ' ' ' ' ' ' ' ' ' ' ' ' ' ' ' [ ' ' ' ' ' ' ' ' ' ' ' ' [ H H H D D   | | [ |   | | [ [ [ { [ | | |   ",
"  @.+.{ +.+.+.+.+.+. .  X...O.O.  P L L L O.O.+.+.+.+.+.+.+.+.+.+.+.+.+.+.+.+.+.+.+.+.+.+.+.+.+.+.{ +.+.+.+.+.+.+.+.+.+.+.+.+.+.+.+.+.+.+.+.+.+.+.+.+.+.+.+.+.+.{ +.+.+.+.+.+.+.+.+.+.+.+.+.+.+.{ { +.+.+.+.+.+.+.+.+.+.+.+.+.+.+.+.+.+.+.+.+.+.{ { +.+.+.L L L P P   @.+.+.@.  +.+.+.+.{ +.+.+...X.  ",
"  @.O.{ { { +.+.+.+.@.  ......O.  T Y R E +.+.+.+.+.+.+.{ { +.+.+.+.{ { +.+.+.+.+.+.+.+.+.+.{ +.+.+.+.+.+.+.+.+.+.+.+.{ +.+.+.+.+.+.+.+.+.+.{ { +.{ +.+.+.+.{ { +.+.+.+.+.+.+.{ +.+.+.+.+.+.{ { { O.+.+.+.+.+.+.+.+.{ { +.+.+.+.+.+.+.+.+.+.+.+.{ +.+.O.O.L E E R T    .@.o.X.  @...+.+.{ +.+.+...X.  ",
"  | [ [ [ [ [ { [ | ..  | [ | |   I L L L ' ' ' ' ' ' ' ' [ ' ' ' ' ' ' ' ' ' ' ' ' ' ' ' ' ' ' ' ' ' ' ' ' ' ' ' ' ' ' ' ' ' ' ' ' ' ' ' ' ' ' ' [ ' ' ' ' ' ' ' ' ' ' ' ' ' ' ' ' ' ' ' ' ' ' ' ' ' ' ' ' ' ' ' ' ' ' ' ' ' ' ' ' ' ' ' ' ' ' ' ' ' ' [ L L L P I   | [ [ |   | | [ [ [ [ ] [ [ |   ",
"  ] ' ' ' ' ' ' ' ' }   ] ] ] ]   D D H H _ _ _ ~ ~ ~ ~ ~ ~ ' ~ ~ ~ _ ' _ ~ ' ~ ' _ _ _ ~ ~ ' ~ _ ~ ' ~ ' _ _ _ ' ~ ~ _ _ _ _ _ ' _ ' ' ~ _ ' ~ _ _ ' ~ _ _ ' ~ _ _ ~ _ _ _ ~ _ ' ' ' ' _ _ ~ ' _ _ ~ ' ' _ ~ _ ' ~ ' ~ ~ _ ~ ' ' ~ _ _ ' ~ _ _ _ ^ ~ ( _ H H H J A   } ] ' }   ] ] ' ' ] ] ' ' ] }   ",
"  ` ( ' ~ ' ~ ~ ~ ( `   ` ( ` `   Z N Z C W W W W W E ~ W W W W W W W W W W W W W W W W W W W W W W W W W W W W W W W W W W W W W W W W W W W W W W W W W W W W W W ~ W W W W W W E W W W W W ~ W W W W W W W W W W W W W W W W W W W W W W W W W W W W W V C C B B   ) ( ( /   / _ _ _ _ _ _ _ ( )   ",
"  ! W W W W W W W W Q   ! Q Q !   Z Z n c E E E E E L W W L L W L W W L L W L W E E L E L W W L L W L W L E L E L W E E L E E E L E E L E L E E E L E E E L E E E L W L L W L W L L E L L L E L L E L W E E E L W L L W E L L W E E E L E E L E E E R E Y n n n B B   Q Q W Q   Q W W W W W W W Q !   ",
"  T W L E W L E R R T   T T R T   m v z l F H H H H H H H H H H H H H H H H H H H H H H H H H H H H H H L H H H H H H H H H H H H H H H F F H H H H H H H H H H H H H H H H H H L H H H L H H H H H H H H H H H H H H H H H H H H H H H H H H H H H H H S l z z m m   Q R T T   I R R R Y R R R R T   ",
"  P P L L L L L L L P   I I I U   x z h j N Z N C V V C N C C C V V C C C C C V C C V C C V C C V V C C C V V V C F C C C C C V C V C V C V C C C V C C C C C N C V C V C V C C C V C C C C C N F V V C C C C C N N C C C C V C C C C C V C C V C C N N N j j j x x   P U L P   P L J L L L L L L I   ",
"  P G F H H H H S H J   D D G D   j j p d c z z l c l l z l l l l l l l l l l l z l z l l l l l l l l z l l z z l l l l l l l l l z l l l l l l l z l l z l l l l z l l l l l l l z l l z l l l l l z z l l l l z z l l l z z z l l l l l l l l l l l z c y s f j j   A H G A   D D D H H H H H S D   ",
"  V V C C C C N N Z Z   B B V V   a a p t j j j j j h h j j j j j j h h j j j j j j j j k h h h j j j j h h j j j j h h j j j j h h j j j j j j h h j j j j j j h h j j j j j j h h j j j j j j h j j j h h h h j j j j j j j j j j h h j h j h h h h j j y t a s s   M N Z B   Z V C V N Z N N Z B   ",
"  m n n n n n m c n m   m m m m   a y y 7 t t t y t y y y y y y y y y y y t y y y y y y y y y y e t t t y y y y y y y y t y y y y y y y y y y y y y y y y y y y y y y y y y y y y y y y y y y y y t y y e y t s y y y y y y y y y t t s e t y y y d t t y 5 q y r i   M n m M   m m n n n m c v m m   ",
"  x x z z z z z z x x   x x z z   i q 4 5 q 7 q 7 7 q q w q 0 0 w w w w 0 0 0 0 0 w 0 0 w w w w 0 0 0 0 0 0 0 w w w w w 0 0 0 0 w w w w w 0 0 0 w w w q q 0 0 0 w w w w w 0 0 0 w w w q q 0 0 0 w w w w w w 0 0 q 0 0 0 q q q q w w w w 0 0 w 0 0 q 0 0 q 2 5 5 0 r   z x z x   x x z z x z z z z x   ",
"  s s s y s s s i g g   a g i a   9 3 1 1 2 2 2 1 1 2 2 1 1 1 2 2 2 2 2 2 1 2 2 2 1 1 2 2 2 2 1 2 2 2 2 1 1 1 1 1 1 2 2 1 2 2 2 2 2 2 2 2 1 1 1 2 2 1 2 2 2 2 1 2 2 2 2 2 1 1 1 2 2 1 2 2 2 2 1 2 2 2 2 2 2 1 1 1 2 1 1 1 1 1 2 2 2 1 1 2 1 1 1 2 2 2 1 2 , 2 2 4 9   g a a i   s a a a a a a p i g   ",
"  u e e y y y y r r u   u u u u   2 1 , , , > > , , , , , < , < < , < , , < , < , , , < , , , , < < , , , , , , , , , , , < , < , < < , < < , < < < , , < , , , , < < , < < , < < < , , < , , , , , , , , , , , < , < , , < , , , , , , , , , , , < , , , ; , , 2 1   e r y u   u r r r t y y y r u   ",
"  e 0 0 8 8 q w 0 0 0   q q q q   < , , ; & & & & & - - & & & & - - - & & & & & & & & & & = - = & & & & - - & & - & - - & & & & & & & & & & & & & & & & & & & & & & & & & & & & & & & & & & & & - & - & - = - - & & & & * % - & & & & & = = & & & & & = & & ; < , <   0 0 0 q   q q q q 0 7 7 0 q w   ",
"  9 5 5 3 3 5 5 4 4 9   4 9 9 9   < ; ; & $ $ # # # # # # # # # # # # # # # # # # # # # # # # # # # # # # # # # # # # # # # # # # # # # # # # # # # # # # # # # # # # # # # # # # # # # # # # # # # # # # # # # # # # # # # # # # # # # # # # # # $ # # # # & ; ; <   9 5 5 9   4 6 6 3 6 3 5 5 9 9   ",
"  2 1 1 1 1 1 1 1 1 2   2 2 2 2   ; = = # X X X X X X X X X X X X X X . X X X X o o X X o o o X . . X o o o . X X X X X X X X X o o X X X X o o X X X X o o X X o o X X X X o o X X X X o o X X o o o o X X X X X X X . X X . . o X . . X X X X X X . . . + # & - :   2 2 2 2   2 2 2 1 1 1 1 1 2 2   ",
"  < , , > > > , , , ,   < < < <   * # # + . %.%.%.%.%.%.%.%.%.%.%.%.%.%.%.%.%.%.%.%.%.%.%.%.%.%.%.%.%.%.%.%.%.%.%.%.%.%.%.%.%.%.%.%.%.%.%.%.%.%.%.%.%.%.%.%.%.%.%.%.%.%.%.%.%.%.%.%.%.%.%.%.%.%.%.%.%.%.%.%.%.%.%.%.%.%.%.%.%.%.%.%.%.%.%.$.%.%.%.%.%.%.%.  + # # =   < , , <   < < , , , > , , < <   ",
"  : ; ; ; ; ; ; ; ; ;   : : : :   $ @ @   %.%.%.%.%.%.%.$.%.%.%.%.%.%.%.%.%.%.%.%.%.%.%.%.%.%.%.%.%.%.%.%.%.%.%.%.%.%.%.%.%.%.%.%.%.%.%.%.%.%.%.%.%.%.%.%.%.%.%.%.%.%.%.%.%.%.%.%.%.%.%.%.%.%.%.%.%.%.%.%.%.%.%.%.%.%.%.%.%.%.%.%.%.%.%.  $.#.  %.%.%.%.%.%.  + @ $   : ; ; :   : ; ; ; ; ; ; ; ; :   ",
"  $ # # # # # # # $ #   $ # $ $   @ @   %.%.%.%.%.%.%.%.%.%.%.%.%.%.%.%.%.%.%.%.%.%.%.%.%.%.%.%.%.%.%.%.%.%.%.%.%.%.%.%.%.%.%.%.%.%.%.%.%.%.%.%.%.%.%.%.%.%.%.%.%.%.%.%.%.%.%.%.%.%.%.%.%.%.%.%.%.%.%.%.%.%.%.%.%.%.%.%.%.%.%.%.%.%.%.%.  $.#.  %.%.%.$.%.%.%.  @ @   # # # #   $ # # # # # # # $ $   ",
"  @ @ + @ @ + + + @ @   @ @ @ @   @   %.%.%.%.%.%.%.%.%.%.%.%.%.%.%.%.%.%.%.%.%.%.%.%.%.%.%.%.%.%.%.%.%.%.%.%.%.%.%.%.%.%.%.%.%.%.%.%.%.%.%.%.%.%.%.%.%.%.%.%.%.%.%.%.%.%.%.%.%.%.%.%.%.%.%.%.%.%.%.%.%.%.%.%.%.%.%.%.%.%.%.%.%.%.%.%.$.  %.#.  %.%.%.%.%.%.%.%.  @   @ @ + @   @ @ + + + + + + + +   ",
"  O . . . . o . . O O   . . O O     %.%.%.%.%.%.%.%.%.%.%.%.%.%.%.%.%.%.%.%.%.%.%.%.%.%.%.%.%.%.%.%.%.%.%.%.%.%.%.%.%.%.%.%.%.%.%.%.%.%.%.%.%.%.%.%.%.%.%.%.%.%.%.%.%.%.%.%.%.%.%.%.%.%.%.%.%.%.%.%.%.%.%.%.%.%.%.%.%.%.%.%.%.%.%.%.%.%.  %.#.  %.%.%.%.%.%.%.%.%.    O O . O   O O o o . X . . . .   ",
"                                  %.%.%.%.%.%.%.%.%.%.%.%.%.%.%.%.%.%.%.%.%.%.%.%.%.%.%.%.%.%.%.%.%.%.%.%.%.%.%.%.%.%.%.%.%.%.%.%.%.%.%.%.%.%.%.%.%.%.%.%.%.%.%.%.%.%.%.%.%.%.%.%.%.%.%.%.%.%.%.%.%.%.%.%.%.%.%.%.%.%.%.%.%.%.%.%.%.%.  %.%.%.  %.%.%.%.%.%.%.%.%.%.                  %.%.%.          ",
"%.%.%.%.%.%.%.%.%.%.%.%.%.%.%.%.%.%.%.%.%.%.%.%.%.%.%.%.%.%.%.%.%.%.%.%.%.%.%.%.%.%.%.%.%.%.%.%.%.%.%.%.%.%.%.%.%.%.%.%.%.%.%.%.%.%.%.%.%.%.%.%.%.%.%.%.%.%.%.%.%.%.%.%.%.%.%.%.%.%.%.%.%.%.%.%.%.%.%.%.%.%.%.%.%.%.%.%.%.%.%.%.%.%.%.%.%.%.%.%.%.%.%.%.%.%.%.%.%.%.%.%.%.%.%.%.%.%.%.  $.#.  %.%.%.%.",
"%.%.%.%.%.%.%.%.%.%.%.%.%.%.%.%.%.%.%.%.%.%.%.%.%.%.%.%.%.%.%.%.%.%.%.%.%.%.%.%.%.%.%.%.%.%.%.%.%.%.%.%.%.%.%.%.%.%.%.%.%.%.%.%.%.%.%.%.%.%.%.%.%.%.%.%.%.%.%.%.%.%.%.%.%.%.%.%.%.%.%.%.%.%.%.%.%.%.%.%.%.%.%.%.%.%.%.%.%.%.%.%.%.%.%.%.%.%.%.%.%.%.%.%.%.%.%.%.%.%.%.%.%.%.%.%.%.%.%.  $. .  %.%.%.%.",
"%.%.%.%.%.%.%.%.%.%.%.%.%.%.%.%.%.%.%.%.%.%.%.%.%.%.%.%.%.%.%.%.%.%.%.%.%.%.%.%.%.%.%.%.%.%.%.%.%.%.%.%.%.%.%.%.%.%.%.%.%.%.%.%.%.%.%.%.%.%.%.%.%.%.%.%.%.%.%.%.%.%.%.%.%.%.%.%.%.%.%.%.%.%.%.%.%.%.%.%.%.%.%.%.%.%.%.%.%.%.%.%.%.%.%.%.%.%.%.%.%.%.%.%.%.%.%.%.%.%.%.%.%.%.%.%.%.%.%.  %. .  %.%.%.%.",
"%.%.%.%.%.%.%.%.%.%.%.%.%.%.%.%.%.%.%.%.%.%.%.%.%.%.%.%.%.%.%.%.%.%.%.%.%.%.%.%.%.%.%.%.%.%.%.%.%.%.%.%.%.%.%.%.%.%.%.%.%.%.%.%.%.%.%.%.%.%.%.%.%.%.%.%.%.%.%.%.%.%.%.%.%.%.%.%.%.%.%.%.%.%.%.%.%.%.%.%.%.%.%.%.%.%.%.%.%.%.%.%.%.%.%.%.%.%.%.%.%.%.%.%.%.%.%.%.%.%.%.%.%.%.%.%.%.%.%.  %.#.  %.%.%.%.",
"%.%.%.%.%.%.%.%.%.%.%.%.%.%.%.%.%.%.%.%.%.%.%.%.%.%.%.%.%.%.%.%.%.%.%.%.%.%.%.%.%.%.%.%.%.%.%.%.%.%.%.%.%.%.%.%.%.%.%.%.%.%.%.%.%.%.%.%.%.%.%.%.%.%.%.%.%.%.%.%.%.%.%.%.%.%.%.%.%.%.%.%.%.%.%.%.%.%.%.%.%.%.%.%.%.%.%.%.%.%.%.%.%.%.%.%.%.%.%.%.%.%.%.%.%.%.%.%.%.%.%.%.%.%.%.%.%.%.%.  %.%.  %.%.%.%."
};
