/* XPM */
static char * heatx_heatx_f_hs_4[] = {
"133 50 286 2",
"  	c None",
". 	c #000000",
"+ 	c #000100",
"@ 	c #000200",
"# 	c #010000",
"$ 	c #010100",
"% 	c #4A4944",
"& 	c #4B4B43",
"* 	c #4C4B46",
"= 	c #4D4A43",
"- 	c #4B4A45",
"; 	c #4B4A46",
"> 	c #595951",
", 	c #59594F",
"' 	c #5B5851",
") 	c #5B584F",
"! 	c #5A5A50",
"~ 	c #595853",
"{ 	c #3B3B3B",
"] 	c #65655D",
"^ 	c #65655B",
"/ 	c #656559",
"( 	c #67645B",
"_ 	c #66665C",
": 	c #65645F",
"< 	c #4A4A48",
"[ 	c #3B3B39",
"} 	c #717169",
"| 	c #717165",
"1 	c #737165",
"2 	c #707064",
"3 	c #717167",
"4 	c #585954",
"5 	c #4A4B45",
"6 	c #3B3C37",
"7 	c #86867C",
"8 	c #868779",
"9 	c #888679",
"0 	c #86867A",
"a 	c #86867E",
"b 	c #585953",
"c 	c #3A3B33",
"d 	c #3B3C36",
"e 	c #3C3B36",
"f 	c #3C3B37",
"g 	c #3C3C34",
"h 	c #3C3D37",
"i 	c #3A3B36",
"j 	c #8E8E82",
"k 	c #8E8F81",
"l 	c #908E7F",
"m 	c #8E8E86",
"n 	c #64655D",
"o 	c #585A4F",
"p 	c #4A4C41",
"q 	c #4A4B43",
"r 	c #98988C",
"s 	c #989989",
"t 	c #98998B",
"u 	c #98988E",
"v 	c #707169",
"w 	c #707066",
"x 	c #646659",
"y 	c #64665B",
"z 	c #4A4A42",
"A 	c #A0A094",
"B 	c #A0A191",
"C 	c #A1A292",
"D 	c #9FA090",
"E 	c #A0A193",
"F 	c #A0A096",
"G 	c #7C7D75",
"H 	c #7C7C72",
"I 	c #707265",
"J 	c #7B7D70",
"K 	c #7C7C70",
"L 	c #7B7B6F",
"M 	c #7D7D71",
"N 	c #64645A",
"O 	c #B1B2A4",
"P 	c #B1B2A0",
"Q 	c #B1B2A2",
"R 	c #B0B2A5",
"S 	c #85877C",
"T 	c #7C7D6F",
"U 	c #7D7E70",
"V 	c #8F9082",
"W 	c #B8B9AB",
"X 	c #B8B9A7",
"Y 	c #B8B9A9",
"Z 	c #B8B8AC",
"` 	c #97998E",
" .	c #87887A",
"..	c #999A8C",
"+.	c #999A8A",
"@.	c #C0C1B3",
"#.	c #C2C1AD",
"$.	c #C1C0AC",
"%.	c #C0C1AF",
"&.	c #C0C0B4",
"*.	c #C2C1AF",
"=.	c #C0C1B1",
"-.	c #9FA196",
";.	c #8E8F7F",
">.	c #A9AA9A",
",.	c #A9AA98",
"'.	c #ABAA98",
").	c #AAAB99",
"!.	c #979888",
"~.	c #3A3A38",
"{.	c #010200",
"].	c #C9C7B8",
"^.	c #C9C8B4",
"/.	c #C9C8B6",
"(.	c #C7C7BB",
"_.	c #020200",
":.	c #C7C8B6",
"<.	c #A8AA9F",
"[.	c #A1A294",
"}.	c #B8BAA5",
"|.	c #BAB9A7",
"1.	c #B1B1A7",
"2.	c #3C3D38",
"3.	c #D7D5C6",
"4.	c #D7D6C1",
"5.	c #D7D6C4",
"6.	c #D5D5C9",
"7.	c #D5D6C4",
"8.	c #A0A18F",
"9.	c #C2C1AC",
"0.	c #C2C0B1",
"a.	c #B8B8AE",
"b.	c #3B3A35",
"c.	c #DDDBCC",
"d.	c #DDDCC7",
"e.	c #DDDCC8",
"f.	c #DBDBCF",
"g.	c #DDDCCA",
"h.	c #DEDDC9",
"i.	c #CECFBD",
"j.	c #D0CFBB",
"k.	c #D0CFBA",
"l.	c #D0CFBD",
"m.	c #C7C8B8",
"n.	c #4B4B41",
"o.	c #E2E0D1",
"p.	c #E2E1CC",
"q.	c #E1E0CC",
"r.	c #E0E0D4",
"s.	c #E2E1CF",
"t.	c #E2E2CA",
"u.	c #E2E1CD",
"v.	c #B3B29E",
"w.	c #DEDCC7",
"x.	c #DEDDC8",
"y.	c #C8C7B5",
"z.	c #B0B19F",
"A.	c #868777",
"B.	c #E8E6D7",
"C.	c #E8E7D2",
"D.	c #E8E7D3",
"E.	c #E6E7D9",
"F.	c #E8E8D0",
"G.	c #C0C2AD",
"H.	c #E9E8D3",
"I.	c #E7E6D1",
"J.	c #E9E7D2",
"K.	c #E7E7CF",
"L.	c #DBDCCE",
"M.	c #D8D7C3",
"N.	c #C7C9B4",
"O.	c #F4F3E1",
"P.	c #F4F4DC",
"Q.	c #F4F3DF",
"R.	c #F2F3E5",
"S.	c #F5F4E0",
"T.	c #F4F3DE",
"U.	c #030100",
"V.	c #C9C7BB",
"W.	c #C9C8B3",
"X.	c #CAC9B4",
"Y.	c #EEEDD8",
"Z.	c #EEEED6",
"`.	c #EFEFD7",
" +	c #EDEDD5",
".+	c #EEEDD9",
"++	c #D8D7C2",
"@+	c #3B3C34",
"#+	c #F9F8E6",
"$+	c #F9F9E1",
"%+	c #F8F8E0",
"&+	c #F9F8E3",
"*+	c #F7F8E8",
"=+	c #F9F8E4",
"-+	c #D0CEC2",
";+	c #D0CEBF",
">+	c #F8F7E2",
",+	c #FAF9E4",
"'+	c #ECEDDF",
")+	c #B9BAA8",
"!+	c #FFFEEC",
"~+	c #FFFFE7",
"{+	c #FFFFE5",
"]+	c #FFFEE9",
"^+	c #FDFEEE",
"/+	c #FEFFF1",
"(+	c #FDFEF0",
"_+	c #D4D4CC",
":+	c #D5D6C8",
"<+	c #FDFEEC",
"[+	c #B2B3A3",
"}+	c #FAF9E7",
"|+	c #FFFFF3",
"1+	c #FFFFF4",
"2+	c #FFFFF8",
"3+	c #FFFFF1",
"4+	c #FFFFF0",
"5+	c #F9F9DF",
"6+	c #F7F8EA",
"7+	c #E9E9D1",
"8+	c #F4F2E3",
"9+	c #F2F3E3",
"0+	c #F3F2DE",
"a+	c #CECEC2",
"b+	c #EFEEDA",
"c+	c #EDECD7",
"d+	c #EDECD8",
"e+	c #E7E6D2",
"f+	c #C8C7B3",
"g+	c #ECECE0",
"h+	c #E9E8D6",
"i+	c #E0E2CC",
"j+	c #E0E2CD",
"k+	c #E0E1D3",
"l+	c #DBDDC8",
"m+	c #DBDDC7",
"n+	c #E6E6DA",
"o+	c #717264",
"p+	c #DEDDCB",
"q+	c #B9B7A8",
"r+	c #B3B2A0",
"s+	c #CED0BB",
"t+	c #CFCEBA",
"u+	c #D8D7C5",
"v+	c #D7D6C2",
"w+	c #BAB9A5",
"x+	c #D7D5C9",
"y+	c #B0B2A4",
"z+	c #C1C0AE",
"A+	c #858678",
"B+	c #C9C7BA",
"C+	c #CAC8BC",
"D+	c #B1B3A6",
"E+	c #B9BBA6",
"F+	c #C2C0B3",
"G+	c #C1C3AE",
"H+	c #B2B3A1",
"I+	c #858779",
"J+	c #494A44",
"K+	c #B1B1A5",
"L+	c #85877A",
"M+	c #B1B39E",
"N+	c #989A8F",
"O+	c #9FA08E",
"P+	c #989987",
"Q+	c #97998B",
"R+	c #979A89",
"S+	c #7B7C74",
"T+	c #87877B",
"U+	c #8E8E84",
"V+	c #8D8F81",
"W+	c #8D907F",
"X+	c #727268",
"Y+	c #585951",
"Z+	c #3A3B35",
"`+	c #64655F",
" @	c #3B3A36",
".@	c #282924",
"+@	c #4A4B46",
"@@	c #595854",
"#@	c #292824",
"$@	c #292823",
"%@	c #282722",
"&@	c #272823",
"*@	c #282826",
"=@	c #020100",
"    . +     +                                                                                                                                                                                                                                                             ",
"        +   @                                                                                                                                                                                                                                                             ",
"        +   @                                                                                                                                                                                                                                                             ",
"        .   @                                                                                                                                                                                                                                                             ",
"        .   #                                                                                                                                                                                                                                                             ",
". . . .     # # . . $ . . . . .                                                                                                                                                                                     . +     #                                             ",
". % & * & = & & - ; # - & - ; . .                                                                                                                                                                                       +   $                                             ",
". > , , , ' ) ! , ~ # > , > ~ . { .                                                                                                                                                                                     +   $                                             ",
". ] ^ / / ( ( _ ^ : $ ^ / ^ ] + < [ .                                                                                                                                                                                   +   $             .                               ",
"+ } | | | 1 1 2 3 } $ 3 | | 3 + 4 5 6 +                                                                                                                                                                                 +   $             .                               ",
"+ 7 8 8 8 9 9 8 0 a $ 0 8 8 0 + b > > c d e f d d f f d d f f d d f f d d f f d d f f d d f f d d f f d d f f d d f f d d f f d d f f d d f f d d f f d d f f d d f f d d f f d d f f d d f f d d f f d d f e d d d 6 6     g d h f f h d + i 6                           ",
"+ j k k k l l k j m $ j k k j + n ^ , o p & & q q & & q q & & q q & & q q & & q q & & q q & & q q & & q q & & q q & & q q & & q q & & q q & & q q & & q q & & q q & & q q & & q q & & q q & & q q & & q q & & p p q q q q & & q q & & q q + 5 5 d 6 6 6                   ",
"+ r s s s s s s t u $ t s s t + v w / x y ^ ^ ^ ^ ^ ^ ^ ^ ^ ^ ^ ^ ^ ^ ^ ^ ^ ^ ^ ^ ^ ^ ^ ^ ^ ^ ^ ^ ^ ^ ^ ^ ^ ^ ^ ^ ^ ^ ^ ^ ^ ^ ^ ^ ^ ^ ^ ^ ^ ^ ^ ^ ^ ^ ^ ^ ^ ^ ^ ^ ^ ^ ^ ^ ^ ^ ^ ^ ^ ^ ^ ^ ^ ^ ^ ^ ^ ^ ^ ^ ^ ^ ^ ^ ^ ^ ^ ^ ^ ^ ^ ^ ^ ^ ^ ] # : ] z & - 5 6                 ",
"+ A B C B B D B E F $ E B B E + G H | I J K K K K K K K K K K K K K K K K K K K K K K K K K K K K K K K K K K K K K K K K K K K K K K K K K K K K K K K K K K K K K K K K K K K K K K K K K K K K K K K K K K K K K K K K K K L K M K K H $ } 3 N ^ ^ q q 6 [             ",
"+ O P P P P P P Q R @ Q P P Q @ S 0 T U k k V k k k k k k k k k k k k k k k k k k k k k k k k k k k k k k k k k k k k k k k k k k k k k k k k k k k k k k k k k k k k k k k k k k k k k k k k k k k k k k k k k k k k k k k k V k k k V j $ a 0 | | | ^ ^ & - 6           ",
"+ W X X X X X X Y Z @ Y X X Y @ ` j 8  .t ..s s s s s s s s s s s s s s s s s s s s s s s s s s s s s s s s s s s s s s s s s s s s s s s s s s s s s s s s s s s s s s s s s s s s s s s s s s s s s s s s s s s s s s s s s s s +.+.s t $ u r 8 8 0 | | ^ & q d         ",
"+ @.#.#.#.#.$.#.%.&.$ *.#.$.=.@ -.t s ;.>.>.,.,.,.,.,.,.,.,.,.,.,.,.,.,.,.,.,.,.,.,.,.,.,.,.,.,.,.,.,.,.,.,.,.,.,.,.,.,.,.,.,.,.,.,.,.,.,.,.,.,.,.,.,.,.,.,.,.,.,.,.,.,.,.,.,.,.,.,.,.,.,.,.,.,.,.,.,.,.,.,.,.,.,.,.,.,.,.,.,.,.,.'.'.).>.$ F E !.+.8 8 | | ^ & - ~.      ",
"{.].^.^.^.^.^.^./.(._./.^.^.:.$ <.[.B !.Y X X X X X X X X X X X X X X X X X X X X X X X X X X X X X X X X X X X X X X X X X X X X X X X X X X X X X X X X X X X X X X X X X X X X X X X X X X X X X X X X X X X X }.}.X X X }.}.}.|.|.X Y $ 1.O B B !.s 8 0 | ^ & 2.      ",
"+ 3.4.4.4.4.4.4.5.6.$ 5.4.4.7.$ R >.,.8.%.*.*.#.#.#.#.#.#.#.#.#.#.#.#.#.#.#.#.#.#.#.#.#.#.#.#.#.#.#.#.#.#.#.#.#.#.#.#.#.#.#.#.#.#.#.#.#.#.#.#.#.#.#.#.#.#.#.#.#.#.#.#.#.#.#.#.#.#.#.#.#.#.#.#.#.#.#.#.#.#.#.#.#.#.#.#.#.#.#.9.9.9.#.#.#.0.$ a.Y P P 8.C s  .| | _ & b.    ",
"+ c.d.d.d.d.d.d.e.f.{.g.d.d.h.{.R Q P ,.i.j.j.j.j.j.j.j.j.j.j.j.j.j.j.j.j.j.j.j.j.j.j.j.j.j.j.j.j.j.j.j.j.j.j.j.j.j.j.j.j.j.j.j.j.j.j.j.j.j.j.j.j.j.j.j.j.j.j.j.j.j.j.j.j.j.j.j.j.j.j.j.j.j.j.j.j.j.j.j.j.j.j.j.j.j.j.j.j.k.k.k.k.j.j.j.l.$ (.m.}.}.P 8.B t 8 | / n.- i   ",
"+ o.p.p.p.p.p.p.q.r.{.s.p.t.u.{.Z Y P v.e.d.d.d.d.d.d.d.d.d.d.d.d.d.d.d.d.d.d.d.d.d.d.d.d.d.d.d.d.d.d.d.d.d.d.d.d.d.d.d.d.d.d.d.d.d.d.d.d.d.d.d.d.d.d.d.d.d.d.d.d.d.d.d.d.d.d.d.d.d.d.d.d.d.d.d.d.d.d.d.d.d.d.w.w.d.d.d.d.d.d.x.d.w.w.d.e.$ 6.y.^.}.X z.8.s A.8 | ^ - 6   ",
"+ B.C.C.C.C.C.C.D.E.{.D.F.F.D.{.&.=.G.#.C.F.F.C.C.C.C.H.H.C.C.C.C.C.I.C.C.C.C.C.C.C.C.C.C.C.C.C.C.C.C.H.H.C.C.C.C.C.I.C.C.C.C.C.C.C.C.C.C.C.C.C.C.C.C.H.H.C.C.C.C.C.I.C.C.C.C.C.C.C.C.C.C.C.C.C.C.C.C.H.H.C.C.J.J.C.C.C.C.C.C.C.H.J.J.K.D.{.L.M.4.N.X X P B s 8 | ^ & d   ",
"+ O.P.P.P.P.P.P.Q.R.{.S.P.P.T.U.V./.W.X.Y.Z.Z.Z.Z.Z.`.Z.Z.Z.Z.Z.Z.Z.Z.Z.Z.Y.Y.Z.Z.Z.Z.Z.Z.Z.Z.Z.Z.Z.`.Z.Z.Y.Y.Z.Z.Z.Z.Z.Z.Z.Z.Z.Z.Z.Z.Z.Z.Y.Y.Z.Z.Z.`.Z.Z.Z.Z.Z.Z.Z.Z.Z.Z.Y.Y.Z.Z.Z.Z.Z.Z.Z.Z.Z.Z.Z.`.Z.Z.Y.Y.Z.Z.Z.Z.Z.Z.Z.Z.Z. +Z.Z.Z..+{.E.e.d.++^.X P B s 8 | ^ & @+  ",
"{.#+$+$+$+%+$+$+&+*+{.#+&+&+=+U.-+;+j.j.=+=+>+&+&+&+&+&+&+&+&+&+&+&+&+&+&+=+=+=+&+&+&+,+&+&+&+&+&+&+&+&+&+=+=+=+&+&+&+&+&+&+&+&+&+&+&+,+&+=+=+=+&+&+&+&+&+&+&+&+&+&+&+&+&+=+=+=+&+&+&+,+&+&+&+&+&+&+&+&+&+=+=+$+$+$+$+$+$+$+$+$+$+$+$+$+>+{.'+D.d.4.W.}.)+Q B t 8 | ^ q d ",
"+ !+~+~+~+~+~+{+]+^+$ /+^+^+(+_._+6.:+:+(+(+^+^+^+^+^+^+^+^+^+^+^+^+^+^+^+(+^+^+^+^+^+^+^+^+^+^+^+^+^+^+^+(+^+^+^+^+^+^+^+^+^+^+^+^+^+^+^+(+^+^+^+^+^+^+^+^+^+^+^+^+^+^+^+(+^+^+^+^+^+^+^+^+^+^+^+^+^+^+^+(+<+]+{+~+~+{+{+~+~+{+{+~+~+{+]+{.'+.+F.d.4.N.X [+B s 8 | ^ q d ",
"+ }+$+$+$+$+$+$+&+*+$ {.{.|+1+2++ $ {.|+|+|+{.{.{.|+3+3+{.{.{.3+3+|+{.{.{.|+4+3+{.{.{.3+3+|+{.{.{.|+3+3+{.{.{.3+3+|+{.{.{.|+4+3+{.{.{.3+3+|+{.{.{.|+3+3+{.{.{.3+3+|+{.{.{.|+4+3+{.{.{.3+3+|+{.{.{.|+3+3+{.{.{.&+5+$+$+$+5+$+$+$+5+$+$+$+&+{.6+.+7+d.4.N.X Q B s 8 | ^ q d ",
"+ 8+T.P.P.T.P.P.T.9+{.O.Q.0+9+$ a+;+l.l..+.+.+.+Y.b+.+.+Y..+.+.+Y..+.+.+c+.+.+.+Y..+.+.+Y..+d+.+Y.b+.+.+Y..+.+.+Y..+.+.+c+.+.+.+Y..+.+.+Y..+d+.+Y.b+.+.+Y..+.+.+Y..+.+.+c+.+.+.+Y..+.+.+Y..+d+.+Y.b+.+.+Y..+.+Z.Z.Y.Z.Z.Z.Y.Z.Z.Z.Y.Z.Z.Y.{.'+.+H.d.4.N.X Q B s 8 | ^ q d ",
"+ B.C.F.F.C.C.F.e+E.{.e+F.C.D.$ (./.f+^.C.C.C.C.F.C.C.C.F.C.C.C.F.C.C.C.F.C.C.C.F.C.C.C.F.C.C.C.F.C.C.C.F.C.C.C.F.C.C.C.F.C.C.C.F.C.C.C.F.C.C.C.F.C.C.C.F.C.C.C.F.C.C.C.F.C.C.C.F.C.C.C.F.C.C.C.F.C.C.C.F.C.C.C.F.C.C.C.F.C.C.C.F.C.C.C.D.$ g+h+d.4.^.X X Q B s 8 3 ] q 6 ",
"+ o.p.p.p.p.p.i+j+k+{.u.p.p.u.$ &.0.#.#.e.e.d.d.d.e.d.w.w.e.d.w.w.e.d.d.d.e.d.d.d.e.d.w.w.e.d.w.w.e.d.d.d.e.d.d.d.e.d.w.w.e.d.w.w.e.d.d.d.e.d.d.d.e.d.w.w.e.d.w.w.e.d.d.d.e.d.d.d.e.d.w.w.e.d.w.w.e.d.d.d.e.d.d.d.e.d.d.d.l+m+d.d.e.d.d.e.$ n+g.d.M.^.X P 8.s A.o+^ & 6   ",
"{.c.d.d.d.d.d.m+l+f.{.g.d.d.p+{.Z q+r+v.j.j.j.j.k.j.j.j.k.j.j.j.k.j.j.j.k.j.j.j.k.j.j.j.k.j.j.j.k.j.j.j.k.j.j.j.k.j.j.j.k.j.j.j.k.j.j.j.k.j.j.j.k.j.j.j.k.j.j.j.k.j.j.j.k.j.j.j.k.j.j.j.k.j.j.j.k.j.j.j.k.j.j.j.k.j.j.j.k.s+s+t+k.j.j.j.l.$ f.u+v+^.w+X P 8.s 8 | ^ - 6   ",
"+ 3.v+4.4.v+v+++v+x+U.5.4.v+5.{.y+Q P ,.%.*.#.G.G.*.#.#.#.*.#.#.#.*.#.G.G.*.#.G.G.*.#.#.#.*.#.#.#.*.#.G.G.*.#.G.G.*.#.#.#.*.#.#.#.*.#.G.G.*.#.G.G.*.#.#.#.*.#.#.#.*.#.G.G.*.#.G.G.*.#.#.#.*.#.#.#.*.#.G.G.*.#.G.G.*.#.G.G.*.#.G.G.z+#.G.%.$ 6.]./.X X Q B s 8 A+| ^ - 6   ",
"+ B+^.^.W.^.^.^.y.C+U./.W.^.:.{.D+>.,.8.X |.|.X }.|.|.X }.|.|.X }.|.|.X }.|.|.X }.|.|.X }.|.|.X }.|.|.X }.|.|.X }.|.|.X }.|.|.X }.|.|.X }.|.|.X }.|.|.X }.|.|.X }.|.|.X }.|.|.X }.|.|.X }.|.|.X }.|.|.X }.|.|.X }.|.|.X }.|.|.X E+|.|.X X $ (.].|.X P B B t 8 | ^ & - i   ",
"+ F+#.#.#.%.G.G+%.&.$ %.G.*.=.$ <.E B s >.>.,.,.,.>.,.,.,.>.,.,.,.>.,.,.,.>.,.,.,.>.,.,.,.>.,.,.,.>.,.,.,.>.,.,.,.>.,.,.,.>.,.,.,.>.,.,.,.>.,.,.,.>.,.,.,.>.,.,.,.>.,.,.,.>.,.,.,.>.,.,.,.>.,.,.,.>.,.,.,.>.,.,.,.>.,.,.,.>.,.,.,.>.,.,.>.$ Z Y H+Q B B s I+I 3 ^ J+6     ",
"+ W |.|.w+X )+}.X Z $ Y }.|.Y @ -.t s k t t !.s s s s s s s s s s s s s s s s s s s s s s s s s s s s s s s s s s s s s s s s s s s s s s s s s s s s s s s s s s s s s s s s s s s s s s s s s s s s s s s s s s s s s s s s s s s s s s $ K+Q 8.B s s  .L+I ^ & 6       ",
"+ K+P P P [+P M+z.K+$ Q P Q O @ N+j 8 8 k k k k k k k k k k k k k k k k k k k k k k k k k k k k k k k k k k k k k k k k k k k k k k k k k k k k k k k k k k k k k k k k k k k k k k k k k k k k k k k k k k k k k k k k k k k V k k k k k $ F E s t 8 8 | I y & & 6       ",
"+ A B B O+B B O+B F $ B 8.B E @ S 0 T T K K K K K K K K K K K K K K K K K K K K K K K K K K K K K K K K K K K K K K K K K K K K K K K K K K K K K K K K K K K K K K K K K K K K K K K K K K K K K K K K K K K K K K K K K K K K M K K K K $ u t 8 8 8 | 3 y q & d         ",
"+ u s s s t s P+s u $ Q+R+t r + S+H | | ^ ^ ^ ^ ^ ^ ^ ^ ^ ^ ^ ^ ^ ^ ^ ^ ^ ^ ^ ^ ^ ^ ^ ^ ^ ^ ^ ^ ^ ^ ^ ^ ^ ^ ^ ^ ^ ^ ^ ^ ^ ^ ^ ^ ^ ^ ^ ^ ^ ^ ^ ^ ^ ^ ^ ^ ^ ^ ^ ^ ^ ^ ^ ^ ^ ^ ^ ^ ^ ^ ^ ^ ^ ^ ^ ^ ^ ^ ^ ^ ^ ^ ^ ^ ^ ^ ^ ^ ^ ^ ^ ^ ^ ^ ^ ^ ^ $ 7 T+| | | ^ ^ q h 6           ",
"+ U+k k k k k ;.k U+$ V+W+k j + v w ^ ^ & & - & & - & & & - & & & - & & & & & & & - & & & - & & & - & & & & & & & - & & & - & & & - & & & & & & & - & & & - & & & - & & & & & & & - & & & - & & & - & & & & & & & - & & & * - & & - & & & $ } X+^ ^ ^ & & d 6             ",
"+ 7 0 0 0 0 8 8 0 a $ T+8 0 7 + n ^ , Y+d 6 6 6 6 6 6 6 d 6 6 6 d 6 6 6 d 6 6 6 6 6 6 6 d 6 6 6 d 6 6 6 d 6 6 6 6 6 6 6 d 6 6 6 d 6 6 6 d 6 6 6 6 6 6 6 d 6 6 6 d 6 6 6 d 6 6 6 6 6 6 6 d 6 6 6 d 6 6 6 d 6 6 d d i 6 6 6 [ [ i Z+6 6 d d + `+] & & & e  @                ",
". } | | | | | | | } $ | | | 3 + b > > d .@                                                                                                                                                                                                + +@- e f f f                   ",
". ] ^ ^ N ^ ^ ^ ^ : # ^ ^ ^ ^ + 4 5 6 $                                                                                                                                                                                 +   +             . [ 6                           ",
". ~ , > , > , > > @@# > , , > + +@i .                                                                                                                                                                                   +   @             .                               ",
". - & 5 q * & 5 5 +@+ 5 q & & + [ .                                                                                                                                                                                     +   @             .                               ",
". #@#@.@.@$@%@.@&@*@. .@.@$@#@. .                                                                                                                                                                                       .   +                                             ",
". . . .     # . . . . . . . . .                                                                                                                                                                                     . .     +                                             ",
"        .   =@                                                                                                                                                                                                                                                            ",
"        +   $                                                                                                                                                                                                                                                             ",
"        +   $                                                                                                                                                                                                                                                             ",
"        .   #                                                                                                                                                                                                                                                             ",
"      . .   =@                                                                                                                                                                                                                                                            "};
