/* XPM */
static char * heatx_heatx_natura_1[] = {
"142 51 241 2",
"  	c None",
". 	c #000000",
"+ 	c #000100",
"@ 	c #010100",
"# 	c #010000",
"$ 	c #F8F8EC",
"% 	c #FDFEEE",
"& 	c #F7F8EA",
"* 	c #A9A99F",
"= 	c #F7F8E6",
"- 	c #FFFEE9",
"; 	c #F9F8E6",
"> 	c #A9AA9C",
", 	c #F9F8E4",
"' 	c #FFFFE7",
") 	c #F9F8E3",
"! 	c #A9AA9A",
"~ 	c #FFFEE7",
"{ 	c #A8A999",
"] 	c #F7F7EB",
"^ 	c #A8A9A1",
"/ 	c #FFFEE5",
"( 	c #FFFEEA",
"_ 	c #F8F9E7",
": 	c #F7F8E8",
"< 	c #A9A99D",
"[ 	c #F8F7E5",
"} 	c #020200",
"| 	c #010200",
"1 	c #282826",
"2 	c #3B3C37",
"3 	c #3C3B37",
"4 	c #4B4A46",
"5 	c #4B4A45",
"6 	c #4A4B45",
"7 	c #585953",
"8 	c #595854",
"9 	c #64655F",
"0 	c #64655D",
"a 	c #65655D",
"b 	c #717169",
"c 	c #707169",
"d 	c #7B7C74",
"e 	c #7C7C74",
"f 	c #7D7D75",
"g 	c #85867E",
"h 	c #85877C",
"i 	c #86867C",
"j 	c #8E8E84",
"k 	c #8D8F84",
"l 	c #99998F",
"m 	c #98988E",
"n 	c #97998E",
"o 	c #A0A297",
"p 	c #A0A096",
"q 	c #9F9F95",
"r 	c #A8AA9F",
"s 	c #B2B2A8",
"t 	c #B0B2A5",
"u 	c #B9B9AD",
"v 	c #B8B8AC",
"w 	c #C0C0B4",
"x 	c #C7C7BB",
"y 	c #C6C6BA",
"z 	c #CECEC2",
"A 	c #D6D6CA",
"B 	c #D5D6C8",
"C 	c #DBDBCF",
"D 	c #DBDCCE",
"E 	c #E0E1D3",
"F 	c #E1E2D4",
"G 	c #E6E7D9",
"H 	c #E5E6D8",
"I 	c #ECEDDD",
"J 	c #ECEDDF",
"K 	c #F2F3E5",
"L 	c #F1F2E2",
"M 	c #F3F4E6",
"N 	c #F2F3E3",
"O 	c #EBECDE",
"P 	c #E7E8DA",
"Q 	c #CFCFC3",
"R 	c #B7B9AE",
"S 	c #AFB1A6",
"T 	c #B0B2A7",
"U 	c #A8AA9D",
"V 	c #A9AB9E",
"W 	c #9FA196",
"X 	c #8E8E86",
"Y 	c #86867E",
"Z 	c #7B7B73",
"` 	c #646560",
" .	c #282924",
"..	c #3C3D38",
"+.	c #3B3C36",
"@.	c #4A4B43",
"#.	c #4B4B43",
"$.	c #595951",
"%.	c #595853",
"&.	c #65655B",
"*.	c #717167",
"=.	c #7C7C72",
"-.	c #7C7C70",
";.	c #87877B",
">.	c #86867A",
",.	c #8E8E82",
"'.	c #8E8F81",
").	c #98998B",
"!.	c #A0A193",
"~.	c #A1A294",
"{.	c #B1B2A2",
"].	c #B2B3A3",
"^.	c #B8B9A9",
"/.	c #BAB9A7",
"(.	c #C2C1AF",
"_.	c #C9C8B6",
":.	c #D0CFBD",
"<.	c #D1D0BE",
"[.	c #D7D6C4",
"}.	c #D7D6C2",
"|.	c #DDDCCA",
"1.	c #DDDCC8",
"2.	c #E3E2CE",
"3.	c #E2E1CD",
"4.	c #E8E7D3",
"5.	c #EEEDD8",
"6.	c #EFEEDA",
"7.	c #F4F3DF",
"8.	c #F4F3DE",
"9.	c #EEEDD9",
"0.	c #B0B1A1",
"a.	c #707066",
"b.	c #656460",
"c.	c #3A3B35",
"d.	c #4B4B41",
"e.	c #656559",
"f.	c #717165",
"g.	c #7D7D71",
"h.	c #868779",
"i.	c #8E8F7F",
"j.	c #989989",
"k.	c #A0A191",
"l.	c #A9AA98",
"m.	c #B1B2A0",
"n.	c #B0B19F",
"o.	c #B8B9A7",
"p.	c #B7B8A6",
"q.	c #BAB9A5",
"r.	c #C2C1AD",
"s.	c #C3C2AE",
"t.	c #C9C8B4",
"u.	c #D0CFBB",
"v.	c #D7D6C1",
"w.	c #DDDCC7",
"x.	c #DCDBC6",
"y.	c #E2E1CC",
"z.	c #E8E7D2",
"A.	c #E8E8D0",
"B.	c #EEEED6",
"C.	c #F4F4DC",
"D.	c #F9F9E1",
"E.	c #E2E2CA",
"F.	c #D6D5C0",
"G.	c #D0CFBA",
"H.	c #65645F",
"I.	c #020100",
"J.	c #59594F",
"K.	c #3B3C34",
"L.	c #B8BAA5",
"M.	c #C0C2AD",
"N.	c #CAC7B4",
"O.	c #DEDCC5",
"P.	c #F7F9E1",
"Q.	c #C3C0AD",
"R.	c #989987",
"S.	c #3C3C34",
"T.	c #3C3B36",
"U.	c #4D4A43",
"V.	c #282923",
"W.	c #4D4A41",
"X.	c #B7BAA5",
"Y.	c #DDDDC5",
"Z.	c #4B4B3F",
"`.	c #F4F4DA",
" +	c #EEEED4",
".+	c #F9F9DF",
"++	c #A0A18F",
"@+	c #98988C",
"#+	c #A0A094",
"$+	c #B1B2A4",
"%+	c #B8B9AB",
"&+	c #C0C1B1",
"*+	c #C0C1B3",
"=+	c #C9C7BA",
"-+	c #C7C8B8",
";+	c #CECFBF",
">+	c #D0CEC1",
",+	c #D7D5C6",
"'+	c #D5D6C6",
")+	c #DDDBCC",
"!+	c #DBDCCC",
"~+	c #E0E1D1",
"{+	c #E2E0D1",
"]+	c #E8E6D7",
"^+	c #E6E7D7",
"/+	c #E8E7D5",
"(+	c #ECEDDB",
"_+	c #EEEDDB",
":+	c #F4F3E1",
"<+	c #F7F9E4",
"[+	c #F2F3E1",
"}+	c #D0CEBF",
"|+	c #C2C0B3",
"1+	c #020300",
"2+	c #A9A9A1",
"3+	c #FDFEF0",
"4+	c #A8A89E",
"5+	c #F9F7EA",
"6+	c #FEFEE4",
"7+	c #FFFFE5",
"8+	c #AAAB9B",
"9+	c #FAF9E7",
"0+	c #F6F8EB",
"a+	c #000200",
"b+	c #010101",
"c+	c #989890",
"d+	c #979890",
"e+	c #DBDCCA",
"f+	c #B7B8AA",
"g+	c #63645E",
"h+	c #66665E",
"i+	c #97998C",
"j+	c #B7BAA7",
"k+	c #DBDDC7",
"l+	c #F6F8E0",
"m+	c #B7B9AB",
"n+	c #BAB8AB",
"o+	c #FAF9E4",
"p+	c #FAF9E5",
"q+	c #63645C",
"r+	c #B8BAAD",
"      . . . + . . .                                                                                                                                                                                                                                                                         ",
"      . @ @ @ @ # . .                                                                                                                                                                                                                                                                       ",
"        + $ % & * +                                                                                                                                                                                                                                                                         ",
"        + = - ; > +                                                                                                                                                                                                                                                                         ",
"        # , ' ) ! #                                                                                                                                                                                                                                                                         ",
"        # , ~ ) { #                                                                                                                                                                                                                                                                         ",
"        # , ~ ) ! #                                                                                                                   #     ] ^ +                                                                                                                                           ",
"        # , / ) ! #                                                                                                                   @ & ( _ * +                                                                                                                                           ",
"        # , / ) ! #                                                                                                                   @ : - ) < #                                                                                                                                           ",
"        # , ' ) ! #                                                                                                                   @ : - ) < #                                                                                                                                           ",
"        + : ( [ < +                                                                                                                   @ & ( , < @                                                                                                                                           ",
". . . . + @ @ @ @ + + # # + + # # + + # # + + # # + + # # + + # # + + # # + + @ } @ @ } } @ @ @ @ @ @ @ @ @ @ @ @ @ @ @ @ @ @ @ @ @ @ @ @ | | @ @ @ @ @ @ @ @ @ @ @ @ @ @ @ @ @ @ @ @ @ @ @ @ @ @ @ @ @ @ + + + + + + # # + + # # + + # # + + # # + + + + + + . . + + + + + . . . . . . . . ",
". 1 1 1 2 3 3 4 5 6 7 # 8 9 0 a b c d e f g h i j k k l m n o p q r r * s t t u v v w w w x x y z z z A B C D D E F E G H G I J I K L M : & : & : K N K I O J G P G E E E C D C B A Q z z x x x w w w v v R S S T U V * q W W m l n k X X h h Y Z d d c c 0 9 ` + 7 7 6 6 6 2 2 2 1 1 1 . . ",
". 1  . ...2 +.6 @.#.$.# %.a &.&.*.*.=.=.-.;.>.>.,.'.'.).).).!.!.~.! ! ! {.{.].^.^./.(.(.(._._._.:.:.<.[.}.|.1.1.2.3.3.4.4.4.5.6.5.7.8.7.) , ) , ) 7.8.7.5.9.9.4.4.4.3.2.3.|.1.|.}.[.:.:.<._._._.(.(.(.^.^.^.{.{.0.! { > !.!.!.).).).'.,.,.>.>.i =.=.=.*.a.&.a b.# $.$.@.@.@.+.c.+. . .1 . . ",
". 1  . .2 +.+.@.#.d.$.# %.&.e.&.*.f.g.-.-.h.h.h.'.'.i.j.j.j.k.k.k.l.l.l.m.n.m.o.p.q.r.r.s.t.t.t.u.u.u.v.v.w.x.w.y.y.y.z.z.A.B.B.B.C.C.C.D.D.D.D.D.C.C.C.B.B.B.z.z.A.E.y.y.w.w.x.v.F.G.u.u.t.t.t.r.r.r.p.o.o.m.m.m.l.l.! k.k.k.j.j.j.i.'.'.h.h.>.-.-.-.f.f.&.a H.I.$.J.@.@.@.K.+.+. . .1 . . ",
". 1  . .2 +.+.#.#.d.$.# %.a &.&.*.f.-.-.-.h.h.h.'.'.'.j.j.j.k.k.k.l.l.l.m.m.m.o.o.L.M.r.r.N.N.t.u.u.u.v.v.O.O.w.y.y.y.z.z.A.B.B.B.C.C.C.D.D.D.P.P.C.C.C.B.B.B.z.z.z.y.y.y.w.w.w.v.v.G.u.u.t.t.N.Q.r.r.o.o.o.m.m.m.l.l.! !.k.k.j.j.R.i.'.'.h.h.>.-.-.-.f.f.&.a H.# $.J.#.#.@.K.S.T. . .1 . . ",
". 1  . .2 +.+.U.U.d.$.# %.a &.&.*.f.-.-.-.h.h.h.'.,.'.j.j.j.k.k.k.l.l.l.m.m.m.o.o.L.M.r.r.N.N.t.u.u.u.v.v.O.O.w.y.y.y.z.z.A.B.B.B.C.C.C.D.D.D.P.P.C.C.C.B.B.B.z.z.z.y.y.y.w.w.w.v.v.G.u.u.t.t.N.Q.r.r.o.o.o.m.m.m.l.l.! !.k.k.j.j.R.i.'.'.h.h.>.-.-.-.f.f.&.a H.# $.J.#.#.@.K.S.T.V. .1 . . ",
". 1  . .2 +.+.U.W.d.$.# 8 a &.&.*.f.-.-.-.h.h.h.'.'.'.j.j.j.k.k.k.l.l.l.m.m.m.o.o.X.M.r.r.t.t.t.u.u.u.v.v.Y.Y.w.y.y.y.z.z.A.B.B.B.C.C.C.D.) ) D.D.C.C.C.B.B.B.z.z.z.y.y.y.w.w.w.v.v.G.u.u.t.t.N.Q.r.r.o.o.o.m.m.m.l.l.! k.k.k.j.j.j.i.'.'.h.h.>.-.-.-.*.*.e.&.H.# $.J.#.#.@.K.K.+.V. .1 . . ",
". 1  . .2 +.K.#.W.d.$.# 8 a &.&.*.f.-.-.-.h.h.h.'.'.'.j.j.j.k.k.k.l.l.l.m.m.m.o.o.X.M.r.r.t.t.t.u.u.u.v.v.Y.Y.w.y.y.y.z.z.A.B.B.B.C.C.C.D.) ) D.D.C.C.C.B.B.B.z.z.z.y.y.y.w.w.w.v.v.G.u.u.t.t.N.Q.r.r.o.o.o.m.m.m.l.l.! k.k.k.j.j.j.i.'.'.h.h.>.-.-.-.*.*.e.&.H.# $.J.#.#.@.K.+.+.V.V.1 . . ",
". 1  . .2 +.K.#.d.Z.J.# 8 a &.&.*.f.-.-.-.h.h.h.'.'.'.j.j.j.k.k.k.l.l.l.m.m.m.o.o.L.M.r.r.t.t.t.u.u.u.v.v.w.w.w.y.y.y.z.z.A.B.B.B.C.C.C.D.D.D.D.D.C.C.`. +B.B.z.z.z.y.y.y.w.w.w.v.v.G.u.u.t.t.t.r.r.r.o.o.o.m.m.m.l.l.! k.k.k.j.j.j.i.'.'.h.h.>.-.-.-.f.f.&.a H.# $.J.#.#.@.K.+.+.V.V.1 . . ",
". 1  . .2 +.+.#.d.d.J.# 8 a &.&.*.f.-.-.-.h.h.h.'.'.'.j.j.j.k.k.k.l.l.l.m.m.m.o.o.L.M.r.r.t.t.t.u.u.u.v.v.w.w.w.y.y.y.z.z.A.B.B.B.C.C.C.D.D.D.D.D.C.C.`. +B.B.z.z.z.y.y.y.w.w.w.v.v.G.u.u.t.t.t.r.r.r.o.o.o.m.m.m.l.l.! k.k.k.j.j.j.i.'.'.h.h.>.-.-.-.f.f.&.a H.# $.J.#.#.@.K.+.+.V. .1 . . ",
". 1  . .2 +.+.#.d.d.$.# %.a &.&.*.f.-.-.-.h.h.h.'.'.'.j.j.j.k.k.k.l.l.l.m.m.m.o.o.L.M.r.r.t.t.t.u.u.u.v.v.w.w.w.y.y.y.z.z.A.B.B.B.C.C.C.D.D.D..+.+C.C.C.B.B.B.z.z.z.y.y.y.w.w.w.v.v.G.u.u.t.t.t.r.r.r.o.o.o.m.m.m.l.l.! k.++++j.j.j.i.'.'.h.h.>.-.-.-.f.f.&.a H.# $.J.#.#.#.S.T.3  . .1 . . ",
". 1  .1 2 2 2 5 5 #.%.# 8 H.a a b b =.e =.i i i j j j @+@+@+#+#+#+> > > $+$+$+%+%+%+&+*+&+=+-+=+;+>+;+,+'+)+!+)+~+{+~+]+^+/+(+_+(+:+:+7., , , , <+:+[+:+(+_+(+]+^+]+~+{+~+)+!+)+'+,+;+}+;+=+-+=+&+|+*+%+%+%+$+$+$+> > < #+#+!.@+@+@+,.j j i i i =.e =.b b a H.b.# %.$.5 #.#.S.T.T. . .1 . . ",
". . . . . . . # # . . . . . . . . . + . + + + + + + + + + + + + + + + + + + + + + + + + + # + # + # + # + # + # + # + # + # + # + # @ @ @ 1+| @ + # + # + # + # + # + # + # + # + # + # + # + # + # + + + + + + + + + . + + + + + + + + + + + + + . + . . . . . . . . + + @ @ @ @ + . . .   ",
"                              .                                                                                                       #     ] 2++                                                                                                         .             + ] 3+& 4++         ",
"                              .                                                                                                       @ 5+( = 4+#                                                                                                         .             + : - ; > +         ",
"                              .                                                                                                       @ 5+( <+* #                                                                                                         .             + , ' ) { #         ",
"                              .                                                                                                       # ]   & 2++                                                                                                         .             + , 6+) { #         ",
"                              .                                                                                                                                                                                                                           .             + , 7+) 8+#         ",
"                              .                                                                                                                                                                                                                           .             + , ' ) ! #         ",
"                              .                                                                                                                                                                                                                           .             + = - 9+< +         ",
"                              .                                                                                                                                                                                                                           #             + 0+% ] 2+.         ",
"                              .                                                                                                                                                                                                                           #           . @ + a+# # .         ",
"                              .                                                                                                                                                                                                                           .           . . . . . . . .       ",
"                              .                                                                                                                                                                                                                           .                                 ",
"                              .                                                                                                                                                                                                                           .                                 ",
"                              .                                                                                                                                                                                                                           .                                 ",
"                              .                                                                                                                                                                                                                           .                                 ",
"                              .                                                                                                                                                                                                                           .                                 ",
"                              .                                                                                                                                                                                                                           .                                 ",
"                              .                                                                                                                                                                                                                           b+                                ",
"                              .                                                                                                                                                                                                                           .                                 ",
"                              .                                                                                                                                                                                                                           .                                 ",
"                    . # # } @ @ @ + + .                                                                                                                                                                                                                   .                                 ",
"                    . c+v D & & D v d+` .                                                                                                                                                                                                       . + + + + # + + + .                         ",
"                    + m ^.1., , e+^.@+9 .                                                                                                                                                                                                       + @+^.!+= ; e+f+m g++                       ",
"                    + @+o.w.D.) w.o.).h++                                                                                                                                                                                                       + ).L.w.D.D.Y.o.).0 +                       ",
"                    + i+j+k+l+) w./.).a #                                                                                                                                                                                                       + ).L.w.D.D.w.o.).0 +                       ",
"                    + d+m+!+= : !+n+m H.#                                                                                                                                                                                                       + @+^.1.o+p+1.^.@+q++                       ",
"                    . . + + + + + # + . .                                                                                                                                                                                                       . d+r+D : & D u c+` .                       ",
"                                                                                                                                                                                                                                                . + + @ @ @ @ # # . .                       "};
