/* XPM */
static char * heatx_heatx_f_ht_4[] = {
"134 50 280 2",
"  	c None",
". 	c #000100",
"+ 	c #000000",
"@ 	c #000200",
"# 	c #F6F8EB",
"$ 	c #010000",
"% 	c #4A4B46",
"& 	c #4A4B45",
"* 	c #4B4B43",
"= 	c #4B4A45",
"- 	c #4B4A46",
"; 	c #010100",
"> 	c #F7F7EB",
", 	c #575852",
"' 	c #585951",
") 	c #595B50",
"! 	c #59594F",
"~ 	c #595951",
"{ 	c #59594D",
"] 	c #595853",
"^ 	c #3C3B37",
"/ 	c #64655F",
"( 	c #65655B",
"_ 	c #66665A",
": 	c #656559",
"< 	c #64645A",
"[ 	c #65645F",
"} 	c #65655D",
"| 	c #666560",
"1 	c #3C3B36",
"2 	c #707169",
"3 	c #717167",
"4 	c #717165",
"5 	c #727266",
"6 	c #707066",
"7 	c #717169",
"8 	c #85867E",
"9 	c #86867A",
"0 	c #868779",
"a 	c #85857D",
"b 	c #86867E",
"c 	c #5A5954",
"d 	c #3B3C36",
"e 	c #3C3C34",
"f 	c #3B3C37",
"g 	c #8D8E86",
"h 	c #8E8E82",
"i 	c #8E8F81",
"j 	c #8E8E86",
"k 	c #4A4B43",
"l 	c #494A42",
"m 	c #4C4C44",
"n 	c #4B4C44",
"o 	c #3C3D37",
"p 	c #3B3B39",
"q 	c #97998E",
"r 	c #98998B",
"s 	c #989989",
"t 	c #98988E",
"u 	c #020200",
"v 	c #4A4944",
"w 	c #9EA095",
"x 	c #A0A193",
"y 	c #A0A191",
"z 	c #A0A096",
"A 	c #7C7C70",
"B 	c #7B7C6E",
"C 	c #4A4A42",
"D 	c #B0B2A5",
"E 	c #B1B2A2",
"F 	c #B1B2A0",
"G 	c #B1B1A7",
"H 	c #B3B1A2",
"I 	c #8F9082",
"J 	c #B7B9AC",
"K 	c #B8B9A9",
"L 	c #B8B9A7",
"M 	c #B8B8AC",
"N 	c #BAB8A9",
"O 	c #B9B7A8",
"P 	c #B8B8AE",
"Q 	c #98988C",
"R 	c #858678",
"S 	c #C1C1B5",
"T 	c #C1BFB0",
"U 	c #C2C1AF",
"V 	c #C2C1AD",
"W 	c #BFBFB3",
"X 	c #C2C0B1",
"Y 	c #C0C0B4",
"Z 	c #A1A294",
"` 	c #8E8F7F",
" .	c #A9AA9A",
"..	c #A9AA98",
"+.	c #66665C",
"@.	c #C7C7BB",
"#.	c #C9C7B8",
"$.	c #C9C8B4",
"%.	c #C9C8B6",
"&.	c #C6C6BA",
"*.	c #A9AA9C",
"=.	c #989987",
"-.	c #B9BAA8",
";.	c #B1B2A4",
">.	c #D5D6C8",
",.	c #D7D6C4",
"'.	c #D7D6C1",
").	c #D5D5C9",
"!.	c #A0A18F",
"~.	c #707064",
"{.	c #3B3A36",
"].	c #DBDCCE",
"^.	c #DDDCC8",
"/.	c #DDDCC7",
"(.	c #DDDDC5",
"_.	c #DEDDC8",
":.	c #010200",
"<.	c #DDDCCA",
"[.	c #DCDCD0",
"}.	c #B0B1A1",
"|.	c #D0CFBB",
"1.	c #D0CFBD",
"2.	c #C7C8B8",
"3.	c #B8BAA5",
"4.	c #4B4B41",
"5.	c #E0E1D3",
"6.	c #E2E1CD",
"7.	c #E2E1CC",
"8.	c #E2E2CA",
"9.	c #E1E1C9",
"0.	c #E1E2D4",
"a.	c #E2E1CF",
"b.	c #E0E0D4",
"c.	c #B3B2A0",
"d.	c #C8C7B3",
"e.	c #BAB9A5",
"f.	c #9FA28F",
"g.	c #868777",
"h.	c #E6E7D9",
"i.	c #E8E7D3",
"j.	c #E8E7D2",
"k.	c #E8E8D0",
"l.	c #C0C1B1",
"m.	c #C0C1AF",
"n.	c #E7E6D1",
"o.	c #E9E8D3",
"p.	c #D7D6C2",
"q.	c #BAB9A7",
"r.	c #B0B3A0",
"s.	c #F2F3E5",
"t.	c #F4F3DF",
"u.	c #F4F4DC",
"v.	c #F3F3DB",
"w.	c #CAC9B7",
"x.	c #EEEDD8",
"y.	c #EEEED6",
"z.	c #EFEFD7",
"A.	c #EFEEDA",
"B.	c #F6F7E7",
"C.	c #FAF9E5",
"D.	c #F9F9E1",
"E.	c #FAFAE2",
"F.	c #F9F8E3",
"G.	c #F7F8EA",
"H.	c #F9F8E6",
"I.	c #D0CEBF",
"J.	c #F9F8E4",
"K.	c #FAF9E4",
"L.	c #ECEDDF",
"M.	c #C9C8B3",
"N.	c #FDFEEE",
"O.	c #FFFEEA",
"P.	c #FFFFE7",
"Q.	c #FFFEE5",
"R.	c #FFFFE5",
"S.	c #FFFEE9",
"T.	c #FDFDF3",
"U.	c #FDFEF0",
"V.	c #FFFDF0",
"W.	c #FFFDEE",
"X.	c #FFFEEC",
"Y.	c #020300",
"Z.	c #C7C9B4",
"`.	c #F8F9E9",
" +	c #FAF8DF",
".+	c #FFFFF3",
"++	c #FFFFF5",
"@+	c #FFFFF6",
"#+	c #FFFFF0",
"$+	c #FFFFF1",
"%+	c #030100",
"&+	c #030200",
"*+	c #F9F9DF",
"=+	c #F8F8E0",
"-+	c #F7F8E8",
";+	c #EEEDD9",
">+	c #87887A",
",+	c #F2F3E3",
"'+	c #F5F5DD",
")+	c #F4F3DE",
"!+	c #F1F2E4",
"~+	c #F4F3E1",
"{+	c #D1D0BE",
"]+	c #EDECD8",
"^+	c #EFEED9",
"/+	c #ECEDDD",
"(+	c #E9E8D4",
"_+	c #B2B3A3",
":+	c #A1A292",
"<+	c #727268",
"[+	c #E0E2CC",
"}+	c #E0E2CD",
"|+	c #C0C2AD",
"1+	c #DEDCC7",
"2+	c #DCDBC7",
"3+	c #E7E8DA",
"4+	c #717264",
"5+	c #DADBCD",
"6+	c #DBDDC8",
"7+	c #DBDBCF",
"8+	c #D0CFBA",
"9+	c #D8D7C3",
"0+	c #D8D7C5",
"a+	c #C8C7B5",
"b+	c #B2B3A1",
"c+	c #C8C7B2",
"d+	c #9FA08E",
"e+	c #C1C2B0",
"f+	c #AAAB9B",
"g+	c #B7B7AB",
"h+	c #888679",
"i+	c #737165",
"j+	c #BBBAA8",
"k+	c #999A8C",
"l+	c #8F9080",
"m+	c #88867A",
"n+	c #B1B1A5",
"o+	c #B3B1A4",
"p+	c #97998C",
"q+	c #8D8F81",
"r+	c #8D8E80",
"s+	c #A0A094",
"t+	c #67645B",
"u+	c #3C3D38",
"v+	c #A2A093",
"w+	c #A2A091",
"x+	c #9FA090",
"y+	c #86887B",
"z+	c #848679",
"A+	c #7C7C72",
"B+	c #7D7D73",
"C+	c #7C7D6F",
"D+	c #87877B",
"E+	c #9A988C",
"F+	c #9A988B",
"G+	c #64665B",
"H+	c #908E82",
"I+	c #908E81",
"J+	c #8E8E84",
"K+	c #8F8F85",
"L+	c #71706B",
"M+	c #86877F",
"N+	c #88857C",
"O+	c #3A3B36",
"P+	c #71726A",
"Q+	c #737067",
"R+	c #5A5A52",
"S+	c #282826",
"T+	c #4C4B46",
"U+	c #3D3C38",
"V+	c #64655D",
"W+	c #585953",
"X+	c #595854",
"Y+	c #4B4C46",
"Z+	c #494A44",
"`+	c #4B4C47",
" @	c #282924",
".@	c #292824",
"+@	c #272822",
"@@	c #282923",
"      .       +                                                                                                                                                                                                                                                             ",
"        @ #   +                                                                                                                                                                                                                                                             ",
"        @     +                                                                                                                                                                                                                                                             ",
"        .     +                                                                                                                                                                                                                                                             ",
"        .     +                                                                                                                                                                                                                                                             ",
"+ + + .     . + + + + + + + + +                                                                                                                                                                                       .       $                                             ",
"+ % & & * * = = * * $ - & & - $ $                                                                                                                                                                                       ;   > ;                                             ",
". , ' ) ! ! ~ ! { ! $ ] ' ' ] $ ^ $                                                                                                                                                                                     ;   > ;                                             ",
". / ( _ : : ( < : ( ; [ } } | $ = 1 $                                                                                                                                                                                   ;   > ;             +                               ",
". 2 3 4 4 5 4 4 4 6 ; 7 3 3 7 $ ~ * ^ $                                                                                                                                                                                 ;     ;             +                               ",
". 8 9 0 0 0 0 0 0 9 ; a 9 9 b $ ~ ~ c 1 d d ^ ^ d d ^ ^ d d ^ ^ d d ^ ^ d d ^ ^ d d ^ ^ d d ^ ^ d d ^ ^ d d ^ ^ d d ^ ^ d d ^ ^ d d ^ ^ d d ^ ^ d d ^ ^ d d ^ ^ d d ^ ^ d d ^ ^ d d ^ ^ d d ^ ^ d d ^ ^ d d ^ ^ d d ^ 1       e d d ^ ^ f f . f f                           ",
". g h i i i i i i h ; j h h j ; ( ( ~ ~ k k * * k k * * k k * * k k * * k k * * k k * * k k * * k k * * k k * * k k * * k k * * k k * * k k * * k k * * k k * * k k * * k k * * k k * * k k * * k k * * k l * m k k * = & & = * k k * * k n . & & o f f p                   ",
". q r s s s s s s r ; t r r t u 3 3 ( ( ( ( ( ( ( ( ( ( ( ( ( ( ( ( ( ( ( ( ( ( ( ( ( ( ( ( ( ( ( ( ( ( ( ( ( ( ( ( ( ( ( ( ( ( ( ( ( ( ( ( ( ( ( ( ( ( ( ( ( ( ( ( ( ( ( ( ( ( ( ( ( ( ( ( ( ( ( ( ( ( ( ( ( ( ( ( ( ( ( ( ( ( ( ( ( ( : ( ; [ } * * v = ^                 ",
". w x y y y y y y x ; z x x z ; A A 3 4 A A A A A A A A A A A A A A A A A A A A A A A A A A A A A A A A A A A A A A A A A A A A A A A A A A A A A A A A A A A A A A A A A A A A A A A A A A A A A A A A A A A A A A A A A A A A A A A A B A ; 7 3 ( ( } C * f f             ",
". D E F F F F F F E ; G H H G ; 9 0 A A i i i i i i i i i i i i i i i i i i i i i i i i i i i i i i i i i i i i i i i i i i i i i i i i i i i i i i i i i i i i i i i i i i i i i i i i i i i i i i i i i i i i i i h h i i i i i i i i I i ; b 9 4 3 3 ( ( * = f           ",
". J K L L L L L L K ; M N O P ; Q i 0 0 s s s s s s s s s s s s s s s s s s s s s s s s s s s s s s s s s s s s s s s s s s s s s s s s s s s s s s s s s s s s s s s s s s s s s s s s s s s s s s s s s s s s s s r r s s s s s s s s s r ; t Q R 9 9 4 4 ( * k d         ",
"; S T U V V V V V U ; W X U Y ; Z s s `  ........................................................................................................................................................................... . ................... .; z x s r R 0 4 4 +.* = p       ",
"; @.#.$.$.$.$.$.$.%.u @.%.%.&.; *.y y =.L L L L L L L L L L L L L L L L L L L L L L L L L L L L L L L L L L L L L L L L L L L L L L L L L L L L L L L L L L L L L L L L L L L L L L L L L L L L L L L L L L L L L L L L L L L L L L L L -.K ; G ;.y y s s 0 9 4 ( * f       ",
"; >.,.'.'.'.'.'.'.,.; ).,.,.).; E ....!.U V V V V V V V V V V V V V V V V V V V V V V V V V V V V V V V V V V V V V V V V V V V V V V V V V V V V V V V V V V V V V V V V V V V V V V V V V V V V V V V U U V V V V V V V V V V V V V V V U ; M K F F !.y s 0 4 ~.( * {.    ",
"; ].^./.(.(._././.^.:.].<.^.[.; }.F F ..|.|.|.|.|.|.|.|.|.|.|.|.|.|.|.|.|.|.|.|.|.|.|.|.|.|.|.|.|.|.|.|.|.|.|.|.|.|.|.|.|.|.|.|.|.|.|.|.|.|.|.|.|.|.|.|.|.|.|.|.|.|.|.|.|.|.|.|.|.|.|.|.|.|.|.|.|.|.|.|.|.|.|.|.|.|.|.|.|.|.|.|.|.|.|.|.|.1.; @.2.3.3.F !.y r 0 4 : 4.= p   ",
"; 5.6.7.7.7.8.8.9.6.:.0.a.6.b.; K L c.c.^././././././././././././././././././././././././././././././././././././././././././././././././././././././././././././././././././././././././././././././././././././././././././././././././.<.; ).%.d.e.L F f.s g.0 4 +.= f   ",
"; h.i.j.j.j.k.k.k.i.:.h.i.i.h.; l.m.U V j.j.j.j.n.j.j.j.j.j.o.o.j.j.j.j.j.j.j.j.j.j.j.j.j.j.j.j.n.j.j.j.j.j.o.o.j.j.j.j.j.j.j.j.j.j.j.j.j.j.j.j.n.j.j.j.j.j.o.o.j.j.j.j.j.j.j.j.j.j.j.j.j.j.j.j.n.j.j.j.o.o.j.j.n.n.j.j.j.j.j.j.j.j.j.j.j.i.:.].p.'.$.q.-.r.y s 0 4 ( * d   ",
"; s.t.u.u.u.u.u.v.t.:.s.t.t.s.:.w.$.$.$.x.y.y.y.y.y.y.y.y.y.y.y.z.y.x.x.y.y.y.y.y.y.y.y.y.y.y.y.y.y.x.x.y.y.y.y.z.y.y.y.y.y.y.y.y.y.x.x.y.y.y.y.y.y.y.y.y.y.y.y.z.y.x.x.y.y.y.y.y.y.y.y.y.y.y.y.y.y.x.x.y.y.y.y.y.y.y.y.y.y.y.y.y.y.y.y.y.A.:.h.^./.'.$.L F y s R 4 ( * d   ",
"; B.C.D.E.D.D.D.D.F.:.G.H.H.G.; I.1.1.1.J.F.F.F.F.F.F.F.F.F.F.F.F.F.J.J.J.F.F.K.F.F.F.F.F.F.F.F.F.F.J.J.J.F.F.F.F.F.F.F.F.F.F.K.F.F.J.J.J.F.F.F.F.F.F.F.F.F.F.F.F.F.J.J.J.F.F.K.F.F.F.F.F.F.F.F.F.F.J.J.J.F.F.D.D.D.D.D.D.D.D.D.D.D.D.D.D.F.:.L.i./.'.M.3.L E y r 0 ~.( k f ",
"; N.O.P.Q.Q.P.P.R.S.; T.U.U.T.; ).>.).>.N.N.N.N.N.N.N.N.N.N.N.N.N.N.U.N.N.N.N.N.N.N.N.N.N.N.N.N.N.N.U.N.N.N.N.N.N.N.N.N.N.N.N.N.N.N.U.N.N.N.N.N.N.N.N.N.N.N.N.N.N.N.U.N.N.N.N.N.N.N.N.N.N.N.N.N.N.N.U.U.V.W.X.S.P.R.P.P.R.R.P.P.R.R.P.P.R.S.Y.L.A.k./.'.Z.L E y s 0 5 ( k d ",
"; `.J.D. + +D.D.D.F.; ; :..+++@+; :.; .+#+$+:.:.:.$+.+$+:.:.:.$+$+$+:.:.:.$+.+$+:.:.:.$+#+$+:.:.:.$+.+$+:.:.:.$+$+$+:.:.:.$+.+$+:.:.:.$+#+$+:.:.:.$+.+$+:.:.:.$+$+$+:.:.:.$+.+$+:.:.:.$+#+$+:.:.:.$+.+.+%+%+&+J.D.*+D.D.D.*+D.D.D.*+D.D.=+F.:.-+;+k./.'.Z.L E y s >+4 ( k d ",
"; ,+t.'+u.u.)+u.u.)+:.!+~+~+s.; I.{+1.1.;+x.]+;+;+x.;+;+;+x.;+;+;+^+;+;+]+x.;+;+;+x.;+;+;+x.]+;+;+x.;+;+;+x.;+;+;+^+;+;+]+x.;+;+;+x.;+;+;+x.]+;+;+x.;+;+;+x.;+;+;+^+;+;+]+x.;+;+;+x.;+;+;+x.]+;+;+x.;+;+;+x.;+x.y.y.x.y.y.y.x.y.y.y.x.y.y.x.:./+;+k./.'.Z.L E y s 0 4 ( k d ",
"; h.(+k.k.k.j.j.k.i.:.h.i.i.h.:.%.$.$.$.j.k.j.j.j.k.j.j.j.k.j.j.j.k.j.j.j.k.j.j.j.k.j.j.j.k.j.j.j.k.j.j.j.k.j.j.j.k.j.j.j.k.j.j.j.k.j.j.j.k.j.j.j.k.j.j.j.k.j.j.j.k.j.j.j.k.j.j.j.k.j.j.j.k.j.j.j.k.j.j.j.k.j.j.j.k.j.j.j.k.j.j.j.k.j.j.j.i.:.L.i.(.'.$.L -._+:+s 0 <+( k d ",
"; 5.6.7.7.7.7.7.[+}+:.5.6.6.5.; m.|+U V /./.^./.1+1+^./.1+1+^./././.^./././.^./.1+1+^./.1+1+^./././.^./././.^./.1+1+^./.1+1+^./././.^./././.^./.1+1+^./.1+1+^./././.^./././.^./.1+1+^./.1+1+^./././.^./././.^./././.^./././.^./././.^././.2+:.3+^./.p.$.L F y s 0 4+( * d   ",
"; 5+<./././._././.6+; 7+<.<.7+; L 3.c.c.|.8+|.|.|.8+|.|.|.8+|.|.|.8+|.|.|.8+|.|.|.8+|.|.|.8+|.|.|.8+|.|.|.8+|.|.|.8+|.|.|.8+|.|.|.8+|.|.|.8+|.|.|.8+|.|.|.8+|.|.|.8+|.|.|.8+|.|.|.8+|.|.|.8+|.|.|.8+|.|.|.8+|.|.|.8+|.|.|.8+|.|.|.8+|.|.|.1.; 7+,.'.$.e.L F y s 0 4 ( * d   ",
"; >.,.p.'.'.p.p.'.9+; ).,.0+).; E F F ..|+|+U V V V U V V V U V |+|+U V |+|+U V V V U V V V U V |+|+U V |+|+U V V V U V V V U V |+|+U V |+|+U V V V U V V V U V |+|+U V |+|+U V V V U V V V U V |+|+U V |+|+U V |+|+U V |+|+U V |+|+U V |+m.; ).a+$.e.e.b+y r 0 9 4 ( = f   ",
"; @.%.$.$.c+$.$.$.%.u @.%.%.@.; E ....d+L 3.q.q.L 3.q.q.L 3.q.q.L 3.q.q.L 3.q.q.L 3.q.q.L 3.q.q.L 3.q.q.L 3.q.q.L 3.q.q.L 3.q.q.L 3.q.q.L 3.q.q.L 3.q.q.L 3.q.q.L 3.q.q.L 3.q.q.L 3.q.q.L 3.q.q.L 3.q.q.L 3.q.q.L L q.L L L L q.L 3.q.q.L L ; &.#.e.e.c.y y r 0 5 +.* = p   ",
"; Y X V |+|+U V V e+; Y m.m.Y ; *.y y =..... ....... ....... ....... ....... ....... ....... ....... ....... ....... ....... ....... ....... ....... ....... ....... ....... ....... ....... ....... ....... . . . . . . . . ....... .....f+; g+K F F y y s h+i+3 ( & f     ",
"; M N j+L L q.q.L L ; M K L M ; x s k+l+s s s s s s s s s s s s s s s s s s s s s s s s s s s s s s s s s s s s s s s s s s s s s s s s s s s s s s s s s s s s s s s s s s s s s s s s s s s s s s s s s s s s s s s s s s s s s s s s s r ; G E !.y s s 0 m+i+( * f       ",
"; n+o+H E E E F F E ; n+E E G ; p+q+9 9 i i i i i i i i i i i i i i i i i i i i i i i i i i i i i i i i i i i i i i i i i i i i i i i i i i i i i i i i i i i i i i i i i i i i i i i i i i i i i i i i i i i i i i i i i i i i ` ` i i r+i ; s+x s r 0 0 4 i+t+* * u+      ",
"$ s+v+w+y y y y y x+; z y y z ; y+z+A+B+A A A A A A A A A A A A A A A A A A A A A A A A A A A A A A A A A A A A A A A A A A A A A A A A A A A A A A A A A A A A A A A A A A A A A A A A A A A A A A A A A A A A A A A A A A A A C+C+A A A A ; t r 0 0 D+4 3 ( * * 1         ",
". t E+F+s s r s s r ; t k+r t ; A A 3 3 ( ( ( ( ( < ( ( ( ( ( ( ( ( ( ( ( ( ( ( ( ( ( ( ( ( ( ( ( ( ( ( ( ( ( ( ( ( ( ( ( ( ( ( ( ( ( ( ( ( ( ( ( ( ( ( ( ( ( ( ( ( ( ( ( ( ( ( ( ( ( ( ( ( ( ( ( ( ( ( ( ( ( ( ( ( ( ( +.( ( ( ( ( t+t+( ( ; b 9 4 4 3 G+G+k d f           ",
". g H+I+i ` i i i i ; J+i i K+; 3 4 ( ( * * = * * * = * * * = * * * * * * * = * * * = * * * = * * * * * * * = * * * = * * * = * * * * * * * = * * * = * * * = * * * * * * * = * * * = * * * = * * * * * * * = * * * = * * * = * * * = * * * $ L+3 ( +.} n k d f             ",
". M+N+m+0 >+9 0 0 9 u b 9 9 b ; ( ( ~ ~ d f f f f d O+f f d f f f d f f f f f f f d f f f d f f f d f f f f f f f d f f f d f f f d f f f f f f f d f f f d f f f d f f f f f f f d f f f d f f f d f f d d f f f d f f f d f f f d f ^ ^ 1 $ [ } * C = d f                 ",
". P+7 Q+4 4+4 4 4 3 $ L+3 4 7 $ R+~ ~ 1 S+                                                                                                                                                                                                  $ - T+1 U+^ f                   ",
". V+} ( : : ( ( ( ( $ [ ( ( [ $ ~ m f +                                                                                                                                                                                 ;     ;             + p u+                          ",
". W+~ ! ! ! ! ! ~ ~ $ X+~ ~ X+$ = 1 +                                                                                                                                                                                   ;   > ;             +                               ",
". & = * k k k l Y+Z+. % & & `++ f +                                                                                                                                                                                     ;   > ;             +                               ",
"+  @.@.@+@@@ @ @ @ @+ S+ @ @S++ +                                                                                                                                                                                       ;     $                                             ",
"+ + $ $     + + + + + + + + + +                                                                                                                                                                                       +       +                                             ",
"        .   +                                                                                                                                                                                                                                                               ",
"        ;   +                                                                                                                                                                                                                                                               ",
"        ;   +                                                                                                                                                                                                                                                               ",
"        .   +                                                                                                                                                                                                                                                               ",
"        .   + +                                                                                                                                                                                                                                                             "};
