/* XPM */
static char *HeatX_HeatX_E_HT_1CN[] = {
/* columns rows colors chars-per-pixel */
"147 53 104 2",
"   c #010100",
".  c #272725",
"X  c #272823",
"o  c #282723",
"O  c #282824",
"+  c #282828",
"@  c #3B3B36",
"#  c #3B3B39",
"$  c #4A4A43",
"%  c #4B4B48",
"&  c #57574D",
"*  c #58584E",
"=  c #575851",
"-  c #585752",
";  c #595851",
":  c #64645C",
">  c #646460",
",  c #6F6F65",
"<  c #706F6A",
"1  c #707066",
"2  c #717169",
"3  c #7B7C6E",
"4  c #7C7C70",
"5  c #858677",
"6  c #85867A",
"7  c #86887A",
"8  c #88867B",
"9  c #8D8E7E",
"0  c #908E7F",
"q  c #868580",
"w  c #8D8E81",
"e  c #8F9082",
"r  c #908E81",
"t  c #96968D",
"y  c #96988B",
"u  c #989987",
"i  c #989989",
"p  c #979890",
"a  c #9B9C92",
"s  c #9EA08E",
"d  c #9EA092",
"f  c #A19F92",
"g  c #A0A18E",
"h  c #A0A193",
"j  c #A0A098",
"k  c #AAAA96",
"l  c #A9AA99",
"z  c #AFB19C",
"x  c #B1B29E",
"c  c #B2B1A0",
"v  c #B3B3A9",
"b  c #B7B8A5",
"n  c #B6B8AA",
"m  c #B9B7A8",
"M  c #B9B8A6",
"N  c #B8B8AB",
"B  c #BFBFB3",
"V  c #BFC0AD",
"C  c #BFC0B0",
"Z  c #C1BFB0",
"A  c #C1C1AD",
"S  c #C1C1B3",
"D  c #C6C6BA",
"F  c #C7C8B4",
"G  c #C7C8B9",
"H  c #C8C7B3",
"J  c #C8C6BA",
"K  c #C9C8B3",
"L  c #CCCCBB",
"P  c #CED0BB",
"I  c #D0CEBB",
"U  c #CECEC1",
"Y  c #CFD0C1",
"T  c #D0CEC1",
"R  c #D6D5C1",
"E  c #D5D5C8",
"W  c #D6D8C3",
"Q  c #D8D6C2",
"!  c #DCDBC6",
"~  c #DCDCCA",
"^  c #DCDCD0",
"/  c #E7E7CF",
"(  c #E6E6D4",
")  c #E5E6D8",
"_  c #E6E8D4",
"`  c #E7E8DA",
"'  c #E8E6D2",
"]  c #E8E6D9",
"[  c #EDEDD5",
"{  c #EDEDDA",
"}  c #F3F3DC",
"|  c #F8F8DE",
" . c #EDEDE1",
".. c #F2F3E3",
"X. c #F6F6EC",
"o. c #F7F9E4",
"O. c #F7F8E9",
"+. c #F8F7E3",
"@. c #F9F7E8",
"#. c #F9F8E1",
"$. c #F8F9EA",
"%. c #F6F6F2",
"&. c #FCFCF4",
"*. c #FEFEFE",
/* pixels */
"*.*.*.  &.&.%.  &.*.*.*.*.*.*.*.*.*.*.*.*.*.*.*.*.*.*.*.*.&.*.*.*.*.*.*.*.*.*.*.*.*.*.*.*.*.*.*.*.*.*.*.*.*.*.*.*.*.*.*.*.*.*.*.*.*.*.*.*.*.*.*.*.*.*.*.*.*.*.*.*.*.*.*.*.*.*.*.*.*.*.*.*.*.*.*.*.*.*.*.*.*.*.*.*.*.*.*.*.*.*.*.*.*.*.*.*.*.*.*.*.*.*.*.*.*.*.*.*.*.*.*.*.*.*.*.*.*.*.*.*.*.*.*.*.*.*.",
"*.*.*.*.  &.%.  *.*.*.*.*.*.*.*.*.*.*.*.*.*.*.*.*.*.*.*.*.*.*.*.*.*.*.*.*.*.*.*.*.*.*.*.*.*.*.*.*.*.*.*.*.*.*.*.*.*.*.*.*.*.*.*.*.*.*.*.*.*.*.*.*.*.*.*.*.*.*.*.*.*.*.*.*.*.*.*.*.*.*.*.*.*.*.*.*.*.*.*.*.*.*.*.*.*.*.*.*.*.*.*.*.*.*.*.*.*.*.*.*.*.*.*.*.*.*.*.*.*.*.*.*.&.*.*.*.*.*.*.*.*.*.*.*.*.*.",
"*.*.*.*.  &.X.  *.*.*.*.*.*.*.*.*.*.*.*.*.*.*.*.*.*.*.*.*.*.*.*.*.*.*.*.*.*.*.*.*.*.*.*.*.*.*.*.*.*.*.*.*.*.*.*.*.*.*.*.*.*.*.*.*.*.*.*.*.*.*.*.*.*.*.*.*.*.*.*.*.*.*.*.*.*.*.*.*.*.*.*.*.*.*.*.*.*.*.*.*.*.*.*.*.*.*.*.*.*.*.*.*.*.*.*.*.*.*.*.*.*.*.*.*.*.*.*.*.*.*.*.*.*.*.*.*.*.*.*.*.*.*.*.*.*.*.",
"*.*.*.*.  &.&.  *.*.*.*.*.*.*.*.*.*.*.*.*.*.*.*.*.&.*.*.*.*.*.*.*.*.*.*.*.*.*.*.*.*.*.*.*.*.*.*.*.*.*.*.*.*.*.*.*.*.*.*.*.*.*.*.*.*.*.*.*.*.*.*.*.*.*.*.*.*.*.*.*.*.*.*.*.*.*.*.*.*.*.*.*.*.*.*.*.*.*.*.*.*.*.*.*.*.*.*.*.*.*.*.*.*.*.*.*.*.*.*.*.*.*.*.*.*.*.*.*.*.*.*.*.*.*.*.*.*.*.*.*.*.*.*.*.*.*.",
"*.*.*.&.  &.%.  *.*.*.*.*.*.*.*.*.*.*.&.*.*.*.*.*.*.*.*.*.*.*.*.*.*.*.*.*.*.*.*.*.*.*.*.*.*.*.*.*.*.*.*.*.*.*.*.*.*.*.*.*.*.*.*.*.*.*.*.*.*.*.*.*.*.*.*.*.*.*.*.*.*.*.*.*.*.*.*.*.*.*.*.*.*.*.*.*.*.*.*.*.*.*.*.*.*.*.*.*.*.*.*.*.*.*.*.*.*.*.*.*.*.*.*.*.*.*.*.*.*.*.*.*.*.*.*.*.*.*.*.*.*.*.*.*.*.*.",
"        &.*.&.                    *.*.*.*.*.*.*.*.  *.*.%.  *.*.*.*.*.*.*.*.*.*.*.*.*.*.*.*.*.*.*.*.*.*.*.*.*.*.*.*.*.*.*.*.*.*.*.*.*.*.*.*.*.*.*.*.*.*.*.*.*.*.*.*.*.*.*.*.*.*.*.*.*.*.*.*.*.*.*.*.*.*.*.*.*.*.*.*.*.*.*.*.*.*.*.*.*.*.*.*.*.*.*.*.*.*.*.*.*.*.*.*.                                  ",
"  @ @ @ @ @ # # @ @ #   # @ @ #     *.*.*.*.*.*.*.&.  &.X.  &.*.*.*.*.*.*.*.*.*.*.*.*.*.*.*.*.*.*.*.*.*.*.*.*.*.*.*.*.*.*.*.*.*.*.*.*.*.*.*.*.*.*.*.*.*.*.*.*.*.*.*.*.*.*.*.*.*.*.*.*.*.*.*.*.*.*.*.*.*.*.*.*.*.*.*.*.*.*.*.*.*.*.*.*.*.*.*.*.*.*.*.*.*.*.*.*.*.*.    # @ @ #   # # # # @ # # # @ @   ",
"  $ $ $ $ $ $ $ $ $ $   $ $ $ $   #   *.*.*.*.*.*.*.  &.X.  *.*.*.*.*.*.*.*.*.*.*.*.*.*.*.*.*.*.*.*.*.*.*.*.*.*.*.*.*.*.*.*.*.*.*.*.*.*.*.*.*.*.*.*.*.*.*.*.*.*.*.*.*.*.*.*.*.*.*.*.*.*.*.*.*.*.*.*.*.*.*.*.*.*.*.*.*.*.*.*.*.*.*.*.*.*.*.*.*.*.*.*.*.*.*.*.*.*.  #   $ $ $ %   $ $ $ $ $ $ $ $ $ $   ",
"  > > : : : : : : : :   > > > >   # #   *.*.*.*.*.&.  &.X.  *.*.*.*.*.*.*.*.*.*.*.*.*.*.*.*.*.*.*.*.*.*.*.*.*.*.*.*.*.*.*.*.*.*.*.*.*.*.*.*.*.*.*.*.*.*.*.*.*.*.*.*.*.*.*.*.*.*.*.*.*.*.*.*.*.*.*.*.*.*.*.*.*.*.*.*.*.*.*.*.*.*.*.*.*.*.*.*.*.*.*.*.*.*.*.*.*.  # #   > : : >   : : : : : : : : : >   ",
"  < < , < < 1 1 1 1 2   < < 2 2   $ # @   *.*.*.*.*.  &.X.  &.*.*.&.*.*.*.*.*.&.*.*.*.&.*.*.&.*.*.*.&.*.*.&.*.*.*.&.*.*.*.&.*.*.*.*.*.&.*.*.*.&.*.*.*.&.*.*.&.*.*.&.*.*.*.&.*.*.*.*.*.&.*.*.*.&.*.*.&.*.*.&.*.*.*.&.*.*.*.&.*.*.*.*.*.&.*.*.*.&.*.*.*.&.*.*.  # # $   < 1 < <   < 1 < 1 1 1 < 1 < 2   ",
"  4 4 4 4 4 4 4 4 4 4   4 4 4 4   = $ $ @ O X O O O &.&.&.O O O X X X X O X X X O O O O O O X X O O O O O O O O O O O O X O O O O O O O O O O O O O O O O O O O X O O O O O O O O O O O O O O O O O O O O O O O O O O O X O O O O O O O O O O O O O o O O   @ $ % -   4 4 4 4   4 4 4 4 4 3 4 4 4 4   ",
"  q 8 8 5 5 8 5 7 8 q   q 6 q 6   > & ; $ $ $ $ $ $ % $ $ $ $ $ $ $ $ $ $ $ $ $ $ $ $ $ $ $ $ $ $ $ $ $ $ $ $ $ $ $ $ $ $ $ $ $ $ $ $ $ $ $ $ $ $ $ $ $ $ $ $ $ $ $ $ $ $ $ $ $ $ $ $ $ $ $ $ $ $ $ $ $ $ $ $ $ $ $ $ $ $ $ $ $ $ $ $ $ $ $ $ $ $ $ $ $ $ @ $ - - >   6 5 8 q   8 7 5 7 7 7 5 7 q q   ",
"  e r r r r w w r r w   w e w w   2 : : * * * * ; * * * * * * * * * * * * & * * * & * * * * * * * * * * * * * * & * * * * * * * * & * * * * * & * * * * * * * * * * * * * & * * * & * * * * * * * * * * * * * * & * * * * * * * * & * * * * * * ; ; ; * ; $ ; : > 2   e e w t   e e w w e 9 e e w e   ",
"  p i i i i i u i i a   p p t t   2 1 2 : , 1 1 1 2 1 1 1 1 1 1 1 1 1 1 1 1 1 1 1 1 1 1 , 1 , , 1 1 1 1 1 1 1 1 1 1 1 1 1 1 1 1 1 1 1 1 1 1 1 1 1 1 1 1 1 1 1 1 1 1 1 1 1 1 1 1 1 1 1 1 1 1 1 1 1 1 1 1 1 1 1 1 1 1 1 1 1 1 1 1 1 1 1 1 1 1 1 1 2 1 1 1 < * : 1 < <   a y y p   p t t u i i i i t a   ",
"  f f f g g i h h h j   d d d a   4 4 1 1 3 3 4 4 3 4 4 3 4 3 4 3 3 3 3 3 3 3 3 3 3 3 3 3 3 3 3 3 3 3 3 3 3 3 3 3 3 3 3 3 3 3 3 3 3 3 3 3 3 3 3 3 3 3 3 3 3 3 3 3 3 3 3 3 3 3 3 3 3 3 3 3 3 4 4 3 3 3 3 3 3 3 3 3 3 3 3 3 3 3 3 3 3 3 3 3 3 4 3 3 4 3 3 3 : 1 1 4 4   d d d d   d d d d h g h h d a   ",
"  v v v c c v x x c v   v v v v   7 7 3 3 0 r r r r r 0 r 9 e r 9 9 e e 0 9 e e 9 e 9 0 e 9 e e r e e 9 9 e 9 e 0 9 r e 9 9 e 9 r 9 9 0 e 9 e e 9 9 e 9 e e r 0 e 9 e e 9 9 e e r 9 9 0 w w 9 w r e e 9 9 e 9 e 0 9 r e 9 9 e 9 r 9 9 0 w w w w w w w 9 9 , 3 3 6 7   v c x v   v c c x x c c c v c   ",
"  B M M M M M M m N N   N N N N   a e 5 5 i i i i i i i i i u i s 0 s u u u s u u u y u i i i i i i u i i i i i i i i i i i i i i i i i i i i i i i i i i u i i i i i i u i i i i i i i i i i u u i i i i i i i i i i i i i i i i i i u i i i u i i s u i 3 7 5 w p   B n n B   n m n M M M M M N N   ",
"  C A A S Z H A A C Z   Z Z Z Z   d y y 9 l l l l k l k k l l k k k k k l l l l l l l l l l l l l l l l l l l l l l l l l l l l l l l l l l l l l l l l l l l l l l l k l l l l l l l l l l l l l l l k l l l l l l l l l l l l k l l l l l l l k l k l l 5 e i a a   C Z Z S   B B A A V V A A S C   ",
"  D K K K F K K K G D   U D J J   d d s u c c x c x x x x x x x x x x x z c c c c z z x c c c c x c x x x x x x x x x x x x x x x c c c x c c c x v x x c x x x x c c x x x x c x c x x x c c x c c c c x x x x x c x c x x x x c x c x c x c x z x x x z u i d d d   D J K J   G K J K K K K K D G   ",
"  U I I L L I I I L U   U L T T   l l s s S V S V V V A V A V V A A A A V C V C V V V V V C V V Z Z Z Z H Z Z Z A Z Z Z Z H A A V A A A A A A A A A A A Z Z A A Z H Z Z Z A A Z A A A A Z H Z Z Z Z Z Z H Z Z Z Z H Z A A A A A A A A V A A V A V A A A V s d s l l   U I L U   E L I I I I I L L U   ",
"  E Q R Q Q I Q Q Q E   E W E E   v c l k K K K K K K K F F K K I K K I I I I I F F F K K K K K K K K K K K K L K K K K K K K I K K K K K J K K K K K H K K K K K K K K K K K K K K K H K I K I K K K K K K K K K K K K K K K H K K K K K K K K I I K K F k l l v c   E W W E   R R Q Q Q P Q Q W E   ",
"  ^ ! ! ! ! ! ! ! ! ^   ^ ~ ~ ^   n N c x Q Q Q Q Q Q Q I ! ! I ! I I I I I I I W W Q Q R Q R R Q Q Q Q Q Q Q I Q Q Q Q ! I I ! Q Q Q Q ! Q I I Q Q Q Q Q Q Q Q Q Q Q Q Q Q Q Q Q Q Q Q I ! I I I ! Q Q ! I Q Q I ! Q Q Q Q Q Q Q Q Q Q Q Q R Q I I I I Q x x c B n   ~ ~ ! ~   ~ E ! ! ! ! ! ! ~ ^   ",
"  ) ( ' [ ' ' ' ' ' `   ) ) ] ]   C S M M ! ! ! ! ! ! ! ! ! / I ! ! ! ! ! ! ! ! ! ! ! ! ! ! ! ! ! ! ! ! ! ! ! ! ! ! ! ! ! ! ! ! ! ! ! ! ! ! / ! ! ! ! ! ! ! ! ! ! ! ! ! ! ! ! ! ! ! ! ! ! ! ! ! ! ! ! ! ! ! ! ! ! ! ! ! ! ! ! ! ! ! ! ! ! ! ! ! / ! ! / ! M M M S C   ` ` _ `   ` _ ' ' [ / ' ' _ _   ",
"  { { [ [ [ { [ { { {   { { { {   C S A A ' ' ' ' ' ' / [ / / [ ' ' ' ' ' ' ' ' [ ' ' ' ' ' ' ' ' ' ' ' ' ' ' ' ' ' ' ' ' ' ' ' ' ' ' ' ' ' ' ' ' ' ' ' ' ' / [ ' ' ' ' ' ' ' ' ' ' [ ' ' ' ' ' ' ' ' ' ' ' ' ' ' ' ' ( ' ' / [ ' ' ' ' ' ' ' ' / / ' ' ' A A A C C   { } [ {    .{ [ { [ [ [ [ {  .  ",
"  O...} } } } } } } O.  ........  D K K K { { { [ [ [ [ [ [ [ [ [ [ [ [ [ [ [ [ [ [ [ [ [ [ [ [ [ [ [ [ [ [ [ [ [ [ [ [ [ [ [ [ [ [ [ [ [ [ [ [ [ [ [ [ [ [ [ [ [ [ [ [ [ [ [ [ [ [ [ [ [ [ [ [ [ [ [ [ [ [ [ [ [ [ [ [ [ [ [ [ } [ [ [ [ [ [ [ [ [ [ [ [ K K K F G   ....} O.  ..} } } } } } ..} ..  ",
"  @.#.#.| #.#.| #.#.O.  O.#.#.@.  E L I I #.#.#.#.#.#.#.#.#.#.#.#.#.#.#.#.#.#.#.#.#.#.#.#.#.#.#.#.#.#.#.#.#.#.#.#.#.#.#.#.#.#.#.#.#.#.#.#.#.#.#.#.#.#.#.#.#.#.#.#.#.#.#.#.#.#.#.#.#.#.#.#.#.#.#.#.#.| #.#.#.#.#.#.#.#.#.#.#.#.#.| #.#.#.#.#.#.#.| | #.#.@.I I I Y Y   $.o.o.$.  @.#.#.#.| #.#.#.o.X.  ",
"  X.#.| #.| #.#.#.o.$.  #.o.#.@.  E W W I #.#.#.#.#.#.#.#.#.#.#.#.#.#.#.#.#.#.#.#.#.#.#.#.#.| #.#.#.#.#.#.#.#.#.#.#.#.| #.#.#.#.#.#.#.#.#.#.| | | | #.#.#.#.#.#.#.#.#.#.#.#.#.#.#.#.#.#.#.#.#.| #.#.#.#.#.#.#.#.#.#.#.| #.| | #.| #.#.#.#.#.| #.| | #.#.#.Q I ! E E   $.#.@.O.  X.o.#.| #.#.#.#.o.X.  ",
"  ..} } } } } } } } ..  ........  U I I I } [ [ [ [ [ [ [ [ [ [ [ [ [ [ [ [ [ [ [ [ [ [ [ [ [ [ [ [ [ [ [ [ [ [ [ [ [ [ [ [ [ [ [ [ [ [ [ [ [ [ [ [ [ } [ [ [ [ [ [ [ [ [ [ [ [ [ [ [ [ [ [ [ [ [ [ [ [ [ [ [ [ [ [ [ [ } [ [ [ [ [ [ [ [ [ [ [ [ [ [ } [ I I I L U   ..} } ..  ....} } } } } } } ..  ",
"  { [ [ [ [ [ [ [ { {   { { { {   D G F K ' ' / ' / / [ [ / / ' [ / / ' / / / / [ ' ' ' [ / / ' / ' / / ' ' ' ' [ / ' ' ' ' ' ' ' ' [ ' ' ' [ / ' ' / / ' ' [ / ' ' [ ' ' ' ' ' ' ' / / / ' / / ' / / / ' ' ' ' [ / / / ' ' ' / [ / ' ' ' ' ' ' ' ' ' ' [ K K K D G    .[ [  .  { { [ [ [ { [ [ {  .  ",
"  ` ' [ [ / / / ' ( `   ` ' ` `   C A S A ! ! ! ! ! ! / ! ! ! ! ! / ! ! ! ! ! / ! ! ! ! ! ! ! ! ! ! ! / ! ! ! ! ! ! ! ! ! ! ! ! ! ! ! ! ! ! ! ! ! ! ! / ! ! ! ! ! ! ! ! ! ! ! ! ! ! ! / ! ! ! / ! ! ! / ! ! ! ! I / ! ! ! ! ! / ! ! ! ! ! ! ! ! ! ! ! ! ! Z Z A S C   { _ _ `   ` ' / / [ _ ' ' _ `   ",
"  ^ / ! ! ! ! ! ! ! ~   ^ ~ ~ ^   C S M M Q Q Q I ! I I ! I I ! I I ! I I ! I ! I I I I I ! ! I I ! I I ! I I ! I ! Q I Q Q Q Q Q Q Q I I I I I I I ! I I I ! I Q Q Q I Q I Q Q I I I I I I ! I I ! I I I I I ! I ! I I I ! I I ! I I I Q Q Q I Q Q Q Q R M m N S S   ^ ~ ! ~   ^ ~ ! ! W ! ! ~ ~ ^   ",
"  E I ! I ! I Q Q W E   E E Q E   N N c x K K K K K K K K K K K K K K K K K K K I K I I K K K K K K K K I K K K K K K K K K K K K K K K I K I I I K K K I K K K K K K K K K K K I I I K I K K K K K K I I K K I K K I K K I K K I K K I K K F K K K K K G x c x N N   E E Q E   Y W W Q Q W Q W W E   ",
"  U U L I I I I I I U   E L I E   v c k l A F V V A A A A A A A A A A A A A A A A A Z A A A A A A Z A A A A Z A A Z A A A A A A Z A A A Z A A A A A A Z A A A A Z A A A Z A A A A A A Z A A A A A A Z A A A A A A A A A A A Z A A Z A Z Z A A A A Z A A A l l l v v   U I I U   U L I I I I I I P R   ",
"  L J K K K K K H K L   D G J D   l l s g c x x x x x x c c c c x x x x c x x x x x x x x x x x x x x x x x x x x x c c x x x x x c x x x x x x x x x x x x x x x c x x x x x x x x x x x x x x x x x x x c c x x v x x x x x x x x x x x x x x x x x x c s h h l l   J K J D   D D K F F K K K G D   ",
"  Z S A A A A A V S C   B S Z Z   d d d i l l l l l l l l l l l l l l l l l l l l l l l l l l l l l l l l l l l l l l l l l l l l l l l l l l l l l l l l l l l l l l l l l l l l l l l l l l l z l l l l l l l l l l l l l l l k k k k k l l k k k k k l i i h a j   C A A Z   S S A A S V V V C C   ",
"  N m M M M m m b M N   n n N n   d i i 9 i i i i i i i u u u u i i i i i i i i i i i i i i i i i i i i i i i i i i i i i i i i i i i i i i i i i i i i i i i i i i i i i i i i i i i i i i i i i u i i i i i i u u u u i i i i i i i i i i i i u g u i i 5 w i i h   N N N B   N N N M b M N v N n   ",
"  v v c c c m c v v v   v v v c   a e 5 7 r 9 w 0 0 r r e e e e r r w r e e w w w 9 w w r r r w w w w w w w w w 0 r r r w w w w 0 r r r w w w w r r r w w w w w 0 r r r w w w w r r r w w w w w r r r r 0 0 r r e e 9 w w w e e 0 r w w w w w w e r 9 e w 3 5 8 w p   v v v v   v v c c c c c c v v   ",
"  f f f f f h i i j d   a d a d   q 5 3 3 4 4 3 3 3 4 3 3 3 4 4 4 4 3 4 3 3 3 4 4 4 4 4 4 4 4 4 4 4 4 3 4 3 3 4 4 3 4 4 4 3 4 4 4 4 4 4 4 4 3 4 4 4 4 4 4 3 3 3 4 4 4 4 4 4 3 4 4 4 4 4 4 3 3 3 4 4 4 4 4 4 4 3 4 4 3 4 3 3 3 4 4 4 4 4 4 3 4 3 4 3 4 3 4 1 3 4 8 q   h s d a   d d d d d d d d a j   ",
"  a p p u i i i t i p   t p p a   4 3 1 1 1 1 1 1 1 1 1 1 1 1 1 < 1 < 1 1 1 < 1 1 1 1 2 1 1 1 1 1 1 < 1 1 1 1 1 1 1 1 1 1 1 1 1 1 2 1 1 1 1 2 1 1 1 1 1 1 < 1 1 1 2 1 1 1 1 2 1 1 1 1 1 1 < 1 1 1 1 1 1 2 1 1 1 1 1 < 1 1 1 1 1 2 1 1 1 1 1 1 2 1 1 1 1 1 : 1 < 4 4   p u u p   t t t i i u u u i p   ",
"  e r r 0 9 w 9 e e e   e w w w   < 1 1 : * ; ; * ; ; ; ; * ; ; ; * ; * ; * ; * ; * ; * ; * ; * ; * ; * ; * ; * ; * ; ; ; * ; * ; * ; * ; * ; * ; * ; * ; * ; & ; * ; * ; * ; * ; * ; * ; * ; & ; * ; * ; * ; * ; * ; * = * * * ; * ; * ; ; ; ; ; * ; & * * : 1 1 <   w w w e   e e e e e e e e w w   ",
"  q 5 5 5 5 5 5 7 6 7   6 q q q   2 : : ; $ $ $ $ $ $ $ $ $ $ $ $ $ $ $ $ $ $ $ $ $ $ $ $ $ $ $ $ $ $ $ $ $ $ $ $ $ $ $ $ $ $ $ $ $ $ $ $ $ $ $ $ $ $ $ $ $ $ $ $ $ $ $ $ $ $ $ $ $ $ $ $ $ $ $ % $ $ $ $ $ $ $ $ $ $ $ $ $ $ $ $ $ $ $ $ $ $ $ $ $ $ $ $ $ * : : 2   q 8 8 q   8 5 8 8 5 5 7 8 8 6   ",
"  4 3 3 3 3 3 3 3 4 4   4 4 4 4   : - - $ O + O O O O O O O O O O O O O O O O O O O O O O O O O O O O O O O O O O O O O O O O O O O O O O O O O O O O O O O O O O O O O O O O O O O O O O O O O O O O O o o o O O o o o X O + X X + X o O O O O O X O O + @ $ ; ; :   4 3 3 4   4 4 4 3 3 3 3 3 4 4   ",
"  2 1 1 , 1 , 1 1 , 1   2 2 2 2   = $ $ # X *.&.*.*.*.*.*.*.*.&.&.*.*.*.*.*.*.*.*.*.*.*.*.*.*.&.*.&.*.*.*.*.*.*.*.*.*.*.*.*.*.*.*.*.*.&.*.*.*.*.*.*.*.*.*.*.*.*.*.*.*.&.*.*.*.*.*.*.*.*.*.*.*.*.*.*.*.*.*.*.*.*.*.*.&.*.*.*.*.*.*.&.*.*.*.*.*.*.*.*.*.&.*.  # % $ -   < , < 2   2 < 1 1 1 1 1 1 2 <   ",
"  > : : : : : : : : :   > > > >   % # #   *.*.*.*.*.*.*.&.*.*.*.*.*.*.*.*.*.*.*.*.*.*.*.*.*.*.*.*.*.*.*.*.*.*.*.*.*.*.*.*.*.*.*.*.*.*.*.*.*.*.*.*.*.*.*.*.*.*.*.*.*.*.*.*.*.*.*.*.*.*.*.*.*.*.*.*.*.*.*.*.*.*.*.*.*.*.*.*.*.*.*.*.*.*.*.  *.%.  *.*.*.*.*.*.  # # %   > : : >   > : : : : : : : : >   ",
"  % $ $ $ $ $ $ $ $ $   % % % %   # #   *.*.*.*.*.*.*.*.*.*.*.*.*.*.*.*.*.*.*.*.*.*.*.*.*.*.*.*.*.*.*.*.*.*.*.*.*.*.*.*.*.*.*.*.*.*.*.*.*.*.*.*.*.*.*.*.*.*.*.*.*.*.*.*.*.*.*.*.*.*.*.*.*.*.*.*.*.*.*.*.*.*.*.*.*.*.*.*.*.*.*.*.*.*.*.*.  *.%.  *.*.*.*.*.*.*.  # #   $ $ $ $   % $ $ $ $ $ $ $ % %   ",
"  # @ # @ @ @ @ # # #   # # # #   #   *.*.*.*.*.*.*.*.*.*.*.*.*.*.*.*.*.*.*.*.*.*.*.*.*.*.*.*.*.*.*.*.*.*.*.*.*.*.*.*.*.*.*.*.*.*.*.*.*.*.*.*.*.*.*.*.*.*.*.*.*.*.*.*.*.*.*.*.*.*.*.*.*.*.*.*.*.*.*.*.*.*.*.*.*.*.*.*.*.*.*.*.*.*.*.*.*.  *.%.  &.*.*.*.*.*.&.*.  #   # # # #   # # # # @ # @ @ @ @   ",
"  + + X + X O X + + +   X + + .     *.*.*.*.*.*.*.*.*.*.*.*.*.*.*.*.*.*.*.*.*.*.*.*.*.&.*.*.*.*.*.*.*.*.*.*.*.&.*.*.*.*.*.*.*.*.*.*.*.*.*.*.*.*.*.*.*.*.*.*.*.*.*.*.*.*.*.*.*.*.*.*.*.*.*.*.*.*.*.*.*.*.*.*.*.*.*.*.*.&.*.*.*.*.*.*.*.*.  *.%.  *.*.*.*.*.*.*.*.*.    + . o .   . . O O O O o + . X   ",
"                                  *.*.*.*.*.*.*.*.*.*.*.*.*.*.*.*.*.*.*.*.*.&.*.*.*.*.*.*.*.*.*.*.*.*.*.*.*.*.*.*.*.*.&.*.*.*.*.*.*.*.*.*.*.&.*.*.*.&.*.*.*.*.*.*.*.*.*.*.*.&.*.*.*.&.*.*.*.*.*.*.*.*.*.*.*.*.*.*.*.*.*.*.*.*.*.*.*.*.  *.*.*.  *.*.*.*.*.*.*.*.*.*.                  *.*.&.          ",
"*.*.*.*.*.*.*.*.*.*.*.*.*.*.*.*.*.*.*.*.*.*.*.*.*.*.*.*.*.*.*.*.*.*.*.*.*.*.*.*.*.*.*.*.*.*.*.*.*.*.*.*.*.*.*.*.*.*.*.*.*.*.*.*.*.*.*.*.*.*.*.*.*.*.*.*.*.*.*.*.*.*.*.*.*.*.*.*.*.*.*.*.*.*.*.*.*.*.*.*.*.*.*.*.*.*.*.*.*.*.*.*.*.*.*.*.*.*.*.*.*.*.*.*.*.*.*.*.*.*.*.*.*.*.*.*.*.*.*.  *.%.  *.*.*.*.",
"*.*.*.*.*.*.*.*.*.*.*.*.*.*.*.*.*.*.*.*.*.*.*.*.*.*.*.*.*.*.*.*.*.*.*.*.*.*.*.*.*.*.*.*.*.*.*.*.*.*.*.*.*.*.*.*.*.*.*.*.*.*.*.*.*.*.*.*.*.*.*.*.*.*.*.*.*.*.*.*.*.*.*.*.*.*.*.*.*.*.*.*.*.*.*.*.*.*.*.*.*.*.*.*.*.*.*.*.*.*.*.*.*.*.*.*.*.*.*.*.*.*.*.*.*.*.*.*.*.*.*.*.*.*.*.&.*.*.*.  &.%.  *.*.*.*.",
"*.*.*.*.*.*.*.*.*.*.*.*.*.*.*.*.*.*.*.*.*.*.*.*.*.*.*.*.*.*.*.*.*.*.*.*.*.*.*.*.*.*.*.*.*.*.*.*.*.*.*.*.*.*.*.*.*.*.*.*.*.*.*.*.*.*.*.*.*.*.*.*.*.*.*.*.*.*.*.*.*.*.*.*.*.*.*.*.*.*.*.*.*.*.*.*.*.*.*.*.*.*.*.*.*.*.*.*.*.*.*.*.*.*.*.*.*.*.*.*.*.*.*.*.*.*.*.*.*.*.*.*.*.*.*.*.*.*.*.  &.%.  *.*.*.*.",
"*.*.*.*.*.*.*.*.*.*.*.*.*.*.*.*.*.*.*.*.*.*.*.*.*.*.*.*.*.*.*.*.*.*.*.*.*.*.*.*.*.*.*.*.*.*.*.*.*.*.*.*.*.*.*.*.*.*.*.*.*.*.*.*.*.*.*.*.*.*.*.*.*.*.*.*.*.*.*.*.*.*.*.*.*.*.*.*.*.*.*.*.*.*.*.*.*.*.*.*.*.*.*.*.*.*.*.*.*.*.*.*.*.*.*.*.*.*.*.*.*.*.*.*.*.*.*.*.*.*.*.*.*.*.*.*.*.*.*.  *.%.  *.*.*.*.",
"*.*.*.*.*.*.*.*.*.*.*.*.*.*.*.*.*.*.*.*.*.*.*.*.*.*.*.*.*.*.*.*.*.*.*.*.*.*.*.*.*.*.*.*.*.*.*.*.*.*.*.*.*.*.*.*.*.*.*.*.*.*.*.*.*.*.*.*.*.*.*.*.*.*.*.*.*.*.*.*.*.*.*.*.*.*.*.*.*.*.*.*.*.*.*.*.*.*.*.*.*.*.*.*.*.*.*.*.*.*.*.*.*.*.*.*.*.*.*.*.*.*.*.*.*.*.*.*.*.*.*.*.*.*.*.*.*.*.*.  &.*.  *.*.*.*."
};
