/* XPM */
static char *hetran_hetran_j21_ht2[] = {
/* columns rows colors chars-per-pixel */
"142 60 108 2",
"   c #000000",
".  c #262624",
"X  c #272822",
"o  c #282723",
"O  c #282824",
"+  c #282828",
"@  c #3B3B36",
"#  c #3B3B38",
"$  c #4A4A43",
"%  c #4A4A48",
"&  c #57574F",
"*  c #57594E",
"=  c #58584E",
"-  c #565751",
";  c #575852",
":  c #585752",
">  c #595851",
",  c #64655B",
"<  c #68655C",
"1  c #646560",
"2  c #6F6F67",
"3  c #6F7164",
"4  c #6F7068",
"5  c #707165",
"6  c #717169",
"7  c #7B7C6E",
"8  c #7C7C71",
"9  c #858676",
"0  c #858679",
"q  c #86887B",
"w  c #89877A",
"e  c #8D8E7E",
"r  c #8D8E81",
"t  c #8F9081",
"y  c #908E81",
"u  c #909084",
"i  c #96978B",
"p  c #979886",
"a  c #969889",
"s  c #989987",
"d  c #98998A",
"f  c #9B9C91",
"g  c #9EA091",
"h  c #9FA098",
"j  c #A19F90",
"k  c #A0A18E",
"l  c #A0A091",
"z  c #A0A098",
"x  c #A7A99C",
"c  c #ABAA96",
"v  c #A9A99A",
"b  c #B1B29E",
"n  c #AAAAA0",
"m  c #B1B1A1",
"M  c #B4B4A9",
"N  c #B6B9A6",
"B  c #B7B8AA",
"V  c #B9B7A8",
"C  c #B8B9A6",
"Z  c #B8B8AA",
"A  c #BFBFB3",
"S  c #BFC1AC",
"D  c #C1C1AD",
"F  c #C1C1B2",
"G  c #C7C7BB",
"H  c #C7C8B4",
"J  c #C7C8B8",
"K  c #C8C6B4",
"L  c #C9C7B8",
"P  c #C9C8B4",
"I  c #CCCBBB",
"U  c #CFD0BE",
"Y  c #D0CEBB",
"T  c #D3D3BD",
"R  c #CDCEC2",
"E  c #D6D5C1",
"W  c #D5D5C8",
"Q  c #D7D8CA",
"!  c #D8D6C3",
"~  c #D8D6C9",
"^  c #DCDCC6",
"/  c #DCDBC9",
"(  c #DADAD0",
")  c #E7E7CF",
"_  c #E8E8CE",
"`  c #E5E6D4",
"'  c #E6E6D9",
"]  c #E7E8D8",
"[  c #E8E6D2",
"{  c #E8E6D9",
"}  c #ECECD4",
"|  c #EDECD9",
" . c #F3F3DD",
".. c #F9F9DF",
"X. c #ECECE0",
"o. c #F3F3E3",
"O. c #F6F7EF",
"+. c #F6F8E3",
"@. c #F7F8E9",
"#. c #F8F7E2",
"$. c #F9F7E8",
"%. c #FAFAE3",
"&. c #FBFBE9",
"*. c #F5F6F3",
"=. c #F7F8F1",
"-. c #F8F7F2",
";. c #FCFDF5",
":. c #FEFEFE",
/* pixels */
":.:.:.:.:.:.:.:.:.:.:.:.:.:.:.:.:.:.:.:.:.:.:.:.:.:.:.                                                                                                                                                                                    :.:.:.:.:.:.:.:.:.:.:.:.:.:.:.:.:.:.:.:.:.:.:.:.:.",
":.:.:.:.:.:.:.:.:.:.:.:.:.:.:.:.:.:.:.:.:.:.:.:.:.:.:.  :.:.:.:.:.:.:.:.:.:.:.:.:.:.:.:.:.:.:.:.:.:.:.:.:.:.:.:.:.:.:.:.:.:.:.:.:.:.:.:.:.:.:.:.:.:.:.:.:.:.:.:.:.:.:.:.:.:.:.:.:.:.:.:.:.:.:.:.:.:.:.:.:.:.:.:.:.:.:.:.:.:.:.:.:.:.:.:.  :.:.:.:.:.:.:.:.:.:.:.:.:.:.:.:.:.:.:.:.:.:.:.:.:.",
":.:.:.:.:.:.:.:.:.:.:.:.:.:.:.:.:.:.:.:.:.:.:.:.:.:.:.  :.:.:.:.:.:.:.:.:.:.:.:.:.:.:.:.:.:.:.:.:.:.:.:.:.:.:.:.:.:.:.:.:.:.:.:.:.:.:.:.:.:.:.:.:.:.:.:.:.:.:.:.:.:.:.:.:.:.:.:.:.:.:.:.:.:.:.:.:.:.:.:.:.:.:.:.:.:.:.:.:.:.:.:.:.:.:.:.  :.:.:.:.:.:.:.:.:.:.:.:.:.:.:.:.:.:.:.:.:.:.:.:.:.",
":.:.:.:.:.:.:.:.:.:.:.:.:.:.:.:.:.:.:.:.:.:.:.:.:.:.:.  :.:.:.:.:.:.:.:.:.:.:.:.:.:.:.:.:.:.:.:.:.:.:.:.:.:.:.:.:.:.:.:.:.:.:.:.:.:.:.:.:.:.:.:.:.:.:.:.:.:.:.:.:.:.:.:.:.:.:.:.:.:.:.:.:.:.:.:.:.:.:.:.:.:.:.:.:.:.:.:.:.:.:.:.:.:.:.:.  :.:.:.:.:.:.:.:.:.:.:.:.:.:.:.:.:.:.:.:.:.:.:.:.:.",
":.:.:.:.:.:.:.:.:.:.:.:.:.:.:.:.:.:.:.:.:.:.:.:.:.:.:.  :.:.:.:.:.:.:.:.:.:.:.:.:.:.:.:.:.:.:.:.:.:.:.:.:.:.:.:.:.:.:.:.:.:.:.:.:.:.:.:.:.:.:.:.:.:.:.:.:.:.:.:.:.:.:.:.:.:.:.:.:.:.:.:.:.:.:.:.:.:.:.:.:.:.:.:.:.:.:.:.:.:.:.:.:.:.:.:.  :.:.:.:.:.:.:.:.:.:.:.:.:.:.:.:.:.:.:.:.:.:.:.:.:.",
":.:.:.:.:.:.:.:.:.:.:.:.:.:.:.:.:.:.:.:.:.:.:.:.:.:.:.  :.:.:.:.:.:.:.:.:.:.:.:.:.:.:.:.:.:.:.:.:.:.:.:.:.:.:.:.:.:.:.:.:.:.:.:.:.:.:.:.:.:.:.:.:.:.:.:.:.:.:.:.:.:.:.:.:.:.:.:.:.:.:.:.:.:.:.:.:.:.:.:.:.:.:.:.:.:.:.:.:.:.:.:.:.:.:.:.  :.:.:.:.:.:.:.:.:.:.:.:.:.:.:.:.:.:.:.:.:.:.:.:.:.",
":.:.:.:.:.:.:.:.:.:.:.:.:.:.:.:.:.:.:.:.:.:.:.:.:.:.:.  :.:.:.:.:.:.:.:.:.:.:.:.:.:.:.:.:.:.:.:.:.:.:.:.:.:.:.:.:.:.:.:.:.:.:.:.:.:.:.:.:.:.:.:.:.:.:.:.:.:.:.:.:.:.:.:.:.:.:.:.:.:.:.:.:.:.:.:.:.:.:.:.:.:.:.:.:.:.:.:.:.:.:.:.:.:.:.:.  :.:.:.:.:.:.:.:.:.:.:.:.:.:.:.:.:.:.:.:.:.:.:.:.:.",
":.:.:.  O.;.O.  :.:.:.:.:.:.:.:.:.:.:.:.:.:.:.:.  :.:.  :.:.:.:.:.:.:.:.:.:.:.:.:.:.:.:.:.:.:.:.:.:.:.:.:.:.:.:.:.:.:.:.:.:.:.:.:.:.:.:.:.:.:.:.:.:.:.:.:.:.:.:.:.:.:.:.:.:.:.:.:.:.:.:.:.:.:.:.:.:.:.:.:.:.:.:.:.:.:.:.:.:.:.:.  :.:.:.  :.:.:.:.:.:.:.:.:.:.:.:.:.:.:.:.:.:.:.:.:.:.:.:.:.",
":.:.:.:.  ;.O.  :.:.:.:.:.:.:.:.:.:.:.:.:.:.:.:.  :.:.  :.:.  :.:.:.:.:.:.:.:.:.:.:.:.:.:.:.:.:.:.:.:.:.:.:.:.:.:.:.:.:.:.:.:.:.:.:.:.:.:.:.:.:.:.:.:.:.:.:.:.:.:.:.:.:.:.:.:.:.:.:.:.:.:.:.:.:.:.:.:.:.:.:.:.:.:.:.:.:.:.:.:.:.:.  :.:.  :.:.  :.:.:.:.:.:.:.:.:.:.:.:.:.:.:.:.:.:.:.:.:.:.",
":.:.:.:.  ;.O.  :.:.:.:.:.:.:.:.:.:.:.:.:.:.:.:.:.  :.  :.:.  :.:.:.:.:.:.:.:.:.:.:.:.:.:.:.:.:.:.:.:.:.:.:.:.:.:.:.:.:.:.:.:.:.:.:.:.:.:.:.:.:.:.:.:.:.:.:.:.:.:.:.:.:.:.:.:.:.:.:.:.:.:.:.:.:.:.:.:.:.:.:.:.:.:.:.:.:.:.:.:.:.:.  :.:.  :.:.  :.:.:.:.:.:.:.:.:.:.:.:.:.:.:.:.:.:.:.:.:.:.",
":.:.:.:.  ;.O.  :.:.:.:.:.:.:.:.:.:.:.:.:.:.:.:.:.  :.  :.  :.:.:.:.:.:.:.:.:.:.:.:.:.:.:.:.:.:.:.:.:.:.:.:.:.:.:.:.:.:.:.:.:.:.:.:.:.:.:.:.:.:.:.:.:.:.:.:.:.:.:.:.:.:.:.:.:.:.:.:.:.:.:.:.:.:.:.:.:.:.:.:.:.:.:.:.:.:.:.:.:.:.:.:.  :.  :.  :.:.:.:.:.:.:.:.:.:.:.:.:.:.:.:.:.:.:.:.:.:.:.",
":.:.:.:.  ;.O.  :.:.:.:.:.:.:.:.:.:.:.:.:.:.:.:.:.:.    :.  :.:.:.:.:.:.:.:.:.:.:.:.:.:.:.:.:.:.:.:.:.:.:.:.:.:.:.:.:.:.:.:.:.:.:.:.:.:.:.:.:.:.:.:.:.:.:.:.:.:.:.:.:.:.:.:.:.:.:.:.:.:.:.:.:.:.:.:.:.:.:.:.:.:.:.:.:.:.:.:.:.:.:.:.  :.  :.  :.:.:.:.:.:.:.:.:.:.:.:.:.:.:.:.:.:.:.:.:.:.:.",
"        :.;.;.                    :.:.:.:.:.:.:.:.          :.:.:.:.:.:.:.:.:.:.:.:.:.:.:.:.:.:.:.:.:.:.:.:.:.:.:.:.:.:.:.:.:.:.:.:.:.:.:.:.:.:.:.:.:.:.:.:.:.:.:.:.:.:.:.:.:.:.:.:.:.:.:.:.:.:.:.:.:.:.:.:.:.:.:.:.:.:.:.:.:.:.:.:.          :.:.:.:.:.:.:.:.:.:.:.:.:.:.:.:.:.:.:.:.:.:.:.",
"  @ @ @ @ @ @ @ @ @   # # # @ #     :.:.:.:.:.:.:.:.        :.:.:.:.:.:.:.:.:.:.:.:.:.:.:.:.:.:.:.:.:.:.:.:.:.:.:.:.:.:.:.:.:.:.:.:.:.:.:.:.:.:.:.:.:.:.:.:.:.:.:.:.:.:.:.:.:.:.:.:.:.:.:.:.:.:.:.:.:.:.:.:.:.:.:.:.:.:.:.:.:.:.:.:.:.        :.:.:.:.:.:.:.:.:.:.:.:.:.:.:.:.:.:.:.:.:.:.:.",
"  % $ $ $ $ $ $ % $   % % % % %   +   :.:.:.:.:.:.:.    *.  :.:.:.:.:.:.:.:.:.:.:.:.:.:.:.:.:.:.:.:.:.:.:.:.:.:.:.:.:.:.:.:.:.:.:.:.:.:.:.:.:.:.:.:.:.:.:.:.:.:.:.:.:.:.:.:.:.:.:.:.:.:.:.:.:.:.:.:.:.:.:.:.:.:.:.:.:.:.:.:.:.:.:.:.:.    *.  :.:.:.:.:.:.  :.:.:.:.:.:.:.:.:.:.:.:.:.:.:.:.",
"  , , , , < < , , ,   , , , , ,   # +   :.:.:.:.;.:.  :.*.  :.:.:.:.:.:.:.:.:.:.:.:.:.:.:.:.:.:.:.:.:.:.:.:.:.:.:.:.:.:.:.:.:.:.:.:.:.:.:.:.:.:.:.:.:.:.:.:.:.:.:.:.:.:.:.:.:.:.:.:.:.:.:.:.:.:.:.:.:.:.:.:.:.:.:.:.:.:.:.:.:.:.:.:.:.  ;.*.  :.:.:.:.:.:.  :.:.:.:.:.:.:.:.:.:.:.:.:.:.:.:.",
"  6 5 6 6 6 6 5 6 6   4 6 6 6 6   % # #   :.:.:.:.;.  ;.*.  :.:.:.:.:.:.:.:.;.:.:.;.:.;.:.:.:.:.:.;.:.;.:.;.:.:.:.;.:.;.:.;.:.:.:.:.;.:.:.;.:.;.:.;.:.;.:.:.;.:.:.;.;.:.:.;.:.;.:.:.:.;.:.;.:.;.:.;.:.;.:.:.:.:.:.:.;.;.:.:.:.;.;.:.;.  ;.O.  :.:.:.:.:.:.  :.:.:.:.:.:.:.:.:.:.:.:.:.:.:.:.",
"  8 8 8 8 8 8 8 8 8   8 8 8 8 6   ; % % @ o @ @ @ @ ;.;.;.  @ # # # @ @ @ @ @ @ @ @ @ @ @ # @ @ @ @ @ @ @ @ @ @ @ @ @ @ @ @ @ @ @ @ @ @ @ @ @ @ @ @ @ @ @ @ @ @ @ @ @ @ @ @ @ @ @ @ @ @ @ @ @ @ @ @ @ @ @ @ @ @ @ @ @ @ @ @ @ @ @ @ @ :.;.;.@ @ @ @ @ @ @   + + :.:.:.:.:.:.:.:.:.:.:.:.:.:.",
"  y w w 9 w 0 0 r 8   r 0 q r r   : : > $ @ % % $ % $ $ $ $ $ $ $ $ $ $ $ $ $ $ $ $ $ $ $ $ $ $ $ $ $ $ $ $ $ $ $ $ $ $ $ $ $ $ $ $ $ $ $ $ $ $ $ $ $ $ $ $ $ $ $ $ $ $ $ $ $ $ $ $ $ $ $ $ $ $ $ $ $ $ $ $ $ $ $ $ $ $ $ $ $ $ $ $ $ $ $ $ $ $ $ $ $ $ %   % % O O o + :.:.:.:.:.:.:.:.:.:.",
"  u e e r r t r r u   r r r r y   1 , = = $ , , , < , , , , , , , , , , , , , , , , , , , , , , , , , , , , , , , , , , , , , , , , , , , , , , , , , < , , , , , , , , , , , , , , , , , , , , , , , , , , , , , , , , , , < < , , , , , < < < , , , , ,   : : $ $ $ $ o X :.:.:.:.:.:.:.:.",
"  f f i s s d d i d   f d d d d   6 4 , , * 5 6 5 5 6 6 3 5 5 5 5 5 5 5 5 5 5 5 3 5 5 5 5 5 6 5 3 5 5 5 5 5 5 5 3 5 5 5 5 5 5 5 5 5 5 5 3 5 5 5 5 5 5 5 5 5 5 5 5 5 5 5 3 5 5 5 5 5 5 5 5 5 5 4 3 3 5 5 5 5 5 5 3 3 3 3 6 5 5 6 3 3 3 3 5 5 5 6 5 5 5 6 4   6 6 = = = = $ O o :.:.:.:.:.:.:.",
"  j j j k g g g z f   h h k f z   8 8 2 3 , 0 q 0 w w w 0 0 0 0 9 w 0 0 9 0 0 0 9 9 w w 0 0 0 0 9 9 9 w 0 0 0 0 9 9 w 9 0 9 0 0 0 0 0 w 9 9 9 w q 9 9 q 9 0 0 0 0 0 0 w 9 9 9 w 0 0 0 0 0 0 0 q 9 9 w 9 w w w 0 9 9 9 9 9 w 9 9 9 9 w w 9 w w 0 0 0 q q q   8 8 5 6 5 = = $ $ + o ;.;.:.:.;.",
"  M M m m b m m m M   M m m m M   r 8 8 7 3 s d d d d d s s d d d s d d d d d s s s s s d d d d d d d d d d d d d d d s d d s s d d d d d d d d d d s d d d d s d d d d d d d d d d d d d d s s s s d s s s s s s s s s d d s d s s s s d s d d d s i i f   u u 8 7 7 5 5 = > $ o O :.:.:.:.",
"  Z V V Z Z N N B B   B Z M Z Z   t 0 0 7 7 k k l j l l l l l l g g k g g k g g l l l l k h k k k k k k k k k h k k k k h g k k k k k k k k k k k g g g g k g g k k k k k k k k g k k k k k k k k k k k l l l l l l l k k k l l l l l l k k k k g k k g h   i i e e e 7 7 5 = > % O :.:.:.:.",
"  F F D D D D D S S   S A F F A   d r e 9 0 m m m m b b b b V b b m m m m b b m m b b b m m b m m b b b b b N b m b m m m b b m m b b b b b m m b b m b m m m b m b b b b b b b m m m b b m m b b b b b b b b b m m m m m m m m b b b b b b b b m m m m m   n v s i e e 7 8 5 > > $ O :.:.:.",
"  I K P P K P P H J   R P L L G   i d d r r Z V V V C C C C V V C C C C C C C C C C C C C C C C C C C C C C C C C C C C B C C C C C C C C C C C C Z C C C C C C C C C C C C C C C C Z C C C C C C C C C C C N Z C C N Z C C C C C C C S C C C C B N C Z B   M M v v s s r r 7 6 > $ o O :.:.",
"  R Y Y Y Y Y Y U U   R I T I R   z k s p d K K I P P I P P P P P P P P P P P P H H P P H P P P P H P P P P P P P P P P P P P P P H H H P P P P P P P P P P P P P H H H P P P H P P H P P P P P H H H Y P P P P P P P P P P P P H P H H P P Y P H H H H G   S F m m c v d e 7 7 3 = $ o ;.:.",
"  ~ ! ! T T ! ! W Q   Q ! W ! ~   v c k k k ! T T ! ! T ! ! ! T E E E ! E E E E ! T E ! ! T E E T ! ! T T E E E E E E E E E E E T ! ! T T ! T ! E E ! E E E E E T ! ! T ! T ! ! ! T ! ! E ! E E T T ! T E E E E E E E E ! ! ! T ! T ^ T T T T T E E E W /   G G F F m c v d r 8 5 = = $ X :.",
"  ( / / ^ / / ^ / /   / / / / (   v v c c c ^ ^ ^ / ^ ^ ^ ^ ^ ^ ^ ^ ^ ^ ^ ^ ^ / ) ^ ^ ^ ^ ^ ^ ^ ^ ^ ^ ^ ^ ^ ^ ^ ^ ^ / ^ ^ ^ ^ ^ ) ^ / / ^ ^ ) ! ^ ^ ^ ^ ^ ^ ^ ^ ) ^ ^ ^ ^ ^ ^ ^ ^ ^ ^ ^ ^ ^ ^ ^ ^ / ^ ^ ^ ^ ^ ^ ^ ^ ^ ^ ^ ^ ^ ^ ^ ^ ^ ^ ^ ^ ^ ^ ^ ^ / ^ /   Q L K D D m v d r r 8 5 > $ X :.",
"  { [ _ } _ [ _ ' '   ' [ [ [ {   M m b b b } _ _ [ _ _ _ _ } _ [ _ [ [ [ [ [ [ ) ) [ [ [ } [ [ [ [ [ [ } _ [ [ _ } [ [ [ [ [ [ ) _ [ [ [ _ [ _ _ [ [ [ [ [ [ [ ) _ [ [ _ [ [ [ } _ [ [ [ [ [ [ [ [ } _ _ } [ _ _ } _ [ [ [ [ [ } _ [ [ _ _ _ _ [ [ ) [ '   / W ! P D D m c s r 7 5 > $ X :.",
"  o.| } | } | | | |   X.| | | |   Z C C V V | | | | } | } | } |  .} | } | | | } } | } } } } } } } | } | } } } } } } }  .| } | | } | } } | | | | } } } } } } } } } | } | | | | | } } } } } } } } } } } | } } } } } } } } | | } } } } } } } | | | | } | | |   { / ^ ! P D b c d r 8 6 > % X ;.",
"  o... . . . . . .$.  o. . . .$.  F D D D D %.%...%...%...%.................%.............%.%...%.%...%.%...%.%...%.........%.......%...........%.%.%.%.%.%.%.%.....%.............%.%.%.%.%.%.%...%...%.%...%.%.%...%.%...%...%.%...%.%.%...%.........%.O.  X.{ ^ T P D D m v d e 8 6 > $ X ",
"  &.$.%.........%.&.  @.%.%.%.@.  F F L P P &.%.&.%.&.%.%.&.%.&.&.&.&.%.%.&.%.&.%.&.%.&.%.&.&.%.%.%.&.&.&.%.%.&.%.&.&.%.%.%.&.&.%.&.&.&.&.&.&.%.%.&.&.%.&.&.&.%.&.&.%.%.&.&.%.&.%.&.&.%.%.%.&.%.&.%.%.&.%.&.&.%.%.&.%.&.&.%.%.%.&.&.&.%...&.&.%.&.%.&.&.;.  | X.[ ^ ! P D b v d r 8 4 = $ X ",
"  O.$...........+.$.  O.%.+.$.$.  I P P P P $.%.%...%...............%...%.%...%...........%.....%.%.....%...%.......%...%.%...................%.......%.......%...%...%...%...........%...%.%.%.%.%...%...%.%...%.%...%.....%.............%...%.%.....%.%.  &.| } ^ T P S m v d r 7 5 = $ X ",
"  o. . . . . . . .o.  o. . .o.o.  F D F D D | | | } | | | | | | | } | | } } | } | | | | | | | | } | | } | } | | | } | | } | } | | | } } | | } | | | } | | | } | | | } | | | } | | | } | | | } | } } } | } | | | } } | } | | | | } |  .} } } } | | } } | |   X.| [ ^ T P S m v s e 8 4 = $ X ",
"  | | } } | | } | |   X.| | | |   F F V V C _ _ _ } _ _ _ _ [ [ _ } [ [ _ } [ _ } _ [ [ _ [ [ } _ _ } } } _ [ [ _ } [ [ _ [ [ } [ } [ [ [ } [ [ [ } [ _ } _ [ } _ _ [ } _ _ ) ) _ } [ [ _ } _ } [ } [ [ _ [ [ [ _ [ } } } _ [ [ } ) ) } ) ) } } } } _ [ {   X.| / T P D D b v d e 8 4 ; $ X ",
"  { [ [ _ [ _ } ] ]   ' { [ [ {   Z Z m b b ^ ^ / ^ ) ^ ^ ^ / ^ ^ ^ ^ ^ ^ ^ ) ! ^ ^ ^ ^ ^ ) ! ^ ^ ^ ^ ^ ^ ^ ^ ^ ^ ^ ^ ^ ^ ^ ^ ^ / ^ / ^ / ^ ^ ^ / ^ ^ ^ ^ ^ ^ ^ ) ^ ^ ^ ^ ^ ^ ) ^ ) ! ^ ^ ^ ^ ^ ^ ^ ^ ^ ) ^ ^ ^ ^ ^ ^ ^ ^ ^ ^ ^ ^ ^ ^ ^ ^ ^ ^ ^ ^ ^ ^ ^ /   { / ^ E P D b v s e 8 6 > $ O :.",
"  ( / / / / ^ ^ / /   / / / / (   m M c c c ! ! ! ! T T T T ! ! ! ! ! T ! T ! T E E E E T ! T T ! T ! T E E E E T ! E E E E E E ! T ! ! T E ! ! ! ! E ! E E ! T T T T ! ! T ! T ! T ! T E E E E E E E E T T T ! E E E T E E E E ! ! ! ! T T T ^ ! E ! ! Q   / ~ E K D D m v s r 8 6 > $ + :.",
"  ~ ~ ! ! T ! T W W   Q ! ! ~ W   n v v k k I P H H P P P P L P P H H H H H H H H H P H H H P P H H H H H H P H P P P H H H H P H H H H H H H H H H P H H H H H H H P P H H H H H H H H H H P P H H H H H P P P H H H H H H P H K H K P P P P P K H P I I   ~ G P D F m v s r r 8 6 = $ o :.",
"  R I Y Y Y Y Y U U   R I Y I R   n j k d s V C C C C C C C C C C C C C C C C C C C C C C Z C C C C C C C C C C C C C C C C C N C C C C C C B C C C C C C C C C C C C C C C C C C C C C C Z C C C C C C C C C C C C C Z C C C C C C C C V C C C C C V Z Z   G L D D b v v s r 7 6 = > $ + :.",
"  G P P P K K P J J   G G P L G   h i i d r m m m m m b m m m M m b m b b m m b b b m m m N b m m m m m b m m m m m m m m M m m b b b m m b m m m m m m m m m m m b m b m b m m m m m m m m m m b b b b b m m b m b b N m m m b b m m m m m m m m m m V m   F F b m v v d r 8 8 5 = $ X :.:.",
"  F F F D D D D S S   A A F F A   i d t e 0 g g k k k k k k k d g g g g g g g g g g g g g g k k g g g g g g k g k k h k k k k k g k k g g k g g g k g g g g k g g g g g g g g g k k h g g g g g g l l g k g g g g g k k g g g g k k h k h k k k g k h f f   m M v c d d e r 8 5 = $ o X :.:.",
"  A V V C C C C Z B   Z Z Z Z Z   r t 9 0 7 d d d d d d d d d d d d d d d d d d d d d d d d d d d d d d d d d d d d d d d d d d s d d d s d d d k d s s d d d d d d d d d d d d d d d d d d d d d d d d d d d d d d i d d d d d d d s s d s d d i d d i d   n v d d r r 7 8 5 = = $ X :.:.:.",
"  M m m m b m V M M   M m m m M   r 9 7 7 5 0 0 0 0 0 0 0 0 w 0 q q q 9 q q 0 9 q q q 9 q 0 0 0 0 0 0 9 q 9 q w 0 0 0 0 0 0 9 9 w 9 0 0 0 0 w q 9 q 9 9 q 9 q w q q 9 q q q 9 q 9 0 0 w w 0 0 0 q q q q q 9 q q 0 0 0 0 q 9 q 9 0 0 0 0 0 0 0 0 0 0 0 q r   i f e r r 8 8 5 : : $ o :.:.:.:.",
"  h h k d l l l h z   f f k h h   0 8 7 5 , 5 5 5 3 5 5 3 3 5 5 6 5 5 5 3 3 5 5 5 5 3 3 5 5 5 5 3 3 5 5 5 5 5 5 5 5 5 5 3 3 3 3 5 5 5 3 5 5 5 5 3 3 3 3 3 3 3 3 5 5 5 5 5 5 5 5 3 3 3 3 3 3 3 3 5 5 3 5 5 5 3 3 5 5 3 5 5 5 3 5 5 5 5 5 5 5 5 5 4 5 5 2 4   r r 8 7 8 5 5 = $ % O O :.:.:.:.",
"  i d d d d d d d d   f d d s d   8 4 4 , = , < , , , , , < < , < , , , , , , , , , , , , , , , , , , , , , , , , , , , , , , , , , , , , , , , , , , , < , , , , , , , < , , , , , < , < , , , , , , , , , , , , , , , , , , , , , , , , , , , , , , , 1   8 8 5 6 5 = = $ % . O :.:.:.:.:.",
"  u r r e e r r r r   r r r t r   4 , , * $ $ $ $ $ $ $ $ $ $ $ $ $ $ $ $ $ $ $ $ $ % $ $ $ $ $ $ $ $ $ $ $ $ $ $ $ $ $ $ $ $ $ $ $ $ $ $ $ $ $ $ $ $ $ $ $ $ $ $ $ $ $ $ $ $ $ $ $ $ $ $ $ $ $ $ $ $ $ $ $ $ $ % $ $ $ $ $ $ $ $ $ $ $ $ $ $ $ % $ % $ %   6 6 > = = $ $ X . :.:.:.:.:.:.:.",
"  q 0 0 0 9 0 0 0 q   0 0 0 0 r   , = * $ @ @ # @ @ @ @ @ @ @ @ @ @ @ @ @ @ @ @ @ @ @ @ @ @ @ @ @ @ @ @ @ @ @ @ @ @ @ @ @ @ @ @ @ @ @ @ @ @ @ @ @ @ @ @ @ @ @ @ @ @ @ @ @ @ @ @ @ @ @ @ @ @ @ @ @ @ @ @ @ @ @ @ @ @ @ @ @ @ @ @ # @ @ # @ @ @ @ @ @ @ # #   : ; $ $ % % X o :.:.:.:.:.:.:.:.",
"  8 8 8 8 7 8 7 7 8   8 8 8 8 8   ; ; % @ X :.:.:.:.:.:.:.:.:.:.:.:.:.;.:.:.:.:.:.:.:.:.:.:.:.:.:.;.:.:.:.:.:.:.:.:.:.:.:.:.:.:.:.:.:.;.:.:.:.:.:.:.:.:.:.:.:.:.:.:.:.:.:.:.:.:.:.:.;.:.:.:.:.:.:.:.:.:.:.:.:.:.:.:.:.:.:.:.:.:.:.:.:.:.:.:.:.:.:.:.:.:.;.  % % . . + . :.:.:.:.:.:.:.:.:.:.",
"  6 6 5 5 5 5 5 6 6   6 5 5 5 4   ; % #   :.:.:.:.:.:.:.:.:.:.:.:.:.:.:.:.:.:.:.:.:.:.:.:.:.:.:.:.:.:.:.:.:.:.:.:.:.:.:.:.:.:.:.:.:.:.:.:.:.:.:.  ;.  :.:.:.:.:.:.:.:.:.:.:.:.:.:.:.:.:.:.:.:.:.:.:.:.:.:.:.:.:.:.:.:.:.:.:.:.:.:.:.:.:.:.:.:.:.:.:.:.:.:.  + . :.:.:.:.:.:.:.:.:.:.:.:.:.:.",
"  1 , 1 , , , , , ,   , , , , ,   % #   :.:.:.:.:.:.:.:.:.:.:.:.:.:.:.:.:.:.:.:.:.:.:.:.:.:.:.:.:.:.:.:.:.:.:.:.:.:.:.:.:.:.:.:.:.:.:.:.:.:.:.:.  *.  :.:.:.:.:.:.:.:.:.:.:.:.:.:.:.:.:.:.:.:.:.:.:.:.:.:.:.:.:.:.:.:.:.:.:.:.:.:.:.:.:.:.:.:.:.:.:.:.:.:.  :.:.:.:.:.:.:.:.:.:.:.:.:.:.:.:.",
"  % % % % $ % % % %   % $ $ % %   #   :.:.:.:.:.:.:.:.:.:.:.:.:.:.:.:.:.:.:.:.:.:.:.:.:.:.:.:.:.:.:.:.:.:.:.:.:.:.:.:.:.:.:.:.:.:.:.:.:.:.:.:.:.  *.  :.:.:.:.:.:.:.:.:.:.:.:.:.:.:.:.:.:.:.:.:.:.:.:.:.:.:.:.:.:.:.:.:.:.:.:.:.:.:.:.:.:.:.:.:.:.:.:.:.:.:.:.:.:.:.:.:.:.:.:.:.:.:.:.:.:.:.",
"  # @ @ @ @ @ @ # #   @ @ @ @ #   +   :.:.:.:.:.:.:.:.:.:.:.:.:.:.:.:.:.:.:.:.:.:.:.:.:.:.:.:.:.:.:.:.:.:.:.:.:.:.:.:.:.:.:.:.:.:.:.:.:.:.:.:.:.  *.  :.:.:.:.:.:.:.:.:.:.:.:.:.:.:.:.:.:.:.:.:.:.:.:.:.:.:.:.:.:.:.:.:.:.:.:.:.:.:.:.:.:.:.:.:.:.:.:.:.:.:.:.:.:.:.:.:.:.:.:.:.:.:.:.:.:.:.",
"  O + o o o O O . +   + O X + .     :.:.:.:.:.:.:.:.:.:.:.:.:.:.:.:.:.:.:.:.:.:.:.:.:.:.:.:.:.:.:.:.:.:.:.:.:.:.:.:.:.:.:.:.:.:.:.:.:.:.:.:.:.:.  :.  :.:.:.:.:.:.:.:.:.:.:.:.:.:.:.:.:.:.:.:.:.:.:.:.:.:.:.:.:.:.:.:.:.:.:.:.:.:.:.:.:.:.:.:.:.:.:.:.:.:.:.:.:.:.:.:.:.:.:.:.:.:.:.:.:.:.:.",
"        :.:.:.                    :.:.:.:.:.:.:.:.:.:.:.:.:.:.:.:.:.:.:.:.:.:.:.:.:.:.:.:.:.:.:.:.:.:.:.:.:.:.:.:.:.:.:.:.:.:.:.:.:.:.:.:.:.:.  :.:.    :.:.:.:.:.:.:.:.:.:.:.:.:.:.:.:.:.:.:.:.:.:.:.:.:.:.:.:.:.:.:.:.:.:.:.:.:.:.:.:.:.:.:.:.:.:.:.:.:.:.:.:.:.:.:.:.:.:.:.:.:.:.:.:.:.:.",
":.:.:.:.  ;.-.  :.:.:.:.:.:.:.:.:.:.:.:.:.:.:.:.:.:.:.:.:.:.:.:.:.:.:.:.:.:.:.:.:.:.:.:.:.:.:.:.:.:.:.:.:.:.:.:.:.:.:.:.:.:.:.:.:.:.:.:.:.:.:.:.:.:.:.:.:.:.:.:.:.:.:.:.:.:.:.:.:.:.:.:.:.:.:.:.:.:.:.:.:.:.:.:.:.:.:.:.:.:.:.:.:.:.:.:.:.:.:.:.:.:.:.:.:.:.:.:.:.:.:.:.:.:.:.:.:.:.:.:.:.:.",
":.:.:.:.  ;.O.  :.:.:.:.:.:.:.:.:.:.:.:.:.:.:.:.:.:.:.:.:.:.:.:.:.:.:.:.:.:.:.:.:.:.:.:.:.:.:.:.:.:.:.:.:.:.:.:.:.:.:.:.:.:.:.:.:.:.:.:.:.:.:.:.:.:.:.:.:.:.:.:.:.:.:.:.:.:.:.:.:.:.:.:.:.:.:.:.:.:.:.:.:.:.:.:.:.:.:.:.:.:.:.:.:.:.:.:.:.:.:.:.:.:.:.:.:.:.:.:.:.:.:.:.:.:.:.:.:.:.:.:.:.:.",
":.:.:.:.  ;.O.  :.:.;.:.:.:.:.:.:.:.:.:.:.:.:.:.:.:.:.:.:.:.:.:.:.:.:.:.:.:.:.:.:.:.:.:.:.:.:.:.:.:.:.:.:.:.:.:.:.:.:.:.:.:.:.:.:.:.:.:.:.:.:.:.:.:.:.:.:.:.:.:.:.:.:.:.:.:.:.:.:.:.:.:.:.:.:.:.:.:.:.:.:.:.:.:.:.:.:.:.:.:.:.:.:.:.:.:.:.:.:.:.:.:.:.:.:.:.:.:.:.:.:.:.:.:.:.:.:.:.:.:.:.:.",
":.:.:.:.  ;.*.  :.:.:.:.:.:.:.:.:.:.:.:.:.:.:.:.:.:.:.:.:.:.:.:.:.:.:.:.:.:.:.:.:.:.:.:.:.:.:.:.:.:.:.:.:.:.:.:.:.:.:.:.:.:.:.:.:.:.:.:.:.:.:.:.:.:.:.:.:.:.:.:.:.:.:.:.:.:.:.:.:.:.:.:.:.:.:.:.:.:.:.:.:.:.:.:.:.:.:.:.:.:.:.:.:.:.:.:.:.:.:.:.:.:.:.:.:.:.:.:.:.:.:.:.:.:.:.:.:.:.:.:.:.:.",
":.:.:.:.  ;.:.  :.:.:.:.:.:.:.:.:.:.:.:.:.:.:.:.:.:.:.:.:.:.:.:.:.:.:.:.:.:.:.:.:.:.:.:.:.:.:.:.:.:.:.:.:.:.:.:.:.:.:.:.:.:.:.:.:.:.:.:.:.:.:.:.:.:.:.:.:.:.:.:.:.:.:.:.:.:.:.:.:.:.:.:.:.:.:.:.:.:.:.:.:.:.:.:.:.:.:.:.:.:.:.:.:.:.:.:.:.:.:.:.:.:.:.:.:.:.:.:.:.:.:.:.:.:.:.:.:.:.:.:.:.:."
};
