/* XPM */
static char *hetran_hetran_f_ht_4[] = {
/* columns rows colors chars-per-pixel */
"142 53 116 2",
"   c #010100",
".  c #262625",
"X  c #272822",
"o  c #282624",
"O  c #282824",
"+  c #3B3B36",
"@  c #3B3B39",
"#  c #4A4A44",
"$  c #4B4B49",
"%  c #57574D",
"&  c #58584E",
"*  c #575755",
"=  c #575851",
"-  c #585752",
";  c #595951",
":  c #64645C",
">  c #646460",
",  c #6F6F63",
"<  c #6E7064",
"1  c #6F706A",
"2  c #706F6A",
"3  c #707065",
"4  c #717169",
"5  c #7B7C6E",
"6  c #7C7C70",
"7  c #868777",
"8  c #85867A",
"9  c #87887A",
"0  c #88867A",
"q  c #8D8E7E",
"w  c #8D907F",
"e  c #908E7F",
"r  c #858680",
"t  c #8D8E81",
"y  c #8D8D88",
"u  c #8F9081",
"i  c #8D9089",
"p  c #908E80",
"a  c #96978D",
"s  c #979889",
"d  c #999789",
"f  c #989987",
"g  c #989889",
"h  c #979890",
"j  c #989792",
"k  c #9B9C91",
"l  c #9F9E99",
"z  c #9FA090",
"x  c #9FA098",
"c  c #A09F9A",
"v  c #A0A18F",
"b  c #A0A092",
"n  c #A0A199",
"m  c #A7AA97",
"M  c #A9AA96",
"N  c #A9A999",
"B  c #B2B29D",
"V  c #A7A8A0",
"C  c #A8A9A1",
"Z  c #AFB0A8",
"A  c #B2B2A0",
"S  c #B1B1AA",
"D  c #B7B8A6",
"F  c #B6B8AB",
"G  c #B8B9A6",
"H  c #B8B9AA",
"J  c #B8B8B0",
"K  c #BFC0AC",
"L  c #BFC0B2",
"P  c #C0BFAB",
"I  c #C1BFB3",
"U  c #C1C1AD",
"Y  c #C1C1B2",
"T  c #C3C3BA",
"R  c #C6C8B4",
"E  c #C6C8BA",
"W  c #C8C6B3",
"Q  c #C9C6B9",
"!  c #C9C8B3",
"~  c #CECEBB",
"^  c #D0CEBB",
"/  c #D1D0BD",
"(  c #CDCEC3",
")  c #CFD0C0",
"_  c #D0CEC3",
"`  c #D6D5C1",
"'  c #D5D5CA",
"]  c #D8D6C2",
"[  c #D8D5CC",
"{  c #DCDCC6",
"}  c #DDDCC9",
"|  c #DBDBD1",
" . c #E5E6D2",
".. c #E5E6DA",
"X. c #E6E8D2",
"o. c #E6E8DD",
"O. c #E8E6D2",
"+. c #E9E7D8",
"@. c #EAEAD3",
"#. c #EDECDB",
"$. c #F0EEDF",
"%. c #F3F3DC",
"&. c #F9F9DF",
"*. c #ECECE0",
"=. c #F3F4E4",
"-. c #F6F6EB",
";. c #F7F8E5",
":. c #F6F8E8",
">. c #F8F6E6",
",. c #F9F7E8",
"<. c #F9F8E2",
"1. c #F9F9EA",
"2. c #F5F6F3",
"3. c #F6F8F2",
"4. c #FEFEF1",
"5. c #FEFEFE",
/* pixels */
"5.5.5.  2.4.2.  5.5.5.5.5.5.5.5.5.5.5.5.5.5.5.5.5.5.5.5.5.5.5.5.5.5.5.5.5.5.5.5.5.5.5.5.5.5.5.5.5.5.5.5.5.5.5.5.5.5.5.5.5.5.5.5.5.5.5.5.5.5.5.5.5.5.5.5.5.5.5.5.5.5.5.5.5.5.5.5.5.5.5.5.5.5.5.5.5.5.5.5.5.5.5.5.5.5.5.5.5.5.5.5.5.5.5.5.5.5.5.5.5.5.5.5.5.5.5.5.5.5.5.5.5.5.5.5.5.5.5.5.5.5.",
"5.5.5.5.  5.-.  5.5.5.5.5.5.5.5.5.5.5.5.5.5.5.5.5.5.5.5.5.5.5.5.5.5.5.5.5.5.5.5.5.5.5.5.5.5.5.5.5.5.5.5.5.5.5.5.5.5.5.5.5.5.5.5.5.5.5.5.5.5.5.5.5.5.5.5.5.5.5.5.5.5.5.5.5.5.5.5.5.5.5.5.5.5.5.5.5.5.5.5.5.5.5.5.5.5.5.5.5.5.5.5.5.5.5.5.5.5.5.5.5.5.5.5.5.5.5.5.5.5.5.5.5.5.5.5.5.5.5.5.5.5.",
"5.5.5.5.  3.-.  5.5.5.5.5.5.5.5.5.5.5.5.5.5.5.5.5.5.5.5.5.5.5.5.5.5.5.5.5.5.5.5.5.5.5.5.5.5.5.5.5.5.5.5.5.5.5.5.5.5.5.5.5.5.5.5.5.5.5.5.5.5.5.5.5.5.5.5.5.5.5.5.5.5.5.5.5.5.5.5.5.5.5.5.5.5.5.5.5.5.5.5.5.5.5.5.5.5.5.5.5.5.5.5.5.5.5.5.5.5.5.5.5.5.5.5.5.5.5.5.5.5.5.5.5.5.5.5.5.5.5.5.5.5.",
"5.5.5.5.  5.-.  5.5.5.5.5.5.5.5.5.5.5.5.5.5.5.5.5.5.5.5.5.5.5.5.5.5.5.5.5.5.5.5.5.5.5.5.5.5.5.5.5.5.5.5.5.5.5.5.5.5.5.5.5.5.5.5.5.5.5.5.5.5.5.5.5.5.5.5.5.5.5.5.5.5.5.5.5.5.5.5.5.5.5.5.5.5.5.5.5.5.5.5.5.5.5.5.5.5.5.5.5.5.5.5.5.5.5.5.5.5.5.5.5.5.5.5.5.5.5.5.5.5.5.5.5.5.5.5.5.5.5.5.5.5.",
"5.5.5.5.  4.-.  5.5.5.5.5.5.5.5.5.5.5.5.5.5.5.5.5.5.5.5.5.5.5.5.5.5.5.5.5.5.5.5.5.5.5.5.5.5.5.5.5.5.5.5.5.5.5.5.5.5.5.5.5.5.5.5.5.5.5.5.5.5.5.5.5.5.5.5.5.5.5.5.5.5.5.5.5.5.5.5.5.5.5.5.5.5.5.5.5.5.5.5.5.5.5.5.5.5.5.5.5.5.5.5.5.5.5.5.5.5.5.5.5.5.5.5.5.5.5.5.5.5.5.5.5.5.5.5.5.5.5.5.5.5.",
"        5.5.5.                    5.5.5.5.5.5.5.5.5.5.5.5.5.5.5.5.5.5.5.5.5.5.5.5.5.5.5.5.5.5.5.5.5.5.5.5.5.5.5.5.5.5.5.5.5.5.5.5.5.5.5.5.5.5.5.5.5.5.5.5.5.5.5.5.5.5.5.5.5.5.5.5.5.5.5.5.5.5.5.5.5.5.5.5.5.5.5.5.5.5.5.5.5.5.5.5.    2.2.    5.5.5.5.5.5.5.5.5.5.5.5.5.5.5.5.5.5.5.5.5.5.5.",
"  @ @ @ + + + @ + + @   + + @ @     5.5.5.5.5.5.5.5.5.5.5.5.5.5.5.5.5.5.5.5.5.5.5.5.5.5.5.5.5.5.5.5.5.5.5.5.5.5.5.5.5.5.5.5.5.5.5.5.5.5.5.5.5.5.5.5.5.5.5.5.5.5.5.5.5.5.5.5.5.5.5.5.5.5.5.5.5.5.5.5.5.5.5.5.5.5.5.5.5.5.5.5.5.5.5.5.5.  2.  5.5.5.5.5.5.5.5.5.5.5.5.5.5.5.5.5.5.5.5.5.5.5.5.",
"  # # # # # # # # # $   # # # $   .   5.5.5.5.5.5.5.5.5.5.5.5.5.5.5.5.5.5.5.5.5.5.5.5.5.5.5.5.5.5.5.5.5.5.5.5.5.5.5.5.5.5.5.5.5.5.5.5.5.5.5.5.5.5.5.5.5.5.5.5.5.5.5.5.5.5.5.5.5.5.5.5.5.5.5.5.5.5.5.5.5.5.5.5.5.5.5.5.5.5.5.5.5.5.5.5.  2.  5.5.5.5.5.5.5.5.5.5.5.5.5.5.5.5.5.5.5.5.5.5.5.5.",
"  : > : : : : : : : :   : : : >   @ .   5.5.5.5.5.5.5.5.5.5.5.5.5.5.5.5.5.5.5.5.5.5.5.5.5.5.5.5.5.5.5.5.5.5.5.5.5.5.5.5.5.5.5.5.5.5.5.5.5.5.5.5.5.5.5.5.5.5.5.5.5.5.5.5.5.5.5.5.5.5.5.5.5.5.5.5.5.5.5.5.5.5.5.5.5.5.5.5.5.5.5.5.5.5.5.  2.  5.5.5.5.5.5.5.5.5.5.5.5.5.5.5.5.5.5.5.5.5.5.5.5.",
"  1 < < < < 3 3 3 4 2   4 3 4 4   # @ @   4.5.5.5.5.5.5.5.5.5.5.5.5.5.5.5.5.5.5.5.5.5.5.5.5.5.5.5.5.5.5.5.5.5.5.5.5.5.5.5.5.5.5.5.5.5.5.5.5.5.5.5.5.5.5.5.5.5.5.5.5.5.5.5.5.5.5.5.5.5.5.5.5.5.5.5.5.5.5.5.5.5.5.5.5.5.5.5.5.5.5.5.5.5.  2.  4.5.5.5.5.5.5.  5.5.5.5.5.5.5.5.5.5.5.5.5.5.5.5.",
"  6 6 6 6 6 6 6 6 6 6   6 6 6 6   * # # + X X X X X X O O X X X O O O O X X X O O O O O X X X O O X X X O O O O O X X X O O O O X X X X O O O O X X X O O X O O X X O O X X X O O O O O X X X X O X X X O O O O O X X X O O O O X X X 5.5.X X X X X X X .   . . 5.5.5.5.5.5.5.5.5.5.5.5.5.5.",
"  r 8 9 7 7 9 9 8 8 r   8 8 8 0   * ; % # # # # # # # # # # # # # # # # # # # # # # # # # # # # # # # # # # # # # # # # # # # # # # # # # # # # # # # # # # # # # # # # # # # # # # # # # # # # # # # # # # # # # # # # # # # # # # # # # # # # # # # # $   # # X X X O 5.5.5.5.5.5.5.5.5.5.",
"  y i u u t u u y y y   t q p y   : : ; & & & & & & & & & & & & & & & & & & ; ; & & & & & & & & & & & & & & ; & & & ; & & & & & & & & & & & & & & & ; ; & & & & & & & & & & ; ; & & & & & & & & ; & ; & ; & ; ; & & ; ; ; & ; & % & & & & & % & & & ; ; *   * ; # # # # X O 5.5.5.5.5.5.5.5.",
"  j g g s s g g g d j   g g d j   1 1 : : 3 3 3 3 3 3 3 3 3 3 3 3 3 3 3 3 3 3 , 3 3 3 3 3 3 3 3 3 3 3 3 3 3 3 3 3 3 3 3 3 3 4 3 , 3 3 3 3 3 3 3 3 3 3 , 3 3 3 3 3 3 3 3 3 3 3 , 3 3 3 3 3 < 4 3 3 3 4 3 3 3 , 2 3 3 3 3 3 3 2 , , 3 3 3 3 3 3 3 3 3 4 2 2   4 3 & & % & # X X 5.5.5.5.5.5.5.",
"  x x z z x v z v x l   k b z z   6 6 3 3 5 6 5 5 5 5 5 6 6 5 5 6 6 6 5 6 5 5 5 5 5 5 5 6 5 6 6 6 5 5 6 5 5 6 6 5 5 5 5 5 5 5 5 6 5 5 6 6 5 5 6 5 5 5 6 5 5 5 5 6 6 6 6 5 5 5 6 5 5 5 5 6 6 6 6 6 6 6 6 6 6 6 6 5 5 6 6 6 6 6 6 5 5 6 6 5 5 5 5 5 5 6 6 6   6 6 3 3 3 & % # # X X 5.5.5.5.5.",
"  Z A A A A A A A S S   A A D A   9 6 6 5 u u p u p p p e p p e t t t t p p t t t t t q t t u t e e p u t t t t e e p t t t p t u e e e t t t t t p t t p t t p t t t t p p t t t t t q u u u u p p t t t t t t p p p t t t t t u p p e t u u p w p t y y   t t 5 5 5 , 3 % % # X X 5.5.5.5.",
"  H G G D D G G H H H   H G D F   i 8 9 5 g g d g g g g s s s g g g g g g g g g g g g g g g g g g g g g g g g g g g g g g g g g g g g g g g g g g g g g g g g g g g g s g s g g f f g g g g g g g g g g g g j g g g g g g g g g g g g g g g g g g g s h j   s g e e p 5 5 3 % ; # O 5.5.5.5.",
"  L L U U U U W Y L L   Y Y K L   j t u 9 N N N N N N N N N N N N N N N N N N N N N N N N M N N N N N N N N N N N N N N N N N N N N N N N N N N N N N N N N N N N N N N N N N N M M N N N M N N N N N N N N N N N N N N N N N M N N N M M m N N N N N N V   N N d g w u 5 6 3 & ; # X 5.5.5.",
"  E R ! W W ! ! Q Q E   Q ! R E   j s s w A A D A B B B A A A A B B A A A B B B B B B A B B B B A A A B A A B B B B B B A A B B B A A B B B B A B B B B A A A A A A A B B B A B B B B B B A B B A B B A A A B B B A B B D B B B A B A B B B B B D B B A S   A A M M d g u u 5 4 ; # X O 5.5.",
"  ) ^ ~ ^ ^ / / ^ ~ (   ~ ~ ~ ~   x z h s U U U Y U Y U K U U U U U U U Y K U U U U U U U U U U Y K Y U K U U U U K Y U U U U U U K Y U K U U Y U U U U U U U U K Y U Y U U U U U U W W U K Y U K K U U Y Y U U U K U U K U U U K U K U U U W U K U Y L L   Y Y B B M M g w 5 6 4 ; # . 5.5.",
"  | ' ` / / { / ] ] [   ' ` ` '   C N z z R ! ! ! ! ! ! ! ! ! ! ! ! ! ! ! ! ! ! ! ! ! ! ! ! ! ! ! ! ! ! ! ! ! ! ! ! ! ! ! ! ! ! ! ! ! ! ! ! ! ! ! ! ! ! ! ! ! ! ! ! ! ! ! ! ! ! ! ! ! ! ! ! ! ! ! ! ! ! ! ! ! ! ! ! ! ! ~ ! ! ! R ! ! ! ! ! ^ ! ! ! ! T E   E ! Y K B N N s t 6 4 ; ; # . 5.",
"  | } } { { { { { } |   } { } |   C C N N ` ] / ` ` ] ] / { { / / ] { ] / { / / ` ` / / / { { / / { / / { / / { / { ] / { / / { / { / / ` ` ` ` { / / { / { / / { / { / / { { / { / / / / ] ] / ] ] { / { / / { / ] ] ] / / / { { / / / { / / / / / ] } '   } ! ! K U B N g t t 6 4 ; # O 5.",
"  ....X.@.O.O.O.O.+...   . .X.X.  Z Z A A } } } { { { { { { { { { { { { } { { { { { { { { { { { { { } } { { { { { { } } { { { { } { { { { { { { { { { { } { { { { { { { { { { { { { { { } } { { { { { { { { { { { { } { { { } { { { { { { { { { } { { { |   [ / ` ! U U B N g u 6 3 ; # X 5.",
"  #.#.#.@.@.#.#.#.$.#.  #.#.#.+.  J H H H X.X.X.O.O.O.O.O.O.O.O.O.O.O.@.@.@.O.O...O.O.O.@.@.@.O.O.@.@.@.O.O.O.O.O.O.O.@.O.O.O.+.@.@.O.O.O.O.O.O.O.O.O.O.@.@.+.O.O.O.O.O.O.O.O.X.O.O.X.O.@.@.O.+.O.O.O.X.O.O.O.O.O.O.O.O.X.@.X.X.X.O.X.X.@.@.@.@.@.@.O.+...  #.} { ] ! Y B N s u 6 3 ; # X 5.",
"  =.=.%.%.%.%.%.%.=.=.  =.=.=.=.  I T I Y #.$.$.#.#.#.#.#.#.#.#.#.#.#.#.#.#.#.$.#.#.$.$.#.#.#.$.#.#.#.#.#.#.#.#.#.#.#.#.#.#.#.#.#.#.#.#.#.#.#.#.#.#.#.#.#.#.#.#.#.#.#.#.#.#.#.#.#.#.#.#.#.#.#.#.#.#.#.#.#.#.#.#.#.#.#.#.#.#.@.#.#.#.%.@.@.#.#.%.#.@.#.%.#.  #.O.{ / ! U U B M g u 5 3 & # X ",
"  :.<.<.&.&.&.&.<.>.-.  ,.<.:.-.  I I Q E ,.,.1.,.,.1.1.,.,.1.>.:.:.,.,.:.:.,.-.:.<.>.,.;.,.,.,.;.;.,.,.:.:.,.>.1.,.<.,.1.;.,.1.1.;.,.<.1.1.,.<.;.:.,.<.:.:.1.;.:.;.<.,.1.-.:.,.,.:.,.,.1.-.1.<.<.<.,.,.:.:.-.>.1.1.<.;.<.&.<.&.&.&.&.&.&.&.<.&.&.&.<.<.-.  $.#.O.{ { ! U B N g w 5 3 & # X ",
"  :.;.<.&.&.<.&.<.<.,.      4.4.5.      1.4.1.      1.1.4.      4.4.1.      4.4.4.      1.1.4.      1.4.1.      1.1.1.      4.1.1.      4.1.1.      1.5.4.      4.4.4.      4.1.4.      1.4.1.      4.4.4.      1.1.1.      ;.<.<.&.&.&.&.<.&.&.&.&.&.;.:.  <.$.@.{ ] ! U B M f u 5 < & # X ",
"  :.=.%.%.%.%.%.%.$.=.  =.=.=.=.  T I Y Y #.#.#.$.$.$.$.#.*.#.#.#.$.$.#.#.#.#.#.#.#.#.#.#.=.#.#.*.#.=.#.=.#.$.$.#.#.$.$.#.#.*.#.=.#.$.$.#.#.=.#.#.#.#.$.$.#.#.#.#.#.#.#.#.#.$.#.#.#.#.$.#.#.*.*.#.#.#.#.#.#.$.$.#.#.$.%.#.#.#.#.%.@.%.@.@.#.#.@.%.#.#.@.*.  #.#.#.{ / ! U B N f u 5 < & # X ",
"  #.#.#.@.@.%.@.#.$.$.  $.@.#.#.  L L H G X.X.X.O.O.O.+.+.X.X.X.@.@.O.O.O.O.X...X.O.X.X.@.@.@.@.O.@.@.@.+. .X. .O.O.O.O.O.O.O.O.O.O.@.@.+.O.@.@.O.O.@.@.@.@.@.@.+.O.O...O.O.O.X.+.O.@.@.O.O.O.O.X.@.X.@.+.O.X.X.@.@.@.O.O.O.@.@.O.O.O.@.@.@.@.X.O.O.X.....  %.+.{ ` ! U K B N f u 6 4 ; # X ",
"  o.O.@.X.X.O.@.O.+.+.  +. . ...  F H A D } { { { { { { } { { { { { { { { { { } } { { { { { { { { { { { { { { { { { { { { { { { { { } } { { { { { { { { { { { { { { { { { { { { { { } } { { { { { { { { { { { { { { { { { { { { { { { / { { { { { { { } [   ..{ { ` ! H B N g q 6 3 ; # X 5.",
"  | } } } } { { { } |   } { { }   Z S N M / { / / ] ] ` ] ` ] ` { / / { / / ] ` ] ] ] ` / / { / / { / { { / / / / { ] ] ] / ] ] ] ` ` / / { / / / / { / / / { / ` ` ` ` / / { ] ` ] ` / / { / { / { { / { / / / { / / { / / / { / / / { / / { / / { ` ` '   { ` ] W P U B N g q 5 3 ; # X 5.",
"  ' ] / { / { / ] ] [   ' ` ` '   C N N v ! ! ! ! ! ! ! ! ! ! ! ! ! ! ! ! ! ! ! ! ! ! Q ! W ! W W W ! ! ! ! ! ^ ! ! ! ! ! ! ! ! ! ! ! ! ! ! ! ! ! ! ! ! ! ~ ! ! ! ! ! ! ! ! ! ! ! ! Q ! ! ! ! ! R ! ! ! ! ! ! ~ ! ! W ! ! ! W ^ ^ ! ! ! ! ! ! ! ! W Q E E   ` ! ! U U B N s q u 6 4 ; $ X 5.",
"  ) ) ( / / ^ ^ ^ / _   _ ~ ^ /   C z z g Y Y U U U U U U U U U U P U U U U U I P P I P P P P W U U U P P U U U U U U U U U U U P P U U U U U U P P U U U U U U P U U P U U U U P U P U U U U U U U U U U P U U U U U U P P P W U U U U U U Y U U U K L T   Q ! U U B M M g u 6 3 ; ; # . 5.",
"  E E ! ! ! Q ! ! Q Q   Q ! Q E   x g g s A B A B B B B A B A B B B B B B B B B D B B B D B A B B B A B B B B A A B B B B B A B B B B A A B A B D B B A B B A A B B B A A B A A D B B A A B A A B B A B B B A D A B A B B B B B B B B B B A B A B B A A Z   L Y B B M M g p 6 6 3 ; $ O 5.5.",
"  L Y Y U U U I U I Y   L Y U Y   h s u w m N N M M N M m m N N N N A N m N N m M N N M M M N N m N N m N N B N N N N N m N N m N N N M N M N N N M N M N N m m N N N M N M N m N N N M N M m m m m N N N N N N m m N N N M M M M M M M m m N m M M m N C   A A M M d d p u 6 3 ; # X O 5.5.",
"  H H G G G G H G H J   G G G F   y y 9 9 s g g f f g g g g g s d d d d g g g g d g g g g d d d g g g g d d d d g g g d f g g g g g g g g g g g g d d g g g g s g g g g g g g g d d g g g g g g f f g g d d d d g g g g d f g g f d d d g g g g f f s s k   N N d d e e 5 6 4 & = # X 5.5.5.",
"  Z A A A A A A A D S   S A A A   r r 6 6 p q e p p p u u u t t p t t t t t t t t t t u p e p p t t t t t t t p p p p p u t t t p p p p u t t t p p p p p p u u p p p p t t u t p p p p p u u t t t t u p p u u t t t p t u p p p e u w u u u u u u u u i   k s e e e 5 5 3 % ; # X 4.5.5.5.",
"  n x z z v b v k z c   x z z x   6 6 6 3 6 5 5 5 5 6 5 5 5 5 6 6 5 5 6 6 5 5 5 5 5 5 5 6 6 5 6 6 6 6 6 5 6 5 6 6 5 5 6 6 5 6 6 6 6 6 6 6 6 6 5 6 6 5 5 6 5 5 6 6 6 6 6 6 6 5 6 5 6 6 5 6 5 5 6 5 6 5 5 6 6 6 6 5 5 5 5 5 5 6 6 5 5 6 5 5 5 5 5 6 6 6 6 6   y i 5 5 5 3 3 & # $ O X 5.5.5.5.",
"  j j s s s g g g g j   s s g g   6 4 3 : 3 3 , 3 3 3 3 3 3 3 3 3 3 3 4 3 3 4 3 3 3 3 3 3 3 3 4 3 3 3 3 3 4 3 3 3 3 3 3 3 3 3 3 3 3 4 3 3 3 3 3 3 3 3 3 3 3 3 3 3 3 4 3 3 3 3 3 3 3 3 3 3 3 3 3 3 3 3 3 3 3 4 3 3 3 3 3 3 3 3 3 3 3 3 3 3 3 3 3 1 3 3 4 1   6 6 3 3 3 & & # # O X 5.5.5.5.5.",
"  i u t u w p p u y y   y u u u   4 : : & & & & & & ; & & & & & ; ; ; ; ; & - & & & & & & & & & ; ; ; ; ; & & % & & & & & & & & ; ; ; ; ; & ; & & & & & & & & & ; ; ; ; ; & ; & & & & & & & & & ; ; ; & & & & & & & & & & & & & ; & ; & & & & & & & & ; *   4 1 & & & # # O O 3.5.5.5.5.5.5.",
"  r 0 0 0 7 7 7 8 8 r   0 8 8 0   : - ; # # # # # # # # # # # # # # # # # # # # # # # # # # # # # # # # # # # # # # # # # # # # # # # # # # # # # # # # # # # # # # # # # # # # # # # # # # # # # # # # # # # # # # # # # # # # # # # # # # # # # # # # #   - - # # # # o o 5.5.5.5.5.5.5.5.",
"  6 6 5 5 5 5 5 6 6 6   6 6 6 6   * * # + X X X O O O X O X X X O O O O O X X X X X X X X O O O X X O O O O O O O X X X O X X X O O X X O O O O O O X O O X X X O O X X O O O O X X X O O O O X O O O O O O O O O O X X O X X X X X X X X X X X O O X X X   # # X X X o 5.5.5.5.5.5.5.5.5.5.",
"  2 3 3 3 3 3 3 3 3 2   2 , , 4   * # @ O 5.5.5.5.5.5.5.5.5.5.5.5.5.5.5.5.5.5.5.5.5.5.5.5.4.5.5.5.5.5.5.5.5.5.5.5.5.5.5.5.5.5.5.5.5.5.5.5.5.5.5.5.5.5.5.5.5.4.5.5.5.5.5.5.5.5.5.5.5.5.5.5.5.5.4.5.5.5.5.4.5.5.5.5.5.5.5.5.5.5.5.5.5.5.5.5.4.5.5.5.5.5.5.5.  . O 5.5.5.5.5.5.5.5.5.5.5.5.5.5.",
"  > : : : : : : : : >   : : : :   $ @ .   5.5.5.5.5.5.5.5.5.5.5.5.5.5.5.5.5.5.5.5.5.5.5.5.5.5.5.5.5.5.5.5.5.5.5.5.5.5.5.5.5.5.5.5.5.5.5.5.5.5.5.5.5.5.5.5.5.5.5.5.5.5.5.5.5.5.5.5.5.5.5.5.5.5.5.5.5.5.5.5.5.5.5.5.5.5.5.5.5.5.5.5.5.5.  2.  5.5.5.5.5.5.5.  5.5.5.5.5.5.5.5.5.5.5.5.5.5.5.5.",
"  $ # # # # # # # # $   $ # # #   @ .   5.5.5.5.5.5.5.5.5.5.5.5.5.5.5.5.5.5.5.5.5.5.5.5.5.5.5.5.5.5.5.5.5.5.5.5.5.5.5.5.5.5.5.5.5.5.5.5.5.5.5.5.5.5.5.5.5.5.5.5.5.5.5.5.5.5.5.5.5.5.5.5.5.5.5.5.5.5.5.5.5.5.5.5.5.5.5.5.5.5.5.5.5.5.5.  2.  5.5.5.5.5.5.5.  5.5.5.5.5.5.5.5.5.5.5.5.5.5.5.5.",
"  @ @ + + + + + + + @   + + + +   .   5.4.5.5.5.5.5.5.5.5.5.5.5.5.5.5.5.5.5.5.5.5.5.5.5.5.5.5.5.5.5.5.5.5.5.5.5.5.5.5.5.5.5.5.5.5.5.5.5.5.5.5.5.5.5.5.5.5.5.5.5.5.5.5.5.5.5.5.5.5.5.5.5.5.5.5.5.5.5.5.5.5.5.5.5.5.5.5.5.5.5.5.5.5.5.5.  2.  5.5.5.5.5.5.5.5.5.5.5.5.5.5.5.5.5.5.5.5.5.5.5.5.",
"  . . . X X X . X . .   . . O O     5.5.5.5.5.5.5.5.5.5.5.5.5.5.5.5.5.5.5.5.5.5.5.5.5.5.5.5.5.5.5.5.5.5.5.5.5.5.5.5.5.5.5.5.5.5.5.5.5.5.5.5.5.5.5.5.5.5.5.5.5.5.5.5.5.5.5.5.5.5.5.5.5.5.5.5.5.5.5.5.5.5.5.5.5.5.5.5.5.5.5.5.5.5.5.5.5.  2.  5.5.5.5.5.5.5.5.5.5.5.5.5.5.5.5.5.5.5.5.5.5.5.5.",
"        5.5.5.                    5.5.5.5.5.5.5.5.5.5.5.5.5.5.5.5.5.5.5.5.5.5.5.5.5.5.5.5.5.5.5.5.5.5.5.5.5.5.5.5.5.5.5.5.5.5.5.5.5.5.5.5.5.5.5.5.5.5.5.5.5.5.5.5.5.5.5.5.5.5.5.5.5.5.5.5.5.5.5.5.5.5.5.5.5.5.5.5.5.5.5.5.5.5.5.5.    5.5.    5.5.5.5.5.5.5.5.5.5.5.5.5.5.5.5.5.5.5.5.5.5.5.",
"5.5.5.5.  5.2.  5.5.5.5.5.5.5.5.5.5.5.5.5.5.5.5.5.5.5.5.5.5.5.5.5.5.5.5.5.5.5.5.5.5.5.5.5.5.5.5.5.5.5.5.5.5.5.5.5.5.5.5.5.5.5.5.5.5.5.5.5.5.5.5.5.5.5.5.5.5.5.5.5.5.5.5.5.5.5.5.5.5.5.5.5.5.5.5.5.5.5.5.5.5.5.5.5.5.5.5.5.5.5.5.5.5.5.5.5.5.5.5.5.5.5.5.5.5.5.5.5.5.5.5.5.5.5.5.5.5.5.5.5.5.",
"5.5.5.5.  5.2.  5.5.5.5.5.5.5.5.5.5.5.5.5.5.5.5.5.5.5.5.5.5.5.5.5.5.5.5.5.5.5.5.5.5.5.5.5.5.5.5.5.5.5.5.5.5.5.5.5.5.5.5.5.5.5.5.5.5.5.5.5.5.5.5.5.5.5.5.5.5.5.5.5.5.5.5.5.5.5.5.5.5.5.5.5.5.5.5.5.5.5.5.5.5.5.5.5.5.5.5.5.5.5.5.5.5.5.5.5.5.5.5.5.5.5.5.5.5.5.5.5.5.5.5.5.5.5.5.5.5.5.5.5.5.",
"5.5.5.5.  5.2.  5.5.5.5.5.5.5.5.5.5.5.5.5.5.5.5.5.5.5.5.5.5.5.5.5.5.5.5.5.5.5.5.5.5.5.5.5.5.5.5.5.5.5.5.5.5.5.5.5.5.5.5.5.5.5.5.5.5.5.5.5.5.5.5.5.5.5.5.5.5.5.5.5.5.5.5.5.5.5.5.5.5.5.5.5.5.5.5.5.5.5.5.5.5.5.5.5.5.5.5.5.5.5.5.5.5.5.5.5.5.5.5.5.5.5.5.5.5.5.5.5.5.5.5.5.5.5.5.5.5.5.5.5.5.",
"5.5.5.5.  5.2.  5.5.5.5.5.5.5.5.5.5.5.5.5.5.5.5.5.5.5.5.5.5.5.5.5.5.5.5.5.5.5.5.5.5.5.5.5.5.5.5.5.5.5.5.5.5.5.5.5.5.5.5.5.5.5.5.5.5.5.5.5.5.5.5.5.5.5.5.5.5.5.5.5.5.5.5.5.5.5.5.5.5.5.5.5.5.5.5.5.5.5.5.5.5.5.5.5.5.5.5.5.5.5.5.5.5.5.5.5.5.5.5.5.5.5.5.5.5.5.5.5.5.5.5.5.5.5.5.5.5.5.5.5.5.",
"5.5.5.5.  5.5.  5.5.5.5.5.5.5.5.5.5.5.5.5.5.5.5.5.5.5.5.5.5.5.5.5.5.5.5.5.5.5.5.5.5.5.5.5.5.5.5.5.5.5.5.5.5.5.5.5.5.5.5.5.5.5.5.5.5.5.5.5.5.5.5.5.5.5.5.5.5.5.5.5.5.5.5.5.5.5.5.5.5.5.5.5.5.5.5.5.5.5.5.5.5.5.5.5.5.5.5.5.5.5.5.5.5.5.5.5.5.5.5.5.5.5.5.5.5.5.5.5.5.5.5.5.5.5.5.5.5.5.5.5.5."
};
