/* XPM */
static char * hetran_hetran_e_ht_2[] = {
"134 50 236 2",
"  	c None",
". 	c #000100",
"+ 	c #F6F6EC",
"@ 	c #000000",
"# 	c #010100",
"$ 	c #020200",
"% 	c #020100",
"& 	c #4A4B46",
"* 	c #4A4B45",
"= 	c #4B4A45",
"- 	c #4B4C46",
"; 	c #010000",
"> 	c #F7F7EB",
", 	c #595854",
"' 	c #5A5A52",
") 	c #595951",
"! 	c #585953",
"~ 	c #3B3C37",
"{ 	c #000200",
"] 	c #65645F",
"^ 	c #65655B",
"/ 	c #64645A",
"( 	c #64655D",
"_ 	c #010200",
": 	c #717169",
"< 	c #727266",
"[ 	c #717165",
"} 	c #707066",
"| 	c #707169",
"1 	c #717167",
"2 	c #4B4B43",
"3 	c #3C3B36",
"4 	c #86867E",
"5 	c #86867A",
"6 	c #868779",
"7 	c #85867E",
"8 	c #86867C",
"9 	c #59594F",
"0 	c #3B3C36",
"a 	c #3B3C34",
"b 	c #3B3B39",
"c 	c #3A3A38",
"d 	c #8D8F84",
"e 	c #8E8F81",
"f 	c #8E8F7F",
"g 	c #8E8E82",
"h 	c #8D8E86",
"i 	c #585850",
"j 	c #4C4C44",
"k 	c #4B4B41",
"l 	c #4B4A46",
"m 	c #3C3D38",
"n 	c #97998E",
"o 	c #989989",
"p 	c #989987",
"q 	c #979888",
"r 	c #98998B",
"s 	c #98988C",
"t 	c #989A8F",
"u 	c #727268",
"v 	c #66665C",
"w 	c #656559",
"x 	c #65655D",
"y 	c #4A4C41",
"z 	c #4A4B43",
"A 	c #A0A096",
"B 	c #A0A191",
"C 	c #9FA08E",
"D 	c #A0A18F",
"E 	c #A0A193",
"F 	c #9FA196",
"G 	c #9FA092",
"H 	c #7C7C72",
"I 	c #7C7C70",
"J 	c #B1B1A5",
"K 	c #B1B2A2",
"L 	c #B1B2A0",
"M 	c #B1B2A4",
"N 	c #B1B1A7",
"O 	c #B2B0A3",
"P 	c #B3B1A4",
"Q 	c #8F8F83",
"R 	c #717264",
"S 	c #4B4C44",
"T 	c #B8B8AC",
"U 	c #B8B9A9",
"V 	c #B8BAA5",
"W 	c #BAB9A7",
"X 	c #BAB8A9",
"Y 	c #999A8C",
"Z 	c #868777",
"` 	c #C0C0B4",
" .	c #C1C2B0",
"..	c #C0C2AD",
"+.	c #C2C1AD",
"@.	c #C0C2AC",
"#.	c #C2C0B1",
"$.	c #C3C1B2",
"%.	c #A9AA9A",
"&.	c #A9AA98",
"*.	c #A9AA9C",
"=.	c #C7C7BB",
"-.	c #C9C8B6",
";.	c #C9C8B3",
">.	c #C9C8B4",
",.	c #C8C8BC",
"'.	c #C8C7B5",
").	c #B8B9A7",
"!.	c #B0B2A5",
"~.	c #B2B3A3",
"{.	c #A2A18F",
"].	c #999A8A",
"^.	c #D5D6C8",
"/.	c #D7D6C4",
"(.	c #D7D6C1",
"_.	c #D6D5C0",
":.	c #D7D6C2",
"<.	c #D8D7C5",
"[.	c #D6D6CA",
"}.	c #AAAB99",
"|.	c #C2C1AF",
"1.	c #C0C1AF",
"2.	c #B3B2A0",
"3.	c #A1A292",
"4.	c #707163",
"5.	c #3A3B35",
"6.	c #DBDCCE",
"7.	c #DDDCCA",
"8.	c #DDDCC7",
"9.	c #DEDDC8",
"0.	c #DDDCC8",
"a.	c #B1B39E",
"b.	c #D1D0BE",
"c.	c #D0CFBB",
"d.	c #D0CFBA",
"e.	c #D0CFBD",
"f.	c #BAB9A5",
"g.	c #9A9889",
"h.	c #888679",
"i.	c #E0E1D3",
"j.	c #E2E1CD",
"k.	c #E2E1CC",
"l.	c #DEDCC7",
"m.	c #898778",
"n.	c #E6E7D9",
"o.	c #E9E8D4",
"p.	c #E9E9D1",
"q.	c #E8E7D2",
"r.	c #E8E8D0",
"s.	c #E8E7D3",
"t.	c #3C3B37",
"u.	c #F2F3E3",
"v.	c #F4F3DE",
"w.	c #F4F4DC",
"x.	c #F5F5DD",
"y.	c #F3F3DB",
"z.	c #F4F3DF",
"A.	c #F5F4DF",
"B.	c #CAC9B4",
"C.	c #EEEDD8",
"D.	c #EEEED6",
"E.	c #EEEED4",
"F.	c #EEEDD9",
"G.	c #F7F8E8",
"H.	c #F9F8E3",
"I.	c #F9F9E1",
"J.	c #F9F9DF",
"K.	c #FAFAE2",
"L.	c #F9F8E4",
"M.	c #F8F7E2",
"N.	c #ECEDDF",
"O.	c #FDFEEE",
"P.	c #FFFEE9",
"Q.	c #FFFFE7",
"R.	c #FFFFE5",
"S.	c #FFFFEA",
"T.	c #C7C8B6",
"U.	c #F8F8E0",
"V.	c #D5D6C4",
"W.	c #D5D7C2",
"X.	c #F7F8EA",
"Y.	c #F2F3E5",
"Z.	c #CECFBD",
"`.	c #CFD1BC",
" +	c #E6E6DA",
".+	c #E7E6D2",
"++	c #CAC9B7",
"@+	c #C8C7B3",
"#+	c #C7C9B4",
"$+	c #E9E7D2",
"%+	c #E6E8D2",
"&+	c #97988A",
"*+	c #E0E0D4",
"=+	c #E2E1CF",
"-+	c #E3E2CD",
";+	c #DFE0D2",
">+	c #DBDDC7",
",+	c #020300",
"'+	c #B2B19F",
")+	c #DBDBCF",
"!+	c #64665B",
"~+	c #D5D5C9",
"{+	c #B0B19F",
"]+	c #C9C7B8",
"^+	c #A8A997",
"/+	c #C7C8B8",
"(+	c #B9BAA8",
"_+	c #494A44",
":+	c #C1C0AC",
"<+	c #AAAB9B",
"[+	c #B0B2A7",
"}+	c #9FA090",
"|+	c #87887A",
"1+	c #B0B0A6",
"2+	c #B1B3A6",
"3+	c #908E81",
"4+	c #7E7C70",
"5+	c #98988E",
"6+	c #67645B",
"7+	c #85877C",
"8+	c #3A3B36",
"9+	c #8E8E86",
"0+	c #8F9082",
"a+	c #858579",
"b+	c #595853",
"c+	c #3D3C37",
"d+	c #3A3B33",
"e+	c #64655F",
"f+	c #585951",
"g+	c #292927",
"h+	c #59594D",
"i+	c #494A45",
"j+	c #000002",
"k+	c #282826",
"l+	c #282924",
"m+	c #010101",
"      .   +   @                                                                                                                                                                                                                                                             ",
"        #     @                                                                                                                                                                                                                                                             ",
"        #     @                                                                                                                                                                                                                                                             ",
"        #     @                                                                                                                                                                                                                                                             ",
"        $     @                                                                                                                                                                                                                                                             ",
"@ @ @ .     . . @ @ @ @ @ @ @ @                 %     . @                                                                                                                                                                                                                   ",
"@ & & * = = * * - & . & & & & @ @                 ; > #                                                                                                                                                                                                                     ",
"; , ' ) ) ) ) ) ) ) . ! ) ) ! . ~ @               .   {                                                                                                                                                                                                                     ",
"; ] ^ ^ ^ / ^ ^ ^ ^ . ( ^ ^ ( _ * ~ @             .   .                                                                                                                                                                                     @                               ",
"; : < [ [ [ < [ [ } . | 1 1 | . ) 2 3 ;           .   .                                                                                                                                                                                     @                               ",
"; 4 5 6 6 6 6 6 5 5 . 7 8 5 7 . 9 9 ) 3 ~ ~ 0 0 ~     a ~ ~ ~ ~ ~ ~ ~ 0 ~ ~ ~ 0 ~ ~ ~ 0 ~ ~ ~ ~ ~ ~ ~ 0 ~ ~ ~ 0 ~ ~ ~ 0 ~ ~ ~ ~ ~ ~ ~ 0 ~ ~ ~ 0 ~ ~ ~ 0 ~ ~ ~ ~ ~ ~ ~ 0 ~ ~ ~ 0 ~ ~ ~ 0 ~ ~ ~ ~ ~ ~ ~ 0 ~ ~ ~ 0 ~ ~ ~ 0 ~ ~ 0 0 ~ ~ 0 0 ~ b @ c b                           ",
". d e f e e e f e g . d g g h . ^ ^ 9 i 2 2 2 2 = 2 2 j 2 = 2 2 = 2 2 2 = 2 2 2 = 2 2 2 2 2 2 2 = 2 2 2 = 2 2 2 = 2 2 2 2 2 2 2 = 2 2 2 = 2 2 2 = 2 2 2 2 2 2 2 = 2 2 2 = 2 2 2 = 2 2 2 2 2 2 2 = 2 2 2 = 2 2 2 = 2 2 2 2 2 2 2 = 2 k k 2 = ; l = 3 0 0 m                   ",
". n o p o o q o r s { n s s t . u 1 ^ ^ ^ ^ ^ ^ ^ ^ ^ v v ^ ^ ^ ^ ^ ^ ^ ^ ^ ^ ^ ^ ^ ^ ^ ^ ^ ^ ^ ^ ^ ^ ^ ^ ^ ^ ^ ^ ^ ^ ^ ^ ^ ^ ^ ^ ^ ^ ^ ^ ^ ^ ^ ^ ^ ^ ^ ^ ^ ^ ^ ^ ^ ^ ^ ^ ^ ^ ^ ^ ^ ^ ^ ^ ^ ^ ^ ^ ^ ^ ^ ^ ^ ^ ^ ^ ^ ^ ^ ^ ^ ^ ^ ^ ^ w w ^ x ; ] x k y z * ~                 ",
"; A B C B B B D B E { F E G F . H I [ [ H H I I I I I I I I I I I I I I I I I I I I I I I I I I I I I I I I I I I I I I I I I I I I I I I I I I I I I I I I I I I I I I I I I I I I I I I I I I I I I I I I I I I I I I I I I I I I I I I H . | } w w ^ 2 = 0 0             ",
"; J K L K L L L L M # N O P N { 5 5 I I g Q e e e e e e e e e e e e e e e e e e e e e e e e e e e e e e e e e e e e e e e e e e e e e e e e e e e e e e e e e e e e e e e e e e e e e e e e e e e e e e e e e e e e e e e e e e e e e e e g . 7 5 R [ [ ^ x z S 0           ",
"# T U V W W V V W U # T X X T # Y e 6 6 r o o o o o o o o o o o o o o o o o o o o o o o o o o o o o o o o o o o o o o o o o o o o o o o o o o o o o o o o o o o o o o o o o o o o o o o o o o o o o o o o o o o o o o o o o o o o o o o o r { n r Z 6 5 [ 1 ^ 2 z 0         ",
"# `  ...+.+.@.@.+.#.# ` #.$.` # E o r f %.%.&.&.%.&.&.&.%.&.&.&.%.&.&.&.%.&.&.&.%.&.&.&.%.&.&.&.%.&.&.&.%.&.&.&.%.&.&.&.%.&.&.&.%.&.&.&.%.&.&.&.%.&.&.&.%.&.&.&.%.&.&.&.%.&.&.&.%.&.&.&.%.&.&.&.%.&.&.&.%.&.&.&.%.&.&.&.%.&.&.&.%.&.&.&.%.*.{ F E o r 6 6 [ [ ^ y z ~       ",
"# =.-.;.;.;.;.;.>.-.# ,.'.-.=.# %.D B o X W ).).W W ).V W W ).V W W ).V W W ).V W W ).V W W ).V W W ).V W W ).V W W ).V W W ).V W W ).V W W ).V W W ).V W W ).V W W ).V W W ).V W W ).V W W ).V W W ).V W W ).V W W ).V W W ).V W W ).V W U { !.~.{.B ].].6 6 [ ^ 2 0       ",
"# ^./.(.(._.(.(.:./.# ^./.<.[.# K }.%.D |.|.1.1.|.+.....|.+.....|.+.+.+.|.+.+.+.|.+.....|.+.....|.+.+.+.|.+.+.+.|.+.....|.+.....|.+.+.+.|.+.+.+.|.+.....|.+.....|.+.+.+.|.+.+.+.|.+.....|.+.....|.+.+.+.|.+.+.+.|.+.....|.+.....|.+.....|.#.# T X 2.K 3.B o 6 4.[ ^ z 5.    ",
"$ 6.7.8.8.8.9.8.8.0._ 6.7.0.6._ L a.L &.b.c.c.c.c.c.c.d.c.c.c.d.c.c.c.d.c.c.c.d.c.c.c.d.c.c.c.d.c.c.c.d.c.c.c.d.c.c.c.d.c.c.c.d.c.c.c.d.c.c.c.d.c.c.c.d.c.c.c.d.c.c.c.d.c.c.c.d.c.c.c.d.c.c.c.d.c.c.c.d.c.c.c.d.c.c.c.d.c.c.c.d.c.c.c.d.c.e.# =.-.f.).L B B g.h.[ ^ 2 = b   ",
"# i.j.k.k.k.k.k.k.j._ i.j.j.i._ ).V L a.0.0.0.0.0.8.8.8.8.8.8.8.0.8.l.l.0.8.l.l.0.8.8.8.0.8.8.8.0.8.l.l.0.8.l.l.0.8.8.8.0.8.8.8.0.8.l.l.0.8.l.l.0.8.8.8.0.8.8.8.0.8.l.l.0.8.l.l.0.8.8.8.0.8.8.8.0.8.l.l.0.8.l.l.0.8.8.8.0.8.8.8.0.8.8.8.0.7.# ^.-.>.V ).L B g.m.5 [ ^ = ~   ",
"# n.o.p.q.q.r.p.q.s._ n.s.s.n._ |.+.+.+.s.q.q.q.q.q.r.r.q.q.q.r.q.q.q.r.q.q.q.r.q.q.q.r.q.q.q.r.q.q.q.r.q.q.q.r.q.q.q.r.q.q.q.r.q.q.q.r.q.q.q.r.q.q.q.r.q.q.q.r.q.q.q.r.q.q.q.r.q.q.q.r.q.q.q.r.q.q.q.r.q.q.q.r.q.q.q.r.q.q.q.r.q.q.q.r.q.s._ 6./.(.;.f.).L B o 5 [ ^ 2 t.  ",
"# u.v.w.v.w.x.w.y.z._ u.v.A.u._ -.>.>.B.C.D.D.D.C.D.E.E.D.D.D.D.C.D.D.D.C.D.D.D.C.D.D.D.C.D.D.D.C.D.D.D.C.D.D.D.C.D.D.D.C.D.D.D.C.D.D.D.C.D.D.D.C.D.D.D.C.D.D.D.C.D.D.D.C.D.D.D.C.D.D.D.C.D.D.D.C.D.D.D.C.D.D.D.C.D.D.D.C.D.D.D.C.D.D.D.C.F._ n.0.8.(.;.).L B o 6 [ ^ 2 t.  ",
"# G.H.I.I.I.J.J.K.L._ G.H.H.G._ e.c.d.d.M.I.I.J.I.I.J.J.I.I.I.J.I.I.I.J.I.I.I.J.I.I.I.J.I.I.I.J.I.I.I.J.I.I.I.J.I.I.I.J.I.I.I.J.I.I.I.J.I.I.I.J.I.I.I.J.I.I.I.J.I.I.I.J.I.I.I.J.I.I.I.J.I.I.I.J.I.I.I.J.I.I.I.J.I.I.I.J.I.I.I.J.I.I.I.J.I.L._ N.s.8.(.B.).).L 3.r 6 [ ^ = t.",
"# O.P.Q.Q.Q.R.R.Q.P._ O.P.S.O._ /.:.(.(.Q.Q.R.R.Q.Q.R.R.Q.Q.R.R.Q.Q.R.R.Q.Q.R.R.Q.Q.R.R.Q.Q.R.R.Q.Q.R.R.Q.Q.R.R.Q.Q.R.R.Q.Q.R.R.Q.Q.R.R.Q.Q.R.R.Q.Q.R.R.Q.Q.R.R.Q.Q.R.R.Q.Q.R.R.Q.Q.R.R.Q.Q.R.R.Q.Q.R.R.Q.Q.R.R.Q.Q.R.R.Q.Q.R.R.Q.Q.R.R.Q.P._ N.F.q.8.(.T.).L D o 6 [ ^ 2 t.",
"$ G.H.I.I.I.I.K.U.H._ G.H.H.G._ V.W.(.(.I.I.I.I.I.I.I.I.I.I.I.I.I.I.I.I.I.I.I.I.I.I.I.I.I.I.I.I.I.I.I.I.I.I.I.I.I.I.I.I.I.I.I.I.I.I.I.I.I.I.I.I.I.I.I.I.I.I.I.I.I.I.I.I.I.I.I.I.I.I.I.I.I.I.I.I.I.I.I.I.I.I.I.I.I.I.I.I.I.I.I.I.I.I.I.I.I.H._ X.F.q.8._.-.W a.D o 6 [ / 2 t.",
"# Y.z.w.w.w.w.w.w.z._ Y.z.z.Y._ Z.`.d.d.C.D.D.D.D.D.D.D.D.D.D.D.D.D.D.D.D.D.D.D.D.D.D.D.D.D.D.D.D.D.D.D.D.D.D.D.D.D.D.D.D.D.D.D.D.D.D.D.D.D.D.D.D.D.D.D.D.D.D.D.D.D.D.D.D.D.D.D.D.D.D.D.D.D.D.D.D.D.D.D.D.D.D.D.D.D.D.D.D.D.D.D.D.D.D.D.D.F._ N.F.q.9.(.-.W L D o 6 [ ^ = t.",
";  +.+q.q.q.q.q.q.s._ n..+s.n._ ++@+#+;.q.$+q.q.q.q.q.q.q.q.q.q.q.q.q.q.q.q.q.q.q.q.q.q.q.q.q.q.q.q.q.q.q.q.q.q.q.q.q.q.q.q.q.q.q.q.q.q.q.q.q.q.q.q.q.q.q.q.q.q.q.q.q.q.q.q.q.q.q.q.q.q.q.q.q.q.q.q.q.q.q.q.q.q.q.q.q.q.q.q.q.q.q.q.%+%+q.s._ N.s.l.(.;.W W L B &+6 [ ^ * ~ ",
"; *+=+-+k.k.k.k.k.j._ i.j.j.;+_ |.+.....0.l.0.0.8.8.8.8.8.8.8.8.8.8.8.8.8.8.8.8.8.8.8.8.0.0.8.8.8.8.8.8.8.8.8.8.8.8.8.8.0.0.8.8.8.8.8.8.8.8.8.8.8.8.8.8.0.0.8.8.8.8.8.8.8.8.8.8.8.8.8.8.0.0.8.8.8.8.8.8.8.8.8.8.8.8.8.8.0.0.8.8.8.8.>+>+8.0.,+n.0.8.(.>.W '+B o 6 [ ^ 2 0   ",
"# )+7.8.8.8.9.8.8.0._ 6.0.0.6.# U ).L a.c.c.c.c.c.c.c.c.c.c.c.c.c.c.c.c.c.c.c.c.c.c.c.c.c.c.c.c.c.c.c.c.c.c.c.c.c.c.c.c.c.c.c.c.c.c.c.c.c.c.c.c.c.c.c.c.c.c.c.c.c.c.c.c.c.c.c.c.c.c.c.c.c.c.c.c.c.c.c.c.c.c.c.c.c.c.c.c.c.c.c.c.c.c.c.c.c.e._ 6./.:.>.).).L B o 6 [ !+z ~   ",
"# ~+/.(._.(.(.(.(.:._ ^././.~+# K {+L &.|.+.+.+.+.+.+.+.+.+.+.+.+.+.+.+.+.+.+.+.+.+.+.+.+.+.+.+.+.+.+.+.+.+.+.+.+.+.+.+.+.+.+.+.+.+.+.+.+.+.+.+.+.+.+.+.+.+.+.+.+.+.+.+.+.+.+.+.+.+.+.+.+.+.+.+.+.+.+.+.+.+.+.+.+.+.+.+.+.+.+.+.+.+.+.+.+.|._ ^.-.>.).).L D o 6 5 [ !+z ~   ",
"# =.-.>.>.>.>.>.>.-.$ =.]+]+=.$ K ^+%.D ).).).).).).).).).).).).).).).).).).).).).).).).).).).).).).).).).).).).).).).).).).).).).).).).).).).).).).).).).).).).).).).).).).).).).).).).).).).).).).).).).).).).).).).).).).).).).).).).).U # =./+(+).L B B r 6 [ ^ z _+b   ",
"# ` #.+.+.+.+.:++.1.# ` #.#.` # <+D B o %.}.&.&.&.&.&.&.&.&.&.&.&.&.&.&.&.&.&.&.&.&.&.&.&.&.&.&.&.&.&.&.&.&.&.&.&.&.&.&.&.&.&.&.&.&.&.&.&.&.&.&.&.&.&.&.&.&.&.&.&.&.&.&.&.&.&.&.&.&.&.&.&.&.&.&.&.&.&.&.&.&.&.&.&.&.&.&.&.&.&.&.&.&.&.&.&.%.# T U L L D B o 6 [ 1 x z 5.    ",
"; T U ).).).).).).U # T X X T { E o r f o o o o o o o o o o o o o o o o o o o o o o o o o o o o o o o o o o o o o o o o o o o o o o o o o o o o o o o o o o o o o o o o o o o o o o o o o o o o o o o o o o o o o o o o o o o o o o o o g.r # [+M }+B o Y |+5 [ x = 0       ",
"; 1+K L L L L L L K { !.K K 2+{ r e 6 6 e e e e e e e e e e e e e e e e e e e e e e e e e e e e e e e e e e e e e e e e e e e e e e e e e e e e e e e e e e e e e e e e e e e e e e e e e e e e e e e e e e e e e e e e e e e e e e e e 3+g { F E ].o 6 6 [ [ ^ = = ~       ",
"; A E B B B B B B E { F E E F { 5 5 I I I I I I I I I I 4+4+I I I I I I I I I I I I I I I I I I I I I I I I I I I I I I I I I I I I I I I I I I I I I I I I I I I I I I I I I I I I I I I I I I I I I I I I I I I I I I I I I I I I 4+4+I H { n r 6 6 6 [ 1 ^ 2 * ~         ",
"% 5+r o o o o o o r { n r r n . H I [ 1 ^ ^ ^ ^ ^ ^ ^ ^ 6+^ ^ ^ ^ ^ ^ ^ ^ ^ ^ ^ ^ ^ ^ ^ ^ ^ ^ ^ ^ ^ ^ ^ ^ ^ ^ ^ ^ ^ ^ ^ ^ ^ ^ ^ ^ ^ ^ ^ ^ ^ ^ ^ ^ ^ ^ ^ ^ ^ ^ ^ ^ ^ ^ ^ ^ ^ ^ ^ ^ ^ ^ ^ ^ ^ ^ ^ ^ ^ ^ ^ ^ ^ ^ ^ ^ ^ ^ ^ ^ ^ ^ ^ ^ ^ ^ ^ ^ ^ . 7+5 R [ [ v x 2 3 8+          ",
"; 9+g e e e 0+e e Q { d e e d . 1 } ^ x 2 j 2 2 2 2 z z 2 2 2 z 2 2 z z 2 2 z z 2 2 z z 2 2 z z 2 2 z z 2 2 z z 2 2 z z 2 2 z z 2 2 z z 2 2 z z 2 2 z z 2 2 z z 2 2 z z 2 2 z z 2 2 z z 2 2 z z 2 2 z z 2 2 z z 2 2 z S 2 2 z z 2 2 2 2 2 2 . | 1 w ^ v 2 = 0 ~             ",
"; 4 5 6 6 6 6 6 6 5 . 7+a+5 7+. ^ ^ ) b+3 t.3 3 t.t.0 0 t.t.0 0 t.t.0 0 t.t.0 0 t.t.0 0 t.t.0 0 t.t.0 0 t.t.0 0 t.t.0 0 t.t.0 0 t.t.0 0 t.t.0 0 t.t.0 0 t.t.0 0 t.t.0 0 t.t.0 0 t.t.0 0 t.t.0 0 t.t.0 0 t.t.0 0 t.t.0 0 t.c+a d+3 t.0 0 t.~ . e+( 2 2 2 3 t.                ",
"; : 1 [ [ [ [ [ [ 1 _ | 1 1 | . 9 9 f+0 g+                                                                                                                                                                                                  . & - 0 0 ~ ~                   ",
"; x ^ w ^ ^ w w v x . e+x x e+. ) 2 0 .                                                                                                                                                                                   .     .           @ b b                           ",
"; b+) 9 ) 9 h+h+9 ) . ! ) ) ! . - ~ @                                                                                                                                                                                     .   G..           @                               ",
"; l = 2 = 2 2 2 2 = . i+= = & . ~ @                                                                                                                                                                                       .   G.;           j+                              ",
"@ k+l+l+l+l+l+l+l+l+@ k+l+l+k+@ @                                                                                                                                                                                         .   > %                                           ",
"m+@ @ @     @ @ @ @ # @ @ @ @ @                                                                                                                                                                                         @       @                                           ",
"        .   @                                                                                                                                                                                                                                                               ",
"        {   .                                                                                                                                                                                                                                                               ",
"        {   .                                                                                                                                                                                                                                                               ",
"        .   @                                                                                                                                                                                                                                                               ",
"        @   @ @                                                                                                                                                                                                                                                             "};
