/* XPM */
static char * hetran_hetran_e_ht_1cn[] = {
"138 50 304 2",
"  	c None",
". 	c #000000",
"+ 	c #000100",
"@ 	c #010000",
"# 	c #010100",
"$ 	c #010101",
"% 	c #F7F8EA",
"& 	c #4B4A46",
"* 	c #4B4A45",
"= 	c #494A44",
"- 	c #4A4B45",
"; 	c #4C4B46",
"> 	c #4A4B46",
", 	c #FFFEEC",
"' 	c #F7F8E6",
") 	c #595853",
"! 	c #595951",
"~ 	c #595854",
"{ 	c #575850",
"] 	c #585951",
"^ 	c #59594F",
"/ 	c #3B3B39",
"( 	c #585953",
"_ 	c #65655D",
": 	c #65655B",
"< 	c #66665C",
"[ 	c #65645F",
"} 	c #64665B",
"| 	c #63655A",
"1 	c #656559",
"2 	c #3B3C37",
"3 	c #F7F8E8",
"4 	c #64655D",
"5 	c #717169",
"6 	c #717165",
"7 	c #737165",
"8 	c #727266",
"9 	c #717167",
"0 	c #3C3B36",
"a 	c #F7F7EB",
"b 	c #3B3C36",
"c 	c #707066",
"d 	c #707169",
"e 	c #707064",
"f 	c #86867C",
"g 	c #868779",
"h 	c #888679",
"i 	c #86867A",
"j 	c #87887A",
"k 	c #3C3D38",
"l 	c #3C3D37",
"m 	c #85867E",
"n 	c #8E8E84",
"o 	c #8E8F81",
"p 	c #908E81",
"q 	c #8F8D7E",
"r 	c #8D8E80",
"s 	c #8E9082",
"t 	c #8D8F82",
"u 	c #64655F",
"v 	c #5A5A50",
"w 	c #4B4B43",
"x 	c #4B4B41",
"y 	c #8E8F7F",
"z 	c #8E8E82",
"A 	c #8D8F84",
"B 	c #8F8F83",
"C 	c #98988E",
"D 	c #98998B",
"E 	c #9A9889",
"F 	c #989989",
"G 	c #97998B",
"H 	c #989A8D",
"I 	c #67645B",
"J 	c #64645A",
"K 	c #97988A",
"L 	c #98988C",
"M 	c #000200",
"N 	c #97998E",
"O 	c #979888",
"P 	c #9F9F93",
"Q 	c #A0A191",
"R 	c #9FA090",
"S 	c #A0A096",
"T 	c #A0A18F",
"U 	c #A0A193",
"V 	c #7B7C74",
"W 	c #7B7B73",
"X 	c #7C7C70",
"Y 	c #7B7B6F",
"Z 	c #7C7C72",
"` 	c #7B7D70",
" .	c #646659",
"..	c #707265",
"+.	c #7C7C74",
"@.	c #9FA196",
"#.	c #A19F90",
"$.	c #9FA08E",
"%.	c #B1B1A5",
"&.	c #B1B2A2",
"*.	c #B1B2A0",
"=.	c #B0B1A1",
"-.	c #B1B1A7",
";.	c #B1B2A4",
">.	c #8D8F81",
",.	c #707264",
"'.	c #B2B0A3",
").	c #B3B2A0",
"!.	c #B2B3A1",
"~.	c #B8B9AB",
"{.	c #B8B9A7",
"].	c #B8B8AC",
"^.	c #B8B9A9",
"/.	c #B8BAA5",
"(.	c #010300",
"_.	c #979890",
":.	c #999A8A",
"<.	c #7B7D6F",
"[.	c #858779",
"}.	c #020200",
"|.	c #BAB9A7",
"1.	c #BAB8A9",
"2.	c #B9BAA8",
"3.	c #C0C1B3",
"4.	c #C0C2AD",
"5.	c #C0C1AF",
"6.	c #C1C3AE",
"7.	c #C0C0B4",
"8.	c #C0C1B1",
"9.	c #A9AA9A",
"0.	c #A9AA98",
"a.	c #AAAB99",
"b.	c #848776",
"c.	c #8D907F",
"d.	c #C2C1AF",
"e.	c #C2C0B1",
"f.	c #C3C2AE",
"g.	c #C2C1AD",
"h.	c #C7C8BA",
"i.	c #C9C8B4",
"j.	c #CAC9B4",
"k.	c #C8C7B5",
"l.	c #C7C7BB",
"m.	c #C9C8B6",
"n.	c #C9C8B3",
"o.	c #C7C8B6",
"p.	c #A8AA9D",
"q.	c #B9B8A6",
"r.	c #BAB9A5",
"s.	c #A9A99F",
"t.	c #C8C8BC",
"u.	c #C7C8B8",
"v.	c #D7D5C6",
"w.	c #D7D6C2",
"x.	c #D7D6C1",
"y.	c #D8D7C3",
"z.	c #D5D5C9",
"A.	c #010200",
"B.	c #D7D6C4",
"C.	c #D6D7C5",
"D.	c #B0B2A5",
"E.	c #A9AA9C",
"F.	c #C2C1AC",
"G.	c #C0C2AC",
"H.	c #D5D6C8",
"I.	c #D5D6C6",
"J.	c #DDDBCC",
"K.	c #DEDDC8",
"L.	c #DDDCC7",
"M.	c #DDDCC8",
"N.	c #DBDBCF",
"O.	c #DDDCCA",
"P.	c #DBDCCA",
"Q.	c #AFB1A4",
"R.	c #CDCFBA",
"S.	c #CFCEBA",
"T.	c #D0CFBB",
"U.	c #D1D0BB",
"V.	c #D0CFBA",
"W.	c #DEDDCB",
"X.	c #DBDCCE",
"Y.	c #DBDCCC",
"Z.	c #020100",
"`.	c #E2E0D1",
" +	c #E2E1CC",
".+	c #E2E1CD",
"++	c #E0E1D3",
"@+	c #E2E1CF",
"#+	c #B7B9AC",
"$+	c #B1B39E",
"%+	c #DCDEC9",
"&+	c #DEDCC7",
"*+	c #B0B19F",
"=+	c #B8B8AE",
"-+	c #E0E1D1",
";+	c #E8E6D7",
">+	c #E8E7D2",
",+	c #E8E8D0",
"'+	c #E9E8D3",
")+	c #E6E7D9",
"!+	c #E8E7D3",
"~+	c #E8E7D5",
"{+	c #E9E9D1",
"]+	c #E6E7D5",
"^+	c #F4F2E3",
"/+	c #F4F4DC",
"(+	c #F4F3DE",
"_+	c #F4F4DA",
":+	c #F1F2E2",
"<+	c #F4F3DF",
"[+	c #EEEDD8",
"}+	c #EEEED6",
"|+	c #C8C7B3",
"1+	c #C7C9B4",
"2+	c #F5F4E0",
"3+	c #F3F2DD",
"4+	c #F2F3E5",
"5+	c #F5F5DD",
"6+	c #F2F3E1",
"7+	c #F9F8E6",
"8+	c #F9F9E1",
"9+	c #F9F9DF",
"0+	c #F9F8E3",
"a+	c #F8F9E9",
"b+	c #020300",
"c+	c #F9F8E4",
"d+	c #CECEC2",
"e+	c #D0CFBD",
"f+	c #D1CFBA",
"g+	c #FAF8E1",
"h+	c #FAFAE2",
"i+	c #F8FAE5",
"j+	c #FFFFE7",
"k+	c #FFFFE5",
"l+	c #FFFEE9",
"m+	c #FDFEEE",
"n+	c #FFFEEA",
"o+	c #D8D6C1",
"p+	c #FFFEE7",
"q+	c #FEFEE4",
"r+	c #FFFFE8",
"s+	c #FDFFEA",
"t+	c #F8F7E5",
"u+	c #F6F7E7",
"v+	c #F8F8E0",
"w+	c #F4F3E1",
"x+	c #EDEDD5",
"y+	c #E7E6D2",
"z+	c #CAC9B7",
"A+	c #E9E7D2",
"B+	c #CAC9B5",
"C+	c #E6E7D7",
"D+	c #E0E0D4",
"E+	c #E1E0CC",
"F+	c #CED0BB",
"G+	c #D1D0BC",
"H+	c #D8D7C2",
"I+	c #C1C0AC",
"J+	c #C9C7B8",
"K+	c #B1B3A8",
"L+	c #A1A290",
"M+	c #B7BAA7",
"N+	c #C1C2B4",
"O+	c #A8AA9F",
"P+	c #A1A294",
"Q+	c #AAAB9B",
"R+	c #A8AB9A",
"S+	c #A8AB98",
"T+	c #ABAA98",
"U+	c #9A988B",
"V+	c #B0B2A7",
"W+	c #B2B3A3",
"X+	c #8D8D81",
"Y+	c #8F9082",
"Z+	c #7B7C6E",
"`+	c #A0A094",
" @	c #7E7C70",
".@	c #7E7C6F",
"+@	c #717264",
"@@	c #7C7D6F",
"#@	c #7D7E70",
"$@	c #86867E",
"%@	c #A1A292",
"&@	c #8E8E86",
"*@	c #8D8E7E",
"=@	c #4A4B43",
"-@	c #4B4C44",
";@	c #858579",
">@	c #64645C",
",@	c #3C3B37",
"'@	c #3B3A36",
")@	c #3A3B35",
"!@	c #85877C",
"~@	c #282924",
"{@	c #666560",
"]@	c #58584E",
"^@	c #58584C",
"/@	c #59594D",
"(@	c #4A4A42",
"_@	c #494A45",
":@	c #292927",
"<@	c #282826",
"[@	c #282828",
"}@	c #292A25",
"    . +     @                                                                                                                                                                                                                                                                       ",
"        +   #                                                                                                                                                                                                                                                                       ",
"        +   #                                                                                                                                                                                                                                                                       ",
"        +   #                                                                                                                                                                                                                                                                       ",
"        +   #                                                                                                                                                                                                                                                                       ",
". @ @ .     @ + . . . . + @ @ $               .     % +                                                                                                                                                                                             . . + @ @ . . @ @ . + @ @ . . $ ",
". & * = - * ; - > > + > - * & . .               + , ' @                                                                                                                                                                                           . . > - ; & + > & * - - * * - > . ",
"# ) ! ! ! ! ! ! ! ~ @ { ] ^ ! + / .             +   ' @                                                                                                                                                                                         . / + ! ! ! ! + ( ! ! ! ! ! ! ! ) . ",
". _ : : < : : : : [ @ } | 1 : + > 2 .           +   3 +                                                                                                                                                                                       . 2 > + : : : : + 4 : : : : : : : _ . ",
". 5 6 7 7 6 6 8 6 5 # 9 6 6 9 + ( * 0 +         +   a +                                                                                                                                                                                     . b - ( + 8 6 6 c + d 9 6 8 e 8 6 6 5 @ ",
"+ f g h h i g j i f # i i i f + ( ! ! 0 b 2 2 k       l 2 2 2 2 b 2 2 2 b 2 2 2 b 2 2 2 2 2 2 2 b 2 2 2 b 2 2 2 b 2 2 2 2 2 2 2 b 2 2 2 b 2 2 2 b 2 2 2 2 2 2 2 b 2 2 2 b 2 2 2 b 2 2 2 2 2 2 2 b 2 2 2 b 2 2 2 b 2 2 b b 2 2 b b 2 2 2 b + 2 ] ] ( + i g i i + m i g g g i i i f @ ",
"+ n o p q o o o o n # o r s t + u _ v ! w * * w w w w w w * w w w * w w w * w w w w w w w * w w w * w w w * w w w w w w w * w w w * w w w * w w w w w w w * w w w * w w w * w w w w w w w * w w w * w w w * w w w w w x w * * w w w w w w 0 ! ^ : _ # o y o z + A o y y y o o o B + ",
"+ C D E E D F F D C # D F G H + d 5 I : : : : J : : : < : : : : : : : : : : : : : : : : : : : : : : : : : : : : : : : : : : : : : : : : : : : : : : : : : : : : : : : : : : : : : : : : : : : : : : : : : : : : : : : 1 : _ _ : : : : J : ^ : 1 9 5 # K F D L M N D F F F O F F L + ",
"+ P Q Q Q Q R Q Q S # Q T Q U + V W 9 6 X X X Y X X X X X X X X X X X X X X X X X X X X X X X X X X X X X X X X X X X X X X X X X X X X X X X X X X X X X X X X X X X X X X X X X X X X X X X X X X X X X X X X X X X X X Z X ` ` X X X X  ...6 Z +.# U T Q U M @.U #.T T $.T T U + ",
"+ %.&.&.&.&.*.*.=.-.# =.*.&.;.+ m f X X o z o o o o o o o o o o o o o o o o o o o o o o o o o o o o o o o o o o o o o o o o o o o o o o o o o o o o o o o o o o o o o o o o o o o o o o o o o o o o o o o o o o o o o o o o o >.>.o o o o ,.` X i f # &.*.&.;.# -.'.).*.!.*.*.*.;.+ ",
"+ ~.{.{.{.{.{.{.{.].# ^./.{.^.(._.z g g :.D F O F F F F F F F F F F F F F F F F F F F F F F F F F F F F F F F F F F F F F F F F F F F F F F F F F F F F F F F F F F F F F F F F F F F F F F F F F F F F F F F F F F F F F F F F F F F F F <.[.g o C }.^./.|.^.# ].1.|.2./.|.|./.~.+ ",
"+ 3.4.4.4.5.6.4.5.7.# 5.4.5.8.M @.L F y 9.9.0.0.0.9.0.0.0.9.0.0.0.9.0.0.0.9.0.0.0.9.0.0.0.9.0.0.0.9.0.0.0.9.0.0.0.9.0.0.0.9.0.0.0.9.0.0.0.9.0.0.0.9.0.0.0.9.0.0.0.9.0.0.0.9.0.0.0.9.0.0.0.9.0.0.0.9.0.0.0.9.0.0.0.9.0.0.0.0.0.0.0.0.0.a.0.b.c.F D S # 5.4.d.e.# 7.e.f.4.4.d.g.4.8.+ ",
"+ h.i.i.j.i.i.i.k.l.# m.n.i.o.M p.U Q F {.|.q.{./.|.|.{./.|.|.{./.|.|.{./.|.|.{./.|.|.{./.|.|.{./.|.|.{./.|.|.{./.|.|.{./.|.|.{./.|.|.{./.|.|.{./.|.|.{./.|.|.{./.|.|.{./.|.|.{./.|.|.{./.|.|.{./.|.|.{./.|.|.{./.|.|.r.r.|.|././.|.|././.F F Q Q s.# m.n.i.m.# t.k.i.i.n.i.i.i.u.+ ",
"+ v.w.x.x.w.y.x.w.z.A.B.x.w.C.# D.E.0.T 5.d.g.4.6.d.f.4.4.d.g.g.g.d.g.g.g.d.g.4.4.d.g.4.4.d.g.g.g.d.g.g.g.d.g.4.4.d.g.4.4.d.g.g.g.d.g.g.g.d.g.4.4.d.g.4.4.d.g.g.g.d.g.g.g.d.g.4.4.d.g.4.4.d.g.g.g.d.g.g.g.d.g.4.4.d.g.F.F.g.g.G.G.g.g.G.4.T Q a.9.-.# B.x.w.B.# H.B.y.x.x.w.w.x.I.@ ",
"A.J.K.L.L.L.L.K.M.N.A.O.L.M.P.# Q.&.*.0.R.S.T.T.U.T.T.T.V.T.T.T.V.T.T.T.V.T.T.T.V.T.T.T.V.T.T.T.V.T.T.T.V.T.T.T.V.T.T.T.V.T.T.T.V.T.T.T.V.T.T.T.V.T.T.T.V.T.T.T.V.T.T.T.V.T.T.T.V.T.T.T.V.T.T.T.V.T.T.T.V.T.T.T.V.T.T.V.V.T.T.V.V.T.T.V.T.0.0.*.&.-.# W.L.L.M.A.X.O.L.L.L.M.M.L.Y.Z.",
"+ `. + + + + + +.+++A..+ +.+@+# #+^.$+$+%+M.L.L.L.M.L.L.L.M.L.&+&+M.L.&+&+M.L.L.L.M.L.L.L.M.L.&+&+M.L.&+&+M.L.L.L.M.L.L.L.M.L.&+&+M.L.&+&+M.L.L.L.M.L.L.L.M.L.&+&+M.L.&+&+M.L.L.L.M.L.L.L.M.L.&+&+M.L.&+&+M.L.L.L.M.L.L.L.M.L.L.L.M.L.L.L.$+*+*.^.=+# @+ + +.+A.++.+ + + +.+ + +-+@ ",
"+ ;+>+,+,+'+>+,+>+)+A.!+,+>+~+# 7.d.g.g.>+>+>+>+,+>+>+>+,+>+>+>+,+>+>+>+,+>+>+>+,+>+>+>+,+>+>+>+,+>+>+>+,+>+>+>+,+>+>+>+,+>+>+>+,+>+>+>+,+>+>+>+,+>+>+>+,+>+>+>+,+>+>+>+,+>+>+>+,+>+>+>+,+>+>+>+,+>+>+>+,+>+>+>+,+>+>+>+,+>+>+>+,+>+>+>+>+g.g.4.5.7.A.!+{+>+!+A.)+!+>+,+,+>+>+>+]+@ ",
"+ ^+/+/+/+(+/+_+(+:+A.(+/+(+<+A.l.m.i.n.[+[+}+}+}+[+}+}+}+[+}+}+}+[+}+}+}+[+}+}+}+[+}+}+}+[+}+}+}+[+}+}+}+[+}+}+}+[+}+}+}+[+}+}+}+[+}+}+}+[+}+}+}+[+}+}+}+[+}+}+}+[+}+}+}+[+}+}+}+[+}+}+}+[+}+}+}+[+}+}+}+[+}+}+}+[+}+}+}+[+}+}+}+[+}+}+}+n.|+1+o.l.A.2+/+3+<+A.4+<+5+/+/+/+/+/+6+@ ",
"+ 7+8+8+9+8+8+9+0+a+b+0+9+8+c+A.d+e+T.f+g+8+8+8+9+h+h+8+9+8+8+8+9+8+8+8+9+8+8+8+9+8+8+8+9+8+8+8+9+8+8+8+9+8+8+8+9+8+8+8+9+8+8+8+9+8+8+8+9+8+8+8+9+8+8+8+9+8+8+8+9+8+8+8+9+8+8+8+9+8+8+8+9+8+8+8+9+8+8+8+9+8+8+8+9+8+8+8+9+8+8+8+9+8+8+8+8+V.T.V.e+d+A.0+9+h+c+A.% c+8+8+9+9+9+9+i+@ ",
"+ , j+k+k+j+j+k+l+m+A.l+k+j+n+A.z.B.x.o+p+j+j+q+k+j+j+k+k+j+j+k+k+j+j+k+k+j+j+k+k+j+j+k+k+j+j+k+k+j+j+k+k+j+j+k+k+j+j+k+k+j+j+k+k+j+j+k+k+j+j+k+k+j+j+k+k+j+j+k+k+j+j+k+k+j+j+k+k+j+j+k+k+j+j+k+k+j+j+k+k+j+j+k+k+j+j+k+k+j+j+k+k+j+j+k+r+x.w.x.w.z.A.l+k+j+l+A.m+n+r+k+k+k+k+k+s+@ ",
"+ t+8+8+8+8+8+9+0+u+A.0+8+8+c+A.z.B.x.x.8+8+8+v+8+8+8+8+8+8+8+8+8+8+8+8+8+8+8+8+8+8+8+8+8+8+8+8+8+8+8+8+8+8+8+8+8+8+8+8+8+8+8+8+8+8+8+8+8+8+8+8+8+8+8+8+8+8+8+8+8+8+8+8+8+8+8+8+8+8+8+8+8+8+8+8+8+8+8+8+8+8+8+8+8+8+8+8+8+8+8+8+8+8+8+8+8+x.w.x.w.z.A.c+h+v+0+A.3 c+8+8+v+8+8+8+' Z.",
"+ w+/+/+/+/+/+/+(+4+A.<+/+/+<+A.d+e+T.V.}+}+}+x+}+}+x+}+}+}+}+}+}+}+}+}+}+}+}+}+}+}+}+}+}+}+}+}+}+}+}+}+}+}+}+}+}+}+}+}+}+}+}+}+}+}+}+}+}+}+}+}+}+}+}+}+}+}+}+}+}+}+}+}+}+}+}+}+}+}+}+}+}+}+}+}+}+}+}+}+}+}+}+}+}+}+}+}+}+}+}+}+}+}+}+}+[+T.T.V.e+d+A.<+/+/+<+A.4+<+/+/+/+/+/+/+6+@ ",
"+ ;+>+>+>+>+>+>+y+)+A.!+>+>+!+A.t.z+i.n.>+A+A+>+>+,+,+>+>+>+>+>+>+>+>+>+>+>+>+>+>+>+>+>+>+>+>+>+>+>+>+>+>+>+>+>+>+>+>+>+>+>+>+>+>+>+>+>+>+>+>+>+>+>+>+>+>+>+>+>+>+>+>+>+>+>+>+>+>+>+>+>+>+>+>+>+>+>+>+>+>+>+>+>+>+>+>+>+>+>+>+>+>+>+>+>+!+B+i.i.m.l.A.!+>+>+~+A.)+y+>+>+>+>+>+>+C+@ ",
"+ `. + + +.+.+ +.+D+# @+ + +E+# 7.d.g.g.L.&+&+L.L.L.L.L.L.L.L.L.L.L.L.L.L.L.L.L.L.M.M.L.L.L.L.L.L.L.L.L.L.L.L.L.L.M.M.L.L.L.L.L.L.L.L.L.L.L.L.L.L.M.M.L.L.L.L.L.L.L.L.L.L.L.L.L.L.M.M.L.L.L.L.L.L.L.L.L.L.L.L.L.L.M.M.L.L.L.L.L.L.L.L.M.M.g.g.g.d.7.# @+ +.+@+A.++.+ + + + + + +-+@ ",
"+ J.L.L.L.L.L.K.M.N.# O.M.&+M.# #+^.$+$+F+T.T.T.T.T.T.T.T.T.T.T.T.T.T.T.T.T.T.T.T.T.T.T.T.T.T.T.T.T.T.T.T.T.T.T.T.T.T.T.T.T.T.T.T.T.T.T.T.T.T.T.T.T.T.T.T.T.T.T.T.T.T.T.T.T.T.T.T.T.T.T.T.T.T.T.T.T.T.T.T.T.T.T.T.T.T.T.T.F+F+T.T.T.T.T.G+*.*.*.^.=+# W.L.L.M.A.X.M.L.M.M.L.L.L.Y.@ ",
"+ v.H+x.x.x.x.x.B.z.# B.w.o+B.# D.&.*.0.4.d.d.f.I+g.g.g.g.g.g.g.g.g.g.g.g.g.g.g.g.g.g.g.g.g.g.g.g.g.g.g.g.g.g.g.g.g.g.g.g.g.g.g.g.g.g.g.g.g.g.g.g.g.g.g.g.g.g.g.g.g.g.g.g.g.g.g.g.g.g.g.g.g.g.g.g.g.g.g.g.g.g.g.g.g.g.g.4.4.4.g.g.g.g.g.g.0.0.*.&.-.# B.x.x.w.A.H.B.x.w.w.x.x.x.I.@ ",
"+ J+i.i.i.i.i.i.m.l.}.m.i.i.m.# K+E.0.L+{.{.{.2.{.{.{.{.{.{.{.{.{.{.{.{.{.{.{.{.{.{.{.{.{.{.{.{.{.{.{.{.{.{.{.{.{.{.{.{.{.{.{.{.{.{.{.{.{.{.{.{.{.{.{.{.{.{.{.{.{.{.{.{.{.{.{.{.{.{.{.{.{.{.{.{.{.{.{.{.{.{.{.{.{.{.{.{.{.{.M+{.{.{.{.|.|.Q Q 0.9.-.# m.i.i.m.}.h.m.i.i.i.i.i.i.u.Z.",
"+ N+g.g.f.I+g.g.8.7.# e.g.g.8.M O+P+Q F Q+9.0.0.0.0.0.0.0.0.0.0.0.0.0.0.0.0.0.0.0.0.0.0.0.0.0.0.0.0.0.0.0.0.0.0.0.0.0.0.0.0.0.0.0.0.0.0.0.0.0.0.0.0.0.0.0.0.0.0.0.0.0.0.0.0.0.0.0.0.0.0.0.0.0.0.0.0.0.0.0.0.0.0.0.0.9.9.9.R+S+9.0.9.0.T+T+:.F Q Q s.# e.I+g.5.# 7.d.g.I+g.g.g.g.3.+ ",
"+ ~.{.{.{.{.{.{.~.=+M ^.{.{.^.M @.D D o D D F F F F F F F F F F F F F F F F F F F F F F F F F F F F F F F F F F F F F F F F F F F F F F F F F F F F F F F F F F F F F F F F F F F F F F F F F F F F F F F F F F F F F F F F F D F U+E F F g y F D S }.^.{.{.^.# #+^.{.{.{.{.{.{.~.+ ",
"+ ;.*.*.*.*.*.&.;.V+M &.*.*.W+M N X+g i z z o o o o Y+o o o o o o o o o o o o o o o o o o o o o o o o o o o o o o o o o o o o o o o o o o o o o o o o o o o o o o o o o o o o o o o o o o o o o o o o o o o o o o o o o o o z o o p p o o Z+j g o C # ;.*.*.&.M D.&.*.*.*.*.*.*.;.+ ",
"+ `+Q Q Q Q Q Q U S # U Q Q U M m i X  @ @X X X X X X X X X X X X X X X X X X X X X X X X X X X X X X X X X X X X X X X X X X X X X X X X X X X X X X X X X X X X X X X X X X X X X X X X X X X X X X X X X X X X X X X X Z Z X X X X  @.@+@@@#@i $@# U Q Q U M @.U Q R Q Q %@Q `++ ",
"+ L F F F F F F D C # D F F D A.V Z 6 7 I : : : : : : : : : : : : : : : : : : : : : : : : : : : : : : : : : : : : : : : : : : : : : : : : : : : : : : : : : : : : : : : : : : : : : : : : : : : : : : : : : : : : : : : : _ _ : : : : : 1 1 6 6 Z +.# D F F D M N D F F F F F F L + ",
"+ n o Y+o o o Y+z &@# z o *@o + d 9 : : w w w =@=@w w =@=@w w =@=@w w =@=@w w =@=@w w =@=@w w =@=@w w =@=@w w =@=@w w =@=@w w =@=@w w =@=@w w =@=@w w =@=@w w =@=@w w =@=@w w =@=@w w =@=@w w =@=@w w =@=@w w =@=@w w -@=@w w =@=@w w w x ^ : : 9 5 # B o o B M A z o o o o o o n + ",
"+ f g g g g g g ;@$@# i g g ;@+ u >@! ! 0 ,@,@b b '@,@b b ,@,@b b ,@,@b b ,@,@b b ,@,@b b ,@,@b b ,@,@b b ,@,@b b ,@,@b b ,@,@b b ,@,@b b ,@,@b b ,@,@b b ,@,@b b ,@,@b b ,@,@b b ,@,@b b ,@,@b b ,@,@b b ,@,@b b ,@,@b b 0 0 )@b ,@'@b b 0 ! ! _ [ # i g g i M !@;@g g g g g g f + ",
". 5 6 6 6 6 6 6 9 5 }.9 6 6 9 + ( ! ! 2 ~@                                                                                                                                                                                                + 2 ] { ( + 9 6 6 9 A.d 9 6 +@+@6 6 8 9 + ",
". _ : : 1 : : : : {@# : 1 : _ + ( * 0 .                                                                                                                                                                                   @   .             . b - ( + : 1 < _ + 4 _ : 1 1 : : 1 : . ",
". ) ^ ^ ^ ! ^ ^ ^ ) @ ! ]@^ ! + > 2 .                                                                                                                                                                                     #   .               . k > + ! ^ ! ! + ( ! ^ ^@/@^ ^ /@]@Z.",
". & * w (@* * w * & @ * w w * + / .                                                                                                                                                                                       #   #                 . / + * w * * + _@* w w w w w w w @ ",
"+ :@~@~@~@~@~@~@<@[@. <@~@~@~@. .                                                                                                                                                                                         @   .                   . . ~@~@~@~@. <@~@~@~@~@~@}@~@~@. ",
"+ . . . . . . . . . $ . . . . .                                                                                                                                                                                         .     . +                   . . . . . # . . .     . . . . . ",
"                                                                                                                                                                                                                                                                      +   .         ",
"                                                                                                                                                                                                                                                                      M   +         ",
"                                                                                                                                                                                                                                                                      M   +         ",
"                                                                                                                                                                                                                                                                      +   .         ",
"                                                                                                                                                                                                                                                                      .   .         "};
