/* XPM */
static char * hetran_hetran_j21_hs2[] = {
"133 56 255 2",
"  	c None",
". 	c #000000",
"+ 	c #010101",
"@ 	c #010000",
"# 	c #000100",
"$ 	c #010100",
"% 	c #000002",
"& 	c #4A4B46",
"* 	c #4A4B45",
"= 	c #4B4A45",
"- 	c #4B4A46",
"; 	c #494A44",
"> 	c #595853",
", 	c #595951",
"' 	c #585953",
") 	c #010200",
"! 	c #3A3A38",
"~ 	c #FCFEF1",
"{ 	c #000200",
"] 	c #65655D",
"^ 	c #65655B",
"/ 	c #64655D",
"( 	c #656559",
"_ 	c #3B3C37",
": 	c #FCFEF0",
"< 	c #F6F8EA",
"[ 	c #F7F8F2",
"} 	c #717167",
"| 	c #717165",
"1 	c #707169",
"2 	c #717264",
"3 	c #595854",
"4 	c #3C3B37",
"5 	c #FBFDF2",
"6 	c #F6F8ED",
"7 	c #F6F7EF",
"8 	c #86867C",
"9 	c #868779",
"0 	c #86867A",
"a 	c #85867E",
"b 	c #878878",
"c 	c #292927",
"d 	c #3B3C36",
"e 	c #3C3D38",
"f 	c #FFFFFA",
"g 	c #FFFFF6",
"h 	c #FFFFF8",
"i 	c #3B3C34",
"j 	c #3B3B39",
"k 	c #8E8E82",
"l 	c #8E8F7F",
"m 	c #8E8F81",
"n 	c #8D8E86",
"o 	c #65645F",
"p 	c #3C3B36",
"q 	c #4B4B43",
"r 	c #4C4C42",
"s 	c #4B4B41",
"t 	c #4A4A42",
"u 	c #98988C",
"v 	c #989989",
"w 	c #98998B",
"x 	c #97998E",
"y 	c #717169",
"z 	c #66665C",
"A 	c #59594F",
"B 	c #66665E",
"C 	c #4A4C41",
"D 	c #A0A193",
"E 	c #A0A18F",
"F 	c #A0A191",
"G 	c #9FA196",
"H 	c #A2A091",
"I 	c #A2A093",
"J 	c #7C7C74",
"K 	c #7C7C72",
"L 	c #7C7D6F",
"M 	c #7C7C70",
"N 	c #7B7B6F",
"O 	c #71706B",
"P 	c #646659",
"Q 	c #64665B",
"R 	c #4A4B43",
"S 	c #3A3B36",
"T 	c #B1B2A4",
"U 	c #B1B2A0",
"V 	c #B1B2A2",
"W 	c #B1B1A7",
"X 	c #B2B3A1",
"Y 	c #B3B2A0",
"Z 	c #B3B1A2",
"` 	c #86867E",
" .	c #8D8E80",
"..	c #8F9082",
"+.	c #707265",
"@.	c #B8B9AB",
"#.	c #BAB9A7",
"$.	c #BAB8A9",
"%.	c #BAB9A5",
"&.	c #B8B9A9",
"*.	c #B7B7AB",
"=.	c #B8B9A7",
"-.	c #B7B8A8",
";.	c #020200",
">.	c #98988E",
",.	c #888679",
"'.	c #7E7C6F",
").	c #010300",
"!.	c #C2C0B3",
"~.	c #C2C1AF",
"{.	c #C2C1AD",
"].	c #C2C0B1",
"^.	c #C0C0B4",
"/.	c #C0C2AD",
"(.	c #C0C1AF",
"_.	c #A0A094",
":.	c #908E81",
"<.	c #888677",
"[.	c #A9AA98",
"}.	c #A9AA9A",
"|.	c #AAAB99",
"1.	c #A9AA9C",
"2.	c #C9C7BA",
"3.	c #C9C8B4",
"4.	c #C9C8B3",
"5.	c #C9C8B6",
"6.	c #C8C8BC",
"7.	c #A9A99F",
"8.	c #B8BAA5",
"9.	c #BBBAA8",
"0.	c #B0B2A5",
"a.	c #D7D5C6",
"b.	c #D7D6C2",
"c.	c #D7D6C1",
"d.	c #D7D6C4",
"e.	c #D5D5C9",
"f.	c #9FA090",
"g.	c #BFC1AC",
"h.	c #B7B9AC",
"i.	c #B1B39E",
"j.	c #494A42",
"k.	c #3A3B35",
"l.	c #DDDBCC",
"m.	c #DDDCC7",
"n.	c #DDDCC8",
"o.	c #DBDCCE",
"p.	c #DEDDCB",
"q.	c #D0CFBB",
"r.	c #D0CFBA",
"s.	c #CFCEB9",
"t.	c #D0CFBD",
"u.	c #C7C7BB",
"v.	c #A1A292",
"w.	c #E2E0D1",
"x.	c #E2E1CC",
"y.	c #E2E1CD",
"z.	c #E0E1D3",
"A.	c #B8B8AC",
"B.	c #B0B29D",
"C.	c #DDDCCA",
"D.	c #D5D6C8",
"E.	c #B7B8A6",
"F.	c #858678",
"G.	c #E8E7D5",
"H.	c #E8E8D0",
"I.	c #E8E7D2",
"J.	c #E8E7D3",
"K.	c #E6E7D9",
"L.	c #E9E8D4",
"M.	c #E7E7CF",
"N.	c #F4F3E1",
"O.	c #F4F4DC",
"P.	c #F4F3DE",
"Q.	c #F4F3DF",
"R.	c #F3F4E6",
"S.	c #EEEED6",
"T.	c #EEEDD8",
"U.	c #EEEDD9",
"V.	c #E7E8DA",
"W.	c #F9F8E4",
"X.	c #F9F9DF",
"Y.	c #F9F9E1",
"Z.	c #F8F9EB",
"`.	c #F9F8E3",
" +	c #CDCDC1",
".+	c #FAFAE2",
"++	c #ECEDDF",
"@+	c #D8D7C2",
"#+	c #FFFEEA",
"$+	c #FFFFE5",
"%+	c #FFFFE7",
"&+	c #FFFEE9",
"*+	c #FDFEF0",
"=+	c #FEFEE4",
"-+	c #020300",
";+	c #FEFEE6",
">+	c #C7C8B6",
",+	c #F9F8E6",
"'+	c #F7F8EA",
")+	c #D6D5C0",
"!+	c #F2F3E5",
"~+	c #CECEC2",
"{+	c #D1D0BB",
"]+	c #CFCEBA",
"^+	c #C8C7B5",
"/+	c #E8E6D7",
"(+	c #C8C7B3",
"_+	c #E9E8D3",
":+	c #E2E1CF",
"<+	c #DCDBC6",
"[+	c #DEDDC9",
"}+	c #3D3C37",
"|+	c #DCDDCF",
"1+	c #DDDDC5",
"2+	c #DADBCD",
"3+	c #979888",
"4+	c #C9C7B8",
"5+	c #CAC7B4",
"6+	c #B2B2A8",
"7+	c #C7C8B8",
"8+	c #C0C1B3",
"9+	c #A1A290",
"0+	c #A8A997",
"a+	c #A8AB98",
"b+	c #A0A096",
"c+	c #868777",
"d+	c #9A9889",
"e+	c #989987",
"f+	c #B1B1A5",
"g+	c #B0B2A7",
"h+	c #7B7C6E",
"i+	c #707064",
"j+	c #9FA098",
"k+	c #7B7D70",
"l+	c #979890",
"m+	c #737165",
"n+	c #8E8E84",
"o+	c #8F8F83",
"p+	c #707068",
"q+	c #707066",
"r+	c #66665A",
"s+	c #64645A",
"t+	c #86877F",
"u+	c #87887A",
"v+	c #64645C",
"w+	c #585850",
"x+	c #64655F",
"y+	c #292824",
"z+	c #585753",
"A+	c #5A5A52",
"B+	c #575852",
"C+	c #4A4944",
"D+	c #494A45",
"E+	c #282826",
"F+	c #282924",
"                                                    . . . . . . . . . . . . . . . . . . . . . . . . . . . . . . . . . . . . . . . . . . . . . . . . . . . . . . . . . . . . . . . . . . . . . . . . . . . . . . . . . . . +                                               ",
"                                                    .                                                                                                                                                                     .                                               ",
"                                                    .                                                                                                                                                                     .                                               ",
"                                                    .                                                                                                                                                                     .                                               ",
"                                                    .                                                                                                                                                                     .                                               ",
"                                                    .                                                                                                                                                                     .                                               ",
"    . @     #                               .       .                                                                                                                                                             .       .                                               ",
"        #   $                                 .     .     .                                                                                                                                                         %     .     .                                         ",
"        #   $                                 .     .   .                                                                                                                                                           %     .   .                                           ",
"        #   $                                   .   .   .                                                                                                                                                             .   .   .                                           ",
"        #   $                                   .   . .                                                                                                                                                               .   . .                                             ",
". . # @     # @ @ . . . # . . .               . . . . +                                                                                                                                                             . . . . .                                             ",
". & * = = * * = - & # & * ; & . .               . # # .                                                                                                                                                                 . . .                                             ",
". > , , , , , , , ' ) , , , , # ! .             # ~ { #                                                                                                                                                                 . # #             .                               ",
". ] ^ ^ ^ ^ ^ ^ ^ / # ^ ^ ( ^ # & _ .           # : < #                                                                                                                                                                 . [ #             .                               ",
"# } | | | | | | } 1 # } | 2 | @ 3 = 4 .         # 5 6 #                                                                                                                                                                 # 7 )             .                               ",
"# 8 9 0 0 0 0 0 0 a # 8 9 b 9 $ > , > _ c _ d e f g g # _ _ d _ _ _ _ _ _ _ d _ _ _ d _ _ _ d _ _ _ d _ _ _ d _ _ _ d _ _ _ d _ _ _ d _ _ _ d _ _ _ d _ _ _ d _ _ _ d _ _ _ d _ _ _ d _ _ _ d _ _ _ d _ _ _ d _ _ _ d _ f h i d _ _ d _ _ $ j _                           ",
"# k l m m m m m k n { k m l m $ o ] , > p q q = q r s q q q q = q q q = = q q = q q q = q q q = q q q = q q q = q q q = q q q = q q q = q q q = q q q = q q q = q q q = q q q = q q q = q q q = q q q = q q q = q q t = q s s q q t q = = @ - = p i d _                   ",
"# u v w v v v v w x { u v v w $ y } ^ z A ^ ^ ^ ^ ^ ^ ^ ^ ^ ^ ^ ^ ^ ^ ] ] ^ ^ ^ ^ ^ ^ ^ ^ ^ ^ ^ ^ ^ ^ ^ ^ ^ ^ ^ ^ ^ ^ ^ ^ ^ ^ ^ ^ ^ ^ ^ ^ ^ ^ ^ ^ ^ ^ ^ ^ ^ ^ ^ ^ ^ ^ ^ ^ ^ ^ ^ ^ ^ ^ ^ ^ ^ ^ ^ ^ ^ ^ ^ ^ ^ ^ ^ ^ ^ ^ ^ ^ ^ ^ ^ ^ ^ ^ ^ B @ o ] s C C * _                 ",
"# D E F F F E E D G { D F H I $ J K | | ( L L M M M M M M M M M M M M M M M M M M M M M M M M M M M M M M M M M M M M M M M M M M M M M M M M M M M M M M M M M M M M M M M M M M M M M M M M M M M M M M M M M M M M M M M M M M M M N K @ O } ( P Q C R d S             ",
"# T U V V U U U V W { T X Y Z $ ` 0 M M 2 l l m m m m m m m m m  .m m m m m m m m m m m m m m m m m m m m m m m m m m m m m m m m m m m m m m m m m m m m m m m m m m m m m m m m m m m m m m m m m m m m m m m m ..m m m m m m  .m m m k $ ` 0 | +.+.Q Q R * _           ",
"# @.#.$.$.#.%.#.&.*.$ $.#.=.-.;.>.m 9 ,.'.v v v v v v v v v v v v v v v v v v v v v v v v v v v v v v v v v v v v v v v v v v v v v v v v v v v v v v v v v v v v v v v v v v v v v v v v v v v v v v v v v v v v v v v v v v v v v v v w ).x w 9 9 9 | } ^ q q p         ",
"# !.~.~.~.{.{.~.].^.$ ].{./.(.$ _.w v :.<.[.[.}.|.[.[.}.[.[.[.}.[.[.[.}.[.[.[.}.[.[.[.}.[.[.[.}.[.[.[.}.[.[.[.}.[.[.[.}.[.[.[.}.[.[.[.}.[.[.[.}.[.[.[.}.[.[.[.}.[.[.[.}.[.[.[.}.[.[.[.}.[.[.[.}.[.[.[.}.[.[.[.}.[.[.[.[.[.[.[.}.[.[.[.[.1.{ G D v v 9 9 | | ^ s q _       ",
"# 2.3.3.3.3.4.3.5.6.$ 5.4.4.5.$ 7.F E v v =.8.#.9.=.8.#.#.=.8.#.#.=.8.#.#.=.8.#.#.=.8.#.#.=.8.#.#.=.8.#.#.=.8.#.#.=.8.#.#.=.8.#.#.=.8.#.#.=.8.#.#.=.8.#.#.=.8.#.#.=.8.#.#.=.8.#.#.=.8.#.#.=.8.#.#.=.8.#.#.=.8.#.#.=.8.%.%.8.8.#.#.=.8.%.&.{ 0.V E F v v 9 9 | ^ q d       ",
"# a.b.b.b.c.c.b.d.e.) b.c.c.d.$ W }.[.f.E g./.~.{././.~.{././.~.{././.~.{././.~.{././.~.{././.~.{././.~.{././.~.{././.~.{././.~.{././.~.{././.~.{././.~.{././.~.{././.~.{././.~.{././.~.{././.~.{././.~.{././.~.{././.{.{././.~.{././.{.~.$ h.=.i.U F F v 9 2 | ^ j.k.    ",
"# l.m.m.m.m.m.m.n.o.) n.m.m.p.$ W V U [.|.q.r.q.q.q.r.q.q.q.r.q.q.q.r.q.q.q.r.q.q.q.r.q.q.q.r.q.q.q.r.q.q.q.r.q.q.q.r.q.q.q.r.q.q.q.r.q.q.q.r.q.q.q.r.q.q.q.r.q.q.q.r.q.q.q.r.q.q.q.r.q.q.q.r.q.q.q.r.q.q.q.r.q.q.q.r.q.q.r.r.q.q.q.s.q.t.$ u.5.%.=.U F v.v 9 | ^ q = j   ",
"# w.x.x.x.x.x.x.y.z.) y.x.x.y.$ A.&.U U B.m.m.n.m.m.m.n.m.m.m.n.m.m.m.n.m.m.m.n.m.m.m.n.m.m.m.n.m.m.m.n.m.m.m.n.m.m.m.n.m.m.m.n.m.m.m.n.m.m.m.n.m.m.m.n.m.m.m.n.m.m.m.n.m.m.m.n.m.m.m.n.m.m.m.n.m.m.m.n.m.m.m.n.m.m.m.n.m.m.m.n.m.m.m.n.C.$ D.5.3.=.E.V v.v F.0 } ] = _   ",
"# G.H.I.I.H.H.I.J.K.) L.I.M.J.$ ^.].{.{.{.I.H.I.I.I.H.I.I.I.H.I.I.I.H.I.I.I.H.I.I.I.H.I.I.I.H.I.I.I.H.I.I.I.H.I.I.I.H.I.I.I.H.I.I.I.H.I.I.I.H.I.I.I.H.I.I.I.H.I.I.I.H.I.I.I.H.I.I.I.H.I.I.I.H.I.I.I.H.I.I.I.H.I.I.I.H.I.I.I.H.I.I.I.H.I.J.) o.d.c.3.%.=.U F w 0 | ^ q _   ",
"# N.O.P.O.O.O.P.Q.R.) Q.O.O.Q.) u.5.3.3.4.S.S.T.S.S.S.T.S.S.S.T.S.S.S.T.S.S.S.T.S.S.S.T.S.S.S.T.S.S.S.T.S.S.S.T.S.S.S.T.S.S.S.T.S.S.S.T.S.S.S.T.S.S.S.T.S.S.S.T.S.S.S.T.S.S.S.T.S.S.S.T.S.S.S.T.S.S.S.T.S.S.S.T.S.S.S.T.S.S.S.T.S.S.S.T.U.) V.n.m.b.3.=.U F v 9 | ^ q _   ",
"# W.X.Y.Y.Y.X.Y.W.Z.) W.Y.Y.`.)  +t.r.q.r..+X.Y.Y.Y.X.Y.Y.Y.X.Y.Y.Y.X.Y.Y.Y.X.Y.Y.Y.X.Y.Y.Y.X.Y.Y.Y.X.Y.Y.Y.X.Y.Y.Y.X.Y.Y.Y.X.Y.Y.Y.X.Y.Y.Y.X.Y.Y.Y.X.Y.Y.Y.X.Y.Y.Y.X.Y.Y.Y.X.Y.Y.Y.X.Y.Y.Y.X.Y.Y.Y.X.Y.Y.Y.X.Y.Y.Y.X.Y.Y.Y.X.Y.Y.Y.X.Y.W.) ++J.m.@+3.=.&.U F w 9 | z = 4 ",
"# #+$+%+%+$+$+%+&+*+) #+%+=+&+-+D.d.c.b.c.;+$+%+%+$+$+%+%+$+$+%+%+$+$+%+%+$+$+%+%+$+$+%+%+$+$+%+%+$+$+%+%+$+$+%+%+$+$+%+%+$+$+%+%+$+$+%+%+$+$+%+%+$+$+%+%+$+$+%+%+$+$+%+%+$+$+%+%+$+$+%+%+$+$+%+%+$+$+%+%+$+$+%+%+$+$+%+%+$+$+%+%+$+$+%+&+) ++U.I.m.b.>+&.U f.w 9 | ^ q 4 ",
"# ,+Y.Y.Y.Y.Y.Y.`.'+) W.Y.X.`.) D.d.)+b.c.Y.Y.Y.Y.X.X.Y.Y.Y.Y.Y.Y.Y.Y.Y.Y.Y.Y.Y.Y.X.X.Y.Y.Y.Y.Y.Y.Y.Y.Y.Y.Y.Y.Y.Y.X.X.Y.Y.Y.Y.Y.Y.Y.Y.Y.Y.Y.Y.Y.Y.X.X.Y.Y.Y.Y.Y.Y.Y.Y.Y.Y.Y.Y.Y.Y.X.X.Y.Y.Y.Y.Y.Y.Y.Y.Y.Y.Y.Y.Y.Y.Y.Y.Y.Y.Y.Y.Y.Y.Y.Y.Y.`.) '+U.I.m.b.5.#.V F w 9 | ^ q 4 ",
"# N.O.O.O.O.O.O.Q.!+) Q.O.O.P.) ~+t.{+q.]+T.S.S.S.S.S.S.S.S.S.S.S.S.S.S.S.S.S.S.S.S.S.S.S.S.S.S.S.S.S.S.S.S.S.S.S.S.S.S.S.S.S.S.S.S.S.S.S.S.S.S.S.S.S.S.S.S.S.S.S.S.S.S.S.S.S.S.S.S.S.S.S.S.S.S.S.S.S.S.S.S.S.S.S.S.S.S.S.S.S.S.S.S.S.S.U.) ++U.I.m.c.^+9.V F w 9 | ^ = 4 ",
"# /+I.I.I.I.I.I.J.K.) J.I.I.J.) u.5.3.5.(+I.I.I.I.I.I.I.I.I.I.I.I.I.I.I.I.I.I.I.I.I.I.I.I.I.I.I.I.I.I.I.I.I.I.I.I.I.I.I.I.I.I.I.I.I.I.I.I.I.I.I.I.I.I.I.I.I.I.I.I.I.I.I.I.I.I.I.I.I.I.I.I.I.I.I.I.I.I.I.I.I.I.I.I.I.I.I.I.I.I.I.I.I._+I.J.) ++J.m.c.4.=.=.V F w 9 | ^ = 4 ",
"# w.x.x.x.x.x.x.y.z.) y.x.x.:+$ ^.].{.~.~.n.m.m.<+m.m.m.m.m.m.m.m.m.m.m.m.m.m.m.m.m.m.m.m.m.m.m.m.m.m.m.m.m.m.m.m.m.m.m.m.m.m.m.m.m.m.m.m.m.m.m.m.m.m.m.m.m.m.m.m.m.m.m.m.m.m.m.m.m.m.m.m.m.m.m.m.m.m.m.m.m.m.m.m.m.m.m.m.m.m.m.m.m.m.m.n.) K.[+m.b.3.=.U F v 9 | ^ q }+  ",
"# l.m.m.m.m.m.m.n.|+) n.1+m.p.$ A.&.U U U q.q.q.q.q.q.q.q.q.q.q.q.q.q.q.q.q.q.q.q.q.q.q.q.q.q.q.q.q.q.q.q.q.q.q.q.q.q.q.q.q.q.q.q.q.q.q.q.q.q.q.q.q.q.q.q.q.q.q.q.q.q.q.q.q.q.q.q.q.q.q.q.q.q.q.q.q.q.q.q.q.q.q.q.q.q.q.q.q.q.q.q.q.q.q.t.) 2+d.b.>+=.=.X v.v 9 | ^ q d   ",
"# a.c.c.c.c.c.c.b.D.) b.c.c.d.$ W V U [.[.~.{.{.{.{.{.{.{.{.{.{.{.{.{.{.{.{.{.{.{.{.{.{.{.{.{.{.{.{.{.{.{.{.{.{.{.{.{.{.{.{.{.{.{.{.{.{.{.{.{.{.{.{.{.{.{.{.{.{.{.{.{.{.{.{.{.{.{.{.{.{.{.{.{.{.{.{.{.{.{.{.{.{.{.{.{.{.{.{.{.~.~.{.{.{.~.) D.5.^+=.&.U E 3+9 0 | ^ q _   ",
"# 4+3.3.3.3.3.5+5.u.) 5.3.3.5.$ 6+}.[.F E =.=.=.=.=.=.=.=.=.=.=.=.=.=.=.=.=.=.=.=.=.=.=.=.=.=.=.=.=.=.=.=.=.=.=.=.=.=.=.=.=.=.=.=.=.=.=.=.=.=.=.=.=.=.=.=.=.=.=.=.=.=.=.=.=.=.=.=.=.=.=.=.=.=.=.=.=.=.=.=.=.=.=.=.=.=.=.=.=.=.=.=.=.=.=.&.$ u.7+=.=.U f.F w 9 | ^ q q 4   ",
"# 8+{.{.{.{.{.{.~.^.$ ~.{.{.].$ 7.D 9+v v }.[.[.0+[.[.[.[.[.[.[.[.[.[.[.[.[.[.[.[.[.[.[.[.[.[.[.[.[.[.[.[.[.[.[.[.[.[.[.[.[.[.[.[.[.[.[.[.[.[.[.[.[.[.[.[.[.[.[.[.[.[.[.[.[.[.[.[.[.[.[.[.[.[.[.[.[.[.[.[.[.[.[.[.[.[.[.[.[.[.a+a+[.[.[.}.$ A.&.X U E f.v 9 | } ] q p     ",
"# A.=.=.=.=.=.=.&.A.{ &.=.=.&.$ b+w v m c+v v v 3+v v v v v v v v d+d+v v v v v v v v v v v v v v d+d+v v v v v v v v v v v v v v v v v v v v v v v v v v v v v v d+d+v v v v v v v v v v v v v v d+d+v v v v v v v v v v v v v v v v v w $ W T f.E e+v 9 0 | ^ q p       ",
"# f+V U U U U U V g+{ V U U V $ >.m 9 9 h+m ..m m m m m m m m m m :.:.m m m m m m m m m m m m m m :.:.m m m m m m m m m m m m m m m m m m m m m m m m m m m m m m :.:.m m m m m m m m m m m m m m :.:.m m m m m m m m m m m m m m m m m k $ b+D v v c+9 | i+^ q = 4       ",
". _.F F F F F F D j+{ F E F D $ ` 0 M M | M M N M M M M M M M M M M M M M M M M M M M M M M M M M M M M M M M M M M M M M M M M M M M M M M M M M M M M M M M M M M M M M M M M M M M M M M M M M M M M M M M M M M M M M k+k+M M M M K K # x u 9 ,.,.| } ^ q * _         ",
". u v v v v v w u l+# w v v w $ J K | | ^ ^ ^ ^ ^ ^ ^ ^ ^ ^ ^ ^ ^ ^ ^ ^ ^ ^ ^ ^ ^ ^ ^ ^ ^ ^ ^ ^ ^ ^ ^ ^ ^ ^ ^ ^ ^ ^ ^ ^ ^ ^ ^ ^ ^ ^ ^ ^ ^ ^ ^ ^ ^ ^ ^ ^ ^ ^ ^ ^ ^ ^ ^ ^ ^ ^ ^ ^ ^ ^ ^ ^ ^ ^ ^ ^ ^ ^ ^ ^ ^ ^ ^ ^ ^ ^ ^ ^ ^ Q Q ^ ^ ^ ^ ] ] # a 0 2 m+m+^ ] q p _           ",
"# n+m m m m m m k n # k m m o+$ p+} ^ ^ , q q q q R R q q R R q q R R q q R R q q R R q q R R q q R R q q R R q q R R q q R R q q R R q q R R q q R R q q R R q q R R q q R R q q R R q q R R q q R R q q R R q q R R q q R R q q R R q = # 1 q+r+^ s+q = d S             ",
"# 8 9 9 9 9 9 9 0 t+# 0 u+9 0 $ ] v+w+, p 4 4 4 4 d d 4 4 d d 4 4 d d 4 4 d d 4 4 d d 4 4 d d 4 4 d d 4 4 d d 4 4 d d 4 4 d d 4 4 d d p p i d p 4 d d 4 4 d d 4 4 d d 4 4 d d 4 4 d d 4 4 d d 4 4 d d 4 4 d d 4 4 d d 4 4 d d 4 4 d d 4 4 # x+] q q q p 4                 ",
"# } | | | | | | } 1 # } | | } @ > , , 4 y+                                                                                                                                                                                                # & * d d _ _                   ",
". ] ( ^ ^ ^ ( ^ ] x+# ] ^ ^ ^ @ z+= }+@                                                                                               @     @                                                                                             . _ j                           ",
"$ , A , A A A , A+B+# , A A , # & _ .                                                                                                 $     $                                                                                             .                               ",
". = q C+= q q C+= D+# = = q = # j .                                                                                                   $     $                                                                                                                             ",
". E+F+F+F+F+F+F+F+E+. F+F+F+E+. .                                                                                                     @     #                                                                                                                             ",
". . . .     # $ . . . . . . . .                                                                                                     .       #                                                                                                                             ",
"        .   $                                                                                                                                                                                                                                                             ",
"        #   $                                                                                                                                                                                                                                                             ",
"        #   {                                                                                                                                                                                                                                                             ",
"        .   #                                                                                                                                                                                                                                                             ",
"      . .   .                                                                                                                                                                                                                                                             "};
