/* XPM */
static char *htrixist_htrixist_x_ht_2[] = {
/* columns rows colors chars-per-pixel */
"142 53 106 2",
"   c #010100",
".  c #272624",
"X  c #272822",
"o  c #282722",
"O  c #282824",
"+  c #282828",
"@  c #3B3B36",
"#  c #3B3B38",
"$  c #4A4A43",
"%  c #4A4A48",
"&  c #57594E",
"*  c #58584E",
"=  c #575852",
"-  c #585752",
";  c #585951",
":  c #64645C",
">  c #656560",
",  c #6F6F63",
"<  c #6F7164",
"1  c #6F706A",
"2  c #706F6A",
"3  c #707165",
"4  c #717169",
"5  c #7B7C6E",
"6  c #7C7C70",
"7  c #838577",
"8  c #85867B",
"9  c #87887A",
"0  c #8D8E7E",
"q  c #908E7F",
"w  c #8D8E81",
"e  c #8E8D88",
"r  c #8F9081",
"t  c #908E81",
"y  c #909083",
"u  c #96968C",
"i  c #97988A",
"p  c #989987",
"a  c #989989",
"s  c #979890",
"d  c #9C9C93",
"f  c #9FA08E",
"g  c #9EA092",
"h  c #A0A18F",
"j  c #A0A192",
"k  c #A0A198",
"l  c #A7A898",
"z  c #A8AA96",
"x  c #A9AA98",
"c  c #AFB09E",
"v  c #B1B29E",
"b  c #AAACA1",
"n  c #AFB1A5",
"m  c #AFB0A8",
"M  c #B1B2A0",
"N  c #B5B5AA",
"B  c #B7B8A6",
"V  c #B7B8AC",
"C  c #B9B9A5",
"Z  c #B8B8AB",
"A  c #BFBFB3",
"S  c #BFC1AC",
"D  c #BFC0B4",
"F  c #C0BFAD",
"G  c #C1C1AD",
"H  c #C0C0B2",
"J  c #C6C7BB",
"K  c #C7C8B5",
"L  c #C7C8B9",
"P  c #C8C6B4",
"I  c #C8C6B9",
"U  c #C9C8B3",
"Y  c #CACABC",
"T  c #D0CFBB",
"R  c #D1D0BC",
"E  c #CECEC1",
"W  c #D0CEC1",
"Q  c #D6D5C1",
"!  c #D5D5C8",
"~  c #D6D8C3",
"^  c #D8D6C2",
"/  c #D8D6C9",
"(  c #DCDCC6",
")  c #DCDBCB",
"_  c #DBDBD1",
"`  c #E5E6D6",
"'  c #E5E6D9",
"]  c #E8E6D2",
"[  c #E8E6D9",
"{  c #ECECD4",
"}  c #EDECD9",
"|  c #F3F3DC",
" . c #F9F9DF",
".. c #EDECE0",
"X. c #F2F3E3",
"o. c #F6F6ED",
"O. c #F7F8E5",
"+. c #F7F8E8",
"@. c #F9F7E8",
"#. c #F9F8E1",
"$. c #F8F9E9",
"%. c #F6F6F2",
"&. c #F7F8F3",
"*. c #F8F7F2",
"=. c #FCFCF4",
"-. c #FEFEFE",
/* pixels */
"-.-.-.  o.-.o.  =.-.-.-.-.-.-.-.-.-.-.-.-.-.-.-.-.-.-.-.-.-.-.-.-.-.-.-.-.-.-.-.-.-.-.-.-.-.-.-.-.-.-.-.-.-.-.-.-.-.-.-.-.-.-.-.-.-.-.-.-.-.-.-.-.-.-.-.-.-.-.-.-.-.-.-.-.-.-.-.-.-.-.-.-.-.-.-.-.-.-.-.-.-.-.-.-.-.-.-.-.-.-.-.-.-.-.-.-.-.-.-.-.-.-.-.-.-.-.-.-.-.-.-.-.-.-.-.-.-.-.-.-.-.",
"-.-.-.-.  =.o.  -.-.-.-.-.-.-.-.-.-.-.-.-.-.-.-.-.-.-.-.-.-.-.-.-.-.-.-.-.-.-.-.-.-.-.-.-.-.-.-.-.-.-.-.-.-.-.-.-.-.-.-.-.-.-.-.-.-.-.-.-.-.-.-.-.-.-.-.-.=.-.-.-.-.-.-.-.-.-.-.-.-.-.-.-.-.-.-.-.-.-.-.-.-.-.-.-.-.-.-.-.-.-.-.-.-.-.-.-.-.-.-.-.-.-.-.-.-.-.-.-.-.-.-.-.-.-.-.-.-.-.-.-.-.",
"-.-.-.-.  =.o.  -.-.-.-.-.-.-.-.-.-.-.-.-.-.-.-.-.-.-.-.-.-.-.-.-.-.-.-.-.-.-.-.-.-.-.-.-.-.-.-.-.-.-.-.-.-.-.-.-.-.-.-.-.-.-.-.-.-.-.-.-.-.-.-.-.-.-.-.-.-.-.-.-.-.-.-.-.-.-.-.-.-.-.-.-.-.-.-.-.-.-.-.-.-.-.-.-.-.-.-.-.-.-.-.-.-.-.-.-.-.-.-.-.-.-.-.-.-.-.-.-.-.-.-.-.-.-.-.-.-.-.-.-.-.",
"-.-.-.-.  =.o.  -.-.-.-.-.-.-.-.-.-.-.-.-.-.-.-.-.-.-.-.-.-.-.-.-.-.-.-.-.-.-.-.-.-.-.-.-.-.-.-.-.-.-.-.-.-.-.-.-.-.-.-.-.-.-.-.-.-.-.-.-.-.-.-.-.-.-.-.-.-.-.-.-.-.-.-.-.-.-.-.-.-.-.-.-.-.-.-.-.-.-.-.-.-.-.-.-.-.-.-.-.-.-.-.-.-.-.-.-.-.-.-.-.-.-.-.-.-.-.-.-.-.-.-.-.-.-.-.-.-.-.-.-.-.",
"-.-.-.-.  =.*.  -.-.-.-.-.-.-.-.-.-.-.-.-.-.-.-.-.-.-.-.-.-.-.-.-.-.-.-.-.-.-.-.-.-.-.-.-.-.-.-.-.-.-.-.-.-.-.-.-.-.-.-.-.-.-.-.-.-.-.-.-.-.-.-.-.-.-.-.-.-.-.-.-.-.-.-.-.-.-.-.-.-.-.-.-.-.-.-.-.-.-.-.-.-.-.-.-.-.-.-.-.-.-.-.-.-.-.-.-.-.-.-.-.-.-.-.-.-.-.-.-.-.-.-.-.-.-.-.-.-.-.-.-.-.",
"        -.=.-.                    -.-.-.-.-.-.-.-.-.-.-.-.-.-.-.-.-.-.-.-.-.-.-.-.-.-.-.-.-.-.-.-.-.-.-.-.-.-.-.-.-.-.-.-.-.-.-.-.-.-.-.-.-.-.  -.%.    -.-.-.-.-.-.-.-.-.-.-.-.-.-.-.-.-.-.-.-.-.-.-.-.-.-.-.-.-.-.-.-.-.-.-.-.-.-.-.-.-.-.-.-.-.-.-.-.-.-.-.-.-.-.-.-.-.-.-.-.-.-.-.-.-.-.",
"  @ @ @ @ @ @ @ @ @ #   # # # #     -.-.-.-.-.-.-.-.-.-.-.-.-.-.-.-.-.-.-.-.-.-.-.-.-.-.-.-.-.-.-.-.-.-.-.-.-.-.-.-.-.-.-.-.-.-.-.-.-.-.-.-.-.=.  %.  -.-.-.-.-.-.-.-.-.-.-.-.-.-.-.-.-.-.-.-.-.-.-.-.-.-.-.-.-.-.-.-.-.-.-.-.-.-.-.-.-.-.-.-.-.-.-.-.-.-.-.-.-.-.-.-.-.-.-.-.-.-.-.-.-.-.-.",
"  % $ $ $ $ $ $ $ % $   % % % %   #   -.-.-.-.-.-.-.-.-.-.-.-.-.-.-.-.-.-.-.-.-.-.-.-.-.-.-.-.-.-.-.-.-.-.-.-.-.-.-.-.-.-.-.-.-.-.-.-.-.-.-.-.-.  %.  -.-.-.-.-.-.-.-.-.-.-.-.-.-.-.-.-.-.-.-.-.-.-.-.-.-.-.-.-.-.-.-.-.-.-.-.-.-.-.-.-.-.-.-.-.-.-.-.-.-.-.-.-.-.-.-.-.-.-.-.-.-.-.-.-.-.-.",
"  : : : : : : : : : :   > > > ;   # @   -.-.-.-.-.-.-.-.-.-.-.-.-.-.-.-.-.-.-.-.-.-.-.-.-.-.-.-.-.-.-.-.-.-.-.-.-.-.-.-.-.-.-.-.-.-.-.-.-.-.-.-.  %.  -.-.-.-.-.-.-.-.-.-.-.-.-.-.-.-.-.-.-.-.-.-.-.-.-.-.-.-.-.-.-.-.-.-.-.-.-.-.-.-.-.-.-.-.-.-.-.-.-.-.-.-.-.-.-.-.-.-.-.-.-.-.-.-.-.-.-.",
"  1 4 4 < < < < , 3 4   2 2 2 2   % # @   =.-.-.-.-.-.-.-.-.-.-.-.-.-.-.=.-.-.-.=.-.-.-.-.-.-.-.-.-.-.-.-.-.-.-.-.-.-.=.-.-.-.-.-.-.-.-.-.-.-.-.  %.  -.-.-.-.-.-.-.-.-.=.-.-.-.=.-.-.-.-.-.-.-.-.-.-.-.-.-.-.-.-.-.-.=.-.-.-.-.-.-.=.-.-.-.-.-.-.-.-.-.-.  -.-.-.-.-.-.-.-.-.-.-.-.-.-.-.-.",
"  6 6 6 5 5 5 6 6 6 6   6 6 6 6   = % $ @ X o o X X o O o o o o O O O O O O O O O O o o o O O O o O O O O O O O O O O O O O O O o o o O o o O O -.=.o O o o o o O O O O O O O O O O o o O O O O o O O O O O O O O O O O O O O O O O O O O O O O X X X X X   O . -.-.-.-.-.-.-.-.-.-.-.-.-.-.",
"  8 8 8 9 8 8 9 7 8 w   w 8 w 8   : = & $ $ $ $ $ $ $ $ $ $ $ $ $ $ $ $ $ $ $ $ $ $ $ $ $ $ $ $ $ $ $ $ $ $ $ $ $ $ $ $ $ $ $ $ $ $ $ $ $ $ $ $ $ $ $ $ $ $ $ $ $ $ $ $ $ $ $ $ $ $ $ $ $ $ $ $ $ $ $ $ $ $ $ $ $ $ $ $ $ $ $ $ $ $ $ $ $ $ $ $ $ $ $ $ %   % % X X X X -.-.-.-.-.-.-.-.-.-.",
"  e w w w w w w e t e   w w e t   1 : : * * * * * * * * * * * * * * * * * * * * * * * * & = & * * * * * * * * * * * * * * * * * * * * * ; * * * * * * * * * * * * * * * * * * * * * * * & & & ; * * * * * * * * * * * * * * * * * * * * * * ; * ; ; - - =   ; ; $ $ $ $ O X -.-.-.-.-.-.-.-.",
"  s i a a a a p i u d   u s u s   1 < 4 : 3 3 3 3 3 < < 3 3 3 3 3 3 3 3 3 3 3 < 3 3 3 3 < < 3 3 3 3 < < 3 3 < < 3 3 3 3 3 3 3 3 , , 3 3 < < 3 3 3 3 < < , 3 3 3 3 3 3 3 3 3 3 3 3 3 3 3 < < < < 3 3 < < 3 3 < < 3 3 3 3 3 3 3 3 3 3 3 3 < < 3 3 3 < 4 2 4   4 4 ; & ; ; $ X O -.-.-.-.-.-.-.",
"  g g g j j g g a j k   k g j k   6 6 < < 6 5 5 6 6 5 5 5 5 5 5 5 5 5 5 5 5 5 5 5 5 5 5 5 5 5 5 5 5 5 5 5 5 5 5 5 5 5 5 5 5 5 5 5 5 5 5 5 5 6 5 5 5 5 5 5 5 5 5 5 5 5 5 5 5 5 5 5 5 5 5 5 5 5 5 5 5 5 5 5 5 5 5 5 5 5 5 5 5 5 5 5 5 5 5 5 5 5 5 5 5 5 6 6   6 5 < < 3 & = $ $ X o -.-.-.-.-.",
"  m N n v v M M v v m   m N m v   8 8 6 5 w w 0 y y q y q q q q 0 w w w q y 0 w 0 0 0 q r r r r q 0 0 w y q 0 w q 0 0 0 0 0 w w w q y q w w w 0 y q w w w 0 q y w w w 0 w q w w 0 0 0 q r 0 r r q 0 0 w y q 0 w q 0 0 0 0 0 w w w w 0 0 w w w w t y w e e   e t 5 5 5 3 < & & $ X O -.-.-.-.",
"  V C C C C C C C C A   V V V V   g r 7 9 a a a a a a a a a a a a a a a a a a a a a a a p a a a a a a a a a a a p p a a a a a a a p a a a a i i p p p a a a a a a a p a a a i a f q f p f p p a a a a a a i a p p p a p a a a a a a a a a a a a a a a s u   s a w 0 w 5 5 3 * * $ o -.-.-.-.",
"  H G S G G G S G Z A   F F F F   k i i 0 x x x x x x z x x x z z x x x x z x x x z x z z c z z z x z x x x x x x z x x x x x l x z z c z z x x z z z z c z z c z z c z z z x z z z z z z z c z x x x x z z z c x z z c z x x x z x z z x z x x z z x x b   b x a s w y 5 5 < * * $ X -.-.-.",
"  Y U U U U U U U U J   E J J J   g g g a M M M M M M M M M M M M c v v c M c M v M v v M v v v n v v v M M v M v v c c v v v v M c c M M M N c v v v v c v c M n c v c M M n M v v v v c v v n M c M M n M c M v v v v c v c v v v v v v v c v M v B M N   N v x x s u 0 w 5 4 * $ O X -.-.",
"  E T T T T T R T T E   E E E Q   b x g j S S G S S D G G G G G H S S G G G S G S S S S S S S G S S D G S G G G S S G S S S G G G G G S S S S S G G G S S S S S S S G D S G S S G G G G S S S S S G S S G S G G S S S G S S G S S S G G G S S S G G G G A   F F v v x x a w 5 6 < * $ O -.-.",
"  ! ! R R ( R ( ^ ^ /   ! ! ! !   N M z z K U U U U U U U U U U U U U U U U U Y K U U U U U U U K U U U U U U K K U U U U U U U U U U U U Y U U U U U T U U U Y U U U U K Y K U Y U U T U Y U U K U U U U U U K K U U U U U U Y U U U U U U U U U U U U E   J I G G v x x i w 6 < * ; $ . -.",
"  _ ] ( ( ( ( ( ( ( )   ) / ) )   N Z v v ~ ( R R ( R R ^ ^ R ^ Q ^ Q Q ^ ^ ^ R R ( R ( ( R ( R ( R R ( R ( ( R ( R ( R Q ^ Q Q R ( R ^ ! R ^ ^ ( R R R ( R ^ R ^ ^ ^ ^ ^ R ^ ^ R ^ R R R R ^ ^ ( R R ^ R ( ( R ( R ( R ^ ^ ^ R Q Q Q Q Q Q ( R ^ ^ ^ Q !   / J U G H v x a w r 5 < ; $ O -.",
"  ' ] ] ] ] ] ] ] ] [   ' ` [ '   H S Z S ( ( ( ( ( ( ( ( ( ( ( ( ( ( ( ( ( ( ( ( ( ( ( ( ( ( ( ( ( ( ( ( ( ( ( ( ( ( ( ( ( ( ( ( ( ( ( ( ( ( ( ( ( ( ( ( ( ( ( ( ( ( ( ( ( ( ( ( ( ( ( ( ( ( ( ( ( ( ( ( ( ( ( ( ( ( ( ( ( ( ( ( ( ( ( ( ( ( ( ( ( ) ) _   _ ^ Q U G G n x a r 6 3 ; $ O =.",
"  } } } { { | { { } ..  ..} } }   D S S S ] ] ] { { ] ] ] ] ] { ] ] ] ] ] ] ] ] ] ] ] ] ] ] ] ] ] ] ] ] ] ] ] ] ] ] ] ] ] ] ] ] ] ] ] ] ] ] ] ] ] ] ] ] ] ] ] ] ] ] ] ] ] ] ] ] ] ] ] ] ] { ] ] ] ] ] { ] ] ] ] ] ] ] ] ] ] ] ] ] ] ] ] ] ] ] ] ] ] ] ] '   [ ) ( Q U G v z a r 6 3 * $ o -.",
"  X.| | | | | | | | X.  X.| X.X.  I U U U | { } { { } { { | { { | { { | { } | { { | { { { { { { { { { { | } { { | { { } { { | { { | { { | } { { | { { { | { { | { { { { } } { { { | { { { { | { { | { { | { { | { { | { { { { { | { { | | { { { { { } } ..  } [ ) ^ U F P v b a w 6 3 ; $ O ",
"  o.O.#.#.#. . . .#.@.  @.O.O.+.  W T T T #.#. . . .#. . .#. . .#. . . .#.#.#. .#.#. .#. .#.#. . . .#.#.#.#.#.#. . . . . . .#. . . .#.#.#.#.#.#. .#.#.#.#. . . .#.#. . .#.#.#.#. . .#.#. . .#. .#. .#.#.#.O.#. . . . . . . .#.#. . . . . . . . . . .#.#.@.  ..} ] ( ^ U S v x a w 6 3 * $ O ",
"  o.O.#. .#. . . . .@.  O.O.O.O.  / ^ ^ R #. . . . . .#.#.#.#. . . . . .#.#.#. .#.#.#.#.#.#. . .#.#.#.#.#. .#.#. . . . .#. . . .#. .#.#. . .#.#.#. .#.#. . . . .#.#.#. .#.#. . .#. .#.#. . . . .#.#.#.#.#.#.#.#. . . . . . . . .#.#. . . . . . .#. . .#.@.  @.} ] ( ^ U S c x a w 5 4 * $ O ",
"  +.| | | | | | | | @.  | X.X.X.  Q T T T | { { | { } } } } } } { { { { { } { { { { { { { | { { | { { { { | { { { { | { | { } { { | { { { { { { { | { { { { { { { { { | { | { { | { { { | { { { { { { { { { { { { { { { | { { | { { { { { { { { } { { } |   ..} ] ( ^ U G v x a w 5 4 ; $ O ",
"  ..} { | { } { } } ..  } } } ..  Y I U U ] ] ] ] ] ] ] ] ] ] ] { ] ] ] { ] ] ] ] ] ] ] ] ] ] ] ] ] ] ] ] ] ] ] ] ] ] ] ] ] ] ] ] ] ] ] ] ] { { ] ] ] ] ] ] { { ] ] { ] ] ] { { ] ] { { ] ] { ] ] ] ] ] ] ] ] ] { ] ] ] ] ] ] ] ] ] ] ] ] ] ] ] ] ] ] ] '   ..] ( Q U G G v x a w 5 < ; $ X ",
"  ' ] ] ] ] ] ] ] ] [   [ ] [ [   F P F U ( ( ( ( ( ( ( ( ( ( ( ( ( ( ( ( ( ( ( ( ( ( ( ( ( ( ( ( ( ( ( ( ( ( ( ( ( ( ( ( ( ( ( ( ( ( ( ( ( ( ( ( ( ( ( ( R ( ( ( ( ) ) ( ( ( ( ( ( ( ( ( ( ( ( ( ( ( ( ( ( ( ( ( ] ( ( ( ( ( ) ( ( ( ( ( ( ( ( ( ( ( ( )   [ ) ( ^ U G M x a w 5 < * $ O =.",
"  _ ( ) ( ( ( ( ( ( )   ) / ) _   F F C G R R ( R R ^ Q ^ ^ ^ ^ R ( R R R R R ( ( R ( R R ( ( R R ( R ( ( R R ( R ^ ^ ^ R ^ Q Q ^ ^ ^ ^ R R ( R R ( R ( R R R R ^ ^ ^ R R R ( R R R ( R R R R R R ( R ( R ( ^ R R R R R R R ^ R ( R ^ ^ R ( R ^ ^ ^ ^ ^ !   ) ! ^ U G G M x p w 6 3 * $ X -.",
"  ! Q Q ^ ^ ^ ^ ^ ^ /   ! ! / /   Z Z M v U U U U U U U U U U U U U T U U T U U U U U U U U U U U U U U U U U U U U U U U U U U K U U U U U U U U U U U T T T U U U U U U U U U U U U U T U T U U U U U Y U U U U U T T U T U U U U U U U U Y U U U U K I   / I U G F M z a q y 6 < ; $ O -.",
"  E W T T T T T T R W   E E Q E   N b x x H G G G G F G G G F G P F F F G G G F F F F F F F P F G G G F P F F G F F F F G G F P P F G F G G G F F F F P G F G G F F F F G G G G G G G G G G F G G G F F F G G G G G G G G F F F G G P F G G S G G G S D S   Y L H S m x x a 0 5 3 * * $ X -.",
"  J I U K U U U U U J   Y J P J   x x j h v M M M v v v M v M v v v v v v v v v v v v v v v v v M v M v v v v v v v v v v v v v v v v v v v v v v v M v v v M M C v M M v v v v v v v v v M M v v v M B B M v v v v v v v v M v v v v v v v c v M v c N n   D H v v x x a 0 5 6 3 * % O -.-.",
"  D H G G G P G G S D   D D D A   g j h a x l z x x c x z x x z x x c x z x x x z z c x x x x x z x x z x x x x z z v z x z x z x x x x x x z x c x x x x x x z x x x x c x z x z z z z x x x x z z z z x x z c z z z z z z c x x x x x x x x x x x x x x   N n x x a p w 0 5 , * $ O o -.-.",
"  V N C C C C C C C V   V C N V   g a a 0 p s p p a a p a p a p p p p p a p a p a p p p p p p p a p a p a p a p p p p p p a a p a p a p a p a p p p p p p p a a p p p p p p p p p p p p p p a a p p p p p p p p p p p p p p p a p p p p a a a a a p a a s   b z a a q y 5 6 , & * $ O -.-.-.",
"  m N n c M M M v v N   N m v m   s t 8 9 y 0 q t t t t t w t 0 t q t q w 0 t q y q t q t t t t t q w 0 w 0 t q q q q q q q q y t t t t t q w 0 q q q 0 y q y w q q t q y q y q q q q q q y 0 w w 0 t q q q t 0 q q q 0 0 w y t q q q q q q t t w w r r e   s i y q t 6 5 3 * - $ X -.-.-.-.",
"  g g g g g g j j h d   k d d k   w 8 5 5 6 6 5 5 5 5 5 5 5 5 5 5 5 5 5 5 5 5 5 5 5 5 5 6 6 6 6 6 5 6 5 6 5 5 5 5 5 5 5 5 5 5 5 5 5 5 5 5 5 5 5 5 5 5 5 5 5 5 5 5 5 5 5 5 5 5 5 5 5 5 5 6 6 5 6 5 5 5 5 6 5 5 5 5 5 5 5 5 5 5 6 5 5 6 6 6 5 5 6 6 6 6 6 6   e e 5 5 6 3 < * % % O . -.-.-.-.",
"  s s i p a a a a s s   s s p u   6 5 3 3 3 3 3 3 3 3 3 2 3 3 3 3 3 3 3 3 < 3 3 3 3 3 3 3 3 3 3 3 3 3 3 < < < < 3 3 3 3 3 3 3 3 3 3 2 3 3 3 3 , 3 3 3 3 3 3 < < 3 3 3 3 3 3 3 3 3 3 3 3 3 3 3 < < < 3 3 3 3 3 3 3 3 3 3 < < < < 3 3 3 3 3 3 4 3 4 3 4 1 1   6 6 4 4 4 ; - % $ X O -.-.-.-.-.",
"  e r r 0 0 0 r w 0 t   t t t e   < 3 3 : * * * * * * * - * - * - * - * - * ; ; * * * * * * ; ; ; * ; * ; ; * * * * * * * * * * * * * * * * * * * * * * * * * * - * - * ; * * * * * * * * * ; * ; ; - * - * - * * * * * * ; * * ; * * * ; ; - ; ; ; ; ; ;   1 1 ; ; - $ $ O X -.-.-.-.-.-.-.",
"  w 9 9 9 9 9 9 8 8 8   8 w 8 w   4 : : * $ $ $ $ $ $ $ $ $ $ $ $ $ $ $ $ $ $ $ $ $ $ $ $ $ $ $ $ $ $ $ $ $ $ $ $ $ $ $ $ $ $ $ $ $ $ $ $ $ $ $ $ $ $ $ $ $ $ $ $ $ $ $ $ $ $ $ $ $ $ $ $ $ $ $ $ $ $ $ $ $ $ $ $ $ $ $ $ $ $ $ $ $ $ $ $ $ $ $ $ $ % $ $   = - % $ % % O O -.-.-.-.-.-.-.-.",
"  6 5 5 5 5 5 5 5 5 6   6 6 6 6   : ; ; $ O o o o O O O o O o O o O o O o O o O O O o o o o O O O O o o o O O O o O o o O O o O O O o o o o o o o o O O o o O o O O o o o o O O O O O o O o O O O O O O o o o O O O O O O O o O X O o X X X X o O O O X X   $ % . . o . -.-.-.-.-.-.-.-.-.-.",
"  1 3 3 , , 3 3 3 < 2   2 2 2 2   = % % @ X -.-.-.-.-.-.-.-.-.-.-.-.-.-.-.-.-.-.-.-.-.-.-.=.-.-.-.-.-.-.-.-.-.-.-.-.-.-.-.-.-.-.-.-.-.-.-.-.=.-.-.-.-.-.-.-.-.=.-.-.-.-.-.-.-.-.-.-.-.-.-.-.-.=.-.-.-.-.-.-.-.-.-.-.-.-.-.-.-.-.-.-.-.-.-.-.-.-.-.-.-.-.-.  + + -.-.-.-.-.-.-.-.-.-.-.-.-.-.",
"  : : : : : : : : : >   : > : :   % @ @   -.-.-.-.-.-.-.-.-.-.-.-.-.-.-.-.-.-.-.-.-.-.-.-.-.-.-.-.-.-.-.-.-.-.-.-.-.-.-.-.-.-.-.-.-.-.-.-.-.-.-.  %.  -.-.-.-.-.-.-.-.-.-.-.-.-.-.-.-.-.-.-.-.-.-.-.-.-.-.-.-.-.-.-.-.-.-.-.-.-.-.-.-.-.-.-.-.-.-.-.-.-.-.  -.-.-.-.-.-.-.-.-.-.-.-.-.-.-.-.",
"  % % $ $ $ $ $ $ $ %   % $ % %   # #   -.-.-.-.-.-.-.-.-.-.-.-.-.-.-.-.-.-.-.-.-.-.-.-.-.-.-.-.-.-.-.-.-.-.-.-.-.-.-.-.-.-.-.-.-.-.-.-.-.-.-.-.  %.  -.-.-.-.-.-.-.-.-.-.-.-.-.-.-.-.-.-.-.-.-.-.-.-.-.-.-.-.-.-.-.-.-.-.-.-.-.-.-.-.-.-.-.-.-.-.-.-.-.-.  -.-.-.-.-.-.-.-.-.-.-.-.-.-.-.-.",
"  # @ @ @ @ @ @ @ @ #   @ @ @ @   #   -.-.-.-.-.-.-.-.-.-.-.-.-.-.-.-.-.-.-.-.-.-.-.-.-.-.-.-.-.-.-.-.-.-.-.-.-.-.-.-.-.-.-.-.-.-.-.-.-.-.-.-.-.  %.  -.-.-.-.-.-.-.-.-.-.-.-.-.-.-.-.-.-.-.-.-.-.-.-.-.-.-.-.-.-.-.-.-.-.-.-.-.-.-.-.-.-.-.-.-.-.-.-.-.-.-.-.-.-.-.-.-.-.-.-.-.-.-.-.-.-.-.",
"  . X X X O X . X X .   . O . .     -.-.-.-.-.-.-.-.-.-.-.-.-.-.-.-.-.-.-.-.-.-.-.-.-.-.-.-.-.-.-.-.-.-.-.-.-.-.-.-.-.-.-.-.-.-.-.-.-.-.-.-.-.-.  -.  -.-.-.-.-.-.-.-.-.-.-.-.-.-.-.-.-.-.-.-.-.-.-.-.-.-.-.-.-.-.-.-.-.-.-.-.-.-.-.-.-.-.-.-.-.-.-.-.-.-.-.-.-.-.-.-.-.-.-.-.-.-.-.-.-.-.-.",
"        =.-.-.                    -.-.-.-.-.-.-.-.-.-.-.-.-.-.-.-.-.-.-.-.-.-.-.-.-.-.-.-.-.-.-.-.-.-.-.-.-.-.-.-.-.-.-.-.-.-.-.-.-.-.-.-.-.-.  -.-.    -.-.-.-.-.-.-.-.-.-.-.-.-.-.-.-.-.-.-.-.-.-.-.-.-.-.-.-.-.-.-.-.-.-.-.-.-.-.-.-.-.-.-.-.-.-.-.-.-.-.-.-.-.-.-.-.-.-.-.-.-.-.-.-.-.-.",
"-.-.-.-.  =.o.  -.-.-.-.-.-.-.-.-.-.-.-.-.-.-.-.-.-.-.-.-.-.-.-.-.-.-.-.-.-.-.-.-.-.-.-.-.-.-.-.-.-.-.-.-.-.-.-.-.-.-.-.-.-.-.-.-.-.-.-.-.-.-.-.-.-.-.-.-.-.-.-.-.-.-.-.-.-.-.-.-.-.-.-.-.-.-.-.-.-.-.-.-.-.-.-.-.-.-.-.-.-.-.-.-.-.-.-.-.-.-.-.-.-.-.-.-.-.-.-.-.-.-.-.-.-.-.-.-.-.-.-.-.-.",
"-.-.-.-.  =.o.  -.-.-.-.=.-.-.-.-.-.-.-.-.-.-.-.-.-.-.-.-.-.-.-.-.-.-.-.-.-.-.-.-.-.-.-.-.-.-.-.-.-.-.-.-.-.-.-.-.-.-.-.-.-.-.-.-.-.-.-.-.-.-.-.-.-.-.-.-.-.-.-.-.-.-.-.-.-.-.-.-.-.-.-.-.-.-.-.-.-.-.-.-.-.-.-.-.-.-.-.-.-.-.-.-.-.-.-.-.-.-.-.-.-.-.-.-.-.-.-.-.-.-.-.-.-.-.-.-.-.-.-.-.-.",
"-.-.-.-.  =.%.  -.-.-.-.-.-.-.-.-.-.-.-.-.-.-.-.-.-.-.-.-.-.-.-.-.-.-.-.-.-.-.-.-.-.-.-.-.-.-.-.-.-.-.-.-.-.-.-.-.-.-.-.-.-.-.-.-.-.-.-.-.-.-.-.-.-.-.-.-.-.-.-.-.-.-.-.-.-.-.-.-.-.-.-.-.-.-.-.-.-.-.-.-.-.-.-.-.-.-.-.-.-.-.-.-.-.-.-.-.-.-.-.-.-.-.-.-.-.-.-.-.-.-.-.-.-.-.-.-.-.-.-.-.-.",
"-.-.-.-.  =.%.  -.-.-.-.-.-.-.-.-.-.-.-.-.-.-.-.-.-.-.-.-.-.-.-.-.-.-.-.-.-.-.-.-.-.-.-.-.-.-.-.-.-.-.-.-.-.-.-.-.-.-.-.-.-.-.-.-.-.-.-.-.-.-.-.-.-.-.-.-.-.-.-.-.-.-.-.-.-.-.-.-.-.-.-.-.-.-.-.-.-.-.-.-.-.-.-.-.-.-.-.-.-.-.-.-.-.-.-.-.-.-.-.-.-.-.-.-.-.-.-.-.-.-.-.-.-.-.-.-.-.-.-.-.-.",
"-.-.-.-.  -.-.  -.-.-.-.-.-.-.-.-.-.-.-.-.-.-.-.-.-.-.-.-.-.-.-.-.-.-.-.-.-.-.-.-.-.-.-.-.-.-.-.-.-.-.-.-.-.-.-.-.-.-.-.-.-.-.-.-.-.-.-.-.-.-.-.-.-.-.-.-.-.-.-.-.-.-.-.-.-.-.-.-.-.-.-.-.-.-.-.-.-.-.-.-.-.-.-.-.-.-.-.-.-.-.-.-.-.-.-.-.-.-.-.-.-.-.-.-.-.-.-.-.-.-.-.-.-.-.-.-.-.-.-.-.-."
};
