/* XPM */
static char *HTRIXIST_HTRIXIST_GEN_HS[] = {
/* columns rows colors chars-per-pixel */
"85 53 104 2",
"   c #010100",
".  c #262624",
"X  c #262822",
"o  c #282724",
"O  c #282824",
"+  c gray16",
"@  c #3B3B36",
"#  c #3B3B38",
"$  c #4A4A44",
"%  c #4A4A48",
"&  c #5A574E",
"*  c #58584E",
"=  c #585752",
"-  c #585851",
";  c #64645D",
":  c #656560",
">  c #6F6F64",
",  c #6F6E69",
"<  c #6F7069",
"1  c #717165",
"2  c #707069",
"3  c #7B7C6E",
"4  c #7B7C71",
"5  c #85867C",
"6  c #86887B",
"7  c #8D8E7E",
"8  c #8D907F",
"9  c #858681",
"0  c #8D8E82",
"q  c #8D8E88",
"w  c #8F9082",
"e  c #909183",
"r  c #96978C",
"t  c #96988A",
"y  c #989987",
"u  c #98988A",
"i  c #969892",
"p  c #9B9C94",
"a  c #9EA093",
"s  c #9EA099",
"d  c #A19F90",
"f  c #A0A18F",
"g  c #A0A094",
"h  c #A0A098",
"j  c #A7A89A",
"k  c #A8A997",
"l  c #A9AA9A",
"z  c #B1B19E",
"x  c #A6A9A0",
"c  c #A8A9A2",
"v  c #AFB1A3",
"b  c #AFB2A9",
"n  c #B1B2A1",
"m  c #B3B4AA",
"M  c #B7B8A6",
"N  c #B7B8AC",
"B  c #B9B9A5",
"V  c #B8B8AB",
"C  c #B6B8B1",
"Z  c #BBBBB1",
"A  c #BFC1AC",
"S  c #BEC0B4",
"D  c #BFC0BA",
"F  c #C0BFAB",
"G  c #C1C1AD",
"H  c #C0C0B3",
"J  c #C6C6BA",
"K  c #C6C8B4",
"L  c #C6C8BA",
"P  c #C8C6B3",
"I  c #C9C7BA",
"U  c #C9C8B4",
"Y  c #CDCEBD",
"T  c #D0CEBC",
"R  c #D1D0BB",
"E  c #C6C7C1",
"W  c #CDCEC2",
"Q  c #CECFC9",
"!  c #CED0C5",
"~  c #D0CEC0",
"^  c #D6D5C4",
"/  c #D5D5C8",
"(  c #D8D7C3",
")  c #D8D6C9",
"_  c #DCDBC6",
"`  c #DBDBCD",
"'  c #DCDCD4",
"]  c #DFE0D3",
"[  c #E1E0CD",
"{  c #E2E3D4",
"}  c #E5E6D9",
"|  c #E7E8D6",
" . c #E6E8DC",
".. c #E8E6D3",
"X. c #E8E6D8",
"o. c #EBEAD5",
"O. c #EDECDA",
"+. c #EBEDE0",
"@. c #F2F2E3",
"#. c #F2F4E9",
"$. c #F6F8E8",
"%. c #F9F7E8",
"&. c #F8F8EA",
"*. c #FEFEFE",
/* pixels */
"*.*.*.*.*.*.*.*.*.*.*.*.*.*.o o                                                                                                           O . X *.*.*.*.*.*.*.*.*.*.*.*.*.",
"*.*.*.*.*.*.*.*.*.*.*.X o X # #   # # # # # @ @ # @ @ @ @ @ @ @ @ @ @ @ @ @ @ @ @ @ @ @ @ @ @ @ @ @ @ @ @ @ @ @ @ @ @ @ @ @ @ @ # @ @ @   # @ @ X O *.*.*.*.*.*.*.*.*.*.*.",
"*.*.*.*.*.*.*.*.*.*.X X @ @ # %   % % % % $ $ $ $ $ % $ $ $ % $ $ $ % % $ $ % $ $ $ $ % $ $ $ $ $ $ % $ $ $ $ % $ $ $ $ $ $ % $ % $ % %   % % $ @ O X *.*.*.*.*.*.*.*.*.*.",
"*.*.*.*.*.*.*.*.*.X @ @ $ $ $ =   = = = = = = = * & = * - - & - = * * * = & = * * * - = = = * * * * - - - - - = * * * * = & = * - = = =   = % $ $ % @ X *.*.*.*.*.*.*.*.*.",
"*.*.*.*.*.*.*.*.O # $ $ & & & ;   : : : : : : : ; ; : : : : : : : : : : ; ; ; ; : ; : : ; : : : ; ; : : : : : : : : : : ; ; ; ; : : : :   : - - & $ $ @ X *.*.*.*.*.*.*.*.",
"*.*.*.*.*.*.*.o # $ * & ; ; ; 1                                                                                                           2 ; ; ; & * $ @ O *.*.*.*.*.*.*.",
"*.*.*.*.*.*.o # $ - * ; 1 1 1 1   2 , 2 2 2 2 2 < < < < 2 < 2 2 < < 2 2 2 < 2 2 < < 2 2 2 < 2 2 < < < 2 < < 2 2 < < 2 2 2 < 2 2 2 2 2 2   2 1 1 1 ; * * $ # X *.*.*.*.*.*.",
"*.*.*.*.*.X O $ $ & ; 1 1 1 2 4   4 4 4 4 4 4 4 3 4 4 4 4 4 4 4 4 4 4 4 4 4 4 4 4 4 4 4 4 3 4 4 3 4 4 4 4 4 4 4 4 4 4 4 4 4 4 4 4 4 4 4   4 2 1 1 1 ; * $ $ O O *.*.*.*.*.",
"*.*.*.*.O O $ $ * ; 1 > 3 3 3 6   9 9 9 9 9 5 5 5 5 5 5 5 5 5 5 9 5 5 5 5 5 5 9 5 5 5 5 5 5 5 5 5 5 5 5 5 5 5 9 9 5 5 5 5 5 5 5 9 9 9 5   9 4 4 3 > > ; * $ $ O *.*.*.*.*.",
"*.*.*.*.O $ $ * ; 1 > 3 6 6 6 7   q q q w q 7 q q e 7 q q q e e w w q q e e q e q 7 7 q w e w q 7 q w q q e q e w w 7 q w w q q w w w q   q 6 5 6 3 1 > ; - $ $ X *.*.*.*.",
"*.*.*.*.O $ - ; 1 1 3 6 7 7 7 u                                                                                                           i q 7 8 6 3 > 1 ; - $ X *.*.*.*.",
"*.*.*.O @ $ * 1 1 3 6 8 u y u d   s d d h g g h d d a s a f h g a s a a h h h h g h g g h g g g s a g h h d g g s a a s h g g g p s d d   s t t y 8 6 6 1 1 * $ @ X *.*.*.",
"*.*.*.O $ - 1 1 3 6 8 u y g f l   c c c l l l l c l l l l l l l l l l l l l l l l l l l l l l l l l l l l l l l l l l l l l l l l l l l   x g a y y e 6 3 1 1 & $ X *.*.*.",
"*.*.. @ $ * 1 3 3 w 8 y d l k m   b m b b n n n n v n v v v v v n n v v n v n n n n n v n v v z v v n v v z v v v v v z v v n n n v m m   m l l f y y 8 6 3 1 & $ X X *.*.",
"*.*.O % - ; 1 4 7 w t g l z z B   C C C V V C V B B V V C C V C N V V V B V V V V V V V V V V B V V V V V V V V V V V V V V V V V V V V   N n v k g y e 7 3 1 ; * $ X *.*.",
"*.*.X % - 1 3 5 7 y a l z B B S   E F F F F F J F H H H J F F F S S H H H H H H S S S H H H H H S P S H P H H H H H H H H H H H H H H S   D V B z l g y 7 6 3 1 * $ X *.*.",
"*.X % $ - 1 3 7 y f l z B G G L                                                                                                           I H G B z l d y 7 3 1 & $ $ X *.",
"*.O % - 1 1 4 7 y l M z G K L Y   ! ! ! ! Y ! ! ~ ~ W W W W W W W W W W W W W W W ! ! Q ! ! ! ! W W W W W W W W W W W W W W W W W Y W W   Q U U G B z l u 7 3 1 1 & $ X *.",
"*.O $ & 2 4 7 7 y l z G G U R /   ` / ^ ` R R ( ( ( ^ ^ ( ^ ^ ^ ( ( ^ ( ^ ( ^ ^ ( ( ` R ( R ^ ^ ^ ^ ( ( ^ ( ^ ( ( ^ ^ ^ ( ^ ( ( R ` ( /   / ! U F F z l y e e 3 1 & $ X *.",
"*.X $ & 1 4 7 u l z B G U R R (   / / ^ ( ( ( ( ( ^ ^ ^ ( ( ( ^ ( ^ ^ ( ^ ^ ^ ^ ( ( ( ( ( ( ^ ^ ( ( ^ ^ ^ ( ^ ^ ( ( ( ^ ^ ^ ( ^ ` ( R )   / ( Y P F F B l y 7 3 1 * $ X *.",
"*.O % - 2 3 7 y k z A U R _ _ R   ' ' ` ` ` ` ` ` ` ` [ ` ` ` ` ' ` ` ` ` ' ` ` ` ` ' ` ` ` ` ` ` ` ` ` ` ` ' ` ` ` ' ` ' ` ` ` ` ` ` `   ` ^ ( R P F z k y w 3 1 * $ O *.",
"*.X $ - 1 3 7 y k z A K R R _ _                                                                                                           ` ` ( R P F z k y 7 3 1 * $ X *.",
"X $ - 1 1 6 u g z A G K _ _ [ [    .} } } }  .} X.X.X. .X.X.X.X.} } X.| } } X.X.} } X.| } | } } } } } | X.} } X.} } } } } } } } X.X.X.}   { [ _ _ U U F z d u 3 1 1 $ @ X ",
"X $ - 1 3 w y l z G G K _ _ o.o.  +.+.O.O.O.O.O.O.O.+.O.O.O.O.O.o.O.O.O.O.O.O.O.O.O.O.O.O.O.O.O.O.O.O.O.O.O.O.O.O.O.O.O.O.O.O.O.O.O.O.+.  } X._ R U U G B k u 7 3 1 & $ X ",
"X $ * 1 3 w y l z F U T R [ o.o.  #.@.@.@.@.@.@.@.@.@.@.@.@.@.@.@.@.@.@.@.@.@.@.@.@.@.@.@.@.@.@.@.@.@.@.@.@.@.@.@.@.@.@.@.@.@.@.@.@.@.@.  +.X._ R R U G v l y q 3 1 - $ O ",
"X $ * 1 3 w u k z F P ( _ ..o.@.  &.&.#.&.&.$.$.$.$.%.%.%.&.%.%.$.&.%.%.%.$.%.%.$.$.%.%.$.%.$.$.$.$.%.&.%.%.%.&.$.$.%.%.$.$.$.$.%.%.%.%.  #.O...[ ( U G z l y 7 3 1 - $ O ",
"X $ * 1 3 7 y k z G U ( _ ..O.$.                                                                                                          &.O.| _ ( U F z k u e 3 2 - $ O ",
"X $ * 1 3 w y l v P U R _ ..O.@.  #.@.#.@.@.@.@.@.@.%.@.@.@.%.@.@.@.#.@.$.@.@.@.@.@.$.@.#.@.#.@.$.@.#.@.@.@.@.@.@.@.#.@.#.@.#.@.@.@.@.@.  #.O.| [ R U F z l y 7 3 1 - $ O ",
"X $ - 1 5 7 y l z G U R ( [ ..O.  +.O.o.O.O.O.O.O.O.O.O.O.O.O.o.O.O.O.o.O.o.O.O.O.o.O.O.O.O.o.O.O.o.O.O.O.o.O.O.O.O.O.o.o.O.O.O.O.O.O.O.  +.o.[ ( R U P z l y w 3 1 & $ O ",
"X $ * 1 3 7 y k v A G U ( _ ..|   } } | ..........o...................................................o.............................o...  X.X._ R U U F n k u e 3 1 - $ O ",
"O $ * 1 1 6 y d v B G U R _ [ [   ] { { { { ` { { { { ' [ { { { { [ { ] ] { { { { ] ] { { { { ] { { [ [ { ] ] { [ { { { ] { [ { { ' { {   { [ _ R U U B n f y 3 1 1 $ @ O ",
"*.X $ * 1 3 7 y k z G U _ ( _ _                                                                                                           ` [ _ R U G z l y e 3 1 * $ O *.",
"*.O $ & 1 3 e u l n F P R R ^ ^   / / / / ^ / / / / / / ^ / / ^ / / / / / / / / / / / / ^ ( / / ) / / / / ) ) / / / / / ^ / / / / / / `   ` ^ ^ Y P F z l y w 4 1 & $ O *.",
"*.+ $ & 1 3 e u k v B P P R ^ ^   / / ^ ^ ^ ^ ^ ^ / ^ ( / ^ ( ( ^ ^ ( ) ^ ^ ) / ^ ( ^ ^ / ^ ( ( ^ / ^ / ^ ^ ^ ^ / ^ ^ ( ^ ^ ^ ^ / ^ / /   / ^ Y P G B z l y 7 4 1 * $ O *.",
"*.X $ & 1 4 7 e u l z F G U Y ^   Q E ! ! Y ^ Y W Y W T Y W ! ! ! Y ! W T ~ T ~ W ! ~ W W Y W W Y W ~ ~ Y T ^ Q W W W Y Y W ~ ~ T T W Q   / W P F F z l t 8 w 3 1 * $ O *.",
"*.o $ & 1 1 4 7 u l v z G U K ^   E L L L L L L L L J J L L L Y L L L U I I I I I L I I I J I L J I I I J I I I J J I I I I I I L L L L   W I U G F z l u 7 3 1 1 * $ O *.",
"*.X $ $ & 1 3 7 y g k n B G G L                                                                                                           L H H F z l g y 7 3 1 & $ $ X *.",
"*.*.X $ & 1 3 7 e u g l z B B H   C C Z N N N N N N C N N N N V V V V V V V C V V C C V V V V C N V V V V V V V V V C C V V C V V V N V   S M V z k g y 7 5 3 1 & $ X *.*.",
"*.*.X $ * ; 1 4 7 e y f k v z N   b m b v n M z v v v v n n v m n v n n n n v n n n n n n n n n v z v v v n n n n n n n n n n n b v n m   N n n k f y w 8 3 1 ; & $ X *.*.",
"*.*.o @ $ & 1 3 4 7 y d f k k m   x l l l l k l k l l l l l k l l l l l l l l l l l l l l l l l k l l l l l l l l l l l l l l l l l j l   b l l d y y w 6 3 1 & $ X X *.*.",
"*.*.*.X $ & > 1 3 6 7 8 y f a l   s a f a a a a a a a a g a a a g a g g a a g g a a g g a a g g a a g a g g g g g g g g f a a a a a a a   c g g y u 7 5 4 1 > * $ X *.*.*.",
"*.*.*.X @ $ - 1 1 3 6 7 y y u g   i p p r r p t t t i t t t i u t t u y t u u u t t u u t t i u t t u t u u u r t u t t t t i u u u u i   a t y u 7 5 3 1 1 = $ @ X *.*.*.",
"*.*.*.*.O $ - ; 1 1 3 6 e 8 8 y                                                                                                           i w w e 5 3 1 1 ; * $ X *.*.*.*.",
"*.*.*.*.O $ $ * ; 1 1 3 6 6 6 e   9 9 9 5 5 5 5 5 5 5 5 5 5 5 5 5 5 9 5 9 5 5 5 9 5 5 5 5 5 5 5 9 5 5 9 5 9 5 5 9 5 5 5 5 5 9 5 9 5 9 9   w 9 5 5 4 1 1 ; & $ $ X *.*.*.*.",
"*.*.*.*.O O $ $ * ; 1 1 4 4 4 5   4 4 4 4 4 4 4 4 4 3 3 3 3 4 3 3 3 4 4 4 4 4 4 4 3 3 3 4 4 4 4 3 3 3 4 4 4 4 4 4 4 4 4 4 3 4 4 4 4 4 4   6 3 3 3 > 1 ; & $ $ X *.*.*.*.*.",
"*.*.*.*.*.O O $ $ * ; 1 1 1 1 4   2 2 2 2 < 1 2 1 1 1 1 1 1 2 2 1 2 1 2 1 2 2 2 1 1 1 2 1 1 1 2 1 1 2 2 > 2 2 1 > 1 1 2 1 1 1 1 2 < 2 2   4 1 1 > 1 ; & $ $ X X *.*.*.*.*.",
"*.*.*.*.*.*.X @ $ & & ; 1 > , 2   < 2 , 2 2 2 2 < < 2 2 < < 2 2 < < 2 2 2 2 2 2 < < 2 2 2 < 2 2 2 2 2 2 2 2 2 2 2 2 2 2 2 2 2 2 2 2 2 2   2 1 1 > ; & & $ @ o *.*.*.*.*.*.",
"*.*.*.*.*.*.*.O # $ - & ; ; : 2                                                                                                           < ; ; ; * * $ @ X *.*.*.*.*.*.*.",
"*.*.*.*.*.*.*.*.X # % $ * * * ;   = = = = = - - - - - - = * = - = = - = - - = = - - - - - - = = = = - - - - - - - - - - - - - - * = * *   ; - - & $ $ # X *.*.*.*.*.*.*.*.",
"*.*.*.*.*.*.*.*.*.O @ # $ $ $ *   % % % % % $ $ % $ $ $ % % % $ $ $ $ $ % $ $ % % % $ % % % $ % % % % % % % % $ % % $ % % $ $ % $ % % %   = $ % $ $ # O *.*.*.*.*.*.*.*.*.",
"*.*.*.*.*.*.*.*.*.*.O X @ @ # $   # @ @ # # @ # # # # @ @ @ @ @ # # @ @ # # # @ @ @ # # @ @ @ @ @ @ # @ # @ @ @ @ @ @ # @ @ @ @ @ @ # @   % % # @ X O *.*.*.*.*.*.*.*.*.*.",
"*.*.*.*.*.*.*.*.*.*.*.O X X @ @   o . . O O O O O O X O O O O . O O O O O O o . O O O O O O . . O O O O o O o . X O O O O O o O + O . .   @ # O X X *.*.*.*.*.*.*.*.*.*.*.",
"*.*.*.*.*.*.*.*.*.*.*.*.*.*.O X                                                                                                         O O X X *.*.*.*.*.*.*.*.*.*.*.*.*."
};
