/* XPM */
static char *HTRIXIST_HTRIXIST_E_HS_1CO[] = {
/* columns rows colors chars-per-pixel */
"146 53 96 2",
"   c #010100",
".  c #262724",
"X  c #272823",
"o  c #282723",
"O  c #292728",
"+  c #282824",
"@  c #282828",
"#  c #3B3B36",
"$  c #3B3B38",
"%  c #4A4A43",
"&  c #4A4A48",
"*  c #57574F",
"=  c #58584E",
"-  c #575852",
";  c #585851",
":  c #64645C",
">  c #646560",
",  c #6F7166",
"<  c #6F7068",
"1  c #717165",
"2  c #717169",
"3  c #7B7C6E",
"4  c #7C7C70",
"5  c #858676",
"6  c #85867A",
"7  c #86887B",
"8  c #88867A",
"9  c #8D8E7E",
"0  c #858580",
"q  c #8D8E81",
"w  c #8F9081",
"e  c #908E81",
"r  c #96978D",
"t  c #97988B",
"y  c #989987",
"u  c #989989",
"i  c #979890",
"p  c #989991",
"a  c #9EA093",
"s  c #A0A18F",
"d  c #A0A092",
"f  c #A1A398",
"g  c #A7A994",
"h  c #A8AA96",
"j  c #A9AA98",
"k  c #B1B29E",
"l  c #AAAAA0",
"z  c #AFB1A4",
"x  c #B1B1A0",
"c  c #B3B4A9",
"v  c #B7B8AA",
"b  c #B9B8A6",
"n  c #B8B8AA",
"m  c #BFBFB3",
"M  c #BFC0AD",
"N  c #BFC0B2",
"B  c #C1C1AD",
"V  c #C0C1B2",
"C  c #C6C6BB",
"Z  c #C7C8B8",
"A  c #C8C7B4",
"S  c #C9C7BA",
"D  c #C9C8B3",
"F  c #CCCCBB",
"G  c #CFD0BE",
"H  c #D0CEBB",
"J  c #D1D0BC",
"K  c #CDCEC1",
"L  c #CFD0C2",
"P  c #D0CEC1",
"I  c #D6D5C1",
"U  c #D5D5C8",
"Y  c #D8D6C3",
"T  c #DCDCC6",
"R  c #DCDCCA",
"E  c #DCDCD0",
"W  c #E6E6D4",
"Q  c #E5E6D9",
"!  c #E6E8D4",
"~  c #E7E8D9",
"^  c #E8E7D2",
"/  c #EDEDD5",
"(  c #EDECDA",
")  c #EEF0DB",
"_  c #F3F3DD",
"`  c #F9F9DF",
"'  c #EDEDE1",
"]  c #F3F3E4",
"[  c #F6F6EA",
"{  c #F7F8E4",
"}  c #F7F8EA",
"|  c #F9F8E1",
" . c #F8F9EB",
".. c #F5F6F2",
"X. c #F7F8F3",
"o. c #FEFEFE",
/* pixels */
"o.o.    o.o.    o.o.o.o.o.o.o.o.o.o.o.o.o.o.o.o.o.o.o.o.o.o.o.o.o.o.o.o.o.o.o.o.o.o.o.o.o.o.o.o.o.o.o.o.o.o.o.o.o.o.o.o.o.o.o.o.o.o.o.o.o.o.o.o.o.o.o.o.o.o.o.o.o.o.o.o.o.o.o.o.o.o.o.o.o.o.o.o.o.o.o.o.o.o.o.o.o.o.o.o.o.o.o.o.o.o.o.o.o.o.o.o.o.o.o.o.o.o.o.o.o.o.o.o.o.o.o.o.o.o.o.o.o.o.o.o.o.o.",
"o.o.o.o.  ..  o.o.o.o.o.o.o.X.o.o.o.o.o.o.o.o.o.o.o.o.o.o.o.o.o.o.o.o.o.o.o.o.o.o.o.o.o.o.o.o.o.o.o.o.o.o.o.o.o.o.o.o.o.o.o.o.o.o.o.o.o.o.o.o.o.o.o.o.o.o.o.o.o.o.o.o.o.o.o.o.o.o.o.o.o.o.o.o.o.o.o.o.o.o.o.o.o.o.o.o.o.o.o.o.o.o.o.o.o.o.o.o.o.o.o.o.o.o.o.o.o.o.o.o.o.o.o.o.o.o.o.o.o.o.o.o.o.o.o.",
"o.o.o.o.  X.  o.o.o.o.o.o.o.o.o.o.o.o.o.o.o.o.o.o.o.o.o.o.o.o.o.o.o.o.o.o.o.o.o.o.o.o.o.o.o.o.o.o.o.o.o.o.o.o.o.o.o.o.o.o.o.o.o.o.o.o.o.o.o.o.o.o.o.o.o.o.o.o.o.o.o.o.o.o.o.o.o.o.o.o.o.o.o.o.o.o.o.o.o.o.o.o.o.o.o.o.o.o.o.o.o.o.o.o.o.o.o.o.o.o.o.o.o.o.o.o.o.o.o.o.o.o.o.o.o.o.o.o.o.o.o.o.o.o.o.",
"o.o.o.o.  ..  o.o.o.o.o.o.o.o.o.o.o.o.o.o.o.o.o.o.o.o.o.o.o.o.o.o.o.o.o.o.o.o.o.o.o.o.o.o.o.o.o.o.o.o.o.o.o.o.o.o.o.o.o.o.o.o.o.o.o.o.o.o.o.o.o.o.o.o.o.o.o.o.o.o.o.o.o.o.o.o.o.o.o.o.o.o.o.o.o.o.o.o.o.o.o.o.o.o.o.o.o.o.o.o.o.o.o.o.o.o.o.o.o.o.o.o.o.o.o.o.o.o.o.o.o.o.o.o.o.o.o.o.o.o.o.o.o.o.o.",
"o.o.o.o.  [   o.o.o.o.o.o.o.o.o.o.o.o.o.o.o.o.o.o.o.o.o.X.o.o.o.o.o.o.o.o.o.o.o.o.o.o.o.o.o.o.o.o.o.o.o.o.o.o.o.o.o.o.o.o.o.o.o.o.o.o.o.o.o.o.o.o.o.o.o.o.o.o.o.o.o.o.o.o.o.o.o.o.o.o.o.o.o.o.o.o.o.o.o.o.o.o.o.o.o.o.o.o.o.o.o.o.o.o.o.o.o.o.o.o.o.o.o.o.o.o.o.o.o.o.o.o.o.o.o.o.o.o.o.o.o.o.o.o.o.",
"        o.o.                    o.o.o.o.o.o.o.o.    o...    o.o.o.o.o.o.o.o.o.o.o.o.o.o.o.o.o.o.o.o.o.o.o.o.o.o.o.o.o.o.o.o.o.o.o.o.o.o.o.o.o.o.o.o.o.o.o.o.o.o.o.o.o.o.o.o.o.o.o.o.o.o.o.o.o.o.o.o.o.o.o.o.o.o.o.o.o.o.o.o.o.o.o.o.o.o.o.o.o.o.o.o.o.o.o.o.o.o.o.o.                                ",
"  $ # # # $ # # # $   $ $ # $     o.o.o.o.o.o.o.o.o.  ..  o.o.o.o.o.o.o.o.o.o.o.o.o.o.o.o.o.o.o.o.o.o.o.o.o.o.o.o.o.o.o.o.o.o.o.o.o.o.o.o.o.o.o.o.o.o.o.o.o.o.o.o.o.o.o.o.o.o.o.o.o.o.o.o.o.o.o.o.o.o.o.o.o.o.o.o.o.o.o.o.o.o.o.o.o.o.o.o.o.o.o.o.o.o.o.o.o.o.o.o.    $ # # $   $ $ # # # # # $ $   ",
"  & % % % % % % % &   & % % &   $     o.o.o.o.o.o.o.  ..  o.o.o.o.o.o.o.o.o.o.o.o.o.o.o.o.o.o.o.o.o.o.o.o.o.o.o.o.o.o.o.o.o.o.o.o.o.o.o.o.o.o.o.o.o.o.o.o.o.o.o.o.o.o.o.o.o.o.o.o.o.o.o.o.o.o.o.o.o.o.o.o.o.o.o.o.o.o.o.o.o.o.o.o.o.o.o.o.o.o.o.o.o.o.o.o.o.o.    $   % % % %   % % & & % % % % %   ",
"  > : : : : : : : :   : : : >   % # $   o.o.o.o.o.o.  X.  o.o.o.o.o.o.o.o.o.o.o.o.o.o.o.o.o.o.o.o.o.o.o.o.o.o.o.o.o.o.o.o.o.o.o.o.o.o.o.o.o.o.o.o.o.o.o.o.o.o.o.o.o.o.o.o.o.o.o.o.o.o.o.o.o.o.o.o.o.o.o.o.o.o.o.o.o.o.o.o.o.o.o.o.o.o.o.o.o.o.o.o.o.o.o.o.o.  $ $ &   > > > >   > : : : : : : : >   ",
"  2 2 , 1 1 , 1 2 2   < 2 < 2   ; & % #   o.o.o.o.o.  X.  o.o.o.o.o.o.o.o.o.o.o.o.o.o.o.o.o.o.o.o.o.o.o.o.o.o.o.o.o.o.o.o.o.o.o.o.o.o.o.o.o.o.o.o.o.o.o.o.o.o.o.o.o.o.o.o.o.o.o.X.o.o.o.o.o.o.o.o.o.o.o.o.o.o.o.o.o.o.o.o.o.o.o.o.o.o.o.o.o.o.o.o.o.o.o.o.  $ & & ;   2 2 2 2   < 2 2 1 2 1 2 2 <   ",
"  4 4 4 3 3 3 3 4 4   4 4 4 4   : ; = % # X + + X X o.X.+ X X X + + + + X X X + X X X + X X X X + X + + + + + + + X X X + + + + X X X + X X + + + + + + + X X X + + + + X X X + + + X + X X X X + X + + + + + + + X X X + + + + X X X X + X + + . X X +   $ & - ; >   4 4 3 4   4 4 4 3 3 3 3 4 4   ",
"  6 6 6 6 5 6 6 0 0   0 6 7 0   2 : : * % % % % % % % % % % % % % % % % % % % % % % % % % % % % % % % % % % % % % % % % % % % % % % % % % % % % % % % % % % % % % % % % % % % % % % % % % % % % % % % % % % % % % % % % % % % % % % % % % % % % % % % % # % ; : > 2   0 8 8 6   0 6 7 5 7 5 7 7 0   ",
"  q q q q q w w q q   w q q w   4 2 2 : : = = = * * * * = = = = * * = = = = = = = = = = = = = = = = * = = = * * = = = = = = = = = = = = * * * = = = = = = = = = * * = = = = = = = = = = * = = = = = * = = = * * = = = = = = = = = = = = * * = = = = = = % : : 1 2 4   e e e q   q q q q 9 9 9 w q   ",
"  p t t u u u u p p   p t p t   7 4 4 1 1 1 1 1 1 1 1 1 1 1 1 1 1 1 1 1 1 1 1 1 1 1 1 1 2 , 2 2 1 1 1 1 1 1 1 1 1 1 1 1 1 1 1 1 1 1 1 1 1 1 1 1 1 1 1 1 1 1 1 1 1 1 1 1 1 1 1 1 1 1 1 1 2 , 2 1 1 1 1 1 1 1 1 1 1 1 1 1 1 1 1 1 1 1 1 1 2 1 1 2 2 2 1 1 : 1 1 3 4 0   p t r r   r r u u u u u u p   ",
"  p a a d d d d a a   a a a a   q 6 7 3 3 3 3 3 3 3 3 3 3 3 3 3 3 3 3 4 3 3 3 3 3 3 3 3 3 3 3 3 3 3 3 3 3 3 4 3 3 3 3 3 3 3 4 3 3 3 3 3 3 3 3 4 3 3 3 3 3 3 3 3 3 3 3 3 3 3 3 3 3 3 3 3 4 3 3 3 3 3 3 3 3 3 4 3 3 3 3 3 3 3 4 3 3 3 3 3 4 3 4 3 4 4 3 3 1 3 3 8 6 q   p d d d   d d a a a s s s p   ",
"  c c c x x k x z z   z x k c   r q w 5 5 9 9 9 9 9 q w e e e e q w e e w e 9 9 9 9 9 9 w w w w 9 9 9 w e w e w 9 9 9 9 9 9 e w 9 9 9 9 w e w e e e w 9 9 9 9 9 q q e w w w w w e 9 9 9 w w w w 9 9 9 w e w e w 9 9 9 9 9 9 e w 9 9 9 9 q q e e w w w w 3 5 8 9 w u   c x x z   z x x k x k x c c   ",
"  n b b b b b b v n   n b b n   d t r 9 9 y y y y y u u u u u u u y u u u u u u u u u u u u u u u t u u u u u u u u u u u y y y y y u u u u u u u u u u u u u u u u u u u u u u u u u u u u u u u u u u u u u u u u u u u u u u y u u u u u u t u u u u 5 9 w u t a   m b b n   n b n b b b b n m   ",
"  m B B B B B B m C   m B V m   d d d u y h j j j j j j j j j j h h j j j h j h h h j h h h h h j h h h h j j h h j j j j j j j j j j j h j j h j j j j h h h h h h j j j j j h h j j j j h h h j j h h h j j j j j j j j j j h h h j j j h j j j j j j 9 y u a a a   N M M m   V M A M B M B M m   ",
"  K D D D D D D S C   S S D C   j j j d s k b k k x x x x k x x k k k k k k k x x k c x k k k k x x k k k k k k x k x k k k k k x k k k k k x x k k x x x k k k x x x k k k x x x k x x x k k k x x x x x k x k x k x x k k k k k k x k x x x k x k k c y s a j j j   C S S S   Z S S D A A D Z K   ",
"  K J H F H J J F K   P H H P   z c x j h B B B B B B B B B B B B B B B M M M M M M B M M M M B M M M B M B B A B n B B B B B B B B B B M B M B B B B B M B M M M M M M M B M M M B M B M M M M M M B M M M M B M M M B M M B B M B V B M B M B M M M M h j j z c c   L F J L   L G J F H H G G K   ",
"  U U Y J Y Y Y U U   U Y Y U   n n b x x D D D D D D D D D D D D D D D D D D D D D D D D D H D D D D D D D D D D D D D D D D D D D D D D H D D D D D D D D D D D D D D D D D D D D D D D D D D D D D D D D D D D H D D D D D D D D D D D D D D D D A A k k k b n n   U U U R   I I I I I I J R U   ",
"  E R R T T T T R R   E R R R   m m B b b Y T J J T J J Y Y Y Y T J J T Y J Y Y Y Y T J T J J J Y Y T J Y J Y J Y Y Y Y Y Y Y Y J T J J J J T J Y Y J Y J Y Y Y J Y Y J T J J T I I I I I I I Y Y Y Y Y J I Y Y J J J T Y Y Y Y J J T J J Y Y Y Y Y J Y b b b V V M   E T T E   R R R T T T T R E   ",
"  ~ ^ ^ ^ / ^ ^ ! ~   ~ W W (   S S S B B T T T T T T T T T T T T T T T T T T T T T T T T T T T T T T T T T T T T T T T R T R R T T T T T T T T T T T T T T T T T T T T T T T T T T T T T T T T T T T T T T T T T J R R T T T T T T T T T T T T T T T T B B B D S S   ~ ^ ^ ~   Q ! ! ^ ^ ^ ^ ! Q   ",
"  ' ( ( ( / / ( ( (   ' ( ( (   K F J D D ^ ^ ^ / / ^ ^ ^ ^ ^ ^ ^ ^ ^ ^ ^ ^ ^ / ! ^ ^ ^ ! ^ / ^ ^ ^ ^ ^ ^ ^ ^ ^ ^ ^ ^ ^ ^ ^ ^ ^ / / ^ ^ ^ ^ ^ / ^ ^ ^ ^ ^ / ^ / / / ^ ^ ^ ! ! / ^ ^ ^ ^ ^ ^ ^ / ^ ^ ! ! ^ ^ ^ / / ^ / / ^ ^ ^ ^ / / ^ ^ / ! ! ^ ^ ^ ^ ^ D D D J L K   ( ) / (   ( ( ( / / / ( ( '   ",
"  [ ] _ _ _ _ _ _ ]   [ _ _ ]   U I I H H _ / / / / ) / / / / / / _ / / / / / / _ / / / / / / / / / ) / / ) / / / / ) / ) / ) / / / ( / / / _ / / / / / / / ) / / / / / / / / / / _ / / / / _ / / / ( / / ) / / / / / _ / / / / / / _ / / / / / / / _ ( H H H Y U U   ] _ _ ]   _ { _ _ _ _ ) _ ]   ",
"  [ | ` | | | | { }   } { {  .  U Y Y Y Y ` | ` ` ` | | ` ` ` ` ` ` ` ` | | ` ` ` | | | | | | ` ` ` ` ` ` ` | | ` ` ` ` ` ` ` ` ` ` ` ` | | ` ` | | | | | | | | ` ` ` ` | | | | | | | ` | | ` ` ` ` ` ` ` ` | | ` ` ` | ` ` ` ` | ` ` ` ` ` ` ` | ` | | J Y J Y U U    .{ {  .  } | | | ` ` ` { }   ",
"  [ } } | ` | | { }   } { `  .  R R R R T ` ` ` ` ` ` ` ` ` ` ` ` ` ` ` | | | ` ` | ` ` | | ` ` ` ` ` ` | | | | ` ` ` ` ` ` ` ` | | ` | | | ` ` | ` | | | | ` ` ` ` ` ` ` | ` ` | | ` | | | ` ` ` ` ` ` | | | | ` ` ` ` ` ` | ` | ` ` ` ` | ` ` | | | | T T T T R R   } { |  .  [ { | | ` ` | [ [   ",
"  [ _ _ _ _ _ _ _ ]   ] _ ] ]   U K Y Y Y / / / / ) / / / / / _ / / / / / / _ / / / / / / _ / / ) ) / / / / / / / / / / ) / ) / / / / ) / / / / / / _ / / / / / / ) / ) / / / / / / / / / / / / ) / / ) / ) / / / _ / / / / / _ / / / / / _ / / / / / / T Y J T U U   ] _ _ [   _ _ _ _ _ _ _ _ ]   ",
"  ' / / / / / / ( (   ' ( ) '   U Y J F J / ^ ^ ^ ^ ^ ^ ^ ^ ^ ^ / ^ ^ ^ ^ ^ ^ ^ / ^ ^ ^ / ^ ^ ^ ^ ^ ^ / / ^ ^ ^ ^ ^ ^ ^ ^ ^ ^ ^ / ^ / ^ ^ ^ / ^ / ^ / / ^ ^ ^ ^ / ^ / ^ ^ ^ ^ ^ / ^ ^ ^ ^ ^ ^ ^ ^ ^ / / / ^ ^ ^ / ^ ^ / ^ ^ ^ ^ / ^ ^ ^ ^ ^ ^ ^ ^ ^ ^ / H H H H Y U   ( ( ( '   ( ( / / / / / ( '   ",
"  ~ ^ / ^ ^ ^ ^ W Q   ~ ^ ^ ~   K L S D D T T T T T T T T T T T T T T T T T T T T T T T T ^ T T T T T T T T T T T T T T T T T T T T T T T T T T T T T T T T T T T T T T T T T ^ T T T T T T T T T T T T T T T T T T J T T T T T T T T T T T T T T T T T D D D D F L   ( ^ ! ~   ~ ! ^ ^ ^ ^ ^ ! Q   ",
"  E T T T T T T R R   E R R R   S S A B B J T J J T Y Y Y J Y Y J T T J J J J T T J J J J J T J J J J T J J J T Y Y Y Y Y J Y Y Y J J Y J J T J J J T J J T J T J Y Y J J J T J J J T T J J T T J T J J T J J T J T T J J J J T J Y J Y J T T J J J J T B B B B S S   E R T R   R T T T T T R R E   ",
"  U Y Y J Y Y Y Y U   U Y Y U   V V b b b D D D D D D D D D D D D D D D D H D D D D D H D D D D D H D D H D D D D D D D D D D D D D H D D D D D D D D D D D D D D D D D D D D D D D D D D D D D D D D D D D D D D D D D D H D D H D D D D D D D D H F D b b b b V V   U Y Y U   U I Y Y I I I U U   ",
"  P H H H H H H H P   Y P H P   n n c x k B B B B B B B B B B B B B B B B B B B B B A B B B B B B B B B B B B A B B B B B B B B B B B B B B B B B B B B B B B B B B B B B B B B A B B B B B B B B B B B B B B B B B B B A B B B B B B B B B B V B V V V k k k k n n   L L G I   P J J H H F H J L   ",
"  F S D D D D S S C   S A D C   z c j h j j x k k k b k k k k k k k x x x x x x k k x x k k k k k k x k k k x x k k x x k k k x x k x k k k x x b x x x k k x k x k x k k k x x k x x x k k x x k k k b k k x x k k k k k k x b x x k k k k x x x k x x h h g h z z   F A A S   S S D D D A D D C   ",
"  m B B B B B B V m   V B B m   l j d d t j j j j h h h h h j j j j j j j j j j j j j l j j j j h j j j j j j j j j j j j j j j j j j j j j j j j j j j j j h j j j j j j j j j j j j j j h h j h h j j j j l j j h j h h j j j j j j j j j j j j j j j y u s d z j   N N M m   m V B B B B B B m   ",
"  n n n b b v n n n   n v v m   d d u u w u u y y u u u y u u u y y y y u y y y y y y y y u y y u u u u y y y u u y u u u u y u y y u y u u u u y y u y y y u u y y u u y u u u u y u y y y u u y y y y y y r u u y u u y y y y y y y y y u u y y y y u 9 9 u u a a   n v b n   n n b b b b b v m   ",
"  c c x x k x x c v   c x x z   p r e w 5 9 9 9 9 e e e q q q q e e 9 e e e e e e e e e e e e e w w w e e e 9 9 9 e 9 e e e e e e e e e e e q e 9 e e e e w e q e e e e e e e q 9 e e e e w e q q e e e e e e e 9 9 9 9 e e e 9 9 9 9 9 9 e e e w e w w 7 7 e e p i   c x c c   c x x x k k k x z   ",
"  f d a d a s d a p   a d a f   q q 8 7 3 3 3 3 3 3 4 4 3 4 4 4 4 4 4 4 3 3 4 3 3 3 4 4 4 4 4 4 4 4 3 3 3 3 3 3 4 4 4 4 4 3 4 4 4 4 3 3 3 3 4 3 4 3 4 3 4 3 3 4 4 4 3 3 3 3 3 3 4 3 4 3 3 3 3 3 3 3 4 3 4 3 4 4 3 3 3 3 3 3 3 3 3 4 3 3 3 3 4 4 3 3 4 3 3 3 7 6 q q   p d d f   p a d d a a d d a   ",
"  p p t u u r p t t   p t r r   7 8 3 3 1 1 1 1 1 1 1 1 1 1 2 1 2 1 2 1 1 1 1 1 1 1 1 2 1 1 1 1 2 1 1 1 1 1 1 1 1 1 1 1 1 1 2 1 1 1 1 1 1 1 1 1 1 1 1 1 1 1 1 1 1 1 1 1 1 1 1 1 1 1 1 1 1 1 1 1 1 1 1 1 1 1 1 1 1 1 1 1 1 1 1 1 1 1 1 1 1 1 1 1 1 1 1 1 1 1 4 4 6 0   p u r p   p p t u y u u t p   ",
"  q q q e 9 e e q q   q e e q   4 3 1 1 : = = = ; ; ; ; ; ; ; ; ; = ; = = = = = = = = = ; = ; = = = = = * * = = = = = = ; = ; = ; = ; = = = = = = = = = = = * = ; = ; = = = = = = = = ; * = = = * * ; = = = ; = = = = = * * ; = = = = = = = = = * * = * : : 1 1 4 4   q e e q   w q w e 9 9 9 q w   ",
"  0 6 8 8 8 6 6 7 7   0 0 6 0   2 2 : : * % % % & & % % % % % % % % % % % % % % % % % % % % % % % % % % % % % % % % % % % % % % % % & % % % % % % % % % % % % % % % % % % % % % % % % % % % % % % % % % % % % % % % % % % % % % % % % % % % % % % % % % % = : : 2 2   0 6 6 0   8 7 7 5 5 6 7 7 0   ",
"  4 4 4 3 3 4 3 4 4   4 4 4 4   > > ; ; % + X X X + + X + + X + o X X X + X X X + + X X X + + o X X X + + + X X + X X X + X X X + + X X X + o o + + X + + X X X + O + X + + + X + + X + + X X X + + + + + + X X + X + + X X X + X X X . X + X X + + X + # % = = : :   4 4 4 4   4 3 3 3 4 3 3 4 4   ",
"  2 2 1 1 1 , 1 < <   < 1 < 2   ; - % % # + o.o.o.o.o.o.o.o.o.o.o.o.o.o.o.o.o.o.o.o.o.o.o.o.o.o.o.o.o.o.o.o.o.o.o.o.o.o.o.o.o.o.o.o.o.o.o.o.o.o.o.o.o.o.o.o.o.o.o.o.X.o.o.o.o.o.o.o.o.o.o.o.o.o.o.o.o.o.o.o.o.o.o.o.o.o.o.o.o.o.o.o.o.o.o.o.o.o.o.o.o.o.  # % % ; -   2 2 1 2   2 1 2 1 1 1 2 2 2   ",
"  > : : : : : : > >   > : > >   - & $ #   o.o.o.o.o.o.o.o.o.o.o.o.o.o.o.o.o.o.o.o.o.o.o.o.o.o.o.o.o.o.o.o.o.o.o.o.o.o.o.o.o.o.o.o.o.o.o.o.o.o.o.o.o.o.o.o.o.o.o.o.o.o.o.o.o.o.o.o.o.o.o.o.o.o.o.o.o.o.o.o.o.o.o.o.o.o.o.o.o.o.o.o.o.o.  o.[   o.o.o.o.o.o.  # # & -   > : : :   : : : : : : : : >   ",
"  & % % % % % % % %   & % % %   & $     o.o.o.o.o.o.o.o.o.o.o.o.o.o.o.o.o.o.o.o.o.o.o.o.o.o.o.o.o.o.o.o.o.o.o.o.o.o.o.o.o.o.o.o.o.o.o.o.o.o.o.o.o.o.o.o.o.o.o.o.o.o.o.o.o.o.o.o.o.o.o.o.o.o.o.o.o.o.o.o.o.o.o.o.o.o.o.o.o.o.o.o.o.o.o.  o.[   o.o.o.o.o.o.o.    # &   % % % %   % % % % % % % % &   ",
"  $ $ # # # # # # #   $ # # $   $   o.o.o.o.o.o.o.o.o.o.o.o.o.o.o.o.o.o.o.o.o.o.o.o.o.o.o.o.o.o.o.o.o.o.o.o.o.o.o.o.o.o.o.o.o.o.o.o.o.o.o.o.o.o.o.o.o.o.o.o.o.o.o.o.o.o.o.o.o.o.o.o.o.o.o.o.o.o.o.o.o.o.o.o.o.o.o.o.o.o.o.o.o.o.o.o.o.  o...  o.o.o.o.o.o.o.o.o.  $   # # # $   $ $ # # # # # # $   ",
"  @ . + . + + . + +   O + . O     o.o.o.o.o.o.o.o.o.o.o.o.o.o.o.o.o.o.o.o.o.o.o.o.o.o.o.o.o.o.o.o.o.o.o.o.o.o.o.o.o.o.o.o.o.o.o.o.o.o.o.o.o.o.o.o.o.o.o.o.o.o.o.o.o.o.o.o.o.o.o.o.o.o.o.o.o.o.o.o.o.o.o.o.o.o.o.o.o.o.o.o.o.o.o.o.o.o.  o...  o.o.o.o.o.o.o.o.o.o.    @ + + +   + + + + + . . . @   ",
"                                o.o.o.o.o.o.o.o.o.o.o.o.o.o.o.o.o.o.o.o.o.o.o.o.o.o.o.o.o.o.o.o.o.o.o.o.o.o.o.o.o.o.o.o.o.o.o.o.o.o.o.o.o.o.o.o.o.o.o.o.o.o.o.o.o.o.o.o.o.o.o.o.o.o.o.o.o.o.o.o.o.o.o.o.o.o.o.o.o.o.o.o.o.o.o.o.o.o.  o.o.o.  o.o.o.o.o.o.o.o.o.o.o.                  o.o.          ",
"o.o.o.o.o.o.o.o.o.o.o.o.o.o.o.o.o.o.o.o.o.o.o.o.o.o.o.o.o.o.o.o.o.o.o.o.o.o.o.o.o.o.o.o.o.o.o.o.o.o.o.o.o.o.o.o.o.o.o.o.o.o.o.o.o.o.o.o.o.o.o.o.o.o.o.o.o.o.o.o.o.o.o.o.o.o.o.o.o.o.o.o.o.o.o.o.o.o.o.o.o.o.o.o.o.o.o.o.o.o.o.o.o.o.o.o.o.o.o.o.o.o.o.o.o.o.o.o.o.o.o.o.o.o.o.o.o.o.o.  o.  o.o.o.o.",
"o.o.o.o.o.o.o.o.o.o.o.o.o.o.o.o.o.o.o.o.o.o.o.o.o.o.o.o.o.o.o.o.o.o.o.o.o.o.o.o.o.o.o.o.o.o.o.o.o.o.o.o.o.o.o.o.o.o.o.o.o.o.o.o.o.o.o.o.o.o.o.o.o.o.o.o.o.o.o.o.o.o.o.o.o.o.o.o.o.o.o.o.o.o.o.o.o.o.o.o.o.o.o.o.o.o.o.o.o.o.o.o.o.o.o.o.o.o.o.o.o.o.o.o.o.o.o.o.o.o.o.o.o.o.o.o.o.o.o.  o.  o.o.o.o.",
"o.o.o.o.o.o.o.o.o.o.o.o.o.o.o.o.o.o.o.o.o.o.o.o.o.o.o.o.o.o.o.o.o.o.o.o.o.o.o.o.o.o.o.o.o.o.o.o.o.o.o.o.o.o.o.o.o.o.o.o.o.o.o.o.o.o.o.o.o.o.o.o.o.o.o.o.o.o.o.o.o.o.o.o.o.o.o.o.o.o.o.o.o.o.o.o.o.o.o.o.o.o.o.o.o.o.o.o.o.o.o.o.o.o.o.o.o.o.o.o.o.o.o.o.o.o.o.o.o.o.o.o.o.o.o.o.o.o.o.  o.  o.o.o.o.",
"o.o.o.o.o.o.o.o.o.o.o.o.o.o.o.o.o.o.o.o.o.o.o.o.o.o.o.o.o.o.o.o.o.o.o.o.o.o.o.o.o.o.o.o.o.o.o.o.o.o.o.o.o.o.o.o.o.o.o.o.o.o.o.o.o.o.o.o.o.o.o.o.o.o.o.o.o.o.o.o.o.o.o.o.o.o.o.o.o.o.o.o.o.o.o.o.o.o.o.o.o.o.o.o.o.o.o.o.o.o.o.o.o.o.o.o.o.o.o.o.o.o.o.o.o.o.o.o.o.o.o.o.o.o.o.o.o.o.o.  o.  o.o.o.o.",
"o.o.o.o.o.o.o.o.o.o.o.o.o.o.o.o.o.o.o.o.o.o.o.o.o.o.o.o.o.o.o.o.o.o.o.o.o.o.o.o.o.o.o.o.o.o.o.o.o.o.o.o.o.o.o.o.o.o.o.o.o.o.o.o.o.o.o.o.o.o.o.o.o.o.o.o.o.o.o.o.o.o.o.o.o.o.o.o.o.o.o.o.o.o.o.o.o.o.o.o.o.o.o.o.o.o.o.o.o.o.o.o.o.o.o.o.o.o.o.o.o.o.o.o.o.o.o.o.o.o.o.o.o.o.o.o.o.o.    o.    o.o.o."
};
