/* XPM */
static char * htrixist_htrixist_g_hs_2[] = {
"133 50 267 2",
"  	c None",
". 	c #000000",
"+ 	c #000100",
"@ 	c #F6F8EB",
"# 	c #000200",
"$ 	c #F6F8EA",
"% 	c #010100",
"& 	c #F6F6EC",
"* 	c #010000",
"= 	c #4A4945",
"- 	c #4B4A45",
"; 	c #4B4B43",
"> 	c #4A4B46",
", 	c #F9F7E8",
"' 	c #595853",
") 	c #595951",
"! 	c #59594F",
"~ 	c #585953",
"{ 	c #3B3C37",
"] 	c #FFFEEC",
"^ 	c #F9F8E6",
"/ 	c #65645F",
"( 	c #65655B",
"_ 	c #65655D",
": 	c #64655F",
"< 	c #4A4944",
"[ 	c #3C3B36",
"} 	c #FFFFEB",
"| 	c #F9F8E4",
"1 	c #717169",
"2 	c #717167",
"3 	c #717165",
"4 	c #727266",
"5 	c #707169",
"6 	c #727268",
"7 	c #4A4A42",
"8 	c #3B3C36",
"9 	c #F6F7E7",
"0 	c #86867E",
"a 	c #86867A",
"b 	c #868779",
"c 	c #85867E",
"d 	c #3C3C34",
"e 	c #3C3B37",
"f 	c #3B3A36",
"g 	c #3C3D38",
"h 	c #8E8E86",
"i 	c #8E8E82",
"j 	c #8E8F81",
"k 	c #8E8F7F",
"l 	c #8D8E86",
"m 	c #8D8F84",
"n 	c #4A4B43",
"o 	c #4A4B45",
"p 	c #010200",
"q 	c #98988E",
"r 	c #98998B",
"s 	c #989989",
"t 	c #97998E",
"u 	c #66665C",
"v 	c #64665B",
"w 	c #A0A096",
"x 	c #A0A193",
"y 	c #A0A191",
"z 	c #A1A292",
"A 	c #9FA196",
"B 	c #A1A294",
"C 	c #7C7C70",
"D 	c #7C7C72",
"E 	c #7D7D71",
"F 	c #7B7D70",
"G 	c #7C7C74",
"H 	c #B1B1A7",
"I 	c #B3B1A2",
"J 	c #B3B2A0",
"K 	c #B1B2A0",
"L 	c #B1B2A2",
"M 	c #B0B2A5",
"N 	c #7C7D6F",
"O 	c #908E81",
"P 	c #8F9082",
"Q 	c #8D8E80",
"R 	c #8E8E84",
"S 	c #B8B8AC",
"T 	c #BAB8A9",
"U 	c #BAB9A7",
"V 	c #B8B9A7",
"W 	c #B8B9A9",
"X 	c #B7B9AC",
"Y 	c #010300",
"Z 	c #9A9889",
"` 	c #C0C0B4",
" .	c #C2C0B1",
"..	c #C2C1AD",
"+.	c #C0C1AF",
"@.	c #C2C1AF",
"#.	c #C0C1B1",
"$.	c #020200",
"%.	c #AAAB99",
"&.	c #A9AA98",
"*.	c #A9AA9A",
"=.	c #AAAB9B",
"-.	c #A9A99F",
";.	c #C7C7BB",
">.	c #C9C8B6",
",.	c #C9C8B4",
"'.	c #C7C8BA",
").	c #A9AA9C",
"!.	c #989987",
"~.	c #B7B9A4",
"{.	c #B8BAA5",
"].	c #B9BAA8",
"^.	c #999A8A",
"/.	c #D5D5C9",
"(.	c #D6D5C3",
"_.	c #D7D6C1",
":.	c #D8D7C2",
"<.	c #D6D5C0",
"[.	c #D7D6C2",
"}.	c #D5D6C8",
"|.	c #D7D6C4",
"1.	c #B2B3A3",
"2.	c #A0A18F",
"3.	c #C2C1AC",
"4.	c #C1C0AC",
"5.	c #C0C1B3",
"6.	c #DBDCCE",
"7.	c #DDDCCA",
"8.	c #DDDCC7",
"9.	c #DEDDC8",
"0.	c #DDDDC5",
"a.	c #DDDCC8",
"b.	c #020300",
"c.	c #AAAC97",
"d.	c #D0CFBA",
"e.	c #D0CFBB",
"f.	c #D1CEBB",
"g.	c #D1D0BC",
"h.	c #D1D0BE",
"i.	c #CECFC1",
"j.	c #C7C8B6",
"k.	c #C7C9B4",
"l.	c #B7B8A6",
"m.	c #87887A",
"n.	c #E0E1D3",
"o.	c #E2E1CF",
"p.	c #E2E1CC",
"q.	c #E2E2CA",
"r.	c #E2E1CD",
"s.	c #BBBAA8",
"t.	c #B1B39E",
"u.	c #DCDBC6",
"v.	c #DCDDCF",
"w.	c #C9C8B3",
"x.	c #BBBAA6",
"y.	c #A1A290",
"z.	c #4A4C41",
"A.	c #E6E7D9",
"B.	c #E8E7D3",
"C.	c #E8E7D2",
"D.	c #E8E8D0",
"E.	c #E9E9D1",
"F.	c #C0C2AD",
"G.	c #E9E8D3",
"H.	c #E7E6D1",
"I.	c #C8C7B3",
"J.	c #3A3B33",
"K.	c #F3F4E6",
"L.	c #F4F3DF",
"M.	c #F4F4DC",
"N.	c #F2F3E5",
"O.	c #CAC9B7",
"P.	c #EEEDD8",
"Q.	c #EEEED6",
"R.	c #EFEFD7",
"S.	c #EDEDD5",
"T.	c #EEEDD9",
"U.	c #ECEDDF",
"V.	c #656559",
"W.	c #3B3C34",
"X.	c #F7F8E8",
"Y.	c #F9F8E3",
"Z.	c #F9F9E1",
"`.	c #FAFAE2",
" +	c #F8F8E0",
".+	c #F7F8EA",
"++	c #D0CFBD",
"@+	c #FAF9E4",
"#+	c #F9F9DF",
"$+	c #FDFEEE",
"%+	c #FFFEE9",
"&+	c #FFFFE5",
"*+	c #FFFFE7",
"=+	c #FFFEEA",
"-+	c #FDFEF0",
";+	c #FDFFE5",
">+	c #FDFFE7",
",+	c #FDFEEC",
"'+	c #FEFFEF",
")+	c #B0B3A0",
"!+	c #FAFAE0",
"~+	c #F7FADF",
"{+	c #F7F9E1",
"]+	c #030200",
"^+	c #FFFFF3",
"/+	c #FFFFF1",
"(+	c #FFFFED",
"_+	c #F6F8E0",
":+	c #F8FBE0",
"<+	c #F3F4E4",
"[+	c #F4F3DE",
"}+	c #F5F5DD",
"|+	c #F3F2DE",
"1+	c #EDEEDE",
"2+	c #AFB29F",
"3+	c #E6E7D7",
"4+	c #E9E8D4",
"5+	c #E0E1D1",
"6+	c #9FA090",
"7+	c #868777",
"8+	c #707163",
"9+	c #CECEC2",
"0+	c #D4D4C8",
"a+	c #707064",
"b+	c #CAC9B4",
"c+	c #C9C7B8",
"d+	c #C0C0B6",
"e+	c #9EA190",
"f+	c #ACAA9B",
"g+	c #ABAA98",
"h+	c #A8AA9F",
"i+	c #BAB9A5",
"j+	c #B9B8A6",
"k+	c #B8B8AE",
"l+	c #979A89",
"m+	c #B1B2A4",
"n+	c #B1B1A5",
"o+	c #B3B1A4",
"p+	c #B0B2A7",
"q+	c #98988C",
"r+	c #858678",
"s+	c #3A3B36",
"t+	c #9FA098",
"u+	c #9FA092",
"v+	c #99998F",
"w+	c #97978B",
"x+	c #727365",
"y+	c #64645A",
"z+	c #8D8D81",
"A+	c #646458",
"B+	c #4C4C44",
"C+	c #4B4B41",
"D+	c #4B4A46",
"E+	c #020100",
"F+	c #86867C",
"G+	c #58584E",
"H+	c #3A3B35",
"I+	c #282924",
"J+	c #65665E",
"K+	c #64655D",
"L+	c #F9F7EA",
"M+	c #595854",
"N+	c #292826",
"O+	c #292823",
"P+	c #272823",
"Q+	c #292824",
"R+	c #282826",
"    . + @ @ +                                                                                                                                                                                                                                                             ",
"        # $ +                                                                                                                                                                                                                                                             ",
"        % & +                                                                                                                                                                                                                                                             ",
"        %   .                                                                                                                                                                                                                                                             ",
"        *   .                                                                                                                                                                                                                                                             ",
". . . +     + . . . . . . . . .                                                                                                     +       +                                                                                                                             ",
"* = - - ; ; ; ; - - + > - - > . .                                                                                                     *   , *                                                                                                                             ",
"* ' ) ) ) ! ! ! ) ) + ~ ) ) ~ + { +                                                                                                   * ] ^ *                                                                                                                             ",
"* / ( ( ( ( ( ( _ _ + : _ _ : + < [ .                                                                                                 * } | *                                                                                             .                               ",
"* 1 2 3 3 3 3 4 2 2 + 5 6 2 5 + ) 7 8 +                                                                                               +   9 +                                                                                             .                               ",
"* 0 a b b b b b b a + c a a c + ) ! ) d [ e 8 8 e e 8 8 e e 8 8 e e 8 8 e e 8 8 e e 8 8 e e 8 8 e e 8 8 e [ 8 8 e e 8 8 e e 8 8 e e {       8 8 e e 8 8 e e 8 8 e e 8 8 e e 8 8 e e 8 8 e e 8 8 e e 8 8 e e 8 8 e e 8 8 e e 8 8 e f 8 8 g + 8 {                           ",
"* h i j j j j j k j + l i i m + ( ( ! ! ; ; n n ; ; n n ; ; n n ; ; n n ; ; n n ; ; n n ; ; n n ; ; n n ; ; n n ; ; n n ; ; n n ; ; n n - < n n ; ; n n ; ; n n ; ; n n ; ; n n ; ; n n ; ; n n ; ; n n ; ; n n ; ; n n ; ; n n ; ; n n o p n n { { { {                   ",
"* q r s s s s s s r # t r r t + 2 3 ( ( ( ( ( ( ( ( ( ( ( ( ( ( ( ( ( ( ( ( ( ( ( ( ( ( ( ( ( ( ( ( ( ( ( ( ( ( _ _ ( ( ( ( ( ( ( u v v _ ( ( ( ( ( ( ( ( ( ( ( ( ( ( ( ( ( ( ( ( ( ( ( ( ( ( ( ( ( ( ( ( ( ( ( ( ( ( ( ( ( ( ( ( ( ( ( / * ( ( ; - - - {                 ",
"* w x y y z y z y x # A B x A # C C 3 3 D C C C C C C C C C C C C C C C C C C C C C C C C C C C C C C C C C C C D D C C C C C C C E F F E C C C C C C C C C C C C C C C C C C C C C C C C C C C C C C C C C C C C C C C C C C C C C C C G % 3 3 u ( _ ; o 8 {             ",
"* H I J K K K K K L # M L L M # a b N N i j j j j j j j j j O O j j j j j j j j j j j j j j O O j j j j j j j j j j j j j j O O P j Q j j j j j j j j j j j O O j j j j j j j j j j j j j j O O j j j j j j j j j j j j j j j j j Q j j R % b b 3 3 2 ( ( ; - [           ",
"* S T U V V V V V W % X W W S Y r j b b s s s s s s s s s s Z Z s s s s s s s s s s s s s s Z Z s s s s s s s s s s s s s s Z Z s s s s r s s s s s s s s s Z Z s s s s s s s s s s s s s s Z Z s s s s s s s s s s s s s s s s s s s r q % r s b b a 3 3 ( ; ; {         ",
"% `  .............+.% ` @.#.` $.x s s k %.%.&.&.&.&.&.&.&.&.&.&.&.&.&.&.&.&.&.&.&.&.&.&.&.&.&.&.&.&.&.&.&.&.&.&.&.&.&.&.&.&.&.&.&.&.&.&.*.=.*.&.&.&.&.&.&.&.&.&.&.&.&.&.&.&.&.&.&.&.&.&.&.&.&.&.&.&.&.&.&.&.&.&.&.&.&.&.&.&.&.&.&.&.&.*.-.% y y s s b b 3 3 ( 7 - e       ",
"% ;.>.,.,.,.,.,.,.>.% '.>.>.;.% ).y y !.~.{.V V V V V V V V V V V V V V V V V V V V V V V V V V V V V V V V V V V V V V V V ].].V V V V V V V V V V V V V V V V V V V V V V V V V V V V V V V V V V V V V V V V V V V V V V V V V V V W S % L K y y ^.s b a 3 ( ; [       ",
"% /.(._.:._._.<._.[.p }.|.|.}.% 1.&.&.2...3.............@.@...............................4...............................................4...............................................4.........................4.4...............@.5.p V {.K K y y s b 3 2 _ - 8     ",
"% 6.7.8.9.8.0.0.8.a.b.6.a.a.6.p L K K c.d.d.e.e.d.d.e.e.e.e.e.e.e.e.e.e.e.e.e.e.d.d.e.e.e.e.f.f.d.d.e.e.e.e.e.e.d.d.e.e.e.e.f.f.d.d.e.e.e.e.e.e.d.d.e.e.e.e.f.f.d.d.e.e.e.e.e.e.d.d.e.e.e.e.f.f.d.d.e.e.e.e.e.e.e.e.e.e.e.e.e.e.g.e.e.h.i.p j.k.l.V L y y s m.3 ( ; n 8   ",
"% n.o.p.p.p.q.q.p.r.p n.r.r.n.p T s.t.t.8.8.8.8.8.8.8.8.8.8.8.8.8.8.8.8.8.8.8.8.8.8.8.8.8.8.8.8.8.8.8.8.8.8.8.8.8.8.8.8.8.8.8.8.8.8.8.8.8.8.8.8.8.8.8.8.8.8.8.8.8.8.8.8.8.8.8.8.8.8.8.8.8.8.8.8.8.8.8.8.8.8.9.8.8.8.8.8.8.8.u.8.8.8.8.7.v.p |.w.,.x.V K y.s b a 2 ( z.8   ",
"$.A.B.C.C.C.D.E.C.B.p A.B.B.A.p  .@.F.F.C.C.C.C.C.C.C.C.C.C.C.C.D.D.C.C.G.C.C.C.C.C.C.C.C.C.C.C.C.C.G.C.C.C.C.C.H.H.C.C.C.C.C.C.C.C.C.C.C.C.C.C.C.C.G.C.C.C.C.C.H.H.C.C.C.C.C.C.C.C.C.C.C.C.C.C.C.C.G.C.C.C.D.E.C.C.C.C.C.C.C.C.C.C.C.B.A.p a._.[.I.V V K 2.s b 3 ( z.J.  ",
"% K.L.M.M.M.M.M.M.L.p N.L.L.N.% O.,.,.,.P.Q.Q.Q.Q.Q.Q.Q.Q.Q.Q.Q.Q.Q.Q.Q.Q.Q.Q.Q.Q.Q.Q.Q.Q.Q.Q.Q.R.Q.R.Q.R.Q.Q.Q.Q.S.Q.S.Q.Q.Q.Q.Q.Q.Q.Q.Q.Q.Q.Q.R.Q.R.Q.R.Q.Q.Q.Q.S.Q.S.Q.Q.Q.Q.Q.Q.Q.Q.Q.Q.Q.Q.R.Q.R.Q.R.Q.Q.Q.R.Q.Q.Q.Q.Q.Q.Q.Q.Q.Q.T.U.p B.8.8.<.k.{.K 2.s b 3 V.z.W.  ",
"% X.Y.Z.`.Z.Z.Z. +Y.p X.| | .+p ++e.e.d.Z.Z.Z.Z.Z.Z.Z.Z.Z.Z.Z.Z.@+Y.Y.Y.Y.Y.Y.Y.Y.Y.Y.Y.Y.Y.Y.Y.Y.Y.Y.Y.Y.Y.@+Y.Y.Y.Y.Y.Y.Y.Y.Y.Y.Y.Y.Y.Y.Y.Y.Y.Y.Y.Y.Y.Y.Y.@+Y.Y.Y.Y.Y.Y.Y.Y.Y.Y.Y.Y.Y.Y.Y.Y.Y.Y.Y.Y.Y.Y.Y.Y.Z.Z.Z.#+#+Z.Z.Z.Z.Z.Z.`.Y.X.p T.C.8._.k.{.V K y s a 3 v n { ",
"% $+%+&+*+*+&+&+*+%+p $+=+=+-+p [._._._.*+*+&+&+*+*+&+&+&+&+;+>+=+] ,+$+$+$+$+$+$+'+$+$+$+$+$+$+$+$+$+$+$+$+$+$+$+$+$+$+$+$+$+$+$+'+$+$+$+$+$+$+$+$+$+$+$+$+$+$+$+$+$+$+$+$+$+$+$+'+$+$+$+$+$+$+$+$+$+$+$+$+=+%+*+*+;+;+*+*+&+&+*+*+&+%+$+p T.R.C.8._.k.V )+y s a 3 ( ; { ",
"% X.Y.#+ +Z.Z.!+Z.| p .+| | .+p [._._._.Y.Z.Z.#+Z.Z.Z.#+#+#+~+{+| ]+p p ^+/+/+p p p /+/+^+p p p ^+/+/+p p p /+/+^+p p p ^+/+/+p p p /+/+^+p p p ^+/+/+p p p /+/+^+p p p ^+/+/+p p p /+/+^+p p p ^+/+/+p p p (+Y.Y.Z._+:+ +Z.Z.Z.Z.Z.Z.Y.X.p | Q.C.8.<.k.V )+y s b 3 ( ; { ",
"% <+[+M.[+M.}+M.[+L.p N.L.|+N.p ++e.e.d.P.Q.Q.Q.P.Q.Q.Q.Q.Q.Q.Q.P.P.P.P.T.T.T.P.T.T.T.P.T.T.T.P.T.T.T.P.T.T.T.P.T.T.T.P.T.T.T.P.T.T.T.P.T.T.T.P.T.T.T.P.T.T.T.P.T.T.T.P.T.T.T.P.T.T.T.P.T.T.T.P.T.T.T.P.T.T.P.P.P.Q.Q.Q.P.Q.Q.Q.P.P.Q.P.1+p T.Q.C.8.[.k.V 2+y.s b 3 ( ; { ",
"$.3+B.D.C.C.E.D.C.B.p A.B.B.A.p >.,.,.,.G.C.C.D.C.C.C.D.C.C.C.D.C.C.C.D.C.C.C.D.C.C.C.D.C.C.C.D.C.C.C.D.C.C.C.D.C.C.C.D.C.C.C.D.C.C.C.D.C.C.C.D.C.C.C.D.C.C.C.D.C.C.C.D.C.C.C.D.C.C.C.D.C.C.C.D.C.C.C.D.C.C.C.D.C.C.C.D.C.C.C.C.4+B.C.B.A.p T.D.8._.,.{.V )+2.s b 3 ( ; { ",
"% 5+r.q.p.p.p.p.p.r.p n.r.r.n.p  .@.F.F.a.8.8.8.a.8.8.8.a.8.8.8.a.8.8.8.a.8.8.8.a.8.8.8.a.8.8.8.a.8.8.8.a.8.8.8.a.8.8.8.a.8.8.8.a.8.8.8.a.8.8.8.a.8.8.8.a.8.8.8.a.8.8.8.a.8.8.8.a.8.8.8.a.8.8.8.a.8.8.8.a.8.8.8.a.8.8.8.a.8.8.8.a.a.8.a.6.p B.8.8._.k.V L 6+s 7+8+V.z.8   ",
"% 6.a.0.8.8.8.8.8.a.p 6.7.a.6.p T U t.t.g.e.e.d.e.e.e.d.e.e.e.d.e.e.e.d.e.e.e.d.e.e.e.d.e.e.e.d.e.e.e.d.e.e.e.d.e.e.e.d.e.e.e.d.e.e.e.d.e.e.e.d.e.e.e.d.e.e.e.d.e.e.e.d.e.e.e.d.e.e.e.d.e.e.e.d.e.e.e.d.e.e.e.d.e.e.e.d.e.e.e.d.e.e.e.++9+% 7._._.,.V V L y s b 3 ( n 8   ",
"% }.[._.[.[._._.[.|.% }.(.|.0+% L K K &.@...F.F.@...F.F.@...F.F.@...F.F.@...F.F.@...F.F.@...F.F.@...F.F.@...F.F.@...F.F.@...F.F.@...F.F.@...F.F.@...F.F.@...F.F.@...F.F.@...F.F.@...F.F.@...F.F.@...F.F.@...F.F.@...F.F.@...F.F.@.4.F.+.` % |.,.,.U V K y s b m.a+( n 8   ",
"% '.>.b+,.,.,.w.,.>.% ;.>.>.;.% L &.&.2.U U V {.U U V {.U U V {.U U V {.U U V {.U U V {.U U V {.U U V {.U U V {.U U V {.U U V {.U U V {.U U V {.U U V {.U U V {.U U V {.U U V {.U U V {.U U V {.U U V {.U U V {.U U V {.U U V {.s.U ].V S % c+,.U U K 2.y r b 3 ( ; n {   ",
"% 5.@...@.......@. .% `  . .d+% ).y e+s f+g+&.&.*.&.&.&.*.&.&.&.*.&.&.&.*.&.&.&.*.&.&.&.*.&.&.&.*.&.&.&.*.&.&.&.*.&.&.&.*.&.&.&.*.&.&.&.*.&.&.&.*.&.&.&.*.&.&.&.*.&.&.&.*.&.&.&.*.&.&.&.*.&.&.&.*.&.&.&.*.&.&.&.*.&.&.&.*.&.&.&.*.&.&.*.h+# W ].L L y y r b 3 2 u ; {     ",
"% S T i+U j+U x.U W % S T T k+% x s l+k s Z s s s s s s s s s s s s s s s s s s s s s s s s s s s s s s s s s s s s s s s s s s s s s s s s s s s s s s s s s s s s s s s s s s s s s s s s s s s s s s s s s s s s s s s s ^.s s s s r t # m+K y y s s m.a 2 _ ; [       ",
"* n+L K L K K K L m+% H o+m+p+# q+j b b j P j j j j j j j j j j j j j j j j j j j j j j j j j j j j j j j j j j j j k k i i j j j j j j j j j j j j j j j j j j j j j j j j j j j j j j j j j j j j j j j j j j j j k k j j j j j j j i h % x y r r r+b 4 3 ( ; o s+      ",
"* w y 2.y y y 2.y x + t+x u+A # a b N N C C C C C C C C C C C C C C C C C C C C C C C C C C C C C C C C C C C C C C N N D D C E C C C C C C C C C C C C C C C C C C C C C C C C C C C C C C C C C C C C C C C C C C N N C C C C C C C C G % q+r r+b a 3 3 ( ; - {         ",
"* v+s !.s s s s r w+# t q+q+t # C C x+3 ( _ ( ( ( ( ( ( ( ( ( ( ( ( ( ( ( ( ( ( ( ( ( ( ( ( ( ( ( ( ( ( ( ( ( ( ( ( ( ( ( ( y+( ( ( ( ( ( ( ( u ( ( ( ( ( ( ( ( ( ( ( ( ( ( ( ( ( ( ( ( ( ( ( ( ( ( ( ( ( ( ( ( ( ( V.V.( ( ( ( ( ( ( ( / % a b 3 3 2 ( ( ; 8 {           ",
"* R P k j j j k j i + m z+i l + 2 3 V.A+; - ; ; - ; ; ; - ; ; ; - ; ; ; - ; ; ; - ; ; ; - ; ; ; - ; ; ; - ; ; ; - ; ; ; - ; ; ; - ; B+; ; ; ; ; - ; ; ; - ; ; ; - ; ; ; - ; ; ; - ; ; ; - ; ; ; - ; ; ; - ; ; ; - ; C+C+; ; ; ; - ; ; ; D+* 2 3 ( ( _ ; ; [ {             ",
"E+0 a b b b b b a a + c F+a c + y+( G+! 8 { 8 8 { { { 8 { { { 8 { { { 8 { { { 8 { { { 8 { { { 8 { { { 8 { { { 8 { { { 8 { { { 8 { { 8 8 { { { 8 s+{ { 8 { { { 8 { { { 8 { { { 8 { { { 8 { { { 8 { { { 8 { { { 8 { { 8 8 { { { H+{ s+{ { s++ _ ( ; ; o 8 {                 ",
"* 1 3 3 3 3 3 3 3 6 + 5 2 2 5 + ) ! ) [ I+                                                                                                                                                                                                + - ; [ e s+{                   ",
"* / ( ( ( ( ( y+( ( + J+( ( K++ ) ; 8 +                                                                                               *   L+*                                                                                             . { {                           ",
"* M+) ! ) ! ) ! ! ) + ~ ) ) ~ + - [ %                                                                                                 * ] ^ *                                                                                             .                               ",
"* D+o n - ; o n ; ; + > - - o p { .                                                                                                   * ] ^ *                                                                                             .                               ",
"* N+I+I+O+O+P+I+O+Q+. R+Q+Q+I+. .                                                                                                     +   .++                                                                                                                             ",
". . . .     . . . . . . * * . .                                                                                                     .       .                                                                                                                             ",
"        *   .                                                                                                                                                                                                                                                             ",
"        %   .                                                                                                                                                                                                                                                             ",
"        %   .                                                                                                                                                                                                                                                             ",
"        *   .                                                                                                                                                                                                                                                             ",
"      . +   .                                                                                                                                                                                                                                                             "};
