/* XPM */
static char *htrixist_htrixist_gen_ht[] = {
/* columns rows colors chars-per-pixel */
"85 53 104 2",
"   c #010100",
".  c #262623",
"X  c #272822",
"o  c #282723",
"O  c #282824",
"+  c #282828",
"@  c #3B3B36",
"#  c #3B3B38",
"$  c #4A4A44",
"%  c #57574F",
"&  c #57594E",
"*  c #58584E",
"=  c #575851",
"-  c #585851",
";  c #64645C",
":  c #656560",
">  c #6F6F63",
",  c #6F7062",
"<  c #6F7068",
"1  c #726F66",
"2  c #706F6A",
"3  c #707065",
"4  c #707069",
"5  c #7B7C6E",
"6  c #7C7C71",
"7  c #85867C",
"8  c #87887A",
"9  c #8E8F7F",
"0  c #858580",
"q  c #878880",
"w  c #8D8E82",
"e  c #8E9081",
"r  c #939385",
"t  c #97978D",
"y  c #979886",
"u  c #96988B",
"i  c #989987",
"p  c #98988B",
"a  c #979891",
"s  c #9A9A92",
"d  c #9FA08E",
"f  c #9EA094",
"g  c #9FA098",
"h  c #A0A18F",
"j  c #A0A192",
"k  c #A0A199",
"l  c #A7A896",
"z  c #A7A99E",
"x  c #A8A996",
"c  c #A9AA99",
"v  c #B0B29E",
"b  c #AAAAA0",
"n  c #AFB1A4",
"m  c #B1B2A1",
"M  c #B7B7AD",
"N  c #B7B8A6",
"B  c #B7B8AC",
"V  c #B8B9A6",
"C  c #B8B8AB",
"Z  c #B9B9B0",
"A  c #BFC1AB",
"S  c #BFC0B2",
"D  c #BFC0B8",
"F  c #C1BFB0",
"G  c #C1C1AD",
"H  c #C0C0B3",
"J  c #C6C6BA",
"K  c #C7C9B3",
"L  c #C7C8BA",
"P  c #C8C6B3",
"I  c #C8C6BA",
"U  c #C9C8B4",
"Y  c #CCCDBD",
"T  c #D0CEBD",
"R  c #D1D0BC",
"E  c #CDCEC1",
"W  c #CFD0C1",
"Q  c #D0CEC1",
"!  c #D6D5C3",
"~  c #D6D5C8",
"^  c #D8D6C4",
"/  c #D8D6C9",
"(  c #DCDBC5",
")  c #DBDBCD",
"_  c #DBDBD1",
"`  c #E1DFD2",
"'  c #E2E1CD",
"]  c #E2E2D4",
"[  c #E6E6D9",
"{  c #E7E8DA",
"}  c #E8E6D3",
"|  c #E8E6D9",
" . c #E8E8D2",
".. c #EDECDA",
"X. c #F3F3DE",
"o. c #EDEDE0",
"O. c #F2F2E3",
"+. c #F4F4EA",
"@. c #F7F8E5",
"#. c #F7F8E8",
"$. c #F9F7E8",
"%. c #F9F8E6",
"&. c #F8F8E9",
"*. c #FEFEFE",
/* pixels */
"*.*.*.*.*.*.*.*.*.*.*.*.*.*.O O                                                                                                           + + + *.*.*.*.*.*.*.*.*.*.*.*.*.",
"*.*.*.*.*.*.*.*.*.*.*.o o O @ @   # # # # # # # @ @ @ @ # # # @ @ @ # # # # @ @ @ # @ @ @ # # # @ @ @ @ @ @ # # @ @ # # # @ @ @ # # # #   # # # O O *.*.*.*.*.*.*.*.*.*.*.",
"*.*.*.*.*.*.*.*.*.*.X X @ @ @ $   $ $ $ $ $ $ $ $ $ $ $ $ $ $ $ $ $ $ $ $ $ $ $ $ $ $ $ $ $ $ $ $ $ $ $ $ $ $ $ $ $ $ $ $ $ $ $ $ $ $ $   $ $ $ @ O X *.*.*.*.*.*.*.*.*.*.",
"*.*.*.*.*.*.*.*.*.X @ @ $ $ $ *   = - = = = = - * * * * - * - - * * * - - - - - - - - - = * - - * * - - - - - - * * * - * - = = - - - -   - $ $ $ $ @ X *.*.*.*.*.*.*.*.*.",
"*.*.*.*.*.*.*.*.X @ $ $ * * * ;   : : : : : : : ; ; ; : ; : : : ; : : ; ; : : ; ; : : ; : : : : : ; : : ; : : : ; : : : ; : ; ; : : : :   ; * % & $ $ @ O *.*.*.*.*.*.*.*.",
"*.*.*.*.*.*.*.O @ $ * * ; ; ; 1                                                                                                           4 ; ; ; = * $ @ X *.*.*.*.*.*.*.",
"*.*.*.*.*.*.O # $ * * ; 3 3 1 2   2 4 4 < 4 < 4 4 2 3 4 2 4 4 4 2 3 2 4 4 4 2 4 4 4 4 4 2 4 4 4 2 3 4 4 2 4 4 4 2 3 4 4 4 2 4 4 4 4 2 2   2 > 4 3 ; & & $ @ X *.*.*.*.*.*.",
"*.*.*.*.*.X X $ $ * ; 1 3 3 4 6   6 6 6 6 6 6 6 5 5 5 5 5 6 5 6 5 5 6 6 5 6 5 5 6 6 6 6 6 6 6 6 6 5 5 6 5 5 6 6 5 5 6 6 6 6 6 5 6 6 6 6   6 3 > 3 3 ; & $ $ X X *.*.*.*.*.",
"*.*.*.*.O O $ $ * ; , , 5 5 5 8   q 0 q 7 7 7 8 7 7 8 8 7 q 7 7 7 7 7 7 7 7 7 7 7 7 7 7 7 7 7 7 7 7 7 7 7 7 7 7 7 7 7 7 7 7 7 7 7 7 0 0   0 6 6 5 , , ; * $ $ O *.*.*.*.*.",
"*.*.*.*.O $ $ * ; , , 5 8 8 8 e   w w w w w e e w w w e w w w e w w w w w 9 w w w w w w e e w w w w e e w w w e w w w w w w w w e e w w   w 8 7 8 5 3 3 ; * $ $ O *.*.*.*.",
"*.*.*.*.O $ * ; , ; 5 8 w w e p                                                                                                           a 9 e 9 8 6 3 3 ; * $ O *.*.*.*.",
"*.*.*.X @ $ * 3 , 8 8 9 i y p k   g g f g f f f g g g g g g g g k k k k g k k k g g k g f f f f g g g g g k h k k k k g k g s k k k g k   g u i i 9 8 5 3 3 * $ @ o *.*.*.",
"*.*.*.X $ * 3 3 5 8 9 p p j j c   b z c c c c c x c c c c c c c x x c c c c c c c c c c c c c c c c c c c c c c c c c z c c b c x z c b   b j j i p 9 8 5 3 3 * $ O *.*.*.",
"*.*.X @ $ * 3 5 5 w 9 p d x c m   N n n m v m v n v m v m m m m n n v v m v m v m m m v m v m v m m m m m v m m m m m m m m m m n n m m   m c c l i p 9 8 5 3 * $ O X *.*.",
"*.*.o $ - ; 3 6 e w i h x v m Z   B C C C C C V C C C V C C C C C V C C C C C C C C C C C C C C C C C C C C C C C C B B C B C C M M Z Z   Z v v c d p 9 9 5 3 ; * $ O *.*.",
"*.*.o $ - 3 5 8 e i h c v V Z F   H S H G H S H H S S S H H H H S H H H H H H H H H S S H H S H S S S S H H S H H S H H H H H H J F F F   F V V v x d p 9 8 5 3 * $ O *.*.",
"*.X $ $ - 1 6 r p d c v F F F I                                                                                                           J S G V v x h p w 5 1 * $ $ X *.",
"*.X $ * 1 3 6 9 i c m v F P I Q   Q Q T Q Q Q Q W R W Q Q Q E E W W W W W W W T W W W T W W W W W W E W E W E E E W E Y W W E W W W E E   E U U G V v c i e 5 3 , * $ X *.",
"*.X $ * 1 6 w w i x v G F P R ^   / ^ ^ ^ ( ^ R ! ! ! ~ ^ ! ^ ! ~ ! ( ! ~ ~ ^ ^ ~ ! ! ^ ! ! ~ ! ( ( ^ ! R ( ^ ! ( ! ! ! ( R ! ! ! ~ ~ ~   ~ W K G G m x i e e 5 , * $ o *.",
"*.X $ * 3 5 w y x v F G P R R ^   ) / ^ ^ R ^ ( ! ! ! ~ ! ! ! ! ! ! R ! ( R ~ ~ ! ! ! ! ~ ! ~ ~ ! R ( R ! ! ! ^ ! ! ! ! ^ ! ! ! ! ! ~ ~   ~ ! R K G V m x i 9 5 3 * $ o *.",
"*.O $ % 1 6 w i x v G U T ( / /   _ ) _ ) ) _ ) ) ) ) ) ) ) ) ) ) ) ) ) ) ) ) ) ) ) ) ) ) ) _ ) ) ) ) ) ) ) _ ) _ ) ) ) ) ) ) ) ) ) ) _   _ ( ^ R K G v c p e 5 3 * $ O *.",
"*.O $ * 3 5 9 i x v G U R R ) )                                                                                                           ) ( R R K G N c p 9 5 3 * $ O *.",
"O $ % 3 1 8 i h v V G U ( ( ' `   { { | [ | | | ] [ }  .| | ..| ] [ |  .[ [ | [ [ [ | | { { [ [ [ [ [ [ [ [ [ | [ [ { | [ [ | | [ [ [ [   _ ' ( ( U U V v j i 5 3 3 $ @ O ",
"O $ * 1 5 r i x v G G U R ' | |   o...................................O.................{ ............................................O.  |  .( ^ K U G v c p e 5 3 * $ X ",
"X $ * 3 6 9 i x n G K R R '  ...  +.O.O.O.O.O.O.X.O.X.X.X.X.O.O.O.O.O.O.O.O.O.O.O.O.X.O.O.X.O.O.O.O.O.O.O.O.X.O.X.O.O.O.O.O.O.O.O.O.O.O.  o. .( R T U G v c p e 5 3 * $ o ",
"X $ * 3 6 9 p x m G K ^ (  ...O.  &.$.$.$.&.%.$.$.$.%.%.@.$.@.$.&.@.@.&.@.@.$.%.&.&.&.@.&.@.@.&.@.@.@.$.@.$.@.&.#.@.&.&.@.@.&.@.$.$.&.#.  O... .( ( U G v c p w 8 3 * $ O ",
"O $ * 4 6 9 i c v G K R ' } ..$.                                                                                                          O... .( ( U G v c p e 5 , * $ O ",
"O $ - 3 5 r i c m G U ( (  ...O.  +.+.O.O.O.O.O.#.O.O.O.O.O.O.O.O.O.O.+.#.O.O.O.O.O.O.O.O.O.O.+.O.O.+.O.O.O.O.O.O.O.@.O.+.O.O.O.O.+.O.+.  O... .( R U G v c p e 5 , * $ O ",
"O $ * 3 6 9 i c v G U R R ' | ..  o...................................................................................................o.  .. .' ( R U G v x p 9 5 , * $ O ",
"O $ * 3 5 9 i c v G G U ( ' } |   | | ..}  . . .} } }  . . .} }  .' } }  . .} } }  . .} ' } } }  . . . . . . .}  . . . . . .}  .} } | |   }  .( R U U G v x p 9 5 3 * $ O ",
"O $ * 3 3 8 i d m V G K R ' ' `   ` ` ` ` ` ] ] ] ` ] ] ` ` ] ] } ] ] ] _ ] ] ] ` ] ` ] } ] ] ] _ ] ] ] ] ] ` ] ` ` ] ] ` ] ` ` | ` ` `   ] ' ( R U U F v h i 5 3 3 $ @ O ",
"*.O $ * 3 5 9 i x v G K ( R ' )                                                                                                           ) ' R ( U F v x i 9 5 3 * $ o *.",
"*.+ $ * 3 6 9 i c v G U R ( ^ /   ~ ~ / ~ ~ ~ ~ ~ ~ ~ ~ ~ ~ ~ ~ ! ~ ~ / ~ / / / ~ ~ ~ ~ ~ ~ ~ / ~ ~ ~ ~ ~ ^ ~ ~ ~ ~ ~ ~ / / / / ! W ~ /   _ ( ^ R U G v x i 9 5 3 * $ O *.",
"*.+ $ * 3 6 9 i c v V G P I / !   ~ ~ Q ~ ~ ~ / ~ Q ~ ~ ~ ~ ~ ~ ! ~ ~ ! ^ Q / ^ ~ ! ~ ! ! ! ! / ! ! ~ ! ! ! / ! ~ ~ / ~ Q ^ ^ ^ ~ ~ ~ ~   ~ R T U G V v x p 9 5 1 * $ o *.",
"*.O $ * 3 5 9 9 i x v G F P R /   E T T T T Q Q W W ! E E E ! E Y Y W Q E T Q Q Q W Q Q E W E E Y Y E E W Q E E Y T E Q Y T Q Q Y E E !   / W U G G v x i 9 9 5 3 * $ O *.",
"*.O $ * 3 3 5 9 i l v v G P I Q   Y I I I I E I L L J J J J I I L L L L L L I I I I I I L L I L L L I I I I I Y L L L L L J I J E H E J   E L P G V v c i w 5 3 3 * $ O *.",
"*.+ $ $ * , 5 9 i k c v V S H I                                                                                                           J P G V v c j p w 5 3 * $ $ O *.",
"*.*.O $ * 3 5 8 r i f c v C C S   Z B M B B B Z B B B B B B B B B B Z B C C B C B B B Z M Z Z B B C Z B C C B B C C Z C C C B C B B Z Z   S N C v x h i 9 8 5 3 * $ O &.*.",
"*.*.O $ * ; , 6 9 w i h c v m B   m m m m m m m m m m m m m m m m m m m m m m m m m m m v m m m m n m m m m m m m m m m m m m m m m n N   B m m x j p w e 5 3 ; * $ X *.*.",
"*.*.X @ $ * 3 6 6 9 p i j c b m   z z b c c c c c c c z c c c c c c c c c c x z c c c c c c x x c c c c c c c c c c c c c c x z z x z b   n x x h i y 9 8 5 3 * $ X X *.*.",
"*.*.*.X $ * 3 3 5 8 9 p i j k c   g g f j f f f g f f h g f f h k k h k g f h k f g h k g f h k f g h f f k k h h k g h f f f j f g g k   z k f u y 9 8 5 1 1 - $ O *.*.*.",
"*.*.*.X @ $ * , , 5 8 9 p i p k   a u a u u p p u u u p u u a u u u p u a a p a i u u p a a p a i u p a u p p a u p a u i u p p a a u u   g p i i 9 8 5 3 1 * $ @ X *.*.*.",
"*.*.*.*.X $ * ; 3 3 5 8 9 e e a                                                                                                           a w 9 w 8 5 3 3 ; - $ X *.*.*.*.",
"*.*.*.*.X $ $ * ; 3 3 5 8 8 8 w   q 0 q 7 7 7 q 0 7 7 7 7 q 7 0 7 7 q 7 7 7 7 7 7 7 7 7 0 7 7 7 0 7 0 7 7 7 7 7 q 7 q 7 0 7 7 7 q 0 0 q   e 7 8 8 5 1 3 ; * $ $ X *.*.*.*.",
"*.*.*.*.O X $ $ * ; 3 3 6 6 6 0   6 6 5 6 6 6 6 6 6 6 6 6 6 6 6 6 6 6 6 6 6 6 5 6 6 6 6 6 6 6 6 6 5 6 6 6 6 6 6 6 5 5 5 6 6 6 6 6 6 6 6   q 5 5 6 3 3 ; * $ $ + *.*.*.*.*.",
"*.*.*.*.*.O O $ $ * ; 3 3 4 2 6   4 4 4 4 4 3 3 3 4 3 3 4 4 4 4 3 < 3 4 3 4 4 4 4 < 4 4 4 4 4 4 < 3 3 3 4 4 4 4 4 4 4 4 4 3 < < 4 < < 4   6 3 3 3 3 ; % $ $ + X *.*.*.*.*.",
"*.*.*.*.*.*.O @ $ * * ; 3 3 4 2   2 2 2 < 4 4 4 > < 4 4 4 4 2 2 < < 4 4 < < 4 4 < < 4 4 4 4 4 4 4 < 4 4 4 < 2 2 4 4 4 4 < > 4 2 < 4 4 4   < 3 3 3 ; * * $ @ O *.*.*.*.*.*.",
"*.*.*.*.*.*.*.X @ $ * * ; ; : 2                                                                                                           4 ; ; ; * * $ @ o *.*.*.*.*.*.*.",
"*.*.*.*.*.*.*.*.O @ $ $ % & - ;   = - - - = = = = - = - = - - - = = = = = = = = = = = = - = = = - - - - * - - - - - - - - - - - = = = =   : - - - $ $ # o *.*.*.*.*.*.*.*.",
"*.*.*.*.*.*.*.*.*.O @ @ $ $ $ &   $ $ $ $ $ $ $ $ $ $ $ $ $ $ $ $ $ $ $ $ $ $ $ $ $ $ $ $ $ $ $ $ $ $ $ $ $ $ $ $ $ $ $ $ $ $ $ $ $ $ $   - $ $ $ $ # + *.*.*.*.*.*.*.*.*.",
"*.*.*.*.*.*.*.*.*.*.o X @ @ @ $   # # # # # # @ @ @ # # @ @ @ @ # # # # # # @ # # # # @ # # @ @ @ # # # @ @ @ @ # # @ @ @ @ # # @ @ # #   $ $ # @ O O *.*.*.*.*.*.*.*.*.*.",
"*.*.*.*.*.*.*.*.*.*.*.X O O # @   O O O + + + O o X + + O O O O + + O O + O O O + + + O + O O O O O O O O X o O + + O o X X + + O O O +   # # + X O *.*.*.*.*.*.*.*.*.*.*.",
"*.*.*.*.*.*.*.*.*.*.*.*.*.*.X O                                                                                                         + + O O *.*.*.*.*.*.*.*.*.*.*.*.*."
};
