/* XPM */
static char * htrixist_htrixist_e_ht_1co[] = {
"138 50 280 2",
"  	c None",
". 	c #000000",
"+ 	c #010000",
"@ 	c #010100",
"# 	c #000100",
"$ 	c #F7F7EB",
"% 	c #4B4A45",
"& 	c #4B4B43",
"* 	c #4A4B45",
"= 	c #4A4B46",
"- 	c #FDFEEC",
"; 	c #F7F8E8",
"> 	c #4B4A46",
", 	c #595951",
"' 	c #59594F",
") 	c #58584E",
"! 	c #585953",
"~ 	c #3C3B39",
"{ 	c #FFFEEA",
"] 	c #F9F8E4",
"^ 	c #595853",
"/ 	c #59594D",
"( 	c #65655D",
"_ 	c #656559",
": 	c #65655B",
"< 	c #64665B",
"[ 	c #646659",
"} 	c #64645C",
"| 	c #66665C",
"1 	c #3B3C37",
"2 	c #3B3B3B",
"3 	c #4B4A48",
"4 	c #66665A",
"5 	c #717167",
"6 	c #717165",
"7 	c #707265",
"8 	c #717169",
"9 	c #707066",
"0 	c #595854",
"a 	c #3B3C36",
"b 	c #FFFEEC",
"c 	c #F9F8E6",
"d 	c #3B3B39",
"e 	c #4A4A48",
"f 	c #717264",
"g 	c #707064",
"h 	c #86867C",
"i 	c #868779",
"j 	c #86867A",
"k 	c #85877C",
"l 	c #000200",
"m 	c #3C3B36",
"n 	c #3C3B37",
"o 	c #3B3A35",
"p 	c #585954",
"q 	c #86867E",
"r 	c #858779",
"s 	c #8E8E84",
"t 	c #8E8F81",
"u 	c #8E8E82",
"v 	c #8D8F84",
"w 	c #65645F",
"x 	c #585850",
"y 	c #4A4B43",
"z 	c #4A4A42",
"A 	c #4A4944",
"B 	c #585951",
"C 	c #64655F",
"D 	c #8D8D81",
"E 	c #8E8E86",
"F 	c #8D8F81",
"G 	c #98988C",
"H 	c #989989",
"I 	c #98998B",
"J 	c #97998E",
"K 	c #97988A",
"L 	c #64645A",
"M 	c #67645B",
"N 	c #70716B",
"O 	c #98988E",
"P 	c #A0A094",
"Q 	c #A0A191",
"R 	c #A0A193",
"S 	c #9FA196",
"T 	c #7C7C74",
"U 	c #7C7C72",
"V 	c #7C7C70",
"W 	c #7C7D6F",
"X 	c #7E7C70",
"Y 	c #7D7D71",
"Z 	c #7D7D73",
"` 	c #727266",
" .	c #7B7C74",
"..	c #A0A096",
"+.	c #B1B2A4",
"@.	c #B1B2A0",
"#.	c #B1B2A2",
"$.	c #B0B2A5",
"%.	c #B2B3A1",
"&.	c #85857D",
"*.	c #908E81",
"=.	c #918F82",
"-.	c #8F9082",
";.	c #84857D",
">.	c #B1B1A7",
",.	c #B8B9AB",
"'.	c #B8B9A7",
").	c #B8B9A9",
"!.	c #B8B8AC",
"~.	c #B9BAAA",
"{.	c #989890",
"].	c #888679",
"^.	c #999788",
"/.	c #9A9889",
"(.	c #B7B8A6",
"_.	c #C0C1B3",
":.	c #C2C1AD",
"<.	c #C0C1AF",
"[.	c #010200",
"}.	c #C2C1AF",
"|.	c #C2C0B1",
"1.	c #97998B",
"2.	c #979A89",
"3.	c #8E8F7F",
"4.	c #A9AA9A",
"5.	c #A9AA98",
"6.	c #A8A997",
"7.	c #868777",
"8.	c #C0C1B1",
"9.	c #C0C0B4",
"0.	c #C9C7B8",
"a.	c #C9C8B4",
"b.	c #C9C8B6",
"c.	c #C7C8BA",
"d.	c #CAC9B5",
"e.	c #A9A99F",
"f.	c #9FA193",
"g.	c #9FA291",
"h.	c #B8BAA5",
"i.	c #A8AA9F",
"j.	c #C7C8B8",
"k.	c #D7D5C6",
"l.	c #D7D6C1",
"m.	c #D7D6C2",
"n.	c #D8D6C1",
"o.	c #D5D6C8",
"p.	c #D6D5C3",
"q.	c #B0B0A6",
"r.	c #A2A18F",
"s.	c #C1C0AE",
"t.	c #C0C2AD",
"u.	c #A0A18F",
"v.	c #AFB1A4",
"w.	c #D5D6C6",
"x.	c #DDDBCC",
"y.	c #DDDCC7",
"z.	c #DDDCC8",
"A.	c #DEDCC7",
"B.	c #DBDCCE",
"C.	c #B1B1A5",
"D.	c #ABAA98",
"E.	c #D0CFBB",
"F.	c #D1D0BC",
"G.	c #CED0BB",
"H.	c #DDDCCA",
"I.	c #DDDDC5",
"J.	c #DBDCCC",
"K.	c #E2E0D1",
"L.	c #E2E1CC",
"M.	c #E2E1CD",
"N.	c #E0E1D1",
"O.	c #E2E2CA",
"P.	c #B1B39E",
"Q.	c #B3B29E",
"R.	c #DEDDC8",
"S.	c #B3B2A0",
"T.	c #E2E1CF",
"U.	c #E0E1D3",
"V.	c #E8E6D7",
"W.	c #E8E7D2",
"X.	c #E8E7D3",
"Y.	c #E6E7D7",
"Z.	c #E8E8D0",
"`.	c #E7E6D1",
" +	c #E6E7D9",
".+	c #F4F3E1",
"++	c #F4F4DC",
"@+	c #F4F3DF",
"#+	c #F2F3E3",
"$+	c #F5F5DD",
"%+	c #F4F3DE",
"&+	c #C7C7BB",
"*+	c #C9C8B3",
"=+	c #EEEDD8",
"-+	c #EFEFD7",
";+	c #EDEDD5",
">+	c #EEEED6",
",+	c #F2F3E5",
"'+	c #F2F4DC",
")+	c #F2F3E1",
"!+	c #F9F9E1",
"~+	c #F9F8E3",
"{+	c #F7F8EA",
"]+	c #F9F9DF",
"^+	c #CECEC2",
"/+	c #D0CFBD",
"(+	c #D0CFBA",
"_+	c #F8F8E0",
":+	c #F7F9E1",
"<+	c #F7F8E6",
"[+	c #FFFFE5",
"}+	c #FFFEE7",
"|+	c #FFFFE7",
"1+	c #FFFEE9",
"2+	c #FEFFF1",
"3+	c #D5D5C9",
"4+	c #D7D6C4",
"5+	c #D6D5C0",
"6+	c #D7D5C8",
"7+	c #030100",
"8+	c #FEFFEF",
"9+	c #FAF8E1",
"0+	c #F8F8DE",
"a+	c #CFCEBA",
"b+	c #E8E7D5",
"c+	c #E7E7CF",
"d+	c #E9E8D3",
"e+	c #C0C2AC",
"f+	c #E3E1CC",
"g+	c #DEDDCB",
"h+	c #B9BAA8",
"i+	c #B1B39D",
"j+	c #BAB8A9",
"k+	c #DEDDC9",
"l+	c #D8D7C5",
"m+	c #A9AB96",
"n+	c #C1C3AE",
"o+	c #B3B1A2",
"p+	c #A8AA95",
"q+	c #9FA08E",
"r+	c #BAB9A7",
"s+	c #BAB9A5",
"t+	c #AAAB9B",
"u+	c #C1C1B5",
"v+	c #C1BFB0",
"w+	c #979888",
"x+	c #A8AA9D",
"y+	c #BFC0AE",
"z+	c #858678",
"A+	c #999A8A",
"B+	c #B7B7AB",
"C+	c #8D8E80",
"D+	c #7B7B6F",
"E+	c #85867E",
"F+	c #8D8E86",
"G+	c #8D8F82",
"H+	c #8D907F",
"I+	c #71706B",
"J+	c #4B4B41",
"K+	c #707169",
"L+	c #868580",
"M+	c #3A3B33",
"N+	c #64655D",
"O+	c #020100",
"P+	c #585752",
"Q+	c #282923",
"R+	c #575852",
"S+	c #707267",
"T+	c #63645E",
"U+	c #3A3B35",
"V+	c #64635E",
"W+	c #5A5A52",
"X+	c #3A3B36",
"Y+	c #494A42",
"Z+	c #282924",
"`+	c #292824",
" @	c #282826",
".@	c #292921",
"+@	c #292A25",
"@@	c #020200",
"    . +     +                                                                                                                                                                                                                                                                       ",
"        +   @                                                                                                                                                                                                                                                                       ",
"        #   @                                                                                                                                                                                                                                                                       ",
"        .   #                                                                                                                                                                                                                                                                       ",
"        .   #                                                                                                                                                                                                                                                                       ",
". . . .     # # . . . . . . . .               +     $ #                                                                                                                                                                                             . . . . . . . . . . . . . . . . ",
". % & % % & & % * = # % % & % + +               + - ; #                                                                                                                                                                                           + + > % & & + > % & % % & & % > . ",
". , ' , ' ) ' , , ! # , ' ' , + ~ .             + { ] +                                                                                                                                                                                         . ~ + ^ ' / ' + ^ , ' , ' ' ' , ^ . ",
". ( _ : : < [ : } ( @ ( | : : + > 1 #           + { ] +                                                                                                                                                                                       . 2 3 + ( : 4 _ @ ( : _ : : : _ : ( . ",
"# 5 6 6 6 7 7 6 5 8 @ 9 6 6 5 + 0 * a #         + b c +                                                                                                                                                                                     . d e 0 + 5 6 f g @ 8 5 6 6 6 6 6 6 8 . ",
"# h i i i i i i j k l j i i j + ^ , , m a a a n       o n a a n n a a n n 1 1 m m a a n n a a n n a a n n a a n n a a n n a a n n a a n n a a n n a a n n a a n n a a n n a a n n a a n n a a n n a a n n a a n n a a n n 1 1 n n a a n n # a ^ ^ p # h i i j @ q j i i i i i r k # ",
"# s t t t t t t u v l u t t u + w ( ' x & y y & z y y & & y y % A y y & & y y & & y y & & y y & & y y & & y y & & y y & & y y & & y y & & y y & & y y & & y y & & y y & & y y & & y y & & y y & & y y & & y y & & y y % % * y & & & y & & a B ' | C # u t t D @ E u t t t t t F v # ",
"# G H H H H H H I J l I H H K @ 8 5 : ( ( : : : : : : : : L : : : : : : : : : : : : : : : : : : : : : : : : : : : : : : : : : : : : : : : : : : : : : : : : : : : : : : : : : : : : : : : : : : : : : : : : : : : _ _ : : : : M : : : : : , : : 5 N # G H H I @ O I H H H H H H G # ",
"# P Q Q Q Q Q Q R S l R Q Q R @ T U 6 5 U V V V V V V V V V V V V V V V V V V V V V V V V V V V V V V V V V V V V V V V V V V V V V V V V V V V V V V V V V V V V V V V V V V V V V V V V V V V V V V V V V V V V W W V V V V X X Y V V Z : ` 6 V  .l R Q Q R @ ..R Q Q Q Q Q Q P # ",
"# +.@.@.@.@.@.@.#.$.l #.%.@.+.@ &.j W X *.*.*.*.=.t t t -.t -.t t t t t t t t t t t t t t t t t t t t t t t t t t t t t t t t t t t t t t t t t t t t t t t t t t t t t t t t t t t t t t t t t t t t t t t t t t t t t t t t t t t t t u 6 V V j ;.l +.@.%.#.@ >.#.@.@.@.@.@.@.+.# ",
"# ,.'.'.'.'.'.'.).!.l ).'.'.~.@ {.u i ].^././././.H H H H H H H H H H H H H H H H H H H H H H H H H H H H H H H H H H H H H H H H H H H H H H H H H H H H H H H H H H H H H H H H H H H H H H H H H H H H H H H H H H H H H H H H H H H I W i i u J l ~.'.(.).@ !.).'.'.'.'.'.'.,.# ",
"# _.:.:.:.:.:.:.<._.[.}.:.:.|.@ ..1.2.3.4.4.5.5.6.5.5.5.5.5.5.5.5.5.5.5.5.5.5.5.5.5.5.5.5.5.5.5.5.5.5.5.5.5.5.5.5.5.5.5.5.5.5.5.5.5.5.5.5.5.5.5.5.5.5.5.5.5.5.5.5.5.5.5.5.5.5.5.5.5.5.5.5.5.5.5.5.5.5.5.5.5.5.5.5.5.5.5.5.5.5.5.5.5.5.5.4.7.3.H I S l 8.:.:.}.@ 9.|.:.:.:.:.:.:._.# ",
"# 0.a.a.a.a.a.a.b.c.[.b.d.a.b.@ e.f.g.H '.(.'.'.'.h.h.'.'.'.'.'.'.'.'.'.'.'.'.'.'.'.'.'.'.'.'.'.'.'.'.'.'.'.'.'.'.'.'.'.'.'.'.'.'.'.'.'.'.'.'.'.'.'.'.'.'.'.'.'.'.'.'.'.'.'.'.'.'.'.'.'.'.'.'.'.'.'.'.'.'.'.'.'.'.'.'.'.'.'.'.'.'.'.'.'.'.H H Q R i.l b.a.d.b.@ c.b.a.a.a.a.a.a.j.+ ",
"# k.l.m.m.n.n.l.m.o.[.m.l.l.p.@ q.4.5.r.}.s.:.:.:.:.:.:.:.:.:.:.:.:.:.:.:.:.:.:.:.:.:.:.:.:.:.:.:.:.:.:.:.:.:.:.:.:.:.:.:.:.:.:.:.:.:.:.:.:.:.:.:.:.:.:.:.:.:.:.:.:.:.:.:.:.:.:.:.:.:.:.:.:.:.:.:.:.:.:.:.:.:.:.:.:.:.:.:.:.:.:.:.:.:.t.t.u.u.5.4.v.l p.l.l.m.[.o.m.l.l.l.l.l.l.w.+ ",
"# x.y.z.z.A.A.y.z.B.[.z.y.y.z.@ C.#.@.D.E.E.E.E.E.E.E.E.E.E.E.E.E.E.E.E.E.E.E.E.E.E.E.E.E.E.E.E.E.E.E.E.E.E.E.E.E.E.E.E.E.E.E.E.E.E.E.E.E.E.E.E.E.E.E.E.E.E.E.E.E.E.E.E.E.E.E.E.E.E.E.E.E.E.E.E.E.E.E.E.E.E.E.E.E.E.E.E.E.E.E.E.E.F.E.G.G.5.5.@.#.C.[.H.y.y.z.[.B.z.I.y.y.y.y.y.J.+ ",
"# K.L.L.L.L.L.L.M.N.[.M.L.O.M.@ !.).P.Q.z.z.y.R.y.z.z.y.y.y.y.y.y.y.y.y.y.y.y.y.y.y.y.y.y.y.y.y.y.y.y.y.y.y.y.y.y.y.y.y.y.y.y.y.y.y.y.y.y.y.y.y.y.y.y.y.y.y.y.y.y.y.y.y.y.y.y.y.y.y.y.y.y.y.y.y.y.y.y.y.y.y.y.y.y.y.y.y.y.y.y.y.y.R.y.y.z.@.@.S.).!.[.T.L.L.M.[.U.M.L.L.L.L.L.L.N.+ ",
"# V.W.W.W.W.W.W.X.Y.[.X.Z.Z.X.[.9.<.t.:.W.W.W.W.W.W.W.W.W.W.W.W.W.W.W.W.W.W.W.W.W.W.W.W.W.W.W.W.W.W.W.W.W.W.W.W.W.W.W.W.W.W.W.W.W.W.W.W.W.W.W.W.W.W.W.W.W.W.W.W.W.W.W.W.W.W.W.W.W.W.W.W.W.W.W.W.W.W.W.W.W.W.W.W.W.W.W.W.W.W.W.W.W.W.`.W.W.t.<.}.|.9.[.X.W.W.X.[. +X.W.W.W.W.W.W.Y.+ ",
"# .+++++++++++++@+#+[.@+$+++%+[.&+b.a.*+=+=+-+;+>+>+>+>+>+>+>+>+>+>+>+>+>+>+>+>+>+>+>+>+>+>+>+>+>+>+>+>+>+>+>+>+>+>+>+>+>+>+>+>+>+>+>+>+>+>+>+>+>+>+>+>+>+>+>+>+>+>+>+>+>+>+>+>+>+>+>+>+>+>+>+>+>+>+>+>+>+>+>+>+>+>+>+>+>+>+>+>+>+>+>+>+=+a.a.a.b.&+[.@+++$+@+[.,+@+++'+'+++++++)++ ",
"# c !+!+!+!+!+!+~+{+[.] !+]+~+[.^+/+(+(+!+!+_+!+!+!+!+!+!+!+!+!+!+!+!+!+!+!+!+!+!+!+!+!+!+!+!+!+!+!+!+!+!+!+!+!+!+!+!+!+!+!+!+!+!+!+!+!+!+!+!+!+!+!+!+!+!+!+!+!+!+!+!+!+!+!+!+!+!+!+!+!+!+!+!+!+!+!+!+!+!+!+!+!+!+!+!+!+!+!+!+!+!+!+!+!+!+(+E.E./+^+[.] !+!+~+[.; ~+!+:+:+!+!+!+<++ ",
"# { [+}+}+|+|+|+1+2+[.{ |+[+1+[.3+4+l.l.|+|+[+|+|+[+[+|+|+[+[+|+|+[+[+|+|+[+[+|+|+[+[+|+|+[+[+|+|+[+[+|+|+[+[+|+|+[+[+|+|+[+[+|+|+[+[+|+|+[+[+|+|+[+[+|+|+[+[+|+|+[+[+|+|+[+[+|+|+[+[+|+|+[+[+|+|+[+[+|+|+[+[+|+|+[+[+|+|+[+[+|+|+[+[+|+|+5+l.5+m.6+7+{ |+[+1+[.8+1+[+|+|+[+[+|+- + ",
"# ] ]+9+9+!+!+!+] {+[.] !+!+~+[.3+4+l.l.!+!+0+!+!+!+]+!+!+!+]+!+!+!+]+!+!+!+]+!+!+!+]+!+!+!+]+!+!+!+]+!+!+!+]+!+!+!+]+!+!+!+]+!+!+!+]+!+!+!+]+!+!+!+]+!+!+!+]+!+!+!+]+!+!+!+]+!+!+!+]+!+!+!+]+!+!+!+]+!+!+!+]+!+!+]+]+!+!+!+]+!+!+!+]+!+!+l.l.l.m.6+7+] !+!+~+[.; ~+]+!+!+!+]+!+<++ ",
"# .+++%+%+++++%+@+,+[.@+++++@+[.^+/+(+(+>+>+>+=+>+>+>+=+>+>+>+=+>+>+>+=+>+>+>+=+>+>+>+=+>+>+>+=+>+>+>+=+>+>+>+=+>+>+>+=+>+>+>+=+>+>+>+=+>+>+>+=+>+>+>+=+>+>+>+=+>+>+>+=+>+>+>+=+>+>+>+=+>+>+>+=+>+>+>+=+>+>+>+=+>+>+>+>+>+>+>+=+>+-+>+=+=+a+E.E./+^+[.@+++++%+[.#+%+++%+++++++%+#++ ",
"# b+Z.W.W.Z.Z.W.X. +[.X.W.c+X.[.&+b.a.*+d+W.Z.W.W.W.Z.W.W.W.Z.W.W.W.Z.W.W.W.Z.W.W.W.Z.W.W.W.Z.W.W.W.Z.W.W.W.Z.W.W.W.Z.W.W.W.Z.W.W.W.Z.W.W.W.Z.W.W.W.Z.W.W.W.Z.W.W.W.Z.W.W.W.Z.W.W.W.Z.W.W.W.Z.W.W.W.Z.W.W.W.Z.W.W.W.Z.W.W.W.Z.W.W.W.Z.W.W.a.a.a.b.&+[.b+W.Z.X.[. +X.Z.W.W.Z.Z.W.Y.+ ",
"# K.L.L.L.L.L.L.M.U.[.M.L.L.M.[.9.<.e+:.y.y.y.z.y.y.y.z.y.y.y.z.y.y.y.z.y.y.y.z.y.y.y.z.y.y.y.z.y.y.y.z.y.y.y.z.y.y.y.z.y.y.y.z.y.y.y.z.y.y.y.z.y.y.y.z.y.y.y.z.y.y.y.z.y.y.y.z.y.y.y.z.y.y.y.z.y.y.y.z.y.y.y.z.y.y.y.z.y.y.y.z.y.y.y.z.z.t.t.}.|.9.[.T.f+L.M.[.U.M.L.L.L.L.L.L.N.+ ",
"# x.y.y.y.y.y.y.z.B.[.g+y.y.H.@ !.h+i+Q.E.(+(+E.E.E.(+E.E.E.(+E.E.E.(+E.E.E.(+E.E.E.(+E.E.E.(+E.E.E.(+E.E.E.(+E.E.E.(+E.E.E.(+E.E.E.(+E.E.E.(+E.E.E.(+E.E.E.(+E.E.E.(+E.E.E.(+E.E.E.(+E.E.E.(+E.E.E.(+E.E.E.(+E.E.E.(+E.E.E.(+E.E.E.(+E.E.P.P.S.j+!.@ H.A.y.k+@ B.H.y.y.y.y.y.y.J.+ ",
"# k.l.m.m.l.l.m.4+3+[.l+m.l.4+@ C.@.P.m+t.t.t.}.:.:.:.}.:.t.:.}.:.:.t.}.:.t.t.}.:.:.:.}.:.t.:.}.:.:.t.}.:.t.t.}.:.:.:.}.:.t.:.}.:.:.t.}.:.t.t.}.:.:.:.}.:.t.:.}.:.:.t.}.:.t.t.}.:.:.:.}.:.t.:.}.:.:.t.}.:.t.t.}.:.t.t.}.:.t.t.}.:.n+t.}.}.5.5.S.o+C.@ 4+m.l.m.@ o.4+l.m.m.l.l.m.w.+ ",
"# 0.*+a.a.a.a.a.0.&+@ b.a.a.b.@ >.4.p+q+h.h.h.r+r+r+s+r+r+'.h.r+r+'.h.r+r+'.h.r+r+r+s+r+r+'.h.r+r+'.h.r+r+'.h.r+r+r+s+r+r+'.h.r+r+'.h.r+r+'.h.r+r+r+s+r+r+'.h.r+r+'.h.r+r+'.h.r+r+r+s+r+r+'.h.r+r+'.h.r+r+'.h.r+r+'.h.r+r+'.h.r+r+'.h.r+r+u.u.D.t+$.l b.a.a.b.@ &+b.*+a.a.a.*+a.c.+ ",
"# |.:.}.:.:.:.}.|.u+@ v+:.:.}.@ e.R u.w+5.5.5.4.5.5.5.4.5.5.5.4.5.5.5.4.5.5.5.4.5.5.5.4.5.5.5.4.5.5.5.4.5.5.5.4.5.5.5.4.5.5.5.4.5.5.5.4.5.5.5.4.5.5.5.4.5.5.5.4.5.5.5.4.5.5.5.4.5.5.5.4.5.5.5.4.5.5.5.4.5.5.5.4.5.5.5.4.5.5.5.4.5.5.5.4.4.H H Q R x+l |.:.t.y+@ 9.<.t.}.:.t.t.}._.+ ",
"# ,.s+r+r+r+r+j+,.!.@ j+r+r+j+@ ..I H 3.H H H H H H H H H H H H H H H H H H H H H H H H H H H H H H H H H H H H H H H H H H H H H H H H H H H H H H H H H H H H H H H H H H H H H H H H H H H H H H H H H H H H H H H H H H H H H H H H H z+3.A+I S l ).r+'.'.@ B+).h.r+r+'.h.r+,.# ",
"# +.@.#.@.@.@.#.+.>.l +.@.@.#.@ O t 7.i t t t t t t t t t t t t t t t t t t t t t t t t t t t t t t t t t t t t t t t t t t t t t t t t t t t t t t t t t t t t t t t t t t t t t t t t t t t t t t t t t t t t t C+t C+t t t t t t t t t V i i t J l +.@.@.#.@ C.#.@.#.@.@.@.#.C.# ",
"# R u.Q Q Q u.Q R S l R Q u.R @ h j W V V V V D+V V V V V V V V V V V V V V V V V V V V V V V V V V V V V V V V V V V V V V V V V V V V V V V V V V V V V V V V V V V V V V V V V V V V V V V V V V V V V V V V V V V V V V W V W V V V V 6 V V j E+l R Q Q Q @ ..Q u.Q Q Q u.Q P # ",
"# G H I H H H I G J l 1.2.H I @ T U 6 6 : : : < < : : : : : : : : _ _ : : : : : : : : : : : : : : _ _ : : : : : : : : : : : : : : _ _ : : : : : : : : : : : : : : _ _ : : : : : : : : : : : : : : _ _ : : : : : : : : : : : _ : _ : : : : : 6 6 V  .# G H H I @ O 1.2.I H H H I O # ",
"# u t t t t 3.t u F+l G+H+3.u + I+5 _ : J+& & * y & & % & & & % & J+J+& & & & % & & & % & & & % & J+J+& & & & % & & & % & & & % & J+J+& & & & % & & & % & & & % & J+J+& & & & % & & & % & & & % & J+J+& & & & % & & & % % & & & & & & % % , : L 5 K+# u t t t @ s F H+t t t 3.t s # ",
"# h i j j i i j h L+@ h i i j + w ( ' B M+a a 1 1 1 a 1 1 1 a 1 1 a a 1 1 1 a 1 1 1 a 1 1 1 a 1 1 a a 1 1 1 a 1 1 1 a 1 1 1 a 1 1 a a 1 1 1 a 1 1 1 a 1 1 1 a 1 1 a a 1 1 1 a 1 1 1 a 1 1 1 a 1 1 a a 1 1 1 a 1 1 1 a 1 1 1 1 1 1 a 1 d 1 a B ' : N+# k r i j @ q j i j i i i j h # ",
"# 5 6 5 5 6 6 6 5 I++ 5 6 6 5 O+P+, , a Q+                                                                                                                                                                                                # a , , R+[.S+7 6 6 @ 8 6 6 6 6 6 6 6 8 . ",
". ( : : : : : : : T+# : : : L + 0 * U+#                                                                                                                                                                                   @   .             + 1 * p # } : : : + V+M M : : : : : ( . ",
". ^ ' ' ' , , , , ! # W+' ' , + > 1 #                                                                                                                                                                                     @   .               . X+= # , ' , W++ 0 , ' ' ' ' ' , ^ . ",
". * y y y * * * * * # * y y y # 1 .                                                                                                                                                                                       l   .                 . d # % & * * # = * & & & Y+y * * . ",
". Z+Z+Q+Q+Z+Z+Z+Z+Z+# Z+Q+Q+Q+# .                                                                                                                                                                                         #   .                   . . `+`+Z+Z+.  @Z+Q+.@.@Z++@Z+Z+. ",
". . . . . . . . . . . . . @ @ .                                                                                                                                                                                         .     . .                   . O+O+. . . . . #     . . . . . ",
"                                                                                                                                                                                                                                                                      +   .         ",
"                                                                                                                                                                                                                                                                      @@  .         ",
"                                                                                                                                                                                                                                                                      @   .         ",
"                                                                                                                                                                                                                                                                      +   .         ",
"                                                                                                                                                                                                                                                                      +   .         "};
