/* XPM */
static char * htrixist_htrixist_simp_ht[] = {
"45 45 200 2",
"  	c None",
". 	c #282826",
"+ 	c #282924",
"@ 	c #3B3C36",
"# 	c #3C3B37",
"$ 	c #3C3D38",
"% 	c #272823",
"& 	c #272924",
"* 	c #3C3D37",
"= 	c #4A4B43",
"- 	c #4A4A42",
"; 	c #4B4B43",
"> 	c #494A44",
", 	c #3A3B35",
"' 	c #3C3C34",
") 	c #595951",
"! 	c #59594F",
"~ 	c #3C3B36",
"{ 	c #272725",
"] 	c #4B4B41",
"^ 	c #58584E",
"/ 	c #65655B",
"( 	c #4B4A45",
"_ 	c #282923",
": 	c #656559",
"< 	c #66665C",
"[ 	c #7C7C70",
"} 	c #7D7D71",
"| 	c #646458",
"1 	c #868779",
"2 	c #86867A",
"3 	c #7B7B6F",
"4 	c #7C7C72",
"5 	c #4C4C44",
"6 	c #4A4B45",
"7 	c #3B3C37",
"8 	c #8E8F81",
"9 	c #8E8F7F",
"0 	c #87877B",
"a 	c #989989",
"b 	c #98998B",
"c 	c #8F9082",
"d 	c #979888",
"e 	c #A0A191",
"f 	c #9FA08E",
"g 	c #858678",
"h 	c #7C7D6F",
"i 	c #57574D",
"j 	c #585A4F",
"k 	c #A9AA98",
"l 	c #A9AA9A",
"m 	c #A8A999",
"n 	c #9FA090",
"o 	c #A1A292",
"p 	c #4A4C41",
"q 	c #4A4A40",
"r 	c #59594D",
"s 	c #86867E",
"t 	c #010100",
"u 	c #8E8E82",
"v 	c #B1B2A0",
"w 	c #B2B3A1",
"x 	c #A0A18F",
"y 	c #999A8A",
"z 	c #8E8E84",
"A 	c #98988C",
"B 	c #A0A193",
"C 	c #B8B9A7",
"D 	c #B0B19F",
"E 	c #7C7C74",
"F 	c #8D8D81",
"G 	c #A9AA9C",
"H 	c #BAB8A9",
"I 	c #BAB9A7",
"J 	c #C2C1AF",
"K 	c #C2C1AD",
"L 	c #BBBAA6",
"M 	c #B2B19F",
"N 	c #A8A997",
"O 	c #999A8C",
"P 	c #3B3C34",
"Q 	c #010200",
"R 	c #B1B2A4",
"S 	c #B8B9A9",
"T 	c #CAC7B4",
"U 	c #C9C8B4",
"V 	c #CAC9B5",
"W 	c #C1C0AE",
"X 	c #65655D",
"Y 	c #86867C",
"Z 	c #C0C1B1",
"` 	c #C0C1AF",
" .	c #C9C8B6",
"..	c #C8C7B3",
"+.	c #D0CFBB",
"@.	c #D0CFBA",
"#.	c #BAB9A5",
"$.	c #C7C8B8",
"%.	c #D0CFBD",
"&.	c #DDDCC7",
"*.	c #DDDCC8",
"=.	c #595A54",
"-.	c #000100",
";.	c #B9B8A6",
">.	c #D0CEBF",
",.	c #DDDCCA",
"'.	c #E2E1CC",
").	c #8E9082",
"!.	c #858779",
"~.	c #4B4A46",
"{.	c #64655D",
"].	c #8D8E7E",
"^.	c #030100",
"/.	c #E2E1CF",
"(.	c #E2E1CD",
"_.	c #E9E8D3",
":.	c #E8E7D2",
"<.	c #C0C2AD",
"[.	c #8D8F81",
"}.	c #B2B3A3",
"|.	c #D1D0BC",
"1.	c #E6E7D5",
"2.	c #EDEFDA",
"3.	c #EEEDD8",
"4.	c #E8E7D3",
"5.	c #3B3B39",
"6.	c #585953",
"7.	c #D1CFBA",
"8.	c #DFDCC9",
"9.	c #E3E2D0",
"0.	c #E8E7D5",
"a.	c #F2F4DF",
"b.	c #F4F3DE",
"c.	c #C9C8B3",
"d.	c #EEEDD9",
"e.	c #F2F3E1",
"f.	c #F9F8E4",
"g.	c #F3F2DE",
"h.	c #F2F4DC",
"i.	c #ECEED6",
"j.	c #D1D0BB",
"k.	c #C8CAB5",
"l.	c #000000",
"m.	c #B8BAA5",
"n.	c #F7F9E4",
"o.	c #030200",
"p.	c #F2F4DE",
"q.	c #CFCEB9",
"r.	c #C7C9B4",
"s.	c #68655C",
"t.	c #7E7C70",
"u.	c #8D8E80",
"v.	c #EFEED9",
"w.	c #DEDDC9",
"x.	c #C1C0AC",
"y.	c #5A5A50",
"z.	c #4B4C46",
"A.	c #4C4B46",
"B.	c #67645B",
"C.	c #EEEED6",
"D.	c #F4F3DF",
"E.	c #F4F3E1",
"F.	c #AAAB9B",
"G.	c #5B584F",
"H.	c #676559",
"I.	c #E0E2CC",
"J.	c #E6E8D2",
"K.	c #E7E8D6",
"L.	c #E0E1CF",
"M.	c #DBDCCA",
"N.	c #C3C0AD",
"O.	c #B3B2A0",
"P.	c #ABAA98",
"Q.	c #5A5750",
"R.	c #CFCEBA",
"S.	c #DBDDC7",
"T.	c #E1E2D0",
"U.	c #CECFBF",
"V.	c #C3C2B0",
"W.	c #64645C",
"X.	c #C9C7B8",
"Y.	c #B7B8A8",
"Z.	c #87877D",
"`.	c #B2B3A5",
" +	c #87887A",
".+	c #7C7B76",
"++	c #858579",
"@+	c #8D8D83",
"#+	c #99998D",
"$+	c #8F8F85",
"%+	c #88867A",
"&+	c #888679",
"*+	c #B1B39E",
"=+	c #4A4944",
"-+	c #4B4C44",
";+	c #585951",
">+	c #66665A",
",+	c #7D7E70",
"'+	c #7D7D73",
")+	c #292A25",
"                                        . . . . .                                         ",
"                              + + + + + @ @ # # $ + % + + +                               ",
"                          & % @ @ * @ @ = = - ; > @ , @ , @ + .                           ",
"                      . + @ ' ; ; ; ; ; ) ! ! ! ) ; ; ; ; ; ~ # + +                       ",
"                    { + * = ] ! ! ! ) ^ / / / / / ^ ) ) ! ! ; ( @ _ .                     ",
"                . + ~ ' ; ] ! / : : / < [ } [ [ [ | / / / / ! ; - ~ @ + +                 ",
"              { + @ ; ; ! ! / : [ [ [ [ 1 1 2 2 2 3 [ [ 4 / / ! ) 5 6 @ + +               ",
"            . 7 ~ ; ; ! / < [ [ 2 1 1 1 8 9 8 8 8 1 1 1 0 [ [ : / ! ; ; @ 7 .             ",
"          + + @ ; ! ! / / } 2 1 8 8 8 9 a a b b b 8 8 8 c 1 2 [ : / ^ ) = @ + .           ",
"          + ~ ; ) ! / [ [ 1 1 8 8 a a d e f e e e a a a a 9 g 1 h [ / i j = @ +           ",
"        + @ ; ] ! / 4 2 2 8 8 a a e e e k k l m l n e o a a 8 8 1 1 [ / j p = @ +         ",
"      . + @ q r : 4 s t u 8 b e e k k k v v w v v k k k x x a y 9 1 2 [ / ! 5 ~ + +       ",
"      + @ = ^ : / 4 t z t A B l k v v v C C C C C v D v k k e d a 8 1 [ / / ) - @ +       ",
"    + @ ( ; ! / E t z F A t G l v v H I J K K K K L I M v N k e d O 8 1 [ : ! ; = @ {     ",
"    + P ; ! / 4 t s u b B G Q R S C J J T T U U V K W I C v v k e b 8 1 2 [ / ! = @ +     ",
"  % ~ ; ) / X t Y u b e l l R Q Z `  ...+.@.+.+.+.U U K K #.v N k e a 9 1 [ / / ! 5 7 .   ",
"  + ~ ; ) X t Y u 8 a e k D S Z Q $.%.+.&.&.*.*.*.+.+.U K K C v k x a a c 1 4 / ! ; 7 .   ",
"  . # ( =.-.4 2 8 y o l v v ;.J $.Q >.,.*.'.'.'.&.&.+.+.U K C v v k e a ).!.4 / ! ; @ .   ",
"  { # ~.-.{.[ 1 ].a e l v C K U %.%.^./.(._.:.:.'.'.*.+.+.U <.C v k e a [.!.[ / ! ; @ +   ",
"  . 7 -.) / [ 1 9 a x k }.C K U |.*./.^.1.2.3.3.:.4.'.&.+.U K #.v k n a 8 1 [ : ! ; , +   ",
". 5.-.6./ [ 1 c a e k v C ` ..+.7.8.9.0.Q a.b.b.3.:.'.&.+.+.c.K C v l e b 8 2 [ < ! 6 @ . ",
". -.( ) / [ 1 8 a e k w C <.U +.&.'.4.d.e.Q f.g.h.i.:.'.&.j.k.<.C v l e a 8 2 [ / ! ( ~ . ",
"l.7 ( ^ / [ 1 8 a e k v m.<.U +.&.'.:.3.a.n.o.f.p.i.:.'.&.q.r.<.C v m e a 9 2 [ / ! ( ~ . ",
"% @ ; ! s.t.1 u.a x k v m.<.V +.&.'.:.v.b.b.f.o.a.2._.'.w.+.c.x.C v l e a 9 2 [ / y.z.-.. ",
"+ @ A.) B.t.2 8 a x k v C <.U +.@.&.'.:.C.b.D.E.Q 1.(.*.+.+.U K I v F.n d 8 2 4 / ) -.$ . ",
"  + # ( G.H.[ 1 9 a e k v C K T +.*.I.J.:.3.3.d.K.Q L.M.+.U N.I O.P.e a 8 1 4 X 6.-.7 +   ",
"  { # ( Q.s.[ 2 8 a e l v C K T R.|.S.I.'.:.:.4.T.L.Q U.%. .V.I O.P.e a 8 2 4 W.-.6 7 %   ",
"  . # ( ) / [ 2 8 a e k v v I J U |.|.*.&.'.'.'.*.*.>.^.$.` C v v k e a 8 2 E t ! ; @ +   ",
"  . # ( ) < [ 2 8 8 a x N v I J K U R.+.&.&.&.&.&.+.%.X.Q Z Y.v k x a b u Z.t X ! ] @ +   ",
"  { 7 6 ) / / [ g u.a e k k v C <.<.U U +.+.+.+.+.U U J Z Q `.l l e b u s t X / ) ; @ +   ",
"    % @ ; ! / 4 2  +8 a e k v v m.m.K K U U U U U K K #.S R Q G B b F Y t .+X ^ ; @ +     ",
"    + @ ; ; ! / 4 ++8 9 a o k k v v C C <.<.W J ` C C v v F.G t A A @+t E X ) ; 6 @ {     ",
"      + ~ ; ) / / [ 2 8 a a e k N v v v C m.I I C v v v k l B #+t $+t E / / ) ; @ +       ",
"      . _ P ; ) / [ %+&+8 9 a e e l l k v v *+*+v k l l n e b u z t Y 4 / ! ; ~ + +       ",
"        + @ =+; ! / t.&+1 8 8 y a e e e k k k k k x e o a a 8 u Z.Y 4 : ! ; ( # +         ",
"          + @ -+! ! / [ [ 1  +u.8 O a a o e e e e a b b 8 8 1  +[ 4 / ! ;+= @ +           ",
"          . + @ ; ! ! / / } 2 1 8 8 8 9 a a a d a 9 8 8 8 1 1 [ : : ^ ) = @ + .           ",
"            { 7 @ -+; ) X / 4 [ 1 1 1 1 8 8 u.8 8 1 2 2 2 [ [ / / ! 5 ; @ 7 {             ",
"              { + @ =+; ) ) / | [ [ [ [ 1 1 1 1 2 [ [ [ } : / ! ! ; ; ~ + .               ",
"                . + 7 @ ; ; ! : >+/ / : h ,+[ [ '+/ / / / / ) ; = , 7 + .                 ",
"                    . + ~ ; ] ! ! ! ^ ! : : / / / ! ! ! ! ) ; ( @ % .                     ",
"                      . + @ @ = = = ; ; ! ! ! ! ) ; ; - ; 5 @ 7 + .                       ",
"                          + + @ @ @ ~ ~ ; ] ; ; ; ~ ~ ~ ~ ~ + .                           ",
"                              { . + + _ P P @ @ @ + + + + .                               ",
"                                        _ _ + )++                                         "};
