/* XPM */
static char * iae_iae_icon1[] = {
"41 41 17 1",
" 	c None",
".	c #000000",
"+	c #FFFFFF",
"@	c #D9D9D9",
"#	c #686868",
"$	c #C7C7C7",
"%	c #4D4D4D",
"&	c #D0D0D0",
"*	c #A7A7A7",
"=	c #8C8C8C",
"-	c #BDBDBD",
";	c #7C7C7C",
">	c #9A9A9A",
",	c #E9E9E9",
"'	c #B2B2B2",
")	c #E1E1E1",
"!	c #F0F0F0",
".........................................",
".+++++++++++++++++++++++++++++++++++++++.",
".+++++++++++++++++++++++++++++++++++++++.",
".+++++++++++++++++++++++++++++++++++++++.",
".+++++++++++++++++++++++++++++++++++++++.",
".+++++++++++++++++++++++++++++++++++++++.",
".+++++++++++++++++++++++++++++++++++++++.",
".++++++++++@#.$+++++++++++++++++++++++++.",
".++++++++++%...+++++++++++++++++++++++++.",
".+++++++++$@&%*+++++++++++++++++++++++++.",
".+++++++++*@++++++++++++++++++++++++++++.",
".+++++++++=-++++++++++++++++++++++++++++.",
".+++++++++=-+++++++++*;+++++++++++++++++.",
".+++++++++=>+++++++++%.,++++++++++++++++.",
".+++++++++;=++++++++&..'++++++++++++++++.",
".+++++++++.=++++++++;).%++++++++++++++++.",
".+++++++++..+++++++)=+;.&+++++++++++++++.",
".+++++++++..+++++++*@+&.>+++++++++++++++.",
".+++++++++..+++++++#+++..!++++++++++++++.",
".+++++++++..++++++--+++*.$++++++++++++++.",
".+++++++++..++++++#!+++).#++++++++++++++.",
".+++++++++..+++++@*+++++#.)+++++++++++++.",
".+++++++++..+++++>........*+++++++++++++.",
".+++++++++;%++++!#++++++!.%+++++++++++++.",
".+++++++++==++++'$+++++++=.&++++++++++++.",
".+++++++++==++++#++++++++&.=++++++++++++.",
".+++++++++*=+++-*+++++++++..)+++++++++++.",
".+++++++++-=++&.>!+++++++!..%)++++++++++.",
".+++++++++&'+=....-+++++-.....=+++++++++.",
".++++++>.&@&++++++++++++++++++++++++++++.",
".++++++...%+++++++++++++++++++++++++++++.",
".++++++-.#,+++++++++++++++++++++++++++++.",
".+++++++++++++++++++++++++++++++++++++++.",
".+++++++++++++++++++++++++++++++++++++++.",
".+++++++++++++++++++++++++++++++++++++++.",
".+++++++++++++++++++++++++++++++++++++++.",
".+++++++++++++++++++++++++++++++++++++++.",
".+++++++++++++++++++++++++++++++++++++++.",
".+++++++++++++++++++++++++++++++++++++++.",
".+++++++++++++++++++++++++++++++++++++++.",
"........................................."};
