/* XPM */
static char * kineticsest_kineticsest_icon1[] = {
"79 121 3 1",
" 	c None",
".	c #000000",
"+	c #FFFFFF",
"                                       .                                       ",
"                                       .                                       ",
"                                       .                                       ",
"                                       .                                       ",
"                                       .                                       ",
"                                       .                                       ",
"                                       .                                       ",
"                                       .                                       ",
"                                       .                                       ",
"                                       .                                       ",
"                                       .                                       ",
"                                       .                                       ",
"...............................................................................",
".+++++++++.++++++++++++++++++++++++++++.++++++++++++++++++++++++++++.+++++++++.",
".+++++++++.++++++++++++++++++++++++++++.++++++++++++++++++++++++++++.+++++++++.",
".+++++++++.++++++++++++++++++++++++++++.++++++++++++++++++++++++++++.+++++++++.",
".+++++++++.++++++++++++++++++++++++++++.++++++++++++++++++++++++++++.+++++++++.",
".+++++++++.++++++++++++++++++++++++++++.++++++++++++++++++++++++++++.+++++++++.",
".+++++++++.++++++++++++++++++++++++++++.++++++++++++++++++++++++++++.+++++++++.",
".+++++++++.++++++++++++++++++++++++++++.++++++++++++++++++++++++++++.+++++++++.",
".+++++++++.++++++++++++++++++++++++++++.++++++++++++++++++++++++++++.+++++++++.",
".+++++++++.++++++++++++++++++++++++++++.++++++++++++++++++++++++++++.+++++++++.",
".+++++++++.++++++++++++++++++++++++++++.++++++++++++++++++++++++++++.+++++++++.",
".+++++++++.++++++++++++++++++++++++++++.++++++++++++++++++++++++++++.+++++++++.",
".+++++++++.++++++++++++++++++++++++++++.++++++++++++++++++++++++++++.+++++++++.",
".+++++++++.++++++++++++++++++++++++++++.++++++++++++++++++++++++++++.+++++++++.",
".+++++++++.++++++++++++++++++++++++++++.++++++++++++++++++++++++++++.+++++++++.",
".+++++++++.++++++++++++++++++++++++++++.++++++++++++++++++++++++++++.+++++++++.",
".+++++++++.++++++++++++++++++++++++++++.++++++++++++++++++++++++++++.+++++++++.",
".+++++++++.++++++++++++++++++++++++++++.++++++++++++++++++++++++++++.+++++++++.",
".+++++++++.++++++++++++++++++++++++++++.++++++++++++++++++++++++++++.+++++++++.",
".+++++++++.++++++++++++++++++++++++++++.++++++++++++++++++++++++++++.+++++++++.",
".+++++++++.++++++++++++++++++++++++++++.++++++++++++++++++++++++++++.+++++++++.",
".+++++++++.++++++++++++++++++++++++++++.++++++++++++++++++++++++++++.+++++++++.",
".+++++++++.++++++++++++++++++++++++++++.++++++++++++++++++++++++++++.+++++++++.",
".+++++++++.++++++++++++++++++++++++++++.++++++++++++++++++++++++++++.+++++++++.",
".+++++++++.++++++++++++++++++++++++++++.++++++++++++++++++++++++++++.+++++++++.",
".+++++++++.++++++++++++++++++++++++++++.++++++++++++++++++++++++++++.+++++++++.",
".+++++++++.++++++++++++++++++++++++++++.++++++++++++++++++++++++++++.+++++++++.",
".+++++++++.++++++++++++++++++++++++++++.++++++++++++++++++++++++++++.+++++++++.",
".+++++++++.++++++++++++++++++++++++++++.++++++++++++++++++++++++++++.+++++++++.",
".+++++++++.++++++++++++++++++++++++++++.++++++++++++++++++++++++++++.+++++++++.",
".+++++++++.++++++++++++++++++++++++++++.++++++++++++++++++++++++++++.+++++++++.",
".+++++++++.++++++++++++++++++++++++++++.++++++++++++++++++++++++++++.+++++++++.",
".+++++++++.++++++++++++++++++++++++++++.++++++++++++++++++++++++++++.+++++++++.",
".+++++++++.++++++++++++++++++++++++++++.++++++++++++++++++++++++++++.+++++++++.",
".+++++++++.++++++++++++++++++++++++++++.++++++++++++++++++++++++++++.+++++++++.",
".+++++++++.++++++++++++++++++++++++++++.++++++++++++++++++++++++++++.+++++++++.",
".+++++++++.++++++++++++++++++++++++++++.++++++++++++++++++++++++++++.+++++++++.",
".+++++++++.++++++++++++++++++++++++++++.++++++++++++++++++++++++++++.+++++++++.",
".+++++++++.++++++++++++++++++++++++++++.++++++++++++++++++++++++++++.+++++++++.",
".+++++++++.++++++++++++++++++++++++++++.++++++++++++++++++++++++++++.+++++++++.",
".+++++++++.++++++++++++++++++++++++++++.++++++++++++++++++++++++++++.+++++++++.",
".+++++++++.++++++++++++++++++++++++++++.++++++++++++++++++++++++++++.+++++++++.",
".+++++++++.++++++++++++++++++++++++++++.++++++++++++++++++++++++++++.+++++++++.",
".+++++++++.++++++++++++++++++++++++++++.++++++++++++++++++++++++++++.+++++++++.",
".+++++++++.++++++++++++++++++++++++++++.++++++++++++++++++++++++++++.+++++++++.",
".+++++++++.++++++++++++++++++++++++++++.++++++++++++++++++++++++++++.+++++++++.",
".+++++++++.++++++++++++++++++++++++++++.++++++++++++++++++++++++++++.+++++++++.",
".+++++++++.++++++++++++++++++++++++++++.++++++++++++++++++++++++++++.+++++++++.",
".+++++++++.++++++++++++++++++++++++++++.++++++++++++++++++++++++++++.+++++++++.",
".+++++++++.++++++++++++++++++++++++++++.++++++++++++++++++++++++++++.+++++++++.",
".+++++++++.++++++++++++++++++++++++++++.++++++++++++++++++++++++++++.+++++++++.",
".+++++++++.++++++++++++++++++++++++++++.++++++++++++++++++++++++++++.+++++++++.",
".+++++++++.++++++++++++++++++++++++++++.++++++++++++++++++++++++++++.+++++++++.",
".+++++++++.++++++++++++++++++++++++++++.++++++++++++++++++++++++++++.+++++++++.",
".+++++++++.++++++++++++++++++++++++++++.++++++++++++++++++++++++++++.+++++++++.",
".+++++++++.++++++++++++++++++++++++++++.++++++++++++++++++++++++++++.+++++++++.",
".+++++++++.++++++++++++++++++++++++++++.++++++++++++++++++++++++++++.+++++++++.",
".+++++++++.++++++++++++++++++++++++++++.++++++++++++++++++++++++++++.+++++++++.",
".+++++++++.++++++++++++++++++++++++++++.++++++++++++++++++++++++++++.+++++++++.",
".+++++++++.++++++++++++++++++++++++++++.++++++++++++++++++++++++++++.+++++++++.",
".+++++++++.++++++++++++++++++++++++++++.++++++++++++++++++++++++++++.+++++++++.",
".+++++++++.++++++++++++++++++++++++++++.++++++++++++++++++++++++++++.+++++++++.",
".+++++++++.++++++++++++++++++++++++++++.++++++++++++++++++++++++++++.+++++++++.",
".+++++++++.++++++++++++++++++++++++++++.++++++++++++++++++++++++++++.+++++++++.",
".+++++++++.++++++++++++++++++++++++++++.++++++++++++++++++++++++++++.+++++++++.",
".+++++++++.++++++++++++++++++++++++++++.++++++++++++++++++++++++++++.+++++++++.",
".+++++++++.++++++++++++++++++++++++++++.++++++++++++++++++++++++++++.+++++++++.",
".+++++++++.++++++++++++++++++++++++++++.++++++++++++++++++++++++++++.+++++++++.",
".+++++++++.++++++++++++++++++++++++++++.++++++++++++++++++++++++++++.+++++++++.",
".+++++++++.++++++++++++++++++++++++++++.++++++++++++++++++++++++++++.+++++++++.",
".+++++++++.++++++++++++++++++++++++++++.++++++++++++++++++++++++++++.+++++++++.",
".+++++++++.++++++++++++++++++++++++++++.++++++++++++++++++++++++++++.+++++++++.",
".+++++++++.++++++++++++++++++++++++++++.++++++++++++++++++++++++++++.+++++++++.",
".+++++++++.++++++++++++++++++++++++++++.++++++++++++++++++++++++++++.+++++++++.",
".+++++++++.++++++++++++++++++++++++++++.++++++++++++++++++++++++++++.+++++++++.",
".+++++++++.++++++++++++++++++++++++++++.++++++++++++++++++++++++++++.+++++++++.",
".+++++++++.++++++++++++++++++++++++++++.++++++++++++++++++++++++++++.+++++++++.",
".+++++++++.++++++++++++++++++++++++++++.++++++++++++++++++++++++++++.+++++++++.",
".+++++++++.++++++++++++++++++++...+++++.++++....++++++++++++++++++++.+++++++++.",
".+++++++++.+++++++++++++++++...+++...++.+...++++....++++++++++++++++.+++++++++.",
".+++++++++.+++++++++++++++..+++++++++.+..+++++++++++.+++++++++++++++.+++++++++.",
".+++++++++.+++++++++++++++.+++++++++++..+++++++++++++.++++++++++++++.+++++++++.",
".+++++++++.++++++++++++++.++++++++++++..++++++++++++++.+++++++++++++.+++++++++.",
".+++++++++.++++++++++++++.++++++++++++..++++++++++++++.+++++++++++++.+++++++++.",
".+++++++++.++++++++++++++.++++++++++++..++++++++++++++.+++++++++++++.+++++++++.",
".+++++++++.+++++++++++++++.+++++++++++..+++++++++++++.++++++++++++++.+++++++++.",
".+++++++++.++++++++++++++++.+++++++++.++.+++++++++++.+++++++++++++++.+++++++++.",
".+++++++++.+++++++++++++++++...+++...++++...++++....++++++++++++++++.+++++++++.",
".+++++++++.++++++++++++++++++++...++++++++++....++++++++++++++++++++.+++++++++.",
".+++++++++.+++++++++++++++++++++++++++++++++++++++++++++++++++++++++.+++++++++.",
".+++++++++.+++++++++++++++++++++++++++++++++++++++++++++++++++++++++.+++++++++.",
".+++++++++.+++++++++++++++++++++++++++++++++++++++++++++++++++++++++.+++++++++.",
".+++++++++.+++++++++++++++++++++++++++++++++++++++++++++++++++++++++.+++++++++.",
".+++++++++.+++++++++++++++++++++++++++++++++++++++++++++++++++++++++.+++++++++.",
".+++++++++.+++++++++++++++++++++++++++++++++++++++++++++++++++++++++.+++++++++.",
".+++++++++.+++++++++++++++++++++++++++++++++++++++++++++++++++++++++.+++++++++.",
".+++++++++.+++++++++++++++++++++++++++++++++++++++++++++++++++++++++.+++++++++.",
".+++++++++.+++++++++++++++++++++++++++++++++++++++++++++++++++++++++.+++++++++.",
".+++++++++..........................................................++++++++++.",
".+++++++++++++++++++++++++++++++++++++++++++++++++++++++++++++++++++++++++++++.",
".+++++++++++++++++++++++++++++++++++++++++++++++++++++++++++++++++++++++++++++.",
".+++++++++++++++++++++++++++++++++++++++++++++++++++++++++++++++++++++++++++++.",
".+++++++++++++++++++++++++++++++++++++++++++++++++++++++++++++++++++++++++++++.",
".+++++++++++++++++++++++++++++++++++++++++++++++++++++++++++++++++++++++++++++.",
".+++++++++++++++++++++++++++++++++++++++++++++++++++++++++++++++++++++++++++++.",
".+++++++++++++++++++++++++++++++++++++++++++++++++++++++++++++++++++++++++++++.",
".+++++++++++++++++++++++++++++++++++++++++++++++++++++++++++++++++++++++++++++.",
".+++++++++++++++++++++++++++++++++++++++++++++++++++++++++++++++++++++++++++++.",
"..............................................................................+"};
