/* XPM */
static char * measurement_measurement_measure4[] = {
"33 34 4 1",
" 	c None",
".	c #000000",
"+	c #FFFFFF",
"@	c #FEFEFE",
"    .........................    ",
"    .+++++++++++++++++++++++.    ",
"   .++++++@++++++++++++++++++.   ",
"   .+++++++++++++++++++++++++.   ",
"  .+++++++++++++++++++++++++++.  ",
"  .++++++++@++++++++++++++++++.  ",
"  .+++++++++++++++++++++++++++.  ",
" .+++++++++++++++++++++++++++++. ",
" .@++++++++++++++++++++++++++++. ",
".+++++++++++++++++++++++++++++++.",
".++++++++++++++++++++++++++++@++.",
".+++++++++++++++++++++++++++++++.",
" .+++++++++++++++++++++++++++++. ",
" .+++++++++++++++++++++++++++++. ",
"  .+++++++++++++++++++++++++++.  ",
"  .+++++++++++++++@+++++++++++.  ",
"   .+++++++++++++++@+++++++++.   ",
"   .+++++++++++++@+++++++++++.   ",
"    .+++++++++++++++++++++++.    ",
"    .........................    ",
"                .                ",
"                .                ",
"                .                ",
"                .                ",
"                .                ",
"                .                ",
"                .                ",
"                .                ",
"                .                ",
"                .                ",
"                .                ",
"                .                ",
"                .                ",
"                .                "};
