/* XPM */
static char *measurement_measurement_aindictr[] = {
/* columns rows colors chars-per-pixel */
"21 35 14 1",
"  c black",
". c #010101",
"X c #B1B1B1",
"o c #B2B2B2",
"O c gray74",
"+ c gray",
"@ c #D0D0D0",
"# c gray85",
"$ c gray91",
"% c #E9E9E9",
"& c gray94",
"* c #FDFDFD",
"= c #FEFEFE",
"- c gray100",
/* pixels */
"--------     --------",
"-----   -----  ------",
"---- ---*------  ----",
"--- -------*----- ---",
"-- ------*-------- --",
"-- --------------- --",
"- ----------------- -",
"- ----------$------ -",
" ------+%---O------- ",
" -----%@o---O------- ",
" -----#-O&--X------- ",
" ------------------- ",
" ------------------- ",
"- ----------------- -",
"- ----------------- -",
"-                  --",
"-- --------------- --",
"--- ------------- ---",
"---- ----------  ----",
"-----   -----  ------",
"--------     --------",
"---------- ----------",
"---------- ----------",
"---------- ----------",
"---------- ----------",
"---------- ----------",
"---------- ----------",
"---------- ----------",
"---------- ----------",
"---------- ----------",
"---------- ----------",
"---------- ----------",
"---------- ----------",
"---------- ----------",
"---------- ----------"
};
