/* XPM */
static char *measurement_measurement_tcontlr[] = {
/* columns rows colors chars-per-pixel */
"21 35 16 1",
"  c black",
". c #010101",
"X c gray65",
"o c #BCBCBC",
"O c gray74",
"+ c gray",
"@ c gray78",
"# c gray85",
"$ c gray88",
"% c #E1E1E1",
"& c #EAEAEA",
"* c gray94",
"= c #F1F1F1",
"- c #FDFDFD",
"; c #FEFEFE",
": c gray100",
/* pixels */
"::::::::     ::::::::",
":::::   :::::  ::::::",
":::: ::::::::::  ::::",
"::: ::::::::::::: :::",
":: ::::::::::::::: ::",
":: ::::::::::::::: ::",
": ::::::::::::::::: :",
": ::::&##:::%#::::: :",
" ::::::o*::@:*:::::: ",
" ::::::o:::o:::::::: ",
" ::::::X:::###:::::: ",
" ::::::::::::::::::: ",
" ::::::::::::::::::: ",
": ::::::::::::::::: :",
": ::::::::::::::::: :",
":                  ::",
":: ::::::::::::::: ::",
"::: ::::::::::::: :::",
":::: ::::::::::  ::::",
":::::   :::::  ::::::",
"::::::::     ::::::::",
":::::::::: ::::::::::",
":::::::::: ::::::::::",
":::::::::: ::::::::::",
":::::::::: ::::::::::",
":::::::::: ::::::::::",
":::::::::: ::::::::::",
":::::::::: ::::::::::",
":::::::::: ::::::::::",
":::::::::: ::::::::::",
":::::::::: ::::::::::",
":::::::::: ::::::::::",
":::::::::: ::::::::::",
":::::::::: ::::::::::",
":::::::::: ::::::::::"
};
