/* XPM */
static char * measurement_measurement_measure3[] = {
"35 34 4 1",
" 	c None",
".	c #000000",
"+	c #FFFFFF",
"@	c #FEFEFE",
"             .........             ",
"         ....+++++++++....         ",
"       ..++++++@++++++++++..       ",
"     ..+++++++++++++++++++++..     ",
"    .+++++++++++++++++++++++++.    ",
"   .+++++++++++++++++++++++++++.   ",
"  .+++++++++++++++++++++++++++++.. ",
" .+++++++++++++++++++++++++++++++. ",
" .+++++++++++++++++++++++++++++++. ",
".+++++++++++++++++++++++++++++++++.",
".++++++++++++++++++++++++++++@++++.",
".++++++++++++++++++++++++@++++++++.",
" .+++++++++++++++++++++++++++++++. ",
" .+++++++++++++++++++++++@+++++++. ",
"  .++++++++++++@++++++++++++++++.. ",
"   .++@++++++++++++++++++++++++.   ",
"    .+++++++++++++++++++++++++.    ",
"     ..+++++++++++++++++++++..     ",
"       ..+++++++++++++++++..       ",
"         ....++++.++++....         ",
"             .........             ",
"                 .                 ",
"                 .                 ",
"                 .                 ",
"                 .                 ",
"                 .                 ",
"                 .                 ",
"                 .                 ",
"                 .                 ",
"                 .                 ",
"                 .                 ",
"                 .                 ",
"                 .                 ",
"                 .                 "};
