/* XPM */
static char * mheatx_mheatx_counter2[] = {
"73 72 258 2",
"  	c None",
". 	c #282826",
"+ 	c #282924",
"@ 	c #282923",
"# 	c #272823",
"$ 	c #3B3C37",
"% 	c #3B3C36",
"& 	c #3B3C34",
"* 	c #4B4A45",
"= 	c #4B4B43",
"- 	c #4A4B46",
"; 	c #4B4B41",
"> 	c #4A4B45",
", 	c #595951",
"' 	c #59594F",
") 	c #5B584F",
"! 	c #585953",
"~ 	c #65655D",
"{ 	c #65655B",
"] 	c #676559",
"^ 	c #67645B",
"/ 	c #656559",
"( 	c #64655F",
"_ 	c #717169",
": 	c #717165",
"< 	c #717167",
"[ 	c #707169",
"} 	c #7C7C74",
"| 	c #7C7C70",
"1 	c #7C7D6F",
"2 	c #7C7C72",
"3 	c #7C7D75",
"4 	c #7D7D71",
"5 	c #7B7C74",
"6 	c #86867C",
"7 	c #868779",
"8 	c #87887A",
"9 	c #858678",
"0 	c #86867A",
"a 	c #85867E",
"b 	c #8E8E84",
"c 	c #8E8F81",
"d 	c #8D8E80",
"e 	c #8F9082",
"f 	c #8E8E82",
"g 	c #8D8F84",
"h 	c #8E8F7F",
"i 	c #8F8F83",
"j 	c #8F9080",
"k 	c #98988C",
"l 	c #989989",
"m 	c #98998B",
"n 	c #010100",
"o 	c #99998D",
"p 	c #999A8A",
"q 	c #96988D",
"r 	c #A0A094",
"s 	c #A0A191",
"t 	c #A0A193",
"u 	c #A0A096",
"v 	c #9FA090",
"w 	c #A1A195",
"x 	c #A1A294",
"y 	c #9FA196",
"z 	c #010200",
"A 	c #A0A18F",
"B 	c #A9AA9C",
"C 	c #A9AA98",
"D 	c #AAAB99",
"E 	c #A9AA9A",
"F 	c #A9A99D",
"G 	c #A8A997",
"H 	c #A9AB96",
"I 	c #AAAB9B",
"J 	c #A8AA9F",
"K 	c #B1B2A4",
"L 	c #B1B2A0",
"M 	c #B1B2A2",
"N 	c #B1B1A5",
"O 	c #B2B3A3",
"P 	c #020300",
"Q 	c #B1B39E",
"R 	c #B2B3A1",
"S 	c #B0B2A7",
"T 	c #B0B3A0",
"U 	c #AFB29F",
"V 	c #B0B19F",
"W 	c #B8B8AC",
"X 	c #B8B9A9",
"Y 	c #B8B9A7",
"Z 	c #B8B9AB",
"` 	c #B7B8A6",
" .	c #B7BAA7",
"..	c #B9BAAA",
"+.	c #B7B9A4",
"@.	c #B9BAA8",
"#.	c #B7B8A8",
"$.	c #B7B9AE",
"%.	c #C2C0B1",
"&.	c #C2C1AF",
"*.	c #C2C1AD",
"=.	c #C0C2AD",
"-.	c #C0C1B1",
";.	c #C1BFB0",
">.	c #C1C0AE",
",.	c #030100",
"'.	c #C2C0B4",
").	c #C3C1B2",
"!.	c #C3C2B0",
"~.	c #020200",
"{.	c #000100",
"].	c #C0C0B8",
"^.	c #C0C0B4",
"/.	c #C0C1B3",
"(.	c #C2C1AC",
"_.	c #C0C1AF",
":.	c #C3C0AD",
"<.	c #C3C1B4",
"[.	c #C2C0B3",
"}.	c #C3C1B5",
"|.	c #C1C1B5",
"1.	c #C7C7BB",
"2.	c #C9C8B6",
"3.	c #C9C7B8",
"4.	c #C9C8B4",
"5.	c #C7C8B8",
"6.	c #C7C8B6",
"7.	c #CAC9B5",
"8.	c #C9C8B3",
"9.	c #CAC8BB",
"0.	c #C9C7BA",
"a.	c #C8C7B5",
"b.	c #CAC7B4",
"c.	c #D0CEBF",
"d.	c #D0CFBB",
"e.	c #D0CFBD",
"f.	c #D0CFBA",
"g.	c #CECFBD",
"h.	c #D0CEC1",
"i.	c #D1D0BC",
"j.	c #D1CEBB",
"k.	c #CFCFC3",
"l.	c #D1CFBA",
"m.	c #CED0BB",
"n.	c #D1CFC0",
"o.	c #CECEC2",
"p.	c #D7D5C6",
"q.	c #D7D6C1",
"r.	c #D7D6C2",
"s.	c #D8D6C1",
"t.	c #D6D8C3",
"u.	c #D4D5C3",
"v.	c #D7D6C4",
"w.	c #D5D6C4",
"x.	c #D5D6C6",
"y.	c #D7D5C8",
"z.	c #D6D5C0",
"A.	c #D5D6C8",
"B.	c #DDDBCC",
"C.	c #DDDCC7",
"D.	c #DDDCC8",
"E.	c #DBDDC7",
"F.	c #DDDCCA",
"G.	c #DBDCCA",
"H.	c #DBDCCC",
"I.	c #DBDCCE",
"J.	c #DCDBC9",
"K.	c #DEDDC8",
"L.	c #E2E0D1",
"M.	c #E2E1CC",
"N.	c #E2E1CD",
"O.	c #E3E2CE",
"P.	c #E0E1CF",
"Q.	c #E2E1CF",
"R.	c #E0E1D3",
"S.	c #E8E6D7",
"T.	c #E8E7D2",
"U.	c #E6E7D5",
"V.	c #E6E8D3",
"W.	c #E8E7D3",
"X.	c #E7E6D1",
"Y.	c #E9E8D3",
"Z.	c #E6E7D9",
"`.	c #E9E7D2",
" +	c #E8E8D0",
".+	c #E8E6D9",
"++	c #EEECDD",
"@+	c #EEEDD8",
"#+	c #EFEDD8",
"$+	c #EEEED6",
"%+	c #EFEFD7",
"&+	c #EEEDD9",
"*+	c #EEECDF",
"=+	c #F4F3E1",
"-+	c #F4F4DC",
";+	c #F4F3DE",
">+	c #F4F4DA",
",+	c #F4F3DF",
"'+	c #F2F3E5",
")+	c #F1F2E4",
"!+	c #F9F8E6",
"~+	c #F9F9E1",
"{+	c #F9F9DF",
"]+	c #F9F8E3",
"^+	c #F8F9EB",
"/+	c #F7F8EA",
"(+	c #EEEDDB",
"_+	c #ECEED6",
":+	c #ECEDDF",
"<+	c #E8E7D5",
"[+	c #E6E8D2",
"}+	c #E2E2CA",
"|+	c #E1E0CC",
"1+	c #E3E3CB",
"2+	c #E3E2CD",
"3+	c #E0E2CD",
"4+	c #DCDBC6",
"5+	c #DDDDC5",
"6+	c #DCDBC7",
"7+	c #DEDDC9",
"8+	c #DDDBCE",
"9+	c #DEDEC6",
"0+	c #DCDCD0",
"a+	c #DCDDCB",
"b+	c #D8D7C2",
"c+	c #D8D5C2",
"d+	c #D6D5C3",
"e+	c #D4D5C7",
"f+	c #CECFC1",
"g+	c #CECFBF",
"h+	c #C8C9B7",
"i+	c #C7C9B4",
"j+	c #CAC8B9",
"k+	c #C7C8BA",
"l+	c #C1C0AC",
"m+	c #C3C2AE",
"n+	c #C1BFB2",
"o+	c #BFC1B6",
"p+	c #000200",
"q+	c #B8BAA5",
"r+	c #B9BAAC",
"s+	c #B0B1A9",
"t+	c #B0B2A5",
"u+	c #B1B1A7",
"v+	c #B0B1AB",
"w+	c #A8AA9D",
"x+	c #9FA092",
"y+	c #A1A292",
"z+	c #979888",
"A+	c #98988E",
"B+	c #979890",
"C+	c #8D8E86",
"D+	c #8E9085",
"E+	c #66665A",
"F+	c #64655D",
"G+	c #575852",
"H+	c #4A4B43",
"I+	c #3A3B36",
". . . + + + + + + . . . . . . . . . . . . . . . . + . + . . . . . . . . . . . . . . . . + + . . . . . . . . . . . . . . . . . . . . . . . . . . . ",
"+ + + + + @ + + + + + + + + + + + + . . + + + + + @ + @ + + + + + + + + + + + + + + + + @ @ + + + + + + + + + + + + + + + + + + + + + + + + + + # ",
"$ % % % % % % % % % % % % % % % % % $ $ % % % % % % % % % % % % % % % % $ % $ % % % % % & & % % % % % % % % % % % % % % % % % % $ % $ % % % % $ $ ",
"* = = = = = = = = = = = = = = = = = * = = = = * * * = = = = = = = = = = * = * = = = = = = = = = = = = = = = = = = = = = = = = = * = * = = = = * - ",
"* = = = = = = = = = = = = = = = = = = = ; ; = = = = = = = = = = = = = = = = = = = = = = = = = = = = = = = = = = = = = = = = = = = = = = = = = = > ",
", ' ' ' ) ) ) ) ' ' ' ' ' ' ' ' ' ' ' ' ' ' ' ' ' ' ' ' ' ' ' ' ' ' ' ' ' ' ' ' ' ' ' ' ' ' ' ' ' ' ' ' , , ' ' ' ' ' ' ' ' ' ' ' ' ' ' ' ' ' , ! ",
"~ { { { ] ] ^ ^ { { { { { { / / { { { { { { { { { { { { { { { { { { { { { { { { { { { { { { { { { { { { { { { { { { { { { { { { { { { { { { { ~ ( ",
"~ / { { / / { { / / { { / / { { / / { { / / { { / / { { / / { { / / { { / / { { / / { { / / { { / { { { { { { { / / { { / / { { / / { { / / { ~ ( ",
"_ : < < : : < : : : < < : : < < : : < : : : : < : : < < : : < < : : < < : : < < : : < < : : < < : : < < : : < < : : < < : : < < : : < < : : < < [ ",
"} | | | | | | | | 1 | | | | | | | | | | | | | | | | | | | | | | | | | | | | | | | | | | | | | | | | | | | | | | | | | | | | | | | | | | | | | 2 3 ",
"2 | | | | | | | 1 1 | | | | | | | | | | | | | | | | | | | | 4 | | | | | | | | | | | | | | | | | | | | | | | | | | | | | | | | | | | | | | | | | 5 ",
"6 7 7 7 7 7 7 7 7 7 7 7 7 7 7 7 7 7 7 7 7 7 7 8 7 7 7 7 8 9 7 7 7 7 7 7 7 7 7 7 7 7 7 7 7 7 7 7 7 7 7 7 7 7 7 7 7 7 7 7 7 7 7 7 7 7 7 7 7 7 7 0 a ",
"b c c c c c c c c c c c c c c c c c c c d e c c d c c c c c c c c c c c c c c c c c c c c c c c c c c c c c c c c c c c c c c c c c c c c c c f g ",
"f h c c h h h h h h h h h h c c h h c c h c i f c h d c h j c c h h c c h h c c h h c c h h h h h c f f c h c c h h c c h h c c h h c c h h c f g ",
"k l m m l l l l l l l l l l m m l l m m m k n o m p m m l p m m l l m m l l m m l l m m l l l l l m k n m m m m l l m l l l l m l l m l l l l k q ",
"r s s s s s s s s s s s s s s s s s s t u n u n t t t t t t v s s s s s s s s s s s s s s s s s t t n w n w x s s s s s s s s s s s s s s s s t y ",
"r s s s s s s s s s s s s s s s s s t r n u r t z t t t t s s s s s s s s s s s s A s s s s s s t z t r r n x t s s s s s s s s s s s s s s s t y ",
"B C C C C C C C C C C C C C C C D E F n B E E E B z B B E C C C G C C C C C C G D H C C C E E B z B E E E E n F I C C C C C C C C C C C C C C E J ",
"K L L L L L L L L L L L L L L L M K n N M L L L O K P K M L L L L L L L L L L L Q Q Q L L M K z K M R L Q L N n K M L L L L L L L L L L L L L M S ",
"K L L L L L Q Q L L L L L L L M K n K M T U T T L M K z K M L V Q Q L L T T L L L L L L M K z K M L L L L L M K n K M L L L L L L L L L Q Q L M S ",
"W X X X X X Y Y X X X X X X X X z Z X Y `  .Y Y Y Y ..X z X X Y +.+.Y Y Y Y Y Y Y Y Y ` Z z Z X Y Y Y Y @.Y Y Y Z z X X X X #.X X X X X Y Y X Z $.",
"n n n n n n n n n n n n n n n z %.&.&.*.*.=.*.*.*.*.&.&.-.z ;.%.>.*.*.*.*.*.&.&.&.&.*.&.,.'.).>.*.*.*.*.*.*.*.*.!.%.,.,.n ~.n n n n n n n n n n {.",
"].^.^.^.^.^.^.^.^.^.^.^.^.^.^./.>.*.*.*.(.(.*.*.*.*.*.*._.-.,.%.&.*.:.:.*.*.&.&.&.&.&.).,.<.&.*.*.*.*.*.*.*.*.*.*.&.[.}.|.^.^.^.^.^.^.^.^.^.^.^.].",
"1.2.2.2.2.2.2.2.2.2.2.2.2.2.3.2.2.4.4.4.4.4.2.2.2.4.4.4.4.2.3.,.5.6.7.8.4.4.4.4.4.2.9.,.0.2.a.4.4.4.b.b.8.8.4.4.4.4.2.2.2.2.2.2.2.2.2.2.2.2.2.5.1.",
"c.d.d.d.d.d.d.d.d.d.d.d.d.d.e.d.d.d.d.d.d.d.e.e.e.d.d.f.d.d.c.c.z g.d.d.d.d.d.d.e.c.,.h.c.d.d.d.i.d.j.j.f.f.d.d.d.d.d.d.d.d.d.d.d.d.d.d.d.d.d.e.k.",
"c.f.d.d.l.l.d.d.f.f.d.d.f.f.d.d.d.f.d.d.f.f.d.d.d.d.d.d.f.d.d.e.g.z e.e.d.f.m.g.h.,.n.e.d.d.d.d.f.f.d.d.f.f.d.d.f.f.d.d.f.f.d.d.f.f.d.d.f.f.d.e.o.",
"p.q.r.r.s.s.r.r.q.q.r.r.q.q.r.r.q.q.r.r.q.q.r.r.r.r.r.r.q.q.r.r.t.u.,.v.r.r.w.x.,.y.v.r.z.q.r.r.q.q.r.q.q.q.q.r.q.q.r.r.q.q.r.r.q.q.r.r.q.q.r.v.A.",
"B.C.C.C.C.C.C.C.C.C.C.C.C.C.C.C.C.C.C.C.C.C.D.D.C.C.C.C.E.E.C.C.C.D.F.,.G.H.I.z F.D.D.D.C.C.C.C.C.C.C.C.C.C.C.C.C.C.C.C.C.C.C.C.C.C.C.C.C.C.C.D.H.",
"B.C.C.C.C.C.C.C.C.C.C.C.C.C.C.C.C.C.C.C.C.C.D.D.C.C.C.C.E.E.C.C.C.D.J.F.z H.z H.D.C.D.D.C.C.K.C.C.C.C.C.C.C.C.C.C.C.C.C.C.C.C.C.C.C.C.C.C.C.C.D.H.",
"L.M.M.M.M.M.M.M.M.M.M.M.M.M.M.M.M.M.M.M.M.M.M.M.M.M.M.M.M.M.M.M.M.M.N.O.P.z Q.N.M.M.M.M.M.M.M.M.M.M.M.M.M.M.M.M.M.M.M.M.M.M.M.M.M.M.M.M.M.M.M.N.R.",
"S.T.T.T.T.T.T.T.T.T.T.T.T.T.T.T.T.T.T.T.T.T.T.T.T.T.T.T.T.T.T.T.T.T.T.T.U.V.W.T.T.T.X.T.Y.T.T.T.T.T.T.T.T.T.T.T.T.T.T.T.T.T.T.T.T.T.T.T.T.T.T.W.Z.",
"S.T.`.`. + +T.T. + +T.T. + +T.T. + +T.T. + +T.T. + +T.T. + +T.T. + +T.T.T.T.T.T. + +T.Y. + +T.T.T.T.T.T. + +T.T.T.T.T.T. + +T.T. + +T.T. + +T.W..+",
"++@+#+#+$+$+@+@+$+$+@+@+$+$+@+@+$+$+@+@+$+$+@+@+$+$+@+@+$+$+@+@+%+$+@+$+$+$+@+@+$+$+@+@+$+$+@+@+@+@+@+@+$+$+@+@+@+@+@+@+$+$+@+@+$+$+@+@+$+$+@+&+*+",
"=+-+-+-+-+-+-+-+-+-+;+;+-+-+-+-+-+-+;+;+-+-+-+-+-+-+-+-+-+-+-+-+-+-+-+-+-+>+-+-+-+-+-+-+-+-+-+-+-+-+-+-+-+-+-+-+-+-+-+-+-+-+-+-+-+-+-+-+-+-+-+,+'+",
"=+-+-+-+-+-+-+-+-+-+;+;+-+-+-+-+-+-+;+;+-+-+-+-+-+-+-+-+-+-+-+-+-+-+-+-+>+>+-+-+-+-+-+-+-+-+-+-+-+-+-+-+-+-+-+-+-+-+-+-+-+-+-+-+-+-+-+-+-+-+-+;+)+",
"!+~+{+{+~+~+{+{+~+~+~+~+~+~+~+~+~+~+~+~+~+~+~+~+~+~+~+~+]+]+~+~+~+~+~+~+~+~+~+~+~+~+~+~+~+~+~+~+~+~+~+~+~+~+~+~+~+~+~+~+~+~+~+~+~+~+~+~+~+~+~+]+^+",
"!+~+{+{+~+~+{+{+~+~+~+~+~+~+~+~+~+~+~+~+~+~+~+~+~+~+~+~+]+]+~+~+~+~+~+~+~+~+~+~+~+~+~+~+~+~+~+~+~+~+~+~+~+~+~+~+~+~+~+~+~+~+~+~+~+~+~+~+~+~+~+]+/+",
"=+-+-+-+>+>+-+-+-+-+-+-+-+-+-+-+-+-+-+-+-+-+-+-+-+-+-+-+-+-+-+-+-+-+-+-+-+-+-+-+-+-+-+-+-+-+-+-+-+-+-+-+-+-+>+>+-+-+-+-+-+-+-+-+-+-+-+-+-+-+-+;+'+",
"=+-+-+-+-+>+-+-+-+-+-+-+-+-+-+-+-+-+-+-+-+-+-+-+-+-+-+-+-+-+-+-+-+-+-+-+-+-+-+-+-+-+-+-+-+-+-+-+-+-+-+-+-+-+-+-+-+-+-+-+-+-+-+-+-+-+-+-+-+-+-+,+'+",
"(+$+@+$+$+$+@+@+$+$+@+@+$+$+@+@+$+$+@+@+$+$+@+@+$+$+@+@+$+$+@+@+$+$+@+@+$+$+@+@+$+$+@+@+$+$+@+@+$+$+@+@+$+$+_+_+$+$+@+@+$+$+@+@+$+$+@+@+$+$+@+&+:+",
"<+ +T.T. + +T.T. + +T.T. + +T.T. + +T.T. + +T.T. + +T.T. + +T.T. + +T.T.T. +T.T. + +T.T. + +T.T. + +T.T. + +[+[+ + +T.T. + +T.T. + +T.T. + +T.W.Z.",
"S.T.T.T.T.T.T.T.T.T. + +T.T.T.T. + +T.T.T.Y.T.Y.T.T.T.T.X.T. + +T.T.W.T.T.T.T.T.T.T.T.Y.T.T.T.T. + +[+[+T.T.T.T.T.T.T.T.T.T.T.T.T.T.T.T.T.T.T.W.Z.",
"L.M.M.M.M.M.M.M.M.M.}+}+M.M.M.M.}+}+M.M.N.N.|+N.M.M.M.M.M.M.1+}+M.M.N.N.M.M.M.M.M.M.2+M.M.M.M.M.}+M.3+3+N.O.M.M.M.M.M.M.M.M.M.M.M.M.M.M.M.M.M.N.R.",
"B.C.C.C.C.C.C.C.C.C.C.C.C.C.C.C.C.C.C.D.F.B.,.B.D.4+C.C.5+5+5+5+C.C.C.C.C.C.C.C.C.C.C.C.C.C.C.C.4+6+I.z H.G.D.C.C.C.C.C.C.C.C.C.C.C.C.C.C.C.C.D.I.",
"B.C.C.C.C.C.C.C.C.C.C.C.C.C.C.C.C.C.7+D.F.,.8+,.F.D.D.C.C.5+9+C.C.C.C.C.C.C.C.C.C.C.C.C.C.C.C.D.D.B.n 0+z a+D.7+C.C.C.C.C.C.C.C.C.C.C.C.C.C.C.D.I.",
"p.q.r.r.q.q.r.r.q.q.r.r.q.q.r.q.b+q.v.v.,.p.w.x.,.y.v.q.q.q.q.q.q.q.r.r.q.q.r.r.q.q.r.r.q.q.c+d+y.n p.p.x.z v.v.r.q.r.r.q.q.r.r.q.q.r.r.q.q.r.v.e+",
"c.f.d.d.d.f.d.d.f.f.d.d.f.f.d.d.f.d.c.,.c.e.m.g.h.,.c.e.d.f.d.i.f.f.d.d.f.f.d.d.d.d.d.d.f.d.e.n.,.f+e.d.g.g+z c.d.f.d.d.f.f.d.d.f.f.d.d.f.f.d.e.f+",
"c.d.e.d.d.d.d.d.d.d.d.d.d.d.d.d.d.e.,.h.g.m.m.m.e.c.,.h.e.d.d.d.d.d.d.d.f.f.d.d.d.d.d.d.d.e.h.,.c.e.d.i.e.g+n f+e.d.d.d.d.d.d.d.d.d.d.d.d.d.d.e.f+",
"0.4.2.2.4.4.4.4.4.4.4.4.4.4.4.4.2.3.,.0.h+i+i+i+7.2.0.,.3.2.4.4.4.4.4.4.8.8.4.4.2.2.4.4.2.j+n k+2.4.4.4.2.2.k+z 3.2.4.4.4.4.4.4.4.4.4.4.4.4.4.2.k+",
"[.*.&.&.:.:.:.:.*.*.*.*.*.*.*.&.[.,.%.&.*.*.*.*.*.*.&.).,.[.!.*.*.*.*.l+*.*.*.*.*.*.m+!.[.,.;.&.*.*.*.*.*.*.&.%.,.n+&.*.&.&.*.*.*.*.*.*.*.*.*.&.^.",
"/.&.%.%.%.&.&.&.&.&.&.&.&.&.&.%.,.[.&.*.*.*.*.*.*.*.*.&.[.,.%.&.*.*.*.*.*.*.*.*.*.*.&.%.,.[.&.*.*.*.*.*.*.*.*.&.}.,.%.%.%.%.%.&.&.&.&.&.&.&.&./.o+",
"p+n n n n n n n n n n n n n n n Z ..@.Y Y Y Y @.Y Y Y Y X Z n Z Y q+Y Y Y Y Y Y Y Y X Z z r+Y q+Y Y Y Y Y Y Y Y X Z n n n n n n n n n n n n n n {.",
"s+t+u+u+t+t+t+t+N N u+u+N N u+N M L L L L V L L R L L L L M N n M L L L L L L L L M K z K M R Q L L L L L L L L L M N u+t+t+u+u+t+t+u+u+t+t+u+u+v+",
"N M M M M M M M M M M M M M M M L L V L L L L L L L L L Q L L O z K M L L R L L M K z K M L L R L L L L L L L L L L M M M M O M M M M M M M M K S ",
"B C C C C C C C C C C C C C C C C C C G C G C C C C C C C H C C B n B E C C E E B z B E E C C C C C C C C C C C C C C C C C C C C C C C C C C E w+",
"r s s s s s s s s s s s s s s s s s s s A A s s s s s s s A v s s x+n r s s t t n t t s s s s s s s s s s s s s s s y+s s s s s A A s s s s s t y ",
"r s s s s s s s s s s s s s s s s s s s s A s s s s s v s s s s y+t r n t t r n r x+t s s s s s s s s s s s s s s s s s t t s s s A s s s s s t y ",
"k l m l l l l m l l m m l l m m l l m l l l m m l l m m l l m m z+l m k n A+n k m m m m l l m l l l l m l l m m l l m m l l m l l l m m l l m k B+",
"f h c c h h c c h h c c h h c c h h c c h h c c h h c c c h c c h h c f b n b i c h c c h h c h h h c c h h c c h h c c c c c c h h c c h h c f C+",
"f c c c c c c c c c c c c c c c c c c c c c c c c c f c c c c c c c c c f f f c c c c c c c h h h c c c c c c c c c h c c c c c c c c c c c c f D+",
"6 7 7 7 7 7 7 7 7 7 7 7 7 7 7 7 7 7 7 7 7 7 7 7 7 7 0 0 7 7 7 7 7 7 7 7 9 7 7 7 7 7 7 7 7 7 7 7 7 7 7 7 7 7 7 7 7 7 7 7 7 0 7 7 7 7 7 7 7 7 7 0 a ",
"2 | | | | | | | | | | | | | | | | | | | | | | | | | | | | | | | | | | 4 | | | | | | | | | | | | | | | | | | | | | 1 1 1 1 1 | | | | | | | | | | 5 ",
"} | | | | | | | | | | | | | | | | | | | | | | | | | | | | | | | | | | | | | | | 2 2 | | | | | | | | | | | | | | | | | 1 1 1 | | | | | | | | | 2 5 ",
"_ : < < : : < < : : < < : : < < : : : : : : < < : : < < : : < < : : < < : : < < : : < < < < < < : : < < < < < < < < < : : : < < : : < < : : < < [ ",
"~ / { { / / { { / { { { { / { { / / / / / / { { / / { { / / { { E+/ { { / / { { / / { { { { { { / / { { { { { { { { { { / / { { / / { { / / { { F+",
"~ { { { { { { { { { { { { { { { { { { { { { { { { { { { { { { { { { { { { { { { { { { { { { { { { { { { { { { { { { { { { { { { { { { { { { { { F+",
", ' ' ' ' ' ' ' ' ' ' ' ' ' ' ' ' ' ' ' ' ' ' ' ' ' ' ' ' ' ' ' ' ' ' ' ' ' ' ' ' ' ' ' ' ' ' ' ' ' ' ' ' ' ' ' ' ' ' ' ' ' ' ' ' ' ' ' ' ' ' , G+",
"> H+= = = = = = = = = = = = = = = = = = = = = = = = = = = = = = = = = = = = = = = = = = = = = = = = = = = = = = = = = = = = = = = = = = = = = = > ",
"> H+* = = = = = = = = = = = = = = = = = = = = = = = = = = = = = = = = = = = = = = = = = = = = = = = = = = = = = = = = = = = = = = = = = = = = * - ",
"$ % $ % % % % % % % % % % % % % % % % % % % % % % % % % % % % % % % % % % % % % % % % % % % % % % % % % % % % % % % % % % % % % % % % % % % % $ I+",
". + + + + + + + + + + + + + + + + + + + + + + + + + + + + + + + + + + + + + + + + + + + + + + + + + + + + + + + + + + + + + + + + + + + + + + + . ",
". . . . . . . . . . . . . . . . . . . . . . . . . . . . . . . . . . . . . . . . . . . . . . . . . . . . . . . . . . . . . . . . . . . . . . . . . "};
