/* XPM */
static char * mixer_mixer_tank[] = {
"60 78 259 2",
"  	c None",
". 	c #3B3C37",
"+ 	c #3C3B37",
"@ 	c #3C3B36",
"# 	c #3B3C36",
"$ 	c #3A3B35",
"% 	c #282826",
"& 	c #585953",
"* 	c #64655D",
"= 	c #65655D",
"- 	c #65655B",
"; 	c #64665B",
"> 	c #282924",
", 	c #3C3D37",
"' 	c #595951",
") 	c #717167",
"! 	c #7D7D71",
"~ 	c #7C7C70",
"{ 	c #7C7D6F",
"] 	c #3C3C34",
"^ 	c #3B3A35",
"/ 	c #3B3C34",
"( 	c #585951",
"_ 	c #7C7C72",
": 	c #989989",
"< 	c #98998B",
"[ 	c #272823",
"} 	c #4B4B43",
"| 	c #64645A",
"1 	c #717165",
"2 	c #8E8F81",
"3 	c #97988A",
"4 	c #A9AA98",
"5 	c #A9AA9A",
"6 	c #ABAA98",
"7 	c #7E7C70",
"8 	c #585850",
"9 	c #4A4B43",
"0 	c #B8B9A7",
"a 	c #B9BAA8",
"b 	c #BAB9A7",
"c 	c #999A8A",
"d 	c #9A9889",
"e 	c #908E81",
"f 	c #7E7C6F",
"g 	c #8D8E80",
"h 	c #A0A191",
"i 	c #B8BAA5",
"j 	c #C9C8B4",
"k 	c #D0CFBB",
"l 	c #D1D0BC",
"m 	c #BAB9A5",
"n 	c #A0A18F",
"o 	c #8F9082",
"p 	c #7B7C6E",
"q 	c #7B7D6F",
"r 	c #86867A",
"s 	c #B1B2A0",
"t 	c #C2C1AF",
"u 	c #C9C8B6",
"v 	c #CED0BB",
"w 	c #D0CFBA",
"x 	c #D6D5C0",
"y 	c #DDDCC7",
"z 	c #D7D6C2",
"A 	c #D0CFBD",
"B 	c #C0C1AF",
"C 	c #B1B39E",
"D 	c #A9AB96",
"E 	c #8D8F81",
"F 	c #858779",
"G 	c #4A4A40",
"H 	c #59594F",
"I 	c #9FA090",
"J 	c #C2C1AD",
"K 	c #D7D6C1",
"L 	c #DEDCC7",
"M 	c #E2E2CA",
"N 	c #EEEED6",
"O 	c #F0EED7",
"P 	c #E2E1CC",
"Q 	c #737165",
"R 	c #282923",
"S 	c #272725",
"T 	c #656559",
"U 	c #7B7B6F",
"V 	c #868779",
"W 	c #CFCEBC",
"X 	c #CFCEBA",
"Y 	c #E3E1CC",
"Z 	c #E9E7D2",
"` 	c #EEEED4",
" .	c #F4F4DC",
"..	c #FAFAE2",
"+.	c #F5F3DC",
"@.	c #EEEDD8",
"#.	c #E8E7D2",
"$.	c #E3E2CD",
"%.	c #8E8F7F",
"&.	c #292A25",
"*.	c #000000",
"=.	c #9FA291",
"-.	c #A9AC9B",
";.	c #C8C7B3",
">.	c #F9F9E1",
",.	c #E7E6D1",
"'.	c #B1B2A2",
").	c #979888",
"!.	c #979A89",
"~.	c #E8E8D0",
"{.	c #D8D7C2",
"].	c #8D8E7E",
"^.	c #3A3B36",
"/.	c #3B3B39",
"(.	c #7B7D70",
"_.	c #C0C2AD",
":.	c #C7C9B4",
"<.	c #D5D7C2",
"[.	c #DEDDC9",
"}.	c #DDDDC5",
"|.	c #B0B19F",
"1.	c #63655A",
"2.	c #585A4F",
"3.	c #717368",
"4.	c #A8A997",
"5.	c #707066",
"6.	c #272A23",
"7.	c #3A3D34",
"8.	c #AAAB99",
"9.	c #CDCFB9",
"0.	c #CED0BA",
"a.	c #C8CAB5",
"b.	c #595A52",
"c.	c #575850",
"d.	c #282921",
"e.	c #66665C",
"f.	c #989987",
"g.	c #AAAB9B",
"h.	c #717169",
"i.	c #3A3B33",
"j.	c #A8AB98",
"k.	c #727268",
"l.	c #5A5A50",
"m.	c #292823",
"n.	c #595853",
"o.	c #010101",
"p.	c #000100",
"q.	c #4D4A43",
"r.	c #5B584F",
"s.	c #7B7D72",
"t.	c #7B7C74",
"u.	c #3B3D32",
"v.	c #7D7E70",
"w.	c #3C3C32",
"x.	c #292921",
"y.	c #858579",
"z.	c #8E8E82",
"A.	c #292A1C",
"B.	c #3C3C30",
"C.	c #3D3D33",
"D.	c #67645B",
"E.	c #3D3D31",
"F.	c #282A1F",
"G.	c #86867C",
"H.	c #A9AA9C",
"I.	c #A9A99D",
"J.	c #B0B2A5",
"K.	c #29291F",
"L.	c #3E3B32",
"M.	c #3E3C30",
"N.	c #5A584C",
"O.	c #676559",
"P.	c #646458",
"Q.	c #59594D",
"R.	c #A0A094",
"S.	c #97998C",
"T.	c #8D8F82",
"U.	c #7F7D71",
"V.	c #4B4C44",
"W.	c #B8B9A9",
"X.	c #C2C0B1",
"Y.	c #D0CEBF",
"Z.	c #CECFBD",
"`.	c #D5D6C4",
" +	c #DBDCCA",
".+	c #E1E2D2",
"++	c #3C3D2F",
"@+	c #3B3C2E",
"#+	c #D6D7C7",
"$+	c #C9C7B8",
"%+	c #B1B2A4",
"&+	c #A0A193",
"*+	c #D5D7C1",
"=+	c #DBDDC8",
"-+	c #E1E2D0",
";+	c #E6E7D5",
">+	c #ECEDDD",
",+	c #F2F3E3",
"'+	c #F7F8E8",
")+	c #FDFEEC",
"!+	c #F7F8E6",
"~+	c #F2F3E1",
"{+	c #ECEDDB",
"]+	c #E6E7D7",
"^+	c #E0E1D1",
"/+	c #58584E",
"(+	c #E2E1CD",
"_+	c #E8E7D3",
":+	c #F4F3DE",
"<+	c #F9F8E3",
"[+	c #FFFFEA",
"}+	c #F2F4DC",
"|+	c #ECEED8",
"1+	c #EEEDD9",
"2+	c #DDDCC8",
"3+	c #494A42",
"4+	c #FFFFE7",
"5+	c #ECEED6",
"6+	c #EFEED9",
"7+	c #FAF8E1",
"8+	c #FFFEE9",
"9+	c #F5F5DD",
"0+	c #EFEFD7",
"a+	c #FAF8E3",
"b+	c #EDECD7",
"c+	c #EDEDD5",
"d+	c #FEFEE6",
"e+	c #3C3D38",
"f+	c #4C4C44",
"g+	c #D8D7C3",
"h+	c #F9F9DF",
"i+	c #F4F4DA",
"j+	c #B7B8A6",
"k+	c #F3F3DB",
"l+	c #E9E9D1",
"m+	c #87887A",
"n+	c #5A5A52",
"o+	c #B3B2A0",
"p+	c #B3B29E",
"q+	c #CAC9B5",
"r+	c #DEDDC8",
"s+	c #7D7D73",
"t+	c #010100",
"u+	c #4A4B45",
"v+	c #9FA092",
"w+	c #B2B3A1",
"x+	c #C7C8B6",
"y+	c #595B50",
"z+	c #494A44",
"A+	c #4B4A45",
"B+	c #87877B",
"C+	c #A2A091",
"D+	c #B2B19F",
"E+	c #4A4B46",
"F+	c #65645F",
"G+	c #A1A292",
"H+	c #656660",
"I+	c #010000",
"J+	c #020100",
"                                                . + + @ @ @ @ # # # # # $                                               ",
"                                % . . # # . . & * = = - - - - ; ; ; ; ; * & $ # # . . . >                               ",
"                        > # , # # ' = - - = = ) ! ~ ~ { { ~ ~ ~ ~ ~ ~ ~ ~ ) - - - = = ' ] @ ^ . >                       ",
"                  % . # / ( ; * ; - ~ ~ ~ _ ! { : < : : : : : < : < : < < { { { ~ ~ ~ - - - = ' / # # [                 ",
"              > # @ } ' | - 1 _ ~ ~ { 2 < 3 < : 4 5 4 6 6 4 4 5 4 5 4 5 5 : : : : 2 { 7 7 7 ) - | 8 } # # >             ",
"          % . $ 9 ' - - ) ~ ~ ~ 2 < : : 5 5 4 4 4 0 a b b 0 0 0 0 0 0 0 4 5 5 4 4 : c d e f ~ ~ 1 - | ( 9 # . >         ",
"      > . . # ' - - ) _ _ ~ g < : h 4 4 4 b b 0 i j k l k k k k k k k j m b b 0 4 4 4 n : : o p q ~ 1 - - ' ] # . >     ",
"    % . # # 9 - - 1 ~ ~ r o : h 5 4 4 s 0 t u v v k w x y y y y y z k k k A u B 0 C D 4 4 h : E F ~ ~ ) - - G / # # >   ",
"    > # # } H - 1 ~ ~ r 2 < I 5 4 s 0 J j A A k K L L M N N N O O P y y K k k l j t b s 4 5 h : 2 r ~ 7 Q | H } ] / R   ",
"  S . # 9 ' - T 1 ~ U V 2 : h 4 4 s 0 J k W X y y Y Z N `  ...+.O @.#.$.y z k l l t b s 4 5 h : %.V ~ 7 Q - - ' } / # &.",
"*.% . # 9 ' - 1 ~ ~ r 2 3 =.-.4 s 0 B ;.k k z y P #.@.N  .>...>. .N N ,.P y K l k ;.t 0 '.4 4 h ).2 V ~ ~ ) - H } / # > ",
"*.% . # 9 ' = - 1 ~ U V 2 !.=.4 4 s 0 J k k k y y P #.@.N  .>. .N N ~.P y {.w k k J b s 5 4 n : ].V { ! 1 - - H } # ^.% ",
"*./.> # # } 8 - ) (.(.V o : h 4 4 C i _.:.k k v <.[.y P @.@.@.N N M }.y K k k v :.B 0 |.4 5 h < 2 r ~ _ ) 1.2.9 # . % *.",
"  . R # # ] } = - 3.(.~ V g : h 4 4 D i i J j v v k k z y y y y }.K w w k k j _.i 0 4 4 4.h : 2 V ~ ~ 5.- ; 9 # # . %   ",
"  ^.# 6.7.# / ' - - 1 ~ ~ ~ 2 < : n 8.4 4 0 a 0 0 u k v v k k 9.0.k k a.0 b b 0 s 5 5 h : < 2 ~ ~ ~ 1 - - b.# # # > %   ",
"  . , 9 c.d./ ] } ' - e.1 ~ ~ ~ 2 : : f.4 4 4 4 4 b b i i b b i i b 0 0 4 6 6 5 g.: : < 2 { ~ ~ 1 T - H } # # R # . >   ",
"*.. @ } H - h.d.i./ 9 ( ; - 1 ~ ~ { { %.).: : : 5 4 8.4 4 5 8.4 4 4.5 4 j.: : < < 2 { ~ ~ ~ k.e.- l.} / / m.n.9 # . > o.",
"p.. ] q.r.- ) s.t.d./ u.u.H - - T - ~ v.{ ~ { { : : ).: : < : : : < : !.!.{ ~ ~ ~ ~ _ - - - - H w.w.w.x.h.= ' 9 / ^.> *.",
"p.. / } H - ) _ ~ y.z.< A.B.C.u.w.' - e.- - D.Q 7 ~ ~ v.{ ~ ~ ~ { ~ ~ ~ ~ 1 - ; ; - = ( / w.E.u.F.G.~ _ ) - ' 9 / . > *.",
"  . / } H - ) ~ U V 2 : h H.I.J.K.L.M.w.B.B.M.N.O.T T T T T T T T P.T T T Q.B.B.w.w.w.] F.I.R.S.T.r ~ U.Q - H V./ . [   ",
"  . / } H - ) ~ ~ V 2 : h 5 5 '.W.X.u Y.Z.`. +.+++++@+++++++++++++++++++++#+Z.Z.$+X.W.%+H.H.&+< 2 r ~ ~ 1 - H 9 / . >   ",
"  . / } H - ) ~ ~ V 2 : h 4 4 s 0 J j k k *+=+-+;+>+>+,+'+)+!+~+{+>+]+^+ +<.v k j t b '.5 5 h : %.r ~ ~ 1 - H 9 / . >   ",
"*.. / } /+- ) ~ ~ V 2 : h 4 4 s 0 J j k k K y (+_+@.@.:+<+[+<+}+|+1+_+(+2+x w k j t b s 4 5 h : %.r ~ ~ 1 - H 3+/ . > *.",
"*.. / } H - ) ~ ~ V 2 : h 4 4 s 0 J j k k K y P #.N N  .>.4+>. .5+6+#.P y K w k j t b s 4 5 h : %.r ~ ~ 1 - H 9 / . > *.",
"*.^./ } H - ) ~ ~ V 2 : h 4 4 s 0 J j k k K y P #.N N +.7+8+>.9+0+@.#.P y z k k j t b s 4 5 h : %.r ~ ~ 1 - H 9 / . > *.",
"  . / } H - ) ~ ~ V 2 : h 4 4 s 0 J j k k K y P #.N N +.7+8+a+ .N b+#.P y z k k j t b s 4 5 h : %.r ~ ~ 1 - H 9 / . >   ",
"  . / } H | ) ~ ~ V 2 : h 4 4 s 0 J j w w K y P #.c+N  .>.d+>. .N 6+,.P y z l k j t b s 4 5 h : %.r ~ ~ 1 - H 9 / . [   ",
"  . i.} H - ) ~ ~ V 2 : h 4 4 s 0 J j w w K y P #.N N  .>.4+>.9+N @.,.P y z k k j t b s 4 5 h : %.r ~ ~ 1 - H 9 / . >   ",
"*.. / } H - ) ~ ~ V 2 : h 4 4 s 0 J j k k K y P #.N N  .>.4+>. .N @._+P y z k w j t b s 4 5 h : %.r ~ ~ 1 - H 9 / . > *.",
"*.. / } H e.) ~ ~ V 2 : h 4 4 s 0 J j k k K y P #.N N  .>.4+>. .N @._+P y z k w j t b s 4 5 h : %.r ~ ~ 1 - H 9 / . &.*.",
"*.. / } H - k.~ ~ V 2 : h 4 4 s 0 J j k k K y M ~.N N  .>.4+>. .N @.#.P y z k k j t b s 4 5 h : %.r ~ ~ 1 - H 9 / . > *.",
"  e+/ f+H - ) ~ ~ V 2 : h 4 4 s 0 J j k k K y M ~.N N  .>.4+>. .N @.#.P y z k k j t b s 4 5 h : %.r ~ ~ 1 - H 9 / e+>   ",
"  . / } H - ) ~ ~ V 2 : h 4 4 s 0 J j k k K y P #.N N  .>.4+>. .N @.#.P y z k w j t b s 4 5 h : %.r ~ ~ 1 - H 9 / . >   ",
"  . / } H - ) ~ ~ V 2 : h 4 4 s 0 J j k k K y P #.N N  .>.4+>. .N @.#.P y z k w j t b s 4 5 h : %.r ~ ~ 1 - H V./ . >   ",
"*.. / } H - ) ~ ~ V 2 : h 4 4 s 0 J j k k K y P #.N N  .>.4+>. .N @.#.P y z k k j t b s 4 5 h : %.r ~ ~ 1 - H 9 / . [ *.",
"*.. / } H - ) ~ ~ V 2 : h 4 4 s 0 J j k k K y P #.N N  .>.4+>. .N @.#.P y z k k j t b s 4 5 h : %.r ~ ~ 1 - H 9 / . > *.",
"*.. / } /+- ) ~ ~ V 2 : h 4 4 s 0 J j k k K y P #.N N  .>.4+>. .N @.#.P y z k k j t b s 4 5 h : %.r ~ ~ 1 - H 9 / . > *.",
"  . / } H - ) ~ ~ V 2 : h 4 4 s 0 J j k k K y P #.N N  .>.4+>. .N @.#.P y z k k j t b s 4 5 h : %.r ~ ~ 1 - H 9 / . >   ",
"  . / } H - ) ~ ~ V 2 : h 4 4 s 0 J j k k K y P #.N N  .>.4+>. .N @.#.P y z k k j t b s 4 5 h : %.r ~ ~ 1 - H 9 / . >   ",
"  . / } H - ) ~ ~ V 2 : h 4 4 s 0 J j k k K y P #.N N  .>.4+>. .N @.#.P y z k k j t b s 4 5 h : %.r ~ ~ 1 - H 9 / . >   ",
"*.. / } H - ) ~ ~ V 2 : h 4 4 s 0 J j k k K y P #.N N  .>.4+>. .N @.#.P y z k k j t b s 4 5 h : %.r ~ ~ 1 - H 9 / e+> *.",
"*.. / } H - 5.~ ~ V 2 : h 4 4 s 0 J j k k K y P #.N N  .>.4+>. .N @.#.P y z k k j t b s 4 5 h : %.r ~ ~ 1 - H 9 / . > *.",
"*.. / } H - ) ~ ~ V 2 : h 4 4 s 0 J j k k K y P #.N N  .>.4+>. .N @.#.P y z k k j t b s 4 5 h : %.r ~ ~ 1 - H 9 / . > *.",
"  . / } H - 5.~ ~ V 2 : h 4 4 s 0 J j k k K y P #.N N  .>.4+>. .N @.#.P y z k k j t b s 4 5 h : %.r ~ ~ 1 - H 9 / . >   ",
"  . / } H - ) ~ ~ V 2 : h 4 4 s 0 J j k k K y P #.N N  .>.4+>. .N @.#.P y z k k j t b s 4 5 h : %.r ~ ~ 1 - H 9 / . >   ",
"  . / } H - ) ~ ~ V 2 : h 4 4 s 0 J j k k K y P #.N N  .>.4+>. .N @.#.P y z k k j t b s 4 5 h : %.r ~ ~ 1 - H 9 / . >   ",
"*.. / } /+- ) ~ ~ V 2 : h 4 4 s 0 J j k k K y P #.N N  .>.4+>. .N @.#.P y z k k j t b s 4 5 h : %.r ~ ~ 1 - H 3+/ . > *.",
"*.. / } H - ) ~ ~ V 2 : h 4 4 s 0 J j k k K y P #.N N  .>.4+>. .N @.#.P y z k k j t b s 4 5 h : %.r ~ ~ 1 - H 9 / . > *.",
"*.^./ } H - ) ~ ~ V 2 : h 4 4 s 0 J j k k K y P #.N N  .>.4+>. .N @.#.P y z k k j t b s 4 5 h : %.r ~ ~ 1 - H 9 / . > *.",
"  . / } H - ) ~ ~ V 2 : h 4 4 s 0 J j k k K y P #.N N  .>.4+>. .N @.#.P y z k k j t b s 4 5 h : %.r ~ ~ 1 - H 9 / . >   ",
"  . / } H | ) ~ ~ V 2 : h 4 4 s 0 J j k k K y P #.N N  .>.4+>. .N @.#.P y z k k j t b s 4 5 h : %.r ~ ~ 1 - H 9 / . [   ",
"  . i.} H - ) ~ ~ V 2 : h 4 4 s 0 J j k k K y P #.N N  .>.4+>. .N @.#.P y z k k j t b s 4 5 h : %.r ~ ~ 1 - H 9 / . >   ",
"*.. / } H - ) ~ ~ V 2 : h 4 4 s 0 J j k k K y P #.N N  .>.4+>. .N @.#.P y z k k j t b s 4 5 h : %.r ~ ~ 1 - H 9 / . > *.",
"*.. / } H e.) ~ ~ V 2 : h 4 4 s 0 J j k k K y P #.N N  .>.4+>. .N @.#.P y z k k j t b s 4 5 h : %.r ~ ~ 1 - H 9 / . &.*.",
"*.. / } H - k.~ ~ V 2 : h 4 4 s 0 J j k k K y P #.N N  .>.4+>. .N @.#.P y z k k j t b s 4 5 h : %.r ~ ~ 1 - H 9 / . > *.",
"  e+/ f+H - ) ~ ~ V 2 : h 4 4 s 0 J j k k K y P #.N N  .>.4+>. .N @.#.P y z k k j t b s 4 5 h : %.r ~ ~ 1 - H 9 / e+>   ",
"  . / } H - ) ~ ~ V 2 : h 4 4 s 0 J j k k K y P #.N N  .>.4+>. .N @.#.P y z k k j t b s 4 5 h : %.r ~ ~ 1 - H 9 / . >   ",
"  . / } H - ) ~ ~ V 2 : h 4 4 s 0 J j k k K y P #.N N  .>.4+>. .N @.#.P y z k k j t b s 4 5 h : %.r ~ ~ 1 - H V./ . >   ",
"*.. / } H - ) ~ ~ V 2 : h 4 4 s 0 J j k k K y P #.N N  .>.4+>. .N @.#.P y z k k j t b s 4 5 h : %.r ~ ~ 1 - H 9 / . [ *.",
"*.. / } H - ) ~ ~ V 2 : h 4 4 s 0 J j k k K y P #.N N  .>.4+>. .N @.#.P y z k k j t b s 4 5 h : %.r ~ ~ 1 - H 9 / . > *.",
"*.. / } /+- ) ~ ~ V 2 : h 4 4 s 0 J j k k K y P #.N N  .>.4+>. .N @.#.P y z k k j t b s 4 5 h : %.r ~ ~ 1 - H 9 / . > *.",
"  . / } H - ) ~ ~ V 2 : h 4 4 s 0 J j k k K y P #.N N  .>.4+>. .N @.#.P y z k k j t b s 4 5 h : %.r ~ ~ 1 - H 9 / . >   ",
"  . / } H - ) ~ ~ V 2 : h 4 4 s 0 J j k k K y P #.N N  .>.4+>. .N @.#.P y z k k j t b s 4 5 h : %.r ~ ~ 1 - H 9 / . >   ",
"  . / } H - ) ~ ~ V 2 : h 4 4 s 0 J j k k K y P #.N N  .>.4+>. .N @.#.P y z k k j t b s 4 5 h : %.r ~ ~ 1 - H 9 / . >   ",
"*.. / } H - ) ~ ~ V 2 : h 4 4 s 0 J j k k K y P #.N N  .>.4+>. .N @.#.P y z k k j t b s 4 5 h : %.r ~ ~ 1 - H 9 / e+> *.",
"*.. / } H - 5.~ ~ V 2 : h 4 4 s 0 J j k k K y P #.N N  .>.4+>. .N @.#.P y z k k j t b s 4 5 h : %.r ~ ~ 1 - H 9 / . > *.",
"*.. / } H - ) ~ ~ V 2 : h 4 4 s 0 J j k k K y P #.N N  .>.4+>. .N @.#.P y z k k j t b s 4 5 h : %.r ~ ~ 1 - H 9 / . > *.",
"  . # } H - 5.~ ~ r 2 < h 5 4 s 0 J j k k K y P #.N N  .>.4+>. .N @.#.P y z k k j t b s 4 5 h : %.V ~ ~ 1 - H 9 / # >   ",
"  *.. ] } H - ) ~ ~ V 2 c h 5 4 s 0 B j k k g+y P #.@.N  .h+h+h+i+N N #.P y K v v j J 0 s 4 4 h : 2 V ~ ~ ) - H } # . *.",
"  *.. @ } ' - - ) ~ ~ V 2 ).h 4 4 s j+J j k k y y P #.@.N  .h+k+N N l+P y K w v :.J m s 4 4 h : 2 m+~ ~ 1 - - H } # . *.",
"    p., / } n+- ) ~ ~ V 2 : h 4 4 s 0 J j j k k z 2+y P #.#.l+#.#.P y y K X k j j B 0 s 4 5 &+< 2 r ~ ~ 1 - H } ^ . *.  ",
"      p.# ^ } ' - ) ~ ~ V 2 : h n 5 4 o+p+J q+j j k k z r+y y y y K w k ;.j j J p+s 4 4 h &+< 2 r _ s+1 - H } @ + t+    ",
"        *.*.. u+( - T 1 ~ ~ V 2 : v+h 6 6 s w+s s u j :.:.j j :.:.j j x+|.s s |.s 5 h h : 2 r U ~ ) - ; y+z+. *.o.      ",
"            *.p.u+A+' = - 5._ ~ V B+2 d C+h h h 4 o+o+s s D+o+s s o+o+s 4 h h h h : 2 V V ~ _ ) - = ' 9 u+p.*.          ",
"                *.*.p.E+E+F+= - T ) ~ r V V V %.h h h I h h h h h h h n G+< V V V V ~ 1 e.= = H+u+E+*.*.*.              ",
"                      *.*.I+I+A+} = = = - e.| ~ V r r V V r r r V r r V V ~ - e.| = = = A+A+I+p.*.*.                    ",
"                              *.*.*.*.*.p.p.u+* * F+= ; ; = = * * F+= * * F+A+p.p.*.*.*.*.*.                            ",
"                                            *.p.p.I+I+p.p.I+I+p.p.I+J+p.p.I+I+                                          "};
