/* XPM */
static char * mixer_mixer_work[] = {
"89 90 23 1",
" 	c None",
".	c #000000",
"+	c #010101",
"@	c #E1E1E1",
"#	c #9A9A9A",
"$	c #FFFFFF",
"%	c #FEFEFE",
"&	c #B2B2B2",
"*	c #8C8C8C",
"=	c #C6C6C6",
"-	c #A7A7A7",
";	c #BDBDBD",
">	c #F0F0F0",
",	c #D0D0D0",
"'	c #686868",
")	c #7C7C7C",
"!	c #D9D9D9",
"~	c #4D4D4D",
"{	c #C7C7C7",
"]	c #D1D1D1",
"^	c #E9E9E9",
"/	c #EFEFEF",
"(	c #7D7D7D",
"...........................+.............................................................",
".@..#$$$$%&..*$$$$$$$#.=$$$$$$$$$$$$$$$$$$$$$$$$$$$$$$$$$$$$$$$$$$$$$$$$$$$$$$$$$$$$$$$$.",
".$-.;$$$$$$*.-$$$$$$$;-$$$$$%$$$$$$$$$$$$$$$$$$$$$$$$$$$$$$$$$$$$$$$$$$$$$$$$$$$$$$$$$$$.",
".$>.#$$$$$$,+'$$$%$$$)@$$$$$$$$$$$$$$$$$$$$$$$$$$$$$$$$$$$$$$$$$$$$$$$$$$$$$$$$$$$$$$$$$.",
".$$'.$$$$$$%..!$$$$$>~$$$$$$$$$$$$$$$$$$$$$$$$$$$$$$$$$$$$$$$$$$$$$$$$$$$$$$$$$$$$$$$$$$.",
".$$&.,$$$$$>~.-$$$$${-$$$$$$$$$$$$$$$$$$$$$$$$$$$$$$$$$$$$$$$$$$$$$$$$$$$$$$$$$$$$$$$$$$.",
".$$@.-$$$$$;].~$%$$$#,$$$$$$$$$$$$$$$$$$$$$$$$$$$$$$$$$$$$$$$$$$$$$$$$$$$$$$$$$$$$$$$$$$.",
".$$$~~$%$$$#%'.,$$$$.$$$$$$$$$$$$$$$$$$$$$$$$$$$$$$$$$$$$$$$$$$$$$$$$$$$$$$$$$$$$$$$$$$$.",
".$$$-.!$$$^{$&.#$$$!*$$$$$$$$$$$$$$$$$$$$$$$$$$$$$$$$$$$$$$$$$$$$$$$$$$$$$$$$$$$$$$$$$$$.",
".$$$!.-$$$&>$>..>$$&{$$$$$$$$$$$$$$$$$$$$$$$$$$$$$$$$$$$$$$$$$$$$$$$$$$$$$$$$$$$$$$$$$$$.",
".$$$$.~$$$#$$$).{$$'^$$$$$$$$$$$$$$$$$$$$$$$$$$$$$$$$$$$$$$$$$$$$$$$$$$$$$$$$$$$$$$$$$$$.",
".$$$$#.!$^{%$$,.)$^'$%$$$$$$$$$$$$$$$$$$$$$$$$$$$$$$$$$$$$$$$$$$$$$$$$$$$$$$$$$$$$$$$$$$.",
".$$$${+-$&/$$$$..>{-$$$$$$$$$$$$$$$$$$$$$$$$$$$$$$$$$$$$$$$$$$$$$$$$$$$$$$$$$$$$$$$$$$$$.",
".$$$$>.~$#$$$$$#.&*!$$$$$$$$$$$$$$$$$$$$$$$$$$$$$$$$$$$$$$$$$$$$$$$$$$$$$$$$$$$$$$$$$$$$.",
".$$$$$(.;{$$$$$!.'.$$$$$$$$$$$$$$$$$$$$$$$$$$$$$$$$$$$$$$$$$$$$$$$$$$$$$$$$$$$$$$$$$$$$$.",
".$$$$$;..>$$%$$$~.#$$$$$$$$$$$$$$$$$$$$$$$$$$$$$$$$$$$$$$$$$$$$$$$$$$$$$$$$$$$$$$$$$$$$$.",
".$$$$$^.)$$$$$$$&.{$$$$$$$$$$$$$$$$$$$$$$$$$$$$$$$$$$$$$$$$$$$$$$$$$$$$$$$$$$$$$$$$$$$$$.",
".$$$$$$'{$$$$$$$^.>$$$$$$$$$$$$$$$$$$$$$$$$$$$$$$$$$$$$$$$$$$$$$$$$$$$$$$$$$$$$$$$$$$$$$.",
".$$$$$$$$$$$$$$$$$$$$$$$$$$$$$$$$$$$$$$$$$$$$$$$$$$$$$$$$$$$$$$$$$$$$$$$$$$$$$$$$$$$$$$$.",
".$$$$$$$$$$$$$$$$$$$$$$$$$$$$$$$$$$$$$$$$$$$$$$$$$$$$$$$$$$$$$$$$$$$$$$$$$$$$$$$$$$$$$$$.",
".$$$$$$$$$$$$$$$$$$$$$$$$$$$$$$$$$$$$$$$$$$$$$$$$$$$$$$$$$$$$$$$$$$$$$$$$$$$$$$$$$$$$$$$.",
".$$$$$$$$$$$$$$$$$$$$$$$$$$$$$$$$$$$$$$$$$$$$$$$$$$$$$$$$$$$$$$$$$$$$$$$$$$$$$$$$$$$$$$$.",
".$$$$$$$$$$$$$$$$$$$$$$$$$$$$$$$$$$$$$$$$$$$$$$$$$$$$$$$$$$$$$$$$$$$$$$$$$$$$$$$$$$$$$$$.",
".$$$$$$$$$$$$$$$$$$$$$$$$$$$$$$$$$$$$$$$$$$$$$$$$$$$$$$$$$$$$$$$$$$$$$$$$$$$$$$$$$$$$$$$.",
".$$$$$$$$$$$$$$$$$$$$$$$$$$$$$$$$$$$$$$$$$$$$$$$$$$$$$$$$$$$$$$$$$$$$$$$$$$$$$$$$$$$$$$$.",
".$$$$$$$$$$$$$$$$$$$$$$$$$$$$$$$$$$$$$$$$$$$$$$$$$$$$$$$$$$$$$$$$$$$$$$$$$$$$$$$$$$$$$$$.",
".$$$$$$$$$$$$$$$$$$$$$$$$$$$$$$$$$$$$$$$$$$$$$$$$$$$$$$$$$$$$$$$$$$$$$$$$$$$$$$$$$$$$$$$.",
".$$$$$$$$$$$$$$$$$$$$$$$$$$$$$$%$$$%$.....$$$...$$$$$$$$$$$$$$$$$$$$$$$$$$$$$$$$$$$$$$$$.",
".$$$$$$$$$$$$$$$$$$$$$$$$$$$$$$$$$$$$.$$$$.$.$$$.$$$$$$$$$$$$$$$$$$$$$$$$$$$$$$$$$$$$$$$.",
".$$$$$$$$$$$$$$$$$$$$$$$$$$$$$$$$$$$$.$$$$.$$$$$.$$%$$$$$$$$$$$$$$$$$$$$$$$$$$$$$$$$$$$$.",
".$$$$$$$$$$$$$$$$$$$$$$$$$$$$$$%$$$$$......$$$..$$$$$$$$$$$$$$$$$$$$$$$$$$$$$$$$$$$$$$$$.",
".$$$$$$$$$$$$$$$$$$$$$$$$$$$$$$$$$$$$.$$$$.$$$$$.$$$%$$$$$$$$$$$$$$$$$$$$$$$$$$$$$$$$$$$.",
".$$$$$$$$$$$$$$$$$$$$$$$$$$$$$$$%$$$$.$$$$.$$$$$.$$$$$$$$$$$$$$$$$$$$$$$$$$$$$$$$$$$$$$$.",
".$$$$$$$$$$$$$$$$$$$$$$$$$$$$$$$$$%$$.$%$$.$.$$$.$$$$$$$$$$$$$$$$$$$$$$$$$$$$$$$$$$$$$$$.",
".$$$$$$$$$$$$$$$$$$$$$$$$$$$$$$$$$$$$.....$$$...$$$$$$$$$$$$$$$$$$$$$$$$$$$$$$$$$$$$$$$$.",
".$$$$$$$$$$$$$$$$$$$$$$$$$$$$$$$$$$$$$$$$$$$$$$$$$$$$$$$$$$$$$$$$$$$$$$$$$$$$$$$$$$$$$$$.",
".$$$$$$$$$$$$$$$$$$$$$$$$$$$$$$$$$$$$$$$$$$$$$$$$$$$$$$$$$$$$$$$$$$$$$$$$$$$$$$$$$$$$$$$.",
".$$$$$$$$$$$$$$$$$$$$$$$$$$$$$$$$$$$$$$$$$$$$$$$$$$$$$$$$$$$$$$$$$$$$$$$$$$$$$$$$$$$$$$$.",
".$$$$$$$$$$$$$$$$$$$$$$$$$$$$$$$$$$$$$$$$$$$$$$$$$$$$$$$$$$$$$$$$$$$$$$$$$$$$$$$$$$$$$$$.",
".$$$$$$$$$$$$$$$$$$$$$$$$$$$$$$$$$$$$$$$$$$$$$$$$$$$$$$$$$$$$$$$$$$$$$$$$$$$$$$$$$$$$$$$.",
".$$$$$$$$$$$$$$$$$$$$$$$$$$$$$$$$$$$$$$$$$$$$$$$$$$$$$$$$$$$$$$$$$$$$$$$$$$$$$$$$$$$$$$$.",
".$$$$$$$$$$$$$$$$$$$$$$$$$$$$$$$$$$$$$$$$$$$$$$$$$$$$$$$$$$$$$$$$$$$$$$$$$$$$$$$$$$$$$$$.",
".$$$$$$$$$$$$$$$$$$$$$$$$$$$$$$$$$$$$$$$$$$$$$$$$$$$$$$$$$$$$$$$$$$$$$$$$$$$$$$$$$$$$$$$.",
".$$$$$$$$$$$$$$$$$$$$$$$$$$$$$$$$$$$$$$$$$$$$$$$$$$$$$$$$$$$$$$$$$$$$$$$$$$$$$$$$$$$$$$$.",
".$$$$$$$$$$$$$$$$$$$$$$$$$$$$$$$$$$$$$$$$$$$$$$$$$$$$$$$$$$$$$$$$$$$$$$$$$$$$$$$$$$$$$$$.",
".$$$$$$$$$$$$$$$$$$$$$$$$$$$$$$$$$$$$$$$$$$$$$$$$$$$$$$$$$$$$$$$$$$$$$$$$$$$$$$$$$$$$$$$.",
".$$$$$$$$$$$$$$$$$$$$$$$$$$$$$$$$$$$$$$$$$$$$$$$$$$$$$$$$$$$$$$$$$$$$$$$$$$$$$$$$$$$$$$$.",
".$$$$$$$$$$$$$$$$$$$$$$$$$$$$$$$$$$$$$$$$$$$$$$$$$$$$$$$$$$$$$$$$$$$$$$$$$$$$$$$$$$$$$$$.",
".$$$$$$$$$$$$$$$$$$$$$$$$$$$$$$$$$$$$$$$$$$$$$$$$$$$$$$$$$$$$$$$$$$$$$$$$$$$$$$$$$$$$$$$.",
".$$$$$$$$$$$$$$$$$$$$$$$$$$$$$$$$$$$$$$$$$$$$$$$$$$$$$$$$$$$$$$$$$$$$$$$$$$$$$$$$$$$$$$$.",
".$$$$$$$$$$$$$$$$$$$$$$$$$$$$$$$$$$$$$$$$$$$$$$$$$$$$$$$$$$$$$$$$$$$$$$$$$$$$$$$$$$$$$$$.",
".$$$$$$$$$$$$$$$$$$$$$$$$$$$$$$$$$$$$$$$$$$$$$$$$$$$$$$$$$$$$$$$$$$$$$$$$$$$$$$$$$$$$$$$.",
".$$$$$$$$$$$$$$$$$$$$$$$$$$$$$$$$$$$$$$$$$$$$$$$$$$$$$$$$$$$$$$$$$$$$$$$$$$$$$$$$$$$$$$$.",
".$$$$$$$$$$$$$$$$$$$$$$$$$$$$$$$$$$$$$$$$$$$$$$$$$$$$$$$$$$$$$$$$$$$$$$$$$$$$$$$$$$$$$$$.",
".$$$$$$$$$$$$$$$$$$$$$$$$$$$$$$$$$$$$$$$$$$$$$$$$$$$$$$$$$$$$$$$$$$$$$$$$$$$$$$$$$$$$$$$.",
".$$$$$$$$$$$$$$$$$$$$$$$$$$$$$$$$$$$$$$$$$$$$$$$$$$$$$$$$$$$$$$$$$$$$$$$$$$$$$$$$$$$$$$$.",
".$$$$$$$$$$$$$$$$$$$$$$$$$$$$$$$$$$$$$$$$$$$$$$$$$$$$$$$$$$$$$$$$$$$$$$$$$$$$$$$$$$$$$$$.",
".$$$$$$$$$$$$$$$$$$$$$$$$$$$$$$$$$$$$$$$$$$$$$$$$$$$$$$$$$$$$$$$$$$$$$$$$$$$$$$$$$$$$$$$.",
".$$$$$$$$$$$$$$$$$$$$$$$$$$$$$$$$$$$$$$$$$$$$$$$$$$$$$$$$$$$$$$$$$$$$$$$$$$$$$$$$$$$$$$$.",
".$$$$$$$$$$$$$$$$$$$$$$$$$$$$$$$$$$$$$$$$$$$$$$$$$$$$$$$$$$$$$$$$$$$$$$$$$$$$$$$$$$$$$$$.",
".$$$$$$$$$$$$$$$$$$$$$$$$$$$$$$$$$$$$$$$$$$$$$$$$$$$$$$$$$$$$$$$$$$$$$$$$$$$$$$$$$$$$$$$.",
".$$$$$$$$$$$$$$$$$$$$$$$$$$$$$$$$$$$$$$$$$$$$$$$$$$$$$$$$$$$$$$$$$$$$$$$$$$$$$$$$$$$$$$$.",
".$$$$$$$$$$$$$$$$$$$$$$$$$$$$$$$$$$$$$$$$$$$$$$$$$$$$$$$$$$$$$$$$$$$$$$$$$$$$$$$$$$$$$$$.",
".$$$$$$$$$$$$$$$$$$$$$$$$$$$$$$$$$$$$$$$$$$$$$$$$$$$$$$$$$$$$$$$$$$$$$$$$$$$$$$$$$$$$$$$.",
".$$$$$$$$$$$$$$$$$$$$$$$$$$$$$$$$$$$$$$$$$$$$$$$$$$$$$$$$$$$$$$$$$$$$$$$$$$$$$$$$$$$$$$$.",
".$$$$$$$$$$$$$$$$$$$$$$$$$$$$$$$$$$$$$$$$$$$$$$$$$$$$$$$$$$$$$$$$$$$$$$$$$$$$$$$$$$$$$$$.",
".$$$$$$$$$$$$$$$$$$$$$$$$$$$$$$$$$$$$$$$$$$$$$$$$$$$$$$$$$$$$$$$$$$$$$$$$$$$$$$$$$$$$$$$.",
".$$$$$$$$$$$$$$$$$$$$$$$$$$$$$$$%$$$$$$$$$$$$$$$$$$$$$$$$$$$$$$$$$$$$$$$$$$$$$$$$$$$$$$$.",
".$$$$$$$$$$$$$$$$$$$$$$$$$$$$$$$$$$$$$$$$$$$$$$$$$$$$$$$$$$$$$$$$$$$$$$$$$$$$$$$$$$$$$$$.",
".$$$$$$$$$$$$$$$$$$$$$$$$%$%$$$$$$$$$%$$$$$$$$$$$$$$$$$$$$$$$$$$$$$$$$$$$$$$$$$$$$$$$$$$.",
".$$$$$$$$$$$$$$$$$$$$$$$$%$$$$$$$$$$$$$$%$$$$$$$$$$$$$$$%$$$$%$$$$$$$$$$$$$$$$$$$$$$$$$$.",
".$$$$$$$$$$$$$$$$$$$$$$$$$$$$$$$$$$$$$$$%$$$$$$$$$$$$$$$$$$$$$$$$$$$$$$$$$$$$$$$$$$$$$$$.",
".$$$$$$$$$$$$$$$$$$$$$$$$$%$$$$$%$$$%$$$$$$$$$$$$$$$$$$$$$$$$$$$$$$$$$$$$$$$$$$$$$$$$$$$.",
".$$$$$$$$$$$$$$$$$$$$$$$$$$$$$$$$$$$$$$$$$$$%$$$$$$$$$$$$$$$$$$$$$$$$$$$$$$$$$$$$$$$$$$$.",
".$$$$$$$$$$$$$$$$$$$$$$$...$%$$$...$...$...$$..........$......$$$$$$$$$$$$$$$$$$$$$$$$$$.",
".$$$$$$$$$$$$$$$$$$$$$$$$..$$$$$..$$$.$$$.$$%$.$$$.$$$.$$.$$$$.$$$$$$$$$$$$$$$$$$$$$$$$$.",
".$$$$$$$$$$$$$$$$$$$$$$$$.$.$$$.$.$$$+$$$$.$$.$$$$.$$$$$$.$$$$.$$$$$$$$$$$$$$$$$$$$$$$$$.",
".$$$$$$$$$$$$$$$$$$$$$$$$.$.$$$.$.%$$.$$%$$..$$$$$.$$.$$$+$$$$+$$$$$$$$$$$$$$$$$$$$$$$$$.",
".$$$$$$$$$$$$$$$$$$$$$$$$.$.$$$.$.$$$.$$$$$$.$$$%$....$$$.....$$$$$$$$%$$$$$$$$$$$$$$$$$.",
".$$$$$$$$$$$$$$$$$$$$$$$$.$%.$+$$.$$$.$$$$$..$$%$$.$$.$$$.$$.$$$$$$$$$$$$$$$$$$$$$$$$$$$.",
".$$$$$$$$$$$$$$$$$$$$$$$$+$$.$.$$.$$$.$$$$.$$.$$$$.$$$$$$.$$$.$$$$$$$$$$$$$$$$$$$$$$$$$$.",
".$$$$$$$$$$$$$$$$$$$$$$$$.$$.$.$$.$%$.$$$.$$$$.$$$.$$$$.$.$$$.$$$$$$$$$$$$$$$$$$$$$$$$$$.",
".$$$$$$$$$$$$$$$$$$$$$$$...$$.$$...$...$...$$..........$...$$$..$$$$$$$$$$$$$$$$$$$$$$$$.",
".$$$$$$$$$$$$$$$$$$$$$$$$$$$$$$$$$$$$$$$$$$$$$$$$$$$$$$$$$$$$$$$$$$$$$$$$$$$$$$$$$$$$$$$.",
".$$$$$$$$$$$$$$$$$$$$$$$$$$$$$$$$$$$$$$$$$$$$$$$$$$$$$$$$$$$$$$$$$$$$$$$$$$$$$$$$$$$$$$$.",
".$$$$$$$$$$$$$$$$$$$$$$$$$$$$$$$$$$$$$$$$$$$$$$$$$$$$$$$$$$$$$$$$$$$$$$$$$$$$$$$$$$$$$$$.",
".$$$$$$$$$$$$$$$$$$$$$$$$$$$$$$$$$$$$$$$$$$$$$$$$$$$$$$$$$$$$$$$$$$$$$$$$$$$$$$$$$$$$$$$.",
".$$$$$$$$$$$$$$$$$$$$$$$$$$$$$$$$$$$$$$$$$$$$$$$$$$$$$$$$$$$$$$$$$$$$$$$$$$$$$$$$$$$$$$$.",
".$$$$$$$$$$$$$$$$$$$$$$$$$$$$$$$$$$$$$$$$$$$$$$$$$$$$$$$$$$$$$$$$$$$$$$$$$$$$$$$$$$$$$$$.",
"+........................................................................................"};
