/* XPM */
static char * onoffcontrol_onoffcontrol_digitalpoint[] = {
"34 30 9 1",
" 	c None",
".	c #000000",
"+	c #FFFFFF",
"@	c #D0D0D0",
"#	c #E1E1E1",
"$	c #4D4D4D",
"%	c #A7A7A7",
"&	c #F0F0F0",
"*	c #9A9A9A",
"..................................",
".++++++++++++++++++++++++++++++++.",
".++++++++++++++++++++++++++++++++.",
".+++++++++++++++.............++++.",
".+++++++++++++++.+++@..@+#....+++.",
".+++++++++++++++.+++.@@.++.$.++++.",
".+++++++++++++++.+++.++.++.%.++++.",
".+++++++++++++++.+++.@@.++.&.++++.",
".+++++++++++++++.+++@..@+...*++++.",
".+++++++++++++++.++++++++++++++++.",
".+++++++++++++++.++++++++++++++++.",
".+++++++++++++++.++++++++++++++++.",
".+++++++++++++++.++++++++++++++++.",
".+++++++++++++++.++++++++++++++++.",
".+++++++++++++++.++++++++++++++++.",
".+++++++++++++++.++++++++++++++++.",
".+++++++++++++++.++++++++++++++++.",
".+++++++++++++++.++++++++++++++++.",
".+++++++++++++++.++++++++++++++++.",
".@..@.......++++.++++++++++++++++.",
"..@@.+......++++.++++++++++++++++.",
"..++.+..+..+++++.++++++++++++++++.",
"..@@.+..+..+++++.++++++++++++++++.",
".@..@......+++++.++++++++++++++++.",
".+++++++++++++++.++++++++++++++++.",
".++..............++++++++++++++++.",
".++++++++++++++++++++++++++++++++.",
".++++++++++++++++++++++++++++++++.",
".++++++++++++++++++++++++++++++++.",
".................................."};
