/* XPM */
static char * pid_pid_icon1[] = {
"19 21 3 1",
" 	c None",
".	c #000000",
"+	c #FFFFFF",
"       .....       ",
"     ..+++++..     ",
"    .+++++++++.    ",
"   .+++++++++++.   ",
"  .+++++++++++++.  ",
" .+++++++++++++++. ",
" .+++++++++++++++. ",
" .+++++++++++++++. ",
".+++++++++++++++++.",
".+++++++++++++++++.",
".+++++++++++++++++.",
".+++++++++++++++++.",
".+++++++++++++++++.",
".++++++++++++++++. ",
" .+++++++++++++++. ",
" .+++++++++++++++. ",
"  .+++++++++++++.  ",
"   .+++++++++++.   ",
"    .+++++++++.    ",
"     ..+++++..     ",
"       .....       "};
