/* XPM */
static char * pipe_pipe_h_pipe[] = {
"109 33 87 1",
" 	c None",
".	c #272822",
"+	c #282824",
"@	c #000000",
"#	c #262724",
"$	c #4A4A44",
"%	c #4B4B49",
"&	c #282722",
"*	c #3B3B36",
"=	c #575850",
"-	c #595951",
";	c #64645B",
">	c #6F6F63",
",	c #58594E",
"'	c #3B3B38",
")	c #6E7065",
"!	c #717168",
"~	c #707165",
"{	c #7B7C72",
"]	c #888679",
"^	c #88897B",
"/	c #878879",
"(	c #858679",
"_	c #868777",
":	c #7D7E78",
"<	c #4B4B3F",
"[	c #7B7C6F",
"}	c #8D8E82",
"|	c #97978D",
"1	c #989989",
"2	c #99978A",
"3	c #979888",
"4	c #979891",
"5	c #8F9081",
"6	c #A19F90",
"7	c #A0A18F",
"8	c #A0A191",
"9	c #989992",
"0	c #9FA091",
"a	c #9FA08E",
"b	c #28291C",
"c	c #8D8D88",
"d	c #A9A999",
"e	c #B1B2A0",
"f	c #B7B8A6",
"g	c #B0B19E",
"h	c #B6B8A9",
"i	c #3B3C2E",
"j	c #B9B8A6",
"k	c #B8B9A9",
"l	c #C1C1AE",
"m	c #BFC1AC",
"n	c #C8C7B3",
"o	c #C9C8B4",
"p	c #D0CFBA",
"q	c #C9C7BA",
"r	c #C7C7BD",
"s	c #C7C8B9",
"t	c #D8D7C3",
"u	c #D6D5C1",
"v	c #D3D3BD",
"w	c #D5D6C8",
"x	c #DCDBC6",
"y	c #E6E6CE",
"z	c #DCDCC9",
"A	c #A8A997",
"B	c #E8E8CE",
"C	c #E8E6D2",
"D	c #E6E8D2",
"E	c #ECECD4",
"F	c #E6E7D9",
"G	c #E6E6D3",
"H	c #E9E7D8",
"I	c #EDEDD9",
"J	c #F6F6E2",
"K	c #EDEEE0",
"L	c #F8F8DE",
"M	c #FBFBE3",
"N	c #F9F7E9",
"O	c #F7F8E8",
"P	c #F7FADF",
"Q	c #FEFEEB",
"R	c #F6F8E1",
"S	c #D6D8C3",
"T	c #C5C5B3",
"U	c #C6C8B4",
"V	c #908E81",
"         .+@@@@@@@@@@@@@@@@@@@@@@@@@@@@@@@@@@@@@@@@@@@@@@@@@@@@@@@@@@@@@@@@@@@@@@@@@@@@@@@@@@@@@@@++         ",
"      #..$$$$$$$$$$$$$$$$$$$%%$%$$%$$$$$$$$$$$$$%$$$%@@@$$$$$$$$$$$$$$$%$$%$$%%$$$$$$$$$$%%%%%.+.$$$&&+      ",
"     +*$$=-;;;;;;;;;;;;;;;>;>->;;;;;;;;;;;;;;;;;;;;;@;;;;;;;;;;;;;;;;;;;;;;;;;>;;;;;;;;;;;;>;.*$$-,,$$'#     ",
"    +*$,=)!~~~~~~~!~!!!~~~~~)>>!!~~~~~~!~~~~)~~~~!!@!)!)!!!)~!~!~~~~~~!!!~~~))>!!!!!!~!!))>!#*$=-!)),,$*&    ",
"    *$;!~{{]^//(_^____]]]]((((^^(__/((((^/^_(((^^/^@^/__/__^^_^_^_//_]]]](^_((((((^^]]((^^^^*$;!!::{!!;%*    ",
"   *<;!{[^}|11111111111222111111111111111132311|11@41111111111111111221211|1|111|||||11|1||*<;!{{@@@:{)>$'   ",
"  .$;)[5^1266676777777776688898888777788888871880@000980a08888a077887766878888887888888866b$;>{c@@@@@c{!;$&  ",
"  *=)[^11ddefeggegggggggeeeeeeeeeegggeeegeeeeeeee@heehfgeeeeeeeggegeggggegegegeeeeeeeeeegg*,!{c@@@@@@@c{!=i  ",
"  *;{^2dgfgjjjjjjjjjjgjjjjjjjjjjkjjjjjjjjjgljjjkh@hjjjjjkjjjjjjjjjjjjjmjjjmgjjjjjjjjjjkjhh*;[c@@@@@@@@@c{;'  ",
" *->_2ddglnoooooooooopopoooooooooooooooooooooqnq@rqooooooooooooooooooooonoooooqoooonnnnqsi->:4@@@@@@@@@@{>=' ",
" *;_^1ggllotuutttttvvvvvvvttttttttvvvtttvvvvuuww@wuvxttvvvttxvvxtvttvvxvvvtttvttttttuuxwui;{c@@@@@@@@@@@c{;' ",
" *;[1dglopvxxxxxxxxxyxyvxxxxxxxxxxxxxxxxyxxyzzzz@zxxxxxxxxxxxxxxxxxxxxxxyxxxxxxxxxzzxzxzzi;{9@@@@@@@@@@@4{;' ",
"b$;^1AjottxBCCCBBBBBBBDBEEBBBBDBBBDECCBBBBBEBDF@FGGDBEBBBBDBBBBBDDCEBEDDBBBEDDECBCDECCHHb$;}|@@@@@@@@@@@@{>$#",
"*;{11AjpxxBIEEIIIIIIIIIIEEEIIIIEIIIIIIIIEEIIIIJ@KJIEIIIEEEIIIEIIIIEEEEIIEEEEIIEEEIIIEIIIi;:|9@@@@@@@@@@@@4{;*",
"*;{11AlvxIELLLLLLLLMLLLLLMLLLLLLLMMLLMLMLLLLLLN@OPPPMLMMLLMLMMLLMLLLLLMLLLMMMLLMLLMMLLLNi;[|@@@@@@@@@@@@@4[;*",
"*;[2AjvxIIMQMMQMQMQMQMQMQMQMQMQQMMMQMMMMMMMMMQQ@OQQMMQMMMMMQMMQMMQQQMMMQMMQMMQMMMMMMMQQQi;[|@@@@@@@@@@@@@4[;*",
"i;{1dkpzILMMLLLLLLLLMLMLLLLLLLLMMLLLLLLLMMLMRMO@OORRLLLLLLLLLLLLLLLLLLLLMLMLLLLMLLLLPPMNi;:|@@@@@@@@@@@@@9{;*",
"*;[1dkvxIELIEIIEIIEEIEEIEEIIIIEEIEIEIIIEEIEEIIK@IIIEIEIIIIIEIIIIIIIEIIEEIEEIIIIEIIIIEIIIi;{9@@@@@@@@@@@@@4{;*",
"*;[11AmSxEIBDDDDEBCCCCECDEDDECBCDCCCDEDDDDDDEDF@FGDECCCDEBCCCBEBCCCDDEBCCCECCCCCDCGDGGHFi;{|@@@@@@@@@@@@@4{>*",
"*;[11AjvxyBxzxxxxxxxxxxxxxxxxxxxxxxxxxxxxxxzxzz@zzzxxxxxxxxxxxxxxxxxxxxxxzxxxxxxzxxzzzzzi;{||@@@@@@@@@@@@|{-*",
"+$;53dkovvxvtvttuuuutttuvtttvtttttttSuuuttttSSw@wwSSSuuuuuuutttvSSuuuuSStttuuuuuttutSStub<;^4@@@@@@@@@@@@:)$#",
" *;[|AgTovtooooooonnoonnoooooooooonnooooooooUsss@sUUsUoooooooooooooooooonnononoononnooqoni;_9@@@@@@@@@@@4{>* ",
" *;{51Agllogjjkkkkjjjjjjkkkkkkkkjjjjjjjkjjjjhkhh@hhhhkhhjjjjjjjjfjjjjfkjjjjfkjjhjjjfkfjffi;[c@@@@@@@@@@@c{;* ",
" *-~{1ddglnfggeegegeeeeeggggggggeeegggggggeeeeee@eheeegeeeeeeeeeeeeegggegeeeegeeegegeggggi,):@@@@@@@@@@@{>-* ",
"  *;{^1ddfe87887978878878788188888788877777888888@89878866777778788780a8888888889877778888*;{c@@@@@@@@@c{;*  ",
"  *,~[511dd2121111112112121121111121311121111113|@||1121||111111211111111111|1||112111311|i,>:c@@@@@@@c:~-*  ",
"  &$;~[}^11]__]]___^((((_/__(((/_(_(/__(_(/(//(_}@^}/___](/(/__(______/__(/(/(((^_^_////((b$;!{@@@@@@c{!;$+  ",
"   *$;~[_}V!~~~~~~~~~~~~~~~~~~~~~~~~~~~~~~~~~~~~!!@!~~~~~~~~~~~~~~~~~~~~~~~~~~~~~~~~)~~~!!~*$;!{:@@@:{>;$*   ",
"    *$;>>[[;;;;;;;;;;;;;;;;;;;;;;;;;;;;;;;;;;;;;;;>@;;;;;;;;;;;;;;;;;;;;;;;;;;;;;;;;;;;;;;;;*$;!:::{!!;$*    ",
"    #*$,,~~$<$$$$$$$$$$$$$$$$$$$$$$$$$$$$$$$$$$$$$$@$$$$$$$$$$<$$$$<$$$$$$$$$$$$$$$$$<$$$$$$&*$--!!!--$*#    ",
"     #'$$--'**''******************''***'*******'*'''@*'*'***''*********'*****'***'**'*'''****.*%%---%%'#     ",
"      ++b$$@@@@@@@@@@@@@@@@@@@@@@@@@@@@@@@@@@@@@@@@@@@@@@@@@@@@@@@@@@@@@@@@@@@@@@@@@@@@@@@@@@@@@@@%%###      ",
"         +#                                                                                      +#+         "};
