/* XPM */
static char *pipe2_pipe2_expand[] = {
/* columns rows colors chars-per-pixel */
"194 99 2 1",
"  c black",
". c gray100",
/* pixels */
".......................................................................................................................................................................     ......................",
"...................................................................................................................................................................      ...   ...................",
".......................................................................................................................................................             ...........  .................",
"...........................................................................................................................................            .......... ............... ................",
"...............................................................................................................................            ....................  ................. ...............",
"...................................................................................................................            ................................ ................... ..............",
".......................................................................................................            ........................................... ..................... .............",
"...........................................................................................            ...................................................... ....................... ............",
"...............................................................................            ................................................................. ......................... ...........",
"...................................................................            ............................................................................ ........................... ..........",
".......................................................            ........................................................................................ ........................... ..........",
"...........................................            ................................................................................................... ............................. .........",
"...............................            .............................................................................................................. ............................... ........",
".....................          .......................................................................................................................... ............................... ........",
"..................   ................................................................................................................................... ................................. .......",
"................  ...................................................................................................................................... ................................. .......",
"..............  ....................................................................................................................................... ................   ................ ......",
"............. ......................................................................................................................................... ..............  ...  .............. ......",
"............ .......................................................................................................................................... ............. ....... ............. ......",
"........... .......................................................................................................................................... ............. ......... ............. .....",
".......... ........................................................................................................................................... ............ ........... ............ .....",
"......... ........................................................................................................................................... ............. ........... ............. ....",
"........ ............................................................................................................................................ ............ ............. ............ ....",
"........ ............................................................................................................................................ ............ ............. ............ ....",
"....... ............................................................................................................................................ ............ ............... ............ ...",
"...... ............................................................................................................................................. ............ ............... ............ ...",
"...... ............................................................................................................................................. ........... ................. ........... ...",
"..... .............................................................................................................................................. ........... ................. ........... ...",
"..... ............................................................................................................................................. ............ ................. ............ ..",
"..... ............................................................................................................................................. ............ ................. ............ ..",
".... .............................................................................................................................................. ........... ................... ........... ..",
".... .............................................................................................................................................. ........... ................... ........... ..",
"... ............................................................................................................................................... ........... ................... ........... ..",
"... ............................................................................................................................................... ........... ................... ............ .",
".. ............................................................................................................................................... ........... ..................... ........... .",
".. ............................................................................................................................................... ........... ..................... ........... .",
".. ............................................................................................................................................... ........... ..................... ........... .",
".. ............................................................................................................................................... ........... ..................... ........... .",
". ................................................................................................................................................ ........... ..................... ........... .",
". ................................................................................................................................................ ........... ..................... ........... .",
". ................................................................................................................................................ ........... ..................... ............ ",
". ................................................................................................................................................ ........... ..................... ............ ",
". ................................................................................................................................................ .......... ...................... ............ ",
". ................................................................................................................................................ .......... ....................... ........... ",
". ............................................................................................................................................... ........... ....................... ........... ",
". ............................................................................................................................................... ........... ....................... ........... ",
" ................................................................................................................................................ ........... ....................... ........... ",
" ................................................................................................................................................ ........... ....................... ........... ",
" ................................................................................................................................................ ........... ....................... ........... ",
" ................................................................................................................................................ ........... ....................... ........... ",
" ................................................................................................................................................ ........... ....................... ........... ",
" ................................................................................................................................................ ........... ....................... ........... ",
" ................................................................................................................................................ ........... ....................... ........... ",
". ............................................................................................................................................... ........... ....................... ........... ",
". ............................................................................................................................................... ........... ....................... ........... ",
". ................................................................................................................................................ .......... ....................... ........... ",
". ................................................................................................................................................ .......... ...................... ............ ",
". ................................................................................................................................................ ........... ..................... ............ ",
". ................................................................................................................................................ ........... ..................... ............ ",
". ................................................................................................................................................ ........... ..................... ........... .",
". ................................................................................................................................................ ........... ..................... ........... .",
".. ............................................................................................................................................... ........... ..................... ........... .",
".. ............................................................................................................................................... ........... ..................... ........... .",
".. ............................................................................................................................................... ........... ..................... ........... .",
".. ............................................................................................................................................... ........... ..................... ........... .",
"... ............................................................................................................................................... ........... ................... ............ .",
"... ............................................................................................................................................... ........... ................... ........... ..",
".... .............................................................................................................................................. ........... ................... ........... ..",
".... .............................................................................................................................................. ........... ................... ........... ..",
"..... ............................................................................................................................................. ............ ................. ............ ..",
"..... ............................................................................................................................................. ............ ................. ............ ..",
"..... .............................................................................................................................................. ........... ................. ........... ...",
"...... ............................................................................................................................................. ........... ................. ........... ...",
"...... ............................................................................................................................................. ............ ............... ............ ...",
"....... ............................................................................................................................................ ............ ............... ............ ...",
"........ ............................................................................................................................................ ............ ............. ............ ....",
"........ ............................................................................................................................................ ............ ............. ............ ....",
"......... ........................................................................................................................................... ............. ........... ............. ....",
".......... ........................................................................................................................................... ............ ........... ............ .....",
"........... .......................................................................................................................................... ............. ......... ............. .....",
"............ .......................................................................................................................................... ............. ....... ............. ......",
"............. ......................................................................................................................................... ..............  ...  .............. ......",
"..............  ....................................................................................................................................... ................   ................ ......",
"................  ...................................................................................................................................... ................................. .......",
"..................   ................................................................................................................................... ................................. .......",
".....................  .       .......................................................................................................................... ............................... ........",
"...............................            .............................................................................................................. ............................... ........",
"...........................................            ................................................................................................... ............................. .........",
".......................................................            ........................................................................................ ........................... ..........",
"...................................................................            ............................................................................ ........................... ..........",
"...............................................................................            ................................................................. ......................... ...........",
"...........................................................................................            ...................................................... ....................... ............",
".......................................................................................................            ........................................... ..................... .............",
"...................................................................................................................            ................................ ................... ..............",
"...............................................................................................................................            ....................  ................. ...............",
"...........................................................................................................................................            .......... ............... ................",
".......................................................................................................................................................             ...........  .................",
"...................................................................................................................................................................      ...   ...................",
".......................................................................................................................................................................     ......................"
};
