/* XPM */
static char * pipe3_pipe3_b_pipe[] = {
"113 78 3 1",
" 	c None",
".	c #000000",
"+	c #FFFFFF",
"................................................................................                                 ",
".+++++++++++++++++++++++++++++++++++++++++++++++++++++++++++++++++++++++++++++++.....                            ",
".++++++++++++++++++++++++++++++++++++++++++++++++++++++++++++++++++++++++++++++++++++....                        ",
".++++++++++++++++++++++++++++++++++++++++++++++++++++++++++++++++++++++++++++++++++++++++..                      ",
".++++++++++++++++++++++++++++++++++++++++++++++++++++++++++++++++++++++++++++++++++++++++++..                    ",
".++++++++++++++++++++++++++++++++++++++++++++++++++++++++++++++++++++++++++++++++++++++++++++..                  ",
".++++++++++++++++++++++++++++++++++++++++++++++++++++++++++++++++++++++++++++++++++++++++++++++..                ",
".++++++++++++++++++++++++++++++++++++++++++++++++++++++++++++++++++++++++++++++++++++++++++++++++..              ",
".++++++++++++++++++++++++++++++++++++++++++++++++++++++++++++++++++++++++++++++++++++++++++++++++++..            ",
".++++++++++++++++++++++++++++++++++++++++++++++++++++++++++++++++++++++++++++++++++++++++++++++++++++.           ",
".+++++++++++++++++++++++++++++++++++++++++++++++++++++++++++++++++++++++++++++++++++++++++++++++++++++.          ",
".++++++++++++++++++++++++++++++++++++++++++++++++++++++++++++++++++++++++++++++++++++++++++++++++++++++.         ",
".+++++++++++++++++++++++++++++++++++++++++++++++++++++++++++++++++++++++++++++++++++++++++++++++++++++++..       ",
".++++++++++++++++++++++++++++++++++++++++++++++++++++++++++++++++++++++++++++++++++++++++++++++++++++++++.       ",
".+++++++++++++++++++++++++++++++++++++++++++++++++++++++++++++++++++++++++++++++++++++++++++++++++++++++++.      ",
".++++++++++++++++++++++++++++++++++++++++++++++++++++++++++++++++++++++++++++++++++++++++++++++++++++++++++.     ",
".+++++++++++++++++++++++++++++++++++++++++++++++++++++++++++++++++++++++++++++++++++++++++++++++++++++++++++.    ",
".+++++++++++++++++++++++++++++++++++++++++++++++++++++++++++++++++++++++++++++++++++++++++++++++++++++++++++.    ",
".++++++++++++++++++++++++++++++++++++++++++++++++++++++++++++++++++++++++++++++++++++++++++++++++++++++++++++.   ",
".++++++++++++++++++++++++++++++++++++++++++++++++++++++++++++++++++++++++++++++++++++++++++++++++++++++++++++.   ",
".+++++++++++++++++++++++++++++++++++++++++++++++++++++++++++++++++++++++++++++++++++++++++++++++++++++++++++++.  ",
".+++++++++++++++++++++++++++++++++++++++++++++++++++++++++++++++++++++++++++++++++++++++++++++++++++++++++++++.  ",
".++++++++++++++++++++++++++++++++++++++++++++++++++++++++++++++++++++++++++++++++++++++++++++++++++++++++++++++. ",
".++++++++++++++++++++++++++++++++++++++++++++++++++++++++++++++++++++++++++++++++++++++++++++++++++++++++++++++. ",
".++++++++++++++++++++++++++++++++++++++++++++++++++++++++++++++++++++++++++++++++++++++++++++++++++++++++++++++..",
".++++++++++++++++++++++++++++++++++++++++++++++++++++++++++++++++++++++++++++++++++++++++++++++++++++++++++++++..",
".+++++++++++++++++++++++++++++++++++++++++++++++++++++++++++++++++++++++++++++++++++++++++++++++++++++++++++++++.",
".+++++++++++++++++++++++++++++++++++++++++++++++++++++++++++++++++++++++++++++++++++++++++++++++++++++++++++++++.",
".+++++++++++++++++++++++++++++++++++++++++++++++++++++++++++++++++++++++++++++++++++++++++++++++++++++++++++++++.",
"...................................................................+++++++++++++++++++++++++++++++++++++++++++++.",
"                                                                   ...++++++++++++++++++++++++++++++++++++++++++.",
"                                                                      ..++++++++++++++++++++++++++++++++++++++++.",
"                                                                        .+++++++++++++++++++++++++++++++++++++++.",
"                                                                         .++++++++++++++++++++++++++++++++++++++.",
"                                                                          .+++++++++++++++++++++++++++++++++++++.",
"                                                                           .++++++++++++++++++++++++++++++++++++.",
"                                                                            .+++++++++++++++++++++++++++++++++++.",
"                                                                            .+++++++++++++++++++++++++++++++++++.",
"                                                                             .++++++++++++++++++++++++++++++++++.",
"                                                                             .++++++++++++++++++++++++++++++++++.",
"                                                                             .++++++++++++++++++++++++++++++++++.",
"                                                                              .+++++++++++++++++++++++++++++++++.",
"                                                                              .+++++++++++++++++++++++++++++++++.",
"                                                                              .+++++++++++++++++++++++++++++++++.",
"                                                                              .+++++++++++++++++++++++++++++++++.",
"                                                                              .+++++++++++++++++++++++++++++++++.",
"                                                                              .+++++++++++++++++++++++++++++++++.",
"                                                                              .+++++++++++++++++++++++++++++++++.",
"                                                                              .+++++++++++++++++++++++++++++++++.",
"                                                                              .+++++++++++++++++++++++++++++++++.",
"                                                                              .+++++++++++++++++++++++++++++++++.",
"                                                                              .+++++++++++++++++++++++++++++++++.",
"                                                                              .+++++++++++++++++++++++++++++++++.",
"                                                                              .+++++++++++++++++++++++++++++++++.",
"                                                                              .+++++++++++++++++++++++++++++++++.",
"                                                                              .+++++++++++++++++++++++++++++++++.",
"                                                                              .+++++++++++++++++++++++++++++++++.",
"                                                                              .+++++++++++++++++++++++++++++++++.",
"                                                                              .+++++++++++++++++++++++++++++++++.",
"                                                                              .+++++++++++++++++++++++++++++++++.",
"                                                                              .+++++++++++++++++++++++++++++++++.",
"                                                                              .+++++++++++++++++++++++++++++++++.",
"                                                                              .+++++++++++++++++++++++++++++++++.",
"                                                                              .+++++++++++++++++++++++++++++++++.",
"                                                                              .+++++++++++++++++++++++++++++++++.",
"                                                                              .+++++++++++++++++++++++++++++++++.",
"                                                                              .+++++++++++++++++++++++++++++++++.",
"                                                                              .+++++++++++++++++++++++++++++++++.",
"                                                                              .+++++++++++++++++++++++++++++++++.",
"                                                                              .+++++++++++++++++++++++++++++++++.",
"                                                                              .+++++++++++++++++++++++++++++++++.",
"                                                                              .+++++++++++++++++++++++++++++++++.",
"                                                                              .+++++++++++++++++++++++++++++++++.",
"                                                                              .+++++++++++++++++++++++++++++++++.",
"                                                                              .+++++++++++++++++++++++++++++++++.",
"                                                                              .+++++++++++++++++++++++++++++++++.",
"                                                                              .+++++++++++++++++++++++++++++++++.",
"                                                                              ..................................+"};
