/* XPM */
static char * pipe_pipe_h_pipe[] = {
"104 31 196 2",
"  	c None",
". 	c #3B3C37",
"+ 	c #000100",
"@ 	c #000000",
"# 	c #010000",
"$ 	c #3C3B37",
"% 	c #3C3D38",
"& 	c #3B3C36",
"* 	c #4A4B45",
"= 	c #4A4B43",
"- 	c #4B4A45",
"; 	c #4B4A46",
"> 	c #4B4C46",
", 	c #4B4B43",
"' 	c #3C3B36",
") 	c #65655B",
"! 	c #65655D",
"~ 	c #64645A",
"{ 	c #66665E",
"] 	c #65645F",
"^ 	c #64655D",
"/ 	c #717165",
"( 	c #717264",
"_ 	c #707066",
": 	c #010100",
"< 	c #717169",
"[ 	c #707265",
"} 	c #707267",
"| 	c #727268",
"1 	c #3C3C34",
"2 	c #3A3B33",
"3 	c #717167",
"4 	c #646458",
"5 	c #868779",
"6 	c #868777",
"7 	c #86867C",
"8 	c #86867A",
"9 	c #3B3C34",
"0 	c #86867E",
"a 	c #64665B",
"b 	c #989989",
"c 	c #98998B",
"d 	c #98988E",
"e 	c #989987",
"f 	c #98988C",
"g 	c #A0A191",
"h 	c #A0A18F",
"i 	c #9FA291",
"j 	c #9FA193",
"k 	c #A0A096",
"l 	c #A0A193",
"m 	c #9FA090",
"n 	c #A2A093",
"o 	c #3C3C30",
"p 	c #4B4B41",
"q 	c #87877D",
"r 	c #3B3A35",
"s 	c #B1B2A0",
"t 	c #B1B2A2",
"u 	c #B2B3A1",
"v 	c #B0B3A2",
"w 	c #B0B2A4",
"x 	c #B1B1A5",
"y 	c #B0B19F",
"z 	c #B1B39E",
"A 	c #B3B1A4",
"B 	c #3E3B32",
"C 	c #989890",
"D 	c #7C7C70",
"E 	c #AAAB99",
"F 	c #B8B9A7",
"G 	c #B8BAA5",
"H 	c #BAB9A7",
"I 	c #BAB8A9",
"J 	c #B8B9AB",
"K 	c #B8B9A9",
"L 	c #BAB9A5",
"M 	c #7C7C72",
"N 	c #989991",
"O 	c #7D7D71",
"P 	c #979888",
"Q 	c #A9AA98",
"R 	c #C7C9B4",
"S 	c #C8C7B3",
"T 	c #C9C8B4",
"U 	c #C9C8B6",
"V 	c #C7C8B6",
"W 	c #C6C6BA",
"X 	c #C8C9B7",
"Y 	c #C6C8B3",
"Z 	c #C8CAB5",
"` 	c #010002",
" .	c #3A3B35",
"..	c #D0CFBB",
"+.	c #D7D6C1",
"@.	c #D7D6C2",
"#.	c #D7D6C4",
"$.	c #D5D5C9",
"%.	c #D5D7C1",
"&.	c #D5D6C4",
"*.	c #000002",
"=.	c #010101",
"-.	c #989792",
";.	c #A9AA9A",
">.	c #DDDDC5",
",.	c #DDDCC7",
"'.	c #DEDDC8",
").	c #DDDCC8",
"!.	c #DBDBCF",
"~.	c #DCDBC6",
"{.	c #DBDDC8",
"].	c #DBDCCA",
"^.	c #7C7C74",
"/.	c #CECFBD",
"(.	c #E8E8D0",
"_.	c #E7E7CF",
":.	c #E8E7D2",
"<.	c #E7E6D1",
"[.	c #E8E7D3",
"}.	c #010200",
"|.	c #E7E8DA",
"1.	c #E9E8D3",
"2.	c #E9E9D1",
"3.	c #E6E7D5",
"4.	c #3C3D2F",
"5.	c #636558",
"6.	c #7B7D72",
"7.	c #B7B8A6",
"8.	c #D5D7C2",
"9.	c #EEEDD8",
"0.	c #EEEED6",
"a.	c #EDECD7",
"b.	c #ECEDDD",
"c.	c #EEEDD9",
"d.	c #EFEFD7",
"e.	c #7B7B6F",
"f.	c #CED0BB",
"g.	c #DBDDC7",
"h.	c #F9F9E1",
"i.	c #F9F8E3",
"j.	c #F8F7E2",
"k.	c #F7F8E8",
"l.	c #F9F8E4",
"m.	c #F8F8E0",
"n.	c #F7F8E6",
"o.	c #CDCFBA",
"p.	c #FAFAE2",
"q.	c #979890",
"r.	c #EDEDD5",
"s.	c #3B3C2E",
"t.	c #7D7D75",
"u.	c #999A8A",
"v.	c #E6E7D9",
"w.	c #E6E7D7",
"x.	c #97998E",
"y.	c #97978D",
"z.	c #3A3B36",
"A.	c #DBDCCE",
"B.	c #DCDDCB",
"C.	c #656559",
"D.	c #D8D7C3",
"E.	c #D8D7C2",
"F.	c #D6D7C9",
"G.	c #D5D6C6",
"H.	c #3C3C32",
"I.	c #66665C",
"J.	c #7C7D6F",
"K.	c #C7C7BB",
"L.	c #C7C8B8",
"M.	c #020200",
"N.	c #000200",
"O.	c #85877C",
"P.	c #B2B3A3",
"Q.	c #B1B2A4",
"R.	c #000201",
"S.	c #A1A294",
"T.	c #9FA092",
"U.	c #A1A292",
"V.	c #9FA08E",
"W.	c #A0A094",
"X.	c #9A9889",
"Y.	c #888679",
"Z.	c #87887A",
"`.	c #85867E",
" +	c #64645C",
".+	c #727266",
"++	c #737165",
"@+	c #85857B",
"#+	c #67645B",
"$+	c #66665A",
"%+	c #4B4C44",
"&+	c #4C4C44",
"*+	c #494A42",
"=+	c #4A4C41",
"-+	c #494B40",
";+	c #3B3A36",
"                  . . + + + @ + # # @ + @ + @ + # # @ + # # @ + # # @ + @ + @ + # # @ + # # @ + # # @ @ @ + # # # # @ + # # @ + # # @ + @ + @ + # # @ + # # @ + # # @ + # # @ + # # @ + # $ %                   ",
"            . & & * * = * * * * - - * * - - * * - - * * - - * * - - * * - - * * - - * * - - * * ; ; + + + * - - - - * * - - * * - - * * - - * * - - * * - - * * - - - - - - > * ; $ & & - , * & & .             ",
"          . ' , , ) ) ) ! ! ) ) ! ! ) ) ! ! ) ) ! ! ) ) ) ) ) ) ! ! ) ) ! ! ) ) ! ! ) ) ) ) ~ { ] # ! ! ! { ) ) ! ! ) ) ! ! ) ) ! ! ) ) ! ! ) ) ! ! ) ) ) ) ) ) ^ ! ) ) ! ^ ! ! & & , , ! ) ! , , ' $           ",
"        . & ! ) ) / / / / / / / / / / / / / / / / / / ( / ( / / / / / / / / / / / / / ( / / / _ : < / / / / / / / / / / / / / / / / / / / / / / / / / ( / ( / / [ / / / / } | 1 2 ^ ) ) 3 3 3 ) ) ! ' $         ",
"      . & ^ 4 / / 5 5 5 5 5 5 5 5 5 5 5 5 5 5 5 5 5 5 6 5 6 5 5 5 5 5 5 5 5 5 5 5 5 5 6 5 5 7 : 7 8 5 5 5 5 5 5 5 5 5 5 5 5 5 5 5 5 5 5 5 5 5 5 5 5 5 6 5 6 5 5 5 5 6 6 5 8 9 9 ! ~ / / 0 0 7 3 3 ) ) ' .       ",
"      & ^ a ( 5 5 b b b c b b b c b b b c b b b c b b b b b b b c b b b c b b b c b b b b c d : c b b b c b b b c b b b c b b b c b b b c b b b c b b b b b b b c b e e c f 1 ^ ) 3 7 7 # # # 0 7 3 ) ! &       ",
"    ' , ) / 5 b b g g h g g g h g g g h g g g h g g g h g g h h g g g h g g g h g g g h i j : k l h h h g m g h g g g h g g g h g g g h g g g h g g g h g g h h g g h h n o p ) / q # # @ @ @ + : 7 3 ) , $     ",
"    r ) / 5 b g g s s s t s s s t s s s t s s s t s s s t s s s t s s s t t s s t s s u v w : x t s s s t s s s t s s s t s s s t s s s t s s s t s s s t s s y t s z s A B ) 3 8 C # # @ @ @ @ # C 7 3 ) 1     ",
"  . , ) D c m E s F F G H H F G H H F G H H F G H H F G H H F G H H F F I I F G H H F F J : K F H L G G H H F G H H F G H H F G H H F G H H F G H H F G H H F G H H L H o p ) M N + @ @ @ @ @ @ # # C M ) p .   ",
"  . ! O 5 P Q s F G R R S T R R T T R R T T R R T T R R T T R R T T R R U U R R T T R V W : X R T T Y R T T R R T T R R T T R R T T R R T T R R T T R R T T Z R T T S U o ) D 7 + @ @ @ @ @ @ @ ` # # 7 M )  .  ",
"  . ) D c g s F T ..+.+.+.+.+.+.+.+.+.+.+.+.+.+.+.+.+.+.+.+.+.+.+.+.+.+.+.@.+.+.+.+.+.#.$.: #.+.+.+.+.+.+.+.+.+.+.+.+.+.+.+.+.+.+.+.+.+.+.+.+.+.+.+.+.+.+.+.+.+.+.+.%.&.o ) D d + @ @ @ *.*.=.@ @ @ # -.M ! &   ",
"  & ) 5 b ;.F V @.+.>.>.,.,.,.,.,.,.,.,.,.,.,.,.,.,.,.,.,.,.,.,.,.,.>.>.,.,.,.,.,.'.,.).!.: ).,.,.,.,.,.~.,.,.,.,.,.,.,.,.,.,.,.,.,.,.,.,.,.,.,.,.,.,.,.,.,.,.,.,.,.{.].o ) 8 d + @ @ =.*.*.@ @ @ @ # # ^.) &   ",
". ^ D c b ;.F /.).,.(._.:.<.(.(.:.:.(.(.:.:.(.(.:.:.(.(.:.:.(.(.(.(.(.(.:.:.(.(.:.:.(.[.}.|.[.(.:.1.2.(.:.:.(.(.:.:.(.(.:.:.(.(.:.:.(.(.:.:.(.(.:.:.(.(.:.:.(.(.:.[.3.4.5.6.f d + @ @ @ @ @ @ @ @ @ @ + d O ^ & ",
"& a D c b Q 7.8.,.9.0.0.9.9.0.0.9.9.0.0.9.9.0.0.9.9.0.0.9.9.0.0.0.0.0.0.9.9.0.0.9.9.0.a.}.b.c.0.9.9.0.0.9.9.0.0.9.9.0.0.9.9.0.0.9.9.0.0.9.9.0.0.9.9.0.0.9.9.0.d.9.c.b.4.a 6.d : @ @ @ @ @ @ =.@ @ @ @ + d D a & ",
"' ) e.c ;.F f.g.9.0.h.h.h.h.h.h.h.h.i.i.h.h.h.h.h.h.i.i.h.h.h.h.h.h.h.h.h.h.h.h.j.i.h.i.}.k.l.h.h.h.h.h.h.h.h.h.h.h.h.h.h.h.h.h.h.h.i.i.h.h.h.h.h.h.i.i.h.h.m.h.h.j.n.4.) ^.N + @ @ @ @ @ @ *.*.@ @ @ + d D a & ",
"' ) O b ;.F o.g.0.h.p.h.h.h.h.h.h.h.i.i.h.h.h.h.h.h.i.i.h.h.h.h.h.h.h.h.h.h.h.h.i.i.h.i.}.k.i.h.h.h.h.h.h.h.h.h.h.h.h.h.h.h.h.h.h.h.i.i.h.h.h.h.h.h.i.i.h.h.h.m.h.i.n.4.) ^.q.+ @ @ @ @ @ @ *.*.@ @ @ + d D a & ",
"' ) D b ;.F ..,.0.0.h.0.9.9.0.0.9.9.0.0.9.9.0.0.9.9.0.0.9.9.0.0.9.9.0.0.9.9.0.r.9.9.0.9.}.b.9.0.0.9.0.0.9.9.0.0.9.9.0.0.9.9.0.0.9.9.0.0.9.9.0.0.9.9.0.0.9.9.d.0.9.c.b.s.) t.q.+ @ @ @ @ @ @ @ =.@ @ @ }.d D a & ",
"' ) D c u.s L @.~.0.0.(.:.:.(.(.:.:.(.(.:.:.(.(.:.:.(.(.:.:.(.(.:.:.(.(.:.:.(.(.:.:.(.[.}.v.:.(.:.:.(.(.:.:.(.(.:.:.(.:.:.:.(.(.:.:.(.(.:.:.(.(.:.:.(.(.:.:.(.(.:.[.w.4.) M x.+ @ @ @ @ @ @ @ @ @ @ @ + y.D ^ & ",
"z.^ D c b Q G f.,.,.:.,.,.,.>.>.,.,.,.,.,.,.,.,.,.,.,.,.,.,.,.,.,.,.,.,.,.,.,.,.,.,.>.).}.A.).,.,.,.,.,.,.,.,.,.,.,.,.,.,.,.>.>.,.,.,.,.,.,.,.,.,.,.,.,.,.,.,.,.>.,.B.4.) M c f @ @ @ @ @ @ @ @ + + @ + d D ^ . ",
"  9 C.5 b ;.F R D.+.).+.@.E.+.+.+.+.+.+.+.+.+.+.+.+.+.+.+.+.+.+.+.+.+.+.+.+.E.+.+.+.+.@.F.: #.+.+.+.+.+.+.+.+.+.+.+.+.+.+.+.+.+.+.+.+.+.+.+.+.+.+.+.+.+.+.+.+.+.+.+.8.G.H.) 5 f + *.@ @ @ @ @ @ + + @ + M ) &   ",
"  & I.J.b g s F U ..#.T U T R R T T R R T T R R T T R R T T R R T T R R T T R R T T R V K.: U T T T R T T T T R T T R R T T R R T T R R T T R R T T R R T T R R T S R L.H.) J.f + @ =.@ @ @ @ @ + + + q.M ) &   ",
"  . ! D 5 u.Q s H H U H H H F G H H F G H H F G H H F G H H G G L L G G H H F G H H F F J M.I H H H G G H H G G H H F G H H F G H H F G H H F G H H F G H H F G H H G K H.) O 7 + @ @ @ @ @ @ @ + + N.O.M ! .   ",
"  . , I.J.b h Q s F F s P.s s s t s s s t s s s t s s s t s z z s s s s t s y s t s s s Q.}.Q.t s s s s s s s s t s s s t s s s t s s s t s s s t s s s t s s s s u s t H.p C.D d # @ @ R.+ @ @ @ + x.D ) , .   ",
"    ' ) / 5 b h h s s h g m g h g g g h g g g h g g g h g g h h g g g h g g g h g g g g S.l : T.U.h h h h h h h g g g h g g g h g g g h g g g h g g g h g g g V.h V.h g W.H.) / 8 d + @ + + @ @ + q.8 / ! '     ",
"    . = ) ( 5 u.b g U.b c b b b c b b b c b X.X.c b b b c b e e b b b b c b X.X.c b b b c f : d c b b u.b b b b c b b b c b b b c b b b c b X.X.c b b b c b P b b b b b f H.p ) / 8 + + @ @ @ + : 7 3 ) * %     ",
"      & ) C./ 5 5 b c 5 5 5 5 5 5 5 5 5 5 5 Y.Y.5 5 5 5 5 5 6 6 5 5 5 5 5 5 Y.Y.5 5 5 5 8 7 0 : 8 5 5 5 5 Z.5 5 5 5 5 5 5 5 5 5 5 5 5 5 5 5 Y.Y.5 5 5 5 5 5 Z.5 5 5 5 5 8 7 1 ) C./ O.`.+ + + `.0 3 )  +.       ",
"      . & ^ ) / / 5 8 / 3 3 / / / / / / / / / / / / / / / / / / / / / / / / / / / / / / / 3 < : < 3 / / / .+/ / / / / / / / / / / / / / / / / / / / / / / / / / ++++/ / / 3 2 9 ) ) 3 3 @+7 7 3 3 ) ^ & .       ",
"        % & ! ) ) / 3 ) ! ! ) ) ) ) ) ) ) ) ) ) ) ) ) ) ) ) ) ) ) ) ) ) ) ) ) I.) ) ) ) ~ ! ! ] : ! ) ) ) ) ) ) ) ) ) ) ) ) ) ) ) ) ) ) ) ) ) ) ) ) ) ) ) ) ) ) #+) ) ) ) ! ^ 9 1 ! ) $+3 / 3 ) ) ! 9 &         ",
"          . & %+= a ! , , &+= = , , = = , , = = , , = = , , = = , , = = , , = *+, , = = , , = = * + * * * = = = , , =+=+, , = = , , = = , , = = , , = = , , =+-+, , &+= , , = = & 9 = =+! ) ! , = & .           ",
"            . & & * - ' $ $ & & $ $ & & $ $ & & $ $ & & $ $ & & $ $ & & $ $ & & $ $ & & $ ;+& & . . + + + . & & . & & & ' $ & & $ $ & & $ $ & & $ $ & & $ ' & & ' $ & & $ $ & & . . & & - - - ' . .             ",
"                  . . + @ @ @ @ @ @ @ @ @ @ @ @ @ @ @ @ @ @ @ @ @ @ @ @ @ @ @ @ @ @ @ @ @ @ @ @ @ @ @ @ @ @ @ @ @ @ @ @ @ @ @ @ @ @ @ @ @ @ @ @ @ @ @ @ @ @ @ @ @ @ @ @ @ @ @ @ @ @ @ @ + . .                   "};
