/* XPM */
static char * pipeline_pipeline_d_pipe[] = {
"104 45 5 1",
" 	c None",
".	c #000000",
"+	c #FFFFFF",
"@	c #FEFEFE",
"#	c #010101",
"         ....                                                                                           ",
"      ...++++......                                                                                     ",
"     .++@++++++++++.....                                                                                ",
"    .+++++++++++++++++++......                                                                          ",
"   .++++++++++++++++++++++++++.....                                                                     ",
"   .+++++++@+++++++@+++++++++++++++......                                                               ",
"  .++++++++++++++++++++++++++++++++++++++.....                                                          ",
"  .+++++++++++++++++++++++++++++++++++@+++++++......                                                    ",
" .++++++++++++++++++++++++++++++++++++++++++++++@+........                                              ",
" .@+++++++++++++++++++++++++++++++++++++++@++++++.++++++++.....                                         ",
" .++++++++++++++++++++++++++++++++++++++++@+++++.++++++++++++++......                                   ",
" .+++++++++++++++++++++++++++++++++++++++++++++.+++++++++++++++++++++.....                              ",
".@+++++++++++++++++++++++++++++++++++++++++++++.++++++++++++++++++++++++++......                        ",
".@++++++++++++++++++++++++++++++++++++++++++++.+++++++++++++++++++++++++++++++++.....                   ",
".+++++++++++++++++++++++++++++++++++++++++++++.++++++++++++++++++++++++++++++++++++++......             ",
".++++++++++++++++++++++++++++++++++++++++++++.+++++++++++++++++++++++++++++++++++++@+++++++....         ",
".+++++++++++++++++++++++++++++++++++++++@@+++.+++++++++++++++++++++++++++++++++++++++++++...+++...      ",
".++++++++++++++++++++++++++++++++++++++++++++.++++++++++++++++++++++++++++++++++++++++++.+++@+++++.     ",
".++++++++++++++++++++++++++++++++++++++++++++.+++++++@+++++++++++++++++++++++++++++++++.+++++++++++.    ",
" .++++++++++++++++++++++++++++++++++++++++++.+++++++++++++++++++++++++++++++++@+++++++.++++++@+++@+@.   ",
" .++++++++++++++++++++++++++++++++++++++++++.+++++++++++++++++++++++++++++++++++++@++.++++++...+++++.   ",
" .++++++++++++++++++++++++++++++++++++++++++.++++++++++++++++++++++++++++++++++++@++@.+++++.++@.++@++.  ",
" .+++++++++@++++++++++++++++++++++++++++++++.++++++++++++++++++++++++++++++++++++++++.++++.+++++.++@+.  ",
"  .+++++++++++++++++++++++++++++++++++++++++.++++++++++++++++++++++++++++++++++++++@.++++.+++++++.++++. ",
"  .++++@++++++++++++++++++++++++++++++++++++.+++++++++++++++++++++++++++++++++++++++.++++.+++++++.++++. ",
"   .++++++++++++++++++++++++++++++++++++++++.++++++++++++++++++++++++++++++++++++@++.++++.+++++++.++++. ",
"   .+++++++++++++++++++++++++++++++++++++++++.+++++++++++++++++++++++++++++++++++++.+++++.+++++@+.+++++.",
"    .+++@+++@++++++++++++++++++++++++++++++++.+++++++++++++++++++++++++++++++++++++.++++.+++++++++.++++.",
"     .+++++++++++++++++++++++++++++++++++++++.+++++++++++++++++++++++++++++++++++++.++++.+++++++++.++++.",
"      ..#....++++++++++++++++++++++++++++++++.+++++++++++++++++++++++++++++++++++++.++++.++++++++@.++++.",
"             ......++++++++++++++++++@++++++++.++++++++++++++++++++++++++++++++++++.++++.+++++++++.++++.",
"                   .....++++++++++++++++++++++.++++++++++++++++++++++++++++++++++++.++++.++++@++++.++++.",
"                        ......+++++++++++++++++.+++++++++++++++++++++++++++++++++++.+++++#+++++++.+++++.",
"                              .....++++++++++++.++++++++++++++++++++++++++++++++++++.++++.+++++@+.++++. ",
"                                   ......+++++++.+@++++@++++++++++++++++++++++++++++.@+++.+++++++.++++. ",
"                                         .....+++.+++++++++++++++++++++++++++++@++++.++++.+++++@@.++++. ",
"                                              .......++++++++++++++++++++++++++++++++#++++.+++++.++++.  ",
"                                                    ......+++++++++++++++++++++++++++.+++++.+++.+++@+.  ",
"                                                          .....++++++++++++++++++++++.++++++...+++++.   ",
"                                                               .#....+++++++++++++++++.+++++++++++++.   ",
"                                                                     .....+++++@+++++@+.+++++++++++.    ",
"                                                                          ......++++++++.++++++@++.     ",
"                                                                                .....++++...+++...      ",
"                                                                                     .#....+...         ",
"                                                                                           ..           "};
