/* XPM */
static char * pipe3_pipe3_v_pipe[] = {
"36 104 25 1",
" 	c None",
".	c #3C3C36",
"+	c #282824",
"@	c #595950",
"#	c #65655B",
"$	c #4B4B44",
"%	c #7C7C70",
"&	c #717166",
"*	c #99998A",
"=	c #868679",
"-	c #000000",
";	c #A1A191",
">	c #B2B2A0",
",	c #B9B9A7",
"'	c #C8C8B4",
")	c #CFCFBB",
"!	c #D6D6C1",
"~	c #E2E2CC",
"{	c #E8E8D2",
"]	c #F4F4DC",
"^	c #F9F9E1",
"/	c #FFFFE6",
"(	c #EEEED7",
"_	c #DCDCC7",
":	c #AAAA99",
"              .........             ",
"          +...@#######@...+         ",
"       +..$###%%%%%%%%&###$..+      ",
"      +.@##%%%*********%%%##@.+     ",
"     .$@&%%=**---------**=%%&@$.    ",
"    .$@&%%*---------------*%%&@$.   ",
"  +.$@&%=-------------------=%&@$.+ ",
"  +$@&%=---------------------=%&@$+ ",
"  +$@&%-----------------------%&@$+ ",
" +$@&%-------------------------%&@$+",
"++$@&%-------------------------%&@$+",
"-+$@&%-------------------------%&@$+",
"-$+$@&%-----------------------%&@$+-",
"-$+$@&%=---------------------=%&@$+-",
"-$+.$@&%=-------------------=%&@$.+-",
"-$@&.$@&%%*---------------*%%&@$.$+-",
"-$@&%+$@&%%=**---------**=%%&@$+@$+-",
"-$@&%=+.@##%%%=*******=%%%##@.+&@$+-",
"-$@&%=*;..$###%%%%%%%%%###$..=%&@$+-",
"-$@&%=*;>,+...@#######@...+;*=%&@$+-",
"-$@&%=*;>,')!~+.......+)',>;*=%&@$+-",
"-$@&%=*;>,')!~{]^/^]{~!)',>;*=%&@$+-",
"-$@&%=*;>,')!~{]^/^]{~!)',>;*=%&@$+-",
"-$@&%=*;>,')!~{]^/^]{~!)',>;*=%&@$+-",
"-$@&%=*;>,')!~{]^/^]{~!)',>;*=%&@$+-",
"-$@&%=*;>,')!~{]^/^]{~!)',>;*=%&@$+-",
"-$@&%=*;>,')!~{]^/^]{~!)',>;*=%&@$+-",
"-$@&%=*;>,')!~{]^/^]{~!)',>;*=%&@$+-",
"-$@&%=*;>,')!~{]^/^]{~!)',>;*=%&@$+-",
"-$@&%=*;>,')!~{]^/^]{~!)',>;*=%&@$+-",
"-$@&%=*;>,')!~{]^/^]{~!)',>;*=%&@$+-",
"-$@&%=*;>,')!~{]^/^]{~!)',>;*=%&@$+-",
"-$@&%=*;>,')!~{]^/^]{~!)',>;*=%&@$+-",
"-$@&%=*;>,')!~{]^/^]{~!)',>;*=%&@$+-",
"-$@&%=*;>,')!~{]^/^]{~!)',>;*=%&@$+-",
"-$@&%=*;>,')!~{]^/^]{~!)',>;*=%&@$+-",
"-$@&%=*;>,')!~{]^/^]{~!)',>;*=%&@$+-",
"-$@&%=*;>,')!~{]^/^]{~!)',>;*=%&@$+-",
"-$@&%=*;>,')!~{]^/^]{~!)',>;*=%&@$+-",
"-$@&%=*;>,')!~{]^/^]{~!)',>;*=%&@$+-",
"-$@&%=*;>,')!~{]^/^]{~!)',>;*=%&@$+-",
"-$@&%=*;>,')!~{]^/^]{~!)',>;*=%&@$+-",
"-$@&%=*;>,')!~{]^/^]{~!)',>;*=%&@$+-",
"--@&%=*;>,')!~{]^/^]{~!)',>;*=%&@$+-",
"--@&%=*;>,')!~{]^/^]{~!)',>;*=%&@$+-",
"--@&%=*;>,')!~{]^/^]{~!)',>;*=%&@$+-",
"-$-&%=*;>,')!~{]^/^]{~!)',>;*=%&@$--",
"-$-&%=*;>,')!~{]^/^]{~!)',>;*=%&@$--",
"-$--%=*;>,')!~{]^/^]{~!)',>;*=%&@---",
"-$@&-=*;>,')!~{]^/^]{~!)',>;*=%&-$+-",
"-$@&%-*;>,')!~{]^/^]{~!)',>;*=%-@$+-",
"-$@&%=-->,')!~{]^/^]{~!)',>;*--&@$+-",
"-$@&%=*;--')!~{]^/^]{~!)',>--=%&@$+-",
"-$@&%=*;>,----{]^/^]{~!----;*=%&@$+-",
"-$@&%=*;>,')!~---------)',>;*=%&@$+-",
"-$@&%=*;>,')!~{]^/^]{~!)',>;*=%&@$+-",
"-$@&%=*;>,')!~{]^/^]{~!)',>;*=%&@$+-",
"-$@&%=*;>,')!~{]^/^]{~!)',>;*=%&@$+-",
"-$@&%=*;>,')!~{]^/^]{~!)',>;*=%&@$+-",
"-$@&%=*;>,')!~{]^/^]{~!)',>;*=%&@$+-",
"-$@&%=*;>,')!~{]^/^]{~!)',>;*=%&@$+-",
"-$@&%=*;>,')!~{]^/^]{~!)',>;*=%&@$+-",
"-$@&%=*;>,')!~{]^/^]{~!)',>;*=%&@$+-",
"-$@&%=*;>,')!~{]^/^]{~!)',>;*=%&@$+-",
"-$@&%=*;>,')!~{]^/^]{~!)',>;*=%&@$+-",
"-$@&%=*;>,')!~{]^/^]{~!)',>;*=%&@$+-",
"-$@&%=*;>,')!~{]^/^]{~!)',>;*=%&@$+-",
"-$@&%=*;>,')!~{]^/^]{~!)',>;*=%&@$+-",
"-$@&%=*;>,')!~{]^/^]{~!)',>;*=%&@$+-",
"-$@&%=*;>,')!~{]^/^]{~!)',>;*=%&@$+-",
"-$@&%=*;>,')!~{]^/^]{~!)',>;*=%&@$+-",
"-$@&%=*;>,')!~{]^/^]{~!)',>;*=%&@$+-",
"-$@&%=*;>,')!~{]^/^]{~!)',>;*=%&@$+-",
"-$@&%=*;>,')!~{]^/^]{~!)',>;*=%&@$+-",
"-$@&%=*;>,')!~{]^/^]{~!)',>;*=%&@$+-",
"-$@&%=*;>,')!~{]^/^]{~!)',>;*=%&@$+-",
"-$@&%=*;>,')!~{]^/^]{~!)',>;*=%&@$+-",
"-$@&%=*;>,')!~{]^/^]{~!)',>;*=%&@$+-",
"-$@&%=*;>,')!~{]^/^]{~!)',>;*=%&@$+-",
"-$@&%=*;>,')!~{]^/^]{~!)',>;*=%&@$+-",
"-$@&%=*;>,')!~{]^/^]{~!)',>;*=%&@$+-",
"-$@&%=*;>,')!~{]^/^]{~!)',>;*=%&@$+-",
"-$@&%=*;>,')!~{]^/^]{~!)',>;*=%&@$+-",
"-$@&%=*;>,')!~{]^/^]{~!)',>;*=%&@$+-",
"-$@&%=*;>,')!~{]^/^]{~!)',>;*=%&@$+-",
"-$@&%=*;>,')!~{]^/^]{~!)',>;*=%&@$+-",
"-$@&%=*;>,')!~{]^/^]{~!)',>;*=%&@$+-",
"-$@&%=*;>,')!~{]^/^]{~!)',>;*=%&@$+-",
"-$@&%=*;>,')!~{]^/^]{~!)',>;*=%&@$+-",
"-$@&%=*;>,')!~{]^/^]{~!)',>;*=%&@$+-",
"-$@&%=*;>,')!~{]^/^]{~!)',>;*=%&@$+-",
"-$@&%=*;>,')!~{]^/^]{~!)',>;*=%&@$+-",
"-$@&%=*;>,')!~{]^/^]{~!)',>;*=%&@$+-",
"-+$@&%=*;>,')!~{]^^^]{~!)',>;*=%&@$+",
" +$@&%=*;>,'')!~(]^](~!)'',>;*=%&@$+",
"  +$@&%=*;>,')!_~(((~_!)',>;*=%&@$+ ",
"  +$@&%=*;:>,'))!___!))',>:;*=%&@$+ ",
"  +.$@&%=**:>,,,')))',,,>:**=%&@$.+ ",
"    .$@&%%**;:::>,,,>:::;**%%&@$.   ",
"     +$@&%%=***:::::::***=%%&@$+    ",
"      +.@##%%%=*******=%%%##@.+     ",
"        ..$###%%%%%%%%%###$..       ",
"          +...@#######@...+         ",
"              +.......+             "};
