/* XPM */
static char * psv_psv_pfd1[] = {
"40 41 22 1",
" 	c None",
".	c #282824",
"+	c #4B4B44",
"@	c #595950",
"#	c #65655B",
"$	c #7C7C70",
"%	c #868679",
"&	c #8F8F81",
"*	c #A1A191",
"=	c #AAAA99",
"-	c #B9B9A7",
";	c #C1C1AE",
">	c #C8C8B4",
",	c #D6D6C1",
"'	c #DCDCC7",
")	c #E2E2CC",
"!	c #EEEED7",
"~	c #B2B2A0",
"{	c #FFFFFF",
"]	c #99998A",
"^	c #717166",
"/	c #E8E8D2",
"                                       .",
"                                     ..+",
"                                   ..++@",
"                                  .++@##",
"                                .++@##$$",
"                               .+@##$$%%",
"                             .+@##$$%%&&",
"                           .+@##$%%&&&**",
"                          .@##$%%&&***==",
"                        .+#$$%&&**===---",
"                       +#$%&&**==----;;;",
"                     +#$%&*==---;;;;>>>>",
"                   .#%&*=--;;;>>>>>,,,,,",
"                  #&*--;>>>,,,,,,'''''''",
"                #->,,'''''')))))))))))))",
"               !!!!!!!!!!!!!!!!!!!!!!!!!",
"              @!@=;>,,''''''))))))))))))",
"              ~!={@%*=-;;>>>,,,,,,''''''",
"             @>!;+  @$&*==--;;;>>>>>,,,,",
"             &,!>$   .@$%&**==--;;;;;>>>",
"            @='!,]+    +@$%%&**===---;;;",
"           .$~'!,=^     .+@#$%&&**====--",
"           @];/!'~&+      .+@#$%%&&***==",
"          .$=>/!';]^        +@@#$$%%&&**",
"          @&~>/!';=$+        .+@@#$$%%&&",
"         +^]~,/!'>=&@.         .+@@#$$%%",
"        .@$=;,/!'>~]^+          ..+@@#$$",
"        +^&=;,/!'>~]$@.           .++@@#",
"       .@$]~>'!!/,;=&^+             .++@",
"       +^&]~>'!!/,;=&$@.             ..+",
"      .@$&=;>'!!/,;~]$^+               .",
"     .+^$]=;,'!!/,>~]&^@.               ",
"     +@^&]~;,'!!/,>~=&$@+.              ",
"    .+^$&=~>,'!!/,>;=]$^@.              ",
"    +@^&]=;>,/!!/'>;~]&$@+.             ",
"   .+^$&]~;>,/!!/'>;~=&$^@.             ",
"  .+@^$]=~;>'/!!/',;~=]&^@+.            ",
"  .+^$&]=~;,'/!!/',>~=]&$^@.            ",
" .+@^$&]=;>,'/!!/',>;~]&$^@+.           ",
" .+^$&]=~;>,'/!!/',>;~=]&$^@.           ",
".+@^$&]=~;>,'/!!/',>;~=]&$^@+.          "};
