/* XPM */
static char * pump_pump_icon1[] = {
"65 57 237 2",
"  	c None",
". 	c #282924",
"+ 	c #000000",
"@ 	c #282826",
"# 	c #282923",
"$ 	c #3B3C36",
"% 	c #3B3C37",
"& 	c #3B3B39",
"* 	c #292A25",
"= 	c #272823",
"- 	c #3A3B35",
"; 	c #4B4B43",
"> 	c #4B4A45",
", 	c #4C4B46",
"' 	c #3C3B36",
") 	c #3B3C34",
"! 	c #4A4B43",
"~ 	c #4B4C44",
"{ 	c #59594F",
"] 	c #595951",
"^ 	c #4A4C41",
"/ 	c #65655B",
"( 	c #656559",
"_ 	c #5A5A50",
": 	c #7D7D71",
"< 	c #7C7C70",
"[ 	c #7C7C72",
"} 	c #4A4A42",
"| 	c #67645B",
"1 	c #676559",
"2 	c #7D7E70",
"3 	c #7C7D6F",
"4 	c #86867A",
"5 	c #868779",
"6 	c #7B7B6F",
"7 	c #585A4F",
"8 	c #494A42",
"9 	c #64645A",
"0 	c #7E7B72",
"a 	c #7E7C70",
"b 	c #87887A",
"c 	c #8E8F81",
"d 	c #8F9082",
"e 	c #87877B",
"f 	c #64665B",
"g 	c #292824",
"h 	c #98998B",
"i 	c #989989",
"j 	c #979888",
"k 	c #8E8F7F",
"l 	c #8D8E80",
"m 	c #A0A191",
"n 	c #999A8C",
"o 	c #585850",
"p 	c #8E8E82",
"q 	c #A9AA9A",
"r 	c #A9AA98",
"s 	c #A0A18F",
"t 	c #58584E",
"u 	c #3C3B37",
"v 	c #292823",
"w 	c #3C3C34",
"x 	c #858678",
"y 	c #B1B2A0",
"z 	c #AAAB9B",
"A 	c #5A5A52",
"B 	c #B0B19F",
"C 	c #B8B9A7",
"D 	c #B8BAA5",
"E 	c #BAB9A7",
"F 	c #B3B2A0",
"G 	c #4C4C44",
"H 	c #9FA090",
"I 	c #C0C2AD",
"J 	c #C2C1AF",
"K 	c #4A4B45",
"L 	c #B1B2A2",
"M 	c #C2C1AD",
"N 	c #C9C8B4",
"O 	c #C9C8B3",
"P 	c #CAC7B4",
"Q 	c #BAB9A5",
"R 	c #B2B3A3",
"S 	c #B9BAA8",
"T 	c #C0C1AF",
"U 	c #D0CFBA",
"V 	c #D1D0BB",
"W 	c #D0CFBB",
"X 	c #CFCEBA",
"Y 	c #868777",
"Z 	c #88867A",
"` 	c #DDDCC7",
" .	c #D1D0BC",
"..	c #C8C7B3",
"+.	c #DDDCC8",
"@.	c #E2E1CC",
"#.	c #DCDEC8",
"$.	c #DBDDC7",
"%.	c #C1C0AC",
"&.	c #E8E7D2",
"*.	c #E3E2CD",
"=.	c #3B3A35",
"-.	c #B7B9A4",
";.	c #EEEDD8",
">.	c #C3C0AF",
",.	c #B2B3A1",
"'.	c #AAAB99",
").	c #A8A997",
"!.	c #DCDBC6",
"~.	c #EEEED6",
"{.	c #F4F4DC",
"].	c #EDEDD5",
"^.	c #E8E8D0",
"/.	c #4A4944",
"(.	c #A0A193",
"_.	c #B8B9A9",
":.	c #C9C8B6",
"<.	c #E2E1CD",
"[.	c #E8E7D3",
"}.	c #EEEDD9",
"|.	c #F4F3DF",
"1.	c #F4F3DE",
"2.	c #F9F9E1",
"3.	c #000100",
"4.	c #010000",
"5.	c #010100",
"6.	c #000200",
"7.	c #030100",
"8.	c #010200",
"9.	c #F9F8E3",
"0.	c #4B4A46",
"a.	c #595853",
"b.	c #64655F",
"c.	c #7B7C74",
"d.	c #86867E",
"e.	c #8E8E86",
"f.	c #97998E",
"g.	c #9FA194",
"h.	c #A9A99F",
"i.	c #B1B1A7",
"j.	c #B8B8AC",
"k.	c #C0C0B4",
"l.	c #C9C7BB",
"m.	c #D0CEC1",
"n.	c #DBDCCE",
"o.	c #E0E1D3",
"p.	c #E6E7D9",
"q.	c #ECEDDF",
"r.	c #F2F3E5",
"s.	c #F2F3E1",
"t.	c #65655D",
"u.	c #A8A999",
"v.	c #C0C1B1",
"w.	c #D0CFBD",
"x.	c #F5F5DD",
"y.	c #4B4C46",
"z.	c #B7B8A6",
"A.	c #CFCEB9",
"B.	c #EFEFD7",
"C.	c #4D4A43",
"D.	c #B0B3A0",
"E.	c #DEDDC8",
"F.	c #D1CEBB",
"G.	c #66665C",
"H.	c #292826",
"I.	c #C2C0B1",
"J.	c #A1A292",
"K.	c #BAB8A9",
"L.	c #B9B8A4",
"M.	c #999A8A",
"N.	c #272725",
"O.	c #B0B1A1",
"P.	c #8F9080",
"Q.	c #4B4B41",
"R.	c #646458",
"S.	c #908E81",
"T.	c #9A9889",
"U.	c #ABA99A",
"V.	c #A2A091",
"W.	c #888679",
"X.	c #A2A093",
"Y.	c #9A988B",
"Z.	c #97988A",
"`.	c #292927",
" +	c #282828",
".+	c #3D3C37",
"++	c #4A4B46",
"@+	c #2A2924",
"#+	c #717169",
"$+	c #292921",
"%+	c #272820",
"&+	c #717167",
"*+	c #717165",
"=+	c #86867C",
"-+	c #8E9085",
";+	c #282921",
">+	c #3B3B33",
",+	c #727266",
"'+	c #A9AA9C",
")+	c #B0B1A3",
"!+	c #B8B9AB",
"~+	c #C0C1B3",
"{+	c #2B291D",
"]+	c #29291F",
"^+	c #28281E",
"/+	c #29291D",
"(+	c #B7B9AB",
"_+	c #B0B2A4",
":+	c #98988C",
"<+	c #C9C7B8",
"[+	c #D5D6C8",
"}+	c #CECFC1",
"|+	c #C7C8B8",
"1+	c #D7D6C4",
"2+	c #D6D5C1",
"3+	c #3A3B36",
"4+	c #C3C2AE",
"5+	c #CAC9B5",
"6+	c #D7D6C2",
"7+	c #B1B39E",
"8+	c #D8D7C3",
"9+	c #C3C2B0",
"0+	c #3C3D38",
"a+	c #7C7C74",
"b+	c #8E8E84",
"c+	c #98988E",
"d+	c #A0A094",
"e+	c #AAAB9D",
"f+	c #B1B2A4",
"g+	c #B7B8AA",
"h+	c #C9C7BA",
"i+	c #CECFBF",
"j+	c #D7D5C8",
"k+	c #C2C0B3",
"l+	c #C1C2B4",
"m+	c #A9A99D",
"n+	c #7D7D73",
"                                                    . . + + + + + + + + + + + + + + + + + + + + + + + + + + + + + + + + + + + + + ",
"                                          @ @ . . # $ $ % & % . . * . =                                                           ",
"                                      = . - $ $ $ $ ; ; > > , ' ' ' ) $ . @                                                       ",
"                                  @ . $ - ! ! ! ~ ! { { ] ] ] ; ; ; ^ ! $ % . @                                                   ",
"                                @ . ' ; ; { { { { { / ( / / / { { { { { ; > $ = .                                                 ",
"                            @ . % $ ; ; _ / ( ( / ( : < : < [ / / / / / ] ; ! - $ . =                                             ",
"                          * . $ > } ] { | 1 2 3 < : 4 5 5 5 4 6 < < < ( / { 7 ! ! $ # .                                           ",
"                        . $ $ 8 ; { / 9 0 a b 5 5 5 c c c d c 5 4 e 4 < < / f 7 ! ! $ $ @                                         ",
"                      @ g ' ; { { / 9 < 4 5 c c c c h i j i i k c c c 5 5 < ( ( { { ; ' @ @                                       ",
"                      @ ' ; { { / < < 4 5 l c h h i m m m m m i h h n c 5 5 < < / { o ; % @                                       ",
"                    g ' > ; { / < 4 4 p c i i m m m q r r r r s m m i i c c 5 5 : ( t ; > u .                                     ",
"                  @ v w ; _ / < 5 x c c i m m q q r y y y y y r z q m m h h c 5 4 < / { ; ' = .                                   ",
"                  . ' ; A / / < 5 c h i m r r y y B C D E E E F y y r r m i i c 4 < / / o } $ .                                   ",
"                = $ G ; { / < 5 c k i H r r y y C D I I J J J E E y y r q m i i c 4 < / { ; K $ @                                 ",
"                . $ ; { / [ 4 5 c i m r L L C C M M N O N N P M M Q C y y r m i c 5 5 2 / { } ' .                                 ",
"              . % ! ] / / < 5 c i m r r R S T T N N U V W X W N N M T C y r q m h c Y 3 ( / ] ; % .                               ",
"              . u ; ] / a Z c c i m r y E J J N W W ` ` ` ` ` U  .N M M C y r s i i k 5 6 / o ; % .                               ",
"              . u ; ] 9 a Z c h m q y y E J ..W W +.` @.@.@.#.$.W W N %.E y y r m j k 5 < / ] ; $ .                               ",
"              . u ; ] / < 4 c i H q y C M N W W ` @.@.&.&.&.@.*.` U W ..J E y r m i c 5 < / { } $ .                               ",
"              . =.; t ( < 5 k i m r y -.M N W ` @.&.&.;.;.;.&.&.@.` W N >.E ,.'.m i d 5 < / { ; $ .                               ",
"            . $ > ] / 6 4 c i m ).y C I N U U !.@.&.~.{.{.{.].^.@.` X W N M C y q m i c 4 < / ] /.u @                             ",
"            . $ > ] / [ 4 p h (.q L _.T :.W +.<.[.}.|.1.2.{.{.~.&.@.+.W N M C y q m i k 4 < / { > ' @                             ",
"        + + + 3.4.4.3.3.5.5.6.6.5.5.5.5.7.7.8.8.8.8.8.8.9.2.1.;.&.*.` W N J C y q m i k 4 < / { > ' @                             ",
"            @ % 0.a.b.c.d.e.f.g.h.i.j.k.l.m.n.o.p.q.r.s.9.{.1.;.&.@.` W N J C y q m i d 4 < / { > ' @                             ",
"            @ % > ] t.[ e p h (.u.L _.v.:.w.w.+.<.[.}.1.{.x.;.&.@.` W W N %.C y q m h c 4 < / { y.$ @                             ",
"              . =.; { / < 5 k i s r y z.M N A.` @.&.^.~.~.B.&.&.@.` W N M Q y r m i l 5 < ( { ; $ *                               ",
"              = ' C.{ 9 < 5 k i m q D.C M N W W E.@.@.&.&.&.@.*.+.W W N T C y r m i c b : / t } $ .                               ",
"              . u C.] / < 4 l i m q D.y D M N  .U ` ` @.@.@.` ` W W N M C y y r H i c 5 [ / { G $ .                               ",
"              . u ; ] / < 4 c c i m r y D I M N W  .` ` +.+.+. .F.P M M C y '.s i i c 5 [ / { } $ .                               ",
"              @ u > ] / G.< 5 c i m q r y D M M :.N W U W W W N N M M E y r r s i k 5 < / / { } % @                               ",
"                H.u ; { 9 < 5 Y d i m r y y C C I.J N N N N N M J C C y y r J.i c 5 4 < / { ! ) .                                 ",
"                H.u > ; { ( 3 5 c d i m r r L L K.E J M M M M L.C y L q r s i i c 4 < ( { ; ! - @                                 ",
"                  . ' ; { / ( 3 5 c M.M.m q r y y y C C C C C y y y r r m i i c 4 [ / G.A ; $ .                                   ",
"                  N.g ' ; { 9 < 4 5 c k i m m r r r y y O.L L r r r s s i P.k 5 4 [ / { ; ' . N.                                  ",
"                    . $ ; Q.{ R.< 5 5 d S.T.i m m m r r q q U.V.m m i i l c 5 5 < / { Q.~ $ .                                     ",
"                      . ' ; ] t / < < 5 W.S.c i i i s s m m X.Y.i i k k 5 5 3 < / { { } $ .                                       ",
"                      . . $ ; { { / / < 4 5 c c k k i i h h Z.c c c c 5 4 < ( / { A ! $ . `.                                      ",
"                        @ % ' ; ; { / / < < 4 5 5 5 k k c c c 5 5 b 4 < < ( / { ; G $ % @                                         ",
"                           +. $ > ; { t / ( < < < < 5 5 4 4 4 < < : [ / / { ] ; > ' . .                                           ",
"                            @ . u ' ; Q.{ / / ( / / < 3 < < < ( / / / / { ; ; ' ' g =                                             ",
"                                3.# =.; ; { { { ] { ( ( / / / { ] ] { { ; > .+g 3.                                                ",
"                              + ++# @+w w ; ; ; ; ; { { { { ] } ; ; ; ; w ' v v +++                                               ",
"                            3.K ] t.#+$+%+$ $ $ $ $ ! ! ; ; K $ % % $ ) $+$+&+{ ] > +                                             ",
"                          3.$ ! { *+[ =+-+;+;+;+;+;+w w w >+) %+# # ;+;+=+=+< ,+{ ; % +                                           ",
"                        + % ; { *+3 < x h (.'+)+!+~+{+]+^+/+/+~+(+_+(.h :+4 < *+/ o G ' +                                         ",
"                      + % K { ( *+3 5 k i m r y E J <+m.[+}+|+T S D.q m h 5 4 < *+/ { ; % +                                       ",
"                    4.u ; { / *+< 3 5 i i s L y E M :.w.1+w.:.T C y r m h n 5 3 3 *+{ ] } ' +                                     ",
"                  + u > { { ( *+< 5 k i s r L y Q M N W 2+ .N M C y y r m h 5 5 3 *+( { o ; % +                                   ",
"                + 3+; { { ( *+< b 5 i i m q y C 4+N 5+W 6+W N M C y 7+r m i c 5 < < *+( { ; $ . +                                 ",
"              + . $ ; { ( *+< < 5 c i i m q y C M N N  .6+W 5+N T C 7+r m M.h 5 4 < 6 *+/ { ! $ `.+                               ",
"            + . ' ; _ / ( *+2 5 5 l i m r y B C M N N W 8+W 5+N 9+E y r q m h c 5 5 < *+/ { { ; $ . +                             ",
"          + . $ ; { { / *+: 3 5 c M.M.m r y y C M N N W 6+W N N J E y y u.m h h 5 5 < < &+/ { { ! $ . +                           ",
"        + . ' ; ] { / *+< < 5 5 k i m r r y y C M O N W 6+W N N J E L L r s i i c 5 4 < *+R./ { { ; $ . +                         ",
"      3.. $ ; ] { / ( *+6 < 5 d i i s r r y y C M O N W 6+W N N J E L L r r m i h 5 4 < < *+/ / { { ~ $ . +                       ",
"    + = % - ; { / / *+< < 4 5 c i i s r y y C T M ..N W 6+W N N M M C y r ).V.T.i k 5 b < < *+( { { ; ' $ . +                     ",
"  + @ % 0+K a.] t.t.#+[ a+=+b+c+:+d+e+'+f+f+g+~+~+|+h+i+j+i+h+|+k+l+!+f+f+'+m+d+:+:+=+=+[ n+#+t.t.] a.> % % @ +                   ",
"+ + + + + + + + + + + 3.+ 3.3.3.3.3.3.3.3.3.3.3.3.3.4.3.4.3.4.3.4.3.3.3.3.3.3.3.3.3.3.3.3.3.+ + + 5.+ + + + + +  +                "};
