/* XPM */
static char *Pump_Pump_ICON1[] = {
/* columns rows colors chars-per-pixel */
"69 60 99 2",
"   c #000000",
".  c #26271F",
"X  c #27291E",
"o  c #28281D",
"O  c #262624",
"+  c #262823",
"@  c #282723",
"#  c #282824",
"$  c #282828",
"%  c #3B3B35",
"&  c #3B3C38",
"*  c #4A4A43",
"=  c #4A4A48",
"-  c #57574E",
";  c #58584E",
":  c #575852",
">  c #585951",
",  c #636357",
"<  c #64645A",
"1  c #68655C",
"2  c #656560",
"3  c #6F6F63",
"4  c #717165",
"5  c #717169",
"6  c #7B7B6E",
"7  c #7C7C70",
"8  c #7E7D78",
"9  c #858677",
"0  c #858679",
"q  c #86887A",
"w  c #8D8E7E",
"e  c #858580",
"r  c #8D8E81",
"t  c #8D8E88",
"y  c #8F9081",
"u  c #929384",
"i  c #97978C",
"p  c #979886",
"a  c #979888",
"s  c #999788",
"d  c #989987",
"f  c #98998A",
"g  c #999A92",
"h  c #9FA08E",
"j  c #9EA091",
"k  c #A0A18F",
"l  c #A0A191",
"z  c #A6A79F",
"x  c #A8A997",
"c  c #A9A99A",
"v  c #B0B19E",
"b  c #A8A9A1",
"n  c #AFB0A0",
"m  c #B1B2A1",
"M  c #B0B1A9",
"N  c #B7B8A5",
"B  c #B7B8AB",
"V  c #B8B9A6",
"C  c #B8B9A9",
"Z  c #B7B8B0",
"A  c #B8B9B1",
"S  c #BEC0AC",
"D  c #BFC0B3",
"F  c #C0BFAA",
"G  c #C1C1AD",
"H  c #C2C2B3",
"J  c #C4C4BB",
"K  c #C6C8B3",
"L  c #C6C8B9",
"P  c #C8C7B3",
"I  c #C9C7B8",
"U  c #C9C8B4",
"Y  c #CECDBA",
"T  c #CED0BA",
"R  c #D0CEBB",
"E  c #D2D2BC",
"W  c #CECEC4",
"Q  c #D1CFC0",
"!  c #D6D5C1",
"~  c #D5D5CB",
"^  c #D8D7C2",
"/  c #D9D7C8",
"(  c #DCDBC5",
")  c #DDDCC8",
"_  c #DBDBD1",
"`  c #E2E1CB",
"'  c #E3E2D1",
"]  c #E6E6DC",
"[  c #E6E8D2",
"{  c #E8E7D2",
"}  c #E9E7D8",
"|  c #EBEAD3",
" . c #EDECD8",
".. c #F3F3DD",
"X. c #EDEDE3",
"o. c #F3F3E3",
"O. c #F7F9E3",
"+. c #F9FAE5",
"@. c #FEFEFE",
/* pixels */
"@.@.@.@.@.@.@.@.@.@.@.@.@.@.@.@.@.@.@.@.@.@.@.@.@.@.@.@.# $                                                                               ",
"@.@.@.@.@.@.@.@.@.@.@.@.@.@.@.@.@.@.@.@.@.@.@.O @ @ # @ % & & % & # @ @ # # @.@.@.@.@.@.@.@.@.@.@.@.@.@.@.@.@.@.@.@.@.@.@.@.@.@.@.@.@.@.@.",
"@.@.@.@.@.@.@.@.@.@.@.@.@.@.@.@.@.@.@.@.O + # & % % & & * = * * * % % % % % + + + @.@.@.@.@.@.@.@.@.@.@.@.@.@.@.@.@.@.@.@.@.@.@.@.@.@.@.@.",
"@.@.@.@.@.@.@.@.@.@.@.@.@.@.@.@.@.@.@.# + % % * * * * * > > > > > * * * * * % % + @ @.@.@.@.@.@.@.@.@.@.@.@.@.@.@.@.@.@.@.@.@.@.@.@.@.@.@.",
"@.@.@.@.@.@.@.@.@.@.@.@.@.@.@.@.@.@.@ % % * * - - ; ; ; , 1 < < < ; ; ; : > * * % % + @.@.@.@.@.@.@.@.@.@.@.@.@.@.@.@.@.@.@.@.@.@.@.@.@.@.",
"@.@.@.@.@.@.@.@.@.@.@.@.@.@.@.@.@ # % % * : ; < 1 , , 1 4 4 4 5 4 , < < < < ; > * % % + + @.@.@.@.@.@.@.@.@.@.@.@.@.@.@.@.@.@.@.@.@.@.@.@.",
"@.@.@.@.@.@.@.@.@.@.@.@.@.@.@.. % % * * > ; < 5 4 4 4 4 6 7 6 6 7 4 4 4 4 4 < ; ; * * % % + @.@.@.@.@.@.@.@.@.@.@.@.@.@.@.@.@.@.@.@.@.@.@.",
"@.@.@.@.@.@.@.@.@.@.@.@.@.@.+ % % * > > < , 5 5 6 6 6 6 9 9 q q 9 7 7 7 7 4 4 < < ; > * % % + @.@.@.@.@.@.@.@.@.@.@.@.@.@.@.@.@.@.@.@.@.@.",
"@.@.@.@.@.@.@.@.@.@.@.@.@.# % * * ; ; < 4 4 7 7 q q q q r w w u u q q q q 6 6 4 4 < ; > * * & + @.@.@.@.@.@.@.@.@.@.@.@.@.@.@.@.@.@.@.@.@.",
"@.@.@.@.@.@.@.@.@.@.@.@.@ % & * ; , < 4 4 7 9 9 r r w r d d d f d w r r y 9 q 6 4 3 , < > * % % . @.@.@.@.@.@.@.@.@.@.@.@.@.@.@.@.@.@.@.@.",
"@.@.@.@.@.@.@.@.@.@.@.@.@ % * > < < 4 6 6 q 9 y u a d d l l k k l i f a f w q q 7 6 5 < < > * % @ @.@.@.@.@.@.@.@.@.@.@.@.@.@.@.@.@.@.@.@.",
"@.@.@.@.@.@.@.@.@.@.@.. % * > ; < 4 6 q q y w f d f l h v m v v m j j j f f r y q q 7 5 < > ; * % @ @.@.@.@.@.@.@.@.@.@.@.@.@.@.@.@.@.@.@.",
"@.@.@.@.@.@.@.@.@.@.$ & % * ; 1 4 6 q q y w f f l m v m V N V V V m m n j l d p w q q 6 3 < ; * % % + @.@.@.@.@.@.@.@.@.@.@.@.@.@.@.@.@.@.",
"@.@.@.@.@.@.@.@.@.@.# % * ; , 4 4 6 q w f f l N m V V V G G G G D N V V m m j f f w 9 6 5 5 < ; * % X @.@.@.@.@.@.@.@.@.@.@.@.@.@.@.@.@.@.",
"@.@.@.@.@.@.@.@.@.# % * ; ; , 4 6 9 y y f h n m V V G S U P U P U D G N V v m l d f r q 6 4 < ; ; * % + @.@.@.@.@.@.@.@.@.@.@.@.@.@.@.@.@.",
"@.@.@.@.@.@.@.@.@.@ % * ; 1 4 7 q q y f f N C V S S U K Y Y R E E U K G S N C m j d y q q 6 5 < ; * % @ @.@.@.@.@.@.@.@.@.@.@.@.@.@.@.@.@.",
"@.@.@.@.@.@.@.@.+ % * > < 4 4 6 q w d h m m V G P U E Y E E E ( ( E E U P G F v m l d u q 6 3 5 < ; * % # @.@.@.@.@.@.@.@.@.@.@.@.@.@.@.@.",
"@.@.@.@.@.@.@.@.@ % * ; < 4 6 0 w w d l m V G U P Y E ! ) ` ( ( ) E E E P P G V m g a i u 9 8 4 < ; * % O @.@.@.@.@.@.@.@.@.@.@.@.@.@.@.@.",
"@.@.@.@.@.@.@.@.# % * > < 4 7 q u d l m V V G U E ! ! ) ( ` ` ` ) ) E E R P G V V m l d w 0 7 5 < ; * % # @.@.@.@.@.@.@.@.@.@.@.@.@.@.@.@.",
"@.@.@.@.@.@.@.@.@ % * > < 4 7 q w d l m V G U R ^ ! ( ` ` | { | ` ` ` E E E U G V m h d w 0 7 3 < ; * % + @.@.@.@.@.@.@.@.@.@.@.@.@.@.@.@.",
"@.@.@.@.@.@.@.@.# % * > < 3 6 q r g j m V F L ! ! ) ' ' { |  . .| { ) ( E E U G C m l d w 0 6 3 , ; * % @ @.@.@.@.@.@.@.@.@.@.@.@.@.@.@.@.",
"@.@.@.@.@.@.@.+ & = > < 5 7 0 t i l m B F L Y ~ ~ ) ' }  .......| | ` ( ( E E U D V m l i w q 6 4 , ; * % @ @.@.@.@.@.@.@.@.@.@.@.@.@.@.@.",
"@.@.@.@.@.@.@.O & = > 2 5 8 e t g j M A J L W ~ ' ' ] X.o.o.O..... .| ` ) E T U S V n l a w q 7 4 < ; * % # @.@.@.@.@.@.@.@.@.@.@.@.@.@.@.",
"@.@.@.@.                                                    +.O...| { ` ) E E K S V m l a w q 6 4 1 ; * % # @.@.@.@.@.@.@.@.@.@.@.@.@.@.@.",
"@.@.@.@.@.@.@.. % * : < 5 7 q w i j m B D L Y / ) ' {  .....+.....| | ) ( ( E U S V m l f w q 7 3 < ; * & # @.@.@.@.@.@.@.@.@.@.@.@.@.@.@.",
"@.@.@.@.@.@.@.. % * > < 4 7 q w i j m B S K T ^ ! ) ` {  .......| | ` ` E E E U G C m l f w q 6 4 < > * % O @.@.@.@.@.@.@.@.@.@.@.@.@.@.@.",
"@.@.@.@.@.@.@.@.@ % * > < 3 7 q y d l N N G U Y E ( ' ' [  . . .| | ` ( E R P G V m l i w q 6 4 < ; * % # @.@.@.@.@.@.@.@.@.@.@.@.@.@.@.@.",
"@.@.@.@.@.@.@.@.# % * > < 4 6 q y i j m V G P E E ! ) ` ` { { { ` ` ( E E R P G C m j i u 9 6 4 < ; * % + @.@.@.@.@.@.@.@.@.@.@.@.@.@.@.@.",
"@.@.@.@.@.@.@.@.# % * ; < 4 6 q y i f m C V G U E E ! ) ( ) ` ` ( ( ^ ^ E U G V V m l d w q 7 3 < ; * % O @.@.@.@.@.@.@.@.@.@.@.@.@.@.@.@.",
"@.@.@.@.@.@.@.@.# % * ; < 4 6 q y y f j v V G U U E ! ! ) ) ) ) ( ^ ^ R U U G V v l d i w q 7 4 < > * % O @.@.@.@.@.@.@.@.@.@.@.@.@.@.@.@.",
"@.@.@.@.@.@.@.@.+ % * > < 4 4 7 q r i j m N N G U U R T E E ( ^ ^ R R U P F V v m l i r q 7 4 4 1 > * & O @.@.@.@.@.@.@.@.@.@.@.@.@.@.@.@.",
"@.@.@.@.@.@.@.@.@.@ % * > < 4 7 q 9 r f j m V V P G I U T T T E R P Y F F F F v h i r q 9 6 3 1 > * & @ @.@.@.@.@.@.@.@.@.@.@.@.@.@.@.@.@.",
"@.@.@.@.@.@.@.@.@.X % * > > < 4 6 q r w f l m m V V G P U U K K P F F V V m m h d d w 9 6 4 1 ; > * % # @.@.@.@.@.@.@.@.@.@.@.@.@.@.@.@.@.",
"@.@.@.@.@.@.@.@.@.@.+ % * ; < 3 3 6 9 w f f l m v V V V G G G G F V V F m n k s d w 9 6 4 4 1 ; * & X @.@.@.@.@.@.@.@.@.@.@.@.@.@.@.@.@.@.",
"@.@.@.@.@.@.@.@.@.@.+ % % * ; < 5 6 q q u w f l h v v v V V S N V m m m l l s w y q q 7 4 < ; * % % + @.@.@.@.@.@.@.@.@.@.@.@.@.@.@.@.@.@.",
"@.@.@.@.@.@.@.@.@.@.@.+ % * ; ; < 5 7 q q y w d f h k k v v v v m k k k s s r r q q 6 5 < ; ; * % + @.@.@.@.@.@.@.@.@.@.@.@.@.@.@.@.@.@.@.",
"@.@.@.@.@.@.@.@.@.@.@.@.+ % * ; < < 3 6 7 q q w w f d f k k x k l f i i w w q q 7 7 5 < < ; * % + @.@.@.@.@.@.@.@.@.@.@.@.@.@.@.@.@.@.@.@.",
"@.@.@.@.@.@.@.@.@.@.@.@.+ % % * : < < 3 4 7 9 q w w w w w h h w f r r w r q q 6 4 5 , < : * % & + @.@.@.@.@.@.@.@.@.@.@.@.@.@.@.@.@.@.@.@.",
"@.@.@.@.@.@.@.@.@.@.@.@.@.+ % * * ; > < 4 4 7 6 q q q q w w w w r q 0 0 q 7 7 4 5 < > : * * % O @.@.@.@.@.@.@.@.@.@.@.@.@.@.@.@.@.@.@.@.@.",
"@.@.@.@.@.@.@.@.@.@.@.@.@.@.O % % * ; ; , 1 4 4 6 6 6 6 9 9 9 9 0 7 7 7 7 3 3 1 < > : * % % O @.@.@.@.@.@.@.@.@.@.@.@.@.@.@.@.@.@.@.@.@.@.",
"@.@.@.@.@.@.@.@.@.@.@.@.@.@.@.+ % % * * ; ; < 4 3 4 4 4 9 6 9 6 7 3 5 3 4 4 < ; ; * * & % # @.@.@.@.@.@.@.@.@.@.@.@.@.@.@.@.@.@.@.@.@.@.@.",
"@.@.@.@.@.@.@.@.@.@.@.@.@.@.@.@.# @ % % * ; ; , 1 , , , 4 3 4 4 4 1 < 1 < 1 ; ; * % & + + @.@.@.@.@.@.@.@.@.@.@.@.@.@.@.@.@.@.@.@.@.@.@.@.",
"@.@.@.@.@.@.@.@.@.@.@.@.@.@.@.@.@.@.# % % * * ; ; ; ; ; , , < < , ; > > ; ; * * % % + @.@.@.@.@.@.@.@.@.@.@.@.@.@.@.@.@.@.@.@.@.@.@.@.@.@.",
"@.@.@.@.@.@.@.@.@.@.@.@.@.@.@.@.@.  * + o % % * * * * * ; ; ; ; > * * * * * % % o # *   @.@.@.@.@.@.@.@.@.@.@.@.@.@.@.@.@.@.@.@.@.@.@.@.@.",
"@.@.@.@.@.@.@.@.@.@.@.@.@.@.@.@.  * : < o X X % % % % % * * * * * % % % % % # @ X < > =   @.@.@.@.@.@.@.@.@.@.@.@.@.@.@.@.@.@.@.@.@.@.@.@.",
"@.@.@.@.@.@.@.@.@.@.@.@.@.@.@.  * : 2 < 4 q w X @ + o o % % % % % X + + o @ t q 4 < > > *   @.@.@.@.@.@.@.@.@.@.@.@.@.@.@.@.@.@.@.@.@.@.@.",
"@.@.@.@.@.@.@.@.@.@.@.@.@.@.  * = > < 4 q w y h l M C C o o @ o o C C m l f y q q 4 < ; * *   @.@.@.@.@.@.@.@.@.@.@.@.@.@.@.@.@.@.@.@.@.@.",
"@.@.@.@.@.@.@.@.@.@.@.@.@.  = * > < 4 7 0 w d h c N C G G G Y I S V C m l f f y q 7 4 < > * &   @.@.@.@.@.@.@.@.@.@.@.@.@.@.@.@.@.@.@.@.@.",
"@.@.@.@.@.@.@.@.@.@.@.@.  & * : 1 < 4 q w w f l c m V F G U E U G S V v c l i u 0 0 3 < 2 > * &   @.@.@.@.@.@.@.@.@.@.@.@.@.@.@.@.@.@.@.@.",
"@.@.@.@.@.@.@.@.@.@.@.  % * > < < 4 6 q w i f l m v C F G U E U S S V v c j d f t q 7 5 < > > * %   @.@.@.@.@.@.@.@.@.@.@.@.@.@.@.@.@.@.@.",
"@.@.@.@.@.@.@.@.@.@.  % * > > < 3 7 0 u w d h x m m F F G G R U S G V v m x l f w 0 9 7 3 < > > * %   @.@.@.@.@.@.@.@.@.@.@.@.@.@.@.@.@.@.",
"@.@.@.@.@.@.@.@.    % * > > < 5 6 q q r d s h x m N F F U P E U G G V v m c l f w r q 7 3 1 < > * * %     @.@.@.@.@.@.@.@.@.@.@.@.@.@.@.@.",
"@.@.@.@.@.@.@.  @ % * * : < 1 3 6 0 r w d d h v n V V F I I Y P K G V V v c k f f r 9 q 6 4 < < : * * % #   @.@.@.@.@.@.@.@.@.@.@.@.@.@.@.",
"@.@.@.@.@.@.  O % * * - < < 5 7 q 9 w r d k x v m V F F U U R U K G V V v c c k i w r q q 6 4 < ; - * * % @   @.@.@.@.@.@.@.@.@.@.@.@.@.@.",
"@.@.@.@.@.  @ % * * ; ; 1 3 7 7 q u r d d l c v m V V F P U Y U K S V V m m c l f f r q 0 6 8 3 < ; ; * * % #   @.@.@.@.@.@.@.@.@.@.@.@.@.",
"@.@.@.@.  O % * * ; ; 1 , 3 7 q q r r d l x c m m V F F U U R U K S V V v m x h s f r r 0 0 7 4 < , ; > * % & #   @.@.@.@.@.@.@.@.@.@.@.@.",
"@.@.@.  O & & * ; ; 1 < 4 6 6 q y y i f j x x m m V G G U U Y I K G G B m m z c l d i r q q 6 6 5 < < ; : * % & +   @.@.@.@.@.@.@.@.@.@.@.",
"@.@.  $ & & * = ; 1 1 5 8 7 q q y t g d j c M m C B F A K L R L L G D C B m z c l g d r r q q 7 8 5 < > : * * & & O   @.@.@.@.@.@.@.@.@.@.",
"@.  $ & & = = : > 2 2 5 8 7 e t t g g g z z B M A B J J J L W L W D D A Z B B b z j i g t q e 8 8 5 2 2 : : * = & & O   @.@.@.@.@.@.@.@.@.",
"                                                                                                                        $ @.@.@.@.@.@.@.@."
};
