/* XPM */
static char * rgibbs2_rgibbs2_icon1[] = {
"60 118 254 2",
"  	c None",
". 	c #282826",
"+ 	c #282924",
"@ 	c #292A25",
"# 	c #272725",
"$ 	c #3B3C36",
"% 	c #3B3C37",
"& 	c #272823",
"* 	c #3A3B33",
"= 	c #3B3C34",
"- 	c #3A3B36",
"; 	c #3C3B36",
"> 	c #3C3C34",
", 	c #4B4B43",
"' 	c #3B3A35",
") 	c #4B4C44",
"! 	c #4A4A42",
"~ 	c #595951",
"{ 	c #59594F",
"] 	c #5A5A52",
"^ 	c #3A3B35",
"/ 	c #4B4B41",
"( 	c #5A5A50",
"_ 	c #65655B",
": 	c #64645A",
"< 	c #646458",
"[ 	c #58584E",
"} 	c #3D3C37",
"| 	c #4A4B43",
"1 	c #656559",
"2 	c #66665C",
"3 	c #717167",
"4 	c #717165",
"5 	c #4C4B46",
"6 	c #7C7C70",
"7 	c #7D7D71",
"8 	c #707064",
"9 	c #4A4B45",
"0 	c #3B3B39",
"a 	c #707066",
"b 	c #7C7D6F",
"c 	c #868779",
"d 	c #494A42",
"e 	c #86867A",
"f 	c #8E8F81",
"g 	c #4B4A45",
"h 	c #585850",
"i 	c #727266",
"j 	c #8D8E80",
"k 	c #8E8E82",
"l 	c #989989",
"m 	c #999A8A",
"n 	c #7D7E70",
"o 	c #999A8C",
"p 	c #98998B",
"q 	c #A0A191",
"r 	c #A1A292",
"s 	c #979888",
"t 	c #A0A18F",
"u 	c #A8A997",
"v 	c #A9AA98",
"w 	c #8E8F7F",
"x 	c #A9AA9A",
"y 	c #A8A999",
"z 	c #87877B",
"A 	c #7B7B6F",
"B 	c #B1B2A0",
"C 	c #989987",
"D 	c #B8B9A7",
"E 	c #585951",
"F 	c #BAB9A5",
"G 	c #C2C1AD",
"H 	c #BAB9A7",
"I 	c #C0C1AF",
"J 	c #BFC1AC",
"K 	c #C9C8B3",
"L 	c #C9C8B4",
"M 	c #CAC9B5",
"N 	c #C2C1AF",
"O 	c #B2B3A1",
"P 	c #8F9082",
"Q 	c #858678",
"R 	c #C1C0AE",
"S 	c #D0CFBB",
"T 	c #A9AB96",
"U 	c #4C4C44",
"V 	c #8F9080",
"W 	c #C9C8B6",
"X 	c #C1C0AC",
"Y 	c #B9BAA8",
"Z 	c #B1B39E",
"` 	c #B8BAA5",
" .	c #CFCEBA",
"..	c #D0CFBA",
"+.	c #D7D6C1",
"@.	c #D7D6C2",
"#.	c #C1C3AE",
"$.	c #65655D",
"%.	c #B0B19F",
"&.	c #C0C2AD",
"*.	c #DEDDC8",
"=.	c #DDDCC7",
"-.	c #717264",
";.	c #B9B8A4",
">.	c #D6D5C0",
",.	c #E2E1CC",
"'.	c #B3B2A0",
").	c #66665A",
"!.	c #E8E7D2",
"~.	c #E1E0CB",
"{.	c #DDDCC8",
"].	c #E8E8D0",
"^.	c #EEEED6",
"/.	c #E9E8D3",
"(.	c #EEEDD8",
"_.	c #4A4C41",
":.	c #67645B",
"<.	c #F4F4DC",
"[.	c #DCDBC6",
"}.	c #7C7C72",
"|.	c #A0A193",
"1.	c #A9AA9C",
"2.	c #B1B2A4",
"3.	c #BBB9AA",
"4.	c #C2C0B1",
"5.	c #D0CFBD",
"6.	c #D7D6C4",
"7.	c #DDDCCA",
"8.	c #E2E1CD",
"9.	c #E8E7D5",
"0.	c #EEEDDB",
"a.	c #EEEDD9",
"b.	c #F3F2DD",
"c.	c #F4F3DF",
"d.	c #F9F8E3",
"e.	c #EDECD8",
"f.	c #E8E7D3",
"g.	c #D1D0BE",
"h.	c #D0CEBF",
"i.	c #B8B9A9",
"j.	c #B0B1A1",
"k.	c #98988C",
"l.	c #85857B",
"m.	c #717169",
"n.	c #292927",
"o.	c #000000",
"p.	c #000100",
"q.	c #010000",
"r.	c #000200",
"s.	c #020200",
"t.	c #010100",
"u.	c #010200",
"v.	c #020300",
"w.	c #4A4B46",
"x.	c #585954",
"y.	c #71706C",
"z.	c #7B7C76",
"A.	c #858681",
"B.	c #979890",
"C.	c #9FA196",
"D.	c #A8AA9F",
"E.	c #B7B8B0",
"F.	c #C0C0B4",
"G.	c #C7C7BB",
"H.	c #CECEC6",
"I.	c #D5D5C9",
"J.	c #DBDCCE",
"K.	c #E0E1D3",
"L.	c #E6E6DA",
"M.	c #ECECE2",
"N.	c #F2F3E5",
"O.	c #F7F8EA",
"P.	c #FDFDF3",
"Q.	c #ECEDDF",
"R.	c #E0E0D4",
"S.	c #CECEC2",
"T.	c #C7C7BF",
"U.	c #C0C0B6",
"V.	c #B8B8AE",
"W.	c #B0B1A9",
"X.	c #A8A9A1",
"Y.	c #9FA098",
"Z.	c #8D8E86",
"`.	c #7B7C77",
" +	c #70716B",
".+	c #646560",
"++	c #71706B",
"@+	c #7C7C74",
"#+	c #868580",
"$+	c #B7B9AC",
"%+	c #C1C2B2",
"&+	c #C9C7B8",
"*+	c #D7D5C6",
"=+	c #DEDDC9",
"-+	c #F4F3E1",
";+	c #F9F8E6",
">+	c #FDFEF0",
",+	c #E2E1CF",
"'+	c #C7C7BD",
")+	c #C2C0B3",
"!+	c #B8B9AB",
"~+	c #B0B2A7",
"{+	c #A9A99D",
"]+	c #9FA092",
"^+	c #7C7B76",
"/+	c #65645F",
"(+	c #86867E",
"_+	c #ECEDDD",
":+	c #F3F2DE",
"<+	c #EBECDE",
"[+	c #B1B1A5",
"}+	c #7B7B73",
"|+	c #DDDDC5",
"1+	c #E2E2CA",
"2+	c #CECFC1",
"3+	c #F2F4DF",
"4+	c #F7F9E3",
"5+	c #AAAB99",
"6+	c #C7C8BA",
"7+	c #C3C1B2",
"8+	c #FAF9E4",
"9+	c #FEFFF1",
"0+	c #656460",
"a+	c #E9E8D4",
"b+	c #EDEEE0",
"c+	c #AAAB9D",
"d+	c #B9BAAA",
"e+	c #B2B2A6",
"f+	c #7D7D73",
"g+	c #A8AA9D",
"h+	c #B7B9AE",
"i+	c #C0C1B1",
"j+	c #C7C8B8",
"k+	c #E6E7D5",
"l+	c #F2F3E1",
"m+	c #ECEDDB",
"n+	c #E2E0D1",
"o+	c #CECFBF",
"p+	c #4B4A46",
"q+	c #595854",
"r+	c #858680",
"s+	c #A7A99E",
"t+	c #D5D5CB",
"u+	c #DCDCD0",
"v+	c #ECEEE3",
"w+	c #D4D5C7",
"x+	c #C7C8C0",
"y+	c #97998E",
"z+	c #7C7D78",
"A+	c #6F706A",
"B+	c #D6D5C3",
"C+	c #DCDBC9",
"D+	c #F9F8E4",
"E+	c #86867C",
"                                                  . + . + @ + . # . . .                                                 ",
"                                            + + + @ $ % $ $ $ % % % % + + & .                                           ",
"                                      . + + $ $ $ $ $ $ * = = $ $ $ $ $ - % % + . .                                     ",
"                                  . + % $ $ $ ; > , , , , , , , , , , , ' ; ; $ - % + +                                 ",
"                                + + $ $ $ = ) , ! ~ ~ { { ~ { { { ] ~ ~ , , , $ ^ $ $ & +                               ",
"                            . + $ $ $ ; , / ( { { { _ _ _ _ _ : < _ _ [ { { { , , } ; $ % + .                           ",
"                          . + $ $ ^ | , ( { 1 _ 2 _ _ _ 3 3 3 4 4 2 _ _ _ _ _ { { , 5 $ $ % + +                         ",
"                      . + - $ $ = ! , ~ _ _ _ 4 4 4 4 4 6 7 6 6 6 4 4 4 4 4 1 1 2 { , , > $ $ $ + .                     ",
"                    . + $ $ = | | ~ { _ 3 3 4 6 6 6 6 6 6 6 6 6 6 7 6 6 6 6 4 4 8 _ { ~ ! 9 $ $ $ + .                   ",
"                  . 0 % $ ; , , { _ _ a 4 6 6 6 b 6 6 b c c c c c 6 6 6 6 6 6 6 4 4 1 _ { , , = $ $ % +                 ",
"                . . % $ d , { { _ _ 3 6 6 6 b c c e e c f f f f f e e e e e 6 6 6 6 4 _ _ ] ~ | | $ $ + +               ",
"                + % $ g , h _ 1 i 4 6 6 6 c c f j k k f l l l m l f f f f f c c n 6 6 4 4 _ : { ! g ; $ +               ",
"              @ $ $ = , { _ 1 4 b 6 6 6 c c f l l o p l q r q q q p l l l p f c c 6 6 6 6 3 2 _ { , ; $ % .             ",
"            . + $ ; , ~ _ _ 4 6 6 b c c f f s l q q q t u u v v v q q q t l l w w c c 6 6 6 4 2 : ~ , $ $ + .           ",
"            + $ $ , / { _ 4 6 6 6 c c f l l q q x v v v v v v v v y x v v q q l l f c z 6 6 A 3 _ ~ , 9 $ % +           ",
"          . % ; ; , { : 4 6 6 b c f f l l q v v v v v v B B B B B v v v v v v t C l w f c 6 6 6 4 _ { | $ - % .         ",
"        . + % ; , { _ 1 4 6 6 c f f l q q v v v v B B B D D D D D B B B v v v v t q l f f e 6 6 4 _ _ E | $ % + .       ",
"        & % $ , { { _ 4 6 6 e e f p q x v v v B B D D F G G G G G H H D B B v v v v t l w c c 6 6 4 1 { ~ g ; $ +       ",
"      + % % $ , { _ 3 6 A 6 e k o q x v v v B D D I J G K L M L L G N I D D O v v v v r l P Q 6 6 6 4 _ { , ; ^ $ .     ",
"      + $ ; g ~ _ 1 4 6 6 c f p l q v v B B D R N M L L S S S S S L M L G G F B B T v q l o f c b 6 4 _ _ ~ , = $ .     ",
"      + $ ; U { _ 8 6 6 Q c V l q v v v B D I R W L S S S S S S S S S M L X G Y B Z v v q p f c c 6 6 3 _ ~ ! = $ &     ",
"    . % $ , ~ 2 1 4 6 b c f l q v v v Z ` G L L S S  ...+.+.+.+.@.S S  .S L L #.` B v v v q l f c 6 6 4 _ $.~ U ; % .   ",
"    + $ $ , { 1 4 6 6 c f l l t v v %.` &.G L S  .S @.+.*.*.=.=.=.@.@.S S S L &.J D B v v q l l j e 6 6 4 _ ~ , > % +   ",
"    + ^ $ , { 1 -.6 6 Q f l r v v v B ;.G L S S S >.=.=.,.,.,.,.,.=.=.+...S S M G H '.B v x q l w Q 6 6 4 _ { U > % +   ",
"  . % $ | { { ).-.6 6 c f l q v v B D G L L S S @.=.=.,.,.!.!.!.,.~.=.=.+.S S L M N H B v x q l w c 6 6 4 _ [ , , $ + . ",
"  . % $ | { _ 1 4 6 6 c f l q v v B Y G L S S @.{.=.,.].].^.^.^.].!.,.=.=.+...S L N H B v x q l w c 6 6 4 _ _ { , $ % . ",
"  . $ = | { _ 1 4 6 6 c f l q v v B D G L S S @.{.,./.^.^.^.^.^.^.(.!.,.=.+... .L N H B u x q l w c 6 6 8 _ : { , $ % . ",
"  . $ = _.( :.4 6 6 e f l q x v B H N L ..S @.=.=.,.!.^.^.<.<.<.^.^.].~.[.=.+.S S L G D B v v q l f c 6 6 4 < { , $ - . ",
"  . % $ | ~ $.3 }.A e f o |.1.1.2.3.4.W 5.5.6.7.8.9.0.a.b.c.d.c.c.a.e.f.8.{.6.g.h.W I i.j.x 1.|.k.k l.}.}.m.$.E | $ % n.",
"o.o.p.p.p.q.q.p.p.p.p.r.r.r.r.p.p.s.s.t.t.t.u.u.u.s.t.u.u.t.t.u.u.t.t.u.v.u.t.t.t.t.t.t.u.p.p.p.p.p.p.p.p.p.p.p.p.p.o.o.",
"o.0 % w.x.q.y.z.z.A.p.B.C.D.D.p.E.F.G.H.t.I.J.K.L.t.M.N.O.P.t.N.Q.M.t.R.J.I.S.t.T.U.V.W.p.X.Y.B.Z.p.`.z. +.+p.w.% - . o.",
"o.% $ d E q.++@+@+#+t.k.|.x 1.r.$+%+&+S.t.*+=+8.9.t.Q.-+;+>+u.-+0.Q.t.,+{.6.h.s.'+)+!+~+r.{+]+p k t.^+}.m./+q.9 $ % . o.",
"o.% * | E q.m.}.}.(+t.p q v x r.$+N W S.u.@.=.,.f.u._+c.d.>+u.:+(.<+u.8.=.@.5.t.G.4.i.[+r.1.q C f t.}+}.3 /+q.9 $ % + o.",
"o.% = , ~ q.++}.}.(+t.p q v x r.$+N W S.u.@.|+,.f.u._+c.d.>+u.c.(.Q.u.8.=.@.5.t.G.4.i.[+r.1.q l f t.@+}.3 /+q.9 $ % + o.",
"o.% = , ~ q.++}.}.(+t.p q v x r.$+N W S.u.@.|+,.f.u._+c.d.>+u.c.(.Q.u.8.=.@.5.t.G.4.i.[+r.1.q l f t.@+}.3 /+q.9 $ % + o.",
"o.% = , ~ q.m.}.}.(+t.p q v x r.$+N W S.u.@.=.1+f.u._+c.d.>+u.c.(.Q.u.8.=.+.5.t.G.4.i.[+r.1.q l f t.@+}.3 /+q.9 $ % + o.",
"o.% = , { q.m.}.}.(+t.p q v x r.$+N W S.u.6.=.1+f.u._+c.d.>+u.c.(.Q.u.8.=.+.5.t.G.4.i.[+r.1.q l f t.@+}.3 /+q.9 = % + o.",
"o.% = , { q.m.}.}.(+t.p q v x r.$+N W S.u.6.=.,.f.u._+c.d.>+u.c.(.Q.u.8.=.@.5.t.G.4.i.[+r.1.q l f t.@+}.3 /+q.9 = % + o.",
"o.% = , { q.m.}.}.(+t.p q v x r.$+N W S.u.@.=.,.f.u._+c.d.>+u.c.(.Q.u.8.=.@.5.t.G.4.i.[+r.1.q l f t.@+}.3 /+q.9 = % + o.",
"o.% = , { q.m.}.}.(+t.p q v x r.$+N W 2+u.@.=.,.f.u._+3+4+>+u.c.(.Q.u.8.=.@.5.t.G.4.i.[+r.1.q C f t.@+}.3 /+q.9 = % + o.",
"o.% = , { q.m.}.}.(+t.p q v x r.$+N W 2+u.@.=.,.f.u._+3+4+>+u.c.(.Q.u.8.=.@.5.t.G.4.i.[+r.1.q C f t.@+}.3 /+q.9 = % + o.",
"o.% = , { q.m.}.}.(+t.p q v x r.$+N W S.u.@.=.,.f.u._+c.d.>+u.c.(.Q.u.8.=.@.5.t.G.4.i.[+r.1.q l f t.@+}.3 /+q.9 = % + o.",
"o.% = , { q.m.}.}.(+t.p q v x r.$+N W S.u.6.=.,.f.u._+c.d.>+u.c.(.Q.u.8.=.@.5.t.G.4.i.[+r.1.q l f t.@+}.3 /+q.9 = % + o.",
"o.% = , { q.m.}.}.(+t.p q v x r.$+N W S.u.6.=.,.f.u._+c.d.>+u.c.(.Q.u.8.=.@.5.t.G.4.i.[+r.1.q l f t.@+}.3 /+q.9 = % + o.",
"o.% = , { q.m.}.}.(+t.p q v x r.$+N W S.u.6.=.,.f.u._+c.d.>+u.c.(.Q.u.8.=.@.5.t.G.4.i.[+r.1.q l f t.@+}.3 /+q.9 = % + o.",
"o.% = , { q.m.}.}.(+t.p q v x r.$+N W S.u.6.=.,.f.u._+c.d.>+u.c.(.Q.u.8.=.@.5.t.G.4.i.[+r.1.q l f t.@+}.3 /+q.9 = % + o.",
"o.% = , { q.m.}.}.(+t.p q v x r.$+N W S.u.6.=.,.f.u._+c.d.>+u.c.(.Q.u.8.=.@.5.t.G.4.i.[+r.1.q l f t.@+}.3 /+q.9 = % + o.",
"o.% = , { q.m.}.}.(+t.p q v x r.$+N W S.u.6.=.,.f.u._+c.d.>+u.c.(.Q.u.8.=.@.5.t.G.4.i.[+r.1.q l f t.@+}.3 /+q.9 = % + o.",
"o.% = , { q.m.}.}.(+t.p q v x r.$+N W S.u.6.=.,.f.u._+c.d.>+u.c.(.Q.u.8.=.@.5.t.G.4.i.[+r.1.q l f t.@+}.3 /+q.9 = % + o.",
"o.% = , { q.m.}.}.(+t.p q v x r.$+N W S.u.6.=.,.f.u._+c.d.>+u.c.(.Q.u.8.=.@.5.t.G.4.i.[+r.1.q l f t.@+}.3 /+q.9 = % + o.",
"o.% = , { q.m.}.}.(+t.p q v x r.$+N W S.u.6.=.,.f.u._+c.d.>+u.c.(.Q.u.8.=.@.5.t.G.4.i.[+r.1.q l f t.@+}.3 /+q.9 = % + o.",
"o.% = , { q.m.}.}.(+t.p q v x r.$+N W S.u.6.=.,.f.u._+c.d.>+u.c.(.Q.u.8.=.@.5.t.G.4.i.[+r.1.q l f t.@+}.3 /+q.9 = % + o.",
"o.% = , { q.m.}.}.(+t.p q v x r.$+N W S.u.6.=.,.f.u._+c.d.>+u.c.(.Q.u.8.=.@.5.t.G.4.i.[+r.1.q l f t.@+}.3 /+q.9 = % + o.",
"o.% = , { q.m.}.}.(+t.p q v x r.$+N W S.u.6.=.,.f.u._+c.d.>+u.c.(.Q.u.8.=.@.5.t.G.4.i.[+r.1.q l f t.@+}.3 /+q.9 = % + o.",
"o.% = , { q.m.}.}.(+t.p q v x r.$+N W S.u.6.=.,.f.u._+c.d.>+u.c.(.Q.u.8.=.@.5.t.G.4.i.[+r.1.q l f t.@+}.3 /+q.9 = % + o.",
"o.% = , { q.m.}.}.(+t.p q v x r.$+N W S.u.6.=.,.f.u._+c.d.>+u.c.(.Q.u.8.=.@.5.t.G.4.i.[+r.1.q l f t.@+}.3 /+q.9 = % + o.",
"o.% = , { q.m.}.}.(+t.p q v x r.$+N W S.u.6.=.,.f.u._+c.d.>+u.c.(.Q.u.8.=.@.5.t.G.4.i.[+r.1.q l f t.@+}.3 /+q.9 = % + o.",
"o.% = , { q.m.}.}.(+t.p q v x r.$+N W S.u.6.=.,.f.u._+c.d.>+u.c.(.Q.u.8.=.@.5.t.G.4.i.[+r.1.q l f t.@+}.3 /+q.9 = % + o.",
"o.% = , { q.m.}.}.(+t.p q v x r.$+N W S.u.6.=.,.f.u._+c.d.>+u.c.(.Q.u.8.=.@.5.t.G.4.i.[+r.1.q l f t.@+}.3 /+q.9 = % + o.",
"o.% = , { q.m.}.}.(+t.p q v x r.$+N W S.u.6.=.,.f.u._+c.d.>+u.c.(.Q.u.8.=.@.5.t.G.4.i.[+r.1.q l f t.@+}.3 /+q.9 = % + o.",
"o.% = , { q.m.}.}.(+t.p q v x r.$+N W S.u.6.=.,.f.u._+c.d.>+u.c.(.Q.u.8.=.@.5.t.G.4.i.[+r.1.q l f t.@+}.3 /+q.9 = % + o.",
"o.% = , { q.m.}.}.(+t.p q v x r.$+N W S.u.6.=.,.f.u._+c.d.>+u.c.(.Q.u.8.=.@.5.t.G.4.i.[+r.1.q l f t.@+}.3 /+q.9 = % + o.",
"o.% = , { q.m.}.}.(+t.p q v x r.$+N W S.u.6.=.,.f.u._+c.d.>+u.c.(.Q.u.8.=.@.5.t.G.4.i.[+r.1.q l f t.@+}.3 /+q.9 = % + o.",
"o.% = , { q.m.}.}.(+t.p q v x r.$+N W S.u.6.=.,.f.u._+c.d.>+u.c.(.Q.u.8.=.@.5.t.G.4.i.[+r.1.q l f t.@+}.3 /+q.9 = % + o.",
"o.% = , { q.m.}.}.(+t.p q v x r.$+N W S.u.6.=.,.f.u._+c.d.>+u.c.(.Q.u.8.=.@.5.t.G.4.i.[+r.1.q l f t.@+}.3 /+q.9 = % + o.",
"o.% = , { q.m.}.}.(+t.p q v x r.$+N W S.u.6.=.,.f.u._+c.d.>+u.c.(.Q.u.8.=.@.5.t.G.4.i.[+r.1.q l f t.@+}.3 /+q.9 = % + o.",
"o.% = , { q.m.}.}.(+t.p q v x r.$+N W S.u.6.=.,.f.u._+c.d.>+u.c.(.Q.u.8.=.@.5.t.G.4.i.[+r.1.q l f t.@+}.3 /+q.9 = % + o.",
"o.% = , { q.m.}.}.(+t.p q v x r.$+N W S.u.6.=.,.f.u._+c.d.>+u.c.(.Q.u.8.=.@.5.t.G.4.i.[+r.1.q l f t.@+}.3 /+q.9 = % + o.",
"o.% = , { q.m.}.}.(+t.p q v x r.$+N W S.u.6.=.,.f.u._+c.d.>+u.c.(.Q.u.8.=.@.5.t.G.4.i.[+r.1.q l f t.@+}.3 /+q.9 = % + o.",
"o.% = , { q.m.}.}.(+t.p q v x r.$+N W S.u.6.=.,.f.u._+c.d.>+u.c.(.Q.u.8.=.@.5.t.G.4.i.[+r.1.q l f t.@+}.3 /+q.9 = % + o.",
"o.% = , { q.m.}.}.(+t.p q v x r.$+N W S.u.6.=.,.f.u._+c.d.>+u.c.(.Q.u.8.=.@.5.t.G.4.i.[+r.1.q l f t.@+}.3 /+q.9 = % + o.",
"o.% = , { q.m.}.}.(+t.p q v x r.$+N W S.u.6.=.,.f.u._+c.d.>+u.c.(.Q.u.8.=.@.5.t.G.4.i.[+r.1.q l f t.@+}.3 /+q.9 = % + o.",
"o.% = , { q.m.}.}.(+t.p q v x r.$+N W S.u.6.=.,.f.u._+c.d.>+u.c.(.Q.u.8.=.@.5.t.G.4.i.[+r.1.q l f t.@+}.3 /+q.9 = % + o.",
"o.% = , { q.m.}.}.(+t.p q v x r.$+N W S.u.6.=.,.f.u._+c.d.>+u.c.(.Q.u.8.=.@.5.t.G.4.i.[+r.1.q l f t.@+}.3 /+q.9 = % + o.",
"o.% = , { q.m.}.}.(+t.p q v x r.$+N W S.u.6.=.,.f.u._+c.d.>+u.c.(.Q.u.8.=.@.5.t.G.4.i.[+r.1.q l f t.@+}.3 /+q.9 = % + o.",
"o.% = , { q.m.}.}.(+t.p q v x r.$+N W S.u.6.=.,.f.u._+c.d.>+u.c.(.Q.u.8.=.@.5.t.G.4.i.[+r.1.q l f t.@+}.3 /+q.9 = % + o.",
"o.% = , { q.m.}.}.(+t.p q v x r.$+N W S.u.6.=.,.f.u._+c.d.>+u.c.(.Q.u.8.=.@.5.t.G.4.i.[+r.1.q l f t.@+}.3 /+q.9 = % + o.",
"o.% = , { q.m.}.}.(+t.p q v x r.$+N W S.u.6.=.,.f.u._+c.d.>+u.c.(.Q.u.8.=.@.5.t.G.4.i.[+r.1.q l f t.@+}.3 /+q.9 = % + o.",
"o.% = , { q.m.}.}.(+t.p q v x r.$+N W S.u.6.=.,.f.u._+c.d.>+u.c.(.Q.u.8.=.@.5.t.G.4.i.[+r.1.q l f t.@+}.3 /+q.9 = % + o.",
"o.% = , { q.m.}.}.(+t.p q v x r.$+N W S.u.6.=.,.f.u._+c.d.>+u.c.(.Q.u.8.=.@.5.t.G.4.i.[+r.1.q l f t.@+}.3 /+q.9 = % + o.",
"o.% = , { q.m.}.}.(+t.p q v x r.$+N W S.u.6.=.,.f.u._+c.d.>+u.c.(.Q.u.8.=.@.5.t.G.4.i.[+r.1.q l f t.@+}.3 /+q.9 = $ + o.",
"o.% = , { q.m.}.}.(+t.p q 5+x r.$+N W S.u.6.=.,.f.u._+c.d.>+u.c.(.Q.u.8.=.@.5.u.6+7+i.[+r.1.q l f t.@+}.3 /+q.9 = $ + o.",
"o.- = , { q.m.}.}.(+t.p q 5+x r.$+N W S.u.6.=.,.f.u._+c.8+>+u.c.(.Q.u.8.=.@.5.u.6+4.i.[+r.1.q l f t.@+}.3 /+q.| = ^ + o.",
"o.% = , { q.m.}.}.(+t.k.q v x r.$+N W S.u.6.=.,.f.u._+c.d.9+u.c.(.Q.u.8.=.@.5.t.G.4.i.[+r.1.q l f t.@+}.3 0+q.| = $ + o.",
"o.% = U { q.m.}.}.(+t.k.q x x r.$+R W S.u.6.=.,.a+u._+c.d.>+u.c.(.b+u.8.=.@.5.s.G.7+i.[+r.c+q l P t.@+}.3 0+q.| = $ @ o.",
"o.% = , { q.m.}.}.(+t.p q x 1.r.$+N W S.u.6.=.,.f.u._+c.d.>+u.c.(.Q.u.8.=.@.5.t.G.4.d+e+r.1.q l f t.@+}.3 /+q.9 $ $ + o.",
"o.% $ , ~ q.++f+}.#+t.k.|.1.g+r.h+i+j+S.t.*+7.8.k+t.Q.-+;+9+u.l+m+Q.s.n+7.6.o+t.'+)+!+~+r.{+|.p k t.^+}.m./+q.w.$ % . o.",
"o.0 % p+q+q.y.z.z.r+p.B.C.s+X.p.E.U.G.H.p.t+u+K.L.t.v+N.O.P.t.N.Q.M.t.R.J.w+S.t.x+U.V.W.r.X.Y.y+Z.p.z+z.A+.+p.w.% 0 . o.",
"o.o.p.q.q.q.q.q.p.p.u.p.r.r.r.u.p.t.t.t.t.t.t.u.u.t.t.v.u.t.t.u.u.t.t.t.u.u.v.t.t.t.t.p.p.p.r.r.p.p.p.p.p.p.p.p.p.p.o.o.",
"  # % = , ~ $.3 }.}.e k p |.1.1.2.d+4.W 5.5.B+C+8.9.0.a.c.c.D+c.c.a.a.f.8.{.B+5.h.W i+i.2.1.1.]+p k E+}.}.3 _ ~ , $ % n.",
"  . $ = _.( :.4 6 6 e f l q x v B H N L ..S @.=.=.,.!.^.^.<.<.<.^.^.].~.[.=.+.S S L G D B v v q l f c 6 6 4 < { , $ - . ",
"  . $ = | { _ 1 4 6 6 c f l q v v B D G L S S @.{.,./.^.^.^.^.^.^.(.!.,.=.+... .L N H B u x q l w c 6 6 8 _ : { , $ % . ",
"  . % $ | { _ 1 4 6 6 c f l q v v B Y G L S S @.{.=.,.].].^.^.^.].!.,.=.=.+...S L N H B v x q l w c 6 6 4 _ _ { , $ % . ",
"  . % $ | { { ).-.6 6 c f l q v v B D G L L S S @.=.=.,.,.!.!.!.,.~.=.=.+.S S L M N H B v x q l w c 6 6 4 _ [ , , $ + . ",
"    + ^ $ , { 1 -.6 6 Q f l r v v v B ;.G L S S S >.=.=.,.,.,.,.,.=.=.+...S S M G H '.B v x q l w Q 6 6 4 _ { U > % +   ",
"    + $ $ , { 1 4 6 6 c f l l t v v %.` &.G L S  .S @.+.*.*.=.=.=.@.@.S S S L &.J D B v v q l l j e 6 6 4 _ ~ , > % +   ",
"    . % $ , ~ 2 1 4 6 b c f l q v v v Z ` G L L S S  ...+.+.+.+.@.S S  .S L L #.` B v v v q l f c 6 6 4 _ $.~ U ; % .   ",
"      + $ ; U { _ 8 6 6 Q c V l q v v v B D I R W L S S S S S S S S S M L X G Y B Z v v q p f c c 6 6 3 _ ~ ! = $ &     ",
"      + $ ; g ~ _ 1 4 6 6 c f p l q v v B B D R N M L L S S S S S L M L G G F B B T v q l o f c b 6 4 _ _ ~ , = $ .     ",
"      + % % $ , { _ 3 6 A 6 e k o q x v v v B D D I J G K L M L L G N I D D O v v v v r l P Q 6 6 6 4 _ { , ; ^ $ .     ",
"        & % $ , { { _ 4 6 6 e e f p q x v v v B B D D F G G G G G H H D B B v v v v t l w c c 6 6 4 1 { ~ g ; $ +       ",
"        . + % ; , { _ 1 4 6 6 c f f l q q v v v v B B B D D D D D B B B v v v v t q l f f e 6 6 4 _ _ E | $ % + .       ",
"          . % ; ; , { : 4 6 6 b c f f l l q v v v v v v B B B B B v v v v v v t C l w f c 6 6 6 4 _ { | $ - % .         ",
"            + $ $ , / { _ 4 6 6 6 c c f l l q q x v v v v v v v v y x v v q q l l f c z 6 6 A 3 _ ~ , 9 $ % +           ",
"            . + $ ; , ~ _ _ 4 6 6 b c c f f s l q q q t u u v v v q q q t l l w w c c 6 6 6 4 2 : ~ , $ $ + .           ",
"              @ $ $ = , { _ 1 4 b 6 6 6 c c f l l o p l q r q q q p l l l p f c c 6 6 6 6 3 2 _ { , ; $ % .             ",
"                + % $ g , h _ 1 i 4 6 6 6 c c f j k k f l l l m l f f f f f c c n 6 6 4 4 _ : { ! g ; $ +               ",
"                . . % $ d , { { _ _ 3 6 6 6 b c c e e c f f f f f e e e e e 6 6 6 6 4 _ _ ] ~ | | $ $ + +               ",
"                  . 0 % $ ; , , { _ _ a 4 6 6 6 b 6 6 b c c c c c 6 6 6 6 6 6 6 4 4 1 _ { , , = $ $ % +                 ",
"                    . + $ $ = | | ~ { _ 3 3 4 6 6 6 6 6 6 6 6 6 6 7 6 6 6 6 4 4 8 _ { ~ ! 9 $ $ $ + .                   ",
"                      . + - $ $ = ! , ~ _ _ _ 4 4 4 4 4 6 7 6 6 6 4 4 4 4 4 1 1 2 { , , > $ $ $ + .                     ",
"                          . + $ $ ^ | , ( { 1 _ 2 _ _ _ 3 3 3 4 4 2 _ _ _ _ _ { { , 5 $ $ % + +                         ",
"                            . + $ $ $ ; , / ( { { { _ _ _ _ _ : < _ _ [ { { { , , } ; $ % + .                           ",
"                                + + $ $ $ = ) , ! ~ ~ { { ~ { { { ] ~ ~ , , , $ ^ $ $ & +                               ",
"                                  . + % $ $ $ ; > , , , , , , , , , , , ' ; ; $ - % + +                                 ",
"                                      . + + $ $ $ $ $ $ * = = $ $ $ $ $ - % % + . .                                     ",
"                                            + + + @ $ % $ $ $ % % % % + + & .                                           ",
"                                                  . + . + @ + . # . . .                                                 "};
