/* XPM */
static char *rstoic_rstoic_icon4[] = {
/* columns rows colors chars-per-pixel */
"63 125 114 2",
"   c #010100",
".  c #262624",
"X  c #272823",
"o  c #2B2724",
"O  c #282825",
"+  c #292928",
"@  c #3B3B36",
"#  c #3B3B38",
"$  c #49493F",
"%  c #4A4A43",
"&  c #4B4A48",
"*  c #57574F",
"=  c #58584E",
"-  c #575651",
";  c #575850",
":  c #585752",
">  c #585951",
",  c #64645B",
"<  c #68655C",
"1  c #656560",
"2  c #6F6F67",
"3  c #726F66",
"4  c #706F6A",
"5  c #717165",
"6  c #717169",
"7  c #7B7C6E",
"8  c #7C7C70",
"9  c #858677",
"0  c #858679",
"q  c #86887A",
"w  c #8D8E7E",
"e  c #8D8E81",
"r  c #8E8D88",
"t  c #8F9081",
"y  c #908F8A",
"u  c #909184",
"i  c #97978B",
"p  c #959887",
"a  c #969889",
"s  c #989987",
"d  c #98998A",
"f  c #979890",
"g  c #9D9E94",
"h  c #9FA08E",
"j  c #9EA091",
"k  c #A0A18F",
"l  c #A0A191",
"z  c #A7A896",
"x  c #A7A89C",
"c  c #A8A996",
"v  c #A9AA99",
"b  c #AFB09E",
"n  c #B0B29E",
"m  c #AAAAA0",
"M  c #AFB1A4",
"N  c #B1B2A1",
"B  c #B5B5AA",
"V  c #B7B8A4",
"C  c #B6B8A9",
"Z  c #B8B9A6",
"A  c #B8B9A9",
"S  c #BFBFB3",
"D  c #BFC0AC",
"F  c #BFC0B1",
"G  c #C0BFAB",
"H  c #C1BFB1",
"J  c #C1C1AD",
"K  c #C1C1B2",
"L  c #C7C7BB",
"P  c #C6C8B4",
"I  c #C7C8B9",
"U  c #C8C6B3",
"Y  c #C8C6B9",
"T  c #C9C8B4",
"R  c #CDCDBB",
"E  c #CED0BB",
"W  c #D0CEBA",
"Q  c #D1D0BC",
"!  c #CDCEC1",
"~  c #CFD0C2",
"^  c #D0CEC1",
"/  c #D6D5C1",
"(  c #D6D5C8",
")  c #D8D6C2",
"_  c #D8D6C9",
"`  c #DCDBC6",
"'  c #DCDCCA",
"]  c #DDDDD0",
"[  c #DFE0CE",
"{  c #DFE0D0",
"}  c #E0DFCB",
"|  c #E1DFD2",
" . c #E1E1CC",
".. c #E3E3D2",
"X. c #E6E6D9",
"o. c #E6E8D5",
"O. c #E7E8D9",
"+. c #E8E7D2",
"@. c #E8E6D9",
"#. c #ECECD5",
"$. c #EDEDDA",
"%. c #F0EFDA",
"&. c #F3F3DC",
"*. c #F9F8DF",
"=. c #EDEDE0",
"-. c #F2F2E3",
";. c #F5F6EA",
":. c #F6F8E1",
">. c #F7F8E9",
",. c #F8F6E4",
"<. c #F9F7E8",
"1. c #F9F8E1",
"2. c #F9F8E9",
"3. c #FEFEFE",
/* pixels */
"3.3.3.3.3.3.3.3.3.3.3.3.3.3.3.3.3.3.3.3.3.3.3.3.3.3.3.X O O O X o o O X 3.3.3.3.3.3.3.3.3.3.3.3.3.3.3.3.3.3.3.3.3.3.3.3.3.3.3.",
"3.3.3.3.3.3.3.3.3.3.3.3.3.3.3.3.3.3.3.3.3.3.O X X X X @ # @ $ @ @ @ @ @ X X X X o 3.3.3.3.3.3.3.3.3.3.3.3.3.3.3.3.3.3.3.3.3.3.",
"3.3.3.3.3.3.3.3.3.3.3.3.3.3.3.3.3.3.3.X . X X @ @ @ @ @ @ @ @ @ @ @ @ @ @ @ @ @ O O O O 2.3.3.3.3.3.3.3.3.3.3.3.3.3.3.3.3.3.3.",
"3.3.3.3.3.3.3.3.3.3.3.3.3.3.3.3.3.O O X # @ @ @ @ @ @ % % $ $ $ $ $ % % @ @ @ @ @ @ @ o + + 3.3.3.3.3.3.3.3.3.3.3.3.3.3.3.3.3.",
"3.3.3.3.3.3.3.3.3.3.3.3.3.3.3.3.X X @ @ @ @ @ $ $ % $ = = = = = > > = = $ % % % @ @ @ @ @ O O 3.3.3.3.3.3.3.3.3.3.3.3.3.3.3.3.",
"3.3.3.3.3.3.3.3.3.3.3.3.3.3.. X @ @ @ @ $ $ $ = = = , , , , , , , , , , , = = = % % % @ @ @ @ O X 3.3.3.3.3.3.3.3.3.3.3.3.3.3.",
"3.3.3.3.3.3.3.3.3.3.3.3.3.. @ @ @ @ $ % = = = , , , , , , , , , , , , , , , , , = = : % @ @ @ @ @ + 3.3.3.3.3.3.3.3.3.3.3.3.3.",
"3.3.3.3.3.3.3.3.3.3.3.. . @ @ @ @ $ $ > = < , , , , , , , 5 5 5 5 5 , , , , , , < < = : % % @ @ @ # X . 3.3.3.3.3.3.3.3.3.3.3.",
"3.3.3.3.3.3.3.3.3.3.O X @ @ @ @ $ = = , , , , , 5 5 5 2 2 8 7 7 7 7 5 5 5 2 5 , , , , , = = % @ @ @ @ + . 3.3.3.3.3.3.3.3.3.3.",
"3.3.3.3.3.3.3.3.3.X X @ @ @ % % = = , , , 5 5 5 8 7 7 8 7 0 q q 9 q 7 7 8 8 8 5 5 5 , , , = = % % # @ @ O O 3.3.3.3.3.3.3.3.3.",
"3.3.3.3.3.3.3.3.X X @ @ # % > > , , , , 5 8 7 7 0 0 0 0 q t t t t t q 9 0 0 q 8 8 8 2 , , , , = > % @ @ # X O 3.3.3.3.3.3.3.3.",
"3.3.3.3.3.3.3.O X @ @ % % > > , , , 2 5 7 8 q q e e e t w t t t w t t w e e e q 0 8 8 5 5 , , , > > % % @ # O O 3.3.3.3.3.3.3.",
"3.3.3.3.3.3.3.X @ @ @ % > , , , , 5 8 7 0 9 t t e e e t w h s s s s t w t t t t t 0 0 7 7 2 , , , , = % @ @ @ O 3.3.3.3.3.3.3.",
"3.3.3.3.3.3.O X @ @ % = , , , 5 5 7 7 0 0 t w u a s d s s k h l j l s s s a s t e t 0 0 7 7 5 3 , , , = $ @ @ O . 3.3.3.3.3.3.",
"3.3.3.3.3.O O @ @ % = = , , 5 7 8 0 q e w w w s l k j d k c c c v c l l d h l s w t t e 9 0 7 7 5 , , = > $ @ @ X . 3.3.3.3.3.",
"3.3.3.3.3.O @ @ @ $ = , , 5 5 8 0 0 w e t s s l k v v v b c c b v c v v b v h l s s e e t 0 0 7 5 2 , , * % @ @ # . 3.3.3.3.3.",
"3.3.3.3.. X @ @ % = , , , 5 8 0 e t t t d j j v c c c c c n n n n n v v c b c c j j s t w w w q 7 5 , , , = $ @ @ X O 3.3.3.3.",
"3.3.3.+ O @ # % = = , , 5 7 0 q e w d d j z c v c n n n n D n D D Z b b b b c c v j j a s w u q 9 7 5 , , = = $ @ @ X O 3.3.3.",
"3.3.3.. @ @ @ % = , , 5 5 7 9 w e s s j v c v c n V V V V J D J J J Z Z Z Z b b v c v z s s w w 9 7 7 5 , , = $ @ @ @ X 3.3.3.",
"3.3.+ @ @ @ % > , , , 5 7 9 w t w a j v v c N N V V J D J D J J J J D D D V Z N N c v v j d t u w 9 7 5 , , < = $ @ @ @ X 3.3.",
"3.3.X @ # % > > , , 5 7 9 q t t s l v v c N Z Z J J J J J U R R T T J J J J J Z N n v c c k s w t q 0 7 5 , , = = % @ @ X 3.3.",
"3.3.X @ @ % ; , , 2 7 7 9 t t d l j v v N Z V J J J P P U W W Q W W U U T J D J Z Z N c c k k s u w 0 7 7 5 , , = $ @ @ o 3.3.",
"3.X X @ @ % = , , 2 7 0 t e t s l v v N Z Z J J J T Q Q W Q Q Q Q Q W T Q T J K K Z n N v v k s w u w q 7 5 , , = $ @ @ X X 3.",
"3.X @ @ % = , , , 2 7 0 t t s j v v v n Z J J T T Q Q Q Q ` ` }  .` ` Q R Q T T J J Z n v v v k s w t 9 7 5 , , < = % @ @ X 3.",
"3.X @ @ % = , , 5 8 q t t s j j v c N Z G J G T W ` Q } ` ` ` `  .` Q  .Q Q Q T J J J Z n v c k j a w t 9 7 5 , , = % @ $ X 3.",
"3.X @ @ % > , , 5 7 0 t t s j x v V Z Z J J U W ) Q } } ` `  . . . . .`  .` Q Q T G J Z Z n v c d a e t q 8 2 , , = $ @ @ X 3.",
"3.X @ @ % = , , 2 8 q e t s j v c N Z J J U W R Q ` ` `  . .+.+.+. . .` Q ` Q Q W T J J Z n v v l s t t 9 7 6 , , = $ @ @ X 3.",
"X @ @ $ > , , , 5 7 9 t w s j v v n Z U J T W ) } ` ` } +.+.%.%.#.+.+. . . .+.Q W T J J V n v c l d w t q 7 6 , , , = $ @ @ X ",
"X @ @ % > , , , 5 7 9 t w s j v c n V D D T R ) } ` } #.%.%.#.#.#.#.$.o. .` ` Q Q P J J Z b v v z i t e q 7 5 , , , > % @ @ X ",
"X @ @ % > , , 6 8 q r e d j b x N Z K K Y Q ) ' ` } } +.%.#.-.&.&.$.$.o. . .}  .) ! Y J D Z N x v z i e r 0 8 6 , , > % @ @ O ",
"O @ @ % : 1 1 4 8 e r r f j m m N A H H L / ( ] ' | @.=.$.-.-.2.-.;.$.=.O...' ' ( ! ! H K C B x m j i r r 0 8 4 1 1 : % @ # O ",
"                                                                                                                              ",
"  @ @ & : , < 3 8 0 r r d j x x B Z K K L ! _ } ' ..O.$.$.-.2.2.-.$.$.O.{ ] ] ( / L S S C M x x l f u r 0 8 4 1 1 > % @ @ O   ",
"  @ @ & : , < 3 8 0 e e d j v v m Z H K Y R ) ' ' } @.%.=.&.1.1.-.$.$.+...' ' ) R Y H H Z N x v l f e e 0 8 4 1 1 > & # @ O   ",
"  # # % > < < 3 8 q u w d j v b N Z J J T W ` ` '  .o.#.$.&.1.1.&.#.$.+.' ` ' ( Q T J J A N v v l d w w 0 7 5 , , > & @ @ X   ",
"  @ @ % > < < 5 8 0 w u d j c c b Z J J T W Q ` '  .+.$.#.&.1.1.&.#.$.+. .` _ / Q T J G Z N v v l d e e 0 7 6 , , > & @ @ X   ",
"  # @ % = , < 3 8 q t e d j v c b Z J J T W Q } '  .+.#.#.&.1.1.*.#.#.+. .` ` Q W T J J V n c v l d w w 9 7 5 , , > & @ @ X   ",
"  # @ % = , , 5 8 q e e s j v v n Z J J T W Q  .`  .+.$.#.&.1.1.&.#.#.+. .'  .Q W T G J Z n c v l d w w 9 7 3 , , = & @ @ X   ",
"  # @ % > , < 5 7 9 e e a j v v n Z J J T R ) ` } } +.#.#.&.1.1.&.#.$.+. .' } Q W T J J V n v c l d w e q 7 3 , , > % @ @ X   ",
"  # # % = , < 5 7 0 r e i z v v N Z J J T W ) ' }  .o.%.$.:.1.1.&.%.$.o. .' ' ` Q T K J Z n v x l i e e q 7 3 , < > % @ @ .   ",
"  # # & : 1 1 4 7 0 r r f g m m B Z K K L ! ( ] ] ..X.=.=.-.>.>.-.$.$.O.{ ' ] ( ! L K K A B m m g i r r e 8 4 , 1 > & # # O   ",
"                                                                                                                              ",
"      & : , 1 4 8 r r e f j x m N A K K L ! ( ' ' ..+.%.=.-.,.>.-.$.-.O.[ [ [ ) ( L H H A N x x j f e e 0 8 4 1 1 : & #       ",
"  # #   : 1 , 2 8 0 e e i j v v N Z K K Y R _ ' } } +.#.$.-.1.,.-.$.$.O.[ [ [ ) R R H H A N x v j d e r 0 7 4 1 1 : &   # .   ",
"  # # %     1 4 7 0 r e d l v c n Z J J T Q / ' } } +.#.%.&.1.*.&.#.#.+.[ ` ` ) R P J U Z n v v j d e e 0 8 4 1 1     # # O   ",
"  # # & : 1   4 8 0 e e d l v c N Z J J T Q ) ` }  .+.#.#.&.1.1.&.#.#.#.[ ` ` / W U J J V n c c j s u r 0 8 4 1   : % @ @ O   ",
"  # # % > , 1     r e u d k v c n Z J J T W ) ` Q +.+.#.%.&.*.*.&.#.#.+.[ ` ` ) W P J G Z N v v j s w e 0 8     1 : % # @ O   ",
"  # # % ; , , 6 8   e u d k v c N A J J T Q Q ` }  .+.#.#.&.*.*.&.#.#.#. .` ` ) W U J J Z N c v j s r e e   4 , , > % @ @ .   ",
"  # # % = , , 5 7 0     f l m v N V K J T W ` ` `  .+.%.#.*.*.*.*.#.#.+. .}  .Q W T G J Z n v v j d r     8 6 , , > % @ @ O   ",
"  # # % = , , 5 7 9 r e   l x v N Z J J T W Q ` '  .+.#.#.&.*.*.&.#.#.+. .} } Q W T G J A n v v j f   e q 8 5 , , > % @ @ O   ",
"  # @ & = , , 5 8 0 e e f     x M A D J T W Q } } } +.%.#.&.1.1.&.#.#.#.` ` } Q W T J J V N x x     e e 9 7 5 , 1 > & # @ O   ",
"  @ @ % * , , 5 7 0 e e d l m   N Z J K T W Q  .` } +.#.%.&.1.1.*.#.#.+. .` } ) W T J K A M m   l d u r 9 7 5 , , : & @ @ .   ",
"  @ @ % * , , 5 7 q e w d k x x   C F F T W Q } ` } +.#.%.&.*.*.&.#.#.+.} } ` Q W T J K C B   m l d e e q 8 5 , , = % @ # O   ",
"  @ @ % > , , 5 7 q e u f k v x M     I P Q ) _ }  .+.%.#.&.*.*.&.#.#.+.} ` } ) W T K H     m x j d w e 0 8 2 , , = % @ @ O   ",
"  # @ % > , , 5 7 q w e d k v v M Z K   Y ^ ) ' ` } #.#.#.&.*.*.*.#.#.#.} } ' ) ^ R H   A B v v l d e e q 7 3 , , = % @ @ X   ",
"  # @ & > , , 2 7 q e e d k c c N C K K     ( } ' } +.%.#.&.*.*.&.#.#.+.} ' ' _ ^     H A B v v j i e u q 7 3 , , = % @ @ .   ",
"  # @ % = , , 5 7 9 e e d l c c n Z J J T /   ' '  .o.$.#.&.1.1.*.#.%.+.} } ] (   L K K Z N v c j s e t 9 7 5 , , > & @ @ O   ",
"  # @ & = , , 5 7 q e e d l v c n Z J J Y ! _     ..o.#.$.&.*.1.*.#.#.+.} }     E T J K Z N v c j s e w 9 7 5 , , > % @ @ O   ",
"  # @ % = , , 5 7 q w e d k c v n Z J G U W ) ' ]   O.=.#.&.:.:.#.#.%.#.|   } _ W T J J Z M c c j s t t 9 7 5 , , > & @ @ X   ",
"  @ @ % = , , 5 7 q e w d k v c n Z J J T W ) } ' ..    $.-.2.1.&.#.%.    ] ' ) Q U J J Z N v v j s t w 9 7 5 , , > % @ @ o   ",
"  # @ % = , , 5 7 q w w d k c c N Z J J R W Q ` '  .+.$.  -.;.;.-.=.  @...' ' / E T J J Z n v c j s t e 9 7 5 , , > % @ @ X   ",
"  @ @ % = , , 5 7 q e w s k c c n Z J K T Q Q } } } o.$.=.    ;.    $.X.} ' ' ) Q T J J Z n v v l s t t q 7 5 , 1 > % @ @ O   ",
"  @ @ % = , < 3 7 q w w d k v v N Z J J T W / _ }  .o.$.=.;.;.  ;.=.=.o. .` ` / E P J J Z b c c d s e e 0 7 3 , , > % @ @ X   ",
"  @ @ % = , , 3 7 q w w s z v v n Z J G T W / ` `  .@.$.=.    ;.    $.+. .' ` / E P J J Z N b v l s e t 0 8 5 , , > % @ @ O   ",
"  @ @ % > , , 3 7 0 e w d l v v n Z G G U W Q } ' } X.O.  -.2.>.-.$.  $.| ' } ) R K J J Z n v c k s e w 0 7 5 , , = & @ @ O   ",
"  @ @ % > , , 5 7 q e e s l c v n G G G U W ) } ' |     =.-.1.1.&.$.%.    ' } ) R Y J J Z b c v h s t t 0 8 5 , < = % @ @ O   ",
"  @ @ % = , , 6 8 q w e d l c c n G H U U W ( } ]   X.$.$.-.1.1.&.$.%.#.|   ] ( Q T J J Z n v v k d u t 0 8 6 , , = % @ @ X   ",
"  # @ % = , , 5 7 q e e d k c v n Z H G Y ^ _     ..X.$.$.%.1.1.&.#.#.+.| }     E Y J J Z n v c l s u w q 7 5 , < = % @ @ X   ",
"  @ @ % = , , 5 8 q e e d k v v n V H H ^ ^   } [  .+.%.#.&.:.:.*.#.#.+.} } } }   L K K Z N v v j a w e 9 7 5 , , = $ @ @ X   ",
"  # @ % > , , 5 8 q e e s k v v N Z H H     ) _ `  .+.#.#.&.1.:.*.#.#.+.} ) } } ~     K A N v v j a t e 0 7 5 , , = % @ @ .   ",
"  # @ % > , , 6 8 q w w d l v v N A H   R ^ ) } ` [ o.#.#.&.1.*.&.#.#.+.} } ` Q / Y K   A N m v j s w e 0 7 5 , , = % @ @ O   ",
"  # @ % > , , 5 8 q w w d k v x N     H Y ^ ) } [ [ #.#.#.&.1.:.&.#.%.} } } ` ` R K K K     x x j d e t 0 7 5 , , = % @ @ X   ",
"  # # % > , , 5 7 0 t e s j m x   Z H J T Q Q } [ [ +.#.#.&.*.*.&.#.#.+. .Q ` Q W R J K C M   m z i e e 0 8 3 , , = % @ @ X   ",
"  # @ % > , , 5 8 q w t f l x   N G J J T Q Q } Q [ #.%.#.*.*.*.*.#.#.#.+. .` ) Q T J J A M m   g i e r 0 8 6 , , > & @ @ O   ",
"  # @ % > , , 5 7 9 e e g     m B A J H T Q Q  . . .+.#.#.&.1.1.&.#.#.+. .` ` ) W T K J C N c x     e e 0 8 6 , , = % @ @ X   ",
"  @ @ % = , , 2 7 0 e r   j x v N V J G T Q Q ` `  .+.#.#.&.1.*.*.#.#.+. .` ` ) W T D D C N b v l d   r 0 7 6 , , = % @ @ .   ",
"  # @ % * , , 6 7 e     f g v v N Z J K T W Q } `  .#.%.%.&.*.*.&.#.#.+. .`  .Q Q T K J A n b v j f e     8 6 , , = % @ @ O   ",
"  @ @ % > , , 4 8   r r d g v v N V H G T Q ` } `  .+.#.#.*.:.*.*.#.#.#. .` ` ` W T J K A M c c j d u r q   4 , < = & # @ o   ",
"  @ # & > , 1     0 r e i j x v n V J J T W Q ` `  .+.#.#.&.1.1.&.#.#. . .` ` Q T T J J C b b c j d u e q 8     , : & # @ +   ",
"  # @ & - ,   4 8 e e e s j x v n G J J T W ` ` `  .o.%.#.*.1.*.&.#.&.#. .`  .Q W T J K Z b c c j d e e 0 8 4 1   : & # @ O   ",
"  # # %     1 6 8 0 t e d j v v n Z J J P E / ' `  .+.$.#.%.1.1.&.#.$.#.[ ` ` / E T J A A n b c j p t t 9 7 4 1 1     # # .   ",
"  # #   > 1 , 6 8 0 e e d j v x N Z J K I E / ' '  .o.$.$.&.1.1.&.$.$.+.} [ ' ) R T K K A N c v j i e t 9 8 4 1 1 : &   @ +   ",
"      & : 1 1 6 8 0 p r f j m m B A K K R ~ ( ' ' ..O.=.$.>.;.2.,.=.=.@.[ [ [ ( ~ L K K A M m m j f r r 0 8 4 1 1 : & #       ",
"                                                                                                                              ",
"  # # & > 1 1 6 8 e r e f z m x M C K K R ~ _ ' ' | @.$.$.-.2.1.-.$.$.@.{ ' ' ' ~ L K F Z M v m j f r r 0 8 4 , 1 : % # @ O   ",
"  # # % > , , 2 8 0 r e d j x x M Z K D I E / ' ' } o.$.$.-.1.1.:.#.$.o.[ ' ' ` E I J J Z N v v j f t t q 8 4 1 1 > % # @ X   ",
"  @ # % = , , 2 8 0 e q d j v v M Z K J I R / ` '  .+.%.%.-.2.1.&.$.#.+.{ ` ` Q E P J J A N v v j a t t q 7 6 , , > % @ @ O   ",
"  # # % = , , 2 8 9 e t s j c v N Z J J P R / ` '  .+.#.#.&.1.1.&.#.$.o.[ ` ` Q E P J J A b c c h i t t q 8 5 , , = % @ @ .   ",
"  # @ % * , , 2 8 0 e e p j c c n Z J J T W / ' `  .+.%.#.&.*.*.&.#.%.+. .` ' ` Q T J J Z n c v l s t e 0 7 5 , , = % @ @ O   ",
"  # @ & > , , 2 7 0 e e s j v v N Z J J T W ) ' `  .+.#.%.&.1.1.*.#.#.+. .` ` Q Q T J J V n v v l s e e 9 7 5 , , = % @ @ o   ",
"  # # & = < , 2 8 0 e e d j b v n Z J J T W ) ' `  .+.%.#.&.*.1.&.#.$.+. .` ` / W T J J V b v v l d t t 9 7 5 , , > % @ @ O   ",
"  # # & = , , 5 7 0 e e i j v z n A J J T W ) ' ' } +.%.%.-.1.1.-.$.#.X. .` ' / W T J J Z b v x j d e t q 7 5 , , * & @ @ O   ",
"  # # & > 1 , 4 8 r r r f j m m B A H H L E ( ] ' ..X.=.$.-.>.>.-.$.=.O.{ ] ' ( E L K K A B x m l d y e q 8 4 1 1 : % # @ X   ",
"                                                                                                                              ",
". # # % : 1 , 4 8 e r r f j m x M C H H L ~ ( ' ' ] X.$.$.-.-.2.-.-.=.$.X...] ] ( ~ Y F S B B m m g i u t 0 8 6 1 1 : % @ @ + ",
"O @ # & : , 1 4 8 0 t t d j m x B C I H I ! ( ' ] '  .X.$.$.-.&.-.$.$.O.[ ` ' ' ( E Y K H A N m m g i w t q 8 6 , , : % @ @ + ",
"O # @ % > , , 6 6 8 0 w e s j c v N Z J K T W ) ` } } #.#.#.%.%.#.%.%.+. .` ` ) W U J J G n c c j d u w 9 8 5 5 , , > % @ @ + ",
". # # % > , , 5 5 8 q w w s j x v n Z K J T W ) ` ` ` } +.+.%.#.#.+.+.} ` `  .) W T G G V n c c j d u u q 7 5 5 , < = % @ @ O ",
". + @ % % , , , 5 7 q u u s j v c N Z J J T T W Q } ` `  .} #.#.#. .} } ` ` Q W T T J J G n c c j s w e 9 7 5 , , , % @ @ X 3.",
"3.O @ @ $ = , , 5 7 q w w s j v v n n Z J J T W ) W } ` }  .}  .` +.Q } ` Q ` W U G J Z n n c c j s e e q 7 5 , < = $ @ @ X 3.",
"3.. # @ % = , , 3 7 0 u w a j j v c n Z J J J T W ) ` ` } } } Q ` ` ` } Q ) W U H J K Z n c c z j d r e 9 7 5 , , > % @ # O 3.",
"3.O # @ % = , , 5 5 8 q e w s j c v v n Z J J T T W Q Q Q Q } } ` ` ` Q Q Q T U H G V N n c c k s e e 0 7 5 2 , , = % @ @ O 3.",
"3.. O @ @ % = , , 5 8 0 u e w s l c v n n Z J J J U T W Q Q } Q ) Q Q Q T T J J J G Z n c c k s e e e 0 7 5 , , > % @ # O O 3.",
"3.3.. # @ % > < , 5 5 7 9 e u s k k v c n Z Z G G H T T W W W W Q Q T T T J J J Z n N c c h z d w e q 7 5 5 , , > % @ @ O 3.3.",
"3.3.O # @ % > = , , 5 8 q q t w s j x v v n N Z J J J J J T T R T T J J J J J Z n n c v v l d w e 0 0 7 5 , , = > % @ @ . 3.3.",
"3.3.O . # @ % > , , , 5 8 0 w u e s j v v v n N V Z U J G G G H J G J G J Z Z n n v v v l s e e u 0 7 5 , , < = % @ @ O X 3.3.",
"3.3.3.O @ @ @ % = , , 5 5 8 0 w e s d j v v v c N n Z Z G G J J J J G G n n N v v c c k s d e e q 7 5 5 < , = % @ @ @ X 3.3.3.",
"3.3.3.+ O @ @ % = = , , 6 7 0 0 u e d d j j v v c N n n n Z Z Z V Z n n n n c c c k z s d w e q 9 7 5 , , = = % @ @ O o 3.3.3.",
"3.3.3.3.o @ @ @ % = , , , 5 8 0 e e e w s j j v v v v v v N n n n n v v v v v v l l i e w e e q 7 5 , , , = % @ @ @ . 3.3.3.3.",
"3.3.3.3.3.X @ @ @ % > , , 5 5 8 0 q w e e d s g k c v v c v v v v v v c v v l j s d e w u 9 0 8 5 5 , , = $ @ @ # O 3.3.3.3.3.",
"3.3.3.3.3.+ @ @ @ % > > , , 5 5 8 q 0 e e u u s l l j j j v v v v v l k j l k s e w e e 9 q 8 3 5 , , > = % @ @ @ X 3.3.3.3.3.",
"3.3.3.3.3.3.+ @ @ @ % > , , , 5 5 8 8 0 q t w u d s d d s l j j k k s d s s s w e e q q 7 7 3 5 , , , = % @ @ @ O 3.3.3.3.3.3.",
"3.3.3.3.3.3.3.X @ @ @ % > , < < , 2 6 8 0 9 e e u w u w w s s s d s e e e e e e w 9 w 7 5 5 , , < , = % @ @ @ O 3.3.3.3.3.3.3.",
"3.3.3.3.3.3.3.3.+ @ @ % % > > < , , 6 6 8 8 0 0 w w w w t t w w w w w e w e e 9 9 7 7 5 5 , , , = = % % @ @ O 3.3.3.3.3.3.3.3.",
"3.3.3.3.3.3.3.3.O X @ @ @ % % = , , , , 5 8 8 8 9 9 9 9 0 e w e u u 0 q q q q 7 7 7 5 , , , , = $ % @ @ @ O O 3.3.3.3.3.3.3.3.",
"3.3.3.3.3.3.3.3.3.O . @ # @ & % = = < < , 5 5 3 7 7 7 7 7 0 q 0 9 9 7 7 7 8 7 5 5 5 , , , = = $ $ @ # @ O X 3.3.3.3.3.3.3.3.3.",
"3.3.3.3.3.3.3.3.3.3.X o @ @ @ @ % : > , , , , 5 5 5 5 5 5 7 7 7 7 7 5 5 2 5 5 5 , , , , = = $ @ @ @ @ O O 3.3.3.3.3.3.3.3.3.3.",
"3.3.3.3.3.3.3.3.3.3.3.3.O @ @ @ @ $ % > > , , , , , , 5 5 5 5 5 5 5 5 5 , , , , , < = = $ $ @ @ @ @ O 2.3.3.3.3.3.3.3.3.3.3.3.",
"3.3.3.3.3.3.3.3.3.3.3.3.3.. # # @ @ @ % > = = , , , , , , < , , , < , , , , , , = = = $ @ @ @ @ # O 3.3.3.3.3.3.3.3.3.3.3.3.3.",
"3.3.3.3.3.3.3.3.3.3.3.3.3.3.X X @ @ @ @ % % % > = = , , < < , , , , , , , = * = $ % % @ @ @ @ X + 3.3.3.3.3.3.3.3.3.3.3.3.3.3.",
"3.3.3.3.3.3.3.3.3.3.3.3.3.3.3.3.+ X # # @ @ @ % $ % % * = = = = = = = = % % % % @ @ @ @ # O O 3.3.3.3.3.3.3.3.3.3.3.3.3.3.3.3.",
"3.3.3.3.3.3.3.3.3.3.3.3.3.3.3.3.3.X X X # # @ @ @ @ @ % % % % % $ $ % $ @ @ @ @ @ @ @ X . . 3.3.3.3.3.3.3.3.3.3.3.3.3.3.3.3.3.",
"3.3.3.3.3.3.3.3.3.3.3.3.3.3.3.3.3.3.3.X X X X # @ @ @ @ @ @ @ @ @ @ $ @ @ @ @ @ O X X X 3.3.3.3.3.3.3.3.3.3.3.3.3.3.3.3.3.3.3.",
"3.3.3.3.3.3.3.3.3.3.3.3.3.3.3.3.3.3.3.3.3.3.X . X X X @ @ @ @ @ @ @ @ @ O O . X X 3.3.3.3.3.3.3.3.3.3.3.3.3.3.3.3.3.3.3.3.3.3.",
"3.3.3.3.3.3.3.3.3.3.3.3.3.3.3.3.3.3.3.3.3.3.3.3.3.3.3.X X X X X X X X X 3.3.3.3.3.3.3.3.3.3.3.3.3.3.3.3.3.3.3.3.3.3.3.3.3.3.3."
};
