/* XPM */
static char *ryield_ryield_icon2[] = {
/* columns rows colors chars-per-pixel */
"63 125 101 2",
"   c #010100",
".  c #262624",
"X  c #262823",
"o  c #282723",
"O  c #282825",
"+  c #282828",
"@  c #3B3B36",
"#  c #3C3C38",
"$  c #49493F",
"%  c #4A4A44",
"&  c #4A4A48",
"*  c #57574D",
"=  c #58584E",
"-  c #575850",
";  c #585952",
":  c #646557",
">  c #64645B",
",  c #656560",
"<  c #6F6F63",
"1  c #726F66",
"2  c #707065",
"3  c #717169",
"4  c #7B7C6E",
"5  c #7B7C72",
"6  c #868777",
"7  c #85867A",
"8  c #87887A",
"9  c #8D8E7E",
"0  c #858680",
"q  c #8D8E83",
"w  c #8D8E88",
"e  c #8E9081",
"r  c #919283",
"t  c #97978B",
"y  c #979888",
"u  c #989987",
"i  c #98988A",
"p  c #979890",
"a  c #9A9A91",
"s  c #9FA08E",
"d  c #9EA091",
"f  c #A0A18F",
"g  c #A0A093",
"h  c #A0A098",
"j  c #A7A895",
"k  c #A7A99A",
"l  c #A8A996",
"z  c #A9A99B",
"x  c #B0B29E",
"c  c #A7A8A2",
"v  c #A9A9A1",
"b  c #AFB0A8",
"n  c #B1B1A2",
"m  c #B1B2A8",
"M  c #B7B8A5",
"N  c #B7B9AA",
"B  c #B8B9A6",
"V  c #B8B9A9",
"C  c #BFC0AC",
"Z  c #BFC0B3",
"A  c #C0BFAB",
"S  c #C1BFB2",
"D  c #C1C1AE",
"F  c #C1C0B2",
"G  c #C6C6BB",
"H  c #C7C9B4",
"J  c #C6C8BA",
"K  c #C8C7B3",
"L  c #C8C6BA",
"P  c #C9C8B4",
"I  c #CECDBA",
"U  c #CED0BB",
"Y  c #D0CEBB",
"T  c #D1D0BC",
"R  c #CDCEC2",
"E  c #D0CEC2",
"W  c #D6D5C3",
"Q  c #D6D5C8",
"!  c #D8D6C2",
"~  c #D8D6C9",
"^  c #DCDBC6",
"/  c #DCDBCB",
"(  c #DBDBD1",
")  c #DFE1D4",
"_  c #E1E1CC",
"`  c #E9E9CF",
"'  c #E0E1D1",
"]  c #E6E6DA",
"[  c #E7E8DA",
"{  c #E8E6D4",
"}  c #E8E6D9",
"|  c #ECECD4",
" . c #EDECDB",
".. c #F3F3DE",
"X. c #ECECE0",
"o. c #F2F3E3",
"O. c #F5F6EA",
"+. c #F7F8E9",
"@. c #F9F7E9",
"#. c #F8F8EA",
"$. c #FEFEFE",
/* pixels */
"$.$.$.$.$.$.$.$.$.$.$.$.$.$.$.$.$.$.$.$.$.$.$.$.$.$.$.X X X X o o o X O $.$.$.$.$.$.$.$.$.$.$.$.$.$.$.$.$.$.$.$.$.$.$.$.$.$.$.",
"$.$.$.$.$.$.$.$.$.$.$.$.$.$.$.$.$.$.$.$.$.$.O O O O O @ @ @ @ @ @ @ @ @ X X X o X $.$.$.$.$.$.$.$.$.$.$.$.$.$.$.$.$.$.$.$.$.$.",
"$.$.$.$.$.$.$.$.$.$.$.$.$.$.$.$.$.$.$.O X X X @ @ @ @ @ $ @ # @ $ @ @ @ @ @ @ @ O O O O $.$.$.$.$.$.$.$.$.$.$.$.$.$.$.$.$.$.$.",
"$.$.$.$.$.$.$.$.$.$.$.$.$.$.$.$.$.O O o @ @ @ @ @ @ @ % $ $ $ $ $ $ $ $ @ @ @ @ @ # # O X + $.$.$.$.$.$.$.$.$.$.$.$.$.$.$.$.$.",
"$.$.$.$.$.$.$.$.$.$.$.$.$.$.$.$.o X # # @ @ @ % % % % = = = * = ; ; = = $ % $ % # # @ @ # X X $.$.$.$.$.$.$.$.$.$.$.$.$.$.$.$.",
"$.$.$.$.$.$.$.$.$.$.$.#.$.$.o X @ @ @ @ $ % % = = = > > > > > : : > : > > = = ; % % % @ @ # @ O X $.$.$.$.$.$.$.$.$.$.$.$.$.$.",
"$.$.$.$.$.$.$.$.$.$.$.$.$.X @ @ @ @ # % = = * > > > > > > > > > > : : > > : : : ; = ; % @ @ @ @ @ X $.$.$.$.$.$.$.$.$.$.$.$.$.",
"$.$.$.$.$.$.$.$.$.$.$.X o @ @ @ # % % ; = > > > : > > > > 1 2 3 3 3 > > > > > > > : = = $ $ @ @ @ @ O O $.$.$.$.$.$.$.$.$.$.$.",
"$.$.$.$.$.$.$.$.$.$.O O @ @ @ @ % ; = > : : > > 1 1 1 1 1 4 5 5 4 4 2 2 1 1 2 : > : > > = = $ @ @ @ @ O + $.$.$.$.$.$.$.$.$.$.",
"$.$.$.$.$.$.$.$.$.X X @ @ @ % % ; ; > > : 3 2 2 5 5 5 4 5 8 8 8 8 8 4 4 4 5 4 2 2 2 : > > = ; % & @ @ @ O O $.$.$.$.$.$.$.$.$.",
"$.$.$.$.$.$.$.$.X X @ @ @ % = = > > > : 2 4 4 4 8 7 8 7 8 e 9 q r 9 8 8 8 6 8 4 4 4 1 > > > > = - % @ @ @ O O $.$.$.$.$.$.$.$.",
"$.$.$.$.$.$.$.X X @ @ % % ; = > > : 2 1 4 4 9 8 e 9 e e e e 9 9 9 9 9 r 9 r q 8 6 4 4 2 2 : > > = = & & @ @ X O $.$.$.$.$.$.$.",
"$.$.$.$.$.$.$.X @ @ # $ ; > > > : 2 4 4 8 8 9 9 q 9 e e 9 u u u u u 9 r 9 9 r 9 r 6 6 5 5 1 : > > > ; % @ @ @ O $.$.$.$.$.$.$.",
"$.$.$.$.$.$.X X # # % = > > : 2 1 4 4 6 6 9 q 9 y y i y u f f f g g u u i u u r e e 6 8 4 4 1 1 > > > = % @ # X o $.$.$.$.$.$.",
"$.$.$.$.$.X o # # $ ; ; > : 2 4 5 8 8 9 9 r 9 u g g g g f x x l z l g f d g g u 9 r 9 9 8 8 4 4 2 : > = = % @ @ o o $.$.$.$.$.",
"$.$.$.$.$.o @ # # $ ; : : 2 2 4 8 8 9 r 9 u u f g z l l l l l l l z z z z z f g u u 9 9 e 6 8 5 2 2 > > * $ @ @ @ X $.$.$.$.$.",
"$.$.$.$.O X @ @ % = > > : 2 4 8 r 9 e e i d d z l l l z l x x x x x l l l l j x f d u 9 9 q q 7 4 2 > > > = $ @ # o X $.$.$.$.",
"$.$.$.+ O @ @ % = = > > 2 4 8 8 9 e i u d d z l x x x x x A x B A A x x x x j j z f d u y 9 9 7 8 4 2 : : = = % $ # X X $.$.$.",
"$.$.$.O @ @ @ $ = > > 2 2 4 8 9 9 u u d z l z l x x x A x D D D A A x C C x x j l l z d y y e e 8 4 4 2 > : = % @ @ @ X $.$.$.",
"$.$.O @ @ @ % = > > > 2 4 6 9 9 9 u g z l z x x A x K D D D D D A D D D D C B x x l l z s u e e 9 8 4 3 : : > = $ @ @ @ X $.$.",
"$.$.X @ @ % = = > : 2 4 8 8 e e u j z z l x B B D D D D D P P K P P A D D D D x x x x j l f s e r 6 8 4 1 : > = = $ @ @ X $.$.",
"$.$.O @ @ $ = > > 2 4 4 6 e e u d f z l M B B D D D P P P Y Y Y Y Y P P P D D D C x x l l f s y 9 9 8 5 4 1 > > = $ @ @ X $.$.",
"$.o X # @ $ = > > 2 4 7 e e 9 u f l l x B B D D D P T T Y T T ^ ^ T Y Y Y P C D C C x x l z d u 9 9 q 8 5 2 > : = $ @ @ O X $.",
"$.X @ @ % = > > > < 5 7 e 9 u d z l l x B D D P P T Y ^ T ^ ^ ^ ^ ^ ^ T Y Y H H C D B x l z z d i q r 8 5 1 > > > = % @ @ X $.",
"$.X @ @ % * > : 2 4 6 q e u d d l l x B D D D K Y ^ T _ ^ ^ ^ ^ ^ ^ ^ ^ T T T P D C D M M l l s d u q r 8 4 1 > > = $ $ @ X $.",
"$.X @ @ % = > > 2 4 6 9 9 u d l l M B B D D P Y T T ^ ^ ^ ^ _ _ ` ^ ^ ^ _ ! T Y H D C M M x z z d u 9 9 8 5 1 : > = $ @ @ X $.",
"$.o @ @ & = > > 1 5 6 q 9 s d z l x V D D K I I T ^ _ ^ _ _ ` ` ` _ _ ^ ^ ^ ^ T U P D D M x z z d u 9 9 6 5 1 : > = % @ @ X $.",
"o @ # $ = > > > 1 5 6 q e u d z z M B D A P Y ! _ ^ ^ _ { {  . .| ` ` _ ^ ^ ` T U P D F M n z z g u 9 9 8 5 2 > > > = % @ @ X ",
"O @ @ % = > > > 2 4 6 q 9 y d z l x B D D P Y W ^ ^ _ { | | | | | | | { _ ^ ^ ! U H D D M x l z g u r 9 8 5 1 > > > = % @ @ X ",
"X @ @ & - > > 3 4 8 q q y d z z M M F F P U W / _ ^ _ {  .......o.| ..{ _ ^ / _ W U I C C M M z z g y r q 8 5 1 > > = & @ @ X ",
"O # @ & ; , > 3 5 7 q w i d v c v N F F L E Q / / ' } X. .o.o.@.o.o.X.X.} ) ( / ~ R J Z Z N b v c d t w w 8 5 3 , , = & @ @ X ",
"                                                                                                                              ",
"  @ @ & ;   , 3 5 0   w i g v   b N F Z R   ~ / ( )   X. .o.#.  o.X.X.}   ( ( ~ E   S N N N v   h a w w   5 3 , ,   & # # +   ",
"  @ @ & ;   , 3 5 0   w i g v   m M Z Z R   ~ / / )   X. .+.#.  o.X. .}   ( / ~ E   S G N b v   h a q q   5 3 , ,   & # @ .   ",
"  @ @ & ;   , 3 5 0   e i h z   m N F Z Z   Q / ^ )   X.| ..#.  o. . .}   / / ! E   S S N m v   h p q w   5 3 > ,   & # @ X   ",
"  @ # & ;   , 3 5 0   e i h v   n V F F G   Q / ^ )   .. ...#.  o. .X.}   ( / ! E   K F N b z   h a q q   5 3 , ,   & # @ X   ",
"  @ @ & ;   , 3 5 7   w i d v   m N A S J   ~ / / )   X. ...#.  o. . .}   _ / ! E   K S V n z   h t q q   5 3 > >   & @ @ .   ",
"  @ @ & ;   , 3 5 7   w i d v   n N D D J   ~ / ^ )   X. ...#.  o. . .}   ( / Q E   S S V n v   h t e q   5 3 > ,   % @ @ +   ",
"  @ @ & ;   , 3 5 7   w i j v   n V F D J   ~ / ^ '   X.| ..#.  o. .X.{   / / ! E   S F V n v   h t e w   5 3 > ,   & @ @ O   ",
"  @ @ % ;   > 3 5 7   w i g z   n V A D J   ~ / ^ )   X. ...#.  o. .X.}   / / ! E   S F V n v   g t q q   5 3 > >   & @ @ O   ",
"  @ @ % ;   > 1 5 7   w i d v   m N F A I   ~ / ^ )   X. ...#.  o. . .{   / / ! E   S S V n v   h i q w   5 3 > ,   % # @ +   ",
"  @ @ & ;   > 3 5 7   w i d v   m N A F L   Q / ^ )    . ...#.  o. .X.}   / / ! E   S S V n z   h t q q   5 3 > ,   % @ @ .   ",
"  @ @ & ;   , 3 5 7   w i d c   n N A D L   Q / ^ )   X.| ..#.  o.|  .}   ( / ! E   S S V n v   a i q q   5 3 > >   & @ # .   ",
"  @ @ & ;   > 3 5 7   q i d v   m B A F L   ~ / ^ )   X. ...#.  o. .X.}   / / ! E   K F V n z   h i w w   5 3 , ,   & @ # .   ",
"  @ @ & ;   , 3 5 7   w t g v   n V D D L   ~ / ^ )    .....#.  o. . .}   / / Q R   S F V n z   h i q q   5 3 , >   & # @ .   ",
"  @ @ & ;   , 3 5 0   w u g z   n V F D L   Q / ^ )   X.| ..#.  o. . .}   / / Q E   S F V n v   h i q q   5 3 , ,   & @ @ .   ",
"  @ # & ;   , 3 5 7   q i g z   n V F D L   Q / / )    . ...#.  o. . .}   ( / Q R   S F V n z   h i q q   5 3 > >   & @ @ O   ",
"  @ # & ;   , 3 5 8   w i g v   m V D F L   Q / ^ '    . ...#.  o. . .{   ( / ! R   S S V n v   a a q q   5 3 > ,   & @ @ O   ",
"  @ @ & ;   , 3 5 0   w y g v   m V A D L   Q / / (   X. ...#.  o. . .}   / / ! E   F F V n v   h i r q   5 3 , ,   & @ @ O   ",
"  @ @ & ;   , 3 5 7   w y d v   m V S D L   ~ / / _    .| ..#.  o. .X.}   ( / W E   F F V n z   h i q q   5 3 , >   & @ @ O   ",
"  @ @ & ;   , 3 5 7   w i g z   n V D D L   ~ / / '   X. ...#.  o. . .}   ( / ! E   S F V n v   g p q w   5 3 > >   & @ @ O   ",
"  @ @ % ;   , 3 5 0   w i g v   n V D F L   ~ / / '    . ...#.  o. . .}   / / ! E   S S V n z   g p q q   5 3 > ,   & # @ O   ",
"  @ @ % ;   , 3 5 7   w i d v   b V F D L   Q / / '    . ...#.  o.[ X.}   ( / ! R   F F V n z   g p q q   5 3 , ,   % @ @ .   ",
"  @ @ & ;   , 3 5 7   q i g v   n V D D L   Q / / '   X. ...#.  o. . .}   / / ! R   F F V n v   g p q q   5 3 > >   % @ @ .   ",
"  @ @ & ;   > 3 5 7   w i g z   n V F D L   Q / / '   X. ...@.  .. . .}   ( / W E   S F V n z   g p q q   5 3 , ,   & @ @ O   ",
"  @ @ & ;   > 3 5 0   q i g v   n V D F L   Q / ^ '    .| ..#.  o. .X.}   / / ! E   F F V n v   g p q q   5 3 , ,   & @ @ O   ",
"  @ @ & ;   , 3 5 7   e i d v   n N S D L   Q / / '   X. ...#.  o. . .}   / / Q R   F F V n v   h i q q   5 3 > >   & @ # O   ",
"  @ @ & ;   , 3 5 7   w i d v   n N D F L   Q / ^ '   X. ...#.  o. . .}   ( / W E   F F V n v   h t q q   5 3 , ,   % @ @ .   ",
"  @ # & ;   , 3 5 0   w i g c   n N D F L   ~ / ^ )    .| ..#.  o. . .}   / / W E   F F V n z   h i w q   5 3 , ,   & @ @ X   ",
"  @ # & ;   , 3 5 0   e i d v   n V D D L   ~ / ^ )   .. ...@.  o. . .{   / / W E   F F V n z   h i q w   5 3 , ,   % @ @ .   ",
"  @ @ & ;   , 3 5 7   w i d c   m V F D J   Q / ^ )    . ...@.  o. .X.}   / / ! E   S F V n v   h i w q   5 3 , >   % @ @ O   ",
"  @ @ & ;   , 3 5 0   w i j z   n V D D J   Q / / )   X.| ..@.  o. . .}   ( / ! E   S F V n v   a i q q   5 3 , >   & @ # .   ",
"  @ @ & ;   , 3 5 7   e i d v   n V F D J   ~ / ^ )   X. ...@.  o.|  .}   ( / ! E   F S V n z   h i q q   5 3 > >   & # @ X   ",
"  @ @ % ;   > 3 5 7   e i d v   n V D F G   ~ / ^ )    . ...@.  o. .X.}   / / Q E   F S B n v   h i q w   5 3 > ,   % @ @ .   ",
"  @ @ % ;   > 1 5 0   w i d v   m V D D G   ~ / / (    . ...@.  o. . .}   / / ! E   S S V n z   a i q q   5 3 , ,   & # # O   ",
"  @ @ & ;   > 3 5 8   e i d v   m B D D L   Q / / '   X. ...#.  X. .X.{   ( _ ! E   F S V n v   h i w q   5 3 > >   & # @ X   ",
"  @ @ & ;   , 3 4 0   e i d v   m V D D L   Q / / '   X. ...#.  o. . .}   ( / ~ E   S F V n z   h i q r   5 3 , >   % @ @ O   ",
"  @ @ & ;   , 3 4 0   w i d v   m V D D L   Q / / '    . ...#.  o. .X.}   / / T E   F F V n v   h i q q   5 1 > >   & @ # X   ",
"  @ @ & ;   , 3 5 0   w i g z   m B D D G   Q / ^ )    .| ..#.  o. . .}   / _ E E   S F V n v   a i w w   5 3 , >   & # @ X   ",
"  @ @ & ;   , 3 5 7   w i g v   m B D D G   Q _ ^ '   o. ...#.  o. . .{   ( / ! E   F F V n v   h i q q   5 3 > ,   % # @ O   ",
"  @ # & ;   , 3 5 0   e i g v   m M D F G   ~ / / )    . ...#.  o. .X.}   ( / ! E   F F V n z   h i q q   5 3 > ,   % # @ .   ",
"  @ # & ;   , 3 5 0   e i g v   n M D D G   ~ / ^ )    . ...#.  o. . .}   ( / ! R   F F V n z   h i w w   5 3 , ,   % @ @ .   ",
"  @ @ & ;   , 3 5 0   w i g v   n V D F L   ~ / ^ )    . ...#.  o. . .}   / / ! E   F F V n v   h t q q   5 3 , ,   & @ @ O   ",
"  @ @ & ;   , 3 5 0   w i g z   n V D D L   ~ / ^ )   X. ...#.  o. . .{   ( _ E R   F F V n z   h t q q   5 3 , ,   & @ @ .   ",
"  @ @ & ;   , 3 5 7   w i g v   n N D D G   Q / ^ )   X. ...#.  o. . .}   / / ! R   F F V n v   h a q q   5 3 > >   & # @ .   ",
"  @ @ % ;   , 3 5 7   w i d v   n V D F G   ~ / / )    . ...#.  o. . .}   ( / ! R   F F V n z   h i r q   5 3 > ,   & @ @ .   ",
"  @ @ % ;   , 3 5 7   w y d z   b N S D J   Q / ^ )    .| ..#.  o. . .}   / / ! R   S F V n z   h t q w   5 3 > ,   % # @ .   ",
"  @ @ % ;   > 3 5 7   w i d v   n N D D J   Q / ^ )   X. ...#.  o. . .}   ( / ! R   F F V n v   g t q q   5 1 > >   % @ # .   ",
"  @ @ & ;   > 3 5 7   w i g v   n V F D J   ~ / / )    . ...#.  o. .X.}   ( / ! E   S F V n z   g p e q   5 3 , ,   & @ @ X   ",
"  @ @ & ;   , 3 5 7   w i d v   n V D D J   ~ / ^ )   .. ...#.  o. .X.}   / / ! E   S F V n v   g p q q   5 3 , ,   & @ @ O   ",
"  @ @ & ;   , 3 5 7   w i g z   m V A A J   ~ / / '   X. . .#.  o. . .}   / / ! R   F F V n v   d t q q   5 3 > ,   % @ @ O   ",
"  @ @ & ;   , 3 5 7   w i g v   m V A F J   Q / ^ '   X. ...#.  o. . .}   ( / ! R   F F N n v   a i q w   5 3 > ,   % @ @ O   ",
"  @ @ & ;   , 3 5 7   q i g z   n V F A J   Q / / '    .| ..#.  o. . .}   / ~ W E   F F M n v   h a q w   5 3 > ,   % @ @ .   ",
"  @ # & ;   > 3 5 7   q i g v   n A A F J   Q / / '    . ...#.  o. . .}   ( / ! E   S S V n z   a i w e   5 3 > >   & @ # .   ",
"  @ @ & ;   , 3 5 0   w i g v   n V D D G   Q / / '    .| ..@.  o. . .}   / / Q R   S S V x v   k a q q   5 3 , ,   % # @ +   ",
"  @ @ & ;   , 3 5 7   w i g v   m V D D G   Q / / '   o.....@.  o. . .}   ( / Q E   S F V M v   h i q q   5 3 , ,   % @ @ O   ",
"  @ @ % ;   > 3 4 0   w i g v   n V F D J   W / / '    . ...#.  o. . .[   ( ^ W R   F F V n k   a i q w   5 3 > >   & @ @ X   ",
"  @ @ % ;   > 2 4 7   w i g v   n N D F J   Q ^ ^ '    . ...#.  o. . .[   / ^ W R   F F V n z   g y w q   5 3 > >   % @ @ O   ",
"  @ @ % ;   > 1 5 7   w i d z   n V D F L   ! / / '    . ...+.  o. . .{   / / W R   S F M M z   g i q q   5 1 > ,   & @ @ X   ",
"  @ @ % ;   > 3 5 7   e i d c   n V D F L   Q / / '    . ...#.  o. . .[   ( / W R   F F M m z   h i q q   5 2 > ,   & @ @ X   ",
"  @ @ & ;   > 3 5 7   w i d v   n V A F L   Q / ^ )    . ...#.  o. . .[   / / W R   F F M n v   h i q q   5 2 > ,   & @ @ X   ",
"  @ @ & ;   > 3 5 7   w i d v   m N F F L   ~ / / )   X. .o.#.  o. .X.[   ( / Q E   F F V n v   h u q q   5 3 > ,   & @ @ .   ",
"  # # & ;   , 3 5 0   w a h v   m N S S L   ~ ( / '   X.X.o.#.  o.X.X.[   ( ( Q R   G N N b v   a t w w   5 3 , ,   & @ # .   ",
"                                                                                                                              ",
"O @ @ & ; , , 3 5 7 r q i a v v b N S G L E ~ ( ( ' [ X. ...+.#.o.o.o. .[ ' ^ / ~ E R F Z N m k c k a w w 0 5 3 , , ; % @ # X ",
". @ # & ; > > 3 5 6 q r i h z z n N S S L Y Q _ ^ / ' |  . .o..... . .{ ) ^ ^ / W E G S F V n z v d t w w 0 5 3 > , ; & # @ X ",
". @ @ & ; > > 2 2 4 8 e q y g z l x B C D H T T _ ^ _ ` |  .|  .| | | ` ` ^ ^ T T P D D B x j l d u 9 e 8 4 2 3 > > ; % @ @ X ",
"O # @ % = > > 2 2 4 8 r e t g z z x C C D H T T _ ^ ^ _ { ` ..| | ` { ` ^ ^ ^ T Y Y D D A x l l f u r 9 8 4 2 1 > > ; % @ @ X ",
"O o @ % % > > > 2 4 8 9 9 t f l l x B D D P P Y T _ ^ ^ _ _ { ` ` _ _ ^ ^ ^ T Y K P D D B M z l f u 9 9 8 4 1 > > > % @ @ X $.",
"$.o @ # % = : > 2 4 8 9 9 t g z l n n B D D P U ! T _ ^ ^ _ _ _ _ _ ^ ^ _ ^ T Y P D D B B x l z f y q q 6 4 1 > > = % @ @ o $.",
"$.O @ @ % = > : 1 4 8 e 9 i g g l l M B C C D P Y T ^ _ ^ ^ ^ ^ ^ ^ _ _ T ^ Y K F D K B x l z d f u q q 8 6 2 > > * % @ @ X $.",
"$.X @ @ & = > > 1 1 5 8 9 q u g z z l x B D D H I T T T T ^ ^ _ ^ ^ T T T T K P C F V x l l z f u 9 r 6 4 2 3 : : = % @ @ X $.",
"$.O X @ @ % = > : 1 5 8 9 r 9 u f z z n x B D D D H H Y Y ! T ! T T T Y P P D C D M B x z l f u 9 r q 6 4 1 > > ; % # @ O O $.",
"$.$.O @ @ $ = > : 1 1 5 8 9 9 u f f l l n B B D D D H H P Y T Y T T I P P D D D B B x l l f d u q 9 6 4 1 1 > : = % @ @ O $.$.",
"$.$.. @ @ % - = : > 1 4 8 6 q 9 u d z z l x x B D C D D D I P P K P D D D D D B M x l l l d u e 9 8 8 4 2 : > = = % @ @ + $.$.",
"$.$.. X @ @ % - > : > 2 4 6 9 9 q u d z l l x M M B D D D A A A D D D D D B B x x l z z f u 9 r r 6 4 1 : > > = % @ @ X X $.$.",
"$.$.$.X @ @ @ % = > : 2 1 4 6 r 9 u u d l l l l M x B V B D D F D A B V B x x l l z z g u u 9 9 6 4 2 2 : > * % @ @ @ o $.$.$.",
"$.$.$.X X @ @ % = = > > 1 5 6 6 e r u u f f l l j x x x x B B B A x B x x x l l k d d u u 9 r 6 6 6 2 > > = = % @ @ O X $.$.$.",
"$.$.$.$.. @ @ @ % = : > : 2 4 6 q q q 9 u d d z l l z z l x x x x x l x z l l z d s y 9 e 9 e 8 4 2 : > > = % @ @ @ . $.$.$.$.",
"$.$.$.$.$.. # @ @ % = > > 2 1 4 6 8 9 q 9 u u d d z l z l l z l l l l l l z f f u y 9 r e 8 7 4 2 3 : > = $ @ @ @ X $.$.$.$.$.",
"$.$.$.$.$.X @ # @ $ = = > > 2 2 4 6 6 r 9 9 q u d d d d f z z z l l f j d d d y q e q q 6 8 5 2 2 : : = = $ @ @ @ X $.$.$.$.$.",
"$.$.$.$.$.$.X # # @ % = > > > 2 2 4 4 8 8 9 e r i u u u u f f d f f t u u u u 9 q 9 6 6 5 4 2 2 : : > = % @ @ @ X $.$.$.$.$.$.",
"$.$.$.$.$.$.$.X @ @ @ % = : : : : 2 2 6 6 6 9 9 9 9 9 9 9 u u u t u 9 e 9 9 e e 9 8 8 4 1 1 > > > > = % # @ # o $.$.$.$.$.$.$.",
"$.$.$.$.$.$.$.$.O @ @ & % = = : > : 2 2 4 4 8 8 r 9 q 9 9 r 9 9 9 9 e 9 e 9 8 7 6 4 5 1 1 : > > = = % % # # o $.$.$.$.$.$.$.$.",
"$.$.$.$.$.$.$.$.o X @ @ @ $ $ * > > : > 2 4 4 4 8 8 8 8 8 q 9 q e 9 8 8 8 8 8 5 6 4 3 > > > > = % $ @ @ @ O o $.$.$.$.$.$.$.$.",
"$.$.$.$.$.$.$.$.$.X X @ @ @ % $ ; = > > : 2 1 1 4 4 4 4 5 8 8 6 8 8 5 4 4 4 4 1 2 2 : > > = = % $ # # # + + $.$.$.$.$.$.$.$.$.",
"$.$.$.$.$.$.$.$.$.$.o X @ @ @ @ % ; ; : : : : 1 4 2 2 2 2 4 4 4 4 4 2 2 1 1 2 1 : > > : = = $ @ @ @ @ o + $.$.$.$.$.$.$.$.$.$.",
"$.$.$.$.$.$.$.$.$.$.#.$.o @ @ @ # % % = = > : > : : : 2 2 2 3 2 2 2 2 2 : : > : : > = = % $ # @ @ @ o $.$.$.$.$.$.$.$.$.$.$.$.",
"$.$.$.$.$.$.$.$.$.$.$.$.$.+ # # @ @ # $ = = = > > > > > > > > > > > > > > : > : = = * $ # $ @ @ @ . $.$.$.$.$.$.$.$.$.$.$.$.$.",
"$.$.$.$.$.$.$.$.$.$.$.$.$.$.O O # @ @ # % $ % = = = > > : > > : > > > > : * = = $ $ $ @ @ @ @ X . $.$.$.$.$.$.$.$.$.$.$.$.$.$.",
"$.$.$.$.$.$.$.$.$.$.$.$.$.$.$.$.O O @ # @ @ @ % % $ % = = = = = = = = = & % % % @ @ @ @ @ X X $.$.$.$.$.$.$.$.$.$.$.$.$.$.$.$.",
"$.$.$.$.$.$.$.$.$.$.$.$.$.$.$.$.$.X X X @ @ @ @ @ @ @ % $ $ % $ % % % % @ @ @ @ @ @ @ X X X $.$.$.$.$.$.$.$.$.$.$.$.$.$.$.$.$.",
"$.$.$.$.$.$.$.$.$.$.$.$.$.$.$.$.$.$.$.O O O O @ @ @ @ @ @ @ @ @ # @ # @ @ # @ @ X X X X $.$.$.$.$.$.$.$.$.$.$.$.$.$.$.$.$.$.$.",
"$.$.$.$.$.$.$.$.$.$.$.$.$.$.$.$.$.$.$.$.$.$.O O . X X @ @ @ @ @ @ @ @ # O O O O O $.$.$.$.$.$.$.$.$.$.$.$.$.$.$.$.$.$.$.$.$.$.",
"$.$.$.$.$.$.$.$.$.$.$.$.$.$.$.$.$.$.$.$.$.$.$.$.$.$.$.X X X X X o o O O $.$.$.$.$.$.$.$.$.$.$.$.$.$.$.$.$.$.$.$.$.$.$.$.$.$.$."
};
