/* XPM */
static char * screen_screen_icon1[] = {
"59 59 203 2",
"  	c None",
". 	c #000000",
"+ 	c #010000",
"@ 	c #000100",
"# 	c #020100",
"$ 	c #010100",
"% 	c #010200",
"& 	c #3B3C37",
"* 	c #3C3B37",
"= 	c #4B4A46",
"- 	c #595853",
"; 	c #65655D",
"> 	c #717169",
", 	c #7C7C72",
"' 	c #86867C",
") 	c #8E8E84",
"! 	c #98988C",
"~ 	c #A0A193",
"{ 	c #AAAB9D",
"] 	c #A9AA9C",
"^ 	c #B1B2A4",
"/ 	c #B8B9AB",
"( 	c #C0C1B1",
"_ 	c #C9C7BA",
": 	c #D0CEBF",
"< 	c #D5D6C6",
"[ 	c #DDDBCC",
"} 	c #E0E1D1",
"| 	c #E8E7D5",
"1 	c #EBECDA",
"2 	c #EEEDDB",
"3 	c #F2F3E1",
"4 	c #F9F8E6",
"5 	c #F8F9E7",
"6 	c #F4F3E1",
"7 	c #ECEDDB",
"8 	c #E6E7D5",
"9 	c #E2E0D1",
"0 	c #D7D5C6",
"a 	c #C7C8B8",
"b 	c #C0C1B3",
"c 	c #595951",
"d 	c #4B4A45",
"e 	c #3C3B36",
"f 	c #282826",
"g 	c #4B4B43",
"h 	c #65655B",
"i 	c #717165",
"j 	c #7C7C70",
"k 	c #7C7D6F",
"l 	c #858678",
"m 	c #8E8F81",
"n 	c #989989",
"o 	c #A0A191",
"p 	c #A9AA98",
"q 	c #A8A997",
"r 	c #B1B2A0",
"s 	c #B8BAA5",
"t 	c #C0C2AD",
"u 	c #C9C8B4",
"v 	c #CFCEBA",
"w 	c #D0CFBA",
"x 	c #D7D6C1",
"y 	c #DDDCC7",
"z 	c #E2E1CC",
"A 	c #E8E8D0",
"B 	c #EEEED6",
"C 	c #F4F4DC",
"D 	c #F9F9E1",
"E 	c #FAFAE2",
"F 	c #D0CFBB",
"G 	c #A0A18F",
"H 	c #98998B",
"I 	c #868779",
"J 	c #59594F",
"K 	c #3B3C36",
"L 	c #282924",
"M 	c #E3E2CD",
"N 	c #7D7D71",
"O 	c #3A3B36",
"P 	c #CFCEB9",
"Q 	c #D8D7C2",
"R 	c #4C4C44",
"S 	c #64645A",
"T 	c #3C3D38",
"U 	c #C1C3AE",
"V 	c #E7E7CF",
"W 	c #EDEDD5",
"X 	c #F3F3DB",
"Y 	c #BFC1AC",
"Z 	c #3A3B35",
"` 	c #AAAB99",
" .	c #EFEFD7",
"..	c #D6D5C0",
"+.	c #9FA08E",
"@.	c #9A988B",
"#.	c #908E81",
"$.	c #7B7B6F",
"%.	c #C8C7B3",
"&.	c #707064",
"*.	c #292A25",
"=.	c #717167",
"-.	c #86867A",
";.	c #8E8E82",
">.	c #A9AA9A",
",.	c #B1B2A2",
"'.	c #B8B9A9",
").	c #C0C1AF",
"!.	c #C9C8B6",
"~.	c #D0CFBD",
"{.	c #D7D6C2",
"].	c #DDDCCA",
"^.	c #E2E1CD",
"/.	c #E8E7D3",
"(.	c #EEEDD8",
"_.	c #EEEDD9",
":.	c #F4F3DE",
"<.	c #F9F8E4",
"[.	c #F9F8E3",
"}.	c #F4F3DF",
"|.	c #DDDCC8",
"1.	c #D7D6C4",
"2.	c #C7C8B6",
"3.	c #B8B9A7",
"4.	c #FFFFFA",
"5.	c #FFFFF6",
"6.	c #FFFFF8",
"7.	c #000200",
"8.	c #010300",
"9.	c #FFFFF4",
"0.	c #FFFFF3",
"a.	c #020300",
"b.	c #FFFFF1",
"c.	c #FFFFFD",
"d.	c #585953",
"e.	c #64655F",
"f.	c #6F706A",
"g.	c #7B7C74",
"h.	c #85877C",
"i.	c #8E8E86",
"j.	c #98988E",
"k.	c #9FA196",
"l.	c #A8AA9D",
"m.	c #A9A99F",
"n.	c #B1B1A5",
"o.	c #B7B9AC",
"p.	c #BFC1B4",
"q.	c #C7C7BB",
"r.	c #CECEC2",
"s.	c #D5D6C8",
"t.	c #DBDBCF",
"u.	c #E0E1D3",
"v.	c #E6E7D9",
"w.	c #ECEDDD",
"x.	c #ECEDDF",
"y.	c #F2F3E3",
"z.	c #F7F8EA",
"A.	c #F7F8E8",
"B.	c #F2F3E5",
"C.	c #DBDCCE",
"D.	c #D5D5C9",
"E.	c #C0C0B4",
"F.	c #B0B2A7",
"G.	c #A8AA9F",
"H.	c #9FA194",
"I.	c #989890",
"J.	c #85867E",
"K.	c #7C7C74",
"L.	c #3A3A38",
"M.	c #4D4A43",
"N.	c #7B7D6F",
"O.	c #858779",
"P.	c #9FA291",
"Q.	c #A8AB98",
"R.	c #B7BAA5",
"S.	c #A9AB96",
"T.	c #B0B3A0",
"U.	c #999A8A",
"V.	c #3B3A36",
"W.	c #A8A999",
"X.	c #AAAB9B",
"Y.	c #D6D5C1",
"Z.	c #EFEED9",
"`.	c #E7E6D2",
" +	c #D6D5C3",
".+	c #D1D0BE",
"++	c #B0B1A1",
"@+	c #858579",
"#+	c #5A5A52",
"$+	c #4A4B45",
"%+	c #64655D",
"&+	c #CFCFC3",
"*+	c #CDCDC1",
"=+	c #E7E8DA",
"-+	c #F3F4E4",
";+	c #D6D6CA",
">+	c #B8B8AC",
",+	c #B1B1A7",
"'+	c #A8A89E",
")+	c #97978D",
"!+	c #7A7B73",
"~+	c #7C7D75",
"{+	c #707169",
". . + + . . . @ @ @ @ @ @ @ @ @ @ @ + + # @ + @ + @ + @ # @ + @ $ @ + + + + # @ @ @ @ % @ @ % @ @ @ @ . + + + # . . . ",
". & * = - ; > , , ' ) ! ~ { ] ^ / ( _ : : < [ } | 1 2 3 4 5 6 7 2 8 9 [ 0 : : a b / ^ ] ] ~ ! ) ' , , > ; c d e & f . ",
"$ & e g c h i j k l m n o p q r s t u v w x y z A B B C D E C B B A z y x w F u t s r p p G H m I k j i h J g e K L . ",
". & e g c h i j k I m n o p p r s t u F w x y z A B B C D D C B B A M y x w F u t s r p p G H m I k N i h J g e K L . ",
". O e g c h i j k I m n o p p r s t u F w x y z A B B C D D C B B A z y x w F u t s r p p G H m I k j i h J d e K L . ",
". & e g c h i j k I m n o p p r s t u F P x y z A B B C D D C B B A z y Q w F u t s r p p G H m I k N i h J d e K L . ",
". & e R c S i j k I m n o p p r s t u F w x y z A B B C D D C B B A z y x w F u t s r p p G H m I k j i h J d e K L . ",
". & e g c h i j k I m n o p p r s t u F w x y z A B B C D D C B B A z y x w F u t s r p p G H m I k j i h J d e K L . ",
". & e g c h i j k I m n o p p r s t u F w x y z A B B C D D C B B A z y x w F u t s r p p G H m I k j i h J d e K L . ",
". & e g c h i j k I m n o p p r s t u F w x y z A B B C D D C B B A z y x w F u t s r p p G H m I k j i h J d e K L . ",
". & e g c h i j k I m n o p p r s t u F w x y z A B B C D D C B B A z y x w F u t s r p p G H m I k j i h J d e K L . ",
". & e g c h i j k I m n o p p r s t u F w x y z A B B C D D C B B A z y x w F u t s r p p G H m I k j i h J d e K L . ",
". & e g c h i j k I m n o p p r s t u F w x y z A B B C D D C B B A z y x w F u t s r p p G H m I k j i h J d e K L . ",
". & e g c h i j k I m n o p p r s t u F w x y z A B B C D D C B B A z y x w F u t s r p p G H m I k j i h J d e K L . ",
". & e g c h i j k I m n o p p r s t u F w x y z A B B C D D C B B A z y x w F u t s r p p G H m I k j i h J d e K L . ",
". & e g c h i j k I m n o p p r s t u F w x y z A B B C D D C B B A z y x w F u t s r p p G H m I k j i h J d e K L . ",
". & e g c h i j k I m n o p p r s t u F w x y z A B B C D D C B B A z y x w F u t s r p p G H m I k j i h J d e K L . ",
". & e g c h i j k I m n o p p r s t u F w x y z A B B C D D C B B A z y x w F u t s r p p G H m I k j i h J d e K L . ",
". & e g c h i j k I m n o p p r s t u F w x y z A B B C D D C B B A z y x w F u t s r p p G H m I k j i h J d e K L . ",
". & e g c h i j k I m n o p p r s t u F w x y z A B B C D D C B B A z y x w F u t s r p p G H m I k k i h J d e K L . ",
". & e g c h i j k I m n o p p r s t u F w x y z A B B C D D C B B A z y x w F u t s r p p G H m I k k i h J d e K L . ",
". & e g c h i j k I m n o p p r s t u F w x y z A B B C D D C B B A z y x w F u t s r p p G H m I k j i h J d e K L . ",
". & e g c h i j k I m n o p p r s t u F w x y z A B B C D D C B B A z y x w F u t s r p p G H m I k j i h c d e K L . ",
". T e g c h i j k I m n o p p r s U u F w x y z V B W X D D C B B A z y x w F u Y s r p p G H m I k j i h c d e K L . ",
". & e g c h i j k I m n o p p r s t u F w x y z A B B C D D C B B A z y Q w F u t s r p p G H m I k j i h c d e Z L . ",
". & e g c h i j k I m n o p ` r s U u F w x y M A B B C D D C B  .A z y ..w F u t s r p p +.@.#.I k j i S c d e K L . ",
"$ & e g c h i $.k I m n o p p r s t %.F w x y z A B B C D D C B  .A z y x w F u t s r p p G @.#.I k j i h J d e K L . ",
". & e g c h &.j k I m n o p p r s t u v w x y z A B B C D D C B B A z y x w v u t s r p p G H m I k j i h J d e K *.. ",
". & e d c h =.j j -.;.H ~ >.>.,.'.).!.~.~.{.].^./.(._.:.<.[.}.(._./.^.|.1.~.~.2.).3.,.>.>.o ! ;.-.j , =.h c d e & L . ",
". @ + 4.4.4.@ @ % 5.6.5.7.8.$ 9.9.9.$ $ $ 0.9.0.% % a.b.0.b.% % % 0.0.0.$ $ $ 9.9.9.7.7.7.9.6.6.@ % $ 6.6.4.+ + . c.. ",
". & e d d.e.f.g.g.h.i.j.k.l.m.n.o.p.q.r.r.s.t.u.v.w.x.y.z.A.B.w.x.v.u.C.D.r.r.q.E.o.F.G.l.H.I.i.J.g.K.> ; - = * L.f . ",
". & e d c h =.j j -.;.H ~ >.>.,.'.).!.~.~.{.].^./.(._.:.<.[.}.(._./.^.|.1.~.~.2.).3.,.>.>.o ! ;.-.j , =.h c d e & L . ",
". & e g c h i j k I m n o p p r s t u F w x y z A B B C D D C B B A z y x w F u t s r p p G H m I k j i h J d e K L . ",
". & e g c h i j k I m n o p p r s t u F w x y z A B B C D D C B B A z y x w F u t s r p p G H m I k j i h J d e K L . ",
". & e g c h i j k I m n o p p r s t u F w x y z A B B C D D C B B A z y x w F u t s r p p G H m I k j i h J d e K L . ",
". & e g c h i j k I m n o p p r s t u F w x y z A B B C D D C B B A z y x w F u t s r p p G H m I k j i h J d e K L . ",
". & e g c h i j k I m n o p p r s t u F w x y z A B B C D D C B B A z y x w F u t s r p p G H m I k j i h J d e K L . ",
". & e g c h i j k I m n o p p r s t u F w x y z A B B C D D C B B A z y x w F u t s r p p G H m I k j i h J d e K L . ",
". & e g c h i j k I m n o p p r s t u F w x y z A B B C D D C B B A z y x w F u t s r p p G H m I k j i h J d e K L . ",
". & e g c h i j k I m n o p p r s t u F w x y z A B B C D D C B B A z y x w F u t s r p p G H m I k j i h J d e K L . ",
". & e g c h i j k I m n o p p r s t u F w x y z A B B C D D C B B A z y x w F u t s r p p G H m I k j i h J d e K L . ",
". & e g c h i j k I m n o p p r s t u F w x y z A B B C D D C B B A z y x w F u t s r p p G H m I k j i h J d e K L . ",
". & e g c h i j k I m n o p p r s t u F w x y z A B B C D D C B B A z y x w F u t s r p p G H m I k j i h J d e K L . ",
". & e g c h i j k I m n o p p r s t u F w x y z A B B C D D C B B A z y x w F u t s r p p G H m I k j i h J d e K L . ",
". & e g c h i j k I m n o p p r s t u F w x y z A B B C D D C B B A z y x w F u t s r p p G H m I k j i h J d e K L . ",
". & e g c h i j k I m n o p p r s t u F w x y z A B B C D D C B B A z y x w F u t s r p p G H m I k j i h J d e K L . ",
". & e g c h i j k I m n o p p r s t u F w x y z A B B C D D C B B A z y x w F u t s r p p G n m I k j i h J d e K L . ",
". & e M.c h i k N.O.m n P.Q.p r R.t !.F w x y z A B B C D D C B B A z y x w F u t R.r p S.G n m I k j i h J d e K L . ",
". & e M.c h i k N.O.m n P.Q.p r R.t !.F w x y z A B B C D D C B B A z y x w F u t R.r p S.G n m I k j i h J d e K L . ",
". & e g c h i j k I m n o p p r s t u F w x y z A B B C D D C B B A z y x w F u t s r p p G n m -.j j i h J d e K L . ",
". & e g c h i j k I m n o p p r s t u F w x y z A B B C D D C B B A z y x w F u t s r p p G H m -.j j i h J d e K L . ",
". & e g c h i j k I m n o p Q.T.s t u F w x y z A B B C D D C B B A z y x w F u t s r p p G H m I k j i h J d e K L . ",
". & e g c h i j k I m n o p Q.T.s t u F w x y z A B B C D D C B B A z y x w F u t s r p p G H m I k j i h J d e K L . ",
". & e g c h i j j -.m n o p p r s t u F w x y z A B B C D D C B B A z y x w F u t s r p p G H m I k j i h J d e K L . ",
". & e g c h i j j -.m n o p p r s t u F w x y z A B B C D D C B B A z y x w F u t s r p p G H m I k j i h J d e K L . ",
". & e R c h i N k I m U.o p p r s t u F w x y z A B B C D D C B B A z y x w F u t s r p p G H m I k j &.h J d e K L . ",
". & V.d c S =., j -.;.H ~ W.X.,.'.).!.~.~.Y.].^./.Z._.:.<.[.}.(._.`.^.|. +~..+!.).3.++>.>.~ H ;.@+j , =.h #+d e K L . ",
". & & $+d.%+> K.g.J.) j.k.G.m.n.o.p.q.&+*+s.t.u.=+w.x.-+z.A.B.w.x.v.u.C.;+r.r.q.E.>+,+'+G.k.)+) J.!+~+{+%+d.$+& & L . ",
". . @ @ @ @ + + @ @ + + @ @ # + @ @ $ $ $ $ $ $ $ $ $ $ $ $ $ $ $ $ $ $ $ $ $ $ $ $ + + @ @ + @ @ @ @ @ @ @ @ @ . . . "};
