/* XPM */
static char * screen_screen_icon2[] = {
"118 118 4 1",
" 	c None",
".	c #000000",
"+	c #FFFFFF",
"@	c #FEFEFE",
"                             .                                                                                        ",
"                            .+.                                                                                       ",
"                           .+++.                                                                                      ",
"                          .+++++.                                                                                     ",
"                         .+++++++.                                                                                    ",
"                        .+++++++++.                                                                                   ",
"                       .+++++@+++++.                                                                                  ",
"                      .+++++++++++++.                                                                                 ",
"                     .+++++++++++@+++.                                                                                ",
"                    .+++++++++++++++++.                                                                               ",
"                   .+++++++++++++++++++.                                                                              ",
"                  .+++++++++++++++++++++.                                                                             ",
"                 .+++++++++++++++++++++++.                                                                            ",
"                .++++++++++@++++++++++++++.                                                                           ",
"               .+++++++++++++++++++++++++++.                                                                          ",
"              ..+++@++++++++++++++++++++++++.                                                                         ",
"             .++.++++++++++++++++++++++++++++.                                                                        ",
"            .++++.+++++++@++++++++++++++++++++.                                                                       ",
"           .+++++++++++++++++++++++++++++++++++.                                                                      ",
"          .++++++++++++++++@++++++++++++++++++++.                                                                     ",
"         .++++++++++++++@++++++++++++++++++++++++.                                                                    ",
"        .++++++++++++.++++++++++++++++++++++++++++.                                                                   ",
"       .++++++++++++++.++++++++++++++++++++++++++++.                                                                  ",
"      .++++++++++++++++.++++++++++++++++++++++++++++.                                                                 ",
"     .++++++++++@@+++++++@+++++++++++++++++++++++++++.                                                                ",
"    .+++++++++++++++++++++++@+++++++++++++++++++++++++.                                                               ",
"   .+++++++++++++++++++++++++++++@+++++++++++++++++++++.                                                              ",
"  .++++++++++++++++++++++++.++++++++++++++++++++++++++++.                                                             ",
" .++++++++++++++++++++++++++.++++++++++++++++++++++++++++.                                                            ",
".++++++++++@++++++++++++++++@.++++++++++++++++++++++++++++.                                                           ",
" .+++++++++++++++++++++++++++++++++++++++++++++++++++++++++.                                                          ",
"  .+++++++++++++++++@+++++++++++++++++++++++++++++++++++++++.                                                         ",
"   .++++++++++++++++++++++++++@++++++++++++++++++++++++++++++.                                                        ",
"    .++++++++++++++++++++++++++++.++++++++++++++++++++++++++++.                                                       ",
"     .++++++++++++++++++++++++++@+.++++++++++++++++++++++++++++.                                                      ",
"      .++++++++++++++++++++++++++++.++++++@+++++++++++++++++++++.                                                     ",
"       .+++++++++++++++++++++@++++@++++++++++++++++++++++++++++++.                                                    ",
"        .+++++++++++++++++++++++++++++++++++++++++++++++++++++++++.                                                   ",
"         .++++++++++++++++++++++++++@++++++++++++++++++++++++++++++.                                                  ",
"          .+++++++++++++++++++++@++++++.++++++++++++++++++++++++++++.                                                 ",
"           .++++++++++++++++@++++++++++@.++@+++++++++++++++++++++++++.                                                ",
"            .++++++++++++++++++++++++++++.+++++++@++++++++++++++++++++.                                               ",
"             .+++++++++++++++++++++++++++++++++++++++++++++++++++++++++.                                              ",
"              .++++++++++++++++++++++++++++++++++++@++++++++++++++++++++.                                             ",
"               .++++++++++++++++++++++++++++++++@++++++++++++++++++++++++.                                            ",
"                .+++++++++++++++++++++@++++++.++++++++++++++++++++++++++++.                                           ",
"                 .++++++++++++++++++++++++++++.++++++++++++++++++++++++++++.                                          ",
"                  .++++++++++++++++++++++++++++.++++++++++++++++++++++++++++.                                         ",
"                   .+++++++++++++++++++++++++++++@+++++++++++++++++++++++++++.                                        ",
"                    .+++++++++++++++++++++++++++++++@+++++++++++++++++++++++++.                                       ",
"                     .+++++++++++++++++++++++++++++++++++@+++++++++++++++++++++.                                      ",
"                      .++++++++++++++++++++++++++++.++++++++++++++++++++++++++++.                                     ",
"                       .++++++++++++++++++++++++++++.++++++++++++++++++++++++++++.                                    ",
"                        .+++++++++++++++++++++++++++@.++++++++++++++++++++++++++++.                                   ",
"                         .+++++++++++++++++++++++++++++++++++++++++++++++++++++++++.                                  ",
"                          .+++++++++++++++++@+++++++++++++++++++++++++++++++++++++++.                                 ",
"                           .++++++++++++++++++++++++++@++++++++++++++++++++++++++++++.                                ",
"                            .++++++++++++++++++++++++++++.++++++++++++++++++++++++++++.                               ",
"                             .++++++++++++++++++++++++++@+.++++++++++++++++++++++++++++.                              ",
"                              .++++++++++++++++++++++++++++.++++++@+++++++++++++++++++++.                             ",
"                               .+++++++++++++++++++++@++++@++++++++++++++++++++++++++++++.                            ",
"                                .+++++++++++++++++++++++++++++++++++++++++++++++++++++++++.                           ",
"                                 .++++++++++++++++++++++++++@++++++++++++++++++++++++++++++.                          ",
"                                  .+++++++++++++++++++++@++++++.++++++++++++++++++++++++++++.                         ",
"                                   .++++++++++++++++@++++++++++@.++@+++++++++++++++++++++++++.                        ",
"                                    .++++++++++++++++++++++++++++.+++++++@++++++++++++++++++++.                       ",
"                                     .+++++++++++++++++++++++++++++++++++++++++++++++++++++++++.                      ",
"                                      .++++++++++++++++++++++++++++++++++++@++++++++++++++++++++.                     ",
"                                       .++++++++++++++++++++++++++++++++@++++++++++++++++++++++++.                    ",
"                                        .+++++++++++++++++++++@++++++.++++++++++++++++++++++++++++.                   ",
"                                         .++++++++++++++++++++++++++++.++++++++++++++++++++++++++++.                  ",
"                                          .++++++++++++++++++++++++++++.++++++++++++++++++++++++++++.                 ",
"                                           .+++++++++++++++++++++++++++++@+++++++++++++++++++++++++++.                ",
"                                            .+++++++++++++++++++++++++++++++@+++++++++++++++++++++++++.               ",
"                                             .+++++++++++++++++++++++++++++++++++@+++++++++++++++++++++.              ",
"                                              .++++++++++++++++++++++++++++.++++++++++++++++++++++++++++.             ",
"                                               .++++++++++++++++++++++++++++.++++++++++++++++++++++++++++.            ",
"                                                .+++++++++++++++++++++++++++@.++++++++++++++++++++++++++++.           ",
"                                                 .+++++++++++++++++++++++++++++++++++++++++++++++++++++++++.          ",
"                                                  .+++++++++++++++++@+++++++++++++++++++++++++++++++++++++++.         ",
"                                                   .++++++++++++++++++++++++++@++++++++++++++++++++++++++++++.        ",
"                                                    .++++++++++++++++++++++++++++.++++++++++++++++++++++++++++.       ",
"                                                     .++++++++++++++++++++++++++@+.++++++++++++++++++++++++++++.      ",
"                                                      .++++++++++++++++++++++++++++.++++++@+++++++++++++++++++++.     ",
"                                                       .+++++++++++++++++++++@++++@++++++++++++++++++++++++++++++.    ",
"                                                        .+++++++++++++++++++++++++++++++++++++++++++++++++++++++++.   ",
"                                                         .++++++++++++++++++++++++++@++++++++++++++++++++++++++++++.  ",
"                                                          .+++++++++++++++++++++@++++++.++++++++++++++++++++++++++++. ",
"                                                           .++++++++++++++++@++++++++++@.++@+++++++++++++++++++++++++.",
"                                                            .++++++++++++++++++++++++++++.+++++++@+++++++++++++@++++. ",
"                                                             .+++++++++++++++++++++++++++++++++++++++++++++++++++++.  ",
"                                                              .++++++++++++++++++++++++++++++++++++@+++++++++++@@+.   ",
"                                                               .++++++++++++++++++++++++++++++++@+++++++++++++@++.    ",
"                                                                .+++++++++++++++++++++@++++++.++++++++++++++++@+.     ",
"                                                                 .++++++++++++++++++++++++++++.++++++++++++++++.      ",
"                                                                  .++++++++++++++++++++++++++++.++++++++++++++.       ",
"                                                                   .+++++++++++++++++++++++++++++@+++++++++++.        ",
"                                                                    .+++++++++++++++++++++++++++++++++++++@+.         ",
"                                                                     .+++++++++++++++++++++++++++++++++++++.          ",
"                                                                      .++++++++++++++++++++++++++++.++++++.           ",
"                                                                       .++++++++++++++++++++++++++++.++++.            ",
"                                                                        .++++++++++++++++++++++++++++.++.             ",
"                                                                         .+++++++++++++++++++++++++++++.              ",
"                                                                          .+++++++++++++++++@+++++++++.               ",
"                                                                           .+++++++++++++++++++++++++.                ",
"                                                                            .++++++++++++++++++@++++.                 ",
"                                                                             .+++++++++++++++++++++.                  ",
"                                                                              .++++++++++++++++@@+.                   ",
"                                                                               .++++++++++++++@++.                    ",
"                                                                                .+++++++++++++@+.                     ",
"                                                                                 .+++++++++++++.                      ",
"                                                                                  .+++++++++++.                       ",
"                                                                                   .+++++++++.                        ",
"                                                                                    .+++++++.                         ",
"                                                                                     .@++++.                          ",
"                                                                                      .+++.                           ",
"                                                                                       .+.                            ",
"                                                                                        .                             "};
