/* XPM */
static char * selector_selector_heat[] = {
"89 90 24 1",
" 	c None",
".	c #C7C7C7",
"+	c #8C8C8C",
"@	c #000000",
"#	c #FFFFFF",
"$	c #D0D0D0",
"%	c #4D4D4D",
"&	c #D9D9D9",
"*	c #FEFEFE",
"=	c #E1E1E1",
"-	c #BEBEBE",
";	c #686868",
">	c #7C7C7C",
",	c #B2B2B2",
"'	c #9A9A9A",
")	c #010101",
"!	c #F0F0F0",
"~	c #BDBDBD",
"{	c #999999",
"]	c #DADADA",
"^	c #A8A8A8",
"/	c #696969",
"(	c #A7A7A7",
"_	c #C6C6C6",
"         .+@@@+.                                                                         ",
"@@@@@@@@@@@@@@@@@@@@@@@@@@@@@@@@@@@@@@@@@@@@@@@@@@@@@@@@@@@@@@@@@@@@@@@@@@@@@@@@@@@@@@@@@",
"@#####$%&#######$@$*####################################################################@",
"@####=@.#########-@&####################################################################@",
"@####;>###########;;####################################################################@",
"@###$@.###########,@$###################################################################@",
"@###'@=###########=@'###################################################################@",
"@###;@#############@;###################################################################@",
"@*##@@#############@@###################################################################@",
"@###@@#############@@###################################################################@",
"@###@@#############@%###################################################################@",
"@###+)=###########=@'###################################################################@",
"@###.@,#######*###.@$###################################################################@",
")###!@;###*#######>;####################################################################@",
"@###*~@~*########.@=####################################################################@",
"@#####>@$#######&%$#####################################################################@",
"@#####*'@{]###&^;=######################################################################@",
"@#######=+@@@@/.########################################################################@",
"@#########$@@@$*########################################################################@",
"@##########&%@@$########################################################################@",
"@############(@@~#######################################################################@",
"@##########**#=(@;_=####################################################################@",
"@###############*$'>@###################################################################@",
"@#######################################################################################@",
"@######################################*################################################@",
"@################################################*######################################@",
"@#######################################################################################@",
"@#######################################################################################@",
"@#######################################################################################@",
"@#######################################################################################@",
"@#######################################################################################@",
"@#######################################################################################@",
"@#######################################################################################@",
"@#######################################################################################@",
"@#######################################################################################@",
"@#######################################################################################@",
"@#######################################################################################@",
"@#######################################################################################@",
"@#######################################################################################@",
"@#######################################################################################@",
"@#######################################################################################@",
"@#######################################################################################@",
"@#######################################################################################@",
"@#######################################################################################@",
"@#######################################################################################@",
"@#######################################################################################@",
"@#######################################################################################@",
"@#######################################################################################@",
"@#######################################################################################@",
"@#######################################################################################@",
"@#######################################################################################@",
"@#######################################################################################@",
"@#######################################################################################@",
"@#######################################################################################@",
"@#######################################################################################@",
"@#######################################################################################@",
"@#######################################################################################@",
"@#######################################################################################@",
"@#######################################################################################@",
"@#######################################################################################@",
"@#######################################################################################@",
"@#######################################################################################@",
"@#######################################################################################@",
"@#######################################################################################@",
"@#######################################################################################@",
"@#######################################################################################@",
"@#######################################################################################@",
"@#######################################################################################@",
"@#######################################################################################@",
"@#######################################################################################@",
"@#######################################################################################@",
"@#######################################################################################@",
"@###############*#########*#########*########*####*#####*###############################@",
"@########*##############################################################################@",
"@#########*###@@@#@#@@@@@@#@@@*###@@@@@@###@@@#@#@@@@@@@###@@@@###@@@@@@################@",
"@#####*######@###@@##@###@##@######@###@##@###@@#@##@##@##@####@###@####@###############@",
"@############@####@#*@#*####@######@#####@#####@####@####@######@##@####@###############@",
"@#########*###@@#####@##@###@##*###@##@##@#####*####@####@######@##@####@###############@",
"@###############@@##*@@@@###@####*#@@@@##@##########@####@######)*#@@@@@################@",
"@#################@##@##@###@#*####@##@#*@##########@####@######@##@##@##*##############@",
"@############@####@##@######@######@#####@#*###@*###@####@######@##@###@################@",
"@########*###@@###@##@#*##@#@####@#@####@#@###@#####@#####@####@###@###@###*############@",
"@##########*#@#@@@##@@@@@@#@@@@@@#@@@@@@###@@@####*@@@#####@@@@###@@)###@@##############@",
"@#########*##############################################*###*######**######*###########@",
"@#####*############################*####################################################@",
"@#################################*#####################################################@",
"@#######################*##################*#*##########################################@",
"@##*####################################################################################@",
"@#######################################################################################@",
"@@@@@@@@@@@@@@@@@@@@@@@@@@@@@@@@@@@@@@@@@@@@@@@@@@@@@@@@@@@@@@@@@@@@@@@@@@@@@@@@@@@@@@@@@"};
