/* XPM */
static char *selector_selector_heat[] = {
/* columns rows colors chars-per-pixel */
"95 96 38 1",
"  c black",
". c #010101",
"X c #020202",
"o c #4C4C4C",
"O c gray30",
"+ c #4E4E4E",
"@ c #676767",
"# c #686868",
"$ c DimGray",
"% c #7C7C7C",
"& c gray49",
"* c gray55",
"= c gray60",
"- c #9A9A9A",
"; c #9B9B9B",
": c #A7A7A7",
"> c gray66",
", c #B1B1B1",
"< c #B2B2B2",
"1 c gray70",
"2 c gray74",
"3 c #D0D0D0",
"4 c gray82",
"5 c #D2D2D2",
"6 c #D8D8D8",
"7 c gray85",
"8 c #DADADA",
"9 c gray88",
"0 c #E1E1E1",
"q c #E2E2E2",
"w c #E9E9E9",
"e c #EAEAEA",
"r c #EFEFEF",
"t c gray94",
"y c #F1F1F1",
"u c #FDFDFD",
"i c #FEFEFE",
"p c gray100",
/* pixels */
"ppppppppp0:#  #;8pppppppppppppppppppppppppppppppppppppppppppppppppppppppppppppppppppppppppppppp",
"                                                                                               ",
" pppppwO2pppppppp:owpppppppppppppppppppppppppppppppppppppppppppppppppppppppppppppppppppppppppp ",
" pppppO:pppppppppp;Oyppppppppppppppppppppppppppppppppppppppppppppppppppppppppppppppppppppppppp ",
" pppp;Opppppppppppy *ppppppppppppppppppppppppppppppppppppppppppppppppppppppppppppppppppppppppp ",
" pppw ,pppppppppppp: wpppppppppppppppppppppppppppppppppppppppppppppppppppppppppppppppppppppppp ",
" ppp, 0pppppppppppp4 ,pppppppppppppppppppppppppppppppppppppppppppppppppppppppppppppppppppppppp ",
" ppp& yppppppppppppw *pppppppppppppppppppppppppppppppppppppppppppppppppppppppppppppppppppppppp ",
" ppp  pppppppppppppp  pppppppppppppppppppppppppppppppppppppppppppppppppppppppppppppppppppppppp ",
" ppp  pppppppppppppp  pppppppppppppppppppppppppppppppppppppppppppppppppppppppppppppppppppppppp ",
" ppp  pppppppppppppp  pppppppppppppppppppppppppppppppppppppppppppppppppppppppppppppppppppppppp ",
" ppp& wppppppppppppp #pppppppppppppppppppppppppppppppppppppppppppppppppppppppppppppppppppppppp ",
" ppp: 8ppppppppppppq ;pppppppppppppppppppppppppppppppppppppppppppppppppppppppppppppppppppppppp ",
" ppp8 :pppppppppppp> 4pppppppppppppppppppppppppppppppppppppppppppppppppppppppppppppppppppppppp ",
" pppp% rpppppppppppO@ppppppppppppppppppppppppppppppppppppppppppppppppppppppppppppppppppppppppp ",
" ppppwO;pppppppppp: 8ppppppppppppppppppppppppppppppppppppppppppppppppppppppppppppppppppppppppp ",
" ppppp4o:pppppppp: :pppppppppppppppppppppppppppppppppppppppppppppppppppppppppppppppppppppppppp ",
" ppppppw&@4rppy4@ :ppppppppppppppppppppppppppppppppppppppppppppppppppppppppppppppppppppppppppp ",
" pppppppp3%     &8pppppupppppppppppppppppppppppppppppppppppppppppppppppppppppppppppppppppppppp ",
" pppppppppp3    8pppppuppppppppppppppppppppppppppppppppppppppppppppppppppppppppppppppppppppppp ",
" ppppppppppp8O  Owppuppppppppppppppppppppppppppppppppppppppppppppppppppppppppppppppppppppppppp ",
" ppppppppppppp:  O0pppuppppppppppppppppppppppppppppppppppppppppppppppppppppppppppppppppppppppp ",
" pppppppppppppp0:  :6ppppppppppppppppppppppppppppppppppppppppppppppppppppppppppppppppppppppppp ",
" ppppppppppppppppp3;% pppppppppppppppppppppppppppppppppppppppppppppppppppppppppppppppppppppppp ",
" ppppppppppppppppppppppppppppppppppppppppppppppppppppppppppppppppppppppppppppppppppppppppppppp ",
" ppppppppppppppppppppppppppppppppppppppppppppppppppppppppppppppppppppppppppppppppppppppppppppp ",
" ppppppppppppppppppppppppppppppppppppppppppppppppppppppppppppppppppppppppppppppppppppppppppppp ",
" ppppppppppppppppppppppppppppppppppppppppppppppppppppppppppppppppppppppppppppppppppppppppppppp ",
" ppppppppppppppppppppppppppppppppppppppppppppppppppppppppppppppppppppppppppppppppppppppppppppp ",
" ppppppppppppppppppppppppppppppppppppppppppppppppppppppppppppppppppppppppppppppppppppppppppppp ",
" ppppppppppppppppppppppppppppppppppppppppppppppppppppppppppppppppppppppppppppppppppppppppppppp ",
" ppppppppppppppppppppppppppppppppppppppppppppppppppppppppppppppppppppppppppppppppppppppppppppp ",
" ppppppppppppppppppppppppppppppppppppppppppppppppppppppppppppppppppppppppppppppppppppppppppppp ",
" ppppppppppppppppppppppppppppppppppppppppppppppppppppppppppppppppppppppppppppppppppppppppppppp ",
" ppppppppppppppppppppppppppppppppppppppppppppppppppppppppppppppppppppppppppppppppppppppppppppp ",
" ppppppppppppppppppppppppppppppppppppppppppppppppppppppppppppppppppppppppppppppppppppppppppppp ",
" ppppppppppppppppppppppppppppppppppppppppppppppppppppppppppppppppppppppppppppppppppppppppppppp ",
" ppppppppppppppppppppppppppppppppppppppppppppppppppppppppppppppppppppppppppppppppppppppppppppp ",
" ppppppppppppppppppppppppppppppppppppppppppppppppppppppppppppppppppppppppppppppppppppppppppppp ",
" ppppppppppppppppppppppppppppppppppppppppppppppppppppppppppppppppppppppppppppppppppppppppppppp ",
" ppppppppppppppppppppppppppppppppppppppppppppppppppppppppppppppppppppppppppppppppppppppppppppp ",
" ppppppppppppppppppppppppppppppppppppppppppppppppppppppppppppppppppppppppppppppppppppppppppppp ",
" ppppppppppppppppppppppppppppppppppppppppppppppppppppppppppppppppppppppppppppppppppppppppppppp ",
" ppppppppppppppppppppppppppppppppppppppppppppppppppppppppppppppppppppppppppppppppppppppppppppp ",
" ppppppppppppppppppppppppppppppppppppppppppppppppppppppppppppppppppppppppppppppppppppppppppppp ",
" ppppppppppppppppppppppppppppppppppppppppppppppppppppppppppppppppppppppppppppppppppppppppppppp ",
" ppppppppppppppppppppppppppppppppppppppppppppppppppppppppppppppppppppppppppppppppppppppppppppp ",
" ppppppppppppppppppppppppppppppppppppppppppppppppppppppppppppppppppppppppppppppppppppppppppppp ",
" ppppppppppppppppppppppppppppppppppppppppppppppppppppppppppppppppppppppppppppppppppppppppppppp ",
" ppppppppppppppppppppppppppppppppppppppppppppppppppppppppppppppppppppppppppppppppppppppppppppp ",
" ppppppppppppppppppppppppppppppppppppppppppppppppppppppppppppppppppppppppppppppppppppppppppppp ",
" ppppppppppppppppppppppppppppppppppppppppppppppppppppppppppppppppppppppppppppppppppppppppppppp ",
" ppppppppppppppppppppppppppppppppppppppppppppppppppppppppppppppppppppppppppppppppppppppppppppp ",
" ppppppppppppppppppppppppppppppppppppppppppppppppppppppppppppppppppppppppppppppppppppppppppppp ",
" ppppppppppppppppppppppppppppppppppppppppppppppppppppppppppppppppppppppppppppppppppppppppppppp ",
" ppppppppppppppppppppppppppppppppppppppppppppppppppppppppppppppppppppppppppppppppppppppppppppp ",
" ppppppppppppppppppppppppppppppppppppppppppppppppppppppppppppppppppppppppppppppppppppppppppppp ",
" ppppppppppppppppppppppppppppppppppppppppppppppppppppppppppppppppppppppppppppppppppppppppppppp ",
" ppppppppppppppppppppppppppppppppppppppppppppppppppppppppppppppppppppppppppppppppppppppppppppp ",
" ppppppppppppppppppppppppppppppppppppppppppppppppppppppppppppppppppppppppppppppppppppppppppppp ",
" ppppppppppppppppppppppppppppppppppppppppppppppppppppppppppppppppppppppppppppppppppppppppppppp ",
" ppppppppppppppppppppppppppppppppppppppppppppppppppppppppppppppppppppppppppppppppppppppppppppp ",
" ppppppppppppppppppppppppppppppppppppppppppppppppppppppppppppppppppppppppppppppppppppppppppppp ",
" ppppppppppppppppppppppppppppppppppppppppppppppppppppppppppppppppppppppppppppppppppppppppppppp ",
" ppppppppppppppppppppppppppppppppppppppppppppppppppppppppppppppppppppppppppppppppppppppppppppp ",
" ppppppppppppppppppppppppppppppppppppppppppppppppppppppppppppppppppppppppppppppppppppppppppppp ",
" ppppppppppppppppppppppppppppppppppppppppppppppppppppppppppppppppppppppppppppppppppppppppppppp ",
" ppppppppppppppppppppppppppppppppppppppppppppppppppppppppppppppppppppppppppppppppppppppppppppp ",
" ppppppppppppppppppppppppppppppppppppppppppppppppppppppppppppppppppppppppppppppppppppppppppppp ",
" ppppppppppppppppppppppppppppppppppppppppppppppppppppppppppppppppppppppppppppppppppppppppppppp ",
" ppppppppppppppppppppppppppppppppppppppppppppppppppppppppppppppppppppppppppppppppppppppppppppp ",
" ppppppppppppppppppppppppppppppppppppppppppppppppppppppppppppppppppppppppppppppppppppppppppppp ",
" ppppppppppppppppppppppppppppppppppppppppppppppppppppppppppppppppppppppppppppppppppppppppppppp ",
" ppppppppppppppppppppppppppppppppppppppppppppppppppppppppppppppppppppppppppppppppppppppppppppp ",
" ppppppppppppppppppppppppppppppppppppppppppppppppppppppppppppppppppppppppppppppppppppppppppppp ",
" ppppppppppppppppppppppppppppppppppppppppppppppppppppppppppppppppppppppppppppppppppppppppppppp ",
" ppppppppppppppppppppppppppppppppppppppppppppppppppppppppppppppppppppppppppppppppppppppppppppp ",
" ppppppppppppppppppppppppppppppppppppppppppppppppppppppppppppppppppppppppppppppppppppppppppppp ",
" ppppppppppppppppppppppppppppppppppppppppppppppppppppppppppppppppppppppppppppppppppppppppppppp ",
" ppppppppppppppppppppppppppppppppppppppppppppppppppppppppppppppppppppppppppppppppppppppppppppp ",
" pppppppppppppppp   p p      p   pppp      ppp   p p       ppp    ppp      ppppppppppppppppppp ",
" ppppppppppppppp ppp  pp ppp pp pppppp ppp pp ppp  p pp pp pp pppp ppp pppp pppppppppppppppppp ",
" ppppppppppppppp pppp pp pppppp pppppp ppppp ppppp pppp pppp pppppp pp pppp pppppppppppppppppp ",
" pppppppppppppppp  ppppp pp ppp pppppp pp pp pppppppppp pppp pppppp pp pppp pppppppppppppppppp ",
" pppppppppppppppppp  ppp    ppp pppppp    pp pppppppppp pppp pppppp pp     ppppppppppppppppppp ",
" pppppppppppppppppppp pp pp ppp pppppp pp pp pppppppppp pppp pppppp pp pp pppppppppppppppppppp ",
" ppppppppppppppp pppp pp pppppp pppppp ppppp ppppp pppp pppp pppppp pp ppp ppppppppppppppppppp ",
" ppppppppppppppp  ppp pp pppp p pppp p pppp p ppp ppppp ppppp pppp ppp ppp ppppppppppppppppppp ",
" ppppppppppppppp p   pp      p      p      ppp   ppppp   ppppp    ppp   ppp  ppppppppppppppppp ",
" ppppppppppppppppppppppppppppppppppppppppppppppppppppppppppppppppppppppppppppppppppppppppppppp ",
" ppppppppppppppppppppppppppppppppppppppppppppppppppppppppppppppppppppppppppppppppppppppppppppp ",
" ppppppppppppppppppppppppppppppppppppppppppppppppppppppppppppppppppppppppppppppppppppppppppppp ",
" pppppppppppppppppppppppppppuppppppppppppppppppppppppppppppppppppppppppppppppppppppppppppppppp ",
" ppppppppppppppppppppppppppppppppppppppppppppppppppppppppppppppppppppppppppppppppppppppppppppp ",
" pppppppppppppppppppppppppppppuppppppppppppppppppppppppppppppppppppppppppppppppppppppppppppppp ",
"                                                                                               "
};
