/* XPM */
static char * sep2_sep2_icon1[] = {
"50 80 320 2",
"  	c None",
". 	c #272725",
"+ 	c #3B3C37",
"@ 	c #3B3C36",
"# 	c #282924",
"$ 	c #3A3B35",
"% 	c #3C3B36",
"& 	c #4B4A45",
"* 	c #4B4B43",
"= 	c #4C4C44",
"- 	c #3B3A35",
"; 	c #4A4B43",
"> 	c #494A42",
", 	c #595951",
"' 	c #65655B",
") 	c #65655D",
"! 	c #585951",
"~ 	c #3C3B37",
"{ 	c #3D3C37",
"] 	c #59594F",
"^ 	c #64645A",
"/ 	c #717165",
"( 	c #717167",
"_ 	c #707064",
": 	c #64665B",
"< 	c #282826",
"[ 	c #3B3B39",
"} 	c #656559",
"| 	c #86867A",
"1 	c #868779",
"2 	c #87877B",
"3 	c #858678",
"4 	c #707265",
"5 	c #4B4C44",
"6 	c #4A4B45",
"7 	c #8E8F81",
"8 	c #989989",
"9 	c #98998B",
"0 	c #585A4F",
"a 	c #7C7C70",
"b 	c #A0A191",
"c 	c #9FA090",
"d 	c #7D7D71",
"e 	c #57594E",
"f 	c #4B4B41",
"g 	c #58584E",
"h 	c #A0A18F",
"i 	c #A9AA98",
"j 	c #B1B2A0",
"k 	c #B2B3A1",
"l 	c #717264",
"m 	c #3C3C34",
"n 	c #7B7B6F",
"o 	c #B8B9A7",
"p 	c #B9BAA8",
"q 	c #B1B2A2",
"r 	c #A9AA9A",
"s 	c #999A8C",
"t 	c #85877A",
"u 	c #8D8F81",
"v 	c #B8BAA5",
"w 	c #BAB9A5",
"x 	c #C2C1AD",
"y 	c #C9C8B4",
"z 	c #B9B8A4",
"A 	c #8E8F7F",
"B 	c #7C7D6F",
"C 	c #87887A",
"D 	c #8C8E80",
"E 	c #979A89",
"F 	c #979888",
"G 	c #B0B19F",
"H 	c #C0C2AD",
"I 	c #C7C9B4",
"J 	c #D7D6C2",
"K 	c #D7D6C1",
"L 	c #C1C2B0",
"M 	c #A8A997",
"N 	c #3B3C34",
"O 	c #B2B19F",
"P 	c #D0CFBB",
"Q 	c #DDDCC7",
"R 	c #DCDBC6",
"S 	c #D0CFBA",
"T 	c #9FA291",
"U 	c #E3E2CD",
"V 	c #E8E7D2",
"W 	c #D6D5C0",
"X 	c #C7C9B3",
"Y 	c #A8AB9A",
"Z 	c #B0B29D",
"` 	c #D1D0BC",
" .	c #E2E1CC",
"..	c #E9E8D3",
"+.	c #E8E8D0",
"@.	c #EEEED6",
"#.	c #5A5A50",
"$.	c #EDEDD5",
"%.	c #F4F4DC",
"&.	c #FAFAE2",
"*.	c #EEEDD8",
"=.	c #C0C1AF",
"-.	c #A1A292",
";.	c #66665C",
">.	c #000000",
",.	c #3C3D37",
"'.	c #C8C7B3",
").	c #F9F9E1",
"!.	c #DEDDC8",
"~.	c #C9C8B6",
"{.	c #999A8A",
"].	c #FFFFE7",
"^.	c #C2C1AF",
"/.	c #AAAB99",
"(.	c #010100",
"_.	c #C1C3AE",
":.	c #D8D7C3",
"<.	c #F5F5DD",
"[.	c #EDECD7",
"}.	c #C3C2AE",
"|.	c #4A4C41",
"1.	c #8E8E82",
"2.	c #7C7C72",
"3.	c #86867C",
"4.	c #A0A193",
"5.	c #B8B9A9",
"6.	c #D0CFBD",
"7.	c #D7D6C4",
"8.	c #DDDCC8",
"9.	c #E2E1CD",
"0.	c #E8E7D3",
"a.	c #EEEDD9",
"b.	c #F4F3DE",
"c.	c #F9F8E4",
"d.	c #FFFFEA",
"e.	c #F4F3DF",
"f.	c #EFEEDA",
"g.	c #98988C",
"h.	c #8D8D81",
"i.	c #595853",
"j.	c #65645F",
"k.	c #71706B",
"l.	c #7C7C74",
"m.	c #87877F",
"n.	c #8E8E86",
"o.	c #98988E",
"p.	c #A0A096",
"q.	c #A9A99F",
"r.	c #B1B1A5",
"s.	c #B7B9AC",
"t.	c #BFC1B4",
"u.	c #C7C7BB",
"v.	c #CECFC1",
"w.	c #D5D6C8",
"x.	c #DBDCCE",
"y.	c #E0E1D3",
"z.	c #E6E7D9",
"A.	c #ECEDDF",
"B.	c #F2F3E3",
"C.	c #F7F8EA",
"D.	c #FDFEEE",
"E.	c #F2F3E5",
"F.	c #E1E2D4",
"G.	c #D5D5C9",
"H.	c #CECEC2",
"I.	c #C0C0B4",
"J.	c #B8B8AE",
"K.	c #B1B1A7",
"L.	c #A8AA9F",
"M.	c #9FA196",
"N.	c #85867E",
"O.	c #7B7C74",
"P.	c #707169",
"Q.	c #64655F",
"R.	c #595854",
"S.	c #4B4A46",
"T.	c #000100",
"U.	c #010000",
"V.	c #000200",
"W.	c #010200",
"X.	c #FFFEE9",
"Y.	c #727268",
"Z.	c #B7B9A4",
"`.	c #010101",
" +	c #706F6A",
".+	c #7D7D75",
"++	c #FFFFE8",
"@+	c #717169",
"#+	c #FEFEE6",
"$+	c #CFCEBA",
"%+	c #292927",
"&+	c #8E8E84",
"*+	c #A1A294",
"=+	c #CAC7B4",
"-+	c #85877C",
";+	c #66665E",
">+	c #A0A094",
",+	c #AAAB9B",
"'+	c #CAC9B5",
")+	c #A9AA9C",
"!+	c #E2E2CA",
"~+	c #F9F9DF",
"{+	c #FFFFE5",
"]+	c #727266",
"^+	c #B1B2A4",
"/+	c #C3C2B0",
"(+	c #BFC0B2",
"_+	c #E0E2CC",
":+	c #DBDDC7",
"<+	c #B8B8AC",
"[+	c #8D8E80",
"}+	c #B8B9AB",
"|+	c #C9C7B8",
"1+	c #DBDDC8",
"2+	c #D8D7C5",
"3+	c #C2C0B1",
"4+	c #A9A99D",
"5+	c #C0C1B1",
"6+	c #D5D6C6",
"7+	c #DBDCCA",
"8+	c #E1E0CC",
"9+	c #FAF8E1",
"0+	c #FFFEE7",
"a+	c #D0CEBF",
"b+	c #030100",
"c+	c #C7C8BA",
"d+	c #DBDCCC",
"e+	c #E2E1CF",
"f+	c #DDDCCA",
"g+	c #D8D6C7",
"h+	c #C9C7BA",
"i+	c #C2C0B3",
"j+	c #7B7C6E",
"k+	c #E6E7D7",
"l+	c #E0E1D1",
"m+	c #737067",
"n+	c #67645B",
"o+	c #FAF8E3",
"p+	c #F9F8E3",
"q+	c #E8E7D5",
"r+	c #D7D5C6",
"s+	c #B9BBA6",
"t+	c #F2F3E1",
"u+	c #F9F8E6",
"v+	c #FFFEEA",
"w+	c #ECEDDD",
"x+	c #D6D5C1",
"y+	c #D1CEBB",
"z+	c #ECEDDB",
"A+	c #FFFDEE",
"B+	c #F7F8E8",
"C+	c #B1B39E",
"D+	c #DCDCC4",
"E+	c #F3F4E4",
"F+	c #EEEDDB",
"G+	c #EFEED9",
"H+	c #F8F9E9",
"I+	c #BFC1AC",
"J+	c #EBECDC",
"K+	c #858779",
"L+	c #7B7D6F",
"M+	c #FAF9E7",
"N+	c #F7F9E4",
"O+	c #D5D6C4",
"P+	c #D6D4C5",
"Q+	c #C1C0AC",
"R+	c #707066",
"S+	c #C0C1B3",
"T+	c #BAB8A9",
"U+	c #B3B2A0",
"V+	c #9FA08E",
"W+	c #59594D",
"X+	c #BAB8AB",
"Y+	c #B3B1A2",
"Z+	c #B9B9AD",
"`+	c #C8C6B7",
" @	c #99998D",
".@	c #CAC9B7",
"+@	c #A1A195",
"@@	c #B7BAA9",
"#@	c #B7BAA7",
"$@	c #86867E",
"%@	c #A8A999",
"&@	c #A9AB96",
"*@	c #64645C",
"=@	c #292A25",
"-@	c #585850",
";@	c #F8F8E0",
">@	c #A1A290",
",@	c #3C3D38",
"'@	c #707267",
")@	c #7A7C6F",
"!@	c #9FA28F",
"~@	c #C9C8B3",
"{@	c #3A3B36",
"]@	c #7B7D72",
"^@	c #97998B",
"/@	c #020200",
"(@	c #70716B",
"_@	c #989A8F",
":@	c #FEFFEF",
"<@	c #DFE0D2",
"[@	c #8D8F82",
"}@	c #B0B1A1",
"|@	c #EDECD8",
"1@	c #F3F2DD",
"2@	c #5B5851",
"3@	c #5B584F",
"4@	c #8F9082",
"5@	c #888679",
"6@	c #7E7C6F",
"7@	c #272823",
"8@	c #4A4A42",
"9@	c #C8CAB5",
"0@	c #BAB9A7",
"a@	c #868777",
"b@	c #B7B8A6",
"c@	c #ABA99A",
"d@	c #3B3A36",
"e@	c #4A4944",
"                                          . + + + + @ + + #                                         ",
"                              # + @ @ + $ % & & * * = & & @ @ - % @ @ #                             ",
"                          + @ @ ; ; ; > ; , ' ) ' ' ' ' ' ! ; * * ; ; @ + +                         ",
"                      ~ { % * = ] ' ' ' ^ ' / ( _ / _ _ / ^ ' : : ' , * & @ @ +                     ",
"                < [ + & * * ' ' } / / / / | 1 2 3 1 1 | | | / 4 4 ( ' ' ' 5 ; 6 @ + <               ",
"              # @ % * , ' ' _ / / | 1 1 1 7 8 9 8 8 8 9 9 7 1 1 1 | / / / ' ^ 0 ; @ @ #             ",
"            # @ > * ] ' / / a 2 1 1 9 9 8 8 b b b b b b c 8 8 9 9 1 1 2 d / / : e ; ; @ #           ",
"          # @ * f g ' ( / | 1 7 8 8 b b h i j j j j j j k i h b b 8 8 7 1 1 l / } ] f * m #         ",
"        < @ ; f ] ' / n 1 1 8 8 b b i j j j o o p o o o o k j q r b b s 9 1 1 a / ' ] f * @ #       ",
"      < + & * ' ' / a t u 9 8 b i j j o v w w x y y y x z v v p j j i c 8 8 A 1 B / } ' f ; @ <     ",
"      # @ * ] ^ / a C D E F h i G o o H I y y y J K K y y I I L o o j M b 8 8 7 1 a / ' ] ; N #     ",
"    < ~ & , ' ( a | 7 9 F b i O w w y y P K K K Q R Q K K K S y y v v G i T E 9 7 1 a ( ' ] * + <   ",
"    # % * ] ' / a 1 7 8 b i j w x y y P J Q Q U V V V U Q Q W P y X H o j Y T 9 7 1 B / ' ] * @ #   ",
"    # % * ] ' / a C 7 8 b i Z z x y ` K Q  ...+.@.@.@.V V  .Q K S y x o j i h 8 A 1 B / } #.* @ #   ",
"  # @ * ] ' / a 1 7 8 b i j v x y P J K Q  .V $.%.&.%.*.V  .Q K K ` y =.o j i -.8 7 1 a / ;.] 6 @ < ",
">.# ,.* ] ' / n 1 7 8 b i j o x '.S K Q  .+.@.%.).).).%.@.V  .!.K ` ~.=.o j i b 8 7 1 a / ^ ] 6 @ < ",
">.+ ; ] ' / a 3 7 {.b i j o =.y P W Q  .V @.%.).].).%.@.+. .!.K P y ^.o j /.h 8 A 1 B / } ] * @ # >.",
"(.@ ; ] ' / a 1 7 8 b i j v _.y P K Q  .V @.%.).].).%.*.V  .Q :.P y x o j i h 8 7 1 B _ ' ] * + . >.",
">.@ ; ] ' / a 1 7 8 b i j v H y P K Q  .V @.<.).].).%.[.V  .Q J P y }.o j i b 9 7 1 B ( ' #.* + < >.",
">.@ |.] ' / a | 7 8 b i j v H y P K Q  .V @.%.).].).%.*.V  .Q J P y x o j i b 9 1.1 B ( ' ] = @ < >.",
">.@ ; , ' ( 2.3.1.9 4.r q 5.=.~.6.7.8.9.0.a.b.c.d.c.e.f.0.9.8.7.6.~.^.5.q r 4.g.h.| a ( ) , & + < >.",
">.+ 6 i.j.k.l.m.n.o.p.q.r.s.t.u.v.w.x.y.z.A.B.C.D.C.E.A.z.F.x.G.H.u.I.J.K.L.M.o.n.N.O.P.Q.R.S.[ < >.",
">.>.T.U.U.U.(.(.(.(.(.(.(.V.V.(.W.W.W.W.W.W.W.W.W.W.W.W.W.W.W.(.(.(.(.(.(.V.V.(.(.T.T.T.T.U.U.>.>.>.",
"(.>.T.i.) ( 2.| 1.9 4.r q 5.=.~.6.7.8.9.0.a.b.c.X.c.e.a.0.9.8.7.6.~.^.5.q r b 9 7 | a Y.) , & T.>.>.",
">.+ 6 (.) ( a | 7 8 b i j Z.H y P K Q  .V @.%.).].).%.*.V  .Q J P y x o j M h 8 A 1 a ( ) , U.+ < `.",
">.+ ; , (. +.+| 7 8 b i j v H y P K Q  .V @.%.).++).%.*.V  .Q J P y x o j i h 8 7 1 a @+j.U.& + < >.",
">.@ ; , ) U.(.3.7 9 b i j v H y P K Q  .V @.%.).#+).%.*.V  .Q J $+y x o j i b 9 7 2 2.(.U.i.& + %+>.",
">.@ ; ] ' ( 2.(.&+o.*+r j v H y P K Q  .V @.%.).].).%.*.V  .Q J P =+x o j i b s 1.-+T.@+;+, * + < >.",
">.@ ; ] ' / a 3.(.(.>+,+k v H '+P K Q  .V @.%.).].).%.*.V  .Q J P =+x o j i b g.(.T.O.( ' ] * @ # >.",
">.@ ; ] } / a | 1.g.(.)+q o H y P K Q !++.@.%.~+{+).%.*.V  .Q J P y x o j r 4.(.&+| a ( ' ] * @ # >.",
">.@ ; ] } ]+n 1 7 9 4.W.^+5.=.y P K R !++.@.%.~+{+).%.*.V U Q J P y /+5.q )+(.g.1.1 B ( ' ] * @ # >.",
">.@ ; ] ' / a | 7 9 4.)+W.(.(+~.P K Q  .V @.%.).].).%.*.V _+:+:.6.y ^.<+(.(.>+g.7 1 B ( ' ] * @ # >.",
">.@ ; ] ' / a | [+9 b r ^+}+W.|+6.J 8. .V @.%.).].).%.*.V _+1+2+6.~.3+(.r.4+4.9 [+1 B ( ' ] * @ # >.",
">.@ ; ] ' / a | 7 9 b r j o 5+W.W.6+7+8+V @.%.9+0+).%.*.V  .8.7.a+b+b+}+q r b 9 7 1 B ( ' ] * @ # >.",
">.@ ; ] ' / a 2 7 8 -.i j v =.c+v.W.d+e+0.*.%.9+0+).%.*.V 9.f+g+b+h+i+5.j i h 9 7 1 j+( ' ] * @ # >.",
">.@ ; ] ' / a 1 A 8 b i j v H ~.6.6+W.y.k+*.%.9+0+).%.*.0.l+x.b+a+~.^.o j i h 9 7 1 B m+n+] * @ # >.",
">.@ ; ] ' / B 1 A 8 b i j v H y P 7.d+W.W.a.b.o+X.p+b.a.q+W.W.r+6.y x o j i h 9 7 1 a m+n+] * @ # >.",
">.@ ; ] ' / B 1 7 8 b i j s+H y P J 8.9.q+W.t+u+v+c.t+w+W.e+8.x+P y x o j i h 9 7 1 a ( ) ] * @ # >.",
">.@ ; ] ' / B 1 7 8 b i j v H y y+K R  .V z+W.b+A+B+W.W.k+U Q K ` y x o j i h 9 7 1 a ( ) ] * @ # >.",
">.@ ; ] ' / a 1 7 8 b i C+v H y P K D+!++.*.e.B+W.W.E+F+0. .Q K S y x v C+i h 9 7 1 a ( ' ] * @ # >.",
">.@ ; ] ' / a 1 7 8 b i C+v H y $+K D+!+V G+e.H+W.W.B.F+0. .Q K S y x v C+i h 8 7 1 B ( ' ] * @ # >.",
">.@ ; ] ' / a 1 7 8 b i j v I+y P K Q  .0.J+W.b+A+B+W.W.k+9.Q J P '+x o j i h 8 A K+L+( ' ] * @ # >.",
">.@ ; ] ' / a 1 7 8 b i j v H y P J 8.9.q+W.E+M+v+N+t+w+W.e+8.J P y x o j i h 8 A K+L+( ' ] * @ # >.",
">.m f ] ' / a 1 7 8 b i j v H y P O+d+W.W.F+b.p+X.p+b.a.q+W.W.P+6.y Q+s+C+i h 8 7 1 B R+' ] * @ # >.",
">.m f ] ' / a C 7 8 b i j v H ~.6.6+W.y.k+*.%.).].).%.*.0.l+x.b+a+~./+o C+i h 9 7 1 B ( ^ ] * @ < >.",
">.@ ; ] ' / a 1 7 8 b i j o =.c+v.W.d+e+0.*.%.).].).%.*.V 8+f+r+b+c+S+T+U+i V+9 [+1 B ( ' W+f @ < >.",
">.@ ; ] ' / a 1 7 8 c r q 5.5+W.W.6+7+9.V @.%.).].).%.*.V  .Q 7.a+W.W.X+Y+r b 9 7 1 B ( ' W+f @ < >.",
">.@ ; ] ' / a 1 7 8 b r ^+Z+W.`+6.J 8. .V @.%.).].).%.*.V !+Q J 6.~.3+(.r.4+4. @1.1 B ( ' ] * @ < >.",
">.@ ; ] ' / n 1 7 9 4.)+W.(.S+.@P K Q  .V @.%.).].).%.*.V !+Q J P y ^.<+(.(.+@g.1.1 B ( ' ] * @ # >.",
">.@ ; ] ' / B 1 7 9 >+(.^+@@=.y P K Q  .V @.%.).].).%.@.+. .Q J P =+^.5.q )+W.g.1.1 B ( ' ] * @ # >.",
">.@ ; ] ' / B | 1.g.(.)+q #@H y ` K Q  .V @.%.).].).%.@.+. .Q J P =+x o j r 4.(.1.| a R+' ] * @ # >.",
">.@ ; ] ' / a $@(.(.4.r j v H y P K Q  .V @.%.).++).%.G+V  .Q J P y x o j i b 9 (.T.O.( ' ] * @ # >.",
">.@ ; ] ' ( 2.(.n.g.4.%@j v H y P K Q  .V @.%.).].).%.*.V  .Q J P y x o j &@h 9 1.N.T.@+*@] * @ =@`.",
"T.@ ; -@) (.(.3.1.8 b i j v H y P K Q  .V @.%.;@#+).%.*.V  .Q J $+y x o j /.b 9 h.| 2.(.U., * @ # >.",
">.@ ; , (.@+2.| A 8 >@i j Z.H y P K Q  .V @.%.).].).%.*.V  .Q J P y x o j i b 9 1.1 a @+j.U.& ,@< >.",
">.+ 6 (.) '@)@1 A E !@i j v H ~@S K Q  .V @.%.).].).%.*.V U Q J P ~@x o j i b 9 7 1 a ( *@i.U.{@< >.",
">.>.T.i.) '@]@| 1.^@T r q 5.=.~.P J 8.9.0.a.b.c.X.p+b.a.0.9.8.7.6.~.^.5.q r 4.9 1.| a ( ) i.S.>.>.>.",
">.>.T.U.U.T.T.(.(.V.V.(.(.(.(.(.W.W.W.W.W.W.W.W.W.W.W.W.W.W.W./@(.(.(./@(.V.V.(.(.T.T.(.U.U.U.>.>.>.",
">.+ 6 i.j.(@O.$@n._@M.q.r.<+I.u.v.w.x.y.z.A.B.C.:@B+B.A.z.<@x.G.H.u.I.J.K.L.M.o.&+N.O.@+j.i.S.+ < >.",
">.@ ; , ' ( 2.t [@9 4.r }@5.=.~.6.7.8.9.0.|@1@c.X.p+b.a.0.8+8.2+6.~.^.5.}@r 4.9 1.| a ( ) 2@* + < `.",
">.@ ; ] ' / a K+u 8 b i k v H y P K Q  .V @.%.).].).%.*.V  .Q J $+y x o j i h 9 7 1 B ( ' 3@* @ # >.",
">.@ ; ] ' / a 1 4@8 b i j v H y P W R  .V @.%.).].).%.*.V  .Q J P y x o j i h 9 7 5@6@( ' ] * @ # >.",
">.@ ; ] ' / a 1 7 8 b /.j v H y P K Q  .V $.%.&.].;@%.*.V  .Q J P y x o j i h 8 7 5@6@/ ' ] * @ 7@>.",
">.{@; ] ' / a 1 7 8 b i j o =.y P K !. .V @.%.~+{+).%.@.+. .Q K S y x o j i h 8 A 1 B / } ] * @ 7@>.",
"  # @ 8@] ' / a 1 7 8 b i k o x y S K Q  .+.@.%.~+).&.%.@.V  .Q K P y =.o j i -.8 7 1 a / ' ] 6 @ < ",
"  7@@ * ] ' / a | 1.9 b r j o x y ` J K Q  .+.@.%.~+%.@.V  .Q W K P y =.o j i b 8 7 1 a / ' ] 6 @ < ",
"  < # % * ] ' / n | 7 {.b i j w x y P K Q  .V +.@.@.@.V V  .Q K S y x o j i h 8 A 1 B / } ] = @ # < ",
"  < # % * ] ' / a 1 7 8 b M G o =.I I P :.!.Q  .V V V  .Q Q K P y 9@H o j ,+b 9 7 1 B / ' ] * @ #   ",
"    # ~ & , ' ( a | 7 9 F b i j o v I y P J K K Q Q Q K K K S y y Z.v j i b 8 s 7 1 B ( ' ] * + <   ",
"    . < + * ] ' / a 1 7 8 8 b i j o o ^.y y y y J K K '.y I I =.o o j r b 8 8 7 1 B l ' ] ; N # .   ",
"      < + & * , ^ / a 1 1 8 8 h i j G 0@0@0@y y y y y y '+v o o j j i b 8 8 a@1 B l } ] * ; @ <     ",
"        < + ; ; 0 } / a 1 a@8 8 b b r q j U+0@o o o b@o o j q }@%@b b 9 9 1 1 n / } W+f * @ #       ",
"          # @ 6 5 ] } / a 1 a@4@8 8 b b b c@U+j j j j j j r b b b 8 8 7 1 1 B / } W+f * % #         ",
"            # @ ; * ] ' / / l | C 1 9 9 8 8 b b b h h b b 8 8 9 9 a@a@1 / ]+/ ' ] |.; @ #           ",
"              # @ % 8@, ' ' / ]+/ | 1 1 1 1 8 9 8 8 F 8 8 1 3 1 1 1 l / / } ' ] * @ @ #             ",
"                < + @ ; ; * ' ' } / / / / / 1 | 1 1 1 1 1 a / / / / ' ' ' |.|.6 @ + <               ",
"                      @ @ % * * ] ' ' ' ' ' / ( / / _ / / ' ' ' ' ' , * * N @ +                     ",
"                          # @ @ 6 ; ; * 8@, ' ) ' ' ' ' ' , * * * * * @ + {@                        ",
"                              < + $ @ d@% % & & & * * e@& % % - % % % #                             ",
"                                            + + + + + + {@                                          "};
