/* XPM */
static char * signalgenerator_signalgenerator_icon1[] = {
"40 50 3 1",
" 	c None",
".	c #FFFFFF",
"+	c #000000",
"..++++++++++++++++++++++++++++++++++++++",
"++++++++++++++++++++++++++++++++++++++++",
"++....................................++",
"++....................................++",
"++....................................++",
"++....................................++",
"++....................................++",
"++....................................++",
"++....................................++",
"++....................................++",
"++....................................++",
"++...........++++.....................++",
"++...........+++++....................++",
"++..........++...++...................++",
"++..........++...++...................++",
"++.........++.....++..................++",
"++.........++.....++..................++",
"++.........++.....++..................++",
"++........++.......++.................++",
"++........++.......++.................++",
"++........++.......++.................++",
"++........++.......++.................++",
"++........++.......++.................++",
"++........++.......++.................++",
"++........++.......++.........+.......++",
"++........+........++........++.......++",
"++..................++.......++.......++",
"++..................++.......++.......++",
"++..................++.......++.......++",
"++..................++.......++.......++",
"++..................++.......++.......++",
"++..................++.......++.......++",
"++..................++.......++.......++",
"++..................++.......++.......++",
"++...................++.....++........++",
"++...................++.....++........++",
"++....................++...++.........++",
"++....................++...++.........++",
"++.....................+++++..........++",
"++.....................++++...........++",
"++....................................++",
"++....................................++",
"++....................................++",
"++....................................++",
"++....................................++",
"++....................................++",
"++....................................++",
"++....................................++",
"++++++++++++++++++++++++++++++++++++++++",
"++++++++++++++++++++++++++++++++++++++++"};
