/* XPM */
static char * steamptot_steamptot_icon1[] = {
"41 41 14 1",
" 	c None",
".	c #000000",
"+	c #FFFFFF",
"@	c #4D4D4D",
"#	c #9A9A9A",
"$	c #E9E9E9",
"%	c #E1E1E1",
"&	c #7C7C7C",
"*	c #D9D9D9",
"=	c #A7A7A7",
"-	c #686868",
";	c #F0F0F0",
">	c #D0D0D0",
",	c #C7C7C7",
".........................................",
".+++++++++++++++++++++++++++++++++++++++.",
".+++++++++++++++++++++++++++++++++++++++.",
".+++++++++++++++++++++++++++++++++++++++.",
".+++++++++++++++++++++++++++++++++++++++.",
".+++++++++++++++++++++++++++++++++++++++.",
".+++++++++++++++++++++++++++++++++++++++.",
".+++++++++++++++++++++++++++++++++++++++.",
".+++++++++++++++++++++++++++++++++++++++.",
".+++++++++++++++++++++++++++++++++++++++.",
".+++++++++++++++++++++++++++++++++++++++.",
".+++++++++++++++++++++++++++++++++++++++.",
".+++++++++++++++++++++++++++++++++++++++.",
".+++++++......@#$++............+++++++++.",
".++++++++$..++%&.*+.=+++..+++=.+++++++++.",
".+++++++++..+++$.-+.++++..+++;.+++++++++.",
".+++++++++..++++..+%++++..++++%+++++++++.",
".+++++++++..+++;.-++++++..++++++++++++++.",
".+++++++++..>+;&.,++++++..++++++++++++++.",
".+++++++++.....&>+++++++..++++++++++++++.",
".+++++++++..++++++++++++..++++++++++++++.",
".+++++++++..++++++++++++..++++++++++++++.",
".+++++++++..++++++++++++..++++++++++++++.",
".++++++++;..$++++++++++$..$+++++++++++++.",
".+++++++......++++++++......++++++++++++.",
".+++++++++++++++++++++++++++++++++++++++.",
".+++++++++++++++++++++++++++++++++++++++.",
".+++++++++++++++++++++++++++++++++++++++.",
".+++++++++++++++++++++++++++++++++++++++.",
".+++++++++++++++++++++++++++++++++++++++.",
".+++++++++++++++++++++++++++++++++++++++.",
".+++++++++++++++++++++++++++++++++++++++.",
".+++++++++++++++++++++++++++++++++++++++.",
".+++++++++++++++++++++++++++++++++++++++.",
".+++++++++++++++++++++++++++++++++++++++.",
".+++++++++++++++++++++++++++++++++++++++.",
".+++++++++++++++++++++++++++++++++++++++.",
".+++++++++++++++++++++++++++++++++++++++.",
".+++++++++++++++++++++++++++++++++++++++.",
".+++++++++++++++++++++++++++++++++++++++.",
"........................................."};
