/* XPM */
static char *timedata_timedata_timedata[] = {
/* columns rows colors chars-per-pixel */
"135 135 3 1",
"  c black",
". c gray100",
"X c None",
/* pixels */
"XXXXXXXXXXXXXXXXXXXXXXXXXXXXXXXXXXXXXXXXXXXXXXXXXXXXXXXXXXXXXXXXXXX XXXXXXXXXXXXXXXXXXXXXXXXXXXXXXXXXXXXXXXXXXXXXXXXXXXXXXXXXXXXXXXXXXX",
"XXXXXXXXXXXXXXXXXXXXXXXXXXXXXXXXXXXXXXXXXXXXXXXXXXXXXXXXXXXXXX           XXXXXXXXXXXXXXXXXXXXXXXXXXXXXXXXXXXXXXXXXXXXXXXXXXXXXXXXXXXXXX",
"XXXXXXXXXXXXXXXXXXXXXXXXXXXXXXXXXXXXXXXXXXXXXXXXXXXXX         ..... .....         XXXXXXXXXXXXXXXXXXXXXXXXXXXXXXXXXXXXXXXXXXXXXXXXXXXXX",
"XXXXXXXXXXXXXXXXXXXXXXXXXXXXXXXXXXXXXXXXXXXXXXXXXX   .............. ..............   XXXXXXXXXXXXXXXXXXXXXXXXXXXXXXXXXXXXXXXXXXXXXXXXXX",
"XXXXXXXXXXXXXXXXXXXXXXXXXXXXXXXXXXXXXXXXXXXXXXX   ................. .................   XXXXXXXXXXXXXXXXXXXXXXXXXXXXXXXXXXXXXXXXXXXXXXX",
"XXXXXXXXXXXXXXXXXXXXXXXXXXXXXXXXXXXXXXXXXXXX   .................... ....................   XXXXXXXXXXXXXXXXXXXXXXXXXXXXXXXXXXXXXXXXXXXX",
"XXXXXXXXXXXXXXXXXXXXXXXXXXXXXXXXXXXXXXXXX   ...............................................   XXXXXXXXXXXXXXXXXXXXXXXXXXXXXXXXXXXXXXXXX",
"XXXXXXXXXXXXXXXXXXXXXXXXXXXXXXXXXXXXXXX  .....................................................  XXXXXXXXXXXXXXXXXXXXXXXXXXXXXXXXXXXXXXX",
"XXXXXXXXXXXXXXXXXXXXXXXXXXXXXXXXXXXXX  .........................................................  XXXXXXXXXXXXXXXXXXXXXXXXXXXXXXXXXXXXX",
"XXXXXXXXXXXXXXXXXXXXXXXXXXXXXXXXXXX  .............................................................  XXXXXXXXXXXXXXXXXXXXXXXXXXXXXXXXXXX",
"XXXXXXXXXXXXXXXXXXXXXXXXXXXXXXXXX  .................................................................  XXXXXXXXXXXXXXXXXXXXXXXXXXXXXXXXX",
"XXXXXXXXXXXXXXXXXXXXXXXXXXXXXX X ................................................................... .  XXXXXXXXXXXXXXXXXXXXXXXXXXXXXXX",
"XXXXXXXXXXXXXXXXXXXXXXXXXXXXXX  ................................................................... .... XXXXXXXXXXXXXXXXXXXXXXXXXXXXXX",
"XXXXXXXXXXXXXXXXXXXXXXXXXXXXX . ................................................................... .....  XXXXXXXXXXXXXXXXXXXXXXXXXXXX",
"XXXXXXXXXXXXXXXXXXXXXXXXXXX  ... ................................................................. ........ XXXXXXXXXXXXXXXXXXXXXXXXXXX",
"XXXXXXXXXXXXXXXXXXXXXXXXXX ...... .......................................................................... XXXXXXXXXXXXXXXXXXXXXXXXXX",
"XXXXXXXXXXXXXXXXXXXXXXXXX ........ .......................................................................... XXXXXXXXXXXXXXXXXXXXXXXXX",
"XXXXXXXXXXXXXXXXXXXXXXXX ......... ........................................................................... XXXXXXXXXXXXXXXXXXXXXXXX",
"XXXXXXXXXXXXXXXXXXXXXX  .......................................................................................  XXXXXXXXXXXXXXXXXXXXXX",
"XXXXXXXXXXXXXXXXXXXXX ........................................................................................... XXXXXXXXXXXXXXXXXXXXX",
"XXXXXXXXXXXXXXXXXXXX ............................................................................................. XXXXXXXXXXXXXXXXXXXX",
"XXXXXXXXXXXXXXXXXXX ............................................................................................... XXXXXXXXXXXXXXXXXXX",
"XXXXXXXXXXXXXXXXXX ................................................................................................. XXXXXXXXXXXXXXXXXX",
"XXXXXXXXXXXXXXXXX ................................................................................................... XXXXXXXXXXXXXXXXX",
"XXXXXXXXXXXXXXXXX ................................................................................................... XXXXXXXXXXXXXXXXX",
"XXXXXXXXXXXXXXXX ..................................................................................................... XXXXXXXXXXXXXXXX",
"XXXXXXXXXXXXXXX ....................................................................................................... XXXXXXXXXXXXXXX",
"XXXXXXXXXXXXXX ......................................................................................................... XXXXXXXXXXXXXX",
"XXXXXXXXXXXXX ........................................................................................................... XXXXXXXXXXXXX",
"XXXXXXXXXXXX ............................................................................................................. XXXXXXXXXXXX",
"XXXXXXXXXXXX .....  ...................................................................................................... XXXXXXXXXXXX",
"XXXXXXXXXXX .....    ...................................................................................................... XXXXXXXXXXX",
"XXXXXXXXXX .......    ...................................................................................................... XXXXXXXXXX",
"XXXXXXXXXX ........     .................................................................................................... XXXXXXXXXX",
"XXXXXXXXX . ........     .................................................................................................. . XXXXXXXXX",
"XXXXXXXXX ..  .......      ..............................................................................................  .. XXXXXXXXX",
"XXXXXXXX ..... ........     ............................................................................................ ..... XXXXXXXX",
"XXXXXXXX ...... ........     ................................................................................................. XXXXXXXX",
"XXXXXXX ..................     ................................................................................................ XXXXXXX",
"XXXXXXX ...................     ............................................................................................... XXXXXXX",
"XXXXXX .....................      .............................................................................................. XXXXXX",
"XXXXX ........................     .............................................................................................. XXXXX",
"XXXXX .........................     ............................................................................................. XXXXX",
"XXXXX ...........................     ........................................................................................... XXXXX",
"XXXX .............................     ........................................................  ................................. XXXX",
"XXXX ..............................      .....................................................    ................................ XXXX",
"XXXX ................................     ...................................................    ................................. XXXX",
"XXX ..................................     ................................................     ................................... XXX",
"XXX ....................................     .............................................     .................................... XXX",
"XXX .....................................     ...........................................     ..................................... XXX",
"XXX ......................................     ........................................     ....................................... XXX",
"XX .........................................     .....................................     ......................................... XX",
"XX ..........................................     ...................................     .......................................... XX",
"XX ...........................................      ...............................     ............................................ XX",
"X ..............................................     .............................     .............................................. X",
"X ...............................................     ...........................     ............................................... X",
"X .................................................     ........................    ................................................. X",
"X ..................................................     .....................     .................................................. X",
"X ...................................................      ..................     ................................................... .",
"X .....................................................     ................     .................................................... X",
"X ......................................................     .............     ...................................................... X",
"X ........................................................     ..........     ....................................................... X",
"X .........................................................     ........     ........................................................  ",
" ...........................................................      ....     ........................................................... ",
" .............................................................     ..     ............................................................ ",
" ..............................................................          ............................................................. ",
"       ..........................................................      ............................................................... ",
" .................................................................    ..........................................................       ",
" ..................................................................  ................................................................. ",
" ..................................................................................................................................... ",
" ..................................................................................................................................... ",
" ..................................................................................................................................... ",
"X ................................................................................................................................... X",
"X ................................................................................................................................... X",
"X ................................................................................................................................... X",
"X ................................................................................................................................... X",
"X ................................................................................................................................... X",
"X ................................................................................................................................... X",
"X ................................................................................................................................... X",
"X ................................................................................................................................... X",
"X ................................................................................................................................... X",
"XX ................................................................................................................................. XX",
"XX ................................................................................................................................. XX",
"XX ................................................................................................................................. XX",
"XXX ............................................................................................................................... XXX",
"XXX ............................................................................................................................... XXX",
"XXX ............................................................................................................................... XXX",
"XXX ............................................................................................................................... XXX",
"XXXX ............................................................................................................................. XXXX",
"XXXX ............................................................................................................................. XXXX",
"XXXX ............................................................................................................................. XXXX",
"XXXXX ........................................................................................................................... XXXXX",
"XXXXX ........................................................................................................................... XXXXX",
"XXXXX ........................................................................................................................... XXXXX",
"XXXXXX ......................................................................................................................... XXXXXX",
"XXXXXXX ....................................................................................................................... XXXXXXX",
"XXXXXXX ....................................................................................................................... XXXXXXX",
"XXXXXXXX ......  ...................................................................................................... ...... XXXXXXXX",
"XXXXXXXX ..... .........................................................................................................  .... XXXXXXXX",
"XXXXXXXXX ... ............................................................................................................ .. XXXXXXXXX",
"XXXXXXXXX .  .............................................................................................................. . XXXXXXXXX",
"XXXXXXXXXX ................................................................................................................. XXXXXXXXXX",
"XXXXXXXXXX ................................................................................................................. XXXXXXXXXX",
"XXXXXXXXXXX ............................................................................................................... XXXXXXXXXXX",
"XXXXXXXXXXXX ............................................................................................................. XXXXXXXXXXXX",
"XXXXXXXXXXXX ............................................................................................................. XXXXXXXXXXXX",
"XXXXXXXXXXXXX ........................................................................................................... XXXXXXXXXXXXX",
"XXXXXXXXXXXXXX ......................................................................................................... XXXXXXXXXXXXXX",
"XXXXXXXXXXXXXXX ....................................................................................................... XXXXXXXXXXXXXXX",
"XXXXXXXXXXXXXXXX ..................................................................................................... XXXXXXXXXXXXXXXX",
"XXXXXXXXXXXXXXXXX ................................................................................................... XXXXXXXXXXXXXXXXX",
"XXXXXXXXXXXXXXXXX ................................................................................................... XXXXXXXXXXXXXXXXX",
"XXXXXXXXXXXXXXXXXX ................................................................................................. XXXXXXXXXXXXXXXXXX",
"XXXXXXXXXXXXXXXXXXX ............................................................................................... XXXXXXXXXXXXXXXXXXX",
"XXXXXXXXXXXXXXXXXXXX ............................................................................................. XXXXXXXXXXXXXXXXXXXX",
"XXXXXXXXXXXXXXXXXXXXX ........................................................................................... XXXXXXXXXXXXXXXXXXXXX",
"XXXXXXXXXXXXXXXXXXXXXX  .......................................................................................  XXXXXXXXXXXXXXXXXXXXXX",
"XXXXXXXXXXXXXXXXXXXXXXXX ..................................................................................... XXXXXXXXXXXXXXXXXXXXXXXX",
"XXXXXXXXXXXXXXXXXXXXXXXXX ................................................................................... XXXXXXXXXXXXXXXXXXXXXXXXX",
"XXXXXXXXXXXXXXXXXXXXXXXXXX ........ .............................................................. ......... XXXXXXXXXXXXXXXXXXXXXXXXXX",
"XXXXXXXXXXXXXXXXXXXXXXXXXXX  ....  ................................................................ ....... XXXXXXXXXXXXXXXXXXXXXXXXXXX",
"XXXXXXXXXXXXXXXXXXXXXXXXXXXXX .. .................................................................. .....  XXXXXXXXXXXXXXXXXXXXXXXXXXXX",
"XXXXXXXXXXXXXXXXXXXXXXXXXXXXXX  .................................................................... ... XXXXXXXXXXXXXXXXXXXXXXXXXXXXXX",
"XXXXXXXXXXXXXXXXXXXXXXXXXXXXXX X ....................................................................   XXXXXXXXXXXXXXXXXXXXXXXXXXXXXXX",
"XXXXXXXXXXXXXXXXXXXXXXXXXXXXXXXXX  .................................................................  XXXXXXXXXXXXXXXXXXXXXXXXXXXXXXXXX",
"XXXXXXXXXXXXXXXXXXXXXXXXXXXXXXXXXXX  .............................................................  XXXXXXXXXXXXXXXXXXXXXXXXXXXXXXXXXXX",
"XXXXXXXXXXXXXXXXXXXXXXXXXXXXXXXXXXXXX  .........................................................  XXXXXXXXXXXXXXXXXXXXXXXXXXXXXXXXXXXXX",
"XXXXXXXXXXXXXXXXXXXXXXXXXXXXXXXXXXXXXXX  .....................................................  XXXXXXXXXXXXXXXXXXXXXXXXXXXXXXXXXXXXXXX",
"XXXXXXXXXXXXXXXXXXXXXXXXXXXXXXXXXXXXXXXXX   ....................... .......................   XXXXXXXXXXXXXXXXXXXXXXXXXXXXXXXXXXXXXXXXX",
"XXXXXXXXXXXXXXXXXXXXXXXXXXXXXXXXXXXXXXXXXXXX   .................... ....................   XXXXXXXXXXXXXXXXXXXXXXXXXXXXXXXXXXXXXXXXXXXX",
"XXXXXXXXXXXXXXXXXXXXXXXXXXXXXXXXXXXXXXXXXXXXXXX   ................. .................   XXXXXXXXXXXXXXXXXXXXXXXXXXXXXXXXXXXXXXXXXXXXXXX",
"XXXXXXXXXXXXXXXXXXXXXXXXXXXXXXXXXXXXXXXXXXXXXXXXXX   .............. ..............   XXXXXXXXXXXXXXXXXXXXXXXXXXXXXXXXXXXXXXXXXXXXXXXXXX",
"XXXXXXXXXXXXXXXXXXXXXXXXXXXXXXXXXXXXXXXXXXXXXXXXXXXXX         ..... .....         XXXXXXXXXXXXXXXXXXXXXXXXXXXXXXXXXXXXXXXXXXXXXXXXXXXXX",
"XXXXXXXXXXXXXXXXXXXXXXXXXXXXXXXXXXXXXXXXXXXXXXXXXXXXXXXXXXXXXX           XXXXXXXXXXXXXXXXXXXXXXXXXXXXXXXXXXXXXXXXXXXXXXXXXXXXXXXXXXXXXX",
"XXXXXXXXXXXXXXXXXXXXXXXXXXXXXXXXXXXXXXXXXXXXXXXXXXXXXXXXXXXXXXXXXXX XXXXXXXXXXXXXXXXXXXXXXXXXXXXXXXXXXXXXXXXXXXXXXXXXXXXXXXXXXXXXXXXXXX"
};
