/* XPM */
static char *user3_user3_h_drum[] = {
/* columns rows colors chars-per-pixel */
"55 35 236 2",
"   c black",
".  c #000100",
"X  c #010000",
"o  c #010100",
"O  c #010101",
"+  c #030200",
"@  c #262722",
"#  c #262624",
"$  c #272725",
"%  c #272822",
"&  c #272823",
"*  c #282722",
"=  c #282723",
"-  c #2B2724",
";  c #282923",
":  c #292823",
">  c #2B2823",
",  c #282924",
"<  c #292824",
"1  c #282826",
"2  c #292927",
"3  c #2A2925",
"4  c #2A2927",
"5  c #2A2B25",
"6  c #3B3B33",
"7  c #3B3A35",
"8  c #3A3B36",
"9  c #3B3A36",
"0  c #3B3C34",
"q  c #3B3C36",
"w  c #3B3C37",
"e  c #3C3B36",
"r  c #3C3B37",
"t  c #3C3C34",
"y  c #3C3D35",
"u  c #3D3D35",
"i  c #3C3D37",
"p  c #3D3C37",
"a  c #3C3D38",
"s  c #3D3C38",
"d  c #3C3C3A",
"f  c #494A42",
"g  c #4A4B43",
"h  c #4B4B43",
"j  c #494A44",
"k  c #4A4944",
"l  c #4A4945",
"z  c #4A4B45",
"x  c #4B4A45",
"c  c #4A4B46",
"v  c #4B4A46",
"b  c #4B4C44",
"n  c #4B4C46",
"m  c #4B4C47",
"M  c #4D4A43",
"N  c #4E4B46",
"B  c #4C4C44",
"V  c #59594D",
"C  c #58584E",
"Z  c #59594F",
"A  c #585850",
"S  c #585951",
"D  c #595951",
"F  c #595853",
"G  c #595A52",
"H  c #5A5A50",
"J  c #5A5A52",
"K  c #636359",
"L  c #626459",
"P  c #64645A",
"I  c #65655B",
"U  c #64665B",
"Y  c #64645C",
"T  c #65655D",
"R  c #64655F",
"E  c #66665C",
"W  c #66665E",
"Q  c #707163",
"!  c #707064",
"~  c #717165",
"^  c #707066",
"/  c #717167",
"(  c #727266",
")  c #717169",
"_  c #727268",
"`  c #73736B",
"'  c #7B7B6F",
"]  c #7B7C6E",
"[  c #7C7D6D",
"{  c #7C7D6F",
"}  c #7B7B71",
"|  c #7C7C70",
" . c #7D7D71",
".. c #7C7C72",
"X. c #7D7D73",
"o. c #7D7E70",
"O. c #7E7F71",
"+. c #7E7E72",
"@. c #848577",
"#. c #858676",
"$. c #868777",
"%. c #858579",
"&. c #858678",
"*. c #868779",
"=. c #86867A",
"-. c #87877B",
";. c #878878",
":. c #87887A",
">. c #969787",
",. c #97978B",
"<. c #979888",
"1. c #97988A",
"2. c #989989",
"3. c #98998B",
"4. c #999A88",
"5. c #999A8A",
"6. c #98988C",
"7. c #99998D",
"8. c #999A8C",
"9. c #9FA08E",
"0. c #9FA090",
"q. c #A0A18F",
"w. c #A0A191",
"e. c #A0A193",
"r. c #A1A290",
"t. c #A1A292",
"y. c #A2A393",
"u. c #A1A294",
"i. c #A8A997",
"p. c #A8A999",
"a. c #A9AA98",
"s. c #A9AA9A",
"d. c #ABA99A",
"f. c #AAAB9B",
"g. c #A9AA9C",
"h. c #ABAC9A",
"j. c #AFB09E",
"k. c #B0B19F",
"l. c #B0B29D",
"z. c #B1B39E",
"x. c #B2B19F",
"c. c #B0B1A1",
"v. c #B1B2A0",
"b. c #B1B2A2",
"n. c #B3B1A2",
"m. c #B2B3A1",
"M. c #B3B2A0",
"N. c #B7B9A4",
"B. c #B7B8A6",
"V. c #B8B9A7",
"C. c #B9B8A6",
"Z. c #B8BAA5",
"A. c #B9BBA6",
"S. c #BAB9A7",
"D. c #BBBAA6",
"F. c #B8B9A9",
"G. c #B9BAA8",
"H. c #C6C7B5",
"J. c #C7C9B3",
"K. c #C7C9B4",
"L. c #C7C8B6",
"P. c #C8C7B3",
"I. c #C8C7B5",
"U. c #C9C8B4",
"Y. c #C9C8B6",
"T. c #C8CAB5",
"R. c #CAC9B5",
"E. c #CAC9B7",
"W. c #C9CAB8",
"Q. c #CDCFBA",
"!. c #CECDB9",
"~. c #CFCEB9",
"^. c #CFCEBA",
"/. c #CFCEBC",
"(. c #CED0BA",
"). c #CED0BB",
"_. c #CFD1BC",
"`. c #D0CFBA",
"'. c #D0CFBB",
"]. c #D0CFBD",
"[. c #D1D0BC",
"{. c #D1D0BE",
"}. c #D7D7BF",
"|. c #D5D4C0",
" X c #D6D5C0",
".X c #D6D5C1",
"XX c #D7D6C1",
"oX c #D7D6C2",
"OX c #D8D7C2",
"+X c #D8D7C3",
"@X c #D8D7C5",
"#X c #D9D8C4",
"$X c #DCDBC6",
"%X c #DCDBC7",
"&X c #DDDCC7",
"*X c #DDDCC8",
"=X c #DEDDC8",
"-X c #DEDDC9",
";X c #E1E1C9",
":X c #E1E0CB",
">X c #E2E2CA",
",X c #E1E0CC",
"<X c #E2E1CC",
"1X c #E2E1CD",
"2X c #E3E2CD",
"3X c #E3E2CE",
"4X c #E4E3CE",
"5X c #E7E7CF",
"6X c #E7E6D1",
"7X c #E8E7D2",
"8X c #E8E8D0",
"9X c #E9E9D1",
"0X c #E9E8D3",
"qX c #EDECD7",
"wX c #EEEED6",
"eX c #EEEDD8",
"rX c #F0EFDA",
"tX c #F2F2D8",
"yX c #F3F3DB",
"uX c #F4F3DE",
"iX c #F4F4DA",
"pX c #F5F5DB",
"aX c #F4F4DC",
"sX c #F5F5DD",
"dX c #F8F8E0",
"fX c #F9F9E1",
"gX c #F9F8E3",
"hX c #FAFAE2",
"jX c #FBFAE5",
"kX c #FFFFFB",
"lX c #FEFEFC",
"zX c #FFFFFD",
"xX c #FEFEFE",
"cX c #FEFEFF",
"vX c #FFFEFF",
"bX c gray100",
/* pixels */
"bXbXbXkXbXbXbXkXkX* 1 O O O O O O O O O O O O O O O O O O O O O O O O O O O O O O O O O 1 : bXbXbXkXbXbXbXbXkX",
"bXbXbXbXbXbX@ @ * x N x x x x N x x x x b b x b j M b b b x x b M N x b x x b b x j b b b B : % % bXbXbXbXbXbX",
"bXbXbXbXbXbXs x M G A G A G A G G C S S C C G C Z C H G C C S S C C C G Z C G G C C Z Z C C x B q % bXbXbXbXbX",
"bXbXbXbXbX8 x A C / / / / ^ / / / / / / / Q / / ^ ^ ( ^ / / / / / / / / ^ ^ / Q ( / ^ / / / C C M q kXbXbXbXlX",
"bXbXbXbX8 M G / ^ ' { { { { { { ]  .} }  .] }  .}  .}  .{ { {  .' { | | ' { ' ' { ] { { { @./ / C x 8 bXbXbXbX",
"bXbXbX% M C ^  .{ *.*.-.-.;.$.@.*.*.*.*.*.*.*.*.*.*.*.*.*.*.*.*.*.*.*.*.-.$.-.-.*.*.:.;.@.@. . ./ C x $ bXbXbX",
"bXbX1 q G /  .@.:.2.2.,.2.2.4.2.2.<.7.<.2.2.2.2.2.2.6.<.<.,.<.2.2.2.1.>.4.2.<.2.1.1.1.1.2.2.*.*. ./ S 8 kXbXbX",
"bXbXq G / { @.<.2.8.y.0.y.y.q.q.y.9.9.y.q.q.y.9.q.q.9.9.y.y.9.y.q.q.q.y.q.y.y.q.0.0.0.y.q.q.2.2.*.} ) S 8 kXbX",
"kXbXy L { { <.y.q.l.b.b.l.b.b.z.b.b.M.l.l.b.l.b.b.l.x.b.l.M.b.l.b.l.b.b.b.b.x.b.b.b.b.b.b.b.0.0.7.*.} T 8 kXbX",
"bX% M U  .<.4.i.l.V.V.V.V.N.V.Z.V.C.G.V.G.V.V.V.V.V.V.V.V.V.V.G.V.C.G.C.V.V.V.V.V.C.G.G.V.G.n.d.7.7.' U M @ bX",
"bXa T } @.<.i.b.V.J.T.J.J.T.H.J.P.P.P.R.I.R.P.P.T.J.J.R.R.P.I.I.T.R.I.I.I.I.J.R.P.P.R.I.I.T.C.M.g.7.*. .U e bX",
"bXq T  .7.y.b.G.J.T.).).).).).).'.'.'.'.'.'.'.'.'.'.'.'.'.'.'.'.].].].].'.'.'.'.'.'.].].'.].I.C.b.0.<. .U e kX",
"kX8 T  .6.d.G.H.'.'.+XXXXXXXoXXXXXXXXXXXXXXXXXXX}.}.XXXXXXXXXXXXXXXXXX+XXXXXXXXXXXXXXX.XXX'.'.I.G.d.5.O.U q bX",
"8 G | 7.<.d.V.).XXXX:X>X4X:X>X>X4X>X:X,X:X4X:X4X<X<X:X4X<X<X<X<X4X:X,X:X,X4X:X,X:X4X,X>X,XXXXX].N.d.0.*. .H q ",
"e T { 1.<.d.G.'.&X:X7X7X7X5X5X7X8X8X8X8X8X8X8X8X8X8X8X8X8X8X8X8X8X8X7X7X7X8X8X8X8X8X8X7X8X>X&XR.N.f.0.5.} T q ",
"e T | 2.0.b.T.oX:XeXsXsXsXsXsXsXaXaXaXaXaXaXaXaXiXiXaXaXaXaXaXpXaXaXuXuXaXaXaXaXaXaXuXuXiXwX4X'.H.j.0.5.O.U y ",
"6 U | 2.d.V.].&XrXaXjXsXfXfXsXfXfXfXfXfXfXfXfXfXfXfXfXfXfXfXfXfXgXfXfXfXfXfXfXfXfXfXsXjXjXpXrX:X_.N.d.7.' Y y ",
"y T | <.d.G.].*XeXjXsXjXfXfXjXsXfXfXfXfXfXfXfXfXfXfXfXgXfXfXfXfXgXgXfXfXfXfXfXfXfXfXfXfXsXfXqX$X).N.d.2.{ U t ",
"6 U | 7.d.G.].*XqXaXjXuXaXuXiXaXaXaXaXaXaXaXaXiXaXaXaXuXaXaXaXaXaXaXaXaXiXiXaXaXiXpXpXiXfXaXrX&X_.N.d.2.' U 8 ",
"e E ' 2.y.b.E.+X,XeXuX7X7X8X8X8X8X8X8X8X8X8X8X8X8X8X7X7X8X8X8X8X8X8X8X8X8X8X8X8X7X8X8X8XiXwX4XXXH.b.w.8. .E a ",
"6 U ' 2.<.p.G.].*X<X7X,X4X4X<X<X4X:X4X:X<X<X<X<X<X<X:X4X4X:X<X<X<X<X<X<X<X<X<X<X4X<X<X:X8X<X$X'.N.a.0.1.' T y ",
"e G ( 6.<.d.V.].+XoX4XXXXXXXXX}.XXXXXXXX}.}.XXXXXXXXXXXXXXXXXXXXXXXXXXXXXXXXXXXXXX}.XX}.:X}.XX'.G.d.0.*. .G s ",
"bXe E ' 7.d.G.E.'.'..X].'.'.'.'.'.'.'.'.'.'.'.'.'.'.'.'.'.'.'.'.'.'.'.'.'.'.'.'.'.].'.].XX'.'.P.A.h.1.O.K e bX",
"kXe E | 1.w.b.C.P.P.'.I.R.I.T.T.I.P.T.P.P.R.P.R.R.P.P.R.P.R.P.I.R.P.R.P.R.P.I.R.I.I.P.P.'.'.P.D.m.0.1.{ T 8 kX",
"bX7 Y | *.<.i.l.V.I.H.G.B.V.G.V.S.S.S.D.D.V.D.D.D.S.D.D.S.S.S.S.V.V.V.V.V.V.V.V.G.G.N.V.T.J.V.b.f.1.*.} T 8 bX",
"bX* M Y ' 2.<.d.b.C.V.l.l.b.m.h.x.x.M.x.M.M.M.x.M.M.x.x.M.M.M.M.b.l.b.l.l.b.l.b.b.b.l.l.N.V.l.i.1.5.{ U x $ bX",
"bXbX6 Y ' { 2.y.w.b.l.y.y.9.y.y.q.q.y.q.w.q.y.q.q.q.y.y.q.y.w.w.y.q.q.q.y.q.y.q.y.8.y.q.l.l.q.y.5.*.] T q kXbX",
"lXbX7 A / { *.2.1.q.y.2.,.,.,.<.2.1.2.2.1.1.2.2.1.1.<.<.1.2.1.1.2.2.2.2.1.1.<.1.7.2.2.4.q.y.2.2.*. .` G q bXkX",
"bXbX$ q G ^ } *.-.5.2.-.*.-.*.-.-.$.-.@.-.-.@.-.$.-.-.-.$.-.-.$.-.-.$.-.-.-.$.-.:.*.@.;.2.2.*.-.| / G e bXbXbX",
"bXbXbX% M G ` } { -.-.{ ' ' '  .' ' { { | | { ' { ' ' | ' | ' ' | ' ' { ' | { '  . .{ { *.*.' { / A x @ bXbXbX",
"bXbXbXkXw x A ) ( ' { Q ( / / ( / ( / / / / / ( / / / / / _ ( / ( / / ( / / ( / / / / Q '  ./ / C x 8 bXbXbXbX",
"bXbXbXbXbXs l F Z Q ( Z C C C Z C C J C J C G C G C J C G C J C G C G C G C G C G C G C / / C G N 8 kXbXbXbXbX",
"bXbXbXbXbXbX8 x M S H b b b b g M g x g x g x M x g x g x M x M b g b g x g b g b b N M C C g x 8 1 bXbXbXbXbX",
"bXbXbXbXbXbX1 $ $ b b $ $ % 5 % = * 1 : : 1 = * 1 : : 1 = * 1 : $ $ : 1 $ % $ % 1 1 > > M M * : 1 bXbXbXbXbXbX",
"bXbXbXbXbXbXbXkXbX% 1 O O O O O O O O O O O O O O O O O O O O O O O O O O O O O O O O O : * bXbXbXbXbXbXbXbXbX"
};
