/* XPM */
static char * user2_user2_excel[] = {
"89 89 194 2",
"  	c None",
". 	c #000000",
"+ 	c #FFFFFF",
"@ 	c #FEFEFE",
"# 	c #FEFFFF",
"$ 	c #FFFEFF",
"% 	c #000500",
"& 	c #F5FFF6",
"* 	c #F7FFF6",
"= 	c #F4FFF5",
"- 	c #000600",
"; 	c #EAFFEA",
"> 	c #E3FFE3",
", 	c #E3FFE4",
"' 	c #E2FFE3",
") 	c #000F00",
"! 	c #000A00",
"~ 	c #E7FFE8",
"{ 	c #29622B",
"] 	c #256626",
"^ 	c #246525",
"/ 	c #266727",
"( 	c #256528",
"_ 	c #276526",
": 	c #246626",
"< 	c #246724",
"[ 	c #216822",
"} 	c #296329",
"| 	c #000C00",
"1 	c #216920",
"2 	c #176F18",
"3 	c #256624",
"4 	c #1B6D1B",
"5 	c #1D6B1F",
"6 	c #EBFFEC",
"7 	c #137214",
"8 	c #097909",
"9 	c #CFFFD1",
"0 	c #D8FFD8",
"a 	c #D6FFD6",
"b 	c #D4FFD4",
"c 	c #D1FFD1",
"d 	c #DFFFDF",
"e 	c #DBFFDC",
"f 	c #D2FFD3",
"g 	c #D6FFD8",
"h 	c #DCFFDC",
"i 	c #E0FFE1",
"j 	c #DDFFDD",
"k 	c #D1FFD3",
"l 	c #226822",
"m 	c #000700",
"n 	c #CEFFD0",
"o 	c #0C770D",
"p 	c #D5FFD6",
"q 	c #F2FFF3",
"r 	c #0A7A0A",
"s 	c #107411",
"t 	c #1D691E",
"u 	c #EEFFED",
"v 	c #F5FFF4",
"w 	c #ECFFEC",
"x 	c #127314",
"y 	c #0B780D",
"z 	c #127113",
"A 	c #097B0A",
"B 	c #057C08",
"C 	c #196E1B",
"D 	c #E4FFE6",
"E 	c #F4FFF4",
"F 	c #FBFFFB",
"G 	c #FCFFFB",
"H 	c #F4FFF3",
"I 	c #E6FFE6",
"J 	c #1F681F",
"K 	c #0B780B",
"L 	c #008001",
"M 	c #008000",
"N 	c #1B6C1D",
"O 	c #FFFFFD",
"P 	c #117211",
"Q 	c #067B08",
"R 	c #0A770C",
"S 	c #196E19",
"T 	c #F4FFF6",
"U 	c #FBFFFA",
"V 	c #E4FFE4",
"W 	c #1A6E19",
"X 	c #037D04",
"Y 	c #137413",
"Z 	c #EDFFED",
"` 	c #F8FFF8",
" .	c #D0FFD0",
"..	c #127312",
"+.	c #FEFFFD",
"@.	c #1E6A1F",
"#.	c #017F02",
"$.	c #0F7511",
"%.	c #000002",
"&.	c #FCFFFD",
"*.	c #1A6D1B",
"=.	c #DFFFE1",
"-.	c #09790B",
";.	c #E9FFEA",
">.	c #077C09",
",.	c #206920",
"'.	c #027E04",
").	c #CFFFCF",
"!.	c #E3FFE5",
"~.	c #FEFEFC",
"{.	c #EBFFED",
"].	c #F7FFF8",
"^.	c #286428",
"/.	c #087808",
"(.	c #FBFFFD",
"_.	c #F2FFF4",
":.	c #FDFFFE",
"<.	c #286329",
"[.	c #010000",
"}.	c #F8FFFA",
"|.	c #E9FFE9",
"1.	c #1B6E1C",
"2.	c #1D691F",
"3.	c #DEFFDE",
"4.	c #F8FFF6",
"5.	c #1F6B20",
"6.	c #FEFFFB",
"7.	c #008101",
"8.	c #EDFFEC",
"9.	c #137312",
"0.	c #008002",
"a.	c #196C1A",
"b.	c #017F01",
"c.	c #CBFFCC",
"d.	c #0D760F",
"e.	c #087A09",
"f.	c #027C03",
"g.	c #087A08",
"h.	c #176F19",
"i.	c #F9FFFA",
"j.	c #C4FFC6",
"k.	c #007F00",
"l.	c #0F750F",
"m.	c #216623",
"n.	c #147214",
"o.	c #0D760D",
"p.	c #C1FFC3",
"q.	c #027E02",
"r.	c #F0FFEF",
"s.	c #196D18",
"t.	c #067B06",
"u.	c #037D06",
"v.	c #CAFFCC",
"w.	c #147116",
"x.	c #1D6C1D",
"y.	c #E7FFE6",
"z.	c #037E02",
"A.	c #226724",
"B.	c #0B7909",
"C.	c #FDFFFC",
"D.	c #2E602D",
"E.	c #008102",
"F.	c #F1FFF1",
"G.	c #2F5F2F",
"H.	c #D5FFD5",
"I.	c #206A1F",
"J.	c #2E602F",
"K.	c #157217",
"L.	c #127411",
"M.	c #186D18",
"N.	c #2D622E",
"O.	c #1F691E",
"P.	c #FEFEFF",
"Q.	c #017D03",
"R.	c #276428",
"S.	c #08780A",
"T.	c #2F612E",
"U.	c #D5FFD4",
"V.	c #157315",
"W.	c #EAFFEC",
"X.	c #C8FFCA",
"Y.	c #CDFFCD",
"Z.	c #0A770A",
"`.	c #E2FFE1",
" +	c #D9FFDA",
".+	c #107412",
"++	c #057C06",
"@+	c #EEFFEF",
"#+	c #206721",
"$+	c #0D780E",
"%+	c #000800",
"&+	c #1C6E1C",
"*+	c #000D00",
"=+	c #E2FFE2",
"                                                                                        .                                                                                         ",
"                                                                                      . + .                                                                                       ",
"                                                                                    . + + + .                                                                                     ",
"                                                                                  . + + + + + .                                                                                   ",
"                                                                                . + + + + + + + .                                                                                 ",
"                                                                              . + + + + + + + + + .                                                                               ",
"                                                                            . + + + + + + + + + + + .                                                                             ",
"                                                                          . + + + + + + + + + + + @ + .                                                                           ",
"                                                                        . + + + + + + + + + + + + @ + + .                                                                         ",
"                                                                      . + + + + + + + + + + + + + + @ @ + .                                                                       ",
"                                                                    . + + + + + + + + + + + + + + + + + + + .                                                                     ",
"                                                                  . + + + + + + + + + + + + + + + + @ + + + + .                                                                   ",
"                                                                . + + + + + + + + + + + + + + + + + + + + + + + .                                                                 ",
"                                                              . + + + + + + + + + + + + + + + + + + + + + + + + + .                                                               ",
"                                                            . + + + + + + + + + + + + + + + + + + + + + + + + + + + .                                                             ",
"                                                          . + + + + + + + + + + + + + + + + + + + + + + + + + + + @ + .                                                           ",
"                                                        . + + + + + + + + + + + + + + + + + + + + + + + + + + + + @ + + .                                                         ",
"                                                      . + + + + + + + + + + + + + + + + + + + + + + + + + + + + + + @ @ + .                                                       ",
"                                                    . + + + + + + + + + + + + + + + + + + + + + + + + + + + + + + + + + + + .                                                     ",
"                                                  . + + + + + + + + + + + + + + + + + + + + + + + + + + + + + + + + @ + + + + .                                                   ",
"                                                . # # + + + + $ $ + + + + + + + + + + + + + + + + + + + + + + + + + + + + # # + .                                                 ",
"                                              % & & & & & & & * * & & & & & & & & & & & & & & & & & & & & & & & = & & & & & & & & -                                               ",
"                                            % ; > > > > > > > , , > > > > > > > > > > > > > > > > > > > > > > > > > > > > > ' ' ' > )                                             ",
"                                          ! ~ { ] ^ ] ] ] / ] ( ( ] ] ] ] ] ] ] ] ] ] ] ] ] ] ] ] ] ] ] / _ _ ] ] ^ ] ] ^ ] ] : < [ } |                                           ",
"                                        ! 1 2 1 ] ] ] ] ] ] ] ] ] ] ] ] ] ] ] ] ] ] ] 3 3 ] ] ] ] ] ] ] ] / ] ] ] ] ] ] ] ] ] ] [ 4 5 } )                                         ",
"                                      . 6 7 8 9 0 a b c c b 0 d > > > > > > > > > > > > > > > > > > > > ' d e b 9 9 f g h i > > j k 4 l > m                                       ",
"                                    . + 6 7 8 n l 4 7 o o 7 p 6 & & & & & & & & & & & & & & & * * * * & q 6 j 7 r 8 s t i u v v w j l < > & .                                     ",
"                                  . + + 6 x y g } f z A B y C D E F + + + + + + + + + + + + + + $ $ + G H I J K L M r N > v O O v > ] ^ > & + .                                   ",
"                                . + + # 6 x s D u } c P K Q R S d T + + + + + + + + + + + + + + + + U E V W K X L L 8 N > & + + & > ] ] > & + + .                                 ",
"                              . + + + # 6 x Y Z ` ; }  ...8 Q K S D T G + + + + + + + + + + + # +.F H V @.K L L #.X $.< ; ` + + & > ] ] > & + # # %.                              ",
"                            . + + + + + 6 x ..Z &.` u } c 7 o Q y *.=.v + O O + + + + + + + + + F v I W -.X L L X K 4 ;.` G O + & > ] ] > & + + + + .                             ",
"                          . + + + + + + 6 7 ..Z @ + ` ; } f 7 8 >.o *.D E U O + + + + @ + + +.F H I ,.K L L #.'.y *.=.v + O O + & > ] ] > & + + + @ + .                           ",
"                        . + + + + # # + 6 7 ..Z + + &.` Z } )...K Q y S d E + + + + + + + + F E V W K X L L '.-.S !.E G + + + + & > ] ] > & + + + ~.O + .                         ",
"                      . + + + + + + + + {.7 x Z + + + # ].; ^.c ../.Q K S D v G + + + + # (._.D @.K L L #.X y S d E + + + + + + & > ] ] > & + + + O ~.@ + .                       ",
"                    . + + + + + + + + + {.7 x Z + + + :.&.` Z <.9 x y >.y *.i v $ + + # F T D C -.X L L X K *.D E F + + + + + + & > ] ] > & + + + + + + + $ [.                    ",
"                  . + + + + + + + $ $ + {.7 x Z + + + # # + }.|.<.k x 8 Q o 1.I v G +.F q D 2.K L L #.'.y *.i v + + + + + + + + & > ] ] > & + + + + @ + + $ $ .                   ",
"                . + + + + + + + + + + + {.7 x Z + + + + + + &.` Z <.9 ..K Q y W 3.E F E V S -.X L L '.-.S I & G + + + + + + + + & > ] ] > & + + + + + + + + + + .                 ",
"              . + + + + + + + + + + + + 6 7 x Z + + + + + + + O 4.; <.c ..8 Q K S D 6 ' 5.-.L L #.X K S d & $ + + + + + + + + + & > ] ] > & + + + + + + + + + + + .               ",
"            . + + + + + + + + + + + + + 6 7 x Z + + + + + # + + 6.` Z <.9 7 o Q y *.9 x -.'.7.L X K W V H G + $ $ + + + + + + + & > ] ] > & + + + + + + + + + + + + .             ",
"          . + + + + + + + + + + + + + + 8.7 9.Z + + + + + # + + $ + ` ; } k 7 8 >.o K '.7.7.0.'.y a.d v O + + $ $ + + + + + + + & > ] ] > & + + + + + + + + + + + @ + .           ",
"        . + + + + + + + + + + + + + + + 8.7 9.Z + # # + + + + + + + &.` Z } 9 ..K Q X b.M L '.-.S D E G + + + + + + + + + # # + & > ] ] > & + + + + + + + + + + + @ + + .         ",
"      . + + + + + + + + + + + + + + + + Z 7 7 Z + # # + + + + + + + + + * I < c.d.e.f.b.M L g.h.d v + + + + + + + + + + + # # + & > ] ] > & + + + + + + + + + + + + @ @ + .       ",
"    . + + + + + + + + + + + + # # + + + {.x x {.+ + + O O + + # # + + + i.u d *.j.$.K X k.L l.' E G $ + + + + + + # # + + + + + & > ] ] > & + + + + + + + + + + + + + + + + .     ",
"  . + + + + + + + + + + + + + # # + + + {.x x {.+ + + O O + + # # + +.F H I m.n.o.p.o.K Q q.d.j r.4.G +.+ + + + + # # + + + + + & > ] ] > & + + + + + + + + + + + + @ + + + + .   ",
". + + + + + + + + + + + + + + + + + + + {.x x {.+ + + + + + + + + + F E V s.K t.X u.K v.w.Q X o.x.y.v G + + + + + + + + + # # + & > ] ] > & + + + + + + + + + + + + + + + + + + . ",
"  . + + + + + + + + + + + + + + + + + + 6 7 ..Z + + + + + + + + +.G H V @.K k.M z.K w.A.p ..Q q.B.,.I H F C.+ + + + + + + # # + & > ] ] > & + + + + + + + + + + + + + + + + + .   ",
"    . + + + + + + + + + + + + + + + + + 6 7 ..Z + + + + + + + + G v I W -.X L L K ,.i V D.p w.Q X K W V E F + + + + + + + + + + & > ] ] > & + + + + + + + + + + + + + + + + .     ",
"      . + + + + + + + + + + @ + + + + + 6 9...Z + + + @ + + +.F H I ,.K E.L '.K W I F.F.6 G.H...Q q.-.I.V H G +.+ + @ + + + + + & > ] ] > & + + + + + + + + + + + + + + + .       ",
"        . + + + + + + + + + + + + # # + 6 9...Z + + + + + + F E V W K X L L -.I.V H U U & Z J.a K.t.q.K W I v G + + + + + $ $ + & > ] ] > & + + + + + + + + + + + + + + .         ",
"          . + + + + + + + + + + + # # + 6 9.9.Z + + + + +.F q V @.K E.L X K W V E F + + G v Z G.p L.t.q.K ,.I H F +.+ + + $ $ + & > ] ] > & + + + + + + + + + + + + + .           ",
"            . + + + + + + + + + + # # + 6 9.9.8.$ + + + F E D M.-.X L L K ,.I H F +.+ + C.G & 6 N.p K.Q X K W V E F + + + + + + & > ] ] > & + + + + + + + + + + + + .             ",
"              . + + + + + + + + + # # + 6 9.9.8.+ + +.F q D 2.K k.L '.K W I v G @ + + + + + F E 6 G.a ..Q q.-.O.V H G +.+ + + + & > ] ] > & + + + + + + + + + + + .               ",
"                . + + + + + + + + + + P.{.7 ..6 O + F E V S -.X L L -.I.V H G +.+ + + + + + +.F & Z J.a w.Q Q.B.W I v G $ + + $ * > ] ] > * $ + + + + + + + + + .                 ",
"                  . + + + + + + + + + + {.7 ..6 +.F H V @.K L L X K W V E F + + + + + + + + + + G v Z G.p ..Q q.B.,.I H G C.+ $ * > ] ] > * $ + + + + + + + + .                   ",
"                    . + + + + + + + + + {.7 ..6 F v I W -.X L L K ,.I H F +.+ + + + + + + + + + +.G & 6 D.p w.Q X K W V E F + $ * > ] ] > & + + + + + + + + .                     ",
"                      . + + + + @ + + + 6 9.P 8.i.u R.o L L '.K W I v G + + + + + + + + + + + + + + F E 6 G.a ..Q q.-.I.V H G O * > ] ] > & + + + + + + + .                       ",
"                        . + + + + + + + 6 9...8.* I ,.K L L S.I.V H G +.+ O O + + + + O O + + + + + C.F & Z J.a K.Q '.B.W I v G & > ] ] > & + + + + + + .                         ",
"                          . + + + + + + 6 9...8.* I l ..K o W V E F + + + O O + + + + O O + + + + + + + G v Z G.p ..Q q.B.,.I H q ' ] / > & + + + + + .                           ",
"                            . O O + + + 6 9...8.i.u J.l ,.R.I H F +.+ O O + + + + + + + + + + + + + + + +.G * 6 T.U.V.Q X K W V W.d / ] > & + + + + .                             ",
"                              . O + + + 6 7 ..Z G v u I I Z v G + + + O O + @ + + + + + + + + + + + + + + $ G E 6 G.a ..Q q.-.O.e g l < > & + + + .                               ",
"                                . + + + 6 7 ..Z +.G i.* * }.F O $ + + + + + + + + $ $ + + + + + + + + + + + +.F = Z J.a w.Q '.K s X.4 l > & + + .                                 ",
"                                  . + + 6 7 s D & & & & & & & & * & & & & & & & & * * & & & & & & & & & & & & & q 6 > ] Y.e.L L X Z.7 ,.> & + .                                   ",
"                                    . + 6 7 y g > > > > > > ' ' ' > > > > > > > > > > > > ' ' > > > > > > > > > `.d  +9 .+++L L b.'.o x.> v .                                     ",
"                                      . @+W s @.^ / ] ] ] ] ^ : : ] ] ] ] ] ] ] ] ] ] ] ] : : ] ] ] ] ] ] ] ] 3 3 ] #+*.7 $+8 8 8 e.s [ I -                                       ",
"                                        %+^.@.A.] ] / ] ] ] ] ] ] ] ] : : ] ] ] ] ] ] ] ] ] ] ] ] 3 3 ] ] ] ] ] ] ] < [ ,.x.N 4 4 &+[ D.*+                                        ",
"                                          ) > > > > > > > > > > > > > ' ' > > > > > > > > > > > > > > > > > > =+> > > > > > > > > > I *+                                          ",
"                                            m & & & & & & & & & & & & & & & & & & & & & & & & & & & & & & * * & & & & & & & & & & & -                                             ",
"                                              . + + + + + + + + + + + + + + + + + # # + + + + + + + + + + $ $ + + + + + + + + + + .                                               ",
"                                                . + + + + + + + + + + + + + + + + + + + + + + + + + + + + + + + + + + + + + + + .                                                 ",
"                                                  . + + + + + + + + + + + + + + + + + + + + + + + + + + + + + + + + + + + + + .                                                   ",
"                                                    . + + + + + + + + + + + + + + + + + + + + + + + + + + + + + + + + + + + .                                                     ",
"                                                      . + + + + + + + + + + @ + + + + + + + + + + + + + + + + + + + + + + .                                                       ",
"                                                        . + + + + + + + + + + + + + + + + + + + + + + + + + + + + + + + .                                                         ",
"                                                          . + + + + + + + + + + + + + + + + + + + + + + + + + + + + + .                                                           ",
"                                                            . + + + + + + + + + + + + + + + + + + + + + + + + + + + .                                                             ",
"                                                              . + + + + + + + + + + + + + + + + + + + + + + + + + .                                                               ",
"                                                                . + + + + + + + + + + + + + + + + + + + + + + + .                                                                 ",
"                                                                  . + + + + + + + + + + + + + + + + + + + + + .                                                                   ",
"                                                                    . + + + + + + + + + + + + + + + + + + + .                                                                     ",
"                                                                      . + + + + + + + + + + @ + + + + + + .                                                                       ",
"                                                                        . + + + + + + + + + + + + + + + .                                                                         ",
"                                                                          . + + + + + + + + + + + + + .                                                                           ",
"                                                                            . + + + + + + + + + + + .                                                                             ",
"                                                                              . + + + + + + + + + .                                                                               ",
"                                                                                . + + + + + + + .                                                                                 ",
"                                                                                  . + + + + + .                                                                                   ",
"                                                                                    . + + + .                                                                                     ",
"                                                                                      . + .                                                                                       ",
"                                                                                        .                                                                                         "};
