/* XPM */
static char * user2_user2_plug[] = {
"119 39 238 2",
"  	c None",
". 	c #000000",
"+ 	c #010100",
"@ 	c #000100",
"# 	c #4B4A45",
"$ 	c #4B4B43",
"% 	c #4C4B46",
"& 	c #010000",
"* 	c #4B4A46",
"= 	c #4B4A48",
"- 	c #4A4A48",
"; 	c #4A4B46",
"> 	c #4A4B43",
", 	c #4A4944",
"' 	c #4C4B47",
") 	c #4A4A42",
"! 	c #65655D",
"~ 	c #65655B",
"{ 	c #66665C",
"] 	c #65645F",
"^ 	c #64655D",
"/ 	c #64665B",
"( 	c #656559",
"_ 	c #66665E",
": 	c #63645E",
"< 	c #7C7C72",
"[ 	c #7C7C70",
"} 	c #7B7B6F",
"| 	c #7D7D75",
"1 	c #7B7D72",
"2 	c #7B7C76",
"3 	c #7C7B76",
"4 	c #7B7B73",
"5 	c #7B7C6E",
"6 	c #7C7D6F",
"7 	c #7C7C74",
"8 	c #7B7B71",
"9 	c #7E7C70",
"0 	c #8E8E82",
"a 	c #8E8F81",
"b 	c #8D8E80",
"c 	c #8E8E86",
"d 	c #8D8F81",
"e 	c #8E8E84",
"f 	c #8D8E86",
"g 	c #8E8F7F",
"h 	c #8F9082",
"i 	c #8F8F83",
"j 	c #8D8F84",
"k 	c #908E82",
"l 	c #908E81",
"m 	c #98988C",
"n 	c #989989",
"o 	c #999A8A",
"p 	c #98998B",
"q 	c #98988E",
"r 	c #999A8C",
"s 	c #000200",
"t 	c #97998E",
"u 	c #979888",
"v 	c #979A87",
"w 	c #979A89",
"x 	c #979890",
"y 	c #A9AA9C",
"z 	c #A9AA98",
"A 	c #A9AA9A",
"B 	c #AAAB99",
"C 	c #A9A99F",
"D 	c #A8A997",
"E 	c #A9A99D",
"F 	c #A8AA9F",
"G 	c #AAAB9B",
"H 	c #A8AB9A",
"I 	c #B8B9AB",
"J 	c #B8BAA5",
"K 	c #BAB9A7",
"L 	c #B8B9A7",
"M 	c #B9BAA8",
"N 	c #B8B9A9",
"O 	c #B8B8AE",
"P 	c #B9BAAA",
"Q 	c #BAB8A9",
"R 	c #B7BAA9",
"S 	c #B8B8AC",
"T 	c #BAB9A5",
"U 	c #B7B9A4",
"V 	c #010200",
"W 	c #B7B8A8",
"X 	c #B9BBA6",
"Y 	c #B9B9AD",
"Z 	c #C0C1B1",
"` 	c #C0C2AD",
" .	c #C2C1AF",
"..	c #C2C1AD",
"+.	c #C0C1AF",
"@.	c #020200",
"#.	c #C0C0B4",
"$.	c #C1C0AE",
"%.	c #C1C0AC",
"&.	c #C0C1B3",
"*.	c #C1C1B5",
"=.	c #C1C2B0",
"-.	c #C3C2B0",
";.	c #C2C0B1",
">.	c #CECFBF",
",.	c #D0CFBA",
"'.	c #D0CFBB",
").	c #CFCEBA",
"!.	c #D0CFBD",
"~.	c #030100",
"{.	c #D0CEC2",
"].	c #CECEC2",
"^.	c #CDCDC1",
"/.	c #CECFC1",
"(.	c #CECFBD",
"_.	c #CED0BB",
":.	c #D0CEBF",
"<.	c #D1D0BE",
"[.	c #D1D0BC",
"}.	c #DDDBCC",
"|.	c #DDDCC7",
"1.	c #DDDCC8",
"2.	c #DEDCD0",
"3.	c #DCDBC7",
"4.	c #DDDDC5",
"5.	c #DCDCC4",
"6.	c #DCDBC6",
"7.	c #DBDCCC",
"8.	c #DCDDCF",
"9.	c #DBDCCE",
"0.	c #DBDCCA",
"a.	c #DDDCCA",
"b.	c #DEDDCB",
"c.	c #DDDBCE",
"d.	c #DBDDC8",
"e.	c #DBDDC7",
"f.	c #DEDBC8",
"g.	c #DEDCC7",
"h.	c #DFDCC9",
"i.	c #DEDDC8",
"j.	c #DBDBCF",
"k.	c #E8E7D5",
"l.	c #E8E8D0",
"m.	c #E8E7D2",
"n.	c #E8E7D3",
"o.	c #E6E7D9",
"p.	c #E8E6DA",
"q.	c #E9E7DA",
"r.	c #E9E8D3",
"s.	c #E9E7D2",
"t.	c #E6E7D5",
"u.	c #E6E6DA",
"v.	c #EEEDDB",
"w.	c #EEEED6",
"x.	c #EEEDD8",
"y.	c #ECEDDD",
"z.	c #ECEDDB",
"A.	c #040200",
"B.	c #EEEDD9",
"C.	c #EFEEDA",
"D.	c #EDECD8",
"E.	c #EBECDA",
"F.	c #ECEDDF",
"G.	c #EDECDA",
"H.	c #EFEFD7",
"I.	c #EDEDD5",
"J.	c #EBECDE",
"K.	c #F9F8E4",
"L.	c #F9F9DF",
"M.	c #F9F9E1",
"N.	c #FAFAE0",
"O.	c #FAFAE2",
"P.	c #F9F8E3",
"Q.	c #F7F8E8",
"R.	c #F7F8EA",
"S.	c #F7F9E4",
"T.	c #F6F7E9",
"U.	c #FFFEEA",
"V.	c #FFFFE5",
"W.	c #FFFFE7",
"X.	c #FFFEE9",
"Y.	c #FDFEEE",
"Z.	c #FEFEE6",
"`.	c #FFFFE8",
" +	c #FEFDE8",
".+	c #FDFEF0",
"++	c #FDFDF1",
"@+	c #FDFEEC",
"#+	c #FDFFEA",
"$+	c #F9F8E6",
"%+	c #F8F9E9",
"&+	c #F7F7EB",
"*+	c #FAF8E9",
"=+	c #FAF8DF",
"-+	c #F8F8E0",
";+	c #EFEEDC",
">+	c #E8E6D7",
",+	c #E9E8D4",
"'+	c #E6E7D7",
")+	c #CFCFC3",
"!+	c #D1CFC0",
"~+	c #C3C1B2",
"{+	c #C3C2AE",
"]+	c #C2C0B3",
"^+	c #C2C0B4",
"/+	c #C1BFB0",
"(+	c #B7B9AC",
"_+	c #B7B8A6",
":+	c #B7B7AB",
"<+	c #B7B9AB",
"[+	c #A8AA9D",
"}+	c #AAAB9D",
"|+	c #A8AA9C",
"1+	c #AAAA9E",
"2+	c #989987",
"3+	c #7B7D70",
"4+	c #7D7D73",
"5+	c #7B7C74",
"6+	c #7C7D75",
"7+	c #666561",
"8+	c #64645A",
"9+	c #646560",
"0+	c #64655F",
"a+	c #4A4B45",
"b+	c #494A42",
"c+	c #4A4C41",
"d+	c #494A44",
"e+	c #4B4C46",
"f+	c #3B3C37",
"g+	c #3B3C36",
"h+	c #3C3B37",
"i+	c #3D3C38",
"j+	c #3B3A36",
"k+	c #3B3B39",
"l+	c #3A3B36",
"m+	c #3C3B36",
"n+	c #3C3C3A",
"o+	c #3C3D38",
".                                                                                                                                                                                                                                           . ",
".                                                                                                                                                                                                                                           . ",
".                                                                                                                                                                                                                                           . ",
".                                                                                                                                                                                                                                           . ",
".                                                                                                                                                                                                                                           . ",
". . . . . . . . . + . . . . . . . . . . . . . . . . . . . . . . . . . . . . . . . . . . . . . . . . . . . . . . . . . . . . . . . . . . . . . . . . . . . . . . . . . . . . . . . . . . . . . . . . . . . . . . . . @ @ @ . . . . . . . . . . ",
". # $ # # $ $ # # $ $ % # $ # & * @ @ & = - ; # # $ $ # # > > # # $ $ # # # # # # $ $ # # $ $ # # $ $ # # $ $ # # $ $ # # $ $ # # # $ # # $ $ # # $ $ # # $ $ # # $ $ # # $ $ # # $ $ # # $ , * * * ' & & & # & * $ $ $ # $ $ # # $ ) # # ; . ",
". ! ~ ~ ~ ~ ~ ~ ~ ~ ~ ~ ~ ~ { & ] ^ ^ ] & @ @ ! ! ! ! ! ! / / ~ ~ ( ( ~ ~ ~ ~ ~ ~ ~ ~ ~ ~ ~ ~ ~ ~ ~ ~ ~ ~ ~ ~ ~ ~ ~ ~ ~ ~ ~ ~ ~ ~ ~ ~ ~ ~ ~ ~ ~ ~ ~ ~ ~ ~ ~ ~ ~ ~ ( ( ~ ~ ~ ~ ~ ~ ~ ~ ! ! ! ! _ & & & ] ] ! ! & ] ~ ( ~ ~ ~ ~ ~ ~ ~ ~ ~ ! : @ ",
"@ < [ [ [ [ [ [ [ [ [ [ [ [ } + | < [ 1 1 [ < + & @ 2 3 4 < [ [ [ [ [ [ [ [ [ [ [ [ [ [ [ [ [ [ [ [ [ [ [ [ [ [ [ [ [ [ [ [ [ [ [ 5 6 [ [ [ [ [ [ [ [ [ [ [ [ [ [ [ [ [ [ [ [ [ < < < 7 7 @ @ + < < [ < < [ 8 + | 9 9 [ [ [ [ [ [ [ } } < 3 & ",
"@ 0 a a a a a a a b a a a a 0 + c 0 a d d a a e c f @ + + 0 0 0 0 0 0 0 a a b a a a a a a a a a a a a a a a a a a a a a a a a a a g g a a a a a a a a h a b a a a a a i 0 0 0 0 0 e + + + j j 0 0 b a a a a 0 + c k l a a a a a a a a a 0 c & ",
"@ m n n n n n n n n n n o n p + q p n n n n n p p p p p r s s + q t t p n n n n n o n n n n n n n n n n n n n n n n n n n n n n n o n n n n n n n n n o n n u n n v w p m x x + + + p p p p p p n n n n o n p + q p n p p n n n n n n n p q & ",
"@ y z A z z z A z B z A z z A + C A z A z D z A z B z z A E F C + s s y y A G y A z z A z D B A z z z A z z z A z z z A z z z A z z z A A B z A z z z A A A A y y H H y + s s C E y A A A A A A z B z A z z A + E A z A A z z A z z z A y C & ",
"@ I J K K L J K K M J K K L N + O N J K K L J K K L J K K L P Q N R R + + + S O S L J L L K T K K L J K K L J K K L J K K L J K K L L Q Q M U K K L J K Q N I S O + + V I N W N N L L K K L L K K M J K K L L + S N L K K L J K K L X K Q Y + ",
"@ Z `  ...` `  ...` `  ...` +.@.#.+.`  ...` `  ...` ..$. ...`  .%.` +.&.*.*.+ + V Z =.Z Z  . . ...` `  ...` `  ...` `  ...` `  ...` `  . .` ` -. .+.+.;.;.&.V + + #.&.&.Z ` ` +.` ` `  ...` `  ...` `  ...` +.@.#.+.`  ...` `  ...` `  .;.#.+ ",
"@ >.,.'.'.'.,.'.'.'.,.'.'.).!.~.{.!.,.'.'.'.,.'.'.'.'.!.!.'.,.'.'.,.,.!.!.!.!.!.!.V V + ].^./.(._.'.,.'.'.'.,.'.'.'.,.'.'.'.,.'.'.'.'.'.'.'.'.!.:./.].~.~.V >.>.(.!.<.!.'.'.,.'.'.'.,.'.'.'.,.'.).'.,.'.'.).!.+ ].!.,._._.'.,.'.'.'.,.[.!.].+ ",
"@ }.|.1.|.|.|.1.|.|.|.1.|.|.1.~.2.1.|.1.|.|.|.1.|.|.|.1.1.|.|.3.|.4.5.|.|.|.6.|.1.7.8.9.+ V V 7.0.1.a.a.a.|.|.1.|.|.|.1.|.|.|.1.1.1.1.b.a.b.a.a.~.V V c.c.7.0.d.e.|.|.f.g.|.|.h.g.|.6.1.|.|.|.1.i.|.|.1.|.|.1.V 8.1.|.d.e.|.|.1.|.|.|.1.a.j.+ ",
"@ k.l.m.m.m.l.m.m.m.l.m.m.m.n.V o.n.l.m.m.m.l.m.m.m.m.m.m.m.l.m.m.l.l.m.m.m.l.m.m.m.n.k.k.n.k.V V V o.p.q.n.l.m.m.r.l.m.m.m.l.s.n.n.t.u.u.V V ~.k.n.n.n.n.m.m.m.m.m.l.m.m.m.l.m.m.m.l.m.m.m.l.m.m.m.l.m.m.m.n.V o.n.l.m.m.m.l.m.m.m.l.m.n.o.+ ",
"@ v.w.x.w.w.w.x.w.w.w.x.w.w.x.V y.x.w.x.x.w.w.x.w.w.w.x.w.w.w.x.w.w.w.x.w.w.w.x.w.w.w.x.x.w.x.z.y.y.V A.~.B.x.B.B.B.B.C.B.B.B.D.B.E.V V + F.y.G.B.w.w.w.w.w.w.x.w.w.w.x.w.w.w.w.w.w.w.x.w.w.w.x.w.w.w.x.w.w.x.V y.x.w.x.w.w.w.x.w.H.I.x.B.J.+ ",
"@ K.L.M.M.M.L.M.M.M.N.M.M.O.P.V Q.P.M.P.P.M.L.M.M.M.L.M.M.M.L.M.M.M.L.M.M.M.L.M.M.M.M.M.M.M.M.P.P.P.P.K.K.V V V R.R.R.R.R.R.R.V V V S.K.K.P.P.P.M.M.L.L.L.L.L.M.M.M.L.M.M.L.L.M.M.M.L.M.M.M.L.M.M.M.N.M.M.O.P.V Q.P.L.M.M.M.L.M.M.M.L.M.K.T.+ ",
"@ U.V.W.W.V.V.W.W.V.V.W.W.V.X.V Y.X.W.W.W.W.V.W.W.V.V.W.W.W.W.W.W.V.V.W.W.V.V.W.W.V.V.W.W.W.W.Z.`.V.V.W. +Y..++++ + + V V + + ++.+@+#+X.W.V.V.W.W.V.V.V.V.V.V.W.W.V.V.W.W.V.V.W.W.V.V.W.W.V.V.W.W.V.V.W.W.V.X.V Y.X.V.W.W.V.V.W.W.V.V.W.X..++ ",
"@ $+M.M.M.M.M.M.M.M.M.M.M.M.P.V Q.P.M.M.M.M.M.M.M.M.M.M.M.M.M.M.M.M.M.L.L.M.M.M.M.M.M.M.M.M.M.L.L.M.M.M.P.%+&+&++ + V *+~.V + &+R.Q.S.P.M.=+=+O.-+M.M.M.M.M.M.M.M.M.M.M.M.M.M.M.M.M.M.M.M.M.M.M.M.M.M.M.M.M.P.V Q.P.M.M.M.M.M.M.M.M.M.M.P.T.+ ",
"@ v.w.w.w.w.w.w.w.w.I.w.w.w.B.V F.B.w.w.w.w.w.w.w.w.w.w.w.x.x.w.w.w.w.w.w.w.w.w.w.w.w.w.w.w.w.x.x.x.C.B.B.V V V F.F.y.v.;+y.F.V V V z.B.x.x.x.x.x.w.w.w.w.w.w.w.w.w.w.w.w.w.w.w.w.w.w.w.w.w.w.w.w.w.I.w.w.w.B.V F.B.w.w.w.w.w.w.w.w.w.w.B.F.+ ",
"@ >+m.m.m.m.m.m.m.m.m.m.m.m.,+V o.n.m.m.m.m.m.m.m.m.m.m.m.m.m.m.m.m.m.m.m.m.m.m.m.m.m.m.m.m.n.'+o.o.V V V k.n.n.n.n.n.n.n.k.k.n.k.t.V V V o.>+k.n.m.m.m.m.m.m.m.m.s.s.m.m.m.m.m.m.m.m.m.m.m.m.m.m.m.m.m.m.m.,+V o.n.m.m.m.m.m.m.m.m.m.m.n.o.+ ",
"@ }.|.|.|.|.|.|.|.|.|.|.|.|.b.+ j.a.|.|.|.|.|.|.|.|.|.|.|.|.|.|.|.|.|.|.|.|.|.|.1.a.a.a.1.a.a.V @.V 9.j.9.a.|.|.6.|.|.|.|.3.1.|.1.0.7.9.9.V V ~.}.a.1.a.1.1.1.|.|.g.g.|.|.|.|.|.|.|.|.|.|.|.|.|.|.|.|.|.|.|.b.+ j.a.|.|.|.|.|.|.|.|.|.|.1.9.+ ",
"@ :.'.'.'.'.'.'.'.'.'.).'.'.!.+ ].!.'.[.'.'.'.'.'.'.'.'.[.,.,.'.'.'.'.'.'.'.'.'.!./.)+].V + V !+!.!.!.!.!.!.'.'.'.'.'.'.'.'.'.'.'.'.!.!.!.!.!.:.~.~.~.]./.>.(.'.'.'.'.'.'.'.'.'.'.'.'.'.'.'.'.'.'.'.'.).'.'.!.+ ].!.'.'.'.'.'.'.'.'.'.'.!.].+ ",
"@ &.........................Z + #.~+.................. . ........... . . . . . .;.V + + #.#.&. ........... . ...............................{+;.]+^+^++ + V Z /+ . .+. . .......%.......%...................Z + #.;.................{+.. .#.+ ",
"@ I L L L L L L L L L L L L N + (+W J J J L L L L L L L L L M _+L L N S :+S + + + I N N N N N L M L L L L L L L L L L L L J J L L L L L L L L M N N N N N I V + + S <+I N L L L L _+L L L L L L L L L L L L N + (+N L L L L L L L L L L N S + ",
"@ y z z z z z z z z z z z z A s F A z z z z z z z z z D A A A A A A y + + s [+C E A z z B z z A A A A A z z z z z z z z z z z z z z z z z z z z D D z D A A }+C C s s s |+y A A A A A A z z z z z z z z z z A s [+A z z z z z z z z z z A 1++ ",
"@ m n n n n n n n n n n n n p + q p n n n n n n n o n n r m q q + s s m p p p m p n n n n n n p p n n n n n n n n n n n n 2+2+n n n n n n n n u u n n n n n n p p p p m + + + q m m p p n n n n n n n n n n p + q p n n n n n n n n o n p t @ ",
"@ 0 a a a a a a a a a a a a a + e a a a a a a 0 0 b 0 0 e + + + c f j 0 a a a a a a a a a a a 0 0 a a a a a a a a a a a a g g a a a a a a a a a a a h a a g g a a a a 0 e e c + + + 0 e 0 0 a 0 0 a a a a a a + e a a a a a a a a a a a 0 f @ ",
"@ < [ [ [ [ [ [ [ 3+3+[ [ [ } + 7 [ [ [ [ [ [ < 7 7 + & & 4+< < < 4+[ < [ [ [ [ [ [ [ [ [ [ } [ [ [ [ [ [ [ [ [ [ [ [ [ [ [ [ [ [ [ [ [ [ [ [ [ [ [ [ [ [ [ [ [ [ 6 6 [ < < < < < < + @ @ 5+6+5+1 [ [ [ [ [ } + 7 [ [ [ [ [ [ 3+3+[ [ [ < 5+@ ",
". ! ~ ~ ~ ~ ~ ~ ~ / / ~ ~ ~ ~ + ! ! ~ ! ! ~ ~ & & & ] 7+] ~ ~ ~ ~ ~ ~ ~ ~ ~ { ~ ~ ~ ~ 8+~ ~ ~ ~ ~ ~ ~ ~ ~ ~ ~ ~ ~ ~ ~ ~ ~ ~ ~ ~ ~ 8+~ ~ ~ ~ ~ ~ 8+~ ~ ~ ~ ~ ~ ~ ~ ( ( ~ ~ ~ ~ ~ ! ! ] 9+9+@ @ @ ^ ! ~ ! ! ~ ~ & ] ~ ~ ~ ~ ~ ~ / / ~ ~ ~ ! 0+@ ",
". a+> $ $ > > # # b+> # # > > & % a+a+# & @ @ # # a+a+# $ > > $ $ $ $ $ $ > > $ $ > > $ $ > > $ $ $ $ $ $ > > $ $ > > $ $ > > $ $ $ $ $ $ > > $ $ > > $ $ > > $ $ c+> $ $ > > # # > a+* * a+> # & @ @ ; ; a+d+@ a+> > > > > > > > > > > e+a+@ ",
". f+g+h+h+g+g+h+h+g+g+h+i+g+g+& j+@ @ & h+k+l+h+h+f+f+m+m+g+g+m+m+m+m+h+h+g+g+h+h+g+g+h+h+g+g+m+m+m+m+h+h+g+g+h+h+g+g+h+h+g+g+m+m+m+m+h+h+g+g+h+h+g+g+h+h+g+g+m+m+g+g+h+h+g+g+h+h+g+g+h+h+g+g+h+h+f+n+. + @ f+@ f+g+g+f+f+g+g+g+g+g+g+o+f+f+. ",
". . . . . . . . . . . . . . . . . . . . . . . . . . . . . . . . . . . . . . . . . . . . . . . . . . . . . . . . . . . . . . . . . . . . . . . . . . . . . . . . . . . . . . . . . . . . . . . . . . . . . . . . . . . . . . . . . . . . . . . ",
".                                                                                                                                                                                                                                           . ",
".                                                                                                                                                                                                                                           . ",
".                                                                                                                                                                                                                                           . ",
".                                                                                                                                                                                                                                           . "};
