/* XPM */
static char *User2_User2_VALVE4[] = {
/* columns rows colors chars-per-pixel */
"35 33 70 1",
"  c #000100",
". c #3B3B3A",
"X c #4A4A45",
"o c #4B4B49",
"O c #585753",
"+ c #585854",
"@ c #63645E",
"# c #646560",
"$ c #6F7166",
"% c #6F7068",
"& c #706F6A",
"* c #707066",
"= c #70716A",
"- c #727270",
"; c #85867B",
": c #87897E",
"> c #88867A",
", c #8D8E7F",
"< c #908E7F",
"1 c #858680",
"2 c #8D8E81",
"3 c #8F9082",
"4 c #97978C",
"5 c #97988A",
"6 c #999788",
"7 c #98988B",
"8 c #979890",
"9 c #999891",
"0 c #A19F90",
"q c #A0A093",
"w c #A0A098",
"e c #A9A798",
"r c #AAA997",
"t c #A9AA9A",
"y c #A8A9A0",
"u c #B1B2A3",
"i c #B4B4AA",
"p c #B7B8A6",
"a c #B6B8AD",
"s c #B8B9A5",
"d c #B9B9AB",
"f c #C1C0AE",
"g c #C1C0B1",
"h c #C7C7BD",
"j c #CFCFB7",
"k c #CCCDBD",
"l c #CED0BB",
"z c #D0CEBC",
"x c #D1D0BC",
"c c #CDCEC3",
"v c #CED0C4",
"b c #D6D5C4",
"n c #D5D5C9",
"m c #D8D7C5",
"M c #DBDBC7",
"N c #DCDCCA",
"B c #DBDCD0",
"V c #E7E7CF",
"C c #E6E5D2",
"Z c #E5E6DA",
"A c #E6E8D3",
"S c #E8E7D2",
"D c #E8E6DA",
"F c #E9E8D3",
"G c #ECECDE",
"H c #F3F3DE",
"J c #F2F2E3",
"K c #F1F2ED",
"L c #F7F8E8",
"P c #FEFEFE",
/* pixels */
"PPPPPPPPPPPP           PPPPPPPPPPPP",
"PPPPPPPPP   X%&=====%=o   PPPPPPPPP",
"PPPPPPP  X%%$;>,,,3<;;%=&X  PPPPPPP",
"PPPPP  X@%;22,<qtttt2222;%@o  PPPPP",
"PPPP X@%=>4qrttsffgsttt04>$$@X PPPP",
"PPP X@%$34qusffmmmbbggduq63$%@X PPP",
"PPP X#%:80usgmnNFFANbngiuq4;%@X PPP",
"PP.o#%180iaiknNDGLGZNnciauw8:=@o PP",
"PP                              .PP",
"PPPPPPPPPPPPPPPPP PPPPPPPPPPPPPPPPP",
"PPPPPPPPPPPPPPPPP PPPPPPPPPPPPPPPPP",
"PPPPPPPPPPPPPPPPP PPPPPPPPPPPPPPPPP",
" PPPPPPPPPPPPPPPP PPPPPPPPPPPPPPPP ",
"   PPPPPPPPPPPPPP PPPPPPPPPPPPPP   ",
" =+  PPPPPPPPPPPP PPPPPPPPPPPP  += ",
" 1-=O PPPPPPPPPPP PPPPPPPPPPP O&%1 ",
" 9>>$$  PPPPPPPPP PPPPPPPPP  %%;:4 ",
" y466:;=  PPPPPPP PPPPPPP  =;;664t ",
" adttt66;*  PPPPP PPPPP  %;45tttdd ",
" vxssddtt5;% PPPP PPPP &;6ttsssscc ",
" NNNNxzzlspt4  PP PP  0tdpxxllMNNB ",
" ZDFVFSSVMNNNkv     ccNNMMFVAAFFAA ",
" JLHHHHHHHHHJJJKK KKJJHHHHHHHHHHJJ ",
" ZVFSFAFANNNNcc  P  ccNmMMFVFVFFAA ",
" BNNNjxxlsdt9  PPPPP  4tdpxxjxMMNN ",
" vzssssrt6;% PPPPPPPPP %;5ttsssslc ",
" aattt55;%  PPPPPPPPPPP  =;47ttrsa ",
" y445:;$  PPPPPPPPPPPPPPP  %>>774y ",
" 91>$%  PPPPPPPPPPPPPPPPPPP  %=:18 ",
" 1==+ PPPPPPPPPPPPPPPPPPPPPPP +=%1 ",
" -O  PPPPPPPPPPPPPPPPPPPPPPPPP  +% ",
"   PPPPPPPPPPPPPPPPPPPPPPPPPPPPP   ",
" PPPPPPPPPPPPPPPPPPPPPPPPPPPPPPPPP."
};
