/* XPM */
static char *user2_user2_block[] = {
/* columns rows colors chars-per-pixel */
"61 61 6 1",
"  c black",
". c #010101",
"X c #020202",
"o c #FDFDFD",
"O c #FEFEFE",
"+ c gray100",
/* pixels */
"                                                             ",
" +++++++++++++++++++++++++++++++++++++++++++++++++++++++++++ ",
" +++++++++++++++++++++++++++++++++++++++++++++++++++++++++++ ",
" +++++++++++++++++++++++++++++++++++++++++++++++++++++++++++ ",
" +++++++++++++++++++++++++++++++++++++++++++++++++++++++++++ ",
" +++++++++++++++++++++++++++++++++++++++++++++++++++++++++++ ",
" +++++++++++++++++++++++++++++++++++++++++++++++++++++++++++ ",
" +++++++++++++++++++++++++++++++++++++++++++++++++++++++++++ ",
" +++++++++++++++++++++++++++++++++++++++++++++++++++++++++++ ",
" +++++++++++++++++++++++++++++++++++++++++++++++++++++++++++ ",
" +++++++++++++++++++++++++++++++++++++++++++++++++++++++++++ ",
" +++++++++++++++++++++++++++++++++++++++++++++++++++++++++++ ",
" +++++++++++++++++++++++++++++++++++++++++++++++++++++++++++ ",
" +++++++++++++++++++++++++++++++++++++++++++++++++++++++++++ ",
" +++++++++++++++++++++++++++++++++++++++++++++++++++++++++++ ",
" +++++++++++++++++++++++++++++++++++++++++++++++++++++++++++ ",
" +++++++++++++++++++++++++++++++++++++++++++++++++++++++++++ ",
" +++++++++++++++++++++++++++++++++++++++++++++++++++++++++++ ",
" +++++++++++++++++++++++++++++++++++++++++++++++++++++++++++ ",
" +++++++++++++++++++++++++++++++++++++++++++++++++++++++++++ ",
" +++++++++++++++++++++++++++++++++++++++++++++++++++++++++++ ",
" +++++++++++++++++++++++++++++++++++++++++++++++++++++++++++ ",
" +++++++++++++++++++++++++++++++++++++++++++++++++++++++++++ ",
" +++++++++++++++++++++++++++++++++++++++++++++++++++++++++++ ",
" +++++++++++++++++++++++++++++++++++++++++++++++++++++++++++ ",
" +++++++++++++++++++++++++++++++++++++++++++++++++++++++++++ ",
" +++++++++++++++++++++++++++++++++++++++++++++++++++++++++++ ",
" +++++++++++++++++++++++++++++++++++++++++++++++++++++++++++ ",
" +++++++++++++++++++++++++++++++++++++++++++++++++++++++++++ ",
" +++++++++++++++++++++++++++++++++++++++++++++++++++++++++++ ",
" +++++++++++++++++++++++++++++++++++++++++++++++++++++++++++ ",
" +++++++++++++++++++++++++++++++++++++++++++++++++++++++++++ ",
" +++++++++++++++++++++++++++++++++++++++++++++++++++++++++++ ",
" +++++++++++++++++++++++++++++++++++++++++++++++++++++++++++ ",
" +++++++++++++++++++++++++++++++++++++++++++++++++++++++++++ ",
" +++++++++++++++++++++++++++++++++++++++++++++++++++++++++++ ",
" +++++++++++++++++++++++++++++++++++++++++++++++++++++++++++ ",
" +++++++++++++++++++++++++++++++++++++++++++++++++++++++++++ ",
" +++++++++++++++++++++++++++++++++++++++++++++++++++++++++++ ",
" +++++++++++++++++++++++++++++++++++++++++++++++++++++++++++ ",
" +++++++++++++++++++++++++++++++++++++++++++++++++++++++++++ ",
" +++++++++++++++++++++++++++++++++++++++++++++++++++++++++++ ",
" +++++++++++++++++++++++++++++++++++++++++++++++++++++++++++ ",
" +++++++++++++++++++++++++++++++++++++++++++++++++++++++++++ ",
" +++++++++++++++++++++++++++++++++++++++++++++++++++++++++++ ",
" +++++++++++++++++++++++++++++++++++++++++++++++++++++++++++ ",
" +++++++++++++++++++++++++++++++++++++++++++++++++++++++++++ ",
" +++++++++++++++++++++++++++++++++++++++++++++++++++++++++++ ",
" +++++++++++++++++++++++++++++++++++++++++++++++++++++++++++ ",
" ++++++++++++o++++++++++++++++++++++++++++++++++++++++++++++ ",
" ++++++++++++++   +   +   +          +++  ++++++++++++++++++ ",
" +++++++++++++++ +++ + ++ ++ +++ + ++ + ++ +++++++++++++++++ ",
" +++++++++++++++ +++ + +++++ + +++ ++ ++++ +++++++++++++++++ ",
" +++++++++++++++ +++ ++  +++   +++   +++++ +++++++++++++++++ ",
" +++++++++++++++ +++ ++++ ++ + +++ + ++++ ++++++++++++++++++ ",
" +++++++++++++++ +++ + ++ ++ +++ + ++ ++ + +++++++++++++++++ ",
" ++++++++++++++++   ++   ++         +      +++++++++++++++++ ",
" +++++++++++++++++++++++++++++++++++++++++++++++++++++++++++ ",
" +++++++++++++++++++++++++++++++++++++++++++++++++++++++++++ ",
" +++++++++++++++++++++++++++++++++++++++++++++++++++++++++++ ",
"                                                             "
};
