/* XPM */
static char *user2_user2_heatx2[] = {
/* columns rows colors chars-per-pixel */
"90 33 74 1",
"  c #010100",
". c #3B3B35",
"X c #3B3B38",
"o c #4A4A45",
"O c #4B4A48",
"+ c #575651",
"@ c #585953",
"# c #64655B",
"$ c #656560",
"% c #6F706A",
"& c #707166",
"* c #717169",
"= c #7B7C6E",
"- c #7B7B70",
"; c #85857C",
": c #8D8E82",
"> c #8E8E88",
", c #97978F",
"< c #979886",
"1 c #969889",
"2 c #98998A",
"3 c #9B9B93",
"4 c #9FA098",
"5 c #A1A093",
"6 c #A3A39B",
"7 c #A8A996",
"8 c #A9A999",
"9 c #A9A9A1",
"0 c #B2B1A3",
"q c #B1B1A9",
"w c #B7B8A5",
"e c #B7B8A8",
"r c #BAB7AE",
"t c #B8B9A6",
"y c #B8B9A9",
"u c #B8B8B0",
"i c #BFC0B3",
"p c #C1BFB0",
"a c #C2C0AD",
"s c #C2C1B3",
"d c #C0C0B8",
"f c #C9C6BE",
"g c #CECDBB",
"h c #CED0BB",
"j c #D0CEBB",
"k c #D1D0BD",
"l c #CDCEC3",
"z c #CFD0C1",
"x c #D0CDC2",
"c c #D6D5C4",
"v c #D5D5C9",
"b c #DCDBC6",
"n c #DCDBC9",
"m c #DDDCD2",
"M c #DFE1D5",
"N c #E2E1CD",
"B c #E1E1D2",
"V c #EDEDD6",
"C c #EDECD9",
"Z c #F0F0D8",
"A c #F8F8DE",
"S c #ECECE0",
"D c #F6F6EB",
"F c #F7F8E3",
"G c #F7F8EB",
"H c #F8F7E4",
"J c #F8F6EA",
"K c #F9F8E4",
"L c #FCFCED",
"P c #F6F5F2",
"I c #F7F8F3",
"U c #F8F7F2",
"Y c #FEFEF2",
"T c #FEFEFE",
/* pixels */
"TTDU TTTTTTTTTTTTTTTTTTTTTTTTTTTTTTTTTTTTTTTTTTTTTTTTTTTTTTTTTTTTTTTTTTTTTTTTTTTTTTTTTTTTT",
"TT D TTTTTTTTTTTTTTTTTTTTTTTTTTTTTTTTTTTTTTTTTTTTTTTTTTTTTTTTTTTTTTTTTTTTTTTTTTTTTTTTTTTTT",
"TT U TTTTTTTTTTTTTTTTTTTTTTTTTTTTTTTTTTTTTTTTTTTTTTTTTTTTTTTTTTTTTTTTTTTTTTTTTTTTTTTTTTTTT",
"  TT       TTTTTPP TTTTTTTTTTTTTTTTTTTTTTTTTTTTTTTTTTTTTTTTTTTTTTTTTTTTTTTTTTTTTTTTTTTTTTT",
" +@@+@@ @@  TTTT P TTTTTTTTTTTTTTTTTTTTTTTTTTTTTTTTTTTTTTTTTTTTTTTTTTTTTTTTTTTT TTTTTTTTTT",
" %&***% &% O TTT I TTTTTTTTYTTTTTTTTTTTTTTTYTTTTTTTTTTTTTTTTTTTTTTTTTTTTTTTTTTT TTTTTTTTTT",
" ------ =- +o...IY...X......................................................... ..TTTTTTTT",
" >>:::> :: #################################################################### ##..TTTTTT",
" 555554 55 --=---=---------=-=-====---------------------==-----------===------; ==#$XXTTTT",
" 00000q 00 ;;<22<<22222<2222222<<<222<22222<222<2<222<22<<2<<22<2<22<2<<2222222 11--$$XTTT",
" ippppp ui 3:888777777778888888888888888888888888888888888888888888888888888869 8811-$$XTT",
" zxjjjx cl 92yyywwptpwwwyetttttttttttttttttttttttttttttttttttyyytttytttttyeteru e7812-$XTT",
" vccccv cb q8khhjjjjjjjjkkkjggjkjjjjjjjjjjjjjjjjjjjjjjjjjjjjjggjjjjjjjjkkkkjxxx zet822-$.T",
" MNNNNB BB uynbbbbbbbbbbbnbbbbnnbbbnnbnnbbbbnbbbnbbbnbbbbnbbbbbnbbnbbbbbbbbbbnm mhht82-#.T",
" SCCCCS CC fsCVVCVCCZVCCVCVVCVCCCCVVVCVCCVVCZCVCCCCZVCZCZVVCCCCVVCVVVVVVVVVVCCS Cbhw822-#.",
" GKKKKL JD xgKKKKKKKKKKKKKKKKKKKKKKKKKKKKKKKKKKKKHKHKHHKKKKKKKKKKKKKKAKAAAKAKKJ CCbhy8,-#.",
" GKKKKJ   TTY   YYY   YYY   YYY   YYY   YYY   YLY   YLY   YYY   YYY   FFAAAKKKJ KZnhe82=#.",
" SCCZCS SS llCSSSSSSSSSSSSSCSCCSSSCCCSSSSCSSSSCSCSSSSSSSSCCSCSSSCCCSSSCCVVZCCCS SZnkt81=#.",
" MBNNNM BM finnnnnnnnnnnnnbbnnnNbnNnnnbbbnnnnnnbnmnnnnnnnbnNnbnmNbnnnbnnbbbbbbm Snhy8<1=#.",
" vvccvv cv rrgjjggggxggxgjjkggggggggggkkggggggkjjjjjjgxgxggkxxggxhxggxzgkkgkggv Bghw72=#.T",
" xjjjxv zz q8eeeyttteeeetttttytteyttyytteeettettryyytyeetytyeeeeyyyyttrettyttyu xtt811-#.Y",
" pppaau id 92888777878888888888788888888888888888888878888788888888887887788786 y88<1=#.TT",
" q000eq 00 ,:2,12222222222222222222222222222222<<<22<<2222222222222212122222223 8822=##.TT",
" 655556 53 :;------------===--==-=-=-=------====--------==----------=========-- 22=-##.TTT",
" >>>::> :: --################################################################## --##..TTTT",
" ------ -- $#.XX........................................................XXX.XXX $#..TYTTTT",
" *%*&&% *% @o.TTTTTTTTTTTTYTTTTTTTTTYTTTTTTTTTTTTTTTTTTTTTTTTTTTTTTTTTTTTTTTTTT X.TTTTTTTT",
" +@@@@@ @@ O TTT T TTTTTTTTTTTTTTTTTTTTTTTTTTTTTTTTTTTTTTTTTTTTTTTTTTTTTTTTTTTT TTTTTTTTTT",
" X.X..X XX  TTTT T TTTTTTTTTTTTTTTTTTTTTTTTTTTTTTTTTTTTTTTTTTTTTTTTTTTTTTTTTTTTTTTTTTTTTTT",
"   T       TTTTTTT TTTTTTTTTTTTTTTTTTTTTTTTTTTTTTTTTTTTTTTTTTTTTTTTTTTTTTTTTTTTTTTTTTTTTTT",
"TT P TTTTTTTTTTTTTTTTTTTTTTTTTTTTTTTTTTTTTTTTTTTTTTTTTTTTTTTTTTTTTTTTTTTTTTTTTTTTTTTTTTTTT",
"TT P TTTTTTTTTTTTTTTTTTTTTTTTTTTTTTTTTTTTTTTTTTTTTTTTTTTTTTTTTTTTTTTTTTTTTTTTTTTTTTTTTTTTT",
"TTTT TTTTTTTTTTTTTTTTTTTTTTTTTTTTTTTTTTTTTTTTTTTTTTTTTTTTTTTTTTTTTTTTTTTTTTTTTTTTTTTTTTTTT"
};
