/* XPM */
static char *valve_valve_icon1[] = {
/* columns rows colors chars-per-pixel */
"61 24 2 1",
"  c black",
". c None",
/* pixels */
"...........................       ...........................",
".....................      .......      .....................",
"..................   ...................   ..................",
"................  .........................  ................",
"..............  .............................  ..............",
"............  .................................  ............",
"..........  .....................................  ..........",
"......... ......................................... .........",
"........ ........................................... ........",
"....... ............................................. .......",
"...... ............................................... ......",
"..... ................................................. .....",
".... ................................................... ....",
"... ..................................................... ...",
".. ....................................................... ..",
".. ....................................................... ..",
".. ....................................................... ..",
". ......................................................... .",
". ......................................................... .",
". ......................................................... .",
" ........................................................... ",
" ........................................................... ",
"............................................................ ",
"                                                            ."
};
