/* XPM */
static char * valve_valve_valve2[] = {
"50 31 156 2",
"  	c None",
". 	c #000000",
"+ 	c #010000",
"@ 	c #4A4B46",
"# 	c #000100",
"$ 	c #4B4A46",
"% 	c #65645F",
"& 	c #595951",
"* 	c #4B4A45",
"= 	c #4B4B43",
"- 	c #7C7C74",
"; 	c #65655B",
"> 	c #66665C",
", 	c #4B4C46",
"' 	c #86867C",
") 	c #7C7C70",
"! 	c #65655D",
"~ 	c #4A4B45",
"{ 	c #282826",
"] 	c #98988E",
"^ 	c #868779",
"/ 	c #64655D",
"( 	c #585953",
"_ 	c #7D7D71",
": 	c #8E8E84",
"< 	c #A0A096",
"[ 	c #98998B",
"} 	c #999A8C",
"| 	c #59594F",
"1 	c #595853",
"2 	c #88867A",
"3 	c #8E8F81",
"4 	c #8E8F7F",
"5 	c #A0A094",
"6 	c #A9A99D",
"7 	c #A0A191",
"8 	c #989989",
"9 	c #7C7D6F",
"0 	c #7B7B6F",
"a 	c #292A25",
"b 	c #858579",
"c 	c #918F82",
"d 	c #908E81",
"e 	c #9FA090",
"f 	c #B8B9AB",
"g 	c #B8B9A7",
"h 	c #A9AA98",
"i 	c #A1A292",
"j 	c #86867A",
"k 	c #7C7C72",
"l 	c #A9AA9A",
"m 	c #BAB9A7",
"n 	c #C0C1B1",
"o 	c #C0C2AD",
"p 	c #64655F",
"q 	c #C2C1AF",
"r 	c #C0C1B3",
"s 	c #C7C8B8",
"t 	c #C9C8B3",
"u 	c #CAC9B5",
"v 	c #C2C1AD",
"w 	c #BAB9A5",
"x 	c #ABAA98",
"y 	c #ACAA9B",
"z 	c #64645C",
"A 	c #BBBAA8",
"B 	c #C9C8B4",
"C 	c #C9C8B6",
"D 	c #C7C8BA",
"E 	c #D7D5C6",
"F 	c #D7D6C1",
"G 	c #D7D6C2",
"H 	c #C7C9B4",
"I 	c #A0A193",
"J 	c #98988C",
"K 	c #010100",
"L 	c #C8C7B3",
"M 	c #D7D5C8",
"N 	c #DDDBCC",
"O 	c #DCDBC6",
"P 	c #DDDCC7",
"Q 	c #B9B8A6",
"R 	c #ABA99A",
"S 	c #020100",
"T 	c #8E8E82",
"U 	c #BAB8A9",
"V 	c #DEDCC7",
"W 	c #E9E7D8",
"X 	c #E8E7D2",
"Y 	c #DDDCC8",
"Z 	c #D7D6C4",
"` 	c #C0C0B6",
" .	c #575853",
"..	c #B9B9AF",
"+.	c #D5D6C4",
"@.	c #DCDBC7",
"#.	c #E2E1CC",
"$.	c #E2E2CA",
"%.	c #E3E1CC",
"&.	c #E2E0D1",
"*.	c #EEEDDB",
"=.	c #EEEED6",
"-.	c #EEEDD8",
";.	c #EFEED9",
">.	c #EEEDD9",
",.	c #ECEDDD",
"'.	c #ECECE2",
").	c #ECEDE5",
"!.	c #EDECD7",
"~.	c #EFEDD6",
"{.	c #EEECDD",
"].	c #E8E7D5",
"^.	c #E8E8D0",
"/.	c #E7E6D1",
"(.	c #E9E8D3",
"_.	c #C9C7B8",
":.	c #A9AA9C",
"<.	c #DEDCC5",
"[.	c #DFDDC6",
"}.	c #E3E3CB",
"|.	c #DFE0D0",
"1.	c #DDDDC5",
"2.	c #D8D7C2",
"3.	c #A0A098",
"4.	c #CAC9B4",
"5.	c #DBDCCC",
"6.	c #D6D5C0",
"7.	c #C0C1AF",
"8.	c #A2A091",
"9.	c #D5D6C6",
"0.	c #CAC7B4",
"a.	c #9A988C",
"b.	c #88857C",
"c.	c #585951",
"d.	c #AAAB99",
"e.	c #C3C2AE",
"f.	c #C1BFB2",
"g.	c #85877A",
"h.	c #7B7D72",
"i.	c #AAA997",
"j.	c #AAAB9B",
"k.	c #9A9889",
"l.	c #65665E",
"m.	c #7D7E70",
"n.	c #A8A997",
"o.	c #A0A18F",
"p.	c #888679",
"q.	c #272725",
"r.	c #9FA194",
"s.	c #979A89",
"t.	c #97998C",
"u.	c #858779",
"v.	c #282924",
"w.	c #656559",
"x.	c #57594E",
"y.	c #282828",
".                                                                                                 . ",
". . .                                                                                         + + . ",
". @ @ . .                                                                                 . # $ $ . ",
". % & * $ .                                                                             . * = & % . ",
". - ; > & , # .                                                                     . . @ & ; ; - . ",
"# ' ) ) ; ! & ~ # {                                                               + * & ! ; ) ) ' # ",
"# ] ^ ^ ) ) ; / ( # #                                                         . # & ; ; ) _ ^ ^ : # ",
"# < [ [ } ^ ^ ) ; ; | + +                                                 # # 1 ! ; ) 2 2 3 4 4 5 # ",
"# 6 7 7 7 8 8 ^ ^ 9 0 ! 1 # a                                           # ( / ; ) b ^ c d 7 e 7 6 # ",
"# f g h h h 7 i 8 8 ^ j k ! + +                                     . + ! k _ j 3 3 7 7 l h h m f # ",
"# n o g g g g h h 7 7 8 [ j k ! + #                             # # p - j 3 4 7 7 l h g g g g q r + ",
"# s t u v v v v w g g x y 7 7 [ j k + {                       + z ) j 3 7 h h m m A q q q v B C D + ",
"# E F G G B B B B H o v v g g h l I J K #                 # # ' 3 7 h g g o o v B L B B B F F G M + ",
"# N O P P P P F F F F F F B B B q q Q R I K +         S K T I U m v B B B G F F F F F P P P P V N + ",
"# W X X X X X X X X X X X O P Y Y Y Y G Z D ` +  .  # ..D +.G @.P P P P P #.#.$.$.#.#.#.#.#.#.%.&.+ ",
"# *.=.-.;.=.=.-.-.=.=.-.-.=.=.;.-.-.-.-.>.>.,.'.+ # ).,.>.>.-.!.-.~.~.-.-.-.=.;.-.=.=.-.-.=.=.-.{.+ ",
"# ].^./.(.^.^.X X X ^.X X P P P P P P G Z _.r K (   # :.q C G G P <.[.P P P $.#.#.#.#.#.#.#.}.#.|.+ ",
"# N P 1.1.P P G F 2.F G G H H B v o g 6 3.+ #         # K ' I l g v v C C 4.F G G G G G P P P P 5.+ ",
"+ E F F 6.t t B B B v v 7.g g R R I J + +                 # # k 3 8.R R U w v v v B B B B B F F 9.+ ",
"+ _.0.B v o o 7.g g g h l 7 I a.b.- # {                       # c.k j 3 7 7 h d.g m q q v v e.B s + ",
"+ f.v m m g g h h e 7 8 [ g.h.! + #                             . + & k j ^ 4 7 7 R x i.m m w v r # ",
"# f g l j.l i 8.k.} ^ ^ ) l.# #                                     . # c.; m.^ 3 3 7 7 h n.h h f # ",
"# :.o.7 e 8 [ p.j ) ) ; & # q.                                          # = | ; k j ^ 3 4 7 o.7 6 # ",
"# r.s.[ [ ^ j k ; ! ( # .                                                 . # 1 & ; ) ) ^ ^ 4 3 5 # ",
"# t.u.^ ) ) ; ! 1 # #                                                         + + 1 & ; _ ) ^ ^ : # ",
"# ' 9 _ ; ; & @ # v.                                                              # @ 1 & ; ) ) ' # ",
"# k w.; & * + .                                                                     . + * & | ; - . ",
". / x.~ @ .                                                                             . @ ~ c.( . ",
". ~ ~ # .                                                                                 . # ~ @ . ",
". . .                                                                                         . . . ",
".                                                                                                 y."};
