/* XPM */
static char * y_up_xpm[] = {
"35 40 67 1",
" 	g None",
".	g #FFFFFF",
"+	g #AEAEAE",
"@	g #444444",
"#	g #ACACAC",
"$	g #E0E0E0",
"%	g #585858",
"&	g #000000",
"*	g #545454",
"=	g #DFDFDF",
"-	g #A0A0A0",
";	g #1F1F1F",
">	g #1B1B1B",
",	g #979797",
"'	g #FAFAFA",
")	g #DDDDDD",
"!	g #4A4A4A",
"~	g #D0D0D0",
"{	g #F4F4F4",
"]	g #8B8B8B",
"^	g #0D0D0D",
"/	g #060606",
"(	g #7B7B7B",
"_	g #ECECEC",
":	g #969696",
"<	g #9B9B9B",
"[	g #595959",
"}	g #4C4C4C",
"|	g #929292",
"1	g #D6D6D6",
"2	g #B5B5B5",
"3	g #9E9E9E",
"4	g #D3D3D3",
"5	g #B4B4B4",
"6	g #F0F0F0",
"7	g #171717",
"8	g #D1D1D1",
"9	g #FCFCFC",
"0	g #383838",
"a	g #131313",
"b	g #EDEDED",
"c	g #5C5C5C",
"d	g #303030",
"e	g #7F7F7F",
"f	g #4B4B4B",
"g	g #646464",
"h	g #090909",
"i	g #898989",
"j	g #F8F8F8",
"k	g #262626",
"l	g #070707",
"m	g #D7D7D7",
"n	g #6F6F6F",
"o	g #191919",
"p	g #F2F2F2",
"q	g #939393",
"r	g #343434",
"s	g #FBFBFB",
"t	g #B7B7B7",
"u	g #4F4F4F",
"v	g #D8D8D8",
"w	g #040404",
"x	g #6A6A6A",
"y	g #242424",
"z	g #8D8D8D",
"A	g #FEFEFE",
"B	g #EEEEEE",
"...................................",
"...................................",
"...................................",
"...................................",
"...................................",
"...................................",
"...................................",
"...................................",
"...................................",
"................+@#................",
"..............$%&&&*=..............",
".............-;&&&&&>,'............",
"...........)%&&&&&&&&&!~...........",
".........{]^&&&&&&&&&&&/(_.........",
".........$::<[&&&&&&&}<,|1.........",
".............2&&&&&&&3.............",
".............4/&&&&&&5.............",
".............67&&&&&/8.............",
".............90&&&&&ab.............",
"..............c&&&&&d'.............",
"..............e&&&&&f..............",
"..............#&&&&&g..............",
"..............)h&&&&i..............",
"..............jk&&&&5..............",
"...............f&&&lm..............",
"...............n&&&op..............",
"...............q&&&rs..............",
"...............t&&&u...............",
"...............vw&&x...............",
"...............{yllz.A.............",
"...............A)44B.A.............",
"...................................",
"...................................",
"...................................",
"...................................",
"...................................",
"...................................",
"...................................",
"...................................",
"..................................."};
