/* XPM */
static char * binary_xpm[] = {
"29 31 207 2",
"  	c None",
". 	c #333333",
"+ 	c #363636",
"@ 	c #3E3E3E",
"# 	c #4B4B4B",
"$ 	c #454545",
"% 	c #3C3C3C",
"& 	c #3F3F3F",
"* 	c #4A4A4A",
"= 	c #3D3D3D",
"- 	c #5C5C5C",
"; 	c #8F8F8F",
"> 	c #8A8A8A",
", 	c #898989",
"' 	c #8C8C8C",
") 	c #909090",
"! 	c #8E8E8E",
"~ 	c #7A7A7A",
"{ 	c #575757",
"] 	c #626262",
"^ 	c #5A5A5A",
"/ 	c #494949",
"( 	c #8B8B8B",
"_ 	c #F4F4F4",
": 	c #D3D3D3",
"< 	c #CBCBCB",
"[ 	c #DBDBDB",
"} 	c #F1F1F1",
"| 	c #F7F7F7",
"1 	c #E7E7E7",
"2 	c #D1D1D1",
"3 	c #D2D2D2",
"4 	c #E8E8E8",
"5 	c #F8F8F8",
"6 	c #818181",
"7 	c #989898",
"8 	c #E1E1E1",
"9 	c #777777",
"0 	c #595959",
"a 	c #868686",
"b 	c #D7D7D7",
"c 	c #414141",
"d 	c #1E1E1E",
"e 	c #646464",
"f 	c #C3C3C3",
"g 	c #969696",
"h 	c #393939",
"i 	c #242424",
"j 	c #999999",
"k 	c #DEDEDE",
"l 	c #C6C6C6",
"m 	c #FBFBFB",
"n 	c #E6E6E6",
"o 	c #888888",
"p 	c #858585",
"q 	c #282828",
"r 	c #000000",
"s 	c #4F4F4F",
"t 	c #A9A9A9",
"u 	c #202020",
"v 	c #6B6B6B",
"w 	c #676767",
"x 	c #212121",
"y 	c #9C9C9C",
"z 	c #B5B5B5",
"A 	c #FFFFFF",
"B 	c #FCFCFC",
"C 	c #9B9B9B",
"D 	c #656565",
"E 	c #9F9F9F",
"F 	c #767676",
"G 	c #0E0E0E",
"H 	c #A2A2A2",
"I 	c #121212",
"J 	c #ADADAD",
"K 	c #D0D0D0",
"L 	c #9E9E9E",
"M 	c #717171",
"N 	c #070707",
"O 	c #ABABAB",
"P 	c #A3A3A3",
"Q 	c #1F1F1F",
"R 	c #0B0B0B",
"S 	c #757575",
"T 	c #7D7D7D",
"U 	c #CFCFCF",
"V 	c #2D2D2D",
"W 	c #A0A0A0",
"X 	c #131313",
"Y 	c #959595",
"Z 	c #171717",
"` 	c #7E7E7E",
" .	c #A6A6A6",
"..	c #5F5F5F",
"+.	c #424242",
"@.	c #6D6D6D",
"#.	c #5B5B5B",
"$.	c #686868",
"%.	c #666666",
"&.	c #555555",
"*.	c #232323",
"=.	c #2B2B2B",
"-.	c #030303",
";.	c #515151",
">.	c #ACACAC",
",.	c #A1A1A1",
"'.	c #616161",
").	c #5D5D5D",
"!.	c #A5A5A5",
"~.	c #4E4E4E",
"{.	c #111111",
"].	c #1A1A1A",
"^.	c #080808",
"/.	c #151515",
"(.	c #878787",
"_.	c #DDDDDD",
":.	c #797979",
"<.	c #CACACA",
"[.	c #DCDCDC",
"}.	c #484848",
"|.	c #585858",
"1.	c #C8C8C8",
"2.	c #3B3B3B",
"3.	c #292929",
"4.	c #272727",
"5.	c #262626",
"6.	c #1B1B1B",
"7.	c #BFBFBF",
"8.	c #E3E3E3",
"9.	c #D8D8D8",
"0.	c #CCCCCC",
"a.	c #C4C4C4",
"b.	c #C0C0C0",
"c.	c #D5D5D5",
"d.	c #ECECEC",
"e.	c #EEEEEE",
"f.	c #BEBEBE",
"g.	c #7F7F7F",
"h.	c #7B7B7B",
"i.	c #737373",
"j.	c #535353",
"k.	c #F5F5F5",
"l.	c #C9C9C9",
"m.	c #6F6F6F",
"n.	c #EBEBEB",
"o.	c #DADADA",
"p.	c #B3B3B3",
"q.	c #EAEAEA",
"r.	c #9D9D9D",
"s.	c #444444",
"t.	c #2C2C2C",
"u.	c #303030",
"v.	c #323232",
"w.	c #D9D9D9",
"x.	c #252525",
"y.	c #787878",
"z.	c #DFDFDF",
"A.	c #D6D6D6",
"B.	c #C1C1C1",
"C.	c #B4B4B4",
"D.	c #464646",
"E.	c #0F0F0F",
"F.	c #FEFEFE",
"G.	c #F6F6F6",
"H.	c #EDEDED",
"I.	c #BBBBBB",
"J.	c #565656",
"K.	c #191919",
"L.	c #747474",
"M.	c #161616",
"N.	c #474747",
"O.	c #BCBCBC",
"P.	c #404040",
"Q.	c #AEAEAE",
"R.	c #E2E2E2",
"S.	c #B2B2B2",
"T.	c #F3F3F3",
"U.	c #F0F0F0",
"V.	c #C5C5C5",
"W.	c #BABABA",
"X.	c #E0E0E0",
"Y.	c #C2C2C2",
"Z.	c #FDFDFD",
"`.	c #353535",
" +	c #919191",
".+	c #010101",
"++	c #505050",
"@+	c #A7A7A7",
"#+	c #222222",
"$+	c #343434",
"%+	c #9A9A9A",
"&+	c #181818",
"*+	c #1C1C1C",
"=+	c #828282",
"-+	c #D4D4D4",
";+	c #090909",
">+	c #AFAFAF",
",+	c #4D4D4D",
"'+	c #A8A8A8",
")+	c #545454",
"!+	c #E5E5E5",
"~+	c #FAFAFA",
"{+	c #F2F2F2",
"]+	c #F9F9F9",
"^+	c #3A3A3A",
"/+	c #7C7C7C",
"(+	c #5E5E5E",
". . . . . . . . . . . . . . . . . . . .                   ",
". + @ # # # # # # # # # # # # # $ % & *                   ",
". = - ; > , ' ; ) ! > , , > ! ) ~ { ] > ^                 ",
". / ( _ : < [ } | 1 2 < < 3 4 5 < 6 7 8 9 0               ",
". / a b c d e f [ g h i i = j k l 6 7 m n o {             ",
". / p 3 q r s t 7 h u v w x = y z 6 7 A B 3 C D           ",
". / p 3 q r s E F G x H C u I ~ J 6 7 A A 5 K L v         ",
". / p 3 q r s L M N x O P Q R S t F T 2 < U f E v V       ",
". / p 3 q r s W ~ X x C Y u Z `  ...+.@.#.$.%.&.@ *.r     ",
". / a : =.-.;.>.,.$ *.'.).i / !.>.~.{.].^.X I G {./.r     ",
". / (._.- = :.<.[.E &.}.}.|.H k 1.S & 2.3.4.5.5.i 6.r     ",
". / ( _ K 7.1.[.8.9.0.< a.b.c.d.e.[ 0.f.! g.h.~ i.j.r     ",
". / ( 5 n ,.i.$.@.! 3 k.l.h.m.J n.A A | o.p.E j ) $.r     ",
". / , q.r.s.t.h u.v.a w. .x.{.y.z.A A A m A.B.C.L $.r     ",
". / a 9.c G D.a '.E.+ C.P Q R S k A A A F.G.} 8 z $.r     ",
". / p 3 q r s L M N x O P Q R S k A A A A A A H.I.$.r     ",
". / p 3 q r s L M N x O P Q R S k A A A A A A H.I.$.r     ",
". / (.[ J.K.& L.&.M.N.O.P Q R S k A A A A A A H.I.$.r     ",
". / > d.>.0 = N.P.N.g k Q.h 4.p R.A A A A A A H.I.$.r     ",
". / ( 5 4 S.) > !  .w.T.2 Y ! 7.U.A A A A A A H.I.$.r     ",
". / > } V.W.U H.k.X.Y.W.W.f 8 G.Z.A A A A A A H.I.$.r     ",
". / a b @ ].'.b.c.! `.q 4.h  +9.| A A A A A A H.I.$.r     ",
". / p : 3..+++@+ +u.x y.i.#+$+Y n A A A A A A H.I.$.r     ",
". / p 3 q r s E F G x ,.%+Q X h.X.A A A A A A H.I.$.r     ",
". / p 3 q r s L M N x O P Q R S k A A A A A A H.I.$.r     ",
". / p 3 q r s ,.` &+u Y ; u *+=+8 A A A A A A H.I.$.r     ",
". / a -+u.;+&.>+ .,+q ..- 3.;.t n.A A A A A A H.I.$.r     ",
". / (.[.#.% :.0.8.'+)+% % { O !+~+A A A A A A H.I.$.r     ",
". / ' ~+_ {+G.B Z.]+T.{+{+T.]+Z.A A A A A A A H.I.$.r     ",
". ^+j.6 >+W.W.I.I.I.W.W.W.W.I.I.O.O.O.O.O.O.O.t /+^+r     ",
". + @ s - (+(+(+(+(+(+(+(+(+(+(+(+(+(+(+(+(+(+j.^+&+r     "};
