/* XPM */
static char * PrevCameraButton_xpm[] = {
"16 16 84 1",
" 	c None",
".	c #85B4D0",
"+	c #A5C8DD",
"@	c #A3C6DC",
"#	c #A2C7DE",
"$	c #A2C7DC",
"%	c #A4C7DE",
"&	c #A4C8DD",
"*	c #87B4D2",
"=	c #A5C9DE",
"-	c #FFFFFF",
";	c #FFFFFE",
">	c #A2C7DB",
",	c #A3C7DD",
"'	c #FEFEFE",
")	c #FDFEFE",
"!	c #9FC5DD",
"~	c #FEFEFD",
"{	c #FFFEFF",
"]	c #FEFFFF",
"^	c #FFFEFE",
"/	c #9EC4DB",
"(	c #A2C7DD",
"_	c #FEFEFF",
":	c #FEFFFE",
"<	c #FFFFFD",
"[	c #9EC5DB",
"}	c #F7AE6F",
"|	c #FBE0C8",
"1	c #FAE2CA",
"2	c #F49A48",
"3	c #FBDCC1",
"4	c #FBE3CC",
"5	c #F49E50",
"6	c #FBD7B6",
"7	c #9FC4DC",
"8	c #A2C6DD",
"9	c #F6B275",
"0	c #FAD6B6",
"a	c #F7BF8A",
"b	c #F28626",
"c	c #F0790C",
"d	c #F17A0E",
"e	c #FAD4B2",
"f	c #F7C08D",
"g	c #F18726",
"h	c #F1780C",
"i	c #F2790F",
"j	c #FAD9BA",
"k	c #9FC4DB",
"l	c #A3C7DE",
"m	c #F7B273",
"n	c #FAD5B5",
"o	c #F8BA84",
"p	c #F18522",
"q	c #F1790D",
"r	c #F9D3AF",
"s	c #F7BC88",
"t	c #F28624",
"u	c #F0780D",
"v	c #F27A0F",
"w	c #9FC5DB",
"x	c #F6B174",
"y	c #FCE1CA",
"z	c #FADDC5",
"A	c #F39743",
"B	c #FCDDC2",
"C	c #FBE1C9",
"D	c #F49B4A",
"E	c #FAD7B7",
"F	c #9EC4D9",
"G	c #FEFFFD",
"H	c #FFFEFD",
"I	c #9EC5DC",
"J	c #9FC5DA",
"K	c #A2C8DE",
"L	c #FDFFFE",
"M	c #A8CADF",
"N	c #A2C6DC",
"O	c #86B4D1",
"P	c #9EC6DC",
"Q	c #9EC5DA",
"R	c #9FC7DB",
"S	c #89B5D2",
".+@#$$$$$$$$%$&*",
"=--;---------;->",
",-''--------')-!",
"#;'~{--]-^--'';/",
"(-~_-~:~'-<~'~-[",
",;~':]^-]~''-];[",
",-}|_-123_-456-7",
"8-90abcdefghij-k",
"l-mnopqdrstuvj-w",
",-xy{]zAB]-CDE-F",
"(-]:''~--G'H]-;I",
",-~-:']^~G<'^:-J",
"K<'L^]-:-{_-'~-/",
"$<]^]------]^:-[",
"M--;-----------N",
"OJkP////////7QRS"};
