/* XPM */
static char * AccessDatabase_xpm[] = {
"32 32 335 2",
"  	c #FFFFFF",
". 	c #FDFDFD",
"+ 	c #E9E9E9",
"@ 	c #DBDBDB",
"# 	c #C0C0C0",
"$ 	c #ACACAC",
"% 	c #C1C1C1",
"& 	c #CACACA",
"* 	c #D5D5D5",
"= 	c #DFDFDF",
"- 	c #E5E5E5",
"; 	c #EEEEEE",
"> 	c #C3C3C3",
", 	c #BEBEBE",
"' 	c #D0D0D0",
") 	c #ECECEC",
"! 	c #F1F1F1",
"~ 	c #D1D1D1",
"{ 	c #D4D4D4",
"] 	c #D6D6D6",
"^ 	c #F7F7F7",
"/ 	c #C9C9C9",
"( 	c #BDBDBD",
"_ 	c #DDDDDD",
": 	c #EDEDED",
"< 	c #DCDCDC",
"[ 	c #C6C6C6",
"} 	c #919191",
"| 	c #7F7F7F",
"1 	c #D2D2D2",
"2 	c #FEFEFE",
"3 	c #CCCCCC",
"4 	c #BCBCBC",
"5 	c #EAEAEA",
"6 	c #E4E4E4",
"7 	c #E3E3E3",
"8 	c #E2E2E2",
"9 	c #CECECE",
"0 	c #C8C8C8",
"a 	c #A6A6A6",
"b 	c #949494",
"c 	c #B2B2B2",
"d 	c #B5B5B5",
"e 	c #B7B7B7",
"f 	c #E0E0E0",
"g 	c #D7D7D7",
"h 	c #F8F8F8",
"i 	c #D9D9D9",
"j 	c #AEAEAE",
"k 	c #B1B1B1",
"l 	c #BFBFBF",
"m 	c #B9B9B9",
"n 	c #DADADA",
"o 	c #DEDEDE",
"p 	c #E1E1E1",
"q 	c #E6E6E6",
"r 	c #CDCDCD",
"s 	c #E8E8E8",
"t 	c #CBCBCB",
"u 	c #8C8C8C",
"v 	c #F4F4F4",
"w 	c #F0F0F0",
"x 	c #F3F3F3",
"y 	c #F6F6F6",
"z 	c #959595",
"A 	c #767676",
"B 	c #F2F2F2",
"C 	c #C7C7C7",
"D 	c #CFCFCF",
"E 	c #FAFAFA",
"F 	c #EFEFEF",
"G 	c #A4A4A4",
"H 	c #A9A9A9",
"I 	c #D8D8D8",
"J 	c #AAAAAA",
"K 	c #A1A1A1",
"L 	c #ADADAD",
"M 	c #7D7D7D",
"N 	c #808080",
"O 	c #878787",
"P 	c #848484",
"Q 	c #929292",
"R 	c #8E8E8E",
"S 	c #FCFCFC",
"T 	c #C5C5C5",
"U 	c #707070",
"V 	c #6F6F6F",
"W 	c #717171",
"X 	c #5D5D5D",
"Y 	c #7B7B7B",
"Z 	c #F5F5F5",
"` 	c #F1F2F2",
" .	c #F3F4F4",
"..	c #F6F7F7",
"+.	c #F6F8F7",
"@.	c #F8F9F9",
"#.	c #FEFFFF",
"$.	c #EDEEEE",
"%.	c #F2F3F2",
"&.	c #F2F3F3",
"*.	c #ECEDED",
"=.	c #E7E7E7",
"-.	c #9F9F9F",
";.	c #EBEBEB",
">.	c #DCC7C8",
",.	c #C4878A",
"'.	c #C68A8D",
").	c #C88E91",
"!.	c #CF9CA0",
"~.	c #D09EA1",
"{.	c #D1A1A2",
"].	c #D0A0A2",
"^.	c #C78F92",
"/.	c #D2A6A8",
"(.	c #D3A8AA",
"_.	c #D4ABAC",
":.	c #D0A1A4",
"<.	c #C08083",
"[.	c #BABABA",
"}.	c #C4C4C4",
"|.	c #B8B8B8",
"1.	c #D1ADAF",
"2.	c #A84247",
"3.	c #B7676C",
"4.	c #BC7175",
"5.	c #C17B7E",
"6.	c #C27D81",
"7.	c #C38084",
"8.	c #BF787C",
"9.	c #BF797D",
"0.	c #C6898C",
"a.	c #C78B8F",
"b.	c #C88D90",
"c.	c #A63D43",
"d.	c #DADBDA",
"e.	c #9B9B9B",
"f.	c #9C9C9C",
"g.	c #CFACAD",
"h.	c #A4393F",
"i.	c #F7FFFF",
"j.	c #F9FCFC",
"k.	c #FCFFFF",
"l.	c #F8FBFA",
"m.	c #F4F9F9",
"n.	c #C99497",
"o.	c #CEA1A3",
"p.	c #CDA0A2",
"q.	c #CEA0A3",
"r.	c #E6E5E5",
"s.	c #D2B7B9",
"t.	c #A53B40",
"u.	c #DDDCDC",
"v.	c #F1F2F1",
"w.	c #E2E3E2",
"x.	c #858585",
"y.	c #CDAAAC",
"z.	c #A53A3F",
"A.	c #EDF3F3",
"B.	c #F2F5F4",
"C.	c #BF7A7E",
"D.	c #AC4B50",
"E.	c #B76467",
"F.	c #BA6C70",
"G.	c #BE7A7D",
"H.	c #C17F82",
"I.	c #CAB0B1",
"J.	c #A63B40",
"K.	c #DCDCDB",
"L.	c #EEEFEE",
"M.	c #CFD0CF",
"N.	c #8F8F8F",
"O.	c #D3D3D3",
"P.	c #C5A1A3",
"Q.	c #E8EEEE",
"R.	c #AA474C",
"S.	c #AF5257",
"T.	c #B45D62",
"U.	c #BE7F82",
"V.	c #CFB9BA",
"W.	c #C5ADAE",
"X.	c #A63C41",
"Y.	c #D4D3D3",
"Z.	c #EDEEED",
"`.	c #8D8D8D",
" +	c #9A9A9A",
".+	c #C29EA0",
"++	c #A73E43",
"@+	c #E1E7E7",
"#+	c #E1DCDC",
"$+	c #A84348",
"%+	c #AF5459",
"&+	c #B1585D",
"*+	c #B25A5F",
"=+	c #B25B60",
"-+	c #B26266",
";+	c #C5AEAF",
">+	c #A23C41",
",+	c #CECDCD",
"'+	c #ECEDEC",
")+	c #A3A3A3",
"!+	c #939393",
"~+	c #8B8B8B",
"{+	c #797979",
"]+	c #CBACAE",
"^+	c #B96569",
"/+	c #E1E6E6",
"(+	c #DFE0E0",
"_+	c #CAAAAB",
":+	c #A7464B",
"<+	c #AC5358",
"[+	c #AB5156",
"}+	c #AB5458",
"|+	c #B57175",
"1+	c #B57A7D",
"2+	c #C3ADAE",
"3+	c #A3484D",
"4+	c #DBDADA",
"5+	c #F0F1F0",
"6+	c #E5E6E5",
"7+	c #D1D2D1",
"8+	c #909090",
"9+	c #CAAEAF",
"0+	c #B8676B",
"a+	c #DDE2E1",
"b+	c #DDDEDE",
"c+	c #D1B8B9",
"d+	c #BA7376",
"e+	c #B46A6E",
"f+	c #C2999B",
"g+	c #C3A2A3",
"h+	c #C5A6A7",
"i+	c #C5A4A5",
"j+	c #BC898D",
"k+	c #D5C6C7",
"l+	c #BE8588",
"m+	c #D2D4D2",
"n+	c #A0A0A0",
"o+	c #838383",
"p+	c #C9AEB0",
"q+	c #B16165",
"r+	c #DCE1E1",
"s+	c #CCB3B4",
"t+	c #B46D72",
"u+	c #B36E72",
"v+	c #CEB5B6",
"w+	c #BC8387",
"x+	c #C19295",
"y+	c #CAAAAC",
"z+	c #CDB1B3",
"A+	c #DEE0DF",
"B+	c #D3C3C4",
"C+	c #B47B7F",
"D+	c #DEDDDE",
"E+	c #E1E3E1",
"F+	c #CACDCA",
"G+	c #BDBFBD",
"H+	c #7D7C7D",
"I+	c #676767",
"J+	c #C6ACAE",
"K+	c #A95A5F",
"L+	c #DCE3E2",
"M+	c #AA6164",
"N+	c #AD696D",
"O+	c #C7AFB1",
"P+	c #B3797D",
"Q+	c #D6CFCF",
"R+	c #CFBFC0",
"S+	c #AB7478",
"T+	c #DCDBDC",
"U+	c #F5F6F5",
"V+	c #E7E8E7",
"W+	c #C6C9C6",
"X+	c #C7CAC7",
"Y+	c #C3C6C3",
"Z+	c #B3B6B3",
"`+	c #AEB1AE",
" @	c #C4AAAC",
".@	c #A0545A",
"+@	c #DAE1E0",
"@@	c #A0585D",
"#@	c #C3AAAB",
"$@	c #A5676A",
"%@	c #D6D3D3",
"&@	c #CABCBD",
"*@	c #A16D71",
"=@	c #F9F9F9",
"-@	c #C2AAAC",
";@	c #9A5459",
">@	c #DBE1E1",
",@	c #A36C70",
"'@	c #9C6165",
")@	c #D1CBCB",
"!@	c #D7D8D8",
"~@	c #C6B9BA",
"{@	c #97676B",
"]@	c #BFAAAC",
"^@	c #96585D",
"/@	c #B5989B",
"(@	c #B59A9D",
"_@	c #B19699",
":@	c #B19598",
"<@	c #B2979A",
"[@	c #B2999C",
"}@	c #B39B9E",
"|@	c #AD9598",
"1@	c #AE9899",
"2@	c #A68A8D",
"3@	c #8C6266",
"4@	c #D5D4D4",
"5@	c #BFAEB0",
"6@	c #99696E",
"7@	c #986B70",
"8@	c #976A6F",
"9@	c #92666B",
"0@	c #956B70",
"a@	c #936B70",
"b@	c #926B70",
"c@	c #916C70",
"d@	c #916E72",
"e@	c #8A666A",
"f@	c #8C696E",
"g@	c #8C6C70",
"h@	c #896A6D",
"i@	c #D2D1D1",
"j@	c #D4D5D4",
"k@	c #D7D9D9",
"l@	c #D8DADA",
"m@	c #D6D9D8",
"n@	c #D9DBDB",
"o@	c #D8D9D9",
"p@	c #D6D8D8",
"q@	c #D4D5D5",
"r@	c #D3D5D5",
"s@	c #D3D5D4",
"t@	c #FBFBFB",
"                                                                ",
"                                                                ",
"            . + @ # $ % & * = - ;                               ",
"        . @ # > , ' ) ! + @ ~ { ] @ -                           ",
"      ^ / ( _ + + : - < ~ [ ( } | : ; 1 2                       ",
"      3 4 5 6 7 8 @ * 9 / 0 a b c d e f g                       ",
"    h 3 [ ~ ] i * { * ] * ( j k [ l m l 0                       ",
"    ) 9 m 3 1 * n o p 8 ~ [ ( ' 3 [ c # [                       ",
"    q * 6 r * < 8 s ) q _ ] * n 1 t ( @ u                       ",
"    v o [ ) p f s w x y ) f - < g p @ z A                       ",
"    B # y C D 5 x : ; ! E F ) : _ 4 G H &                       ",
"    p I C i D J K L / @ & | u M N O P Q R h ^ ^ ^ ^ ^ h y h S   ",
"    ; p T g 0 c R U V W X Y Z `  ...+.@.#...x $.%.&.x x *.^ 5   ",
"    ! o B [ ] =.p 9 # ( -.} ;.>.,.'.).!.~.{.].^./.(._.:.<.=.+   ",
"    = - p ; D [.}.i =.;.|.b q 1.2.3.4.5.6.7.8.9.0.a.b.4.c.p q   ",
"  S d.s f f n / c e.f.K N | 8 g.h.i.j.k.l.m.n.o.p.q.r.s.t.u.q   ",
"2 v.w.n ; g ;.s n C [.d R x.p y.z.A.F x B.C.D.E.F.G.H.I.J.K.s   ",
"E L.M._ o : 3 / 1 i 6 ) |.N.O.P.t.Q.+ ) A.R.S.T.U.V.F.W.X.Y.+   ",
"h Z.M.- @ * 9 ( -.`.b  +M Y 1 .+++@+7 6 #+$+%+&+*+=+-+;+>+,+7   ",
"E '+s { _ { - ] % )+!+~+W {+] ]+^+/+f (+_+:+<+[+}+|+1+2+3+4++   ",
"  5+6+7+f p > C { 8 x Z ( 8+I 9+0+a+b+c+d+e+f+g+h+i+j+k+l+f s   ",
"  S Z.p m+3 / k b P N.n+o+Y g p+q+r+s+t+u+v+w+x+y+z+A+B+C+D+q   ",
"    2 %.E+o F+G+a u H+Y I+A ] J+K+L+M+N+O+P+Q+b+< _ < R+S+T+7   ",
"        . U+V+@ * W+X+Y+Z+`+]  @.@+@@@#@$@%@n @ @ n n &@*@n f   ",
"              2 S =@^ y y s { -@;@>@,@'@)@I I i i !@g ~@{@g _   ",
"                          ) { ]@^@/@(@_@:@:@<@[@}@|@1@2@3@4@n   ",
"                          ) { 5@6@7@8@9@0@a@b@c@d@e@f@g@h@i@I   ",
"                          ) ! j@k@l@m@l@l@n@l@o@p@q@r@s@q@' {   ",
"                          t@f o o o = f f f = = _ < n i I I ;.  ",
"                          v = 8 6 q =.s =.q 6 7 p o < i n < =.  ",
"                          =@: ; F w ! ! ! w F ; : ) 5 + 5 ;.!   ",
"                          t@Z y y ^ ^ ^ ^ ^ y y Z v v x x v ^   "};
