/* XPM */
static char * pitch_down_xpm[] = {
"35 40 77 1",
" 	g None",
".	g #FFFFFF",
"+	g #D8D8D8",
"@	g #828282",
"#	g #646464",
"$	g #5F5F5F",
"%	g #595959",
"&	g #5D5D5D",
"*	g #636363",
"=	g #767676",
"-	g #C3C3C3",
";	g #A7A7A7",
">	g #151515",
",	g #000000",
"'	g #7C7C7C",
")	g #202020",
"!	g #060606",
"~	g #818181",
"{	g #BCBCBC",
"]	g #070707",
"^	g #020202",
"/	g #A5A5A5",
"(	g #D4D4D4",
"_	g #141414",
":	g #909090",
"<	g #F1F1F1",
"[	g #292929",
"}	g #5C5C5C",
"|	g #8C8C8C",
"1	g #0D0D0D",
"2	g #D6D6D6",
"3	g #9B9B9B",
"4	g #090909",
"5	g #232323",
"6	g #626262",
"7	g #FDFDFD",
"8	g #3D3D3D",
"9	g #4F4F4F",
"0	g #7D7D7D",
"a	g #101010",
"b	g #E3E3E3",
"c	g #9D9D9D",
"d	g #CACACA",
"e	g #040404",
"f	g #9C9C9C",
"g	g #0B0B0B",
"h	g #E2E2E2",
"i	g #FEFEFE",
"j	g #F8F8F8",
"k	g #262626",
"l	g #FBFBFB",
"m	g #898989",
"n	g #2B2B2B",
"o	g #6F6F6F",
"p	g #E9E9E9",
"q	g #565656",
"r	g #2D2D2D",
"s	g #F9F9F9",
"t	g #B7B7B7",
"u	g #A0A0A0",
"v	g #FCFCFC",
"w	g #787878",
"x	g #EBEBEB",
"y	g #ADADAD",
"z	g #B5B5B5",
"A	g #8F8F8F",
"B	g #D5D5D5",
"C	g #888888",
"D	g #191919",
"E	g #BABABA",
"F	g #9A9A9A",
"G	g #C5C5C5",
"H	g #DBDBDB",
"I	g #DCDCDC",
"J	g #9E9E9E",
"K	g #9F9F9F",
"L	g #E8E8E8",
"...................................",
"...................................",
"...................................",
"...................................",
"...................................",
"...................................",
"...................................",
"...................................",
"...................................",
"...................................",
"...................................",
"...................................",
"...........+@#$%&*=-...............",
"..........;>,,,'),,!~..............",
".........{],,^/.(_,,,:.............",
"........<[,,,}...|,,,12............",
"........3,,,4(...<5,,,6............",
".......78,,,9.....0,,,ab...........",
".......2!,,,c.....de,,,f...........",
".......3,,,ghi....jk,,,&...........",
".....lmn,,,]op.....q,,,rs..........",
"......t4,,,guv.....w,,,ax..........",
".......y!,az.......A,,,]B..........",
"........CDE........F,,,,G..........",
"........lH.........IJKKuL..........",
"...................................",
"...................................",
"...................................",
"...................................",
"...................................",
"...................................",
"...................................",
"...................................",
"...................................",
"...................................",
"...................................",
"...................................",
"...................................",
"...................................",
"..................................."};
