# Wavefront OBJ generated by GLM library

# Created by Josh Koch
# jbkoch@iastate.edu
# Hyper Project
# Red.obj


# 221 vertices
v -1213.355469 205.136566 213.925797
v 820.125427 229.953415 213.925797
v 820.125122 229.977707 214.079132
v -1213.355713 205.160843 214.079132
v 820.124268 230.048172 214.217453
v -1213.356567 205.231323 214.217453
v 820.122925 230.157944 214.327225
v -1213.357910 205.341080 214.327225
v 820.121216 230.296249 214.397705
v -1213.359619 205.479401 214.397705
v 820.119385 230.449570 214.421997
v -1213.361450 205.632721 214.421997
v 820.117493 230.602890 214.397705
v -1213.363403 205.786041 214.397705
v 820.115784 230.741196 214.327225
v -1213.365112 205.924347 214.327225
v 820.114502 230.850967 214.217453
v -1213.366333 206.034119 214.217453
v 820.117493 230.602890 213.453903
v -1213.363403 205.786041 213.453903
v -1213.365112 205.924347 213.524368
v 820.115784 230.741196 213.524368
v 820.121216 230.296249 213.453903
v -1213.359619 205.479401 213.453903
v -1213.361450 205.632721 213.429611
v 820.119385 230.449570 213.429611
v -1213.366333 206.034119 213.634155
v 820.114502 230.850967 213.634155
v 820.113586 230.921448 213.772476
v -1213.367310 206.104584 213.772476
v -1213.367554 206.128876 213.925797
v 820.113342 230.945724 213.925797
v 820.124268 230.048172 213.634155
v -1213.356567 205.231323 213.634155
v -1213.357910 205.341080 213.524368
v 820.122925 230.157944 213.524368
v -1213.367310 206.104584 214.079132
v 820.113586 230.921448 214.079132
v 820.125122 229.977707 213.772476
v -1213.355713 205.160843 213.772476
v -117.532394 59.005703 215.529236
v -117.676613 59.146446 215.529236
v -117.433868 58.429241 215.529236
v -117.404770 58.628647 215.529236
v -117.132248 58.335293 215.440567
v -117.088882 58.632500 215.440567
v -117.132248 58.335293 215.120575
v -117.433868 58.429241 215.031906
v -117.404770 58.628647 215.031906
v -117.088882 58.632500 215.120575
v -117.740166 58.524647 214.978439
v -117.725563 58.624729 214.978439
v -118.048813 58.620785 214.960571
v -117.279099 59.194496 215.440567
v -117.494057 59.404270 215.440567
v -117.523155 58.248589 215.529236
v -117.265327 58.066032 215.440567
v -117.265327 58.066032 215.120575
v -117.523155 58.248589 215.031906
v -117.784981 58.433975 214.978439
v -117.663895 58.104366 215.529236
v -117.475105 57.851074 215.440567
v -117.475105 57.851074 215.120575
v -117.663895 58.104366 215.031906
v -117.855621 58.361588 214.978439
v -117.279099 59.194496 215.120575
v -117.532394 59.005703 215.031906
v -117.676613 59.146446 215.031906
v -117.494057 59.404270 215.120575
v -117.842316 58.010696 215.529236
v -117.741035 57.711460 215.440567
v -117.741035 57.711460 215.120575
v -117.842316 58.010696 215.031906
v -117.945168 58.314575 214.978439
v -117.789619 58.813980 214.978439
v -117.862000 58.884621 214.978439
v -118.040955 57.976746 215.529236
v -118.037094 57.660858 215.440567
v -118.037094 57.660858 215.120575
v -118.040955 57.976746 215.031906
v -118.044868 58.297535 214.978439
v -118.240356 58.005836 215.529236
v -118.334305 57.704220 215.440567
v -118.334305 57.704220 215.120575
v -118.240356 58.005836 215.031906
v -118.144951 58.312138 214.978439
v -117.438721 58.827278 215.529236
v -118.421013 58.095127 215.529236
v -118.603569 57.837299 215.440567
v -118.603569 57.837299 215.120575
v -118.421013 58.095127 215.031906
v -118.235626 58.356953 214.978439
v -117.139488 58.928562 215.440567
v -118.565231 58.235870 215.529236
v -118.818527 58.047077 215.440567
v -118.818527 58.047077 215.120575
v -118.565231 58.235870 215.031906
v -118.308006 58.427593 214.978439
v -118.658905 58.414291 215.529236
v -118.958138 58.313011 215.440567
v -118.958138 58.313011 215.120575
v -118.658905 58.414291 215.031906
v -118.355026 58.517143 214.978439
v -117.139488 58.928562 215.120575
v -117.438721 58.827278 215.031906
v -118.692856 58.612926 215.529236
v -119.008743 58.609070 215.440567
v -119.008743 58.609070 215.120575
v -118.692856 58.612926 215.031906
v -118.372063 58.616840 214.978439
v -117.742599 58.724426 214.978439
v -118.663757 58.812328 215.529236
v -118.965378 58.906277 215.440567
v -118.965378 58.906277 215.120575
v -118.663757 58.812328 215.031906
v -118.357460 58.716923 214.978439
v -118.574471 58.992985 215.529236
v -118.832298 59.175541 215.440567
v -118.832298 59.175541 215.120575
v -118.574471 58.992985 215.031906
v -118.312645 58.807594 214.978439
v -118.433731 59.137203 215.529236
v -118.622520 59.390499 215.440567
v -118.622520 59.390499 215.120575
v -118.433731 59.137203 215.031906
v -118.242004 58.879982 214.978439
v -118.255310 59.230877 215.529236
v -118.356590 59.530113 215.440567
v -118.356590 59.530113 215.120575
v -118.255310 59.230877 215.031906
v -118.152451 58.926994 214.978439
v -118.056671 59.264824 215.529236
v -118.060524 59.580715 215.440567
v -118.060524 59.580715 215.120575
v -118.056671 59.264824 215.031906
v -118.052757 58.944035 214.978439
v -117.857269 59.235733 215.529236
v -117.763321 59.537354 215.440567
v -117.763321 59.537354 215.120575
v -117.857269 59.235733 215.031906
v -117.952675 58.929432 214.978439
v -117.789619 58.813980 215.832611
v -117.532394 59.005703 215.529236
v -117.676613 59.146446 215.529236
v -117.862000 58.884621 215.832611
v -117.740166 58.524647 215.832611
v -117.433868 58.429241 215.529236
v -117.404770 58.628647 215.529236
v -117.725563 58.624729 215.832611
v -117.132248 58.335293 215.440567
v -117.132248 58.335293 215.120575
v -117.088882 58.632500 215.120575
v -117.088882 58.632500 215.440567
v -117.784981 58.433975 215.832611
v -117.523155 58.248589 215.529236
v -117.265327 58.066032 215.440567
v -117.265327 58.066032 215.120575
v -117.279099 59.194496 215.440567
v -117.279099 59.194496 215.120575
v -117.494057 59.404270 215.120575
v -117.494057 59.404270 215.440567
v -117.855621 58.361588 215.832611
v -117.663895 58.104366 215.529236
v -117.475105 57.851074 215.440567
v -117.475105 57.851074 215.120575
v -117.945168 58.314575 215.832611
v -117.842316 58.010696 215.529236
v -117.741035 57.711460 215.440567
v -117.741035 57.711460 215.120575
v -118.044868 58.297535 215.832611
v -118.040955 57.976746 215.529236
v -118.037094 57.660858 215.440567
v -118.037094 57.660858 215.120575
v -118.144951 58.312138 215.832611
v -118.240356 58.005836 215.529236
v -118.334305 57.704220 215.440567
v -118.334305 57.704220 215.120575
v -117.742599 58.724426 215.832611
v -117.438721 58.827278 215.529236
v -118.235626 58.356953 215.832611
v -118.421013 58.095127 215.529236
v -118.603569 57.837299 215.440567
v -118.603569 57.837299 215.120575
v -118.308006 58.427593 215.832611
v -118.565231 58.235870 215.529236
v -118.818527 58.047077 215.440567
v -118.818527 58.047077 215.120575
v -117.139488 58.928562 215.440567
v -117.139488 58.928562 215.120575
v -118.355026 58.517143 215.832611
v -118.658905 58.414291 215.529236
v -118.958138 58.313011 215.440567
v -118.958138 58.313011 215.120575
v -118.372063 58.616840 215.832611
v -118.692856 58.612926 215.529236
v -119.008743 58.609070 215.440567
v -119.008743 58.609070 215.120575
v -118.357460 58.716923 215.832611
v -118.663757 58.812328 215.529236
v -118.965378 58.906277 215.440567
v -118.965378 58.906277 215.120575
v -118.312645 58.807594 215.832611
v -118.574471 58.992985 215.529236
v -118.832298 59.175541 215.440567
v -118.832298 59.175541 215.120575
v -118.242004 58.879982 215.832611
v -118.433731 59.137203 215.529236
v -118.622520 59.390499 215.440567
v -118.622520 59.390499 215.120575
v -118.152451 58.926994 215.832611
v -118.255310 59.230877 215.529236
v -118.356590 59.530113 215.440567
v -118.356590 59.530113 215.120575
v -118.052757 58.944035 215.832611
v -118.056671 59.264824 215.529236
v -118.060524 59.580715 215.440567
v -118.060524 59.580715 215.120575
v -117.952675 58.929432 215.832611
v -117.857269 59.235733 215.529236
v -117.763321 59.537354 215.440567
v -117.763321 59.537354 215.120575

# 221 normals
vn 0.012186 -0.998533 -0.052748
vn 0.012186 -0.998536 0.052699
vn 0.011391 -0.933367 0.358743
vn 0.011789 -0.965950 0.258460
vn 0.009481 -0.776853 0.629610
vn 0.010237 -0.838824 0.544306
vn 0.006642 -0.544267 0.838886
vn 0.007683 -0.629568 0.776908
vn 0.003154 -0.258463 0.966016
vn 0.004378 -0.358718 0.933436
vn 0.000000 -0.000000 1.000000
vn 0.000000 -0.000001 1.000000
vn -0.003771 0.309027 0.951046
vn -0.003771 0.309026 0.951046
vn -0.007683 0.629564 0.776911
vn -0.006642 0.544281 0.838876
vn -0.009872 0.808933 0.587818
vn -0.009872 0.808946 0.587801
vn -0.003154 0.258435 -0.966024
vn -0.004377 0.358676 -0.933452
vn -0.007173 0.587733 -0.809023
vn -0.007173 0.587732 -0.809024
vn 0.004377 -0.358663 -0.933457
vn 0.003154 -0.258421 -0.966027
vn -0.000644 0.052731 -0.998609
vn 0.000644 -0.052732 -0.998608
vn -0.009873 0.808966 -0.587772
vn -0.009873 0.808953 -0.587790
vn -0.011606 0.950983 -0.309026
vn -0.011606 0.950982 -0.309029
vn -0.012203 0.999926 -0.000008
vn -0.012203 0.999926 -0.000008
vn 0.010237 -0.838824 -0.544306
vn 0.009481 -0.776864 -0.629597
vn 0.006642 -0.544256 -0.838893
vn 0.007684 -0.629593 -0.776887
vn -0.011606 0.950984 0.309022
vn -0.011606 0.950985 0.309018
vn 0.011789 -0.965955 -0.258442
vn 0.011391 -0.933377 -0.358717
vn 0.208121 0.172916 0.962697
vn 0.144501 0.228766 0.962697
vn 0.262222 -0.066739 0.962697
vn 0.270013 0.017561 0.962697
vn 0.253737 -0.093976 0.962697
vn 0.270359 -0.010970 0.962697
vn 0.253737 -0.093976 -0.962697
vn 0.208602 -0.062051 -0.976030
vn 0.217567 0.005449 -0.976030
vn 0.270359 -0.010970 -0.962697
vn 0.116958 -0.030970 -0.992654
vn 0.120804 0.006687 -0.992654
vn -0.000000 0.000000 -1.000000
vn 0.225171 0.150040 0.962697
vn 0.167786 0.212279 0.962697
vn 0.228766 -0.144498 0.962697
vn 0.212280 -0.167785 0.962697
vn 0.212280 -0.167785 -0.962697
vn 0.179219 -0.123471 -0.976030
vn 0.101665 -0.065595 -0.992654
vn 0.172918 -0.208121 0.962697
vn 0.150042 -0.225174 0.962696
vn 0.150042 -0.225174 -0.962696
vn 0.132293 -0.172811 -0.976030
vn 0.076419 -0.093800 -0.992654
vn 0.225171 0.150040 -0.962697
vn 0.172810 0.132292 -0.976030
vn 0.123474 0.179218 -0.976030
vn 0.167786 0.212279 -0.962697
vn 0.100141 -0.251370 0.962697
vn 0.073116 -0.260516 0.962697
vn 0.073116 -0.260516 -0.962697
vn 0.072415 -0.205235 -0.976030
vn 0.043692 -0.112824 -0.992654
vn 0.093801 0.076418 -0.992654
vn 0.065595 0.101664 -0.992654
vn 0.017562 -0.270012 0.962697
vn -0.010966 -0.270361 0.962697
vn -0.010966 -0.270361 -0.962697
vn 0.005450 -0.217567 -0.976030
vn 0.006688 -0.120804 -0.992654
vn -0.066736 -0.262225 0.962696
vn -0.093976 -0.253739 0.962697
vn -0.093976 -0.253739 -0.962697
vn -0.062048 -0.208603 -0.976030
vn -0.030968 -0.116958 -0.992654
vn 0.251370 0.100141 0.962697
vn -0.144501 -0.228766 0.962697
vn -0.167785 -0.212277 0.962697
vn -0.167785 -0.212277 -0.962697
vn -0.123474 -0.179217 -0.976030
vn -0.065597 -0.101663 -0.992654
vn 0.260518 0.073116 0.962696
vn -0.208120 -0.172916 0.962697
vn -0.225172 -0.150041 0.962697
vn -0.225172 -0.150041 -0.962697
vn -0.172810 -0.132293 -0.976030
vn -0.093801 -0.076419 -0.992654
vn -0.251370 -0.100141 0.962697
vn -0.260519 -0.073117 0.962696
vn -0.260519 -0.073117 -0.962696
vn -0.205234 -0.072415 -0.976030
vn -0.112823 -0.043693 -0.992654
vn 0.260518 0.073116 -0.962696
vn 0.205234 0.072415 -0.976030
vn -0.270013 -0.017560 0.962696
vn -0.270360 0.010970 0.962697
vn -0.270360 0.010970 -0.962697
vn -0.217567 -0.005448 -0.976030
vn -0.120804 -0.006687 -0.992654
vn 0.112823 0.043692 -0.992654
vn -0.262223 0.066739 0.962697
vn -0.253738 0.093975 0.962697
vn -0.253738 0.093975 -0.962697
vn -0.208602 0.062051 -0.976030
vn -0.116958 0.030971 -0.992654
vn -0.228766 0.144498 0.962697
vn -0.212279 0.167785 0.962697
vn -0.212279 0.167785 -0.962697
vn -0.179219 0.123471 -0.976031
vn -0.101664 0.065595 -0.992654
vn -0.172917 0.208120 0.962697
vn -0.150042 0.225171 0.962697
vn -0.150042 0.225171 -0.962697
vn -0.132292 0.172811 -0.976030
vn -0.076417 0.093801 -0.992654
vn -0.100140 0.251369 0.962697
vn -0.073114 0.260516 0.962697
vn -0.073114 0.260516 -0.962697
vn -0.072415 0.205233 -0.976030
vn -0.043692 0.112824 -0.992654
vn -0.017560 0.270011 0.962697
vn 0.010967 0.270358 0.962697
vn 0.010967 0.270358 -0.962697
vn -0.005449 0.217566 -0.976030
vn -0.006688 0.120803 -0.992654
vn 0.066734 0.262222 0.962697
vn 0.093975 0.253738 0.962697
vn 0.093975 0.253738 -0.962697
vn 0.062046 0.208602 -0.976030
vn 0.030967 0.116959 -0.992654
vn 0.528869 0.439405 0.726100
vn 0.572189 0.381283 0.726101
vn 0.426376 0.539427 0.726101
vn 0.367195 0.581329 0.726102
vn 0.666345 -0.169595 0.726100
vn 0.644785 -0.238815 0.726099
vn 0.687020 -0.027876 0.726103
vn 0.686138 0.044618 0.726102
vn 0.937750 -0.347311 0.000000
vn 0.969106 -0.246644 0.000000
vn 0.997891 0.064907 0.000000
vn 0.999178 -0.040536 0.000000
vn 0.581331 -0.367198 0.726099
vn 0.539438 -0.426363 0.726100
vn 0.784527 -0.620095 0.000000
vn 0.845461 -0.534037 0.000000
vn 0.832179 0.554507 0.000000
vn 0.769163 0.639052 0.000000
vn 0.534037 0.845461 0.000000
vn 0.620092 0.784529 0.000000
vn 0.439413 -0.528861 0.726101
vn 0.381281 -0.572191 0.726101
vn 0.554514 -0.832175 0.000000
vn 0.639052 -0.769163 0.000000
vn 0.254472 -0.638766 0.726100
vn 0.185796 -0.662011 0.726100
vn 0.270218 -0.962799 0.000000
vn 0.370097 -0.928993 0.000000
vn 0.044624 -0.686140 0.726100
vn -0.027869 -0.687023 0.726101
vn -0.040529 -0.999178 0.000000
vn 0.064904 -0.997891 0.000000
vn -0.169583 -0.666347 0.726102
vn -0.238804 -0.644785 0.726102
vn -0.347303 -0.937753 0.000000
vn -0.246633 -0.969109 0.000000
vn 0.638764 0.254473 0.726102
vn 0.662011 0.185792 0.726101
vn -0.367206 -0.581324 0.726101
vn -0.426379 -0.539425 0.726101
vn -0.620094 -0.784528 0.000000
vn -0.534033 -0.845463 0.000000
vn -0.528866 -0.439408 0.726100
vn -0.572186 -0.381288 0.726101
vn -0.832181 -0.554504 0.000000
vn -0.769167 -0.639048 0.000000
vn 0.962799 0.270219 0.000000
vn 0.928996 0.370089 0.000000
vn -0.638761 -0.254479 0.726103
vn -0.662011 -0.185793 0.726101
vn -0.962799 -0.270220 0.000000
vn -0.928996 -0.370090 0.000000
vn -0.686138 -0.044617 0.726102
vn -0.687020 0.027877 0.726103
vn -0.999178 0.040535 0.000000
vn -0.997891 -0.064908 0.000000
vn -0.666345 0.169596 0.726101
vn -0.644785 0.238813 0.726099
vn -0.937751 0.347307 0.000000
vn -0.969107 0.246642 0.000000
vn -0.581331 0.367195 0.726101
vn -0.539435 0.426363 0.726102
vn -0.784528 0.620094 0.000000
vn -0.845463 0.534033 0.000000
vn -0.439403 0.528867 0.726102
vn -0.381274 0.572193 0.726103
vn -0.554514 0.832175 0.000000
vn -0.639052 0.769163 0.000000
vn -0.254470 0.638763 0.726103
vn -0.185796 0.662006 0.726105
vn -0.270215 0.962800 0.000000
vn -0.370095 0.928994 0.000000
vn -0.044622 0.686137 0.726102
vn 0.027874 0.687023 0.726101
vn 0.040533 0.999178 0.000000
vn -0.064900 0.997892 0.000000
vn 0.169576 0.666349 0.726101
vn 0.238793 0.644790 0.726102
vn 0.347311 0.937750 0.000000
vn 0.246639 0.969107 0.000000

# 1 groups
# 260 faces (triangles)

g default
f 1//1 2//2 4//4
f 2//2 3//3 4//4
f 4//4 3//3 6//6
f 3//3 5//5 6//6
f 6//6 5//5 8//8
f 5//5 7//7 8//8
f 8//8 7//7 10//10
f 7//7 9//9 10//10
f 10//10 9//9 12//12
f 9//9 11//11 12//12
f 11//11 13//13 12//12
f 12//12 13//13 14//14
f 14//14 13//13 16//16
f 13//13 15//15 16//16
f 16//16 15//15 18//18
f 15//15 17//17 18//18
f 19//19 20//20 22//22
f 20//20 21//21 22//22
f 23//23 24//24 26//26
f 24//24 25//25 26//26
f 21//21 27//27 22//22
f 22//22 27//27 28//28
f 30//30 31//31 29//29
f 29//29 31//31 32//32
f 28//28 27//27 29//29
f 27//27 30//30 29//29
f 33//33 34//34 36//36
f 34//34 35//35 36//36
f 32//32 31//31 38//38
f 31//31 37//37 38//38
f 26//26 25//25 19//19
f 25//25 20//20 19//19
f 36//36 35//35 23//23
f 35//35 24//24 23//23
f 39//39 40//40 33//33
f 40//40 34//34 33//33
f 37//37 18//18 38//38
f 38//38 18//18 17//17
f 2//2 1//1 39//39
f 1//1 40//40 39//39
f 45//45 46//46 43//43
f 43//43 46//46 44//44
f 47//47 48//48 50//50
f 48//48 49//49 50//50
f 48//48 51//51 49//49
f 51//51 52//52 49//49
f 51//51 53//53 52//52
f 54//54 55//55 41//41
f 41//41 55//55 42//42
f 57//57 45//45 56//56
f 56//56 45//45 43//43
f 58//58 59//59 47//47
f 59//59 48//48 47//47
f 59//59 60//60 48//48
f 60//60 51//51 48//48
f 60//60 53//53 51//51
f 62//62 57//57 61//61
f 61//61 57//57 56//56
f 63//63 64//64 58//58
f 64//64 59//59 58//58
f 64//64 65//65 59//59
f 65//65 60//60 59//59
f 65//65 53//53 60//60
f 66//66 67//67 69//69
f 67//67 68//68 69//69
f 71//71 62//62 70//70
f 70//70 62//62 61//61
f 72//72 73//73 63//63
f 73//73 64//64 63//63
f 73//73 74//74 64//64
f 74//74 65//65 64//64
f 74//74 53//53 65//65
f 67//67 75//75 68//68
f 75//75 76//76 68//68
f 78//78 71//71 77//77
f 77//77 71//71 70//70
f 79//79 80//80 72//72
f 80//80 73//73 72//72
f 80//80 81//81 73//73
f 81//81 74//74 73//73
f 81//81 53//53 74//74
f 75//75 53//53 76//76
f 83//83 78//78 82//82
f 82//82 78//78 77//77
f 84//84 85//85 79//79
f 85//85 80//80 79//79
f 85//85 86//86 80//80
f 86//86 81//81 80//80
f 86//86 53//53 81//81
f 89//89 83//83 88//88
f 88//88 83//83 82//82
f 90//90 91//91 84//84
f 91//91 85//85 84//84
f 91//91 92//92 85//85
f 92//92 86//86 85//85
f 92//92 53//53 86//86
f 93//93 54//54 87//87
f 87//87 54//54 41//41
f 95//95 89//89 94//94
f 94//94 89//89 88//88
f 96//96 97//97 90//90
f 97//97 91//91 90//90
f 97//97 98//98 91//91
f 98//98 92//92 91//91
f 98//98 53//53 92//92
f 100//100 95//95 99//99
f 99//99 95//95 94//94
f 101//101 102//102 96//96
f 102//102 97//97 96//96
f 102//102 103//103 97//97
f 103//103 98//98 97//97
f 103//103 53//53 98//98
f 104//104 105//105 66//66
f 105//105 67//67 66//66
f 107//107 100//100 106//106
f 106//106 100//100 99//99
f 108//108 109//109 101//101
f 109//109 102//102 101//101
f 109//109 110//110 102//102
f 110//110 103//103 102//102
f 110//110 53//53 103//103
f 105//105 111//111 67//67
f 111//111 75//75 67//67
f 113//113 107//107 112//112
f 112//112 107//107 106//106
f 114//114 115//115 108//108
f 115//115 109//109 108//108
f 115//115 116//116 109//109
f 116//116 110//110 109//109
f 116//116 53//53 110//110
f 111//111 53//53 75//75
f 118//118 113//113 117//117
f 117//117 113//113 112//112
f 119//119 120//120 114//114
f 120//120 115//115 114//114
f 120//120 121//121 115//115
f 121//121 116//116 115//115
f 121//121 53//53 116//116
f 123//123 118//118 122//122
f 122//122 118//118 117//117
f 124//124 125//125 119//119
f 125//125 120//120 119//119
f 125//125 126//126 120//120
f 126//126 121//121 120//120
f 126//126 53//53 121//121
f 46//46 93//93 44//44
f 44//44 93//93 87//87
f 128//128 123//123 127//127
f 127//127 123//123 122//122
f 129//129 130//130 124//124
f 130//130 125//125 124//124
f 130//130 131//131 125//125
f 131//131 126//126 125//125
f 131//131 53//53 126//126
f 133//133 128//128 132//132
f 132//132 128//128 127//127
f 134//134 135//135 129//129
f 135//135 130//130 129//129
f 135//135 136//136 130//130
f 136//136 131//131 130//130
f 136//136 53//53 131//131
f 50//50 49//49 104//104
f 49//49 105//105 104//104
f 138//138 133//133 137//137
f 137//137 133//133 132//132
f 139//139 140//140 134//134
f 140//140 135//135 134//134
f 140//140 141//141 135//135
f 141//141 136//136 135//135
f 141//141 53//53 136//136
f 49//49 52//52 105//105
f 52//52 111//111 105//105
f 55//55 138//138 42//42
f 42//42 138//138 137//137
f 69//69 68//68 139//139
f 68//68 140//140 139//139
f 68//68 76//76 140//140
f 76//76 141//141 140//140
f 76//76 53//53 141//141
f 52//52 53//53 111//111
f 143//143 144//144 142//142
f 142//142 144//144 145//145
f 147//147 148//148 146//146
f 146//146 148//148 149//149
f 150//150 151//151 153//153
f 151//151 152//152 153//153
f 155//155 147//147 154//154
f 154//154 147//147 146//146
f 156//156 157//157 150//150
f 157//157 151//151 150//150
f 158//158 159//159 161//161
f 159//159 160//160 161//161
f 163//163 155//155 162//162
f 162//162 155//155 154//154
f 164//164 165//165 156//156
f 165//165 157//157 156//156
f 167//167 163//163 166//166
f 166//166 163//163 162//162
f 168//168 169//169 164//164
f 169//169 165//165 164//164
f 171//171 167//167 170//170
f 170//170 167//167 166//166
f 172//172 173//173 168//168
f 173//173 169//169 168//168
f 175//175 171//171 174//174
f 174//174 171//171 170//170
f 176//176 177//177 172//172
f 177//177 173//173 172//172
f 179//179 143//143 178//178
f 178//178 143//143 142//142
f 181//181 175//175 180//180
f 180//180 175//175 174//174
f 182//182 183//183 176//176
f 183//183 177//177 176//176
f 185//185 181//181 184//184
f 184//184 181//181 180//180
f 186//186 187//187 182//182
f 187//187 183//183 182//182
f 188//188 189//189 158//158
f 189//189 159//159 158//158
f 191//191 185//185 190//190
f 190//190 185//185 184//184
f 192//192 193//193 186//186
f 193//193 187//187 186//186
f 195//195 191//191 194//194
f 194//194 191//191 190//190
f 196//196 197//197 192//192
f 197//197 193//193 192//192
f 199//199 195//195 198//198
f 198//198 195//195 194//194
f 200//200 201//201 196//196
f 201//201 197//197 196//196
f 203//203 199//199 202//202
f 202//202 199//199 198//198
f 204//204 205//205 200//200
f 205//205 201//201 200//200
f 148//148 179//179 149//149
f 149//149 179//179 178//178
f 207//207 203//203 206//206
f 206//206 203//203 202//202
f 208//208 209//209 204//204
f 209//209 205//205 204//204
f 211//211 207//207 210//210
f 210//210 207//207 206//206
f 212//212 213//213 208//208
f 213//213 209//209 208//208
f 153//153 152//152 188//188
f 152//152 189//189 188//188
f 215//215 211//211 214//214
f 214//214 211//211 210//210
f 216//216 217//217 212//212
f 217//217 213//213 212//212
f 219//219 215//215 218//218
f 218//218 215//215 214//214
f 220//220 221//221 216//216
f 221//221 217//217 216//216
f 144//144 219//219 145//145
f 145//145 219//219 218//218
f 161//161 160//160 220//220
f 160//160 221//221 220//220

