/* XPM */
static char * pause_xpm[] = {
"64 40 123 2",
"  	c #FFFFFF",
". 	c #E2E2E2",
"+ 	c #B9B9B9",
"@ 	c #B4B4B4",
"# 	c #B3B3B3",
"$ 	c #CDCDCD",
"% 	c #FCFCFC",
"& 	c #B7B7B7",
"* 	c #C1C1C1",
"= 	c #D0D0D0",
"- 	c #C0C0C0",
"; 	c #ACACAC",
"> 	c #F9F9F9",
", 	c #B2B2B2",
"' 	c #D6D6D6",
") 	c #ECECEC",
"! 	c #D7D7D7",
"~ 	c #AFAFAF",
"{ 	c #DADADA",
"] 	c #F1F1F1",
"^ 	c #DBDBDB",
"/ 	c #B1B1B1",
"( 	c #DDDDDD",
"_ 	c #F5F5F5",
": 	c #DFDFDF",
"< 	c #E0E0E0",
"[ 	c #F8F8F8",
"} 	c #FBFBFB",
"| 	c #E5E5E5",
"1 	c #E4E4E4",
"2 	c #FDFDFD",
"3 	c #E6E6E6",
"4 	c #B5B5B5",
"5 	c #606060",
"6 	c #8B8B8B",
"7 	c #E8E8E8",
"8 	c #F2F2F2",
"9 	c #A2A2A2",
"0 	c #979797",
"a 	c #F3F3F3",
"b 	c #858585",
"c 	c #000000",
"d 	c #444444",
"e 	c #E9E9E9",
"f 	c #696969",
"g 	c #565656",
"h 	c #F7F7F7",
"i 	c #D9D9D9",
"j 	c #EBEBEB",
"k 	c #E1E1E1",
"l 	c #F6F6F6",
"m 	c #878787",
"n 	c #454545",
"o 	c #DCDCDC",
"p 	c #6B6B6B",
"q 	c #585858",
"r 	c #EFEFEF",
"s 	c #888888",
"t 	c #464646",
"u 	c #DEDEDE",
"v 	c #EEEEEE",
"w 	c #6C6C6C",
"x 	c #595959",
"y 	c #FAFAFA",
"z 	c #868686",
"A 	c #575757",
"B 	c #F4F4F4",
"C 	c #838383",
"D 	c #434343",
"E 	c #686868",
"F 	c #555555",
"G 	c #F0F0F0",
"H 	c #818181",
"I 	c #424242",
"J 	c #D2D2D2",
"K 	c #666666",
"L 	c #545454",
"M 	c #D5D5D5",
"N 	c #7E7E7E",
"O 	c #404040",
"P 	c #CECECE",
"Q 	c #646464",
"R 	c #525252",
"S 	c #AEAEAE",
"T 	c #D1D1D1",
"U 	c #7C7C7C",
"V 	c #CACACA",
"W 	c #626262",
"X 	c #505050",
"Y 	c #ADADAD",
"Z 	c #E3E3E3",
"` 	c #9C9C9C",
" .	c #4B4B4B",
"..	c #757575",
"+.	c #8C8C8C",
"@.	c #808080",
"#.	c #CFCFCF",
"$.	c #CBCBCB",
"%.	c #D4D4D4",
"&.	c #ABABAB",
"*.	c #C8C8C8",
"=.	c #C7C7C7",
"-.	c #A9A9A9",
";.	c #C4C4C4",
">.	c #A8A8A8",
",.	c #D3D3D3",
"'.	c #A6A6A6",
").	c #BFBFBF",
"!.	c #BDBDBD",
"~.	c #A5A5A5",
"{.	c #BABABA",
"].	c #BCBCBC",
"^.	c #CCCCCC",
"/.	c #717171",
"(.	c #6F6F6F",
"_.	c #656565",
":.	c #1E1E1E",
"<.	c #090909",
"[.	c #080808",
"}.	c #636363",
"|.	c #161616",
"1.	c #B0B0B0",
"2.	c #FEFEFE",
"                                                                                                                                ",
"                                                                                                                                ",
"    . + @ @ @ @ @ @ @ @ @ @ @ @ @ @ @ @ @ @ @ @ @ @ @ @ @ @ @ @ @ @ @ @ @ @ @ @ @ @ @ @ @ @ @ @ @ @ @ @ @ @ @ @ @ @ @ @ # $ %   ",
"    & * = = = = = = = = = = = = = = = = = = = = = = = = = = = = = = = = = = = = = = = = = = = = = = = = = = = = = = = = - ; >   ",
"    , ' ) ) ) ) ) ) ) ) ) ) ) ) ) ) ) ) ) ) ) ) ) ) ) ) ) ) ) ) ) ) ) ) ) ) ) ) ) ) ) ) ) ) ) ) ) ) ) ) ) ) ) ) ) ) ) ) ! ~ >   ",
"    , { ] ] ] ] ] ] ] ] ] ] ] ] ] ] ] ] ] ] ] ] ] ] ] ] ] ] ] ] ] ] ] ] ] ] ] ] ] ] ] ] ] ] ] ] ] ] ] ] ] ] ] ] ] ] ] ] ^ / >   ",
"    , ( _ _ _ _ _ _ _ _ _ _ _ _ _ _ _ _ _ _ _ _ _ _ _ _ _ _ _ _ _ _ _ _ _ _ _ _ _ _ _ _ _ _ _ _ _ _ _ _ _ _ _ _ _ _ _ _ : / >   ",
"    # < [ [ [ [ [ [ [ [ [ [ [ [ [ [ [ [ [ [ [ [ [ [ [ [ [ [ [ [ [ [ [ [ [ [ [ [ [ [ [ [ [ [ [ [ [ [ [ [ [ [ [ [ [ [ [ [ . # >   ",
"    # . } } } } } } } } } } } } } } } } } } } } } } } } } } } } } } } } } } } } } } } } } } } } } } } } } } } } } } } } | @ >   ",
"    # 1 2 2 2 2 2 2 2 2 2 2 2 2 2 2 2 2 2 2 2 2 2 2 2 2 2 2 2 2 2 2 2 2 2 2 2 2 2 2 2 2 2 2 2 2 2 2 2 2 2 2 2 2 2 2 2 2 3 4 >   ",
"    # 1 2 2 2 2 2 2 2 2 2 2 2 2 2 2 2 2 2 2 2 2 2 2 2 2 2 2 2 2 2 2 2 2 2 2 2 2 2 2 2 2 2 2 2 2 2 2 2 2 2 2 2 2 2 2 2 2 3 4 >   ",
"    # . } } } } } } } } } } } } } } } } } } } } [ @ 5 5 5 6 7 } 8 9 5 5 5 0 a } } } } } } } } } } } } } } } } } } } } } | @ >   ",
"    # < [ [ [ [ [ [ [ [ [ [ [ [ [ [ [ [ [ [ [ [ a b c c c d { [ e f c c c g ) [ [ [ [ [ [ [ [ [ [ [ [ [ [ [ [ [ [ [ [ [ . # >   ",
"    # : h h h h h h h h h h h h h h h h h h h h 8 b c c c d i h 7 f c c c g j h h h h h h h h h h h h h h h h h h h h h k , >   ",
"    # . } } } } } } } } } } } } } } } } } } } } l m c c c n o } ) p c c c q r } } } } } } } } } } } } } } } } } } } } } 1 @ >   ",
"    # 1 2 2 2 2 2 2 2 2 2 2 2 2 2 2 2 2 2 2 2 2 [ s c c c t u 2 v w c c c x ] 2 2 2 2 2 2 2 2 2 2 2 2 2 2 2 2 2 2 2 2 2 3 4 >   ",
"    # k y y y y y y y y y y y y y y y y y y y y _ z c c c n ^ y j p c c c A v y y y y y y y y y y y y y y y y y y y y y 1 @ >   ",
"    # : h h h h h h h h h h h h h h h h h h h h 8 b c c c d i h e f c c c g j h h h h h h h h h h h h h h h h h h h h h k # >   ",
"    , o B B B B B B B B B B B B B B B B B B B B r C c c c D ' B 3 E c c c F 7 B B B B B B B B B B B B B B B B B B B B B u / >   ",
"    , i G G G G G G G G G G G G G G G G G G G G j H c c c I J G . K c c c L 1 G G G G G G G G G G G G G G G G G G G G G ^ / >   ",
"    , M j j j j j j j j j j j j j j j j j j j j 3 N c c c O P j ( Q c c c R : j j j j j j j j j j j j j j j j j j j j j ' S >   ",
"    , T 3 3 3 3 3 3 3 3 3 3 3 3 3 3 3 3 3 3 3 3 k U c c c O V 3 i W c c c X ^ 3 3 3 3 3 3 3 3 3 3 3 3 3 3 3 3 3 3 3 3 3 J Y >   ",
"    , P Z Z Z Z Z Z Z Z Z Z Z Z Z Z Z Z Z Z Z Z < `  . . ...= Z { +. . . .@.^ Z Z Z Z Z Z Z Z Z Z Z Z Z Z Z Z Z Z Z Z Z #.; >   ",
"    , $.: : : : : : : : : : : : : : : : : : : : : ' $.$.$.= ( : u %.$.$.$.J u : : : : : : : : : : : : : : : : : : : : : $.&.>   ",
"    / *.^ ^ ^ ^ ^ ^ ^ ^ ^ ^ ^ ^ ^ ^ ^ ^ ^ ^ ^ ^ ^ ^ ^ ^ ^ ^ ^ ^ ^ ^ ^ ^ ^ ^ ^ ^ ^ ^ ^ ^ ^ ^ ^ ^ ^ ^ ^ ^ ^ ^ ^ ^ ^ ^ ^ ^ =.-.>   ",
"    / ;.! ! ! ! ! ! ! ! ! ! ! ! ! ! ! ! ! ! ! ! ! ! ! ! ! ! ! ! ! ! ! ! ! ! ! ! ! ! ! ! ! ! ! ! ! ! ! ! ! ! ! ! ! ! ! ! ;.>.>   ",
"    / * ,.,.,.,.,.,.,.,.,.,.,.,.,.,.,.,.,.,.,.,.,.,.,.,.,.,.,.,.,.,.,.,.,.,.,.,.,.,.,.,.,.,.,.,.,.,.,.,.,.,.,.,.,.,.,.,.- '.>   ",
"    / ).= = = = = = = = = = = = = = = = = = = = = = = = = = = = = = = = = = = = = = = = = = = = = = = = = = = = = = = = !.~.>   ",
"    / !.$ $ $ $ $ $ $ $ $ $ $ $ $ $ $ $ $ $ $ $ $ $ $ $ $ $ $ $ $ $ $ $ $ $ $ $ $ $ $ $ $ $ $ $ $ $ $ $ $ $ $ $ $ $ $ $ {.~.>   ",
"    / ].^.^.^.^.^.^.^.^.^.^.^.^.^.^.^.^.^.^.^.^.^.^.^.^.^.^.^.^.^.^.^.^.^.^.^.^.^.^.^.^.^.^.^.^.^.^.^.^.^.^.^.^.^.^.^.^.{.~.>   ",
"    ; /.(.(.(.(.(.(.(.(.(.(.(.(.(.(.(.(.(.(.(.(.(.(.(.(.(.(.(.(.(.(.(.(.(.(.(.(.(.(.(.(.(.(.(.(.(.(.(.(.(.(.(.(.(.(.(.(._.b >   ",
"    >.:.<.<.<.<.<.<.<.<.<.<.<.<.<.<.<.<.<.<.<.<.<.<.<.<.<.<.<.<.<.<.<.<.<.<.<.<.<.<.<.<.<.<.<.<.<.<.<.<.<.<.<.<.<.<.<.<.[.}.>   ",
"    >.|.c c c c c c c c c c c c c c c c c c c c c c c c c c c c c c c c c c c c c c c c c c c c c c c c c c c c c c c c c 5 >   ",
"    >.|.c c c c c c c c c c c c c c c c c c c c c c c c c c c c c c c c c c c c c c c c c c c c c c c c c c c c c c c c c 5 >   ",
"    ,.6 @.@.@.@.@.@.@.@.@.@.@.@.@.@.@.@.@.@.@.@.@.@.@.@.@.@.@.@.@.@.@.@.@.@.@.@.@.@.@.@.@.@.@.@.@.@.@.@.@.@.@.@.@.@.@.@.@.1.}   ",
"    % h h h h h h h h h h h h h h h h h h h h h h h h h h h h h h h h h h h h h h h h h h h h h h h h h h h h h h h h h h y 2.  ",
"                                                                                                                                ",
"                                                                                                                                ",
"                                                                                                                                ",
"                                                                                                                                "};
