/* XPM */
static char * prev_xpm[] = {
"64 40 144 2",
"  	c #FFFFFF",
". 	c #FAFAFA",
"+ 	c #BDBDBD",
"@ 	c #B4B4B4",
"# 	c #BFBFBF",
"$ 	c #ECECEC",
"% 	c #F4F4F4",
"& 	c #979797",
"* 	c #D0D0D0",
"= 	c #B3B3B3",
"- 	c #CFCFCF",
"; 	c #F3F3F3",
"> 	c #9C9C9C",
", 	c #C0C0C0",
"' 	c #CCCCCC",
") 	c #9E9E9E",
"! 	c #F1F1F1",
"~ 	c #C3C3C3",
"{ 	c #A0A0A0",
"] 	c #F5F5F5",
"^ 	c #C6C6C6",
"/ 	c #A2A2A2",
"( 	c #F8F8F8",
"_ 	c #C8C8C8",
": 	c #A4A4A4",
"< 	c #FBFBFB",
"[ 	c #F0F0F0",
"} 	c #F9F9F9",
"| 	c #CACACA",
"1 	c #FDFDFD",
"2 	c #D9D9D9",
"3 	c #767676",
"4 	c #808080",
"5 	c #E5E5E5",
"6 	c #E6E6E6",
"7 	c #CECECE",
"8 	c #FCFCFC",
"9 	c #CBCBCB",
"0 	c #B9B9B9",
"a 	c #000000",
"b 	c #141414",
"c 	c #D1D1D1",
"d 	c #868686",
"e 	c #545454",
"f 	c #7F7F7F",
"g 	c #8A8A8A",
"h 	c #B8B8B8",
"i 	c #131313",
"j 	c #F6F6F6",
"k 	c #9F9F9F",
"l 	c #121212",
"m 	c #363636",
"n 	c #CDCDCD",
"o 	c #8C8C8C",
"p 	c #171717",
"q 	c #8B8B8B",
"r 	c #B6B6B6",
"s 	c #929292",
"t 	c #161616",
"u 	c #353535",
"v 	c #E7E7E7",
"w 	c #7E7E7E",
"x 	c #0D0D0D",
"y 	c #898989",
"z 	c #A1A1A1",
"A 	c #F7F7F7",
"B 	c #B5B5B5",
"C 	c #989898",
"D 	c #222222",
"E 	c #C9C9C9",
"F 	c #EDEDED",
"G 	c #7D7D7D",
"H 	c #101010",
"I 	c #C7C7C7",
"J 	c #A3A3A3",
"K 	c #B7B7B7",
"L 	c #A5A5A5",
"M 	c #262626",
"N 	c #C2C2C2",
"O 	c #0E0E0E",
"P 	c #9B9B9B",
"Q 	c #010101",
"R 	c #2E2E2E",
"S 	c #636363",
"T 	c #191919",
"U 	c #8D8D8D",
"V 	c #0C0C0C",
"W 	c #4E4E4E",
"X 	c #090909",
"Y 	c #303030",
"Z 	c #BEBEBE",
"` 	c #686868",
" .	c #343434",
"..	c #6E6E6E",
"+.	c #040404",
"@.	c #B2B2B2",
"#.	c #DBDBDB",
"$.	c #747474",
"%.	c #E2E2E2",
"&.	c #606060",
"*.	c #050505",
"=.	c #878787",
"-.	c #C5C5C5",
";.	c #B0B0B0",
">.	c #EFEFEF",
",.	c #DCDCDC",
"'.	c #777777",
").	c #C4C4C4",
"!.	c #D5D5D5",
"~.	c #030303",
"{.	c #858585",
"].	c #EBEBEB",
"^.	c #ACACAC",
"/.	c #8F8F8F",
"(.	c #333333",
"_.	c #6B6B6B",
":.	c #828282",
"<.	c #9A9A9A",
"[.	c #A9A9A9",
"}.	c #E4E4E4",
"|.	c #555555",
"1.	c #D6D6D6",
"2.	c #6D6D6D",
"3.	c #E3E3E3",
"4.	c #BABABA",
"5.	c #4B4B4B",
"6.	c #565656",
"7.	c #D8D8D8",
"8.	c #C1C1C1",
"9.	c #969696",
"0.	c #DFDFDF",
"a.	c #DADADA",
"b.	c #949494",
"c.	c #939393",
"d.	c #D7D7D7",
"e.	c #909090",
"f.	c #D3D3D3",
"g.	c #AFAFAF",
"h.	c #ADADAD",
"i.	c #626262",
"j.	c #6F6F6F",
"k.	c #737373",
"l.	c #2F2F2F",
"m.	c #FEFEFE",
"                                                                                                                                ",
"                                                                                                                                ",
"    . + @ @ @ @ @ @ @ @ @ @ @ @ @ @ @ @ @ @ @ @ @ @ @ @ @ @ @ @ @ @ @ @ @ @ @ @ @ @ @ @ @ @ @ @ @ @ @ @ @ @ @ @ @ @ @ @ @ # $   ",
"    % & * * * * * * * * * * * * * * * * * * * * * * * * * * * * * * * * * * * * * * * * * * * * * * * * * * * * * * * * * = -   ",
"    ; > $ $ $ $ $ $ $ $ $ $ $ $ $ $ $ $ $ $ $ $ $ $ $ $ $ $ $ $ $ $ $ $ $ $ $ $ $ $ $ $ $ $ $ $ $ $ $ $ $ $ $ $ $ $ $ $ $ , '   ",
"    ; ) ! ! ! ! ! ! ! ! ! ! ! ! ! ! ! ! ! ! ! ! ! ! ! ! ! ! ! ! ! ! ! ! ! ! ! ! ! ! ! ! ! ! ! ! ! ! ! ! ! ! ! ! ! ! ! ! ! ~ '   ",
"    ; { ] ] ] ] ] ] ] ] ] ] ] ] ] ] ] ] ] ] ] ] ] ] ] ] ] ] ] ] ] ] ] ] ] ] ] ] ] ] ] ] ] ] ] ] ] ] ] ] ] ] ] ] ] ] ] ] ] ^ '   ",
"    ; / ( ( ( ( ( ( ( ( ( ( ( ( ( ( ( ( ( ( ( ( ( ( ( ( ( ( ( ( ( ( ( ( ( ( ( ( ( ( ( ( ( ( ( ( ( ( ( ( ( ( ( ( ( ( ( ( ( _ '   ",
"    ; : < < < < < < < < < < < < < < < < < < < < ( [ ! } < < < < < < < < < < < < < < < < < < < < < < < < < < < < < < < < < | '   ",
"    ; : 1 1 1 1 1 1 1 1 1 1 1 1 1 1 1 1 1 1 1 1 2 3 4 5 1 1 1 1 $ | $ 1 1 1 1 6 7 8 1 1 1 1 1 1 1 1 1 1 1 1 1 1 1 1 1 1 1 9 '   ",
"    ; : 1 1 1 1 1 1 1 1 1 1 1 1 1 1 1 1 1 1 1 1 0 a b c 1 1 1 ( d e c 1 1 1 ; f g 8 1 1 1 1 1 1 1 1 1 1 1 1 1 1 1 1 1 1 1 9 '   ",
"    ; : < < < < < < < < < < < < < < < < < < < < h a i - < < j k l m n < < ! o p q < < < < < < < < < < < < < < < < < < < < | '   ",
"    ; / ( ( ( ( ( ( ( ( ( ( ( ( ( ( ( ( ( ( ( ( r a i ' ( $ s t a u | ( v w x a y ( ( ( ( ( ( ( ( ( ( ( ( ( ( ( ( ( ( ( ( _ '   ",
"    ; z A A A A A A A A A A A A A A A A A A A A B a i ' $ C D a a u E F G H a a y A A A A A A A A A A A A A A A A A A A A I '   ",
"    ; J < < < < < < < < < < < < < < < < < < < < K a i n L M a a a m N o O a a a q < < < < < < < < < < < < < < < < < < < < E '   ",
"    ; : 1 1 1 1 1 1 1 1 1 1 1 1 1 1 1 1 1 1 1 1 0 a i P D Q a a a R S T a a a a U 1 1 1 1 1 1 1 1 1 1 1 1 1 1 1 1 1 1 1 1 9 '   ",
"    ; J . . . . . . . . . . . . . . . . . . . . K a V W X a a a a T Y X a a a a g . . . . . . . . . . . . . . . . . . . . E '   ",
"    ; / A A A A A A A A A A A A A A A A A A A A B a i Z ` H a a a  .= ..+.a a a y A A A A A A A A A A A A A A A A A A A A _ '   ",
"    ; { % % % % % % % % % % % % % % % % % % % % @.a i E #.$.l a a  .I %.&.*.a a =.% % % % % % % % % % % % % % % % % % % % -.'   ",
"    ; ) [ [ [ [ [ [ [ [ [ [ [ [ [ [ [ [ [ [ [ [ ;.a i ^ >.,.'.x a  .).[ !.&.~.a {.[ [ [ [ [ [ [ [ [ [ [ [ [ [ [ [ [ [ [ [ ~ '   ",
"    ; P ].].].].].].].].].].].].].].].].].].].].^.a l N ].].6 /.H (.# ].].#._.V :.].].].].].].].].].].].].].].].].].].].].# '   ",
"    ; <.6 6 6 6 6 6 6 6 6 6 6 6 6 6 6 6 6 6 6 6 [.a l Z 6 6 6 }.=.|.N 6 6 6 1.2.=.6 6 6 6 6 6 6 6 6 6 6 6 6 6 6 6 6 6 6 6 + '   ",
"    ; C 3.3.3.3.3.3.3.3.3.3.3.3.3.3.3.3.3.3.3.3.4.5.6._ 3.3.3.3.2 Z 7.3.3.3.3.1.8.3.3.3.3.3.3.3.3.3.3.3.3.3.3.3.3.3.3.3.3.4.'   ",
"    ; 9.0.0.0.0.0.0.0.0.0.0.0.0.0.0.0.0.0.0.0.0.a.9 ' #.0.0.0.0.0.0.0.0.0.0.0.0.0.0.0.0.0.0.0.0.0.0.0.0.0.0.0.0.0.0.0.0.0.0 '   ",
"    ; b.#.#.#.#.#.#.#.#.#.#.#.#.#.#.#.#.#.#.#.#.#.#.#.#.#.#.#.#.#.#.#.#.#.#.#.#.#.#.#.#.#.#.#.#.#.#.#.#.#.#.#.#.#.#.#.#.#.B 9   ",
"    ; c.d.d.d.d.d.d.d.d.d.d.d.d.d.d.d.d.d.d.d.d.d.d.d.d.d.d.d.d.d.d.d.d.d.d.d.d.d.d.d.d.d.d.d.d.d.d.d.d.d.d.d.d.d.d.d.d.d.= 9   ",
"    ; e.f.f.f.f.f.f.f.f.f.f.f.f.f.f.f.f.f.f.f.f.f.f.f.f.f.f.f.f.f.f.f.f.f.f.f.f.f.f.f.f.f.f.f.f.f.f.f.f.f.f.f.f.f.f.f.f.f.;.9   ",
"    ; /.* * * * * * * * * * * * * * * * * * * * * * * * * * * * * * * * * * * * * * * * * * * * * * * * * * * * * * * * * g.9   ",
"    ; U n n n n n n n n n n n n n n n n n n n n n n n n n n n n n n n n n n n n n n n n n n n n n n n n n n n n n n n n n h.9   ",
"    ; U ' ' ' ' ' ' ' ' ' ' ' ' ' ' ' ' ' ' ' ' ' ' ' ' ' ' ' ' ' ' ' ' ' ' ' ' ' ' ' ' ' ' ' ' ' ' ' ' ' ' ' ' ' ' ' ' ' h.9   ",
"    ; i.j.j.j.j.j.j.j.j.j.j.j.j.j.j.j.j.j.j.j.j.j.j.j.j.j.j.j.j.j.j.j.j.j.j.j.j.j.j.j.j.j.j.j.j.j.j.j.j.j.j.j.j.j.j.j.j.j.k._   ",
"    ; (.X X X X X X X X X X X X X X X X X X X X X X X X X X X X X X X X X X X X X X X X X X X X X X X X X X X X X X X X X  .I   ",
"    ; l.a a a a a a a a a a a a a a a a a a a a a a a a a a a a a a a a a a a a a a a a a a a a a a a a a a a a a a a a a R I   ",
"    ; l.a a a a a a a a a a a a a a a a a a a a a a a a a a a a a a a a a a a a a a a a a a a a a a a a a a a a a a a a a R I   ",
"    ( C 4 4 4 4 4 4 4 4 4 4 4 4 4 4 4 4 4 4 4 4 4 4 4 4 4 4 4 4 4 4 4 4 4 4 4 4 4 4 4 4 4 4 4 4 4 4 4 4 4 4 4 4 4 4 4 4 4 & %.  ",
"    m.( A A A A A A A A A A A A A A A A A A A A A A A A A A A A A A A A A A A A A A A A A A A A A A A A A A A A A A A A A ( 1   ",
"                                                                                                                                ",
"                                                                                                                                ",
"                                                                                                                                ",
"                                                                                                                                "};
