/* XPM */
static char * ROItb_xpm[] = {
"32 32 374 2",
"  	c None",
". 	c #DCE5E2",
"+ 	c #DDE6E3",
"@ 	c #DEE7E4",
"# 	c #DFE8E5",
"$ 	c #D9E2DF",
"% 	c #D3DCD9",
"& 	c #C9D2CF",
"* 	c #BEC7C4",
"= 	c #CBD4D1",
"- 	c #D0D9D6",
"; 	c #D1DAD7",
"> 	c #D1DAD8",
", 	c #D2DBD8",
"' 	c #D4DDDB",
") 	c #D8E1DF",
"! 	c #DBE4E2",
"~ 	c #DCE5E4",
"{ 	c #DDE6E2",
"] 	c #D8E1DE",
"^ 	c #CDD6D3",
"/ 	c #CED7D4",
"( 	c #D6DFDC",
"_ 	c #CFD8D5",
": 	c #DBE4E1",
"< 	c #D3DCDA",
"[ 	c #D3DCDB",
"} 	c #D1DAD9",
"| 	c #D0D9D8",
"1 	c #D0D9D9",
"2 	c #CFD7D7",
"3 	c #CCD5D5",
"4 	c #CDD6D6",
"5 	c #CED7D6",
"6 	c #CDD6D5",
"7 	c #CCD5D3",
"8 	c #CCD5D2",
"9 	c #D4DDDA",
"0 	c #DAE3E0",
"a 	c #DDE6E4",
"b 	c #DCE4E6",
"c 	c #DBE3E4",
"d 	c #DBE3E5",
"e 	c #DCE4E5",
"f 	c #DAE2E4",
"g 	c #DDE5E7",
"h 	c #DCE5E5",
"i 	c #DCE4E4",
"j 	c #D5DDDD",
"k 	c #C6CFCE",
"l 	c #B8C1C0",
"m 	c #D6DFDD",
"n 	c #D5DEDB",
"o 	c #DEE7E5",
"p 	c #DCE6E4",
"q 	c #DAE4E2",
"r 	c #D8E2E0",
"s 	c #CCD6D4",
"t 	c #DCE5E3",
"u 	c #DDE5E4",
"v 	c #DBE4E4",
"w 	c #CAD2D2",
"x 	c #CFD8D8",
"y 	c #CBD3D3",
"z 	c #D8E1E0",
"A 	c #CFD8D7",
"B 	c #BCC5C4",
"C 	c #C7D0CF",
"D 	c #D7E0DE",
"E 	c #D7E0DF",
"F 	c #D4DFDE",
"G 	c #D3DFDF",
"H 	c #D4E0E0",
"I 	c #CBD7D7",
"J 	c #DBE4E3",
"K 	c #DDE6E5",
"L 	c #DEE7E6",
"M 	c #CAD3D2",
"N 	c #DAE3E2",
"O 	c #D8E0E1",
"P 	c #D6DFDE",
"Q 	c #D2DBDA",
"R 	c #CED9D9",
"S 	c #CDD9D9",
"T 	c #CCD8D8",
"U 	c #CAD6D6",
"V 	c #C2CECE",
"W 	c #CBD5D4",
"X 	c #D4DDDD",
"Y 	c #D7DFE0",
"Z 	c #D7DFE1",
"` 	c #D5DEDD",
" .	c #CCD5D4",
"..	c #D4DDDC",
"+.	c #DFE8E7",
"@.	c #DBE6E6",
"#.	c #DAE6E6",
"$.	c #D9E5E5",
"%.	c #D5E1E1",
"&.	c #C9D5D5",
"*.	c #D9E2E1",
"=.	c #CCD4D6",
"-.	c #CAD2D4",
";.	c #C7CFD1",
">.	c #C6CED0",
",.	c #CAD2D3",
"'.	c #CBD4D3",
").	c #DCE6E6",
"!.	c #D8E4E4",
"~.	c #DAE3E3",
"{.	c #D7E0E1",
"].	c #C5CECD",
"^.	c #D8E0E2",
"/.	c #D6E2E2",
"(.	c #D9E3E0",
"_.	c #DEE5E6",
":.	c #DDE5E5",
"<.	c #DDE7E3",
"[.	c #D7E3E5",
"}.	c #E0E2E7",
"|.	c #DCE2E7",
"1.	c #DCE3E6",
"2.	c #C9D2D2",
"3.	c #CBD4D4",
"4.	c #DBE5E7",
"5.	c #DBE7E7",
"6.	c #CBD7D6",
"7.	c #D7E5DF",
"8.	c #D8DCDA",
"9.	c #D1D7CD",
"0.	c #D6E1CF",
"a.	c #D5E2D9",
"b.	c #D4E5E1",
"c.	c #E3DFE5",
"d.	c #D9E4E7",
"e.	c #C8D3D5",
"f.	c #DAE6E5",
"g.	c #DBE7E5",
"h.	c #DBE5E4",
"i.	c #DBE3E6",
"j.	c #DAE5E5",
"k.	c #C9D5D6",
"l.	c #D5D9E3",
"m.	c #CDD0B2",
"n.	c #CFD17A",
"o.	c #D9D96E",
"p.	c #D3D16F",
"q.	c #CDCD7D",
"r.	c #C4C789",
"s.	c #B7C49A",
"t.	c #B7BBAA",
"u.	c #D2E0DA",
"v.	c #D8E3E6",
"w.	c #C7D2D4",
"x.	c #D9E5E4",
"y.	c #D9E5E3",
"z.	c #DAE5E4",
"A.	c #DAE4E5",
"B.	c #C6D2D4",
"C.	c #909DA4",
"D.	c #9DAE82",
"E.	c #C6D765",
"F.	c #DAE45C",
"G.	c #E8E762",
"H.	c #EEF45F",
"I.	c #F0EA5C",
"J.	c #DBA34D",
"K.	c #AC5148",
"L.	c #D3CED2",
"M.	c #D7E3E6",
"N.	c #C6D1D3",
"O.	c #D9E4E4",
"P.	c #DAE6E4",
"Q.	c #D7E0DD",
"R.	c #DAE4E6",
"S.	c #D7E3E3",
"T.	c #BFCED4",
"U.	c #3B6BBD",
"V.	c #245ECB",
"W.	c #3066C9",
"X.	c #4072B4",
"Y.	c #58809A",
"Z.	c #6A8D86",
"`.	c #A27746",
" +	c #D32B0F",
".+	c #D0272E",
"++	c #DACACD",
"@+	c #D7E2E6",
"#+	c #C7D2D3",
"$+	c #DCE7E5",
"%+	c #DBE5E6",
"&+	c #D7E2E2",
"*+	c #BFCFD6",
"=+	c #2C6AD5",
"-+	c #0453ED",
";+	c #0252FA",
">+	c #034FFA",
",+	c #084FF6",
"'+	c #0D51E4",
")+	c #812E69",
"!+	c #EA0711",
"~+	c #D22C30",
"{+	c #D7CFCF",
"]+	c #D8E2E5",
"^+	c #C9D3D5",
"/+	c #DBE6E5",
"(+	c #DDE7E5",
"_+	c #C1CED5",
":+	c #3168D8",
"<+	c #0451F7",
"[+	c #0154F4",
"}+	c #0351FB",
"|+	c #0153F7",
"1+	c #0D4FEC",
"2+	c #882976",
"3+	c #ED040F",
"4+	c #D0312F",
"5+	c #DBD2CE",
"6+	c #DEE7E2",
"7+	c #C2CED4",
"8+	c #3368D4",
"9+	c #0450F7",
"0+	c #0251F8",
"a+	c #074DFE",
"b+	c #0351FD",
"c+	c #0C52F0",
"d+	c #8C2C6B",
"e+	c #EE0608",
"f+	c #CE3630",
"g+	c #E1CED1",
"h+	c #DCE4E3",
"i+	c #D0D9D5",
"j+	c #DEE7E1",
"k+	c #C1CDD4",
"l+	c #3268D5",
"m+	c #0351F7",
"n+	c #0350F8",
"o+	c #0352F7",
"p+	c #0D51EE",
"q+	c #853263",
"r+	c #EC0809",
"s+	c #CB3939",
"t+	c #DED0D3",
"u+	c #D3DCD8",
"v+	c #DDE6E1",
"w+	c #DDE5E6",
"x+	c #DBE4E5",
"y+	c #3B63D1",
"z+	c #0D4DF3",
"A+	c #0652F5",
"B+	c #0550FB",
"C+	c #0152FA",
"D+	c #0954EA",
"E+	c #813165",
"F+	c #DC141E",
"G+	c #BE6F70",
"H+	c #D0DEDD",
"I+	c #D5DEDA",
"J+	c #DEE8E2",
"K+	c #DAE3E1",
"L+	c #CFD8D6",
"M+	c #C8D2D4",
"N+	c #7993C2",
"O+	c #4876D4",
"P+	c #2863CE",
"Q+	c #1B56D9",
"R+	c #1255E0",
"S+	c #1652D7",
"T+	c #743F71",
"U+	c #C76C6D",
"V+	c #D1D0CB",
"W+	c #DEDEE5",
"X+	c #CDD5D9",
"Y+	c #D5E0E0",
"Z+	c #D3E0E6",
"`+	c #CFDEE8",
" @	c #BFCEDD",
".@	c #A8B8CF",
"+@	c #92A4C4",
"@@	c #A5AAB8",
"#@	c #D9DBDB",
"$@	c #DDE2E4",
"%@	c #DBE3E3",
"&@	c #CCD3D7",
"*@	c #DBE2E6",
"=@	c #D4DCDD",
"-@	c #D4DDE1",
";@	c #D8E5EB",
">@	c #DAE6E9",
",@	c #DCE7E4",
"'@	c #CDD5D7",
")@	c #D6DFE0",
"!@	c #D2DADB",
"~@	c #CCD7D3",
"{@	c #CBD6D2",
"]@	c #CDD9D6",
"^@	c #D1DCDB",
"/@	c #D4DEDE",
"(@	c #CDD5D6",
"_@	c #D6DFDF",
":@	c #DDE6E7",
"<@	c #DCE6E2",
"[@	c #D3E1DE",
"}@	c #CBD4D2",
"|@	c #D6DEE0",
"1@	c #DDE4E6",
"2@	c #DAE2E7",
"3@	c #D8E3E7",
"4@	c #D8E6E4",
"5@	c #DAE6E2",
"6@	c #D0D9D7",
"7@	c #D1D9D7",
"8@	c #DAE3E4",
"9@	c #DAE4E3",
"0@	c #DAE5E2",
"a@	c #C3CCC9",
"b@	c #C7D0CD",
"c@	c #DDE7E4",
"d@	c #D7E1DE",
"e@	c #CFD9D6",
"f@	c #CDD7D4",
"g@	c #D9E2E0",
"h@	c #DDE8E4",
"i@	c #DEE8E5",
"j@	c #DDE8E5",
"k@	c #DDE8E6",
"l@	c #DCE8E6",
"m@	c #DAE5E3",
"n@	c #D6E2E0",
"o@	c #D5E0DE",
"p@	c #D4DFDB",
"q@	c #D1DBD8",
"r@	c #CED8D5",
"s@	c #D2DDDB",
"t@	c #D6E1E0",
"u@	c #DCE7E6",
"v@	c #D9E4E5",
"w@	c #DAE5E6",
"x@	c #D9E3E4",
"y@	c #CED9DA",
"z@	c #D3DEDE",
"A@	c #CBD6D7",
"B@	c #D0DBDC",
"C@	c #DAE4E4",
"D@	c #DDE6E6",
"E@	c #DEE8E4",
"F@	c #DBE6E2",
"G@	c #D6E0DF",
"H@	c #CDD9D7",
"I@	c #CDD8D5",
"J@	c #CED8D7",
"K@	c #D0DBDB",
"L@	c #D0DCDC",
"M@	c #D3DDDE",
"N@	c #D8E3E3",
"O@	c #D7E1E1",
"P@	c #CDD8D8",
"Q@	c #CAD5D5",
"R@	c #D9E1DE",
"S@	c #DEE6E4",
"T@	c #DBE3E0",
"U@	c #CBD5D2",
"V@	c #DCE3E1",
"W@	c #D3DBD9",
"X@	c #DBE3E1",
"Y@	c #D4DEDB",
"Z@	c #CDD7D5",
"`@	c #D2DCDB",
" #	c #D1DADA",
".#	c #C2CCCB",
"+#	c #C1CAC9",
"@#	c #BBC5C4",
"##	c #C4CECD",
"$#	c #D5DFDE",
". + @ # # @ @ + $ % & * & & = - ; > > , ; ' ) ! ! ~ + { { { + + ",
". . . @ # @ ] ^ / % ( _ + @ : ( < [ } | 1 2 3 4 5 6 7 8 _ 9 ( . ",
". . + ] % 8 / $ : . 0 _ + @ @ + a b c d e d f b g g h i j k l m ",
"+ ' 8 ; n 0 a o p q r s t @ @ + u d d d b d f b g g v j w x y z ",
"A B k C A D E F G H H I J K L ~ ~ d d d b e J ~ ~ J | M E N 3 O ",
"} P K K P Q Q R S T U V W 5 6 A X Y Z f f c J ~ ` 6 Q N J N  .Y ",
"[ ..K +.K K K @.#.$.%.&.z *.*.` 4 =.-.;.>.,.5 M '.N L K K J 6 O ",
"[ ..L +.K K K ).#.!.%.U ~.K ~ J ~ b d d f {.[ ].K K K L K ~ 6 ^.",
"Q ..L L K K K ).#.$./.I (.u _.:.<.@.[.}.|.1.v 2.N ~ ~ ~ ~ ~ 3.O ",
"% n + + a K g 4.5.#./.6.7.. 8.9.0.a.b.c.v ).d.e.f.g.h.J J J M N ",
"9 n @ + a K i.j.$.#./.k.l.m.n.o.p.q.r.s.t.u.v.w.x.y.z.J J J M J ",
"( n @ + a K d A.!.$./.B.C.D.E.F.G.H.I.J.K.L.M.N.O.P.h.J J ~ M J ",
"Q.% @ @ o K i.R.!.$.S.T.U.V.W.X.Y.Z.`. +.+++@+#+x.P.$+K K ~ '.K ",
"0 , @ @ o :.e %+j.#.&+*+=+-+;+>+,+'+)+!+~+{+]+^+j./+(+o o a 7 o ",
": ; @ @ @ t a p ~ ~ *._+:+<+[+}+|+1+2+3+4+5+v W ~ K o @ a + ^ 6+",
": ; @ @ @ t @ a ~ ~ *.7+8+9+0+a+b+c+d+e+f+g+h+ .~ K @ @ @ 0 i+j+",
"0 - o L o ~ o L K ~ *.k+l+m+[+n+o+p+q+r+s+t+~  .K L # # @ Q.u+v+",
": _ K w+e f x+v ~ ~ *.7+y+z+A+B+C+D+E+F+G+H+h. .L L o # @ n I+J+",
"K+L+:.d f f i.~.J K N M+N+O+P+Q+R+S+T+U+V+W+J '.~ ~ a + + n 9 6+",
"^.X+i.d d f b h ~ ~ *. .Y+Z+`+ @.@+@@@#@q $@%@ .~ K ~ J J ..[ a ",
"^.&@*@d d d d h ~ J } C L+- | =@-@;@>@,@~ i *.| K K J J J Q [ ~ ",
"c '@i.b b d d v *.5 } N . : ~.)@!@~@{@]@^@/@Q } N ~ J ~ ~ } ..~ ",
"a (@c d b b d _@6 P K K . + L :@e <@h.S.[@]@'.6 A A A A z 6 z K ",
"@ }@v e w+e |@6 z L K L t + L :@w+1@2@3@4@5@Q ` N E z E 6 B E ~ ",
"+ = . t K+6@7@~ K J ~ K a @ @ a t %@c 8@9@0@| z K K K ~ 5 A N J ",
"+ 8 + ] ^ n @ t K K K K @ @ @ + . J J J J J | z K K K [ 5 J J ~ ",
"# ^ 9 ; : + @ a L L L L o @ @ + t ~ ~ ~ J J } z K K z 5 N J ~ K ",
"+ a@b@] . . @ a K K K K @ @ + + + ~ ~ ~ ~ J } z ~ E 6 N J ~ L L ",
"@ c@d@e@f@; , < ..g@J K a o @ + + J v ~ ~ ~ | P v '.E ~ J ~.K K ",
"h@i@j@k@l@m@n@o@p@q@r@r@s@t@).u@z.v@j.w@w@x@y@z@A@B@C@e b x+D@a ",
"h@h@j@l@l@g.g.c@c@c@E@F@G@^@H@I@J@K@L@M@N@O@P@Q@y@@.h K a L o + ",
"R@S@T@@ d@U@q@+ V@W@X@S@+ (+(.Y@Z@`@ #J@.#+#@###$#Q z K+. a t + "};
