/* XPM */
static char * BBCenterPointJumpButton_xpm[] = {
"32 32 254 2",
"  	c #9AC2DB",
". 	c #64A2C7",
"+ 	c #69A5C9",
"@ 	c #6AA4C9",
"# 	c #6AA4CA",
"$ 	c #6AA5C7",
"% 	c #68A4C8",
"& 	c #68A2C7",
"* 	c #69A5CA",
"= 	c #69A4C6",
"- 	c #69A5C7",
"; 	c #6CA4C7",
"> 	c #69A3C8",
", 	c #68A4C6",
"' 	c #66A5C8",
") 	c #6BA2C9",
"! 	c #67A3C8",
"~ 	c #99C3DB",
"{ 	c #BDD6EA",
"] 	c #E5EEF3",
"^ 	c #E4EFF5",
"/ 	c #E2EFF5",
"( 	c #E5EFF8",
"_ 	c #E4EEF7",
": 	c #E4EFF3",
"< 	c #E6EFF8",
"[ 	c #E2EFF7",
"} 	c #E6EFF6",
"| 	c #E1F0F5",
"1 	c #E5F0F4",
"2 	c #E3F0F6",
"3 	c #E3EEF2",
"4 	c #E5F0F6",
"5 	c #E6EDF5",
"6 	c #E6F1F5",
"7 	c #E7EFF2",
"8 	c #C9DFEA",
"9 	c #72A8CA",
"0 	c #6DAAC9",
"a 	c #DBE9F4",
"b 	c #FFFFFF",
"c 	c #FEFFFD",
"d 	c #FFFFFD",
"e 	c #FDFFFE",
"f 	c #FFFEFD",
"g 	c #FCFFFF",
"h 	c #FFFEFF",
"i 	c #FEFEFE",
"j 	c #FEFFFF",
"k 	c #E3F0F8",
"l 	c #7BB0CF",
"m 	c #6EA9CB",
"n 	c #D8E5EE",
"o 	c #FFFDFE",
"p 	c #FEFEFC",
"q 	c #E3EEF4",
"r 	c #7AAFCE",
"s 	c #71A9CC",
"t 	c #D5E6F0",
"u 	c #FFFFFB",
"v 	c #FDFFFC",
"w 	c #E1EEF4",
"x 	c #6DA8CA",
"y 	c #D9E7F0",
"z 	c #F7FDFD",
"A 	c #A3C6DA",
"B 	c #5999BF",
"C 	c #5A98BF",
"D 	c #C3DAE8",
"E 	c #FBFFFF",
"F 	c #CFE1EF",
"G 	c #5798BE",
"H 	c #5A99C2",
"I 	c #5A98C1",
"J 	c #96C0D8",
"K 	c #F5F6F8",
"L 	c #FEFEFF",
"M 	c #70A8C9",
"N 	c #D7E5F0",
"O 	c #ACCDE0",
"P 	c #2F7FB2",
"Q 	c #5093BD",
"R 	c #C0DAE7",
"S 	c #D0E0ED",
"T 	c #5599BE",
"U 	c #5898BE",
"V 	c #5194BE",
"W 	c #297CAE",
"X 	c #A0C4DA",
"Y 	c #7DB0CD",
"Z 	c #D6E6F3",
"` 	c #5394BA",
" .	c #5B9BC1",
"..	c #FFFDFF",
"+.	c #71A9CA",
"@.	c #5898BB",
"#.	c #7DB0CF",
"$.	c #D5E5F2",
"%.	c #5899BF",
"&.	c #6BA3C6",
"*.	c #FEFDFF",
"=.	c #81AFD0",
"-.	c #5F9DC2",
";.	c #70A8CB",
">.	c #5394BC",
",.	c #5D9DC1",
"'.	c #78AACB",
").	c #5997BE",
"!.	c #D5E6EE",
"~.	c #BFD9E8",
"{.	c #C9DCEB",
"].	c #CEE2EB",
"^.	c #FDFEFF",
"/.	c #7AAFCF",
"(.	c #6EA9C9",
"_.	c #D9E7F2",
":.	c #BDD9E5",
"<.	c #74A9CB",
"[.	c #6FA7CA",
"}.	c #B7D4E4",
"|.	c #DFEEF3",
"1.	c #7EAFD0",
"2.	c #FCFFFD",
"3.	c #A4C7DD",
"4.	c #1F76AB",
"5.	c #0366A1",
"6.	c #0264A1",
"7.	c #1B72A7",
"8.	c #97C1D7",
"9.	c #E1EFF2",
"0.	c #7DAFD0",
"a.	c #D7E5EE",
"b.	c #A3C6DC",
"c.	c #0563A0",
"d.	c #0666A3",
"e.	c #03669F",
"f.	c #02659E",
"g.	c #8DB9D6",
"h.	c #C4DFEA",
"i.	c #116CA3",
"j.	c #0365A2",
"k.	c #0664A1",
"l.	c #04649E",
"m.	c #05659F",
"n.	c #0565A1",
"o.	c #0464A1",
"p.	c #0866A3",
"q.	c #B2D1E3",
"r.	c #E1EEF6",
"s.	c #7EB1CE",
"t.	c #71A7C9",
"u.	c #D4E8EF",
"v.	c #74AACC",
"w.	c #0464A0",
"x.	c #02659C",
"y.	c #0565A2",
"z.	c #05649C",
"A.	c #6CA7C9",
"B.	c #FFFEFA",
"C.	c #70A8CD",
"D.	c #D7E6ED",
"E.	c #67A3C5",
"F.	c #06659F",
"G.	c #66A1C3",
"H.	c #6EA8CD",
"I.	c #D6E7EF",
"J.	c #B0CFE1",
"K.	c #0767A4",
"L.	c #0266A1",
"M.	c #9BC3DC",
"N.	c #D6E7F1",
"O.	c #FCFDFF",
"P.	c #78A9C7",
"Q.	c #619DC2",
"R.	c #F6F9FE",
"S.	c #DFEDF6",
"T.	c #07669E",
"U.	c #01669E",
"V.	c #5A9CBF",
"W.	c #FDFBFF",
"X.	c #FFFDFC",
"Y.	c #6FA7C8",
"Z.	c #ABCEE1",
"`.	c #70A5C7",
" +	c #67A6C7",
".+	c #A5CADD",
"++	c #E0EDF5",
"@+	c #D4E6F0",
"#+	c #E5EEF7",
"$+	c #EBF0F4",
"%+	c #FFFEFC",
"&+	c #FEFFFA",
"*+	c #EAF2F4",
"=+	c #E6F0F9",
"-+	c #70A6CA",
";+	c #5999BD",
">+	c #64A3C4",
",+	c #7DAECE",
"'+	c #619BC1",
")+	c #7BB0D0",
"!+	c #70A9C7",
"~+	c #5798C2",
"{+	c #7CAFCE",
"]+	c #5B9CC4",
"^+	c #E0EDF3",
"/+	c #5195BC",
"(+	c #5998C3",
"_+	c #D4E6F2",
":+	c #8CB9D6",
"<+	c #2578AA",
"[+	c #8AB7D4",
"}+	c #8FBBD4",
"|+	c #90BCD7",
"1+	c #90BCD5",
"2+	c #8FBCD3",
"3+	c #8EB8D1",
"4+	c #287CAB",
"5+	c #80B1CF",
"6+	c #7BB0D2",
"7+	c #D8E6F3",
"8+	c #F1FAF9",
"9+	c #96C0D9",
"0+	c #5C9CC2",
"a+	c #5E9EC2",
"b+	c #C4DBE9",
"c+	c #CFE2F0",
"d+	c #619DC1",
"e+	c #5F9EC1",
"f+	c #5E9CC1",
"g+	c #89B8D6",
"h+	c #EBF3F6",
"i+	c #DEF0F4",
"j+	c #E2EDF3",
"k+	c #DBE8F1",
"l+	c #E9F0F8",
"m+	c #65A1C6",
"n+	c #AFD0E3",
"o+	c #D7E5F2",
"p+	c #D3E7F0",
"q+	c #D8E5ED",
"r+	c #D5E8EF",
"s+	c #D4E7EE",
"t+	c #D2E6ED",
"u+	c #D4E8F1",
"v+	c #D4E4F1",
"w+	c #BBD6E7",
"x+	c #A2C8DD",
"y+	c #79ABCC",
"z+	c #7AB1CF",
"A+	c #7CAFCC",
"B+	c #7EB1D0",
"C+	c #7EB1CC",
"D+	c #7AACCD",
"E+	c #A3C7DF",
"  . + @ + + # $ @ % + $ & * = - @ % ; % > , @ % ' % ) + @ > ! ~ ",
"& { ] ^ / ( _ : < ] : [ } ] ( ( ( ^ | 1 2 _ 3 4 } 5 : 6 / 7 8 9 ",
"0 a b c d e f g h b b h h i b b d d e b b h j d b b j d b b k l ",
"m n d j b d b h j e j b o b o b b h h b b p d j d b g d d p q r ",
"s t j b h b b j h b h b b d j b b b j d d b b h b u b b v b w l ",
"x y i d b z A B B C D b h d E b b h c b d F G H I J K L b h w l ",
"M N j h j O P Q G B R d b b g u u h c b d S T U V W X b b p w Y ",
"M Z c b h `  .j b b b j b d b ..j h j b j i c b b +.@.j c d _ #.",
"M $.h h b %.&.b c d b d o b g d i h b b *.d d b j =.-.c ..b w l ",
";.N j b b >.,.b b b b p c j d g c j h b d j b b b '.).e h p 3 l ",
"m !.b b d ~.{.b h d j j b h d f d c b b i h j b j ].D d ^.b : /.",
"(._.o b b b f h d c h j b b :.<.[.}.b o j b p b j d j b b h |.1.",
";.N b d L j 2.b e f h p b 3.4.5.6.7.8.o j i h b b b b b b b 9.0.",
"[.a.b j L d c b b b j j b.c.d.5.c.e.f.g...b j d i d d b b b / l ",
"(.t h d b ..j h d j u h.i.j.k.l.m.n.o.p.q.u j j b j E j p b r.s.",
"t.u.b b b d c b h j f v.o.w.x.y.e.5.n.z.A.b j h b b d B.j L q #.",
"C.D.u b h b b j b j d E.m.w.F.k.5.c.n.5.G.i j o b d b b h b q #.",
"H.I.b b b d d j d b b J.K.L.5.w.o.m.k.n.M.d h b b d d b j b r.l ",
"m N.b h j b h b d L d O.P.n.5.f.6.n.L.Q.R.o h d b L j b d h S.l ",
";.D.L b d c j d i j h b j E.o.j.T.U.V.W.b u b b d b d d j X.^ l ",
"Y.t h o b ^.h b b b e h j b Z.`. +.+o g j e j d j b j j d u ++#.",
"(.@+h j h #+$+h %+d h j b j b L h d i b &+b b b g *+=+b j d [ #.",
"-+@+j b j ;+>+j b i d b d h b b b *.b d j b &+b b ,+'+e b ^.q )+",
"!+Z h b b ~+% o b b j j b b h v d b c c b b b d b {+]+d o b ^+#.",
";.@+b %+j /+& b h b b j e d b b b b b b d d b b b s.(+b c h q #.",
"C._+d c L :+<+[+}+|+N b b o g d u b i j h ++1+2+3+4+5+h j d w 6+",
"t.7+j h h 8+9+0+a+-.b+e b f j d d g f o h c+d+e+f+g+h+b h d i+Y ",
"M D.j j i u h h b ^.d d j c j d d e b j u u b o h d f b b e _ {+",
"m $.p b h j d g b f j j b h o b j h i b h ..u j b g j d h b j+#.",
"Y.k+d i d c h d b %+h b b d b b h o h b j b b j h j u i j d l+{+",
"m+n+o+o+p+_+@+q+t _+t @+p+@+r+!.s+t+t @+u+@+Z t s+o+t _+t v+w+m ",
"x+y+z+A+l 0.B+)+z+#.#.0.0.0.0.0./.B+{+l 0.#.#.l C+6+l ,+#.0.D+E+"};
