/* XPM */
static char * CharacterButton_xpm[] = {
"32 32 328 2",
"  	c #A3C9DE",
". 	c #689CC4",
"+ 	c #67A6C7",
"@ 	c #6AA5C7",
"# 	c #6AA6CA",
"$ 	c #69A5C7",
"% 	c #6DA4CB",
"& 	c #6BA6C8",
"* 	c #6CA4C7",
"= 	c #6BA5CA",
"- 	c #68A4C6",
"; 	c #69A5C9",
"> 	c #69A5CA",
", 	c #69A6C5",
"' 	c #67A6C9",
") 	c #6AA5C5",
"! 	c #6DA5C6",
"~ 	c #679DC3",
"{ 	c #98C0DA",
"] 	c #6CA7C7",
"^ 	c #B3CFE4",
"/ 	c #E0EDF5",
"( 	c #E1EBF4",
"_ 	c #DFECF2",
": 	c #E1EBF5",
"< 	c #E2EDF3",
"[ 	c #E0EDF6",
"} 	c #DFECF4",
"| 	c #DDEBF4",
"1 	c #E1ECF2",
"2 	c #E0EDF3",
"3 	c #E1EBF7",
"4 	c #E3ECF5",
"5 	c #DEEBF3",
"6 	c #E2ECF5",
"7 	c #C1DBE8",
"8 	c #5F9FC2",
"9 	c #76ACCE",
"0 	c #D4E5EF",
"a 	c #FEFEFF",
"b 	c #FEFFFF",
"c 	c #FFFFFD",
"d 	c #FFFFFF",
"e 	c #FFFEFF",
"f 	c #FEFEFE",
"g 	c #FDFFFC",
"h 	c #FFFDFE",
"i 	c #E3F0F6",
"j 	c #75ACCA",
"k 	c #CFE3EA",
"l 	c #FEFEFC",
"m 	c #FDFFFE",
"n 	c #DEE3E6",
"o 	c #9AADBC",
"p 	c #B3C4CC",
"q 	c #FCFCFC",
"r 	c #FBFFFF",
"s 	c #FDFEFF",
"t 	c #FFFEFC",
"u 	c #75ABCF",
"v 	c #CFE1EF",
"w 	c #FCFFFF",
"x 	c #FFFEFD",
"y 	c #E9E9E9",
"z 	c #1E6591",
"A 	c #025798",
"B 	c #02548E",
"C 	c #90A5B6",
"D 	c #FEFFFB",
"E 	c #75AECC",
"F 	c #CFE3EE",
"G 	c #C8D5DD",
"H 	c #005E96",
"I 	c #0069A5",
"J 	c #0060A1",
"K 	c #447C9D",
"L 	c #FFFDFF",
"M 	c #DEEDF2",
"N 	c #6DA5C8",
"O 	c #75ABCD",
"P 	c #CFE1ED",
"Q 	c #FEFFFD",
"R 	c #EAE6E3",
"S 	c #27668F",
"T 	c #0060A4",
"U 	c #005490",
"V 	c #94ACB8",
"W 	c #FFFFFB",
"X 	c #DFEDF6",
"Y 	c #6AA4C9",
"Z 	c #75ACCB",
"` 	c #CEE2ED",
" .	c #F3F2F0",
"..	c #9FB2C0",
"+.	c #39739B",
"@.	c #275D7F",
"#.	c #38617F",
"$.	c #AFBCC2",
"%.	c #FDFDFB",
"&.	c #D0E2EC",
"*.	c #F8F4F5",
"=.	c #96ACB9",
"-.	c #296A94",
";.	c #015A96",
">.	c #0061A2",
",.	c #0065A5",
"'.	c #055E98",
").	c #85A2B4",
"!.	c #FAFCFB",
"~.	c #ABBCC6",
"{.	c #356F95",
"].	c #005997",
"^.	c #00639E",
"/.	c #0165A1",
"(.	c #0266A2",
"_.	c #0266A1",
":.	c #0065A3",
"<.	c #035A90",
"[.	c #BDC8CE",
"}.	c #D1D9DC",
"|.	c #00578D",
"1.	c #0062A1",
"2.	c #0062A3",
"3.	c #0266A4",
"4.	c #0365A4",
"5.	c #00629F",
"6.	c #246992",
"7.	c #F0EFED",
"8.	c #FCFFFD",
"9.	c #B2C4D0",
"0.	c #005D97",
"a.	c #03669D",
"b.	c #37729A",
"c.	c #0C6398",
"d.	c #0565A2",
"e.	c #0366A1",
"f.	c #0066A1",
"g.	c #0164A7",
"h.	c #005F9C",
"i.	c #3A7295",
"j.	c #C8CDD3",
"k.	c #8FA8BC",
"l.	c #005898",
"m.	c #367AA1",
"n.	c #D6D2D1",
"o.	c #0E5E91",
"p.	c #0067A3",
"q.	c #0067A1",
"r.	c #0066A4",
"s.	c #01649F",
"t.	c #1B6089",
"u.	c #015EA3",
"v.	c #0160A2",
"w.	c #055C91",
"x.	c #7697AA",
"y.	c #F3EFEE",
"z.	c #6A92AC",
"A.	c #015196",
"B.	c #7B9BB2",
"C.	c #8CA6B5",
"D.	c #015B99",
"E.	c #0067A2",
"F.	c #1E6D98",
"G.	c #DFDBD8",
"H.	c #5587A2",
"I.	c #025B95",
"J.	c #005D9F",
"K.	c #005B99",
"L.	c #2F6A92",
"M.	c #DDDDDD",
"N.	c #3A799A",
"O.	c #005192",
"P.	c #AAB5B9",
"Q.	c #34789D",
"R.	c #0064A2",
"S.	c #015B9A",
"T.	c #7D9CB1",
"U.	c #C5D1D1",
"V.	c #5A83A1",
"W.	c #01588E",
"X.	c #0E5E8F",
"Y.	c #E8E8E8",
"Z.	c #FCFBF9",
"`.	c #6D91A9",
" +	c #5C89A6",
".+	c #B4BFC3",
"++	c #06619A",
"@+	c #0365A2",
"#+	c #0068A2",
"$+	c #005B90",
"%+	c #D0D5D8",
"&+	c #C2C9CF",
"*+	c #B8C5CB",
"=+	c #799EB1",
"-+	c #005C99",
";+	c #93ADBC",
">+	c #F7F6F2",
",+	c #266B95",
"'+	c #0063A4",
")+	c #0061A0",
"!+	c #0069A1",
"~+	c #02629F",
"{+	c #246993",
"]+	c #F5F1F2",
"^+	c #B6C5CC",
"/+	c #005A91",
"(+	c #0466A3",
"_+	c #0063A1",
":+	c #30668A",
"<+	c #065F97",
"[+	c #7194A7",
"}+	c #628AA3",
"|+	c #005C9B",
"1+	c #0D6396",
"2+	c #DFDFDD",
"3+	c #5A89A7",
"4+	c #0065A7",
"5+	c #04598F",
"6+	c #EBECEE",
"7+	c #166492",
"8+	c #0264A5",
"9+	c #005D9A",
"0+	c #628CA4",
"a+	c #DADEDD",
"b+	c #085D93",
"c+	c #015F9F",
"d+	c #34739C",
"e+	c #FAF9F4",
"f+	c #B5C3CE",
"g+	c #005C95",
"h+	c #0066A5",
"i+	c #085B8F",
"j+	c #D7D8DA",
"k+	c #7396AA",
"l+	c #1E6C9D",
"m+	c #F3F1F2",
"n+	c #5A88A0",
"o+	c #0160A0",
"p+	c #005D9D",
"q+	c #5F8BA4",
"r+	c #ECE6E6",
"s+	c #116291",
"t+	c #126599",
"u+	c #EBEDEC",
"v+	c #EAE8E9",
"w+	c #146292",
"x+	c #0064A4",
"y+	c #075C93",
"z+	c #D2D6D7",
"A+	c #FEFAF7",
"B+	c #2F729C",
"C+	c #086296",
"D+	c #DCDDDF",
"E+	c #76ABCB",
"F+	c #CEE4EF",
"G+	c #9BB1BE",
"H+	c #00609D",
"I+	c #4B809F",
"J+	c #4D82A2",
"K+	c #005F9F",
"L+	c #005B96",
"M+	c #C9D0D8",
"N+	c #FFFCFB",
"O+	c #457A9A",
"P+	c #005993",
"Q+	c #BAC7CD",
"R+	c #7095AF",
"S+	c #005C9D",
"T+	c #015A94",
"U+	c #B7C4CC",
"V+	c #DFEDF8",
"W+	c #D1E2EC",
"X+	c #DADBE0",
"Y+	c #005990",
"Z+	c #447A9C",
"`+	c #FEFDF8",
" @	c #91ACBD",
".@	c #005A96",
"+@	c #9CB3C1",
"@@	c #6EA4C6",
"#@	c #72ADCD",
"$@	c #DFE4E7",
"%@	c #4F82A1",
"&@	c #195D8C",
"*@	c #B4C2CB",
"=@	c #B1C3CD",
"-@	c #005288",
";@	c #085990",
">@	c #93AABA",
",@	c #FEFDFB",
"'@	c #DEECF5",
")@	c #76ABCA",
"!@	c #EDE9E6",
"~@	c #F0EEEF",
"{@	c #C3CCD1",
"]@	c #D8E0E3",
"^@	c #F5F5F5",
"/@	c #74ABCA",
"(@	c #D6E7F1",
"_@	c #E6F1F7",
":@	c #6CA7C9",
"<@	c #A4C7DD",
"[@	c #CEE1EF",
"}@	c #CCE2EF",
"|@	c #CDE4EC",
"1@	c #D0E0ED",
"2@	c #CCE4EE",
"3@	c #CEE2E9",
"4@	c #CEE0EA",
"5@	c #CFE3EC",
"6@	c #D0E2EE",
"7@	c #CEE2EB",
"8@	c #CFE1EB",
"9@	c #B1D0E4",
"0@	c #5F9DC2",
"a@	c #AFCEE2",
"b@	c #73A5C8",
"c@	c #79ABCE",
"d@	c #74ACCF",
"e@	c #78AACB",
"f@	c #74ACCD",
"g@	c #75ADC8",
"h@	c #72ADCB",
"i@	c #76ADCB",
"j@	c #72ADCF",
"k@	c #76ABCD",
"l@	c #74A6C7",
"m@	c #A3C7DF",
"  . + @ # $ % $ & * = # = & - ; > * , @ = = @ $ @ ' ) > ! @ ~ { ",
"] ^ / ( ( _ : < [ _ } | _ 1 ( } 2 ( 3 _ ( ( 2 } ( [ 4 5 / 6 7 8 ",
"9 0 a b c d d e c d c e d d c f a d d g c b h d d c b e d d i # ",
"j k d c l d d d b d l m d d f d n o p q c r c e b c s b t d } ! ",
"u v e d w b c b d b c x b d e y z A B C c d d D b b b d e c / ; ",
"E F d b f c e a c b d e b d d G H I J K e e d d L c c f d b M N ",
"O P c c Q b a e c d b c d b c R S T U V c b Q e d W m Q W e X Y ",
"Z ` b f e L d Q b b c e d  ...+.@.#.$.%.m e d f Q e e e d b } @ ",
"Z &.d d d d d d d d e *.=.-.;.>.,.'.).e d b e l d d d d d f / @ ",
"Z &.d d d d d d c !.~.{.].^./.(._.:.<.[.d e d e d d d d d d } & ",
"Z &.d d d d d d e }.|.1.2.3.3./.4.(.5.6.7.d 8.w d d d d d d / & ",
"Z &.d d d d d d d 9.0.a.b.c.d.(.e.f.g.h.i.j.W d d f d f d d } @ ",
"Z &.d d d d d d l k.l.m.n.o.p.q.r.s.t.u.v.w.x.y.d d d d f d / & ",
"Z &.d d d d d d b z.A.B.C.D.E./.1.F.G.H.I.J.K.L.M.d d f d d } @ ",
"Z &.d d d d d d m N.O.P.Q.R.4.(.S.T.d c U.V.W.X.Y.d f d d f / @ ",
"Z &.d d d d d d Z.`. +.+++3.@+#+$+%+d e f c &+*+d d d d d d / @ ",
"Z &.d d d d d d e L c =+S.(.(.E.-+;+c d d Q c b d d d d d d } @ ",
"Z &.d d d d d d d c >+,+'+@+)+!+~+{+]+d b L b l d d d d d d } @ ",
"Z &.d d d d d d c d ^+/+(+_+:+<+r.S.[+b x b a e d d d d d d } @ ",
"Z &.d d d d d d d e }+|+,.1+2+3+h.4+5+*+m b d e d d d d d d } @ ",
"Z &.d d d d d d d 6+7+8+9+0+c a+b+3.c+d+e+d c Q d d d d d d } @ ",
"Z &.d d d d d d c f+g+h+i+j+Q e k+9+4+l+m+b d d d d d d d d } @ ",
"Z &.d d d d d d b n+o+p+q+d b d r+s+,.t+u+g e d d d d d d d } @ ",
"Z &.d d d d d d v+w+x+y+z+d d d A+B+>.C+D+b d d d d d d d d } @ ",
"E+F+f d d e d Q G+A H+I+c d d b Q J+K+L+M+f d b b c e d c c 2 @ ",
"9 ` e d c f d N+O+T P+Q+d d e c d R+S+T+U+c f d d w b c c e V+; ",
"Z W+e d Q c d X+Y+S+Z+`+b W b a d  @|+.@+@d d d h d d d c e } @@",
"#@F d e s b e $@%@&@*@d c f b c c =@-@;@>@e s d d c d b ,@d '@$ ",
")@&.m e c f e d e !@f t b d t d b ~@{@]@^@d W b b l b d e d 6 * ",
"/@(@d d c c e a d f m d d e f d d d d c x f d d b c d d b d _@# ",
":@<@&.v [@` }@|@1@2@}@F 3@&.[@4@5@}@` 5@v [@6@7@6@F 8@` 7@P 9@0@",
"a@b@#@j Z E+c@Z d@)@e@E+f@O f@Z E+Z O g@O h@Z Z i@j@k@O j f@l@m@"};
