/* XPM */
static char * CharacterButton_xpm[] = {
"32 32 406 2",
"  	c None",
". 	c #A3C9DE",
"+ 	c #689CC4",
"@ 	c #67A6C7",
"# 	c #6AA5C7",
"$ 	c #6AA6CA",
"% 	c #69A5C7",
"& 	c #6DA4CB",
"* 	c #67A6C9",
"= 	c #6AA5C5",
"- 	c #69A5CA",
"; 	c #6DA5C6",
"> 	c #679DC3",
", 	c #98C0DA",
"' 	c #6CA7C7",
") 	c #B3CFE4",
"! 	c #E0EDF5",
"~ 	c #E1EBF4",
"{ 	c #DFECF2",
"] 	c #E1EBF5",
"^ 	c #E2EDF3",
"/ 	c #DFECF4",
"( 	c #E0EDF6",
"_ 	c #E3ECF5",
": 	c #DEEBF3",
"< 	c #E2ECF5",
"[ 	c #C1DBE8",
"} 	c #5F9FC2",
"| 	c #76ACCE",
"1 	c #D4E5EF",
"2 	c #FDFDFD",
"3 	c #FCFCFC",
"4 	c #FEFEFE",
"5 	c #FFFFFF",
"6 	c #FFFEFE",
"7 	c #E3F0F6",
"8 	c #75ACCA",
"9 	c #CFE3EA",
"0 	c #FCFDFC",
"a 	c #FBF9F6",
"b 	c #FAECD9",
"c 	c #FBE8D0",
"d 	c #FBEED8",
"e 	c #FBF8EE",
"f 	c #FCFDFD",
"g 	c #FFFEFF",
"h 	c #FEFFFE",
"i 	c #75ABCF",
"j 	c #CFE1EF",
"k 	c #FBF9F3",
"l 	c #F6CC9C",
"m 	c #F88402",
"n 	c #FB8402",
"o 	c #FA950D",
"p 	c #FACA6E",
"q 	c #FCF6E4",
"r 	c #FDFEFF",
"s 	c #FEFDFD",
"t 	c #FFFFFE",
"u 	c #69A5C9",
"v 	c #75AECC",
"w 	c #CFE3EE",
"x 	c #FBFCFC",
"y 	c #F6E5D1",
"z 	c #E26D00",
"A 	c #E97310",
"B 	c #F57E13",
"C 	c #F9800D",
"D 	c #FA8A11",
"E 	c #F9C985",
"F 	c #FCFAF3",
"G 	c #FDFFFF",
"H 	c #DEEDF2",
"I 	c #6DA5C8",
"J 	c #75ABCD",
"K 	c #CFE1ED",
"L 	c #FBFBFB",
"M 	c #EFD6BD",
"N 	c #C55A00",
"O 	c #D16D11",
"P 	c #DC7011",
"Q 	c #E57512",
"R 	c #ED7100",
"S 	c #F4993F",
"T 	c #FBECDA",
"U 	c #FEFEFF",
"V 	c #FEFFFF",
"W 	c #FDFEFD",
"X 	c #FFFDFE",
"Y 	c #DFEDF6",
"Z 	c #6AA4C9",
"` 	c #75ACCB",
" .	c #CEE2ED",
"..	c #FBFCFB",
"+.	c #EDDCC7",
"@.	c #B45900",
"#.	c #B9610C",
"$.	c #C06611",
"%.	c #C4650F",
"&.	c #C75C00",
"*.	c #E1924D",
"=.	c #FBEEE1",
"-.	c #FFFAF2",
";.	c #FFF8EF",
">.	c #76ABCB",
",.	c #CCE2EF",
"'.	c #F6F0E7",
").	c #C98E53",
"!.	c #A55506",
"~.	c #A24F01",
"{.	c #A55408",
"].	c #BB7738",
"^.	c #E5C8AD",
"/.	c #FBF8F7",
"(.	c #FCECE1",
"_.	c #F3CFAE",
":.	c #ECB683",
"<.	c #ECAC6F",
"[.	c #FBF3E7",
"}.	c #FEFEFD",
"|.	c #E1ECF2",
"1.	c #CDE3F0",
"2.	c #FDFDFC",
"3.	c #EFE2D4",
"4.	c #C6986C",
"5.	c #B07B48",
"6.	c #A56022",
"7.	c #CE9A70",
"8.	c #FBF2E4",
"9.	c #FDE2BB",
"0.	c #F2A660",
"a.	c #E19250",
"b.	c #DAA06D",
"c.	c #BB7131",
"d.	c #E5A263",
"e.	c #76ABCA",
"f.	c #CFE3EC",
"g.	c #FDFEFE",
"h.	c #F8F2EC",
"i.	c #EEE6DD",
"j.	c #D6B399",
"k.	c #D18F5F",
"l.	c #EFA664",
"m.	c #FEA53A",
"n.	c #F1870F",
"o.	c #F0CDA9",
"p.	c #F6EEE8",
"q.	c #D9CBC0",
"r.	c #B4590D",
"s.	c #FBDABA",
"t.	c #6BA5CA",
"u.	c #74ACCD",
"v.	c #D1E2EC",
"w.	c #F7EEE8",
"x.	c #E3A06C",
"y.	c #EC7510",
"z.	c #F97F0E",
"A.	c #FC850C",
"B.	c #FCB15A",
"C.	c #FBFDF8",
"D.	c #C19D80",
"E.	c #CB742B",
"F.	c #FDFCFC",
"G.	c #D0E2EE",
"H.	c #FCFCFA",
"I.	c #FEFBF9",
"J.	c #F9ECE0",
"K.	c #EB944C",
"L.	c #DD5F00",
"M.	c #D56807",
"N.	c #DD7211",
"O.	c #F47E0C",
"P.	c #F8AF5A",
"Q.	c #FDFCF9",
"R.	c #F4F2F2",
"S.	c #AA5F20",
"T.	c #F6B16F",
"U.	c #FFEDD5",
"V.	c #E3ECF1",
"W.	c #75ADCE",
"X.	c #CBE1EC",
"Y.	c #EEDBCC",
"Z.	c #D59662",
"`.	c #FDFAF7",
" +	c #F5E6D7",
".+	c #E79851",
"++	c #D48846",
"@+	c #AB692D",
"#+	c #A54E00",
"$+	c #C66308",
"%+	c #F47C0A",
"&+	c #F6CA92",
"*+	c #9C4703",
"=+	c #B05D0E",
"-+	c #D18C49",
";+	c #FBDFC6",
">+	c #6CA4C7",
",+	c #D0E2EC",
"'+	c #F1DCC8",
")+	c #D17018",
"!+	c #E4B081",
"~+	c #F9EADE",
"{+	c #DF985B",
"]+	c #E9C29D",
"^+	c #F4F2EF",
"/+	c #DDCBB9",
"(+	c #B57031",
"_+	c #C4640B",
":+	c #F48213",
"<+	c #FEEACD",
"[+	c #833700",
"}+	c #964B0B",
"|+	c #A05510",
"1+	c #E39C63",
"2+	c #DEECF5",
"3+	c #6BA6C8",
"4+	c #76ADCC",
"5+	c #CFE1EB",
"6+	c #EBD3BD",
"7+	c #B95400",
"8+	c #BD6F2D",
"9+	c #D7B295",
"0+	c #E19F66",
"a+	c #E5B287",
"b+	c #FCFBF9",
"c+	c #E4D4C8",
"d+	c #B7702D",
"e+	c #C3640D",
"f+	c #FF9728",
"g+	c #94571F",
"h+	c #AB7D5E",
"i+	c #BB5900",
"j+	c #EC9D51",
"k+	c #FCFAF8",
"l+	c #EAD7C3",
"m+	c #AD5605",
"n+	c #BB6515",
"o+	c #DE883B",
"p+	c #D38239",
"q+	c #DEB08A",
"r+	c #FCF8F5",
"s+	c #D1B4A1",
"t+	c #B1641E",
"u+	c #CF670E",
"v+	c #E4881F",
"w+	c #F8FAFC",
"x+	c #B88262",
"y+	c #D3BEB3",
"z+	c #FDFEFC",
"A+	c #FDFEFB",
"B+	c #E2CFBB",
"C+	c #BA7538",
"D+	c #CE9259",
"E+	c #CFA57A",
"F+	c #ECE6DC",
"G+	c #FCFCFB",
"H+	c #C39169",
"I+	c #B6600E",
"J+	c #DC7212",
"K+	c #F2BA6F",
"L+	c #68A4C6",
"M+	c #CEE1F0",
"N+	c #FCFFFE",
"O+	c #F6EFE6",
"P+	c #EEDDCD",
"Q+	c #EBD0B6",
"R+	c #E5AE80",
"S+	c #B0621A",
"T+	c #BE6212",
"U+	c #DC9151",
"V+	c #FEFDFE",
"W+	c #FEFDFF",
"X+	c #FDFFFD",
"Y+	c #DEECF7",
"Z+	c #FAF9F7",
"`+	c #DAA87E",
" @	c #BC6A22",
".@	c #B76722",
"+@	c #B47443",
"@@	c #C69B77",
"#@	c #C46005",
"$@	c #EDB58A",
"%@	c #FCFAF4",
"&@	c #FDFCFB",
"*@	c #E0EDF3",
"=@	c #71ACCA",
"-@	c #EEDACB",
";@	c #B67232",
">@	c #C59A72",
",@	c #EAE2DC",
"'@	c #B55908",
")@	c #E3A169",
"!@	c #FDFFFE",
"~@	c #F7DBC3",
"{@	c #F7BC7C",
"]@	c #FAE7CB",
"^@	c #CEE2EB",
"/@	c #EDD6C3",
"(@	c #B97235",
"_@	c #E6CFBA",
":@	c #C28043",
"<@	c #D5863C",
"[@	c #FCFDFE",
"}@	c #FDEFE2",
"|@	c #F1C69F",
"1@	c #D88034",
"2@	c #E06300",
"3@	c #F7B25C",
"4@	c #FDF7EB",
"5@	c #76ABCD",
"6@	c #EDD5C0",
"7@	c #BF7535",
"8@	c #E3C8AE",
"9@	c #D7AE89",
"0@	c #C87529",
"a@	c #FEEDDE",
"b@	c #F4C6A0",
"c@	c #E19859",
"d@	c #CC7628",
"e@	c #BA671F",
"f@	c #BD6010",
"g@	c #E57907",
"h@	c #FCE2BA",
"i@	c #FCFDFB",
"j@	c #ECD9C8",
"k@	c #C37936",
"l@	c #E6C9AF",
"m@	c #ECD9CA",
"n@	c #B45400",
"o@	c #F4C797",
"p@	c #EDB98A",
"q@	c #DB8F4D",
"r@	c #D27F3A",
"s@	c #CF9360",
"t@	c #D5B395",
"u@	c #E0CCBA",
"v@	c #D4B08F",
"w@	c #C16613",
"x@	c #E59438",
"y@	c #FAF1E3",
"z@	c #F8F0E8",
"A@	c #F0C59D",
"B@	c #FCCFA3",
"C@	c #EFCCAA",
"D@	c #C67B38",
"E@	c #E7C9AE",
"F@	c #FAF7F5",
"G@	c #C38653",
"H@	c #D1833C",
"I@	c #DF9F65",
"J@	c #D19F71",
"K@	c #DFC3AC",
"L@	c #F4EFEA",
"M@	c #F9F9F9",
"N@	c #D4B597",
"O@	c #C9772D",
"P@	c #F4E5D4",
"Q@	c #CEE1EF",
"R@	c #F6ECE4",
"S@	c #DC995E",
"T@	c #E27B1D",
"U@	c #E48E3D",
"V@	c #C56815",
"W@	c #E7C7AA",
"X@	c #FDFDFE",
"Y@	c #F1E9E2",
"Z@	c #E6CEBC",
"`@	c #F4EAE0",
" #	c #F7F3EE",
".#	c #FBFBFC",
"+#	c #F9F9F7",
"@#	c #E6D3C5",
"##	c #F8F4EE",
"$#	c #DFEDF8",
"%#	c #E9CDB7",
"&#	c #CF7629",
"*#	c #CA6406",
"=#	c #BD5800",
"-#	c #E7C5A7",
";#	c #FEFDFC",
">#	c #6EA4C6",
",#	c #CCE2ED",
"'#	c #E6C4A9",
")#	c #C06415",
"!#	c #AF4E00",
"~#	c #E1C6AD",
"{#	c #EDDCD0",
"]#	c #E9D8CA",
"^#	c #F8F4EF",
"/#	c #D5E6F0",
"(#	c #E6F1F7",
"_#	c #6BA6C6",
":#	c #A7C7DE",
"<#	c #D0E2F0",
"[#	c #B1D0E4",
"}#	c #5F9DC2",
"|#	c #AFCEE2",
"1#	c #73A5CA",
"2#	c #72AFCC",
"3#	c #74ADCB",
"4#	c #76AACF",
"5#	c #74ADCA",
"6#	c #76ADCB",
"7#	c #72ADCF",
"8#	c #74A6C7",
"9#	c #A3C7DF",
". + @ # $ % & % # # # # # # # # # # # # # # # # # * = - ; # > , ",
"' ) ! ~ ~ { ] ^ / / / / / / / / / / / / / / / / ~ ( _ : ! < [ } ",
"| 1 2 2 2 3 3 2 4 4 2 4 5 6 4 5 5 5 5 5 5 5 5 5 5 5 5 5 5 5 7 $ ",
"8 9 0 3 a b c d e f 4 6 4 4 6 5 g 5 h g 5 5 5 5 5 5 5 5 5 5 / ; ",
"i j 0 k l m n o p q r 4 s 4 5 4 5 h g t 5 5 5 5 5 5 5 5 5 5 ! u ",
"v w x y z A B C D E F G 4 6 5 h h 4 6 5 5 5 5 5 5 5 5 5 5 5 H I ",
"J K L M N O P Q R S T G U V V 4 W X t 5 4 5 5 5 5 5 5 5 5 5 Y Z ",
"`  ...+.@.#.$.%.&.*.=.V 5 -.;.G s 6 V 4 5 4 5 5 5 5 5 5 5 5 / # ",
">.,.3 '.).!.~.{.].^./.(._.:.<.[.r }.4 4 4 5 4 5 5 5 5 5 5 5 |.# ",
"` 1.2 2.3.4.5.6.7.8.9.0.a.b.c.d.V 0 4 4 4 4 5 5 5 5 5 5 5 5 ! u ",
"e.f.4 4 g.h.i.j.k.l.m.n.o.p.q.r.s.G s 4 4 4 5 5 V 5 5 5 5 5 / t.",
"u.v.5 2 g.V 5 w.x.y.z.A.B.C.5 D.E.5 G F.4 5 V 4 5 5 5 5 5 5 ^ u ",
"u.G.5 2 H.I.V J.K.L.M.N.O.P.Q.R.S.T.U.G s 4 4 V 5 5 5 5 5 5 V.u ",
"W.X.4 2.Y.Z.`. +.+++@+#+$+%+&+5 *+=+-+;+V W 5 5 V 5 5 5 5 5 ( >+",
"e.,+g.f '+)+!+~+{+]+^+/+(+_+:+<+[+}+|+1+5 r U h 5 5 5 5 5 5 2+3+",
"4+5+4 2.6+7+8+9+0+a+b+5 c+d+e+f+g+h+i+j+k+V g V t 5 5 5 5 5 Y # ",
"u.w 4 2.l+m+n+o+p+q+r+g.5 s+t+u+v+w+x+y+5 z+t h U 4 5 5 g h |.Z ",
"` G.5 6 A+B+C+D+E+F+V 0 G+5 H+I+J+K+5 5 F.4 U h W 4 g 4 4 4 ( L+",
">.M+4 4 4 5 5 5 5 V N+O+P+Q+R+S+T+U+5 s g }.W V+g U W+2 X+g Y+3+",
"` 5+4 5 4 s 2 2 W V Z+`+ @.@+@@@#@$@5 4 V 4 g.r 2.%@&@2 W 6 *@# ",
"=@v.5 4 4 6 6 g 4 5 -@;@>@,@5 5 '@)@5 2 4 r V !@~@{@]@2.s s < Z ",
"W.^@V 6 6 V 4 6 4 5 /@(@_@5 g.5 :@<@5 [@G 5 }@|@1@2@3@4@2 g.{ >+",
"5@w 5 4 4 V 4 4 V 5 6@7@8@2.4 5 9@0@5 h a@b@c@d@e@f@g@h@i@4 ! Z ",
">.^@5 4 4 4 4 V V 5 j@k@l@2.t G m@n@o@p@q@r@s@t@u@v@w@x@y@2 ] % ",
"` ^@4 5 4 2 G z@A@B@C@D@E@3 6 f F@G@H@I@J@K@L@M@V G+N@O@P@3 *@# ",
"u.Q@5 4 4 4 5 R@S@T@U@V@W@F.4 2 X@Y@Z@`@ #.#5 V 4 5 +#@###2 $#u ",
">.,+5 4 4 5 5 r %#&#*#=#-#;#4 4 4 5 2 V 5 5 4 4 4 }.V X@W 4 / >#",
"u.,#4 5 5 g t V V '#)#!#~#0 4 4 5 5 5 5 4 4 5 5 4 4 U 4 h 2 2+% ",
">.5+5 5 5 5 4 2 V k+{#]#^#2.W h g 5 V 5 4 4 5 5 4 5 4 4 5 4 < >+",
"u./#5 5 5 5 4 2 4 }.F.3 3 0 W 4 5 5 5 4 5 5 4 4 5 5 4 4 5 5 (#$ ",
"_#:#^@w w ^@<#G. . . . . . . . . . . . . . . . .G.w 5+ .^@K [#}#",
"|#1#2#>.J 3#4#5#J J J J J J J J J J J J J J J J 6#7#5@J 8 u.8#9#"};
