/* XPM */
static char * LargeCenterPointJumpButtonSelect_xpm[] = {
"32 32 401 2",
"  	c None",
". 	c #7591E3",
"+ 	c #4D7AD4",
"@ 	c #4F7AD5",
"# 	c #4F7BD6",
"$ 	c #4E7BD5",
"% 	c #507AD2",
"& 	c #4C7BD6",
"* 	c #507AD5",
"= 	c #507BD5",
"- 	c #507CD5",
"; 	c #4F7BD5",
"> 	c #4F7CD6",
", 	c #507AD4",
"' 	c #4F7CD7",
") 	c #7392E3",
"! 	c #4C7BD4",
"~ 	c #8DA1ED",
"{ 	c #ACB4F6",
"] 	c #AAB3F7",
"^ 	c #ABB3F7",
"/ 	c #ACB4F8",
"( 	c #AAB4F4",
"_ 	c #ADB5F7",
": 	c #AEB6F7",
"< 	c #AFB7F7",
"[ 	c #B0B8F7",
"} 	c #B1B9F7",
"| 	c #B0B9F7",
"1 	c #ACB4F7",
"2 	c #ACB3F9",
"3 	c #AAB4F8",
"4 	c #97A7F0",
"5 	c #5580D6",
"6 	c #547ED7",
"7 	c #A4AEF3",
"8 	c #BFBFFE",
"9 	c #C0C0FF",
"0 	c #C0C0FD",
"a 	c #BDC0FF",
"b 	c #C1C1FF",
"c 	c #C3C3FF",
"d 	c #C5C5FF",
"e 	c #C6C6FF",
"f 	c #C7C7FF",
"g 	c #C8C8FF",
"h 	c #C9C9FF",
"i 	c #C4C4FF",
"j 	c #C2C2FF",
"k 	c #BFC0FF",
"l 	c #BFBFFC",
"m 	c #C0BFFF",
"n 	c #C0BEFF",
"o 	c #ADB3F6",
"p 	c #5C84DB",
"q 	c #527ED5",
"r 	c #9FADF2",
"s 	c #CACAFF",
"t 	c #CBCBFF",
"u 	c #CCCCFF",
"v 	c #CDCDFF",
"w 	c #CACBFF",
"x 	c #C6C5FF",
"y 	c #C1C1FB",
"z 	c #BEC0FE",
"A 	c #C0BFFC",
"B 	c #A9B3F6",
"C 	c #5C84DA",
"D 	c #527FD7",
"E 	c #A1ADF2",
"F 	c #C3C3FD",
"G 	c #C8C7FF",
"H 	c #CAC9FF",
"I 	c #CCCBFF",
"J 	c #CFCEFF",
"K 	c #D0CFFF",
"L 	c #D1D0FF",
"M 	c #CECDFF",
"N 	c #CDCCFF",
"O 	c #CBCAFF",
"P 	c #C9C8FF",
"Q 	c #C4C4FD",
"R 	c #AAB4F5",
"S 	c #5C84DD",
"T 	c #C6C6FD",
"U 	c #CFCFFF",
"V 	c #D1D1FF",
"W 	c #D3D2FF",
"X 	c #D4D4FF",
"Y 	c #D5D4FF",
"Z 	c #D5D5FF",
"` 	c #D3D3FF",
" .	c #D2D2FF",
"..	c #D0D0FF",
"+.	c #CECEFF",
"@.	c #C4C5FD",
"#.	c #A9B3F5",
"$.	c #5E85DB",
"%.	c #557DD7",
"&.	c #A2ADF2",
"*.	c #C1C3FE",
"=.	c #C4C6FF",
"-.	c #D6D6FF",
";.	c #D7D7FF",
">.	c #D8D8FF",
",.	c #D9D9FF",
"'.	c #D9D8FF",
").	c #CCCDFE",
"!.	c #C4C5FF",
"~.	c #C1C1FD",
"{.	c #AAB2F8",
"].	c #5B83DC",
"^.	c #547ED6",
"/.	c #C1C2FF",
"(.	c #C9C7FF",
"_.	c #CCCCFD",
":.	c #CECFFD",
"<.	c #DADAFF",
"[.	c #DBDBFF",
"}.	c #DCDCFF",
"|.	c #DDDDFF",
"1.	c #CFD0FD",
"2.	c #CDCDFD",
"3.	c #C3C4FF",
"4.	c #C0C1FF",
"5.	c #A0ADF3",
"6.	c #C5C4FF",
"7.	c #D3D4FF",
"8.	c #D6D7FF",
"9.	c #DDDDFD",
"0.	c #DFDFFF",
"a.	c #E0E0FF",
"b.	c #E0E1FF",
"c.	c #E1E1FD",
"d.	c #DFE0FE",
"e.	c #DFE0FF",
"f.	c #DDDEFC",
"g.	c #5E84DA",
"h.	c #D0D1FF",
"i.	c #D6D7FD",
"j.	c #DBDCFF",
"k.	c #DEDFFF",
"l.	c #DEE1FE",
"m.	c #E3E2FF",
"n.	c #E4E4FF",
"o.	c #E4E5FD",
"p.	c #E5E4FF",
"q.	c #E3E2FC",
"r.	c #E2E1FF",
"s.	c #D9DBFE",
"t.	c #D7D8FF",
"u.	c #ABB4F6",
"v.	c #A1AEF3",
"w.	c #DADCFF",
"x.	c #DFDEFD",
"y.	c #E2E2FD",
"z.	c #E0E3FC",
"A.	c #AEC3E6",
"B.	c #7DA7D6",
"C.	c #7AA5D7",
"D.	c #A2BEE3",
"E.	c #DAE0FA",
"F.	c #E5E4FC",
"G.	c #E3E3FF",
"H.	c #E0E1FD",
"I.	c #DEDEFD",
"J.	c #DADBFF",
"K.	c #ACB6F6",
"L.	c #A3AFF3",
"M.	c #DBDAFF",
"N.	c #DFDEFF",
"O.	c #E4E5FF",
"P.	c #B3C8EA",
"Q.	c #4A87C4",
"R.	c #2D78B8",
"S.	c #3178B6",
"T.	c #2F78B5",
"U.	c #3078B8",
"V.	c #3F83BB",
"W.	c #A2BDE6",
"X.	c #E6E6FF",
"Y.	c #E2E3FF",
"Z.	c #DDDCFF",
"`.	c #DAD9FF",
" +	c #ADB7F6",
".+	c #5E85DA",
"++	c #A4B0F3",
"@+	c #DCDCFE",
"#+	c #E1E1FF",
"$+	c #B4C8EA",
"%+	c #3278BA",
"&+	c #2E79B7",
"*+	c #327BB5",
"=+	c #327DBA",
"-+	c #347CB8",
";+	c #327CB8",
">+	c #3278B7",
",+	c #2F78B8",
"'+	c #9DB8E2",
")+	c #E5E6FF",
"!+	c #E2E2FF",
"~+	c #DFDDFE",
"{+	c #AEB8F6",
"]+	c #5F86DA",
"^+	c #557ED6",
"/+	c #A4B1F3",
"(+	c #DEDFFD",
"_+	c #E1E2FF",
":+	c #DDE1FC",
"<+	c #4181BF",
"[+	c #3078B7",
"}+	c #337BB8",
"|+	c #377EB6",
"1+	c #3880B6",
"2+	c #3880B8",
"3+	c #377FB6",
"4+	c #357DB6",
"5+	c #3379B8",
"6+	c #3379B9",
"7+	c #CFD9F5",
"8+	c #E3E4FF",
"9+	c #AFB9F6",
"0+	c #6086DA",
"a+	c #557FD6",
"b+	c #A5B2F3",
"c+	c #E4E3FF",
"d+	c #A6BFE6",
"e+	c #2D77B8",
"f+	c #317BB6",
"g+	c #357CB9",
"h+	c #3782B8",
"i+	c #3983B7",
"j+	c #3A85B8",
"k+	c #3983B8",
"l+	c #3780B8",
"m+	c #327CB5",
"n+	c #3079B6",
"o+	c #89AEDC",
"p+	c #DEDEFF",
"q+	c #B0BAF6",
"r+	c #6187DA",
"s+	c #D4D5FF",
"t+	c #729ED1",
"u+	c #3078B6",
"v+	c #3680B8",
"w+	c #3983B5",
"x+	c #3F86B8",
"y+	c #3F88B4",
"z+	c #3D84BA",
"A+	c #3981B6",
"B+	c #347EB8",
"C+	c #3178B7",
"D+	c #6095CD",
"E+	c #E6E5FB",
"F+	c #D2D3FF",
"G+	c #699ACD",
"H+	c #2E78B8",
"I+	c #337BB5",
"J+	c #3880B7",
"K+	c #3C81B8",
"L+	c #3D89B6",
"M+	c #3F8AB8",
"N+	c #3D85B6",
"O+	c #357DB8",
"P+	c #3279B8",
"Q+	c #5C92C8",
"R+	c #E3E3FE",
"S+	c #94B3DF",
"T+	c #367EB7",
"U+	c #3A82B8",
"V+	c #3A85B7",
"W+	c #3C84B5",
"X+	c #3984B6",
"Y+	c #3980B6",
"Z+	c #337DB8",
"`+	c #3179B8",
" @	c #76A3D4",
".@	c #E5E6FD",
"+@	c #A5B1F3",
"@@	c #DFDDFF",
"#@	c #E3E3FD",
"$@	c #D0D8F5",
"%@	c #2F77B9",
"&@	c #3179B6",
"*@	c #3580B6",
"=@	c #3681B7",
"-@	c #3882B8",
";@	c #3980B8",
">@	c #367CB9",
",@	c #2F77B5",
"'@	c #BACBEE",
")@	c #6087DA",
"!@	c #E3E5FE",
"~@	c #8AAFDD",
"{@	c #2E76B7",
"]@	c #317AB6",
"^@	c #317CB7",
"/@	c #357CB8",
"(@	c #367DB6",
"_@	c #347BB7",
":@	c #307BB7",
"<@	c #2E78B5",
"[@	c #709FD1",
"}@	c #A3B0F3",
"|@	c #DFDFFD",
"1@	c #E5E5FD",
"2@	c #81A9D7",
"3@	c #2E76B8",
"4@	c #3079B8",
"5@	c #2F7BB6",
"6@	c #2C77B7",
"7@	c #6D9DCF",
"8@	c #E0E3FD",
"9@	c #E1E0FD",
"0@	c #5F85DA",
"a@	c #A2AEF3",
"b@	c #DCDDFF",
"c@	c #BBCDEE",
"d@	c #75A2D2",
"e@	c #538DC7",
"f@	c #518BC5",
"g@	c #6F9ED1",
"h@	c #B0C6E9",
"i@	c #C7C6FF",
"j@	c #D9D9FC",
"k@	c #E4E4FE",
"l@	c #E5E5FF",
"m@	c #E6E5FF",
"n@	c #E5E5FB",
"o@	c #DDDEFF",
"p@	c #DBDBFC",
"q@	c #C8C9FF",
"r@	c #ABB5F6",
"s@	c #D4D4FC",
"t@	c #D8D9FF",
"u@	c #DEE0FE",
"v@	c #E1E1FE",
"w@	c #E0E0FD",
"x@	c #D6D6FD",
"y@	c #557DD6",
"z@	c #A0ADF2",
"A@	c #C0C0FB",
"B@	c #C2C3FF",
"C@	c #CCCFFC",
"D@	c #CECEFD",
"E@	c #C7C8FF",
"F@	c #C4C4FB",
"G@	c #AAB3F5",
"H@	c #527DD8",
"I@	c #A1AEF6",
"J@	c #C4C3FB",
"K@	c #C6C7FF",
"L@	c #C8CAFE",
"M@	c #D9DAFF",
"N@	c #C9CBFE",
"O@	c #C5C4FE",
"P@	c #C2C1FE",
"Q@	c #AAB3F8",
"R@	c #5B84DA",
"S@	c #A0ADF1",
"T@	c #C7C7FD",
"U@	c #D6D5FF",
"V@	c #C8C8FD",
"W@	c #C5C5FD",
"X@	c #AAB1F4",
"Y@	c #5E83DA",
"Z@	c #537DD8",
"`@	c #C0C1FE",
" #	c #AAB3F6",
".#	c #5B85DB",
"+#	c #C1C0FF",
"@#	c #C2C3FE",
"##	c #A5AFF5",
"$#	c #BFC0FD",
"%#	c #C0BEFE",
"&#	c #AFB5F6",
"*#	c #4C79D3",
"=#	c #859CEA",
"-#	c #A1ACF2",
";#	c #9FADF3",
">#	c #A0ADF4",
",#	c #9EADF5",
"'#	c #A1ADF3",
")#	c #A2AFF3",
"!#	c #A6B3F3",
"~#	c #A7B4F3",
"{#	c #9EADF2",
"]#	c #A0ADF5",
"^#	c #A1ADF5",
"/#	c #8CA1EC",
"(#	c #7A95E5",
"_#	c #5882D8",
":#	c #5B83DA",
"<#	c #5D85DA",
"[#	c #5E86DA",
"}#	c #5F87DA",
"|#	c #5D83D8",
"1#	c #5D85DC",
"2#	c #5E84D9",
"3#	c #5D82DA",
"4#	c #7897E5",
". + @ # $ % & * @ @ @ @ @ = - - - - = ; @ @ @ @ @ > , ' , ' + ) ",
"! ~ { ] ^ / ] ( ^ ^ _ : < [ } } } } | [ < : 1 ^ ^ 2 ^ ] 3 ^ 4 5 ",
"6 7 8 9 0 a 9 9 b c d e f g h h h h g g f d i j k l k 0 m n o p ",
"q r m m 0 9 0 j i e g s t u v v v v u u w h f x c y 9 z A 9 B C ",
"D E 0 z k 0 F e G H I v J K L L L L K K M N O P f Q j a k A R S ",
"6 E 0 9 9 F T h t v U V W X Y Z Z Z X `  ...+.u H G @.j 9 k #.$.",
"%.&.0 9 *.=.P u +.V ` Z -.;.>.,.,.'.>.;.Z X  .K ).H f !.~.m {.].",
"^.r 9 /.d (._.:.V X -.>.<.[.}.|.|.}.}.<.,.;.Z  .1.2.H e 3.4.#.C ",
"^.5.b 6.g t +.V 7.8.'.[.9.0.a.b.c.d.e.f.}.<.>.Z ` ..v h e c B g.",
"^.5.c e s v h.X i.,.j.k.l.m.n.o.p.n.q.r.a.|.s.t.Z  .U t g d u.g.",
"^.v.i g u U ` -.'.w.x.y.n.z.A.B.C.D.E.F.G.H.I.J.;.X V v s e K.g.",
"^.L.e s v V X >.M.N.y.O.P.Q.R.S.T.U.V.W.X.Y.e.Z.`.-.` U t g  +.+",
"^.++f t +. .-.,.@+#+Y.$+%+&+*+=+-+;+>+,+'+)+!+~+[.>.X ..v h {+]+",
"^+/+g u K ` ;.[.(+_+:+<+[+}+|+1+2+3+4+5+6+7+8+a.|.,.Z V +.s 9+0+",
"a+b+g u ..X >.}.a.c+d+e+f+g+h+i+j+k+l+m+n+o+O._+p+<.-. .+.s q+r+",
"a+b+h v V s+>.}.a.8+t+u+;+v+w+x+y+z+A+B+C+D+E+_+p+<.-.F+U t q+r+",
"a+b+h v V s+>.}.e.n.G+H+I+J+K+L+M+N+h+O+P+Q+X.!+p+<.-.` U t q+r+",
"a+b+P N ..X >.}.a.R+S+R.I+T+U+V+W+X+Y+Z+`+ @.@!+p+<.-. .+.O q+r+",
"a++@g u ..X ;.[.@@#@$@%@&@g+*@=@-@;@>@;+,@'@n.#+|.,.Z  .+.s 9+)@",
"^.++f t U ` -.<.|.c.!@~@{@]@^@/@(@_@:@<@[@X.m.0.}.>.X V v h 9+0+",
"^.}@e s +.V Z >.j.|@!+1@2@3@U.4@5@[+6@7@8@n.9@|.<.-.` U u g {+0@",
"^.a@d g u ..` -.`.b@e.m.n.c@d@e@f@g@h@)+c+#+I.J.>.Z V +.s i@K.g.",
"^.5.c f s +.V X i.j@|.e.y.8+k@l@m@n@8+m.c.o@p@'.-.` U u q@d r@g.",
"^.5.b d g u U  .s@;.t@}.f.u@#+_+v@c.w@0.|.[.,.x@` ..v s f c B g.",
"y@z@A@B@e h I C@ .Z ;.,.[.}.|.p+p+|.b@[.<.>.-.` L D@w E@F@~.G@g.",
"H@I@9 b J@K@L@u U V X Z ;.>.,.<.<.M@,.>.-.Z ` ..M N@g O@P@9 Q@R@",
"%.S@A k b i T@h u +... .7.Z Z -.-.U@Z X ` V U v w V@W@c k l X@Y@",
"Z@r m 8 k `@F@e h t v +...V  . . . .V ..U +.u s E@W@c k l 0  #.#",
"^.z@9 9 m k +#@#d f h t u v +.+.+.+.v v I s g e i j k 0 0 k G@g.",
"D ##0 k 0 9 9 $#j i e f g h s s s s H h g e d c ~.9 m %#k 9 &#g.",
"*#=#-#;#>#r ,#5.5.'#)#++b+!#!#~#~#!#!#b+/+}@a@5.5.{#z@]#5.^#/#^.",
"(#_#p C :#Y@p Y@C C C C <#[#}#}#}#}#[#[#<#C C C g..#|#1#2#p 3#4#"};
