/* XPM */
static char * ManipulatorRotateButtonDisabled_xpm[] = {
"32 32 114 2",
"  	g #C2C2C2",
". 	g #949494",
"+ 	g #9B9B9B",
"@ 	g #9C9C9C",
"# 	g #9A9A9A",
"$ 	g #B9B9B9",
"% 	g #9D9D9D",
"& 	g #CBCBCB",
"* 	g #EBEBEB",
"= 	g #EAEAEA",
"- 	g #E9E9E9",
"; 	g #D6D6D6",
"> 	g #A3A3A3",
", 	g #E2E2E2",
"' 	g #FEFEFE",
") 	g #FFFFFF",
"! 	g #EEEEEE",
"~ 	g #A2A2A2",
"{ 	g #DFDFDF",
"] 	g #DEDEDE",
"^ 	g #A4A4A4",
"/ 	g #E0E0E0",
"( 	g #FDFDFD",
"_ 	g #F9F9F9",
": 	g #F0F0F0",
"< 	g #F1F1F1",
"[ 	g #FAFAFA",
"} 	g #DDDDDD",
"| 	g #B3B3B3",
"1 	g #9F9F9F",
"2 	g #969696",
"3 	g #979797",
"4 	g #A1A1A1",
"5 	g #BBBBBB",
"6 	g #E5E5E5",
"7 	g #F3F3F3",
"8 	g #B0B0B0",
"9 	g #939393",
"0 	g #959595",
"a 	g #989898",
"b 	g #999999",
"c 	g #BDBDBD",
"d 	g #FBFBFB",
"e 	g #F7F7F7",
"f 	g #A6A6A6",
"g 	g #929292",
"h 	g #919191",
"i 	g #B5B5B5",
"j 	g #E8E8E8",
"k 	g #ADADAD",
"l 	g #F2F2F2",
"m 	g #D5D5D5",
"n 	g #A0A0A0",
"o 	g #747474",
"p 	g #8B8B8B",
"q 	g #848484",
"r 	g #7E7E7E",
"s 	g #B2B2B2",
"t 	g #E3E3E3",
"u 	g #E6E6E6",
"v 	g #797979",
"w 	g #888888",
"x 	g #909090",
"y 	g #7D7D7D",
"z 	g #878787",
"A 	g #7C7C7C",
"B 	g #AEAEAE",
"C 	g #9E9E9E",
"D 	g #A8A8A8",
"E 	g #BFBFBF",
"F 	g #E7E7E7",
"G 	g #8E8E8E",
"H 	g #E1E1E1",
"I 	g #838383",
"J 	g #FCFCFC",
"K 	g #ABABAB",
"L 	g #EFEFEF",
"M 	g #868686",
"N 	g #828282",
"O 	g #F6F6F6",
"P 	g #7F7F7F",
"Q 	g #BABABA",
"R 	g #A9A9A9",
"S 	g #B4B4B4",
"T 	g #BCBCBC",
"U 	g #808080",
"V 	g #C0C0C0",
"W 	g #C4C4C4",
"X 	g #8D8D8D",
"Y 	g #CCCCCC",
"Z 	g #CDCDCD",
"` 	g #D3D3D3",
" .	g #B1B1B1",
"..	g #B8B8B8",
"+.	g #B6B6B6",
"@.	g #DADADA",
"#.	g #777777",
"$.	g #7A7A7A",
"%.	g #8F8F8F",
"&.	g #818181",
"*.	g #858585",
"=.	g #757575",
"-.	g #CFCFCF",
";.	g #C1C1C1",
">.	g #C6C6C6",
",.	g #737373",
"'.	g #C8C8C8",
").	g #7B7B7B",
"!.	g #787878",
"~.	g #A7A7A7",
"{.	g #ACACAC",
"].	g #DBDBDB",
"^.	g #ECECEC",
"/.	g #C9C9C9",
"  . + + @ + + + + + @ @ + + @ + # # @ # + @ + @ + + + + + + . $ ",
"% & * = = = = * * * * = = = - * = = = = = = = = = * * - * * ; . ",
"> , ' ) ) ) ) ' ) ) ) ) ) ' ' ) ) ) ' ) ) ) ) ' ) ) ) ' ) ) ! @ ",
"~ { ) ) ' ) ) ) ' ) ' ) ) ) ) ) ' ) ' ) ) ) ) ) ) ) ' ) ' ) = + ",
"~ ] ' ) ' ) ) ) ) ) ) ) ' ) ) ) ) ) ) ' ' ) ) ) ) ) ) ) ' ) * + ",
"^ / ) ) ' ) ' ' ) ' ) ' ' ) ' ) ) ) ) ) ) ) ' ) ' ) ) ' ) ) = @ ",
"~ ] ) ) ) ) ' ' ( ) ) ) ) ' _ : < [ ) ) ' ) ) ' ) ) ) ) ) ' * # ",
"> { ) ' ' ' ) ) ' ) ) ) } | 1 2 3 4 5 6 ' ) ( ) ) ' ' ' ) ) = + ",
"> ] ) ) ) ) ) ) ) ) 7 8 9 0 a b # a 9 0 c d ) ' ) ) ) ' ) ) = + ",
"4 { ) ' ) ) ' ) ) e f g # # # # # # @ a h i ' ) ' ) ) ( ) ) * + ",
"^ ] ) ) ) ) ) ' j k 9 # # # # # + + b + # h c l ) ) ) ' ) ) = + ",
"~ { ) ) ' ( m n o p @ # @ b + + b # # b # # q r s t ) ) ' ' = + ",
"~ ] ) ) u % v w 0 a # # b % @ @ @ # + b # + 3 x r y k l ' ' = # ",
"> ] ' ] z A n l B 0 # # @ C D ^ C + + + # # 9 E F G y g * ' * + ",
"^ H < w I h [ J C a + + @ > B k 4 @ # b @ # 2 K ) L M N x O * @ ",
"> u $ P P Q ) _ 4 3 # # + ~ K R 1 # + + b # 0 B ' ) S P P T l @ ",
"> , 1 N U E ) ' B 0 # # # + n 1 + # # + # # h V ) ' W P q # = @ ",
"> t f U A X _ ) Y g # # + # # # # # # b @ + g H ) ' % q N + = + ",
"> u Z w k ` ( ) O 1 2 # + # # + b + # @ 3 h  .) ' ..P M r +.l + ",
"~ ] ' J ' ) ( ) ' @.h a b # # # # # b . #.M ! 6 > P M N z ! ! + ",
"> { ) ' ) ' ) ' ) ' Z 0 0 # b # + # 0 $.M z %.&.I M U I / ) = + ",
"> ] ) ) ) ) ) ) ) ' ) H D 2 g g 9 . y *.*.M P =.P U b 6 ) ' * + ",
"~ { ) ) ) ) ' ) ) ' ) ) ' F -.;.>.X N M w z z M ,.'.) ) ) ) - @ ",
"~ { ' ) ) ) ) ) ' ' ) ) ) ) ) ' $ r r y $.).$.v !.z t ' ) ' * + ",
"> ] ) ) ) ' ' ' ) ) ) ) ) ) ' H I x a + n ^ ~.{.|  .].' ) ' = + ",
"~ ] ) ' ' ) ) ) ) ) ) ' ) ) ) ) ) ) ) ) ) ) ) ) ) ) ) ' ) ( * + ",
"~ { ' ) ) ) ) ) ) ' ) ) ) ' ) ) ) ) ' ) ' ' ' ' ) ' ) ) ) ) = + ",
"~ ] ) ) ) ) ' ) ' ) ) ) ' ) ) ) ' ) ) ) ) ) ) ) ' ) ) ) ) ) - @ ",
"~ ] ' ) ) ) ) ) ' ) ) ) ) ) ' ) ) ) ) ) ) ' ' ' ) ) ) ) ) ' ^.+ ",
"~ t ) ' ) ' ) ) ) ' ) ) ' ) ) ) ) ' ) ) ) ) ) ) ) ) ) ' ) ) ! @ ",
"@   ] / / ] { { / { ] ] H { / / { ] ] { { ] { ] { { { / ] ] Y 9 ",
"/.% ^ ~ ~ > ~ > > > ^ > ~ ^ ^ ~ > ^ > > ^ > ^ > > ~ > > > > C ;."};
