/* XPM */
static char * MediumCenterPointJumpButton_xpm[] = {
"32 32 149 2",
"  	c #9CC1DB",
". 	c #67A3C7",
"+ 	c #69A3C8",
"@ 	c #6AA4C9",
"# 	c #68A4C8",
"$ 	c #6BA3C4",
"% 	c #66A4C9",
"& 	c #6BA3C8",
"* 	c #69A5C9",
"= 	c #6BA3C6",
"- 	c #69A5CA",
"; 	c #9AC2DB",
"> 	c #65A4C7",
", 	c #BCD7E8",
"' 	c #E5F0F4",
") 	c #E2EFF5",
"! 	c #E4EFF5",
"~ 	c #E5F0F6",
"{ 	c #E2F0F1",
"] 	c #E5EFF8",
"^ 	c #E3F0F6",
"/ 	c #C9DFEC",
"( 	c #72ABC9",
"_ 	c #70A8CB",
": 	c #DBE8F0",
"< 	c #FEFEFE",
"[ 	c #FFFFFF",
"} 	c #FFFFFD",
"| 	c #FCFFFF",
"1 	c #FEFFFF",
"2 	c #FEFEFC",
"3 	c #FFFEFF",
"4 	c #FFFDFF",
"5 	c #E7EEF4",
"6 	c #7BB0D0",
"7 	c #6DA8C8",
"8 	c #D4E7EE",
"9 	c #FFFEFB",
"0 	c #FDFFFE",
"a 	c #FFFEFC",
"b 	c #E1EEF4",
"c 	c #7BB0CF",
"d 	c #6EA9CB",
"e 	c #D6E7EF",
"f 	c #E2F0F3",
"g 	c #7BB0D2",
"h 	c #FEFFFD",
"i 	c #E1EFF2",
"j 	c #7EB1D0",
"k 	c #71A7CB",
"l 	c #D8E6EF",
"m 	c #FFFEFD",
"n 	c #E3EDF7",
"o 	c #7AAFD1",
"p 	c #70A8C9",
"q 	c #FEFEFF",
"r 	c #D5E6F0",
"s 	c #FFFDFE",
"t 	c #FEFDFF",
"u 	c #7DB0CF",
"v 	c #BDD9E5",
"w 	c #74A9CB",
"x 	c #6FA7CA",
"y 	c #B7D4E4",
"z 	c #A4C7DD",
"A 	c #1F76AB",
"B 	c #0366A1",
"C 	c #0264A1",
"D 	c #1B72A7",
"E 	c #97C1D7",
"F 	c #A3C6DC",
"G 	c #0563A0",
"H 	c #0666A3",
"I 	c #03669F",
"J 	c #02659E",
"K 	c #8DB9D6",
"L 	c #FFFFFB",
"M 	c #C4DFEA",
"N 	c #116CA3",
"O 	c #0365A2",
"P 	c #0664A1",
"Q 	c #04649E",
"R 	c #05659F",
"S 	c #0565A1",
"T 	c #0464A1",
"U 	c #0866A3",
"V 	c #B2D1E3",
"W 	c #74AACC",
"X 	c #0464A0",
"Y 	c #02659C",
"Z 	c #0565A2",
"` 	c #05649C",
" .	c #6CA7C9",
"..	c #67A3C5",
"+.	c #06659F",
"@.	c #66A1C3",
"#.	c #B0CFE1",
"$.	c #0767A4",
"%.	c #0266A1",
"&.	c #9BC3DC",
"*.	c #FCFDFF",
"=.	c #78A9C7",
"-.	c #619DC2",
";.	c #F6F9FE",
">.	c #07669E",
",.	c #01669E",
"'.	c #5A9CBF",
").	c #FDFBFF",
"!.	c #ABCEE1",
"~.	c #70A5C7",
"{.	c #67A6C7",
"].	c #A5CADD",
"^.	c #FEFFFA",
"/.	c #FDFFFC",
"(.	c #71A7C9",
"_.	c #D5E6EE",
":.	c #FBFFFC",
"<.	c #E3EEF2",
"[.	c #6DA7CC",
"}.	c #D6E8F4",
"|.	c #FFFEFA",
"1.	c #E2EFF7",
"2.	c #79B0CF",
"3.	c #D5E6ED",
"4.	c #E3ECF1",
"5.	c #7EAFCF",
"6.	c #6FA7CC",
"7.	c #E3EEF4",
"8.	c #7AB1D0",
"9.	c #DCE9F2",
"0.	c #E9F1F4",
"a.	c #65A1C5",
"b.	c #B1D0E4",
"c.	c #D7E5EE",
"d.	c #D4E6F0",
"e.	c #D5E7F1",
"f.	c #D3E7F2",
"g.	c #D2E6EF",
"h.	c #D5E7F3",
"i.	c #D6E6F3",
"j.	c #BBD6E7",
"k.	c #A3C7DD",
"l.	c #76ADCC",
"m.	c #7AAFCF",
"n.	c #7CAFCC",
"o.	c #7CB1D1",
"p.	c #7DB0CD",
"q.	c #7CADCE",
"r.	c #A0C9DD",
"  . + @ # $ % & + + + + + + + + + + + + + + + + + * = - = - . ; ",
"> , ' ) ! ~ ) { ! ! ! ! ! ! ! ! ! ! ! ! ! ! ! ! ! ] ! ) ^ ! / ( ",
"_ : < [ } | [ [ [ [ [ [ [ [ [ [ [ [ [ [ [ [ [ [ 1 2 1 } 3 4 5 6 ",
"7 8 3 3 } [ } 1 [ [ [ [ [ [ [ [ [ [ [ [ [ [ [ [ 1 9 [ 0 a [ b c ",
"d e } 0 1 } } [ 3 3 3 3 3 3 3 3 3 3 3 3 3 3 3 3 [ } [ | 1 a f g ",
"_ e } [ 3 h } [ [ [ [ [ [ [ [ [ [ [ [ [ [ [ [ [ 4 3 h [ [ 1 i j ",
"k l } [ 0 | 4 [ [ [ [ [ [ [ [ [ [ [ [ [ [ [ [ [ 0 3 1 1 m 3 n o ",
"p 8 [ 1 3 4 } h [ [ [ [ [ [ [ [ [ [ [ [ [ [ [ [ h } 3 q 1 1 i c ",
"p r [ [ [ [ [ [ h } [ } s [ | } < 3 [ [ t } } [ [ [ [ [ [ [ b u ",
"p r [ [ [ [ [ [ [ [ [ 2 h 1 } | h 1 3 [ } 1 [ [ [ [ [ [ [ [ b u ",
"p r [ [ [ [ [ [ 3 } 1 1 [ 3 } m } h [ [ < 3 1 [ [ [ [ [ [ [ b u ",
"p r [ [ [ [ [ [ } h 3 1 [ [ v w x y [ s 1 [ 2 [ [ [ [ [ [ [ b u ",
"p r [ [ [ [ [ [ 0 m 3 2 [ z A B C D E s 1 < 3 [ [ [ [ [ [ [ b u ",
"p r [ [ [ [ [ [ [ [ 1 1 F G H B G I J K 4 [ 1 } [ [ [ [ [ [ b u ",
"p r [ [ [ [ [ [ } 1 L M N O P Q R S T U V L 1 1 [ [ [ [ [ [ b u ",
"p r [ [ [ [ [ [ 3 1 m W T X Y Z I B S `  .[ 1 3 [ [ [ [ [ [ b u ",
"p r [ [ [ [ [ [ [ 1 } ..R X +.P B G S B @.< 1 s [ [ [ [ [ [ b u ",
"p r [ [ [ [ [ [ } [ [ #.$.%.B X T R P S &.} 3 [ [ [ [ [ [ [ b u ",
"p r [ [ [ [ [ [ } q } *.=.S B J C S %.-.;.s 3 } [ [ [ [ [ [ b u ",
"p r [ [ [ [ [ [ < 1 3 [ 1 ..T O >.,.'.).[ L [ [ [ [ [ [ [ [ b u ",
"p r [ [ [ [ [ [ [ [ 0 3 1 [ !.~.{.].s | 1 0 1 } [ [ [ [ [ [ b u ",
"p r [ [ [ [ [ [ a } 3 1 [ 1 [ q 3 } < [ ^.[ [ [ [ [ [ [ [ [ b u ",
"p r [ [ [ [ [ [ [ < } [ } 3 [ [ [ t [ } 1 [ ^.[ [ [ [ [ [ [ b u ",
"p r [ [ [ [ [ [ [ [ 1 1 [ [ 3 /.} [ h h [ [ [ } [ [ [ [ [ [ b u ",
"(._.L 1 [ [ 3 :.[ [ [ [ [ [ [ [ [ [ [ [ [ [ [ [ 3 } 1 1 L } <.u ",
"[.}.[ [ |.1 0 3 [ [ [ [ [ [ [ [ [ [ [ [ [ [ [ [ 3 0 [ s s [ 1.2.",
"k 3.a 1 [ [ } 3 [ [ [ [ [ [ [ [ [ [ [ [ [ [ [ [ 1 } m [ 1 2 4.5.",
"6.8 3 < 1 0 L [ [ [ [ [ [ [ [ [ [ [ [ [ [ [ [ [ 1 } [ 1 2 } 7.8.",
"p _.[ [ 3 1 3 0 [ [ [ [ [ [ [ [ [ [ [ [ [ [ [ [ [ [ 1 } } 1 <.u ",
"d 9.} 1 } [ [ h [ [ [ [ [ [ [ [ [ [ [ [ [ [ [ [ } [ 3 s 1 [ 0.u ",
"a.b.c.d.e.8 f.r r r r r r r r r r r r r r r r r r g._.h.r i.j.p ",
"k.l.6 c m.5.6 5.c c c c c c c c c c c c c c c c u 8.n.o.p.6 q.r."};
