/* XPM */
static char * ObjectNavigationButtonSelect_xpm[] = {
"32 32 618 2",
"  	c None",
". 	c #7591E3",
"+ 	c #4D7AD4",
"@ 	c #4F7AD5",
"# 	c #4F7BD6",
"$ 	c #4E7BD5",
"% 	c #507AD2",
"& 	c #4C7BD6",
"* 	c #507AD5",
"= 	c #4E7BD4",
"- 	c #4F7CD6",
"; 	c #4F7BD4",
"> 	c #4C7CD4",
", 	c #4F7AD6",
"' 	c #507AD4",
") 	c #4F7CD7",
"! 	c #7392E3",
"~ 	c #4C7BD4",
"{ 	c #8DA1ED",
"] 	c #ACB4F6",
"^ 	c #AAB3F7",
"/ 	c #ABB3F7",
"( 	c #ACB4F8",
"_ 	c #AAB4F4",
": 	c #ACB3F5",
"< 	c #ADB5F5",
"[ 	c #AFB6F5",
"} 	c #B0B7F8",
"| 	c #B0B7F4",
"1 	c #AFB7F7",
"2 	c #B0B7FA",
"3 	c #B0B7F6",
"4 	c #AFB5F7",
"5 	c #AEB4F7",
"6 	c #AAB4F8",
"7 	c #ACB3F7",
"8 	c #ACB3F9",
"9 	c #97A7F0",
"0 	c #5580D6",
"a 	c #547ED7",
"b 	c #A4AEF3",
"c 	c #BFBFFE",
"d 	c #C0C0FF",
"e 	c #C0C0FD",
"f 	c #BDC0FF",
"g 	c #C1C1FF",
"h 	c #C2C3FF",
"i 	c #C4C5FF",
"j 	c #C4C6FF",
"k 	c #C7C5FE",
"l 	c #C7C7FF",
"m 	c #C7C6FF",
"n 	c #C4C7FE",
"o 	c #C6C6FF",
"p 	c #C5C5FF",
"q 	c #C4C4FD",
"r 	c #C2C2FF",
"s 	c #BFC0FF",
"t 	c #BFBFFC",
"u 	c #C0BFFF",
"v 	c #C0BEFF",
"w 	c #ADB3F6",
"x 	c #5C84DB",
"y 	c #527ED5",
"z 	c #9FADF2",
"A 	c #C1C1FE",
"B 	c #C8C8FD",
"C 	c #C7C9FE",
"D 	c #CACAFD",
"E 	c #CBCBFD",
"F 	c #C5C3F7",
"G 	c #C2C2F7",
"H 	c #CBCBFF",
"I 	c #C8CAFE",
"J 	c #C9C8FF",
"K 	c #C8C8FF",
"L 	c #C5C6FF",
"M 	c #C4C4FF",
"N 	c #C0BFFB",
"O 	c #BEC0FE",
"P 	c #C0BFFC",
"Q 	c #A9B3F6",
"R 	c #5C84DA",
"S 	c #527FD7",
"T 	c #A1ADF2",
"U 	c #C1C1FD",
"V 	c #C3C3FF",
"W 	c #C7C8FD",
"X 	c #CACAFF",
"Y 	c #CDCDFF",
"Z 	c #CDCDFE",
"` 	c #CFCFFD",
" .	c #B3B0DD",
"..	c #B3B1DD",
"+.	c #CFCFFF",
"@.	c #CDCEFF",
"#.	c #C8C7FF",
"$.	c #C3C3FD",
"%.	c #AAB4F5",
"&.	c #5C84DD",
"*.	c #C0C1FD",
"=.	c #C7C8FF",
"-.	c #CECEFF",
";.	c #D1D1FD",
">.	c #D2D2FF",
",.	c #D2D3FF",
"'.	c #AB8184",
").	c #AD7F7F",
"!.	c #D3D3FF",
"~.	c #D3D3FD",
"{.	c #D2D2FD",
"].	c #D0D1FF",
"^.	c #CCCCFF",
"/.	c #C9C7FF",
"(.	c #C3C4FD",
"_.	c #A9B3F5",
":.	c #5E85DB",
"<.	c #557DD7",
"[.	c #A2ADF2",
"}.	c #BFC1FE",
"|.	c #C1C4FF",
"1.	c #C7C5FF",
"2.	c #C9C9FF",
"3.	c #CBCCFF",
"4.	c #CFCEFF",
"5.	c #D1D0FC",
"6.	c #D1D4FF",
"7.	c #D5D6FF",
"8.	c #C2C1E6",
"9.	c #CC7A52",
"0.	c #CE7B53",
"a.	c #BDBCE0",
"b.	c #D6D6FF",
"c.	c #D5D5FF",
"d.	c #D4D4FF",
"e.	c #D1D0FF",
"f.	c #CFCEFD",
"g.	c #CBCCFE",
"h.	c #C6C7FF",
"i.	c #C3C4FF",
"j.	c #C1C0FD",
"k.	c #AAB2F8",
"l.	c #5B83DC",
"m.	c #547ED6",
"n.	c #C3C2FF",
"o.	c #C6C5FF",
"p.	c #C9C9FD",
"q.	c #CCCCFD",
"r.	c #D3D4FF",
"s.	c #D6D6FD",
"t.	c #D8D8FF",
"u.	c #D9D9FD",
"v.	c #AF8784",
"w.	c #DB8759",
"x.	c #DB8654",
"y.	c #AF847E",
"z.	c #DAD9FD",
"A.	c #D1D2FF",
"B.	c #CECFFD",
"C.	c #CAC9FF",
"D.	c #527FD6",
"E.	c #A0ADF3",
"F.	c #C1C2FF",
"G.	c #C5C5FB",
"H.	c #C8C9FF",
"I.	c #D2D1FF",
"J.	c #D7D6FF",
"K.	c #D9D9FB",
"L.	c #DBDBFF",
"M.	c #C4BEDD",
"N.	c #D6804F",
"O.	c #DD8D5E",
"P.	c #DF885B",
"Q.	c #D7804F",
"R.	c #C3C0DE",
"S.	c #DCDCFE",
"T.	c #D9D9FF",
"U.	c #D7D7FD",
"V.	c #D5D4FF",
"W.	c #CDCFFD",
"X.	c #CCCBFF",
"Y.	c #C5C5FD",
"Z.	c #5D83DA",
"`.	c #557DD9",
" +	c #BDC0FC",
".+	c #D5D5FD",
"++	c #D4D7FB",
"@+	c #C7CEEF",
"#+	c #B3897F",
"$+	c #E28C4F",
"%+	c #E19061",
"&+	c #E28E58",
"*+	c #E38C51",
"=+	c #AE847B",
"-+	c #CDD0F1",
";+	c #D7DAFB",
">+	c #DDDBFE",
",+	c #D9DAFD",
"'+	c #CECEFB",
")+	c #ACB4F4",
"!+	c #5380D7",
"~+	c #A1ACF2",
"{+	c #C2C1FF",
"]+	c #CDCDFD",
"^+	c #CECEFA",
"/+	c #A9B4E3",
"(+	c #7295D0",
"_+	c #4A81C8",
":+	c #3876BE",
"<+	c #668EC2",
"[+	c #DB844C",
"}+	c #E68C56",
"|+	c #E59767",
"1+	c #E7905A",
"2+	c #E78E56",
"3+	c #DB854D",
"4+	c #6B92C4",
"5+	c #3A79BE",
"6+	c #4F86C5",
"7+	c #7B9AD2",
"8+	c #AFBAE5",
"9+	c #D2D3FA",
"0+	c #D2D4FF",
"a+	c #D0D0FF",
"b+	c #C6C6FD",
"c+	c #AEB5F8",
"d+	c #5B84D8",
"e+	c #547ED9",
"f+	c #CACBFF",
"g+	c #BCC0F2",
"h+	c #7493D1",
"i+	c #296DC1",
"j+	c #1967BB",
"k+	c #5180C2",
"l+	c #98A9D2",
"m+	c #C8CDE9",
"n+	c #BD8F7F",
"o+	c #E69354",
"p+	c #EA9054",
"q+	c #EB9C67",
"r+	c #EA965A",
"s+	c #EB9351",
"t+	c #EA9451",
"u+	c #AF8778",
"v+	c #CACDE9",
"w+	c #96A7D1",
"x+	c #4E81BD",
"y+	c #1C69BD",
"z+	c #3173C1",
"A+	c #7C97D1",
"B+	c #C1C3F3",
"C+	c #ACB6F7",
"D+	c #5E84DB",
"E+	c #517ED7",
"F+	c #A4AFF0",
"G+	c #C8C8FE",
"H+	c #8C9DDA",
"I+	c #1F67BE",
"J+	c #1662C2",
"K+	c #3972BE",
"L+	c #B5BCE4",
"M+	c #DFDEFF",
"N+	c #E2E2FF",
"O+	c #C4C1D5",
"P+	c #E28B4F",
"Q+	c #EB9151",
"R+	c #ED9757",
"S+	c #EDA269",
"T+	c #ED9A59",
"U+	c #EF9654",
"V+	c #ED9454",
"W+	c #DA884C",
"X+	c #C2BFD3",
"Y+	c #E5E5FF",
"Z+	c #E2E2FD",
"`+	c #BBC0E4",
" @	c #4077BB",
".@	c #1968C5",
"+@	c #226AC0",
"@@	c #8B9FDA",
"#@	c #CDCBFE",
"$@	c #AFB9F7",
"%@	c #5C86DA",
"&@	c #A4AEF5",
"*@	c #7A94D8",
"=@	c #0E5CBF",
"-@	c #1263C1",
";@	c #4278C2",
">@	c #CED1F4",
",@	c #DADDFF",
"'@	c #E0E0FD",
")@	c #E3E4FD",
"!@	c #C28D73",
"~@	c #EB9453",
"{@	c #EF9B5C",
"]@	c #F2A66C",
"^@	c #F39E5D",
"/@	c #F29754",
"(@	c #F09856",
"_@	c #EE9852",
":@	c #A67F6C",
"<@	c #E4E5FD",
"[@	c #E4E4FF",
"}@	c #E0E0FF",
"|@	c #D4D5FA",
"1@	c #5282C0",
"2@	c #1865C1",
"3@	c #115FBE",
"4@	c #718FD3",
"5@	c #AEB9F4",
"6@	c #6086DA",
"7@	c #A4B0F2",
"8@	c #A4ABE9",
"9@	c #0B58BC",
"0@	c #115FBD",
"a@	c #1361BF",
"b@	c #A7AEDE",
"c@	c #DADAFD",
"d@	c #DDDDFE",
"e@	c #E2E0FF",
"f@	c #CCC7D8",
"g@	c #E38A4D",
"h@	c #EC9456",
"i@	c #F09854",
"j@	c #F4A060",
"k@	c #F5AB6F",
"l@	c #F6A35A",
"m@	c #F69D54",
"n@	c #F49955",
"o@	c #DA8A49",
"p@	c #C4C1D4",
"q@	c #E5E6FD",
"r@	c #DEDEFF",
"s@	c #BCBEE8",
"t@	c #1765BD",
"u@	c #1463C0",
"v@	c #0E5CC0",
"w@	c #93A1DE",
"x@	c #B0BAF6",
"y@	c #6186DB",
"z@	c #A3B2F2",
"A@	c #5B82D1",
"B@	c #0B5BBF",
"C@	c #105FC0",
"D@	c #1362BF",
"E@	c #A1AFE1",
"F@	c #E0E1FC",
"G@	c #BD896F",
"H@	c #EA9454",
"I@	c #EE9554",
"J@	c #F29953",
"K@	c #F5A462",
"L@	c #F9AF70",
"M@	c #FBA65F",
"N@	c #F9A153",
"O@	c #F59E54",
"P@	c #F29B55",
"Q@	c #EE9855",
"R@	c #977466",
"S@	c #E3E3FB",
"T@	c #E3E2FF",
"U@	c #DFDFFD",
"V@	c #C1C7ED",
"W@	c #1867BC",
"X@	c #1464BF",
"Y@	c #0F5FC0",
"Z@	c #4475C7",
"`@	c #B0BBF5",
" #	c #6087DB",
".#	c #A6AFF3",
"+#	c #6486D3",
"@#	c #0B5CC0",
"##	c #1160BD",
"$#	c #1362C1",
"%#	c #3F79C5",
"&#	c #CBCEF4",
"*#	c #DFDFFF",
"=#	c #BFB7CC",
"-#	c #E68B4E",
";#	c #EA9154",
">#	c #F39957",
",#	c #F6A864",
"'#	c #FBB16F",
")#	c #FEAA5F",
"!#	c #FBA254",
"~#	c #F69D52",
"{#	c #F29B54",
"]#	c #EF9755",
"^#	c #D3864E",
"/#	c #B6B2C7",
"(#	c #E2E3FF",
"_#	c #DDDDFF",
":#	c #6790C9",
"<#	c #1767BF",
"[#	c #1464C1",
"}#	c #3E71C4",
"|#	c #B1BBF7",
"1#	c #5F87DA",
"2#	c #A4B1F2",
"3#	c #B0B3EC",
"4#	c #0D5ABE",
"5#	c #1060BD",
"6#	c #1465C1",
"7#	c #1764BF",
"8#	c #447ABD",
"9#	c #C0C0DD",
"0#	c #BE896D",
"a#	c #E68F52",
"b#	c #EA9155",
"c#	c #EC9753",
"d#	c #F29A57",
"e#	c #F5A76A",
"f#	c #F9AE73",
"g#	c #F9A65D",
"h#	c #F9A053",
"i#	c #F59D54",
"j#	c #F19956",
"k#	c #E99557",
"l#	c #5D80A0",
"m#	c #6A738A",
"n#	c #A6B0D2",
"o#	c #5C8BC7",
"p#	c #1C69BF",
"q#	c #1966C0",
"r#	c #1662BD",
"s#	c #0F5DC0",
"t#	c #8694D3",
"u#	c #B2B9F6",
"v#	c #6187DA",
"w#	c #A3B0F2",
"x#	c #8A96D6",
"y#	c #0E59B8",
"z#	c #3F72C0",
"A#	c #96A4D8",
"B#	c #C9CBF1",
"C#	c #B1ACC5",
"D#	c #CC7E54",
"E#	c #E58E57",
"F#	c #E88F55",
"G#	c #EC9453",
"H#	c #F09958",
"I#	c #F2A76E",
"J#	c #F4AD72",
"K#	c #F4A360",
"L#	c #F49D54",
"M#	c #D99266",
"N#	c #2B78BF",
"O#	c #2675BF",
"P#	c #2271BF",
"Q#	c #1E6EC0",
"R#	c #1C6BBF",
"S#	c #1867C1",
"T#	c #1362C0",
"U#	c #5378C1",
"V#	c #C9C8FB",
"W#	c #AEB9F7",
"X#	c #6187DB",
"Y#	c #A3ADF1",
"Z#	c #B4B8EC",
"`#	c #CED0FC",
" $	c #D8D9FD",
".$	c #D9D9F9",
"+$	c #B5A4B5",
"@$	c #DE854D",
"#$	c #E79253",
"$$	c #E99452",
"%$	c #ED985A",
"&$	c #EFA56F",
"*$	c #F1A972",
"=$	c #F29F62",
"-$	c #F19755",
";$	c #EF9855",
">$	c #ED9652",
",$	c #BE9271",
"'$	c #2775BE",
")$	c #2774BD",
"!$	c #2370BF",
"~$	c #1F6CC0",
"{$	c #1B69BF",
"]$	c #1666C0",
"^$	c #587DC2",
"/$	c #AFBAF7",
"($	c #6185DB",
"_$	c #537DD5",
":$	c #A0AFF1",
"<$	c #DEDDFE",
"[$	c #BFBFD6",
"}$	c #B4928D",
"|$	c #CC8760",
"1$	c #E1915B",
"2$	c #ECA36F",
"3$	c #EEA774",
"4$	c #EE9F5D",
"5$	c #E28D51",
"6$	c #CF8A60",
"7$	c #818AA0",
"8$	c #2575C0",
"9$	c #2371BF",
"0$	c #1E6FC0",
"a$	c #1B6BBF",
"b$	c #1869C1",
"c$	c #1464C0",
"d$	c #1A61BF",
"e$	c #6587CF",
"f$	c #ADB3EC",
"g$	c #AFB7F4",
"h$	c #5D85DA",
"i$	c #A0ACF5",
"j$	c #CACBFD",
"k$	c #D8D8FC",
"l$	c #DCDCFF",
"m$	c #E1E0FF",
"n$	c #D2CFE6",
"o$	c #C0B9CD",
"p$	c #BBAFB9",
"q$	c #B4A4AC",
"r$	c #B4A3A6",
"s$	c #BDADB7",
"t$	c #C0BBC9",
"u$	c #D3CFE8",
"v$	c #618DC5",
"w$	c #2773BC",
"x$	c #3376BB",
"y$	c #437ABE",
"z$	c #517FC4",
"A$	c #5E84C5",
"B$	c #6D8BCB",
"C$	c #7B92D1",
"D$	c #7F93D4",
"E$	c #9EA5E4",
"F$	c #AEB5F7",
"G$	c #5E84DA",
"H$	c #A0AEF2",
"I$	c #CCCDFF",
"J$	c #DAD9FF",
"K$	c #DCDDFF",
"L$	c #DFDFFB",
"M$	c #E0E1FF",
"N$	c #E3E3FF",
"O$	c #E4E5FF",
"P$	c #E6E6FF",
"Q$	c #E4E3FF",
"R$	c #CBCFF0",
"S$	c #CFD2F3",
"T$	c #D5D6FB",
"U$	c #D7D9FD",
"V$	c #CFCFFE",
"W$	c #ABB5F6",
"X$	c #CECEFD",
"Y$	c #D1D1FF",
"Z$	c #D7D7FF",
"`$	c #D9DAFF",
" %	c #DEDEFD",
".%	c #DEE0FD",
"+%	c #E2E1FF",
"@%	c #E1E1FF",
"#%	c #DDDEFB",
"$%	c #DCDBFF",
"%%	c #D6D6FC",
"&%	c #D4D3FF",
"*%	c #AAB5F8",
"=%	c #557DD6",
"-%	c #A0ADF2",
";%	c #C0C0FB",
">%	c #CBCFFC",
",%	c #D9D8FF",
"'%	c #DADAFF",
")%	c #AAB3F5",
"!%	c #527DD8",
"~%	c #A1AEF6",
"{%	c #C3C2FB",
"]%	c #CECFFF",
"^%	c #CACCFE",
"/%	c #C6C4FE",
"(%	c #C3C1FE",
"_%	c #AAB3F8",
":%	c #5B84DA",
"<%	c #A0ADF1",
"[%	c #C6C5FD",
"}%	c #AAB1F4",
"|%	c #5E83DA",
"1%	c #537DD8",
"2%	c #BFC0FE",
"3%	c #C3C3FB",
"4%	c #AAB3F6",
"5%	c #5B85DB",
"6%	c #C1C2FE",
"7%	c #A5AFF5",
"8%	c #BFC0FD",
"9%	c #CBCAFF",
"0%	c #C0BEFE",
"a%	c #AFB5F6",
"b%	c #4C79D3",
"c%	c #859CEA",
"d%	c #9FADF3",
"e%	c #A0ADF4",
"f%	c #9EADF5",
"g%	c #A2AFF3",
"h%	c #A3B0F3",
"i%	c #A5B1F3",
"j%	c #A6B2F3",
"k%	c #A6B3F3",
"l%	c #A7B4F3",
"m%	c #A4B0F3",
"n%	c #9EADF2",
"o%	c #A0ADF5",
"p%	c #A1ADF5",
"q%	c #8CA1EC",
"r%	c #7A95E5",
"s%	c #5882D8",
"t%	c #5B83DA",
"u%	c #5E86DA",
"v%	c #5F86DA",
"w%	c #5D83D8",
"x%	c #5D85DC",
"y%	c #5E84D9",
"z%	c #5D82DA",
"A%	c #7897E5",
". + @ # $ % & * # = # @ - @ - $ - ; # > $ ; $ , @ - ' ) ' ) + ! ",
"~ { ] ^ / ( ^ _ ^ ( / : < [ } | 1 2 3 4 5 6 / 7 / 8 / ^ 6 / 9 0 ",
"a b c d e f d d e g h h i j k l l m n o p q r g s t s e u v w x ",
"y z u u e d e s A q o B C D E F G E H I J K L M r N d O P d Q R ",
"S T e O s e U V o W X H Y Z `  ...` +.@.Y H X #.o $.g f s P %.&.",
"a T e d u *.q m =.H Y -.;.>.,.'.).!.~.{.].+.^.H /.o (.g d s _.:.",
"<.[.e d }.|.1.2.3.4.5.~.6.7.8.9.0.a.b.c.d.!.e.f.g.2.h.i.j.u k.l.",
"m.z d s n.o.p.q.4.{.r.s.t.u.v.w.x.y.z.u.t.7.d.A.B.q.C.o V s _.R ",
"D.E.u F.G.H.q.+.I.r.J.K.L.M.N.O.P.Q.R.S.L.T.U.V.>.W.X.p.Y.F.Q Z.",
"`.T  +M B H -.{..+U.T.++@+#+$+%+&+*+=+-+;+>+,+t.V.>.'+E K q )+R ",
"!+~+{+o 2.]+].^+/+(+_+:+<+[+}+|+1+2+3+4+5+6+7+8+9+0+a+]+2.b+c+d+",
"e+E.M l f+g+h+i+j+k+l+m+n+o+p+q+r+s+t+u+v+w+x+y+z+A+B++.E l C+D+",
"E+F+p G+H+I+J+K+L+M+N+O+P+Q+R+S+T+U+V+W+X+Y+Z+`+ @.@+@@@#@2.$@%@",
"a &@o *@=@-@;@>@,@'@)@!@~@V+{@]@^@/@(@_@:@<@[@}@|@1@2@3@4@X 5@6@",
"a 7@8@9@0@a@b@c@d@e@f@g@h@i@j@k@l@m@n@i@o@p@q@N+r@s@t@u@v@w@x@y@",
"m.z@A@B@C@D@E@L.M+F@G@H@I@J@K@L@M@N@O@P@Q@R@S@T@U@V@W@X@Y@Z@`@ #",
"e+.#+#@###$#%#&#*#=#-#;#U+>#,#'#)#!#~#{#]#^#/#(#_#:#<#[#C@}#|#1#",
"y 2#3#4#5#6#7#8#9#0#a#b#c#d#e#f#g#h#i#j#k#l#m#n#o#p#q#r#s#t#u#v#",
"`.w#p x#y#z#A#B#C#D#E#F#G#H#I#J#K#L#d#U+M#N#O#P#Q#R#S#T#U#V#W#X#",
"D.Y#o.p.Z#`#c. $.$+$@$#$$$%$&$*$=$-$;$>$,$'$)$!$~${$]$^$]+H./$($",
"_$:$Y.K ^.a+d.J.L.<$[$}$|$1$2$3$4$I@5$6$7$8$9$0$a$b$c$d$e$f$g$h$",
"<.i$V h.j$@.{.c.k$l$*#m$n$o$p$q$r$s$t$u$v$w$x$y$z$A$B$C$D$E$F$G$",
"<.H$r p 2.I$a+!.b.J$K$L$M$N$O$P$P$P$<@Q$R$S$T$U$b.!.V$Y H.Y.W$Z.",
"S ~+e M l H X$Y$d.Z$`$l$ %.%m$N+N++%@%}@#%$%T.%%&%].X$E l M *%G$",
"=%-%;%g p K H >%Y$d.b.,%'%l$_#r@r@r@_#l$'%T.b.d.Y$X$H K G.U )%G$",
"!%~%d d {%L C X.]%Y$!.c.Z$t.T.'%'%'%T.t.Z$c.!.Y$-.^%2./%(%d _%:%",
"<.<%P s d V b+J H -.a+>.!.c.c.b.b.b.c.c.!.>.a+-.H p.[%V s t }%|%",
"1%z u c s 2%3%o K X ^.-.a+Y$>.>.>.>.>.Y$a+-.^.X =.b+V d t e 4%5%",
"m.-%d d u s u 6%p l 2.H ^.Y -.-.-.-.-.Y ^.X 2.l p n.s e e s )%G$",
"S 7%e s e d d 8%g V p l K 2.X X 9%X X 2.K l p V U d u 0%s d a%G$",
"b%c%~+d%e%z f%E.E.E.g%h%i%j%k%l%l%l%k%j%i%m%g%E.E.n%-%o%E.p%q%m.",
"r%s%x R t%|%x |%R R R R h$u%v%1#1#1#v%u%h$R R R G$5%w%x%y%x z%A%"};
