/* XPM */
static char * PauseButton_xpm[] = {
"32 32 184 2",
"  	c #A3C9DE",
". 	c #689CC4",
"+ 	c #67A6C7",
"@ 	c #6AA5C7",
"# 	c #6AA6CA",
"$ 	c #69A5C7",
"% 	c #6DA4CB",
"& 	c #6BA6C8",
"* 	c #6AA4C9",
"= 	c #69A5C9",
"- 	c #6CA4C9",
"; 	c #6AA4CA",
"> 	c #67A6C9",
", 	c #6AA5C5",
"' 	c #69A5CA",
") 	c #6DA5C6",
"! 	c #679DC3",
"~ 	c #98C0DA",
"{ 	c #6CA7C7",
"] 	c #B3CFE4",
"^ 	c #E0EDF5",
"/ 	c #E1EBF4",
"( 	c #DFECF2",
"_ 	c #E1EBF5",
": 	c #E2EDF3",
"< 	c #DFECF4",
"[ 	c #E0EAF3",
"} 	c #E2ECF5",
"| 	c #E0EDF6",
"1 	c #E2EBF4",
"2 	c #DDEEF5",
"3 	c #DDEBF4",
"4 	c #DEEDF4",
"5 	c #DFECF5",
"6 	c #E3ECF5",
"7 	c #DEEBF3",
"8 	c #C1DBE8",
"9 	c #5F9FC2",
"0 	c #76ACCE",
"a 	c #D4E5EF",
"b 	c #FEFEFF",
"c 	c #FEFFFF",
"d 	c #FFFFFD",
"e 	c #FFFFFF",
"f 	c #FFFEFF",
"g 	c #FFFEFA",
"h 	c #FEFEFE",
"i 	c #FFFFFB",
"j 	c #E3F0F6",
"k 	c #75ACCA",
"l 	c #CFE3EA",
"m 	c #FEFEFC",
"n 	c #FCFFFF",
"o 	c #FFFDFF",
"p 	c #FDFFFE",
"q 	c #FDFEFF",
"r 	c #FFFEFC",
"s 	c #75ABCF",
"t 	c #CFE1EF",
"u 	c #75AECC",
"v 	c #CFE3EE",
"w 	c #DEEDF2",
"x 	c #6DA5C8",
"y 	c #75ABCD",
"z 	c #CFE1ED",
"A 	c #FEFFFD",
"B 	c #DFEDF6",
"C 	c #75ACCB",
"D 	c #CEE2ED",
"E 	c #FFFEFB",
"F 	c #F8BC86",
"G 	c #F4943D",
"H 	c #F5953E",
"I 	c #FEE5CF",
"J 	c #FBF1E8",
"K 	c #F39E4D",
"L 	c #F6943D",
"M 	c #F6AF6F",
"N 	c #D0E2EC",
"O 	c #F5AB64",
"P 	c #EF7506",
"Q 	c #F0770C",
"R 	c #FBDDC1",
"S 	c #FDEDDE",
"T 	c #F1811F",
"U 	c #EF7508",
"V 	c #F49948",
"W 	c #F6AB67",
"X 	c #F27A0C",
"Y 	c #F27C12",
"Z 	c #FCDEC2",
"` 	c #FEEEDF",
" .	c #F28422",
"..	c #F59C4A",
"+.	c #F6AB68",
"@.	c #F17B0F",
"#.	c #F37C14",
"$.	c #FCDEC4",
"%.	c #FCEEE1",
"&.	c #F38524",
"*.	c #F37A0F",
"=.	c #F5AC67",
"-.	c #F07A0E",
";.	c #F28423",
">.	c #F69D4B",
",.	c #F6AD68",
"'.	c #F27B13",
").	c #F7AC68",
"!.	c #F2790E",
"~.	c #F37D13",
"{.	c #F28624",
"].	c #F5AC68",
"^.	c #F27D14",
"/.	c #FADFC4",
"(.	c #F38526",
"_.	c #F07A10",
":.	c #F59C4C",
"<.	c #FCEFDF",
"[.	c #F38523",
"}.	c #F07B11",
"|.	c #F07C15",
"1.	c #F28526",
"2.	c #F17B11",
"3.	c #F39C4C",
"4.	c #FDDFC3",
"5.	c #FFEFE0",
"6.	c #F48323",
"7.	c #F5A75F",
"8.	c #F07201",
"9.	c #F17406",
"0.	c #FDDCBD",
"a.	c #FEEDDB",
"b.	c #F27E17",
"c.	c #EF7301",
"d.	c #F39742",
"e.	c #FFFDFE",
"f.	c #CEE2EB",
"g.	c #FDFFFC",
"h.	c #FAD0AA",
"i.	c #F5B376",
"j.	c #F9B274",
"k.	c #FCECDF",
"l.	c #FEF4F2",
"m.	c #F6B87F",
"n.	c #F7B175",
"o.	c #F9C697",
"p.	c #E0EDF3",
"q.	c #74ACCD",
"r.	c #CEE1EF",
"s.	c #DFEDF8",
"t.	c #76ABCB",
"u.	c #6EA4C6",
"v.	c #CCE2ED",
"w.	c #FFFEFD",
"x.	c #FBFFFF",
"y.	c #FEFDFB",
"z.	c #DEECF5",
"A.	c #CFE1EB",
"B.	c #6CA4C7",
"C.	c #D5E6F0",
"D.	c #E6F1F7",
"E.	c #6BA6C6",
"F.	c #A7C7DE",
"G.	c #D0E2F0",
"H.	c #D0E2EE",
"I.	c #CFE3EC",
"J.	c #CCE2EF",
"K.	c #CEE2E9",
"L.	c #CBE1EE",
"M.	c #CFE2F0",
"N.	c #B1D0E4",
"O.	c #5F9DC2",
"P.	c #AFCEE2",
"Q.	c #73A5CA",
"R.	c #72AFCC",
"S.	c #74ADCB",
"T.	c #76AACF",
"U.	c #74ADCA",
"V.	c #76ABCA",
"W.	c #76ADCB",
"X.	c #72ADCF",
"Y.	c #76ABCD",
"Z.	c #74A6C7",
"`.	c #A3C7DF",
"  . + @ # $ % $ & # * & @ = @ * = @ - & ; @ @ @ @ > , ' ) @ ! ~ ",
"{ ] ^ / / ( _ : / < ^ [ } < | < 1 ( 2 3 : ( 4 5 / | 6 7 ^ } 8 9 ",
"0 a b c d e e f e e g c h e i d f h c f e d e f e d c f e e j # ",
"k l e d m e e e f c n e e d e e i e o m f p b e c d q c r e < ) ",
"s t f e n c d c f e f e f c e f p d f n e c e i c c c e f d ^ = ",
"u v e c h d f b c h f e e m d m e q f e e c d e o d d h e c w x ",
"y z d d A c b f p f e d n h e d e e e e c c e f e i p A i f B * ",
"C D c h f o e A c E F G H I e d c E J K L M e e A f f f e c < @ ",
"C N e e e e e e e d O P Q R f e h e S T U V e e e e e e e e < @ ",
"C N e e e e e e e e W X Y Z f e e e `  .X ..e e e e e e e e < @ ",
"C N e e e e e e e e +.@.#.$.e c e e %.&.*...e e e e e e e e < @ ",
"C N e e e e e e e e =.-.#.$.e e e e %.;.@.>.e e e e e e e e < @ ",
"C N e e e e e e e e ,.-.#.Z f d e e %.;.-.>.e e e e e e e e < @ ",
"C N e e e e e e e e +.-.'.$.f e e e %.;.-...e e e e e e e e < @ ",
"C N e e e e e e e e +.@.#.$.f e e e %.&.@...e e e e e e e e < @ ",
"C N e e e e e e e e W -.'.$.e A e e %.;.-.>.e e e e e e e e < @ ",
"C N e e e e e e e e ).!.~.Z f e f e %.{.-.>.f f e e e e e e < @ ",
"C N e e e e e e e e ].-.^./.f e e e %.(._.:.e e e e e e e e < @ ",
"C N e e e e e e e e =.-.'.$.f e e e %.;.!...e c e e e e e e < @ ",
"C N e e e e e e e e W X Y Z f c e e <.[.X >.e e e e e e e e < @ ",
"C N e e e e e e e e =.-.'.$.f e f e %.{.-...e e e e e e e e < @ ",
"C N e e e e e e f e ].}.|./.f d d h %.1.2.3.e e e e e e e e < @ ",
"C N e e e e e e e e W X Y 4.f e e e 5.6.!...e e e e e e e e < @ ",
"C N e e e e e e c d 7.8.9.0.f c e f a.b.c.d.e.e e e e e e e < @ ",
"C f.e c e o f g.c m h.i.j.k.e d e d l.m.n.o.d c c d f e d d p.@ ",
"q.r.e f m A c e f e e h e c c e e d f A i d e e.e n c d d f s.= ",
"t.N m e e d e e f e c i d e e d e e o d c e f e e.e e e d f < u.",
"q.v.e e c e w.e A d d e f c r d d x.c f e h d e e d e c y.e z.$ ",
"t.A.f e e e e c f c c b e c c f i c e e d c e e c m c e f e } B.",
"q.C.e q e f e c e d d e e f m c f e c e.d r g.e c d e e c e D.# ",
"E.F.f.v v f.G.H.f.t H.v.I.v N f.J.D K.v L.M.z D H.v A.D f.z N.O.",
"P.Q.R.t.y S.T.U.S.C u q.y y y q.t.q.S.V.0 C W.y W.X.Y.y k q.Z.`."};
