/* XPM */
static char * PlayButtonSelect_xpm[] = {
"32 32 505 2",
"  	c None",
". 	c #7A97E6",
"+ 	c #4E75D2",
"@ 	c #4D7CD4",
"# 	c #4F7CD4",
"$ 	c #4F7CD7",
"% 	c #527BD7",
"& 	c #4D7CD6",
"* 	c #4F7CD3",
"= 	c #527CD4",
"- 	c #4D76D1",
"; 	c #7290E3",
"> 	c #517DD4",
", 	c #869BEA",
"' 	c #A8B2F7",
") 	c #A9B0F6",
"! 	c #A7B1F5",
"~ 	c #A9B0F7",
"{ 	c #AAB2F5",
"] 	c #A7B1F6",
"^ 	c #A8B2F6",
"/ 	c #A9B3F6",
"( 	c #AAB4F6",
"_ 	c #ABB5F6",
": 	c #ACB5F6",
"< 	c #A8B2F8",
"[ 	c #AAB1F7",
"} 	c #A7B0F5",
"| 	c #91A4ED",
"1 	c #4777D1",
"2 	c #5881DA",
"3 	c #9FACF2",
"4 	c #BFBFFF",
"5 	c #BFC0FF",
"6 	c #C0C0FD",
"7 	c #C0C0FF",
"8 	c #C0BFFF",
"9 	c #C1C1FF",
"0 	c #C2C2FF",
"a 	c #C4C4FF",
"b 	c #C5C5FF",
"c 	c #C6C6FF",
"d 	c #C7C7FF",
"e 	c #AAB4F8",
"f 	c #5881D7",
"g 	c #9BAAEF",
"h 	c #BFBFFC",
"i 	c #C8C8FF",
"j 	c #C9C9FF",
"k 	c #CACAFF",
"l 	c #CBCBFF",
"m 	c #BEBFFF",
"n 	c #C0BFFC",
"o 	c #5880DA",
"p 	c #9BA9F2",
"q 	c #BDC0FF",
"r 	c #C1C1FD",
"s 	c #C3C3FF",
"t 	c #CCCBFF",
"u 	c #CDCDFF",
"v 	c #CECEFF",
"w 	c #CFCFFF",
"x 	c #D0CFFF",
"y 	c #C5C6FF",
"z 	c #C0C1FF",
"A 	c #4F7CD6",
"B 	c #5883D8",
"C 	c #9BAAF2",
"D 	c #BFBFFE",
"E 	c #C4C3FF",
"F 	c #D1D1FF",
"G 	c #D2D2FF",
"H 	c #D3D3FF",
"I 	c #C9C7FF",
"J 	c #C6C6FD",
"K 	c #C4C4FD",
"L 	c #C0C0FE",
"M 	c #A7B2F5",
"N 	c #527CD5",
"O 	c #5880D9",
"P 	c #9BA9F1",
"Q 	c #C0C1FD",
"R 	c #C3C4FF",
"S 	c #CCCCFF",
"T 	c #D4D4FF",
"U 	c #D6D5FF",
"V 	c #D6D6FF",
"W 	c #D7D7FF",
"X 	c #D6D7FF",
"Y 	c #CECFFF",
"Z 	c #CACAFB",
"` 	c #C5C7FE",
" .	c #C3C4FD",
"..	c #C1C1FB",
"+.	c #A7B2F8",
"@.	c #4F7BD6",
"#.	c #9BAAF1",
"$.	c #C3C2FF",
"%.	c #C6C5FF",
"&.	c #CCCCFD",
"*.	c #D8D8FF",
"=.	c #D9D9FF",
"-.	c #DADAFF",
";.	c #DBDBFF",
">.	c #CECFFD",
",.	c #5880D7",
"'.	c #99AAF2",
").	c #C5C5FD",
"!.	c #C9C8FF",
"~.	c #CDC3E6",
"{.	c #D2D1FF",
"].	c #D5D5FF",
"^.	c #DAD9FD",
"/.	c #DBDBFC",
"(.	c #DCDDFF",
"_.	c #DEDEFF",
":.	c #DEDEFE",
"<.	c #DFDEFF",
"[.	c #DFDFFF",
"}.	c #DEDDFF",
"|.	c #DDDBFF",
"1.	c #D6D6FE",
"2.	c #D4D5FF",
"3.	c #CACCFF",
"4.	c #C9C9FD",
"5.	c #A9B1F5",
"6.	c #9AAAF3",
"7.	c #C1C0FB",
"8.	c #C9CBFF",
"9.	c #CB8C82",
"0.	c #CC8774",
"a.	c #D4B1B8",
"b.	c #D8D2EE",
"c.	c #DDDDFF",
"d.	c #E1E1FF",
"e.	c #E2E2FF",
"f.	c #E3E3FD",
"g.	c #E3E2FF",
"h.	c #E1E3FF",
"i.	c #E0E2FF",
"j.	c #E1E1FD",
"k.	c #DFDFFD",
"l.	c #DDDCFF",
"m.	c #D8D7FD",
"n.	c #CECEFC",
"o.	c #C5C8FF",
"p.	c #A9B3F7",
"q.	c #9BAAF0",
"r.	c #CAC9FF",
"s.	c #CDCDFD",
"t.	c #D0D1FF",
"u.	c #CC8E7F",
"v.	c #CB6F43",
"w.	c #D0774A",
"x.	c #D48360",
"y.	c #D9A191",
"z.	c #DFCAD4",
"A.	c #E4E4FC",
"B.	c #E5E6FF",
"C.	c #E7E7FF",
"D.	c #E7E7FD",
"E.	c #E6E6FF",
"F.	c #E4E4FF",
"G.	c #E0DFFF",
"H.	c #CDCCFF",
"I.	c #C9CAFD",
"J.	c #507CD7",
"K.	c #5781D9",
"L.	c #9DAAF0",
"M.	c #C2C4FE",
"N.	c #CACBFE",
"O.	c #CF9080",
"P.	c #CF754C",
"Q.	c #D47D51",
"R.	c #D57F4E",
"S.	c #D8804A",
"T.	c #DC834D",
"U.	c #DF9B73",
"V.	c #E5C2B7",
"W.	c #EADEE6",
"X.	c #EBEBFD",
"Y.	c #EBEBFF",
"Z.	c #EAEAFF",
"`.	c #E8E8FD",
" +	c #E4E6FE",
".+	c #E2E3FF",
"++	c #E0E0FF",
"@+	c #DDDBFE",
"#+	c #D6D6FD",
"$+	c #CDCEFF",
"%+	c #CACAFE",
"&+	c #C7C7FD",
"*+	c #AEB6F5",
"=+	c #9EABF2",
"-+	c #CCCDFD",
";+	c #D0D0FF",
">+	c #D3D4FF",
",+	c #D19280",
"'+	c #D27848",
")+	c #D48053",
"!+	c #D88356",
"~+	c #DC8751",
"{+	c #DF8A53",
"]+	c #E1884D",
"^+	c #E28949",
"/+	c #E5945C",
"(+	c #E8AF8B",
"_+	c #EBD4CE",
":+	c #EDEAFB",
"<+	c #EBEAFF",
"[+	c #E8E8FF",
"}+	c #E6E5FF",
"|+	c #E2E1FE",
"1+	c #C8C8FE",
"2+	c #B0B7F4",
"3+	c #507DD6",
"4+	c #5882DA",
"5+	c #9BABF0",
"6+	c #C9C9FE",
"7+	c #CBCEFF",
"8+	c #D5D5FD",
"9+	c #D1937F",
"0+	c #D27A4A",
"a+	c #D98152",
"b+	c #D98452",
"c+	c #DE8953",
"d+	c #E18C53",
"e+	c #E59052",
"f+	c #E89153",
"g+	c #E99150",
"h+	c #E88F48",
"i+	c #E8924E",
"j+	c #E9A170",
"k+	c #EAC3B0",
"l+	c #E9DEE9",
"m+	c #E7E8FF",
"n+	c #E3E4FF",
"o+	c #E0E0FC",
"p+	c #D9D9FD",
"q+	c #CECDFF",
"r+	c #C7CAFF",
"s+	c #AEB8F8",
"t+	c #537DD4",
"u+	c #9FADF0",
"v+	c #C6C6FE",
"w+	c #CACAFD",
"x+	c #CECEFD",
"y+	c #D2D2FD",
"z+	c #D19582",
"A+	c #D27B4C",
"B+	c #D78251",
"C+	c #DB8754",
"D+	c #E38E53",
"E+	c #E79255",
"F+	c #EA9553",
"G+	c #EC9753",
"H+	c #ED9955",
"I+	c #ED9652",
"J+	c #EA924D",
"K+	c #E58D49",
"L+	c #E49057",
"M+	c #E2A686",
"N+	c #E2C7C8",
"O+	c #E2DFF9",
"P+	c #DEDEFD",
"Q+	c #D9DAFF",
"R+	c #D6D5FC",
"S+	c #AEB8F7",
"T+	c #537FD5",
"U+	c #5882D8",
"V+	c #9FACEF",
"W+	c #C9CAFF",
"X+	c #D3D2FF",
"Y+	c #D39481",
"Z+	c #D47B4A",
"`+	c #D98351",
" @	c #DC8752",
".@	c #E18C54",
"+@	c #E49054",
"@@	c #E79352",
"#@	c #EC9751",
"$@	c #EF9A53",
"%@	c #F19C51",
"&@	c #F09A54",
"*@	c #EE9653",
"=@	c #E89353",
"-@	c #E48F53",
";@	c #E18646",
">@	c #DC834A",
",@	c #DA8C65",
"'@	c #D9ACA6",
")@	c #D9D1EF",
"!@	c #D3D3FD",
"~@	c #CBCBFD",
"{@	c #AFB9F8",
"]@	c #537FD4",
"^@	c #9FAEF2",
"/@	c #C6C7FD",
"(@	c #D49680",
"_@	c #D47B4B",
":@	c #D98453",
"<@	c #DD8851",
"[@	c #E28B51",
"}@	c #E89453",
"|@	c #ED9751",
"1@	c #F19C53",
"2@	c #F49F50",
"3@	c #ED9853",
"4@	c #E89352",
"5@	c #E58E50",
"6@	c #E28445",
"7@	c #DB8851",
"8@	c #D99877",
"9@	c #DAB7B7",
"0@	c #DAD3F2",
"a@	c #D4D7FF",
"b@	c #D3D1FE",
"c@	c #B0B9F5",
"d@	c #537ED6",
"e@	c #9FADF2",
"f@	c #CBCAFB",
"g@	c #CFCEFC",
"h@	c #D2D3FF",
"i@	c #D49481",
"j@	c #D37C4A",
"k@	c #DC8754",
"l@	c #E08B53",
"m@	c #E48E54",
"n@	c #E99355",
"o@	c #EB9651",
"p@	c #EE9A53",
"q@	c #F09A52",
"r@	c #F09953",
"s@	c #EA934A",
"t@	c #E7904B",
"u@	c #E59B65",
"v@	c #E1B39A",
"w@	c #E5D2DA",
"x@	c #DADBFF",
"y@	c #D7D6FC",
"z@	c #CBCBFB",
"A@	c #517ED4",
"B@	c #9DACF3",
"C@	c #D5D5FC",
"D@	c #CF9481",
"E@	c #D37A4B",
"F@	c #D88253",
"G@	c #DB8653",
"H@	c #E18A54",
"I@	c #E38C52",
"J@	c #E69150",
"K@	c #E99450",
"L@	c #EB934D",
"M@	c #EC9149",
"N@	c #EB9556",
"O@	c #ECAE83",
"P@	c #EBD0C5",
"Q@	c #ECE8F5",
"R@	c #E8E9FF",
"S@	c #E4E5FE",
"T@	c #E2E1FF",
"U@	c #DDDEFF",
"V@	c #D5D6FD",
"W@	c #D1D2FF",
"X@	c #ADB8F8",
"Y@	c #9EABEF",
"Z@	c #D1D0FF",
"`@	c #D39281",
" #	c #D47848",
".#	c #D68153",
"+#	c #DA8555",
"@#	c #DD8850",
"##	c #E08B51",
"$#	c #E38A4B",
"%#	c #E58F4E",
"&#	c #E99E69",
"*#	c #ECBDA0",
"=#	c #EFE0DE",
"-#	c #EFF0FF",
";#	c #EDEDFD",
">#	c #E6E7FF",
",#	c #E4E4FD",
"'#	c #E0E0FD",
")#	c #DCDBFE",
"!#	c #D0D0FC",
"~#	c #AEB8F5",
"{#	c #527ED4",
"]#	c #5581D7",
"^#	c #9EABF0",
"/#	c #CBCCFE",
"(#	c #D4D4FD",
"_#	c #CF9181",
":#	c #CF784B",
"<#	c #D67F51",
"[#	c #D77F4D",
"}#	c #DA8149",
"|#	c #DF8B58",
"1#	c #E3A886",
"2#	c #E9CFCC",
"3#	c #EEEAF8",
"4#	c #EDEEFF",
"5#	c #EEEEFF",
"6#	c #ECECFF",
"7#	c #E8E7FC",
"8#	c #E5E4FF",
"9#	c #D7D7FD",
"0#	c #D4D3FF",
"a#	c #CBCCFF",
"b#	c #AFB6F7",
"c#	c #517CD6",
"d#	c #C7C7FB",
"e#	c #CACBFF",
"f#	c #CF8D7F",
"g#	c #CF6F42",
"h#	c #D37B4E",
"i#	c #D78F6C",
"j#	c #DCAFA3",
"k#	c #E3D5E3",
"l#	c #E8E9FD",
"m#	c #E9EAFF",
"n#	c #E9E9FF",
"o#	c #E7E6FF",
"p#	c #E3E5FE",
"q#	c #E1E2FF",
"r#	c #DCDCFF",
"s#	c #CECDFE",
"t#	c #C6C7FF",
"u#	c #ABB5F5",
"v#	c #517BD4",
"w#	c #C2C1FF",
"x#	c #D0D0FD",
"y#	c #CC9389",
"z#	c #CD9586",
"A#	c #D8BECE",
"B#	c #DCDAFD",
"C#	c #DEDFFF",
"D#	c #E2E2FD",
"E#	c #E3E4FD",
"F#	c #E4E5FF",
"G#	c #E5E5FF",
"H#	c #E1E2FD",
"I#	c #DDDCFD",
"J#	c #D4D6FF",
"K#	c #CFD0FF",
"L#	c #C9C8FE",
"M#	c #AAB4F7",
"N#	c #D1CCF5",
"O#	c #DCDCFD",
"P#	c #DFE0FF",
"Q#	c #E1E1FE",
"R#	c #DBDCFF",
"S#	c #CBCAFF",
"T#	c #C8C7FF",
"U#	c #CDCEFC",
"V#	c #DBDAFF",
"W#	c #D8D9FF",
"X#	c #CFCEFD",
"Y#	c #C2C2FD",
"Z#	c #A8B2F5",
"`#	c #C2C2FC",
" $	c #C5C6FD",
".$	c #C8C9FF",
"+$	c #C9CCFF",
"@$	c #C2C3FD",
"#$	c #A7B2F9",
"$$	c #9CAAF0",
"%$	c #C3C3FD",
"&$	c #D5D6FF",
"*$	c #CBCAFE",
"=$	c #527BD4",
"-$	c #99AAF1",
";$	c #C3C2FD",
">$	c #BFBEFB",
",$	c #A7B1F7",
"'$	c #9BA9EF",
")$	c #C4C5FF",
"!$	c #A0ADF3",
"~$	c #ADB5F8",
"{$	c #507CD4",
"]$	c #7D95E6",
"^$	c #9CAAF3",
"/$	c #9CAAF2",
"($	c #9DACF1",
"_$	c #9EADF1",
":$	c #9FAEF1",
"<$	c #A0AFF1",
"[$	c #A1B0F1",
"}$	c #A2B0F1",
"|$	c #A2B1F1",
"1$	c #9FAFF1",
"2$	c #859CEA",
"3$	c #4776D1",
"4$	c #839BE9",
"5$	c #567CD7",
"6$	c #5583D8",
"7$	c #5782D7",
"8$	c #5981D9",
"9$	c #5982D9",
"0$	c #5A83D9",
"a$	c #5B83D9",
"b$	c #5881D9",
"c$	c #5882D7",
"d$	c #5582DA",
"e$	c #577CD4",
"f$	c #7A95E6",
". + @ # $ # % # # # # # # # # # # # # # # # # # # & * $ = # - ; ",
"> , ' ) ) ! ~ { ] ] ] ^ / ( _ _ : _ _ ( / ^ ] ] ) < [ } ' [ | 1 ",
"2 3 4 5 6 7 7 8 7 9 0 a b c d d d d d c b a 0 9 7 6 5 8 7 7 e $ ",
"f g 7 6 h 7 7 7 0 a c i j k l l l l l k j i c a 0 6 m 5 n 7 ] = ",
"o p 8 7 q 5 r s c i k t u v w w x w w v u l k i y s z 7 8 6 ' A ",
"B C 7 5 D r E c j l u w F G H H H H H G F w u l I J K L 7 5 M N ",
"O P 6 6 Q R c j S v F H T U V W W W X U T H F Y S Z `  ...8 +.@.",
"f #.5 D $.%.j &.w G T V *.=.-.;.;.;.-.=.*.V T G >.S j c s 5 ] # ",
",.'.6 0 ).!.t ~.{.].W ^./.(._.:.<.[.}.|.;.=.1.2.G w 3.4.).0 5.# ",
"f 6.7.R i 8.v 9.0.a.b.c.[.d.e.f.g.h.i.j.k.l.-.m.].{.n.l o.R p.A ",
",.q.0 J r.s.t.u.v.w.x.y.z.A.B.C.C.D.E.F.e.G.c.-.W T F H.I.J ( J.",
"K.L.M.d N.w G O.P.Q.R.S.T.U.V.W.X.Y.Z.`. +.+++@+=.#+G $+%+&+*+A ",
"K.=+).j -+;+>+,+'+)+!+~+{+]+^+/+(+_+:+<+[+}+|+<.;.W >+x S 1+2+3+",
"4+5+%.6+7+F 8+9+0+a+b+c+d+e+f+g+h+i+j+k+l+m+n+o+c.p+2.F q+r+s+t+",
",.u+v+w+x+y+U z+A+B+C+{+D+E+F+G+H+I+J+K+L+M+N+O+P+Q+R+{.x+w+S+T+",
"U+V+d W+Y X+W Y+Z+`+ @.@+@@@#@$@%@&@*@=@-@;@>@,@'@)@V !@Y ~@{@]@",
"K.^@/@l Y H W (@_@:@<@[@+@}@|@1@2@1@3@4@5@6@7@8@9@0@a@b@Y ~@c@d@",
"f e@v+f@g@h@X i@j@`+k@l@m@n@o@p@q@r@s@t@u@v@w@g.P+x@y@H $+z@{@A@",
",.B@%.4.v y+C@D@E@F@G@H@I@J@K@L@M@N@O@P@Q@R@S@T@U@-.V@W@x+r.X@T+",
"f Y@).j s.Z@].`@ #.#+#@###$#%#&#*#=#-#;#Z.>#,#'#)#=.].!#u j ~#{#",
"]#^#a i /#;+(#_#:#<#[#}#|#1#2#3#4#5#6#Z.7#8#e._.x@9#0#x a#d b#c#",
"4+g s d#e#v G f#g#h#i#j#k#C.l#R@Z.m#n#o#p#q#_.r#p+].W@s#z@t#u#v#",
"O C w#b !.u x#y#z#A#B#C#D#E#F#}+E.E.G#n+H#k.I#-.J#H K#s.L#y M#@.",
",.g n a v+k $+N#(#X Q+O#_.P#d.Q#|+q#d.G.U@R#Q+W (#Z@$+S#d R [ # ",
"f g 7 9 b T#l U#F T V =.x@r#c._._._.c.r#V#W#V T F X#l i ).Y#Z## ",
"K.p 7 8 `# $.$S v F H ].W *.=.-.-.-.=.*.W ].H F v +$.$J @$8 #$A ",
",.$$h 7 7 %$c j l v ;+G H ].&$V V V &$].H G ;+v *$j c s 6 8 ] =$",
"K.-$7 7 5 7 ;$c i k S v ;+F G G G G G F ;+v S k i J s 7 >$7 ,$# ",
",.'$8 7 7 7 7 0 b d j l S u v v v v v u S S#j d )$`#5 7 8 7 [ v#",
"K.!$7 m 7 8 7 5 9 s b d i j k k k k k j i d b s 9 6 7 7 5 7 ~$$ ",
"{$]$g C C g ^$/$#.#.($_$:$<$[$}$|$|$[$<$1$_$($#./$C '$#.g P 2$3$",
"4$5$6$,.O 7$o 7$O O O O 8$9$0$a$a$a$0$9$b$O O O c$d$O O f K.e$f$"};
