/* XPM */
static char * SmallCenterPointJumpButtonSelect_xpm[] = {
"32 32 343 2",
"  	c None",
". 	c #7591E3",
"+ 	c #4D7AD4",
"@ 	c #4F7AD5",
"# 	c #4F7BD6",
"$ 	c #4E7BD5",
"% 	c #507AD2",
"& 	c #4C7BD6",
"* 	c #507AD5",
"= 	c #507BD5",
"- 	c #507CD5",
"; 	c #517CD5",
"> 	c #4F7BD5",
", 	c #4F7CD6",
"' 	c #507AD4",
") 	c #4F7CD7",
"! 	c #7392E3",
"~ 	c #4C7BD4",
"{ 	c #8DA1ED",
"] 	c #ACB4F6",
"^ 	c #AAB3F7",
"/ 	c #ABB3F7",
"( 	c #ACB4F8",
"_ 	c #AAB4F4",
": 	c #ADB5F7",
"< 	c #AEB6F7",
"[ 	c #AFB7F7",
"} 	c #B0B8F7",
"| 	c #B1B9F7",
"1 	c #ACB4F7",
"2 	c #ACB3F9",
"3 	c #AAB4F8",
"4 	c #97A7F0",
"5 	c #5580D6",
"6 	c #547ED7",
"7 	c #A4AEF3",
"8 	c #BFBFFE",
"9 	c #C0C0FF",
"0 	c #C0C0FD",
"a 	c #BDC0FF",
"b 	c #C1C1FF",
"c 	c #C3C3FF",
"d 	c #C4C4FF",
"e 	c #C6C6FF",
"f 	c #C7C7FF",
"g 	c #C8C8FF",
"h 	c #C9C9FF",
"i 	c #C2C2FF",
"j 	c #BFBFFC",
"k 	c #BFC0FF",
"l 	c #C0BFFF",
"m 	c #C0BEFF",
"n 	c #ADB3F6",
"o 	c #5C84DB",
"p 	c #527ED5",
"q 	c #9FADF2",
"r 	c #C1C2FF",
"s 	c #CACAFF",
"t 	c #CBCBFF",
"u 	c #CCCCFF",
"v 	c #CDCDFF",
"w 	c #C3C4FF",
"x 	c #C1C1FB",
"y 	c #BEC0FE",
"z 	c #C0BFFC",
"A 	c #A9B3F6",
"B 	c #5C84DA",
"C 	c #527FD7",
"D 	c #A1ADF2",
"E 	c #C3C3FD",
"F 	c #C5C5FF",
"G 	c #C8C7FF",
"H 	c #CAC9FF",
"I 	c #CCCBFF",
"J 	c #CFCEFF",
"K 	c #D0CFFF",
"L 	c #D1D0FF",
"M 	c #D1D1FF",
"N 	c #D0D0FF",
"O 	c #CDCCFF",
"P 	c #CBCAFF",
"Q 	c #C5C5FD",
"R 	c #AAB4F5",
"S 	c #5C84DD",
"T 	c #C2C3FD",
"U 	c #C6C6FD",
"V 	c #CFCFFF",
"W 	c #D3D3FF",
"X 	c #D4D4FF",
"Y 	c #D5D5FF",
"Z 	c #D5D4FF",
"` 	c #D3D4FF",
" .	c #D2D2FF",
"..	c #C4C5FD",
"+.	c #A9B3F5",
"@.	c #5E85DB",
"#.	c #557DD7",
"$.	c #A2ADF2",
"%.	c #C1C3FE",
"&.	c #C3C6FF",
"*.	c #CECEFF",
"=.	c #D0D1FF",
"-.	c #D6D6FF",
";.	c #D7D7FF",
">.	c #D8D8FF",
",.	c #D9D9FF",
"'.	c #CCCDFE",
").	c #C7C8FF",
"!.	c #C4C5FF",
"~.	c #C2C1FD",
"{.	c #AAB2F8",
"].	c #5B83DC",
"^.	c #547ED6",
"/.	c #C5C4FF",
"(.	c #CBCBFD",
"_.	c #CDCEFD",
":.	c #D4D3FF",
"<.	c #DADAFF",
"[.	c #DBDBFF",
"}.	c #DCDCFF",
"|.	c #DDDDFF",
"1.	c #CFD0FD",
"2.	c #CECDFD",
"3.	c #C0C1FF",
"4.	c #A0ADF3",
"5.	c #D7D9FD",
"6.	c #DADBFF",
"7.	c #DEDFFF",
"8.	c #E0E0FD",
"9.	c #E1E1FF",
"0.	c #E0E0FF",
"a.	c #DEDEFD",
"b.	c #DCDDFF",
"c.	c #DADBFD",
"d.	c #D5D6FD",
"e.	c #5E84DA",
"f.	c #D5D6FB",
"g.	c #D9D8FF",
"h.	c #DFDFFF",
"i.	c #E1E0FF",
"j.	c #E2E3FD",
"k.	c #E3E3FC",
"l.	c #E5E5FF",
"m.	c #E5E4FD",
"n.	c #E4E4FF",
"o.	c #E2E2FF",
"p.	c #DEDEFF",
"q.	c #DBDAFF",
"r.	c #D6D5FF",
"s.	c #D3D2FF",
"t.	c #ABB4F6",
"u.	c #D8D9FF",
"v.	c #DFDFFD",
"w.	c #E6E6FF",
"x.	c #E8E8FF",
"y.	c #E9E9FF",
"z.	c #E7E7FF",
"A.	c #E1E4FF",
"B.	c #DDDDFE",
"C.	c #DBDBFD",
"D.	c #C7C6FF",
"E.	c #ACB6F6",
"F.	c #A2AEF3",
"G.	c #D9DBFC",
"H.	c #DDDEFF",
"I.	c #E4E5FD",
"J.	c #EAEAFF",
"K.	c #EAEBFD",
"L.	c #ECECFE",
"M.	c #EDEDFD",
"N.	c #EBECFB",
"O.	c #EBEBFF",
"P.	c #E7E6FB",
"Q.	c #CBCCFF",
"R.	c #AEB7F6",
"S.	c #5F85DA",
"T.	c #A3AFF3",
"U.	c #DDDCFF",
"V.	c #E0DFFE",
"W.	c #E2E4FE",
"X.	c #E7E7FB",
"Y.	c #E8EAFF",
"Z.	c #EDEDFF",
"`.	c #EDEFFE",
" +	c #F0F0FF",
".+	c #F1F1FF",
"++	c #EFF0FF",
"@+	c #EEEEFF",
"#+	c #E6E6FD",
"$+	c #E1E3FF",
"%+	c #AFB8F6",
"&+	c #5F86DA",
"*+	c #A3B0F3",
"=+	c #E2E2FD",
"-+	c #E5E5FE",
";+	c #E9E8FF",
">+	c #ECECFF",
",+	c #EFEFFE",
"'+	c #C7D8EE",
")+	c #73A4CB",
"!+	c #6C9FCC",
"~+	c #B7CFE6",
"{+	c #EFF1FF",
"]+	c #EFEEFF",
"^+	c #AFB9F6",
"/+	c #6087DA",
"(+	c #A4B1F3",
"_+	c #E3E3FB",
":+	c #E6E7FF",
"<+	c #E9EAFB",
"[+	c #C8D8F2",
"}+	c #3883B5",
"|+	c #3A84B8",
"1+	c #3C85B8",
"2+	c #3C82B8",
"3+	c #AFCBE3",
"4+	c #E9EAFD",
"5+	c #E0E2FF",
"6+	c #B0BAF6",
"7+	c #6187DA",
"8+	c #D8D7FF",
"9+	c #E4E3FF",
"0+	c #EBEAFF",
"a+	c #EFEFFF",
"b+	c #6EA0CB",
"c+	c #3B83B8",
"d+	c #3E86B8",
"e+	c #3E89B5",
"f+	c #3C86B8",
"g+	c #5D97C5",
"h+	c #E9E9FE",
"i+	c #DFDEFF",
"j+	c #DFDFFE",
"k+	c #E3E3FF",
"l+	c #EEEFFF",
"m+	c #659BCB",
"n+	c #3D87B6",
"o+	c #4088B6",
"p+	c #3B85B8",
"q+	c #5795C2",
"r+	c #F2F1FF",
"s+	c #EEEEFD",
"t+	c #EAE9FF",
"u+	c #D7D6FF",
"v+	c #E3E2FC",
"w+	c #EAEAFD",
"x+	c #B6CEE8",
"y+	c #3A80B8",
"z+	c #3984B7",
"A+	c #9CBDDC",
"B+	c #F0F1FF",
"C+	c #ECEDFF",
"D+	c #CECFFF",
"E+	c #A4B0F3",
"F+	c #E2E1FF",
"G+	c #ADC7E3",
"H+	c #6097C7",
"I+	c #5A95C4",
"J+	c #F2F2FF",
"K+	c #E2E4FF",
"L+	c #B0B9F6",
"M+	c #D2D1FF",
"N+	c #F1F0FF",
"O+	c #EAECFB",
"P+	c #E3E3FD",
"Q+	c #6086DA",
"R+	c #CCCDFF",
"S+	c #DFE1FF",
"T+	c #E4E4FD",
"U+	c #E9EAFF",
"V+	c #ECEDFD",
"W+	c #E0E1FF",
"X+	c #5E85DA",
"Y+	c #DCDBFF",
"Z+	c #E9E9FD",
"`+	c #E3E4FF",
" @	c #E4E5FF",
".@	c #E2E3FF",
"+@	c #DFE0FF",
"@@	c #D6D6FD",
"#@	c #DADBFE",
"$@	c #DDDDFD",
"%@	c #E1E1FD",
"&@	c #E0E1FD",
"*@	c #D5D6FF",
"=@	c #557DD6",
"-@	c #A0ADF2",
";@	c #C0C0FB",
">@	c #CBCEFC",
",@	c #C4C4FB",
"'@	c #C1C1FD",
")@	c #AAB3F5",
"!@	c #527DD8",
"~@	c #A1AEF6",
"{@	c #C3C2FB",
"]@	c #C7C9FE",
"^@	c #C9CBFE",
"/@	c #C5C3FE",
"(@	c #C2C0FE",
"_@	c #AAB3F8",
":@	c #5B84DA",
"<@	c #A0ADF1",
"[@	c #C9CAFF",
"}@	c #C8C8FD",
"|@	c #C5C4FD",
"1@	c #AAB1F4",
"2@	c #5E83DA",
"3@	c #537DD8",
"4@	c #C3C3FB",
"5@	c #C6C7FF",
"6@	c #AAB3F6",
"7@	c #5B85DB",
"8@	c #C1C2FE",
"9@	c #C2C1FF",
"0@	c #A5AFF5",
"a@	c #BFC0FD",
"b@	c #C0BEFE",
"c@	c #AFB5F6",
"d@	c #4C79D3",
"e@	c #859CEA",
"f@	c #A1ACF2",
"g@	c #9FADF3",
"h@	c #A0ADF4",
"i@	c #9EADF5",
"j@	c #A1AEF3",
"k@	c #A5B2F3",
"l@	c #A6B2F3",
"m@	c #A6B3F3",
"n@	c #A2AFF3",
"o@	c #9EADF2",
"p@	c #A0ADF5",
"q@	c #A1ADF5",
"r@	c #8CA1EC",
"s@	c #7A95E5",
"t@	c #5882D8",
"u@	c #5B83DA",
"v@	c #5D85DA",
"w@	c #5E86DA",
"x@	c #5D83D8",
"y@	c #5D85DC",
"z@	c #5E84D9",
"A@	c #5D82DA",
"B@	c #7897E5",
". + @ # $ % & * @ @ @ @ @ = - - ; ; = > @ @ @ @ @ , ' ) ' ) + ! ",
"~ { ] ^ / ( ^ _ / / : < [ } | | | | | } [ < 1 / / 2 / ^ 3 / 4 5 ",
"6 7 8 9 0 a 9 9 b c d e f g h h h h h g f e d i 9 j k 0 l m n o ",
"p q l l 0 9 0 r d e g s t u v v v v v u t h g e w x 9 y z 9 A B ",
"C D 0 y k 0 E F G H I v J K L M M L N K J O P h f Q i a k z R S ",
"6 D 0 9 l T U g t v V M W X Y Y Y Y Z `  .L V v H G ..i 9 k +.@.",
"#.$.0 9 %.&.G t *.=.W Y -.;.>.,.,.,.>.;.-.X  .N '.P ).!.~.l {.].",
"^.q 9 r /.G (._.M :.-.>.<.[.}.|.|.|.}.[.,.;.Y W 1.2.s f w 3.+.B ",
"^.4.9 d f P *.M X -.5.6.|.7.8.9.9.9.0.a.b.c.>.d.W N v s e c A e.",
"^.4.i e h v N W f.g.}.h.i.j.k.l.l.m.n.o.8.p.q.g.r.s.V u g F t.e.",
"^.4.d f t *. .Y u.[.v.9.n.w.x.y.y.x.z.w.A.9.B.C.>.Y M *.s D.E.e.",
"^.F.F h u N X ;.G.H.9.I.z.J.K.L.M.N.O.y.P.n.9.|.<.-.W V Q.g R.S.",
"^.T.e s *. .Y ,.U.V.W.X.Y.Z.`. +.+++@+O.y.#+$+h.}.>.Z M v h %+&+",
"^.*+f t V W -.<.H.=+-+;+>+,+'+)+!+~+{+]+O.x.l.9.|.,.Y  .*.s ^+/+",
"^.(+).Q.V ` ;.[.v._+:+<+@+[+}+|+1+2+3+.+L.4+w.5+p.<.-. .*.P 6+7+",
"^.(+g u N X 8+[.h.9+z.0+a+b+c+d+e+f+g+.+@+h+w.=+i+6.-.W V t 6+7+",
"^.(+g u N X >.}.j+k+z.O.l+m+c+n+o+p+q+r+s+t+w.o.i+q.u+W V t 6+7+",
"^.(+g Q.V W ;.[.7.v+z.w+s+x+y+z+p+c+A+B+C+t+#+=+p.<.-. .D+s 6+7+",
"^.E+f t V W -.<.B.F+w.y.>+a+G+H+I+A+J+l+O.x.K+9.|.,.Y  .*.s L+/+",
"^.*+e s *.M+Y ,.|.0.n.z.h+M.a+ +N+++@+O+y.#+P+i+}.>.X M v h %+Q+",
"^.F.F h R+N X ;.6.a.S+T+z.U+O.>+V+>+0+;+w.A.W+|.<.-.W V Q.g R.X+",
"^.4.d f t V  .Y g.Y+p.9.T+#+x.Z+y.;+z.#+`+9.p.6.>.Y M *.s e E.e.",
"^.4.i e h v N W r.g.}.p.9.o.n.l. @I..@=++@p.[.u.Y s.V u g F t.e.",
"^.4.9 d f t *.M X @@u.#@$@i++@%@i.&@0.p.|.q.>.*@W N v s e c A e.",
"=@-@;@r F g P >@M X -.>.<.[.}.|.|.|.}.[.,.;.Y W N _.s f ,@'@)@e.",
"!@~@9 9 {@F ]@t *.N W X -.;.>.,.,.,.>.;.-.X  .N v ^@g /@(@9 _@:@",
"#.<@z k 9 c U g t v V M W X Y Y Y Y X `  .M V v [@}@|@i k j 1@2@",
"3@q l 8 k y 4@F g s u v V N M M M M M N J v t h 5@Q i k j 0 6@7@",
"^.-@9 9 l k l 8@d e g s t u v v v v v u t h g e d 9@k 0 0 k )@e.",
"C 0@0 k 0 9 9 a@b c d e f g h h h h h g f e d i 0 9 l b@k 9 c@e.",
"d@e@f@g@h@q i@4.4.4.j@*+(+k@k@l@m@l@k@(+E+n@j@4.4.o@-@p@4.q@r@^.",
"s@t@o B u@2@o 2@B B B B B v@w@w@w@w@w@v@B B B B e.7@x@y@z@o A@B@"};
